<svg id="Layer_1" data-name="Layer 1" xmlns="http://www.w3.org/2000/svg" viewBox="0 0 700 700"><defs><style>.cls-1{fill:#fcca6e;}.cls-2{fill:#72524b;}.cls-3{fill:#fbfcfc;}.cls-4{fill:#363637;}.cls-5{fill:#48322d;}.cls-6{fill:#353638;}.cls-7{fill:#383838;}.cls-8{fill:#604e4a;}.cls-9{fill:#373737;}</style></defs><title>Chunk FLAT</title><path class="cls-1" d="M261.12,250.62c-9.09,2.52-18.18,5-27.25,7.56-12.41,3.52-24.8,7.14-37.2,10.68-5.28,1.51-7,.26-8.54-4.9-3.31-10.95-6.92-21.81-10.42-32.7q-5.79-18-11.59-36a25.33,25.33,0,0,1-1.06-4.33c-.35-2.72.51-5,3.16-6.16,6.65-3,13.15-6.37,20-8.6A308.75,308.75,0,0,1,241.45,164c9.68-1.33,19.51-1.72,29.29-2.27q13.93-.79,27.92-1a119.24,119.24,0,0,1,12.35.89c1.67.15,1.93,1.48,2.17,2.88q2.56,14.94,5.23,29.88c1.94,10.93,3.95,21.85,5.85,32.79.82,4.72.05,6.51-4.4,7.95-6.6,2.15-13.34,3.87-20.07,5.57-10.1,2.54-20.26,4.9-30.38,7.35a7.62,7.62,0,0,0-1.34.67C265.49,248.4,262.92,248.08,261.12,250.62Z"/><path class="cls-2" d="M330.31,320.72a63.33,63.33,0,0,1-1.15-6.79c-.65-9.88,2.66-18.5,9.13-25.78,3-3.42,6.85-6.15,10.29-9.22.94-.84,1.8-1.79,2.73-2.65,2-1.89,4.08-3.77,6.13-5.65.61,1,1.2,2,1.83,2.92,4.14,6.28,10,9.07,17.41,8.13A22.41,22.41,0,0,0,387.45,277l4.39-3.33c.63,1.06,1.15,1.89,1.61,2.75,5.24,9.69,16.38,14.54,26.56,11.39,3.43-1.07,6.71-2.62,10.05-4,2.39,10.06,4.69,20.13,7.17,30.16,3.8,15.45,7.76,30.86,11.56,46.32,1.25,5.09,2.2,10.26,3.29,15.39l-5.91,6.67c-5.43,2.33-10.8,4.78-16.29,6.93-3.49,1.37-7.15,2.3-10.74,3.42-.2-.24-.46-.72-.59-.69-4.21,1.17-8.88.82-12.58,3.7-1.8.2-3.6.41-5.4.59-9.4.92-18.52-.08-26.86-4.82-8.81-5-11.25-14-9-22.64,1.39-5.35,3.8-10.44,5.77-15.72-3.81-1.41-8.07-2.72-12.11-4.51-9.08-4-17-9.55-22.71-17.89a8.81,8.81,0,0,1-.74-1.81c.63-3.31-2.14-5.26-3.22-7.88C331.59,320.77,330.79,320.81,330.31,320.72Zm83.76,32.86c0-2,.06-2.8,0-3.62-.5-5.58-5-8-9.91-5.31a10.1,10.1,0,0,0-2,1.44c-4.82,4.49-6.57,10.16-6,16.57.25,3.16,3.73,5.38,6.83,4.57C408.86,365.7,414,358.85,414.07,353.58ZM389.72,368c-1.72,7.54.74,12.06,7.44,13.61,8.43,1.95,20.73-3.41,24.85-11,.7-1.3.77-2.95,1.4-5.49-2,.84-3.17,1-3.93,1.68-1.52,1.28-2.79,2.84-4.25,4.2-4.88,4.51-11.58,5.68-16.82,2.72-1.83-1-3.29-2.71-4.91-4.12C392.41,368.65,391.57,367.16,389.72,368Z"/><path class="cls-3" d="M430.06,283.8c-3.34,1.34-6.62,2.89-10.05,4-10.18,3.15-21.32-1.7-26.56-11.39-.46-.86-1-1.69-1.61-2.75L387.45,277a22.41,22.41,0,0,1-10.77,4.73c-7.42.94-13.27-1.85-17.41-8.13-.63-1-1.22-1.94-1.83-2.92-.66-2.18-1.33-4.36-2-6.54,2.31,1.19,4.52,3.21,7.35,1.66A72.31,72.31,0,0,0,373,259.7a23.88,23.88,0,0,0,8.83-15.62c.55-3.42,0-6.75-2.94-9s-6-1.69-9-.32a31.45,31.45,0,0,0-4.23,2.55c-4.28,2.82-6.55,7.34-9.44,11.33.61-2.37.93-4.87,1.91-7.08,3.14-7.1,7.59-13.23,14.25-17.5a21.49,21.49,0,0,1,9.72-3.45c7.1-.69,12.21,2.19,15.67,8.27.39.69.72,1.41,1.2,2.35,3.66-3.3,6.93-6.53,10.49-9.4a27.63,27.63,0,0,1,21.29-6.26A21.4,21.4,0,0,1,446.91,226a32.89,32.89,0,0,1,4.66,22.93c-.29,2-.63,3.93-.94,5.89L443,271.7ZM422,239.87c-.05-.41-.08-1.07-.19-1.72-1.47-8.21-8.56-10.91-15.11-5.75-1.81,1.44-3.73,2.75-5.46,4.29-5.66,5.05-9.39,11.37-9.77,18.91-.45,8.85,4.15,12,11.75,9.77C414,262.22,421.43,250.06,422,239.87Z"/><path class="cls-4" d="M330.31,320.72c.48.09,1.28,0,1.39.3,1.08,2.62,3.85,4.57,3.22,7.88a22,22,0,0,0-3.34.58q-17.44,5.64-34.86,11.38c-4,1.3-4.75,2.25-4.58,6.45a98.12,98.12,0,0,0,1.17,12.35,117.09,117.09,0,0,1,1.9,20.72,57.07,57.07,0,0,0,.62,6.89,7.75,7.75,0,0,1-7.76,8.38,3,3,0,0,1-3-2.8c-.69-4.39-1.41-8.78-1.93-13.19-.73-6.23-1.28-12.47-1.93-18.71a6.73,6.73,0,0,0-.61-1.34c-1.39.66-2.82,1.31-4.23,2-11.3,5.52-21.4-.47-24.21-11.55-2.63-10.43.61-19.57,6.29-28.12a29.61,29.61,0,0,1,13.71-11.08c3.12-1.29,3.47-1.85,2.85-5.15s-1.32-6.46-1.95-9.7c-1.35-7-2.31-14-4.1-20.87-1.91-7.34-4.58-14.49-6.92-21.72-.3-.93-.63-1.86-.94-2.79,1.8-2.54,4.37-2.22,6.95-1.89,2,5.76,4.31,11.43,5.9,17.3,3.36,12.39,6.34,24.89,9.46,37.35.32,1.27.48,2.58.79,3.86.51,2.13,1.21,4.15,3.5,5.18,1.34-.91,2.73-1.81,4.06-2.79a10.92,10.92,0,0,1,7.5-2c3.27.23,5.74,2.33,5.78,5.6a58.22,58.22,0,0,1-.9,8.79,47.45,47.45,0,0,1-1.29,4.93Z"/><path class="cls-5" d="M430.06,283.8,443,271.7c.82-.07,1.8.14,2.44-.24,6.55-3.85,13-7.8,19.54-11.72.63,3.05,1.43,6.07,1.86,9.14,1.17,8.47,2.19,17,3.26,25.46q1.06,8.57,2.1,17.14a32.81,32.81,0,0,1-3.68,2.2c-5.28,2.33-10.62,4.57-14.74,8.82-1.58,1.64-3.14,3.34-2.26,6,3.41.38,5.41-2,7.56-3.53a28.08,28.08,0,0,1,15-5.26c.39,4.08.68,8.18,1.2,12.25.85,6.67,1.85,13.32,2.8,20a21.89,21.89,0,0,0,.36,2.43c1.54,6.34,1,7.85-5.46,12.17-4.08,2.73-8.63,4.75-13,7.1l-7.91,2c-1.09-5.13-2-10.3-3.29-15.39C445,344.82,441,329.41,437.23,314,434.75,303.93,432.45,293.86,430.06,283.8Z"/><path class="cls-6" d="M452.08,375.67l7.91-2c-1.08,1.86-2.28,3.66-3.21,5.59-6.91,14.35-14,28.61-20.54,43.13-2.7,6-5.27,12.12-5.37,19-.1,7.72,2.61,14.63,5.71,21.41a260.44,260.44,0,0,0,20.88,36.77c1.38,2.06,2.73,4.16,4,6.28,2,3.3,1.8,5.32-1.3,7.77a26.19,26.19,0,0,1-7.22,4.31c-20.24,7.22-40.55,14.26-60.85,21.35a1.9,1.9,0,0,1-.56,0c-3.1-1.71-3.22-4.58-2-7.29a73.34,73.34,0,0,1,6.32-11.75c4.23-6.16,9-12,15.28-16.22a24.3,24.3,0,0,1,14-4.36c5.44,0,10.87.25,16.83.41-.68-2.71-2.37-5.08-3.67-7.61-4.7-9.14-9.62-18.18-14-27.5a44,44,0,0,1-4-19.3,59.67,59.67,0,0,1,4.52-21.72c4.7-11.4,11.16-21.84,17.09-32.58,1.28-2.31,2.78-4.51,4.06-6.83.3-.56.09-1.4.12-2.12Z"/><path class="cls-4" d="M406,395.7c3.7-2.88,8.37-2.53,12.58-3.7.13,0,.39.45.59.69-5.6,8-11.41,15.89-16.71,24.1a117.73,117.73,0,0,0-9.24,17c-4.39,10.15-2.48,20,2.23,29.72,4.42,9.11,8.35,18.46,14,26.92,3.9,5.84,3,8.29-4.64,11.13-5.06,1.89-10.53,2.71-15.82,4q-23.34,5.67-46.69,11.35c-9.23,2.26-9-1.19-7.74-7.71,3-14.91,14.52-24.75,29.47-26.87,7.4-1.05,14.08.56,20.95,2.34.95.24,1.88.61,2.83.84.26.06.59-.18,1.23-.41a14.47,14.47,0,0,0-.53-2.65,128.52,128.52,0,0,1-8-27.58,39.53,39.53,0,0,1,5.61-27.68C392.59,416.65,399.32,406.2,406,395.7Z"/><path class="cls-4" d="M474.06,319.72A28.08,28.08,0,0,0,459,325c-2.15,1.54-4.15,3.91-7.56,3.53-.88-2.67.68-4.37,2.26-6,4.12-4.25,9.46-6.49,14.74-8.82a32.81,32.81,0,0,0,3.68-2.2,26.26,26.26,0,0,0,4.44-.1c12.83-2.4,24,.83,33.31,10a29.11,29.11,0,0,1,5.76,8c1.48,3.09,3.08,4.85,6.72,4.3,2.94-.45,5.42.85,7.85,2.51A10.62,10.62,0,0,1,535,345a26.7,26.7,0,0,1-5.81,17.6c-5.62,7.41-12.69,13.14-22.36,14.54a10.08,10.08,0,0,1-4.37,0c-2.89-.95-4.73-.53-6.83,2a15.27,15.27,0,0,1-10.78,5.5c-6.36.51-7.89-4.44-6.41-8.78a15.86,15.86,0,0,1,6.31-8.13c1.24-.83,2.51-1.61,4-2.57a32.44,32.44,0,0,1,5.26-16.1,36.83,36.83,0,0,1,12.31-12C498,326.28,488.2,319.06,474.06,319.72Z"/><path class="cls-7" d="M356.2,248.64c2.89-4,5.16-8.51,9.44-11.33a31.45,31.45,0,0,1,4.23-2.55c3-1.37,6.17-1.83,9,.32s3.49,5.58,2.94,9A23.88,23.88,0,0,1,373,259.7a72.31,72.31,0,0,1-10.15,6.05c-2.83,1.55-5-.47-7.35-1.66C353.09,258.81,354,253.69,356.2,248.64Z"/><path class="cls-6" d="M366.92,212.84c.33-1.79.26-3.17.82-4.2,3.51-6.54,8.52-11.45,15.85-13.45,6.52-1.78,15.15,4.9,15.12,11.55,0,2.37-3,5.79-5.33,5.83a4.42,4.42,0,0,1-2.61-1c-.6-.48-.82-1.41-1.25-2.13-3.8-6.44-11.26-6.89-15.92-1C372.1,210.23,370.84,212.56,366.92,212.84Z"/><path class="cls-6" d="M409.13,207.24c.24-1.6.13-2.6.53-3.31a26.54,26.54,0,0,1,10.17-10c7.68-4.39,15.56-1.1,17.84,7.48a6.4,6.4,0,0,1-.72,4.18,4.53,4.53,0,0,1-7.74.35c-.79-1.06-1.42-2.24-2.19-3.31-2.52-3.5-5.2-4.16-8.95-1.86-2.23,1.37-4.2,3.19-6.31,4.78C411.15,206,410.46,206.41,409.13,207.24Z"/><path class="cls-8" d="M464.94,259.74c-6.5,3.92-13,7.87-19.54,11.72-.64.38-1.62.17-2.44.24l7.67-16.91c3.52.32,7.06.53,10.57,1C463.34,256.09,465.44,256.78,464.94,259.74Z"/><path class="cls-9" d="M414.07,353.58c-.05,5.27-5.21,12.12-11.14,13.65-3.1.81-6.58-1.41-6.83-4.57-.52-6.41,1.23-12.08,6-16.57a10.1,10.1,0,0,1,2-1.44c4.91-2.69,9.41-.27,9.91,5.31C414.13,350.78,414.07,351.61,414.07,353.58Z"/><path class="cls-9" d="M389.72,368c1.85-.81,2.69.68,3.78,1.63,1.62,1.41,3.08,3.09,4.91,4.12,5.24,3,11.94,1.79,16.82-2.72,1.46-1.36,2.73-2.92,4.25-4.2.76-.64,1.89-.84,3.93-1.68-.63,2.54-.7,4.19-1.4,5.49-4.12,7.56-16.42,12.92-24.85,11C390.46,380,388,375.51,389.72,368Z"/><path class="cls-7" d="M422,239.87c-.57,10.19-8,22.35-18.78,25.5-7.6,2.21-12.2-.92-11.75-9.77.38-7.54,4.11-13.86,9.77-18.91,1.73-1.54,3.65-2.85,5.46-4.29,6.55-5.16,13.64-2.46,15.11,5.75C421.92,238.8,422,239.46,422,239.87Z"/><path d="M186.31,225.94c-.27-1.49-.44-2.69-.52-3.59a31.35,31.35,0,0,1,.73-9,43.51,43.51,0,0,1,3.11-9.22,28.45,28.45,0,0,1,4.73-7.28,10,10,0,0,1,5.35-3.38,3,3,0,0,1,2.75.76,6.17,6.17,0,0,1,1.55,3.45,7.52,7.52,0,0,1-.06,3.7c-.32.95-.79,1.49-1.43,1.61-.09,0-.58,0-1.46-.09a8.6,8.6,0,0,0-2.36.08,9.39,9.39,0,0,0-4.79,2.33,13.1,13.1,0,0,0-3.21,4.6,20,20,0,0,0-1.52,6,22.23,22.23,0,0,0,.25,6.26,6.78,6.78,0,0,0,2.51,4.43,6.07,6.07,0,0,0,4.94.94,10.39,10.39,0,0,0,4.54-1.85,11.43,11.43,0,0,0,3.13-4.13,13.84,13.84,0,0,0,1.61-4.74,3.62,3.62,0,0,1,.36-1.41c.18-.36.32-.54.42-.56a1.54,1.54,0,0,1,1.3.44,3.09,3.09,0,0,1,.88,1.82,13.34,13.34,0,0,1,.06,1.63q0,1.25-.15,2.46a20,20,0,0,1-1.28,4.54,18.69,18.69,0,0,1-2.55,4.71,13.08,13.08,0,0,1-2.25,2.2,16.08,16.08,0,0,1-2.93,1.83,11.92,11.92,0,0,1-3.21,1.08c-2.39.44-4.27.21-5.61-.67a9.65,9.65,0,0,1-3-3.44A17.72,17.72,0,0,1,186.31,225.94Z"/><path d="M212.3,220a3.8,3.8,0,0,1,.11-1.84c.15-.43.3-.87.44-1.3a4.92,4.92,0,0,0,.25-1.44,13,13,0,0,0-.16-2.1c-.7-4.7-1.16-8-1.4-10a23.86,23.86,0,0,1-.13-5c.15-1.4.63-2.27,1.43-2.63a.83.83,0,0,1,1,.43,6.87,6.87,0,0,1,.57,2l.25,1.39c.18,1,.41,2.51.69,4.54s.48,3.45.6,4.25.29,1.87.54,3.21a2.93,2.93,0,0,0,.39,1.23.82.82,0,0,0,.78.13,26.17,26.17,0,0,0,2.72-.88,24.88,24.88,0,0,1,3.86-1.09,2.07,2.07,0,0,1,.47,0,2.77,2.77,0,0,0,.46,0,1.19,1.19,0,0,0,1-1.21,11,11,0,0,0-.23-2.87q-.69-3.78-1-6a24.94,24.94,0,0,1-.26-3.56,4.2,4.2,0,0,1,.49-2.07,1.94,1.94,0,0,1,1.38-.89c.43-.08.77.26,1,1s.52,2,.85,3.64c.17.91.63,2.82,1.36,5.71s1.26,5.06,1.59,6.46.68,3,1,4.95c.4,2.17.76,3.85,1.07,5.06s.52,2,.65,2.41a10.85,10.85,0,0,1,.14,3.79c-.18,1-.59,1.55-1.22,1.66a1.78,1.78,0,0,1-1.64-.53,6,6,0,0,1-1.25-2.23,35.93,35.93,0,0,1-1.1-4.09q-.56-2.58-.75-3.36a2.79,2.79,0,0,0-.54-1.2,3.44,3.44,0,0,0-1.15-.39,4.77,4.77,0,0,0-2-.08,10.26,10.26,0,0,0-1.76.49l-1.62.67-1.88.79a2.59,2.59,0,0,0-1.49,1.28,2.85,2.85,0,0,0-.25,1.85,9.24,9.24,0,0,0,.62,1.91c.31.75.56,1.38.75,1.91a17.65,17.65,0,0,1,.6,2.56,9.38,9.38,0,0,1,.15,2.55,4.87,4.87,0,0,1-.52,2,1.64,1.64,0,0,1-1.16.93c-.67.12-1.32-.37-2-1.48a15.13,15.13,0,0,1-1.54-4.83c-.1-.52-.2-1.24-.33-2.15s-.2-1.53-.26-1.81a7.46,7.46,0,0,0-.32-1.31,3.58,3.58,0,0,0-.58-.9A4.83,4.83,0,0,1,212.3,220Z"/><path d="M247.47,191.64a3.52,3.52,0,0,1,.09-1.57,6.22,6.22,0,0,1,.63-1.56,8.7,8.7,0,0,1,.79-1.17,1.65,1.65,0,0,1,.5-.46c.36-.06.88.25,1.58.93a8.19,8.19,0,0,1,1.55,2,13,13,0,0,1,.63,1.57c.3.83.59,1.8.89,2.91s.57,2.28.79,3.52q.87,4.77,1.38,8.66c.34,2.58.53,4.21.56,4.89a15.34,15.34,0,0,1-.05,2.8,9.84,9.84,0,0,1-.36,1.71,13.48,13.48,0,0,1-.61,1.49,6.9,6.9,0,0,0-.5,1.29c0,.2-.07.57-.15,1.1a5.44,5.44,0,0,1-.74,1.84,9.38,9.38,0,0,1-1.93,2.16,20,20,0,0,1-3.84,2.49,14,14,0,0,1-3.62,1.36,6.78,6.78,0,0,1-3.35-.3,8.09,8.09,0,0,1-2.75-1.41,7.58,7.58,0,0,1-2.37-4.37,54.75,54.75,0,0,1-.6-5.64c-.17-2.5-.21-4.85-.14-7.07.07-1.8.17-3.31.28-4.52s.24-2.2.36-3,.2-1.27.25-1.43c.35-1.09.71-1.66,1.09-1.73s.48,0,.57.17a3.29,3.29,0,0,1,.26.93,12.3,12.3,0,0,1-.07,1.79c-.07,1-.12,2.23-.15,3.56s0,2.94.16,4.81a61.34,61.34,0,0,0,.83,6.16,12.54,12.54,0,0,0,.54,2,6.23,6.23,0,0,0,.62,1.44,4.91,4.91,0,0,0,2.36,1.41,7.23,7.23,0,0,0,3.88.34,5.76,5.76,0,0,0,1.95-.79,11.8,11.8,0,0,0,1.93-1.41,6.5,6.5,0,0,0,1.2-1.29,9.56,9.56,0,0,0,1.06-3,9,9,0,0,0,.23-3.6q-.33-1.78-4.29-14.49Q247.52,191.89,247.47,191.64Z"/><path d="M274.2,180.08c.58-.11,1.13.36,1.64,1.4a23.08,23.08,0,0,1,1.5,4.78c.1.33.28,1.05.57,2.16s.67,2.82,1.15,5.14,1,5.12,1.64,8.43q1.05,5.73,1.54,9.46c.32,2.48.54,4.22.64,5.23a7,7,0,0,1-.43,3.44,2.58,2.58,0,0,1-2,1.45q-1.41.26-4.27-1.28a30.2,30.2,0,0,1-5.76-4.12,25.45,25.45,0,0,1-4.45-5,16.33,16.33,0,0,0-1.09-1.57q-.44-.53-.72-.48c-.08,0-.1.26-.07.74s.11,1.2.24,2.18.3,2.13.49,3.43.43,2.9.69,4.75a10.86,10.86,0,0,1,.07,3.62,1.66,1.66,0,0,1-1.35,1.48.82.82,0,0,1-.85-.44,6.86,6.86,0,0,1-.69-1.91c-.22-.92-.51-2.33-.85-4.23-.53-2.91-.95-5.44-1.24-7.57s-.53-3.88-.67-5.23-.25-2.25-.28-2.69a11.6,11.6,0,0,0-1-2.73,12.1,12.1,0,0,1-.95-2.55,3.9,3.9,0,0,1,.43-2,3.2,3.2,0,0,1,1.06-1.6,2.92,2.92,0,0,1,1.14-.37c.22,0,.51.23.86.83.59,1,1.31,2.08,2.14,3.23s1.9,2.51,3.19,4.07,2.47,2.94,3.55,4.16c2.1,2.32,3.91,4.2,5.42,5.62s2.35,2.12,2.54,2.09a1,1,0,0,0,.78-.45,2.63,2.63,0,0,0,0-1.39c0-.06-.29-1.18-.85-3.37s-1.06-4.28-1.51-6.29-.81-3.62-1.18-5.2-.73-3.26-1.12-5-.76-3.69-1.14-5.74c-.21-1.2-.35-2.15-.41-2.85a4.9,4.9,0,0,1,.18-1.91,4.52,4.52,0,0,1,.66-1.11C273.76,180.31,274,180.11,274.2,180.08Z"/><path d="M282.28,181c.4-.07.74.14,1,.64a9,9,0,0,1,.78,2.55c.19.89.36,1.67.51,2.36s.29,1.28.42,1.77.21.85.28,1.08.16.6.28,1.09a10.84,10.84,0,0,0,.72,2.11.76.76,0,0,0,.85.48.5.5,0,0,0,.34-.2,2.23,2.23,0,0,0,.24-.49c.08-.22.16-.42.22-.6a14,14,0,0,1,1-1.74c.61-1,1.53-2.29,2.75-4s2.4-3.16,3.55-4.52a25.27,25.27,0,0,1,4.36-4.27,10,10,0,0,1,2.6-1.58,1.77,1.77,0,0,1,1.79.54,6,6,0,0,1,1,2.73,7.82,7.82,0,0,1,.14,2,5.6,5.6,0,0,1-.5,1.69,4.1,4.1,0,0,1-1.13,1.64,3.44,3.44,0,0,1-1.34.63l-1.6.36a9.18,9.18,0,0,0-3.56,2.38,22.8,22.8,0,0,0-3.05,3.75,6.07,6.07,0,0,0-1.17,2.4c.16.91,1.18,2,3,3.16a29,29,0,0,1,5.83,4.54,8.91,8.91,0,0,1,2.47,4.26,20.49,20.49,0,0,1,.33,2.57,7,7,0,0,1-.59,2.79c-.38.86-.78,1.33-1.21,1.41a1.46,1.46,0,0,1-1.31-.32,10.37,10.37,0,0,1-1.51-2,23,23,0,0,0-1.49-2.07,17.1,17.1,0,0,0-1.64-1.74,6.58,6.58,0,0,0-1.08-.82l-.51-.28a10.69,10.69,0,0,1-1.68-1.47c-.62-.65-1.2-1.28-1.76-1.91a16.82,16.82,0,0,0-1.47-1.47,1.39,1.39,0,0,0-1-.48c-.26,0-.44.33-.56.86a4.94,4.94,0,0,0,0,1.87,33.1,33.1,0,0,0,.83,3.38,20.12,20.12,0,0,0,.73,2.29,4,4,0,0,1,.83,1.42,28.49,28.49,0,0,1,1.29,5.21,5.8,5.8,0,0,1-.24,2.75,2.29,2.29,0,0,1-1.85,1.76c-.34.06-.75-.41-1.22-1.43a36.79,36.79,0,0,1-1.67-4.82q-1-3.28-2-7.61-2.43-9.69-4.28-19.82a7.77,7.77,0,0,1-.15-1.38,4,4,0,0,1,.2-1.26,10.68,10.68,0,0,1,.63-1.6C282,181.29,282.16,181.06,282.28,181Z"/></svg>