<svg id="Layer_1" data-name="Layer 1" xmlns="http://www.w3.org/2000/svg" viewBox="0 0 700 700"><defs><style>.cls-1{fill:#48312c;}.cls-2{fill:#73534b;}.cls-11,.cls-3{fill:#fff;}.cls-3{stroke:#1d1d1b;stroke-miterlimit:10;stroke-width:0.75px;}.cls-4{fill:#383838;}.cls-5{fill:#363637;}.cls-6{fill:#fc6769;}.cls-7{fill:#373737;}.cls-8{fill:#f7c860;}.cls-9{fill:#4f5356;}.cls-10{fill:#6d7278;}.cls-12{fill:#f1746c;}</style></defs><title>Classifier  FLAT</title><polyline class="cls-1" points="150.74 171.97 205.45 187.12 160.2 236.67 142.28 240.83 132.82 176.13"/><polyline class="cls-2" points="132.82 176.13 187.53 191.28 142.28 240.83 132.82 178.02"/><ellipse class="cls-3" cx="155.17" cy="182.2" rx="16.03" ry="9.07" transform="translate(-79.71 136.34) rotate(-38.53)"/><ellipse class="cls-3" cx="170.28" cy="188.43" rx="16.03" ry="9.95" transform="translate(-80.3 147.1) rotate(-38.53)"/><ellipse class="cls-4" cx="172.57" cy="183.19" rx="9.25" ry="5.27" transform="translate(-75.8 223.82) rotate(-56)"/><ellipse class="cls-4" cx="157.56" cy="177.66" rx="9.25" ry="5.27" transform="translate(-77.84 208.94) rotate(-56)"/><path class="cls-5" d="M190.22,175.7a9.21,9.21,0,0,0-1.72-2.48,7.66,7.66,0,0,0-5.06-2.39,10.89,10.89,0,0,0-1.4,0c-.48,0-1,.13-1.43.18l-.25,0a2.53,2.53,0,0,1-.55-5h.51c.68.06,1.35.1,2,.2a15.31,15.31,0,0,1,2,.48,11.46,11.46,0,0,1,3.67,1.9,10.81,10.81,0,0,1,2.66,3,11.1,11.1,0,0,1,1.43,3.62,1,1,0,0,1-.75,1.16,1,1,0,0,1-1.09-.54Z"/><path class="cls-5" d="M171.9,166.66a9.61,9.61,0,0,0-1.71-2.49,7.59,7.59,0,0,0-2.37-1.69,7.69,7.69,0,0,0-2.69-.69,9.47,9.47,0,0,0-1.41,0c-.47,0-1,.13-1.43.18l-.25,0a2.53,2.53,0,0,1-.55-5,2.17,2.17,0,0,1,.51,0c.68.06,1.35.09,2,.2a14,14,0,0,1,2,.48,11.51,11.51,0,0,1,3.66,1.9,10.63,10.63,0,0,1,2.66,3,11.4,11.4,0,0,1,1.44,3.63,1,1,0,0,1-.76,1.16,1,1,0,0,1-1.08-.55Z"/><polygon class="cls-6" points="165 400.14 178.53 278.66 245.75 219.39 245.75 203.24 88.17 203.24 88.17 219.39 149.53 278.66 156.21 400.14 165 400.14"/><path class="cls-5" d="M213.25,380.36l-1.11.27-1,.22c-.65.14-1.31.26-2,.37-1.3.21-2.61.37-3.93.49a49,49,0,0,1-8,0,37,37,0,0,1-16.22-5,33.75,33.75,0,0,1-12.11-13.08,50.11,50.11,0,0,1-5-16.14l0-.15a8.52,8.52,0,1,1,16.86-2.49,9.47,9.47,0,0,1,.09,1.06,34.77,34.77,0,0,0,1.95,11.2,19.22,19.22,0,0,0,5.89,8.37,24.06,24.06,0,0,0,10.2,4.53,36.85,36.85,0,0,0,6.11.73c1,0,2.09,0,3.13,0l1.55-.1,1.39-.13.57-.06a5,5,0,0,1,1.71,9.91Z"/><ellipse class="cls-5" cx="163.49" cy="318.54" rx="34.48" ry="23.45" transform="translate(-159.14 473.79) rotate(-88.53)"/><ellipse class="cls-5" cx="185.82" cy="322.99" rx="18.04" ry="12.27" transform="translate(-184.84 284.7) rotate(-54.19)"/><path class="cls-4" d="M196.53,138.54a19.54,19.54,0,0,0-5.47-1.43,13.5,13.5,0,0,0-5.34.41,9.34,9.34,0,0,0-1.19.43l-1.11.56a11,11,0,0,0-1.9,1.57A11.92,11.92,0,0,0,180,142c-.46.7-.8,1.54-1.21,2.28l-.25.43a3,3,0,1,1-5.24-3,1.65,1.65,0,0,1,.2-.31c.71-1,1.32-1.95,2.12-2.84a16.23,16.23,0,0,1,2.66-2.44,15.27,15.27,0,0,1,3.15-1.84l1.73-.57a13,13,0,0,1,1.76-.35,17.26,17.26,0,0,1,6.79.48,22.31,22.31,0,0,1,6,2.6,1.16,1.16,0,0,1-1.08,2Z"/><circle class="cls-1" cx="217.77" cy="115.52" r="24.97"/><circle class="cls-2" cx="205.45" cy="115.52" r="24.97"/><ellipse class="cls-3" cx="204.44" cy="91.45" rx="16.03" ry="9.07" transform="translate(-12.46 147.27) rotate(-38.53)"/><ellipse class="cls-3" cx="219.54" cy="97.68" rx="16.03" ry="9.95" transform="translate(-13.05 158.03) rotate(-38.53)"/><ellipse class="cls-4" cx="212.83" cy="100.44" rx="9.25" ry="5.27" transform="translate(10.55 220.72) rotate(-56)"/><ellipse class="cls-4" cx="197.82" cy="94.92" rx="9.25" ry="5.27" transform="translate(8.51 205.84) rotate(-56)"/><path class="cls-7" d="M193.86,112.84c.06.3.1.69.18,1a9.43,9.43,0,0,0,.2,1.06c.15.69.31,1.38.52,2a15,15,0,0,0,1.6,3.6A9.76,9.76,0,0,0,202,124.8a21,21,0,0,0,3.92.7,35.91,35.91,0,0,0,4.28,0c2.92-.13,5.92-.56,9-.9h0a.78.78,0,0,1,.86.68.8.8,0,0,1-.38.76,32.64,32.64,0,0,1-8.93,3.56,25.89,25.89,0,0,1-4.95.67,19.63,19.63,0,0,1-5.23-.56,12.89,12.89,0,0,1-6.06-3.45c-.34-.34-.64-.71-.95-1.07s-.55-.77-.8-1.17a13.21,13.21,0,0,1-.65-1.23,14.23,14.23,0,0,1-1.3-5.16,14.69,14.69,0,0,1,0-2.57,13.82,13.82,0,0,1,.48-2.54,1.28,1.28,0,0,1,2.48.12Z"/><path class="cls-4" d="M232.74,112.42a18.88,18.88,0,0,1,3.91-.76c.65-.08,1.31-.08,2-.12s1.32,0,2,.09a18.48,18.48,0,0,1,7.73,2.41,13.18,13.18,0,0,1,1.73,1.13l.85.61c.27.22.51.47.77.7.49.48,1,.93,1.49,1.44l1.3,1.6a9.91,9.91,0,0,1,.63.82l.54.86,1.07,1.75c.61,1.19,1.14,2.42,1.71,3.65a3,3,0,1,1-5.45,2.54c0-.1-.09-.21-.13-.31l-.11-.34c-.35-1-.65-2.12-1-3.17l-.68-1.49-.34-.76a6,6,0,0,0-.41-.69l-.85-1.38c-.32-.44-.68-.83-1-1.25-.18-.21-.34-.43-.52-.63l-.59-.53a9.47,9.47,0,0,0-1.23-1,14.77,14.77,0,0,0-6-2.7c-.54-.11-1.11-.19-1.67-.28s-1.13-.12-1.7-.12a17.79,17.79,0,0,0-3.38.22l-.11,0a1.16,1.16,0,0,1-.53-2.26Z"/><path class="cls-4" d="M254.73,128.48a11.77,11.77,0,0,1,2.6-3.4,14.39,14.39,0,0,1,3.56-2.38,17.43,17.43,0,0,1,4.12-1.28c.71-.15,1.42-.18,2.14-.27s1.42,0,2.14,0a2.52,2.52,0,1,1,.09,5,2.32,2.32,0,0,1-.46,0l-.21,0c-.55-.09-1.1-.21-1.66-.3s-1.11-.14-1.66-.13a13.14,13.14,0,0,0-3.31.32,11.26,11.26,0,0,0-3.1,1.27,9.6,9.6,0,0,0-2.54,2.17l-.08.11a1,1,0,0,1-1.63-1Z"/><path class="cls-4" d="M255.64,126.39a38.86,38.86,0,0,1,4.46.1,40.46,40.46,0,0,1,4.46.61,31.89,31.89,0,0,1,4.48,1.3,20.89,20.89,0,0,1,4.38,2.38l0,0a3,3,0,1,1-3.52,4.9,3,3,0,0,1-.49-.44,14.74,14.74,0,0,0-2.69-2.33,25.84,25.84,0,0,0-3.42-1.85,35.91,35.91,0,0,0-3.81-1.4,37.8,37.8,0,0,0-4-1h-.05a1.16,1.16,0,0,1,.16-2.31Z"/><path class="cls-4" d="M254.73,127.79a4.3,4.3,0,0,1,.92.24,6.16,6.16,0,0,1,.74.33,8.18,8.18,0,0,1,1.28.86,10.72,10.72,0,0,1,2,2.21,20.06,20.06,0,0,1,2.38,5.08,39.66,39.66,0,0,1,1.19,5.3c.28,1.78.42,3.55.56,5.32a3,3,0,0,1-6,.47,2.9,2.9,0,0,1,0-.51V147l.24-2.41c.08-.81.08-1.59.13-2.4a35.37,35.37,0,0,0-.18-4.73,16.88,16.88,0,0,0-1.13-4.38,8.41,8.41,0,0,0-1.08-1.82,5.21,5.21,0,0,0-.71-.7,4.33,4.33,0,0,0-.37-.27c-.11-.07-.3-.15-.28-.17a1.16,1.16,0,0,1,.35-2.3Z"/><path class="cls-4" d="M255.72,130a39.41,39.41,0,0,0-3.71,2.25,31.28,31.28,0,0,0-3.32,2.64,13.21,13.21,0,0,0-2.44,3,3.18,3.18,0,0,0-.5,2.45,3.09,3.09,0,1,1-5.81,2.11,3.28,3.28,0,0,1-.18-1.06v-.7a8.24,8.24,0,0,1,.76-3.35,11,11,0,0,1,1.66-2.5,17.77,17.77,0,0,1,4-3.23,31.69,31.69,0,0,1,4.27-2.16,41.22,41.22,0,0,1,4.41-1.58,1.17,1.17,0,0,1,1.45.79,1.16,1.16,0,0,1-.57,1.36Z"/><path class="cls-4" d="M209.31,140.13a13.53,13.53,0,0,0-2.3,1,17.42,17.42,0,0,0-2.22,1.37,23.82,23.82,0,0,0-3.86,3.51,30.55,30.55,0,0,0-3.09,4.23c-.46.74-.85,1.54-1.28,2.29l-1.12,2.39-.07.15a3,3,0,0,1-5.46-2.56,3,3,0,0,1,.24-.43l1.71-2.48c.63-.8,1.22-1.61,1.88-2.37a35.31,35.31,0,0,1,4.32-4.24,27.25,27.25,0,0,1,5.08-3.29A20.21,20.21,0,0,1,206,138.5a14.86,14.86,0,0,1,3.07-.68,1.16,1.16,0,0,1,.44,2.27Z"/><path class="cls-4" d="M163.19,121.73,170.24,151s2.85,4.33,6.39-.06,1-21.74,1-21.74-2.24-11.35-10.67-9.62A10.5,10.5,0,0,0,163.19,121.73Z"/><path class="cls-4" d="M179.58,131.91l8.42,27.7s2.84,4.34,6.38-.06-1.57-20.27-1.57-20.27-1.68-10.55-9.3-10.08C181.76,129.31,179.58,131.91,179.58,131.91Z"/><path class="cls-5" d="M240,87.11a16.48,16.48,0,0,0-2.17-3.32,14,14,0,0,0-2.86-2.6,10.4,10.4,0,0,0-3.31-1.55,12,12,0,0,0-3.53-.39H228a2.52,2.52,0,0,1,0-5,2.85,2.85,0,0,1,.42,0,16,16,0,0,1,4.8,1.44,14.45,14.45,0,0,1,4,2.82,17.55,17.55,0,0,1,2.86,3.73,18.2,18.2,0,0,1,1.79,4.25,1,1,0,0,1-1.82.68Z"/><path class="cls-5" d="M220.89,77a9.25,9.25,0,0,0-1.72-2.49,7.71,7.71,0,0,0-5.06-2.38,9.35,9.35,0,0,0-1.4,0c-.48,0-1,.12-1.43.18l-.25,0a2.52,2.52,0,1,1-.55-5,2.9,2.9,0,0,1,.51,0c.68.07,1.35.1,2,.21a14,14,0,0,1,2,.48,11.26,11.26,0,0,1,3.67,1.9,10.79,10.79,0,0,1,2.66,3,11.38,11.38,0,0,1,1.43,3.63,1,1,0,0,1-.75,1.15,1,1,0,0,1-1.09-.54Z"/><path class="cls-4" d="M98.5,166.34,86.31,144.72s-1-4.33,3.82-3.92,11.64,13,11.64,13,5.54,7.29.74,11.73C101.41,166.53,98.5,166.34,98.5,166.34Z"/><path class="cls-4" d="M120.69,166.34,108.5,144.72s-1-4.33,3.82-3.92,11.63,13,11.63,13,5.55,7.29.75,11.73C123.6,166.53,120.69,166.34,120.69,166.34Z"/><polygon class="cls-1" points="119.27 132.45 77.67 132.45 77.67 90.85 86.72 81.78 119.27 90.85 128.33 123.38 119.27 132.45"/><rect class="cls-2" x="86.73" y="81.78" width="41.6" height="41.6"/><ellipse class="cls-3" cx="117.7" cy="86.96" rx="9.07" ry="16.03" transform="translate(-25.62 57.38) rotate(-24.8)"/><ellipse class="cls-3" cx="101.4" cy="85.75" rx="9.95" ry="16.03" transform="translate(-26.61 50.44) rotate(-24.8)"/><ellipse class="cls-4" cx="106.16" cy="91.23" rx="5.27" ry="9.25" transform="translate(-10.77 14.29) rotate(-7.33)"/><ellipse class="cls-4" cx="122.05" cy="93.03" rx="5.27" ry="9.25" transform="translate(-10.87 16.33) rotate(-7.33)"/><path class="cls-7" d="M116.05,108c-.14.13-.3.32-.47.48s-.32.33-.49.48c-.34.31-.67.61-1,.88a9.59,9.59,0,0,1-2.16,1.31,6.26,6.26,0,0,1-4.53.17,13.42,13.42,0,0,1-2.33-1.07,24.69,24.69,0,0,1-2.26-1.56c-1.49-1.15-2.92-2.47-4.43-3.79h0a.51.51,0,0,0-.71.05.49.49,0,0,0-.07.54,20.68,20.68,0,0,0,3.4,5.16,17.6,17.6,0,0,0,2.37,2.17,12.8,12.8,0,0,0,3,1.62,8.78,8.78,0,0,0,3.55.52c.31,0,.61-.08.92-.12s.59-.14.89-.21.57-.21.85-.33a7.53,7.53,0,0,0,.8-.41,9.34,9.34,0,0,0,2.58-2.24,10.25,10.25,0,0,0,.92-1.37,8.76,8.76,0,0,0,.68-1.52.82.82,0,0,0-1.35-.84Z"/><path class="cls-4" d="M95.68,127.51a15.94,15.94,0,0,1,3.69,4.83,16.36,16.36,0,0,1,1.84,6,10.07,10.07,0,0,1-.3,3.53,7.66,7.66,0,0,1-2,3.44,8.93,8.93,0,0,1-3.4,2A14.59,14.59,0,0,1,92,148h0a3,3,0,0,1-.5-6H92a5.78,5.78,0,0,0,3.53-.5,2.71,2.71,0,0,0,1-1.13,5.21,5.21,0,0,0,.5-1.94,12.4,12.4,0,0,0-.66-4.77,13.17,13.17,0,0,0-2.32-4.42l0-.05a1.17,1.17,0,0,1,1.66-1.63Z"/><path class="cls-4" d="M108.66,127.73a16,16,0,0,1,5.7,2.11,16.22,16.22,0,0,1,4.75,4.06,9.84,9.84,0,0,1,1.63,3.14,7.67,7.67,0,0,1,.14,4,8.91,8.91,0,0,1-1.8,3.52A14.19,14.19,0,0,1,116.5,147l0,0a3,3,0,1,1-3.63-4.81,3.12,3.12,0,0,1,.45-.29,5.85,5.85,0,0,0,2.72-2.31,2.72,2.72,0,0,0,.23-1.49,5.3,5.3,0,0,0-.61-1.9,12.47,12.47,0,0,0-3.11-3.68,13.58,13.58,0,0,0-4.33-2.5l-.06,0a1.16,1.16,0,0,1-.75-1.46A1.17,1.17,0,0,1,108.66,127.73Z"/><path class="cls-4" d="M81.28,104a14.47,14.47,0,0,0-5.24.24,11.4,11.4,0,0,0-4.54,2.17,7.19,7.19,0,0,0-.92.83l-.44.41c-.14.16-.26.33-.39.49-.25.33-.52.63-.75,1l-.63,1.08a6,6,0,0,0-.56,1.13l-.49,1.15c-.28.82-.5,1.66-.75,2.47l-.1.31a3,3,0,1,1-5.75-1.8,2.78,2.78,0,0,1,.16-.4c.47-1,.92-2,1.43-3l.89-1.41a9.66,9.66,0,0,1,1-1.36L65.25,106c.38-.41.82-.78,1.23-1.17l.63-.56.7-.49a13.3,13.3,0,0,1,1.43-.91A15.2,15.2,0,0,1,75.56,101c.54,0,1.08,0,1.61,0s1.07,0,1.6.12a15.13,15.13,0,0,1,3.15.66,1.16,1.16,0,0,1-.51,2.26Z"/><path class="cls-4" d="M62.87,115.51a7.88,7.88,0,0,0-2-1.6,9,9,0,0,0-2.41-.89,9.87,9.87,0,0,0-2.54-.15c-.42,0-.86.1-1.28.14l-1.26.28-.13,0a2.53,2.53,0,1,1-1.08-4.94,2.21,2.21,0,0,1,.63-.06c.59,0,1.17,0,1.75.07s1.16.12,1.74.26a13.67,13.67,0,0,1,3.36,1.11,11.85,11.85,0,0,1,2.87,2,9.58,9.58,0,0,1,2.07,2.82,1,1,0,0,1-.46,1.28.94.94,0,0,1-1.14-.23Z"/><path class="cls-4" d="M63.78,115.11a29.35,29.35,0,0,0-3.11.86,26.49,26.49,0,0,0-3,1.19,19.32,19.32,0,0,0-2.6,1.53,10.55,10.55,0,0,0-2,1.84,3,3,0,0,1-4.72-3.83,2.72,2.72,0,0,1,.61-.57l.12-.08a18.21,18.21,0,0,1,7.32-2.87,29.8,29.8,0,0,1,3.6-.4,30.71,30.71,0,0,1,3.59,0,1.18,1.18,0,0,1,1.1,1.24,1.19,1.19,0,0,1-.93,1.08Z"/><path class="cls-4" d="M64.72,116.2c.07,0-.09.08-.15.13a2.47,2.47,0,0,0-.27.21,4.37,4.37,0,0,0-.5.54,6.47,6.47,0,0,0-.77,1.4,13.28,13.28,0,0,0-.76,3.4,26.83,26.83,0,0,0,0,3.7c.06,1.24.23,2.51.39,3.76v.08a3,3,0,0,1-6,.77,3.11,3.11,0,0,1,0-.68c.14-1.43.28-2.85.54-4.28A30.79,30.79,0,0,1,58.21,121a16.48,16.48,0,0,1,2-4.11,9,9,0,0,1,1.65-1.79,6.06,6.06,0,0,1,1.08-.7,4.3,4.3,0,0,1,.62-.27,3.88,3.88,0,0,1,.79-.2,1.16,1.16,0,0,1,.36,2.3Z"/><path class="cls-4" d="M64.37,114A35.7,35.7,0,0,1,68,115.14a27.63,27.63,0,0,1,3.48,1.67,13.81,13.81,0,0,1,3.34,2.61,8.12,8.12,0,0,1,1.43,2.08,11.53,11.53,0,0,1,.5,1.36,15.42,15.42,0,0,1,.2,1.54l.12,1.42a3.41,3.41,0,1,1-6.11-1.77c.18-.23.18-.84-.21-1.6a9.32,9.32,0,0,0-1.77-2.31A23.2,23.2,0,0,0,66.4,118a29.27,29.27,0,0,0-2.87-1.86l-.05,0a1.17,1.17,0,0,1,.89-2.15Z"/><path class="cls-5" d="M83.29,74.91a18.14,18.14,0,0,1,1.79-4.25,17.18,17.18,0,0,1,2.86-3.72,14.48,14.48,0,0,1,4-2.83,16.23,16.23,0,0,1,4.8-1.43,2.51,2.51,0,1,1,.85,4.95,1.87,1.87,0,0,1-.4,0H97a11.65,11.65,0,0,0-3.52.39,10.6,10.6,0,0,0-3.31,1.54,14.06,14.06,0,0,0-2.86,2.61,16.41,16.41,0,0,0-2.17,3.31l0,.08a1,1,0,0,1-1.82-.69Z"/><path class="cls-5" d="M105.21,69.53a11.38,11.38,0,0,1,1.43-3.63,10.67,10.67,0,0,1,2.67-3A11.3,11.3,0,0,1,113,61a14,14,0,0,1,2-.48c.67-.11,1.34-.14,2-.2a2.52,2.52,0,1,1,.46,5,4.17,4.17,0,0,1-.5,0l-.26,0c-.47,0-.95-.15-1.42-.18a9.47,9.47,0,0,0-1.41,0,7.71,7.71,0,0,0-5.06,2.38A9,9,0,0,0,107.11,70l-.06.12a1,1,0,0,1-1.84-.61Z"/><path class="cls-1" d="M178.84,483.87a8.79,8.79,0,0,0-1.94-.39,11.86,11.86,0,0,0,5.37-20.06l-16.16-14.83-15.37-1.23,3.81,61.44c1,1.86,15.56,1.39,15.82,1.37,7-.59,12.3-2.53,14.64-9.8S184.59,485.72,178.84,483.87Z"/><path class="cls-2" d="M163,482.5a8,8,0,0,0-1.9-.38c3.92-.89,6.16-4.56,8.49-8.48,3.49-5.88-3-12.13-3-12.13l-15.93-14.15-23.89,33.46s24.68,26.54,26.42,27.44l.58.27c.23.1.46.19.7.27,5.63,1.81,12.1-2.61,14.44-9.87S168.66,484.31,163,482.5Z"/><ellipse class="cls-3" cx="159.03" cy="445.15" rx="17.3" ry="9.79" transform="matrix(0.94, -0.35, 0.35, 0.94, -146.96, 84.85)"/><ellipse class="cls-3" cx="172.49" cy="456.55" rx="17.3" ry="10.74" transform="translate(-150.12 90.33) rotate(-20.68)"/><path class="cls-4" d="M175.23,482.29a21.21,21.21,0,0,1,3.28,2.6c1,.93,1.9,1.93,2.8,2.95a50.26,50.26,0,0,1,4.67,6.58,69.26,69.26,0,0,1,3.76,7.13c.55,1.22,1,2.46,1.58,3.7l1.41,3.77a3,3,0,0,1-5.64,2.1c0-.11-.07-.21-.1-.32l0-.13-.89-3.67c-.36-1.2-.69-2.41-1.07-3.61a64.52,64.52,0,0,0-2.69-7,47.58,47.58,0,0,0-3.59-6.58,36.84,36.84,0,0,0-2.23-3,19.69,19.69,0,0,0-2.51-2.56l-.1-.08a1.16,1.16,0,0,1,1.35-1.88Z"/><path class="cls-4" d="M189.64,510.25a29.54,29.54,0,0,1,3.86-1.12,31,31,0,0,1,4-.6,24.44,24.44,0,0,1,4.19,0,20.71,20.71,0,0,1,4.34.9,3,3,0,1,1-1.83,5.77,3.38,3.38,0,0,1-.64-.29l0,0a15.06,15.06,0,0,0-2.85-1.38,20.55,20.55,0,0,0-3.31-.83,27.71,27.71,0,0,0-3.55-.33,26.68,26.68,0,0,0-3.59.14h-.07a1.17,1.17,0,0,1-1.29-1A1.16,1.16,0,0,1,189.64,510.25Z"/><path class="cls-4" d="M190.94,510.47a29,29,0,0,1,3.16,1,28.63,28.63,0,0,1,3.07,1.35,16.81,16.81,0,0,1,5.69,4.56l.11.14a3.05,3.05,0,0,1-4.82,3.74,3,3,0,0,1-.46-.83,9.53,9.53,0,0,0-1.12-2.13,17.16,17.16,0,0,0-1.8-2.08,25.35,25.35,0,0,0-2.2-1.89,26.81,26.81,0,0,0-2.44-1.65l-.07,0a1.17,1.17,0,0,1,.88-2.14Z"/><path class="cls-4" d="M189.44,510a3.84,3.84,0,0,1,.67.41,4.76,4.76,0,0,1,.47.41,6.66,6.66,0,0,1,.77.93,8.48,8.48,0,0,1,1,2A15,15,0,0,1,193,518a28.51,28.51,0,0,1-.25,4c-.17,1.33-.43,2.62-.7,3.91a3,3,0,1,1-5.93-1.23,3.29,3.29,0,0,1,.23-.69l0-.08c.5-1,1-2.07,1.42-3.13a23.86,23.86,0,0,0,1-3.2,11.75,11.75,0,0,0,.33-3.13,5.34,5.34,0,0,0-.25-1.42,3.18,3.18,0,0,0-.26-.59,2.26,2.26,0,0,0-.16-.26c0-.05-.15-.16-.07-.14a1.16,1.16,0,1,1,1-2.08Z"/><path class="cls-4" d="M190,512.34a30.13,30.13,0,0,0-3,.78,21.27,21.27,0,0,0-2.84,1.13,8.48,8.48,0,0,0-2.26,1.51,2,2,0,0,0-.75,1.44,2.68,2.68,0,1,1-5.12-.58l.28-.67a12.77,12.77,0,0,1,.58-1.24,8.74,8.74,0,0,1,.78-1,7.66,7.66,0,0,1,1.77-1.39A12.45,12.45,0,0,1,183,511a25.06,25.06,0,0,1,3.47-.51,32.62,32.62,0,0,1,3.43-.06,1,1,0,0,1,.15,1.93Z"/><path class="cls-4" d="M145.17,499.21c-6.3.81-12.6,1.71-18.85,2.75q-4.69.77-9.32,1.69a85.71,85.71,0,0,0-8.93,2.19h0a3.51,3.51,0,0,1-2.14-6.68,2.79,2.79,0,0,1,.39-.1,90.09,90.09,0,0,1,9.84-1.29c3.23-.28,6.44-.49,9.64-.65,6.41-.34,12.79-.53,19.2-.63a1.36,1.36,0,0,1,.19,2.71Z"/><path class="cls-4" d="M134.41,488.33c-2.92-.9-5.92-1.71-8.91-2.44s-6-1.38-9-1.92a75.21,75.21,0,0,0-8.94-1.1c-.73,0-1.47-.09-2.19-.08l-2.12,0-2,.23c-.61.13-1.16.3-1.75.42l-.39.09a3.5,3.5,0,1,1-1.45-6.85h.08a28.52,28.52,0,0,1,10.5.27,80.9,80.9,0,0,1,9.39,2.27q4.56,1.37,9,3c2.95,1.1,5.85,2.25,8.76,3.52a1.36,1.36,0,0,1-.94,2.55Z"/><path class="cls-4" d="M112.19,452.71l-18,26.41s-1.3,5.33,4.84,5,18-14.76,18-14.76,7.32-9.83-.36-15.22A11.91,11.91,0,0,0,112.19,452.71Z"/><path class="cls-4" d="M118.26,474.89l-15.67,26.36s-1.3,5.32,4.84,5,14.9-15.69,14.9-15.69,7.11-8.84,1-14.48C122,474.76,118.26,474.89,118.26,474.89Z"/><path class="cls-7" d="M140.4,472.94c0,.22-.08.5-.11.75s-.07.52-.1.78c-.05.51-.09,1-.09,1.52a10.81,10.81,0,0,0,.31,2.84,7.08,7.08,0,0,0,3,4.2,15.39,15.39,0,0,0,2.55,1.36,27,27,0,0,0,3,1c2.05.56,4.22.93,6.44,1.38h0a.57.57,0,0,1,.44.67.56.56,0,0,1-.43.44,23.82,23.82,0,0,1-7,.47,18.74,18.74,0,0,1-3.57-.64,14.23,14.23,0,0,1-3.49-1.55,9.71,9.71,0,0,1-2.91-2.84,8.08,8.08,0,0,1-.52-.9c-.16-.31-.29-.63-.42-.95s-.21-.66-.29-1a8.37,8.37,0,0,1-.18-1,10.9,10.9,0,0,1,.85-5.62,9.56,9.56,0,0,1,.89-1.66.93.93,0,0,1,1.69.64Z"/><ellipse class="cls-4" cx="175.63" cy="452.19" rx="9.98" ry="5.69" transform="translate(-241.81 205.07) rotate(-38.15)"/><ellipse class="cls-4" cx="162.03" cy="441.54" rx="9.98" ry="5.69" transform="translate(-238.14 194.4) rotate(-38.15)"/><path class="cls-5" d="M191.69,447.2a9.16,9.16,0,0,0,.57-3,7.62,7.62,0,0,0-.45-2.87,7.42,7.42,0,0,0-1.4-2.4,8.49,8.49,0,0,0-1-1c-.36-.32-.76-.6-1.13-.89l-.19-.16A2.52,2.52,0,1,1,191.3,433a2.45,2.45,0,0,1,.36.36c.43.53.88,1,1.27,1.58A13.22,13.22,0,0,1,194,436.7a11.26,11.26,0,0,1,1.21,3.95,10.64,10.64,0,0,1-.26,4,11.38,11.38,0,0,1-1.58,3.57,1,1,0,0,1-1.73-.88Z"/><path class="cls-5" d="M165.41,429.94a11.37,11.37,0,0,1,2.84-2.66,10.49,10.49,0,0,1,3.69-1.57,11.41,11.41,0,0,1,4.12-.16,13.79,13.79,0,0,1,2,.42c.65.19,1.27.45,1.92.68a2.52,2.52,0,0,1-1.73,4.74,1.78,1.78,0,0,1-.44-.21l-.23-.14c-.4-.24-.8-.53-1.21-.77a12.32,12.32,0,0,0-1.28-.59,7.48,7.48,0,0,0-2.73-.52,7.57,7.57,0,0,0-2.86.52,9.27,9.27,0,0,0-2.61,1.52l-.11.09a1,1,0,0,1-1.4-1.35Z"/><path d="M528.4,445.43s27-67.63,45.27-143.09"/><path d="M525.1,444.11c4.12-11.71,8-23.61,11.7-35.51s7.25-23.87,10.6-35.87c1.71-6,3.29-12,4.92-18s3.15-12,4.59-18.09c3-12.07,5.68-24.2,8.25-36.33l0-.1a8.77,8.77,0,0,1,17.15,3.64c0,.19-.09.4-.15.59-3.47,12.16-7,24.28-10.92,36.26-1.88,6-3.93,12-5.9,18s-4.08,11.91-6.22,17.83q-6.32,17.79-13.16,35.35c-4.57,11.73-9.26,23.35-14.27,34.94a3.56,3.56,0,0,1-6.63-2.58Z"/><polygon class="cls-8" points="528.4 206.4 677.73 269.54 640.41 341.95 510.41 273.11 528.4 206.4"/><path class="cls-9" d="M485.07,292.68c-4.76-2.33-10.4.55-15.39,3.64a102.45,102.45,0,0,0-20.16-24.69c2.26-10.26,4-22.66.33-27.31-19.44-25-71.54-25-71.54-25l-8.37,28c-42.95,4.86-86.56,33.84-113.37,80.28-28.87,50-30.47,106.76-8.49,147.22-3.76,5.63-10.86,17.3-10.16,24.21,2,20.42,40.33,39.61,40.33,39.61L295,519a103,103,0,0,0,51.53,8.4l20.58,21.67s35.2-11.14,42.14-20.81c2.54-3.54,3.32-15.73,3.51-26a167.85,167.85,0,0,0,32.11-29.56c6.8,4.73,14.6,9,17.89,6.41,29.86-23.29,28.32-42.86,28.32-42.86l-14.89-17.61a164.52,164.52,0,0,0,10.3-58.59l15.1-9.21S508.32,304.08,485.07,292.68ZM390.88,394c-16.57,28.71-44,43.9-61.22,33.95s-17.78-41.29-1.21-70,44-43.9,61.22-33.95S407.45,365.34,390.88,394Z"/><path class="cls-10" d="M485.07,292.68c-3.89-3.75-13.9-3.68-22.86-2.85a102.87,102.87,0,0,0-27-33.14c1.76-9.3,2.66-19.32-.38-23.49C424.74,219.35,367.75,219,367.75,219L358.63,236a133.7,133.7,0,0,0-48.75,16.35c-6.5-5.59-14.29-11.3-19.07-11.34-14.07-.12-46.14,32.23-46.14,32.23l14.19,24a182.27,182.27,0,0,0-24.27,43.22c-7-1.54-15.61-2.68-19.16-.17-12.05,8.51-15.6,56.91-15.6,56.91l23.56,16.76c1.82,20.51,8,39.65,18.16,55.75-3.31,8.78-7.15,21-5.39,26.36,3.74,11.51,37.42,30.67,37.42,30.67l15-17.59A103.58,103.58,0,0,0,335.76,516l21.13,22.88s35.8-11.31,42.73-21c3.56-5,4.08-20.85,4.14-27.94a167.61,167.61,0,0,0,29-26.52c6.62,4.37,15.06,9.07,19.44,8,12.4-3.08,29.32-41.86,29.32-41.86L466.5,405.73a164.32,164.32,0,0,0,9.78-57.31l12.28-7.5S493.77,301.08,485.07,292.68ZM388.88,394.57c-16.84,29.18-47.3,43.13-68,31.17s-23.87-45.32-7-74.5,47.31-43.13,68-31.16S405.73,365.39,388.88,394.57Z"/><ellipse class="cls-11" cx="365" cy="284.21" rx="31.29" ry="27.72" transform="translate(-63.63 458.2) rotate(-60)"/><ellipse class="cls-11" cx="407.31" cy="294.52" rx="34.35" ry="31.04" transform="translate(-51.41 500) rotate(-60)"/><ellipse class="cls-5" cx="395.88" cy="281.3" rx="18.06" ry="15.64" transform="translate(-45.67 483.49) rotate(-60)"/><path class="cls-5" d="M372.62,466.18c-5,8.64-13,9.58-19.55,5.79s-4.57-16.08-4.57-16.08l25.66-12.2S377.61,457.54,372.62,466.18Z"/><ellipse class="cls-5" cx="357.83" cy="270.82" rx="15.88" ry="13.53" transform="translate(-16.43 518.44) rotate(-70.61)"/><path class="cls-5" d="M339.84,524.75l-.13.22-.16.29-.32.58-.58,1.25c-.38.85-.68,1.75-1,2.62l-.78,2.73-.56,2.8a24.36,24.36,0,0,0-.38,2.83c-.08,1-.27,1.88-.26,2.85l-.06,2.87,0,1.43.09,1.44a81.22,81.22,0,0,0,4.51,22.61l.88,2.76,1.1,2.71,2.18,5.39c.8,1.78,1.69,3.52,2.53,5.27l1.28,2.63c.43.87.82,1.76,1.33,2.6l2.9,5.1,1.44,2.54c.48.85.95,1.7,1.51,2.52l6.4,9.85.21.33a7.6,7.6,0,1,1-12.75,8.27c-.15-.24-.3-.5-.43-.75l-5.56-11.2c-.48-.91-.88-1.88-1.29-2.85l-1.23-2.88-2.45-5.76c-.43-.95-.75-2-1.1-2.94l-1.05-3c-.68-2-1.41-3.94-2.05-5.93l-1.67-6.08-.84-3-.62-3.11a89.06,89.06,0,0,1-2.05-25.2l.08-1.58.21-1.59.44-3.16c.12-1.05.44-2.09.65-3.13A30.61,30.61,0,0,1,331,534l1-3.05,1.23-3c.5-1,1-1.94,1.51-2.88l.87-1.41.49-.69.25-.35.32-.39a2,2,0,0,1,3.31,2.29Z"/><path class="cls-5" d="M297.35,519.68,297,520l-.44.35-.86.79c-.57.55-1.09,1.18-1.62,1.76l-1.45,1.93-1.26,2.08a36.71,36.71,0,0,0-3.53,9.1l-.57,2.39-.14.59-.08.62-.16,1.23a40,40,0,0,0-.51,4.92c-.05,1.66-.15,3.31-.15,5l.27,5a44.55,44.55,0,0,0,.56,5c.25,1.67.42,3.32.72,5l1.08,5c.39,1.64.65,3.29,1.18,4.92l1.43,4.88c.5,1.62.87,3.26,1.51,4.86l3.47,9.6.13.37a7.6,7.6,0,1,1-14.3,5.17,8.05,8.05,0,0,1-.27-1l-2.35-10.71c-.44-1.76-.63-3.62-.93-5.43l-.84-5.43c-.33-1.79-.39-3.67-.57-5.5l-.46-5.5c-.08-1.84,0-3.71-.08-5.56a54.37,54.37,0,0,1,.12-5.56l.43-5.56c.25-1.86.6-3.71.9-5.55a48.5,48.5,0,0,1,1.32-5.48l.37-1.35.18-.68.25-.67,1-2.65a42.7,42.7,0,0,1,5.48-9.94l1.79-2.23,2-2.06c.74-.63,1.45-1.27,2.24-1.85l1.2-.85.66-.39.34-.19.41-.22a2,2,0,0,1,2.16,3.37Z"/><path class="cls-5" d="M362.07,621.29l-68.07,23a3,3,0,0,1-4-3.15c1.21-13.85,10-52.74,72.32-25.51A3.05,3.05,0,0,1,362.07,621.29Z"/><path class="cls-5" d="M295.06,605.73l-66.65,7.92a4.17,4.17,0,0,1-4.45-5.49c4.84-14.19,21.88-45.11,73-10A4.18,4.18,0,0,1,295.06,605.73Z"/><path class="cls-5" d="M428.75,263.38a25.46,25.46,0,0,0-1.51-2.41,26.78,26.78,0,0,0-1.83-2.25,19.62,19.62,0,0,0-4.25-3.55,18.26,18.26,0,0,0-2.32-1.2c-.4-.16-.81-.27-1.21-.41l-.59-.2-.62-.12a16.29,16.29,0,0,0-4.87-.28h-.18a5.21,5.21,0,1,1-.48-10.41,5,5,0,0,1,1.23.09,25.54,25.54,0,0,1,7.51,2.44l.88.44c.28.16.55.35.83.52.54.36,1.09.7,1.61,1.08a26.43,26.43,0,0,1,2.83,2.53,26.76,26.76,0,0,1,4.26,5.87,28.61,28.61,0,0,1,1.47,3.19,24.63,24.63,0,0,1,1.09,3.4,2,2,0,0,1-3.73,1.47Z"/><path class="cls-5" d="M379.67,474.69a13.32,13.32,0,0,1-.8,2,15.73,15.73,0,0,1-1.06,1.87,21.52,21.52,0,0,1-1.26,1.75c-.48.54-1,1.09-1.49,1.61a18.45,18.45,0,0,1-7.71,4.49,12.21,12.21,0,0,1-2.23.51,10.89,10.89,0,0,1-2.27.25c-.75,0-1.51,0-2.27,0s-1.47-.23-2.2-.39c-.36-.07-.73-.14-1.08-.23l-1-.37q-1-.39-2-.84a19.6,19.6,0,0,1-3.52-2.45,1.58,1.58,0,0,1,1-2.77H352a30.05,30.05,0,0,1,3.78.22c.6,0,1.19,0,1.76.09.29,0,.57.05.86.08l.84,0c.56,0,1.11,0,1.66.05s1.08-.1,1.61-.1a9.21,9.21,0,0,0,1.59-.16,10.09,10.09,0,0,0,1.57-.27,20.44,20.44,0,0,0,6.1-2.36,36.43,36.43,0,0,0,5.77-4.19l.13-.11a1.25,1.25,0,0,1,1.77.12A1.27,1.27,0,0,1,379.67,474.69Z"/><path class="cls-5" d="M363.05,243.86a26.36,26.36,0,0,1,2.31-2.72,29.21,29.21,0,0,1,2.59-2.38,26.1,26.1,0,0,1,6.19-3.78,24.94,24.94,0,0,1,3.59-1.25c.62-.15,1.26-.25,1.9-.37.32-.06.64-.13,1-.17l1-.07a25.54,25.54,0,0,1,7.88.64A5.21,5.21,0,0,1,387.34,244a5.35,5.35,0,0,1-1.15-.38l-.19-.09a15.85,15.85,0,0,0-4.6-1.62l-.61-.12c-.21,0-.42,0-.63,0-.41,0-.84-.08-1.27-.08a16.47,16.47,0,0,0-2.6.21,20.12,20.12,0,0,0-5.3,1.64,24.08,24.08,0,0,0-2.54,1.38,23.21,23.21,0,0,0-2.33,1.64l-.19.15a2,2,0,0,1-2.88-2.79Z"/><path class="cls-5" d="M326,451.19a1.07,1.07,0,0,0,.41-.33,1.12,1.12,0,0,0,.21-.51,1,1,0,0,0-.11-.63l-.1-.16s-.05-.07,0-.07,0-.05,0-.05a.5.5,0,0,1,.2,0l.5.09,1.09.16c.73.11,1.47.2,2.2.29,1.48.18,2.94.35,4.4.48,2.91.26,5.78.44,8.59.49a57.41,57.41,0,0,0,16-1.73,34,34,0,0,0,13.54-7.32c4.09-3.5,7.54-8.13,11.07-13.24h0a1,1,0,0,1,1.85.63,33.94,33.94,0,0,1-6.55,18.37,31.94,31.94,0,0,1-7.47,7.24,33.23,33.23,0,0,1-9.48,4.53,39.61,39.61,0,0,1-20.11.5,42.87,42.87,0,0,1-9.25-3.19,39.38,39.38,0,0,1-4.25-2.38c-.68-.44-1.35-.92-2-1.43-.32-.26-.64-.54-1-.83l-.5-.46-.28-.29-.2-.23-.1-.12a1.77,1.77,0,0,1-.14-.22,1.19,1.19,0,0,1-.12-.7,1.14,1.14,0,0,1,.21-.54,1.31,1.31,0,0,1,.44-.35,1.1,1.1,0,1,1,.94,2Z"/><path class="cls-5" d="M484,387.28l1,.92c.39.33.8.66,1.21,1,.82.65,1.68,1.25,2.54,1.84a38,38,0,0,0,5.38,3,24.26,24.26,0,0,0,10.92,2.3,19.36,19.36,0,0,0,9.68-3.35,34.64,34.64,0,0,0,8.13-7.94,8.52,8.52,0,1,1,13.6,10.26,6.18,6.18,0,0,1-.66.78l-.14.15a50.43,50.43,0,0,1-13.54,10.12,33.68,33.68,0,0,1-17.47,3.53,36.88,36.88,0,0,1-16.1-5.42,48.44,48.44,0,0,1-6.5-4.72c-1-.87-2-1.76-2.9-2.7-.47-.47-.93-.95-1.38-1.45l-.68-.76-.74-.87a5,5,0,0,1,7.18-7Z"/><path class="cls-12" d="M368.59,466c-2.85,4.27-8.15,6.68-10.7,4-3.3-3.43,4.29-14.88,11.2-14.67C372.77,455.43,371.44,461.71,368.59,466Z"/><ellipse class="cls-5" cx="552.87" cy="372.91" rx="34.48" ry="23.45" transform="translate(-66.91 619.08) rotate(-55.66)"/><ellipse class="cls-5" cx="532.16" cy="363.46" rx="12.27" ry="18.04"/><path d="M520.65,249.13c.52-1.16,1-2.08,1.33-2.75a32,32,0,0,1,4.43-6.08,40.12,40.12,0,0,1,5.81-5.24,22.56,22.56,0,0,1,5.82-3.22,6,6,0,0,1,4.4-.21,1.9,1.9,0,0,1,1.15,1.66,6.3,6.3,0,0,1-.71,3.07,7.71,7.71,0,0,1-1.69,2.58c-.6.55-1.1.73-1.49.56a8.15,8.15,0,0,1-.75-.66,5.1,5.1,0,0,0-1.31-.91,5.54,5.54,0,0,0-3.64-.3,10.4,10.4,0,0,0-3.79,2,18.86,18.86,0,0,0-3.49,3.58,24.5,24.5,0,0,0-2.67,4.53,6.78,6.78,0,0,0-.63,4.15,3.68,3.68,0,0,0,2.25,2.68,5.79,5.79,0,0,0,3.29.54,8.72,8.72,0,0,0,3.54-1.64,13.15,13.15,0,0,0,3-2.7,3.52,3.52,0,0,1,.82-.85c.26-.18.42-.25.49-.22a1,1,0,0,1,.5.83,3.08,3.08,0,0,1-.34,1.65,11.85,11.85,0,0,1-.7,1.17c-.38.59-.77,1.15-1.18,1.68a18.82,18.82,0,0,1-2.73,2.69,15.59,15.59,0,0,1-3.48,2.29,9,9,0,0,1-2.21.64,9.62,9.62,0,0,1-2.4.1,6.58,6.58,0,0,1-2.22-.54,4.46,4.46,0,0,1-2.73-2.76,8.61,8.61,0,0,1-.08-3.66A18,18,0,0,1,520.65,249.13Z"/><path d="M538.18,254.54c1.1-2.45,2.13-4.67,3.08-6.64s1.8-3.7,2.55-5.17,1.13-2.23,1.17-2.29q1.77-3.13,3-2.57c.09,0,.12.2.11.5a4.27,4.27,0,0,1-.16.9c-.1.35-.49,1.35-1.17,3s-1.58,3.73-2.69,6.22c-.74,1.65-1.33,2.94-1.79,3.89l-1.8,3.73c-.75,1.53-1.27,2.63-1.57,3.29a3.73,3.73,0,0,0-.38,1.4c0,.37.12.61.35.71a8.47,8.47,0,0,0,3,.21c1.58-.06,2.69-.08,3.31-.06a5.39,5.39,0,0,1,2,.52c.17.07.29.29.35.65a2.38,2.38,0,0,1-.25,1.34,10.57,10.57,0,0,1-.94,1.64,7.19,7.19,0,0,1-1,1.23,2.24,2.24,0,0,1-1.19.59,6.52,6.52,0,0,1-1.56.05l-2.53-.25a25.59,25.59,0,0,0-2.64-.18,6.37,6.37,0,0,1-2.64-.4A1.57,1.57,0,0,1,534,265a9.49,9.49,0,0,1,.58-2c.34-.89.76-1.94,1.28-3.14S537.12,256.91,538.18,254.54Z"/><path d="M552,270.38a10.75,10.75,0,0,0-2.5-.87,1.23,1.23,0,0,0-1.19.4,10.87,10.87,0,0,0-1.17,2.1,10.28,10.28,0,0,1-1.2,2,5.4,5.4,0,0,1-1.29,1.24,1.08,1.08,0,0,1-1,.19.91.91,0,0,1-.57-1,5.82,5.82,0,0,1,.6-2,16.58,16.58,0,0,1,1.4-2.41c.63-.93,1.41-2,2.35-3.17s2.13-2.65,3.56-4.4,2.51-3,3.61-4.24,2-2.2,2.68-2.92,1.28-1.32,1.75-1.78l.9-.86a22.83,22.83,0,0,1,2-2l.64-.49a4.49,4.49,0,0,0,.46-.41,1.68,1.68,0,0,0,.3-.43,7.33,7.33,0,0,0,.4-1.68c.12-.8.21-1.31.26-1.54a3.5,3.5,0,0,0,.14-.69,1,1,0,0,0-.08-.41,1,1,0,0,1,0-.55,5.37,5.37,0,0,1,.31-.81,2.81,2.81,0,0,1,1.47-1.52c.66-.29,1.12-.38,1.38-.26s.55.56.61,1.22a13.47,13.47,0,0,1-.1,2.73c-.14,1.16-.39,2.68-.74,4.57s-.83,4.4-1.43,7.54c-.41,2-.89,4.79-1.46,8.25s-.94,5.64-1.11,6.57a10.29,10.29,0,0,1-.62,2.2,6,6,0,0,1-1.55,2.2,1.49,1.49,0,0,1-1.59.44c-.52-.24-.72-1.08-.61-2.54.11-1,.16-1.68.18-2s-.05-.48-.21-.55a4.11,4.11,0,0,0-1.43-.1c-.75,0-1.31,0-1.69,0a3.65,3.65,0,0,1-1.28-.34,4.89,4.89,0,0,1-1.14-.7,6,6,0,0,1-.76-.75A2.09,2.09,0,0,0,552,270.38Zm5.62-3.5c1.13.51,1.77.59,1.92.25a6.28,6.28,0,0,0,.34-.88,8,8,0,0,0,.17-.84c.07-.31.24-1,.52-2.15s.52-2.12.73-3,.39-1.75.53-2.55c.34-1.69.56-2.85.66-3.47s.1-1,0-1-.18.06-.4.23a9.37,9.37,0,0,0-.86.77,17,17,0,0,0-1.2,1.36c-.29.37-.81,1-1.54,1.89s-1.58,1.87-2.53,2.94c-.35.41-.81.9-1.39,1.48s-1,1-1.21,1.31a3.47,3.47,0,0,0-.57.91c-.12.27-.2.49-.25.64s0,.25.07.29c-.09,0,.24-.05,1,0a5.58,5.58,0,0,1,2.16.49l.65.56A4.52,4.52,0,0,0,557.64,266.88Z"/><path d="M585.35,249.59a2.63,2.63,0,0,1,1.46,1.55,3.68,3.68,0,0,1,.09,2.28,8.28,8.28,0,0,1-.46,1.19A7,7,0,0,1,584.8,257a1.57,1.57,0,0,1-1.77.43c-.37-.17-.61-.59-.71-1.28a5.25,5.25,0,0,0-.18-.85.92.92,0,0,0-.5-.38,1.34,1.34,0,0,0-1,0,7.63,7.63,0,0,0-1.32.58c-1.42.72-2.42,1.25-3,1.58a10.31,10.31,0,0,0-1.65,1.17,4.54,4.54,0,0,0-1.17,1.53,1.86,1.86,0,0,0,.07,1.54,2.32,2.32,0,0,0,1.24,1.26,19.12,19.12,0,0,0,2.35.86c.77.22,1.5.41,2.17.56a8.68,8.68,0,0,1,1.36.4,4.54,4.54,0,0,1,1.61,1.17,3,3,0,0,1,.75,1.07,4.11,4.11,0,0,1,0,2.11,19.54,19.54,0,0,1-1.12,3.06,17.53,17.53,0,0,1-2.87,4.39,18.61,18.61,0,0,1-4,3.48,12.75,12.75,0,0,1-4.48,1.8,6.89,6.89,0,0,1-4.15-.44,4,4,0,0,1-2-1.84,5.53,5.53,0,0,1-.62-2.86,8.06,8.06,0,0,1,.74-3.13,9.17,9.17,0,0,1,1.91-2.92c.71-.68,1.24-.93,1.61-.77a.67.67,0,0,1,.41.55,3.61,3.61,0,0,1-.13,1.15,6.16,6.16,0,0,0-.17,2.54,1.91,1.91,0,0,0,1.21,1.35,6.55,6.55,0,0,0,2.49.64,5.43,5.43,0,0,0,2-.32,6.63,6.63,0,0,0,1.59-.83l1-.71c.51-.39.87-.68,1.07-.86a2.52,2.52,0,0,0,.53-.81,4.22,4.22,0,0,0,.36-1,1.38,1.38,0,0,0-.27-.77,1.72,1.72,0,0,0-.78-.71,2.26,2.26,0,0,0-.82-.09,11.08,11.08,0,0,1-1.11-.08,4.13,4.13,0,0,1-1-.32,7.1,7.1,0,0,1-1.14-.66,11.51,11.51,0,0,1-1-.79,4.55,4.55,0,0,0-.54-.43l-.21-.08-.16,0-.22,0-.26,0a2.6,2.6,0,0,1-1.43-2.58,8.93,8.93,0,0,1,.83-3.94,18.54,18.54,0,0,1,4.58-6.12,23.43,23.43,0,0,1,6.19-4.16Q584,249,585.35,249.59Z"/><path d="M600.73,256.47A2.69,2.69,0,0,1,602.2,258a3.84,3.84,0,0,1,.09,2.28,11.68,11.68,0,0,1-.46,1.19,7.14,7.14,0,0,1-1.64,2.43,1.59,1.59,0,0,1-1.77.43,1.52,1.52,0,0,1-.72-1.28,3.66,3.66,0,0,0-.18-.85c0-.13-.22-.26-.5-.39a1.37,1.37,0,0,0-1,0,7.83,7.83,0,0,0-1.33.59c-1.42.72-2.42,1.24-3,1.57a10,10,0,0,0-1.66,1.18,4.41,4.41,0,0,0-1.16,1.53,1.86,1.86,0,0,0,.07,1.54,2.33,2.33,0,0,0,1.24,1.25,17,17,0,0,0,2.34.86c.78.23,1.5.41,2.17.57a9.23,9.23,0,0,1,1.37.39,4.9,4.9,0,0,1,1.61,1.17,3.43,3.43,0,0,1,.75,1.08,4,4,0,0,1-.06,2.11,18.57,18.57,0,0,1-1.12,3.06,17.85,17.85,0,0,1-2.86,4.39,18.12,18.12,0,0,1-4,3.47,12.73,12.73,0,0,1-4.47,1.81,7,7,0,0,1-4.15-.44,4.07,4.07,0,0,1-2-1.84,5.55,5.55,0,0,1-.63-2.87,8.48,8.48,0,0,1,.74-3.13,9.24,9.24,0,0,1,1.92-2.92c.7-.67,1.24-.92,1.6-.76a.65.65,0,0,1,.42.55,3.62,3.62,0,0,1-.14,1.14,6.18,6.18,0,0,0-.16,2.55,1.91,1.91,0,0,0,1.2,1.35,6.64,6.64,0,0,0,2.49.64,5.6,5.6,0,0,0,2-.32,6.27,6.27,0,0,0,1.59-.83l1-.71c.51-.39.86-.68,1.06-.86a2.48,2.48,0,0,0,.54-.81,4.37,4.37,0,0,0,.36-1,1.38,1.38,0,0,0-.27-.77,1.77,1.77,0,0,0-.79-.72,2.77,2.77,0,0,0-.81-.09,8.94,8.94,0,0,1-1.12-.07,4.25,4.25,0,0,1-1-.33,6.62,6.62,0,0,1-1.14-.65,10.39,10.39,0,0,1-1-.79,4,4,0,0,0-.53-.43l-.22-.08-.16,0-.22,0-.25-.06a2.62,2.62,0,0,1-1.44-2.57,9.09,9.09,0,0,1,.84-3.94,18.54,18.54,0,0,1,4.58-6.12,23.31,23.31,0,0,1,6.18-4.16Q599.42,255.88,600.73,256.47Z"/><path d="M598.65,280.59q2.28-5.11,4.37-9.29t3-5.82a3.44,3.44,0,0,1,1.14-1.19q.6-.36.87-.24c.33.15.39.6.19,1.36a44.68,44.68,0,0,1-2,4.83c-.31.69-.91,2-1.79,3.88s-1.58,3.41-2.09,4.55q-.39.87-.78,1.8l-1.4,3.32c-.67,1.59-1.14,2.7-1.42,3.33l-.79,1.74-.65,1.42c-.08.18-.14.34-.2.48s-.14.33-.25.57a4.51,4.51,0,0,1-1.23,1.63c-.53.44-1,.62-1.27.53s-.56-.34-.58-.53a3.25,3.25,0,0,1,.16-1,5.92,5.92,0,0,1,.3-1.22,36.31,36.31,0,0,1,1.43-3.53c.14-.32.34-.72.58-1.19s.44-.86.57-1.17l.39-.86.35-.84c.15-.36.33-.77.52-1.23S598.46,281,598.65,280.59Z"/><path d="M609,268.8a3.53,3.53,0,0,1,1-1.34,16.23,16.23,0,0,1,6.57-3.23,9.88,9.88,0,0,1,6.22.59,5.42,5.42,0,0,1,.83.47,1.87,1.87,0,0,1,.48.41,3,3,0,0,1,.09,1.42,5.71,5.71,0,0,1-.37,1.53,6.54,6.54,0,0,1-1.12,1.83,7.69,7.69,0,0,1-1.4,1.11,3.81,3.81,0,0,1-1.2.57,1.43,1.43,0,0,1-.87-.13l-.54-.24a.89.89,0,0,1-.39-.42c-.12-.22-.24-.46-.36-.73a4.59,4.59,0,0,0-.39-.7,1.27,1.27,0,0,0-.53-.44,13.64,13.64,0,0,0-3.83-.05,1.13,1.13,0,0,0-.87.41,10.26,10.26,0,0,0-.83,1.49c-.11.25-.24.49-.38.74l-.48.84-.48.86q-.21.39-.39.78a10.34,10.34,0,0,0-.46,1.31,3.12,3.12,0,0,0-.19.89,3.27,3.27,0,0,0,.25.32l.16.18a2.33,2.33,0,0,0,.72,0,5.92,5.92,0,0,1,1.11,0,14.22,14.22,0,0,1,3.46.53c.11.05.23.23.37.53a2.66,2.66,0,0,1,.24.94,2.27,2.27,0,0,1,0,.94,9.35,9.35,0,0,1-.46,1.22,10.87,10.87,0,0,1-.76,1.43,3.78,3.78,0,0,1-.93.89,1.94,1.94,0,0,1-2,.37l-.42-.23-.55-.26a8.42,8.42,0,0,0-2.28-.73,2,2,0,0,0-1.51.36,4.17,4.17,0,0,0-1.18,1.66S605,286,604.24,288s-1.37,3.67-1.9,4.85a13.43,13.43,0,0,1-.63,1.27,7.13,7.13,0,0,1-.82,1,4.92,4.92,0,0,1-.9.83.75.75,0,0,1-.74,0c-.13-.06-.2-.33-.21-.82a6.59,6.59,0,0,1,.19-1.63,19.29,19.29,0,0,1,.85-2.54c.39-1,1-2.38,1.71-4.15s1.3-3.13,1.66-4.09c.22-.58.44-1.22.67-1.92s.41-1.17.51-1.42a8.76,8.76,0,0,1,.69-1.17c.31-.44.54-.8.71-1.08a15.6,15.6,0,0,0,.76-1.54c.67-1.49,1.15-2.64,1.45-3.44a6.26,6.26,0,0,0,.46-1.84V270a2,2,0,0,1,0-.49A4.28,4.28,0,0,1,609,268.8Z"/><path d="M616.4,288.54q2.29-5.12,4.38-9.29t3-5.82a3.43,3.43,0,0,1,1.13-1.19c.41-.24.7-.32.88-.24.33.15.39.6.19,1.35a44.7,44.7,0,0,1-2,4.83c-.31.7-.9,2-1.78,3.88s-1.58,3.42-2.09,4.56c-.26.58-.52,1.18-.79,1.8s-.72,1.73-1.39,3.32-1.15,2.69-1.43,3.32-.59,1.33-.78,1.74-.41.9-.66,1.42c-.07.19-.14.35-.19.49s-.15.32-.25.57a4.6,4.6,0,0,1-1.23,1.63c-.53.44-.95.62-1.27.53s-.56-.34-.58-.53a3.25,3.25,0,0,1,.16-1,5,5,0,0,1,.29-1.22,36.31,36.31,0,0,1,1.43-3.53c.15-.32.34-.72.59-1.19s.43-.87.57-1.17.29-.66.38-.86l.36-.85.51-1.22Z"/><path d="M643.78,275.91c.77.35.78,1.37,0,3.07a6.83,6.83,0,0,1-.82,1.46,6.93,6.93,0,0,1-1.09,1c-1,.78-1.74,1.09-2.13.91a2,2,0,0,1-.64-.45,5.41,5.41,0,0,1-.55-.62,3.18,3.18,0,0,0-.33-.39,9.69,9.69,0,0,0-1.38-.33l-.31-.11-.68-.22c-.29-.09-.66-.18-1.1-.29s-.89-.18-1.32-.24a8.52,8.52,0,0,0-2.14-.13,1.49,1.49,0,0,0-1,.67,16.13,16.13,0,0,0-1.17,2.3c-.67,1.5-1.13,2.61-1.38,3.35s-.29,1.13-.13,1.2a5.32,5.32,0,0,1,.85,0,11,11,0,0,1,1.87.13,27.17,27.17,0,0,1,5.06.9,1.92,1.92,0,0,1,1.11,1.38,3.26,3.26,0,0,1-.27,2.13,7.14,7.14,0,0,1-1.2,2,2.59,2.59,0,0,1-1.34.81,2.56,2.56,0,0,1-1.46-.16,35.4,35.4,0,0,0-3.7-1.24,10.41,10.41,0,0,0-2.42-.37,2.14,2.14,0,0,0-1.39.34,3.19,3.19,0,0,0-.62.77c-.23.36-.48.8-.74,1.31s-.46.84-.55,1a6.22,6.22,0,0,0-.49.79,2.13,2.13,0,0,0-.17.92c0,.33.07.52.19.58l.86,0a12,12,0,0,1,2,.1,21.58,21.58,0,0,0,3,0c1.22-.07,2-.11,2.51-.12a3,3,0,0,1,1.32.28,1.21,1.21,0,0,1,.62,1,3.71,3.71,0,0,1-.41,2,8,8,0,0,1-.92,1.54,4.73,4.73,0,0,1-1,1.06,1,1,0,0,1-.77.09l-1.22-.21a6.65,6.65,0,0,0-1.73,0,13,13,0,0,1-1.84.06L622.6,304c-.77,0-1.65,0-2.64,0-.24,0-.63,0-1.17.1a5.89,5.89,0,0,1-.84.08,5.66,5.66,0,0,1-1.64-1.7,1.71,1.71,0,0,1-.39-1,3.23,3.23,0,0,1,.36-1.42,5,5,0,0,1,1.43-1.86,5.33,5.33,0,0,1,2-1.08,3.43,3.43,0,0,0,.56-.26,1.05,1.05,0,0,0,.28-.31c.08-.14.23-.43.45-.89.08-.16.18-.35.3-.56a5.58,5.58,0,0,0,.35-.69,13.36,13.36,0,0,0,.81-2.11,1.33,1.33,0,0,0-.08-1,1.8,1.8,0,0,1,0-2.16,5.84,5.84,0,0,1,.94-1.28,7.17,7.17,0,0,1,1.51-1.32,6.49,6.49,0,0,0,.72-.58,3.16,3.16,0,0,0,.5-.85q1-2.32,1.41-3.24a6.85,6.85,0,0,0,.45-1.43,1.46,1.46,0,0,0-.12-.91,2,2,0,0,1-.15-.52,1.47,1.47,0,0,1,.15-.62A5.12,5.12,0,0,1,629,277a8.24,8.24,0,0,1,1.4-1.1,7.71,7.71,0,0,1,2.38-.35,34.38,34.38,0,0,1,4.73.13q1.08.07,2.19.09c.74,0,1.39,0,2,0H643A2.56,2.56,0,0,1,643.78,275.91Z"/><path d="M634.78,304.61l2.39-5.35c1-2.11,1.78-3.91,2.5-5.38s1.19-2.42,1.43-2.86a7.41,7.41,0,0,0,.39-1.26c.13-.56.23-.95.29-1.18a5.22,5.22,0,0,1,.33-.91,7.07,7.07,0,0,1,1.57-2,11.65,11.65,0,0,1,2.81-1.94,9.83,9.83,0,0,1,3.64-1,8.32,8.32,0,0,1,4,.75,7.64,7.64,0,0,1,2.84,2,6.37,6.37,0,0,1,1.12,3.66,8.42,8.42,0,0,1-.69,4,18.36,18.36,0,0,1-2.73,4.37,16.83,16.83,0,0,1-3.6,3.26,10.22,10.22,0,0,1-3.7,1.63,11.92,11.92,0,0,0-1.66.4,1.75,1.75,0,0,0-.89,1,2.44,2.44,0,0,0-.24,1.38,12.87,12.87,0,0,0,1,3.84,3.49,3.49,0,0,0,1.51,1.82,1.39,1.39,0,0,0,1.44-.26l.67-.5a3.91,3.91,0,0,1,.59-.38.55.55,0,0,1,.47-.06c.26.12.35.46.28,1a8.34,8.34,0,0,1-.7,2.18,5.51,5.51,0,0,1-1.59,2.11,4.45,4.45,0,0,1-2.13,1,3.8,3.8,0,0,1-2.18-.31,4.13,4.13,0,0,1-1.69-1.66,10.52,10.52,0,0,1-1.26-3.19,15.53,15.53,0,0,1-.42-4c0-.69,0-1.28.07-1.77a2.75,2.75,0,0,0-.12-1.13,1.27,1.27,0,0,0-.7-.64.63.63,0,0,0-.76.11,3.32,3.32,0,0,0-.62,1l-.2.49c-.06.15-.14.34-.24.56a19.73,19.73,0,0,1-2.53,4.34c-.85,1.05-1.54,1.46-2,1.23-.09,0-.18-.2-.26-.49a3.58,3.58,0,0,1-.13-.81A17,17,0,0,1,634.78,304.61Zm15.59-17.34a3.6,3.6,0,0,0-1-.28l-.81-.15a2.16,2.16,0,0,0-1.35,0,3.09,3.09,0,0,0-1.27,1,14.55,14.55,0,0,0-1.47,2.33c-.54,1-1.19,2.37-1.94,4.05a12.31,12.31,0,0,0-.57,1.64,6.41,6.41,0,0,0-.27,1.26c0,.48.35.89,1.08,1.21a8,8,0,0,0,4.14.69,9,9,0,0,0,3.94-1.31,13.1,13.1,0,0,0,2-1.42,4.45,4.45,0,0,0,1-1.42,6.76,6.76,0,0,0,.7-2.91,3.51,3.51,0,0,0-.49-1.52,7.24,7.24,0,0,0-1.39-1.72A7.69,7.69,0,0,0,650.37,287.27Z"/></svg>