<svg id="Layer_1" data-name="Layer 1" xmlns="http://www.w3.org/2000/svg" viewBox="0 0 700 700"><defs><style>.cls-1{fill:#f5766e;}.cls-2{fill:#cca658;}.cls-3{fill:#f5c65d;}.cls-4{fill:#f7c860;}.cls-5{fill:#363637;}.cls-6{fill:#4f5356;}.cls-7{fill:#6d7278;}.cls-8{fill:#fff;stroke:#544e4e;stroke-miterlimit:10;stroke-width:0.75px;}</style></defs><title>Crafter FLAT</title><path class="cls-1" d="M529.83,448a7.49,7.49,0,0,1-7.44-6.67c-2.8-25.07,5.21-49.32,23.14-70.14a119,119,0,0,1,28-24,7.5,7.5,0,0,1,7.44,13h0a105.91,105.91,0,0,0-24.42,21.08c-15.14,17.75-21.63,37.37-19.3,58.34a7.49,7.49,0,0,1-6.62,8.28A5.92,5.92,0,0,1,529.83,448Z"/><path class="cls-1" d="M536.14,452.87a7.5,7.5,0,0,1-1.65-14.82c49.67-11.27,60.57-66.78,60.68-67.34a7.5,7.5,0,1,1,14.74,2.75,118.92,118.92,0,0,1-13.43,34.34c-13.78,23.78-34.07,39.3-58.67,44.88A7.38,7.38,0,0,1,536.14,452.87Z"/><path class="cls-2" d="M508.54,481.06c-4-2.88-4.27-9.32-.62-14.38,3.53-4.88,9.41-6.68,13.4-4.22l8-14.11-9.47-7.87-21.44,10.69L493,500.75l5.1,2.56L510.25,482A7.18,7.18,0,0,1,508.54,481.06Z"/><path class="cls-2" d="M515.32,484.77c4.55,1.88,10.17-1.27,12.56-7,2.3-5.56.74-11.51-3.45-13.62l7.79-14.23,11.68,3.93,2.17,23.86-39.35,30.64-4.86-3,11.8-21.53A7.41,7.41,0,0,0,515.32,484.77Z"/><ellipse class="cls-3" cx="530.7" cy="448.69" rx="11.3" ry="10.42" transform="translate(-143.69 616.53) rotate(-54.19)"/><path d="M152.08,340.47s8.33-72.34,28-147.44"/><path d="M148.55,340.06c1.09-12.58,2.47-25,4-37.52s3.26-24.93,5.17-37.37c.92-6.22,2-12.43,3-18.65s2.12-12.41,3.32-18.6c2.25-12.41,4.87-24.76,7.58-37.11a8.76,8.76,0,1,1,17.12,3.75c0,.19-.09.38-.14.56l0,.12c-3.48,11.9-6.9,23.85-10,35.9-1.6,6-3,12.07-4.53,18.11s-2.89,12.12-4.22,18.2q-4.11,18.24-7.68,36.61c-2.37,12.24-4.6,24.55-6.53,36.82v0a3.56,3.56,0,0,1-7.06-.86Z"/><polygon class="cls-4" points="89.96 136.86 262.33 109.28 262.33 189.08 98.35 202 89.96 136.86"/><path class="cls-5" d="M213.56,326.63l-1.11.27-1,.22c-.66.14-1.31.26-2,.37-1.31.21-2.62.37-3.94.49a48.89,48.89,0,0,1-8,0,37.06,37.06,0,0,1-16.23-5,33.75,33.75,0,0,1-12.11-13.08,50.38,50.38,0,0,1-5.05-16.13l0-.16A8.52,8.52,0,1,1,181,291.12a9.47,9.47,0,0,1,.09,1.06,34.46,34.46,0,0,0,1.94,11.2,19.3,19.3,0,0,0,5.89,8.37,24.11,24.11,0,0,0,10.2,4.53,37.11,37.11,0,0,0,6.11.73c1,0,2.1,0,3.14,0l1.55-.1,1.38-.13.58-.06a5,5,0,0,1,1.7,9.91Z"/><ellipse class="cls-5" cx="163.81" cy="264.81" rx="34.48" ry="23.45" transform="translate(-105.12 421.75) rotate(-88.53)"/><ellipse class="cls-5" cx="186.13" cy="269.27" rx="18.04" ry="12.27" transform="translate(-141.14 262.66) rotate(-54.19)"/><path class="cls-6" d="M494.71,239c-4.75-2.34-10.4.54-15.38,3.64a102.7,102.7,0,0,0-20.16-24.7c2.26-10.25,3.95-22.66.33-27.3-19.45-25-71.54-25-71.54-25l-8.37,28c-42.95,4.85-86.56,33.84-113.37,80.28-28.87,50-30.47,106.75-8.5,147.21-3.75,5.64-10.85,17.31-10.15,24.22,2,20.42,40.33,39.61,40.33,39.61l16.78-19.65a103,103,0,0,0,51.53,8.4l20.57,21.67s35.21-11.14,42.15-20.81c2.54-3.54,3.32-15.73,3.51-26A167.79,167.79,0,0,0,454.55,419c6.8,4.72,14.6,9,17.89,6.41,29.86-23.29,28.32-42.87,28.32-42.87L485.87,365a164.52,164.52,0,0,0,10.3-58.59l15.09-9.21S518,250.38,494.71,239ZM420.5,360c-31.83,55.14-84.49,84.33-117.62,65.21s-34.16-79.33-2.33-134.47,84.5-84.33,117.62-65.21S452.34,304.81,420.5,360Z"/><path class="cls-7" d="M494.71,239c-3.88-3.76-13.89-3.68-22.85-2.85a103,103,0,0,0-27-33.15c1.76-9.29,2.66-19.31-.38-23.48-10.09-13.86-67.08-14.18-67.08-14.18l-9.12,16.94a133.81,133.81,0,0,0-48.76,16.35c-6.49-5.59-14.29-11.3-19.06-11.35-14.07-.12-46.14,32.23-46.14,32.23l14.19,24a182.81,182.81,0,0,0-24.27,43.22c-7-1.53-15.61-2.67-19.16-.17-12.05,8.52-15.6,56.92-15.6,56.92L233,360.23c1.82,20.52,8,39.66,18.16,55.76-3.31,8.78-7.15,20.95-5.39,26.36,3.74,11.5,37.42,30.67,37.42,30.67l15-17.59a103.57,103.57,0,0,0,47.16,6.82l21.13,22.89s35.79-11.31,42.73-21c3.55-5,4.08-20.85,4.14-27.94a167.61,167.61,0,0,0,29-26.52c6.62,4.37,15.06,9.07,19.44,8,12.4-3.08,29.32-41.87,29.32-41.87L476.15,352a164.37,164.37,0,0,0,9.78-57.32l12.28-7.49S503.42,247.37,494.71,239Zm-76,118.69c-29.91,51.8-84,76.58-120.78,55.34s-42.38-80.46-12.47-132.27,84-76.58,120.78-55.34S448.65,305.86,418.74,357.67Z"/><path class="cls-5" d="M349.49,471.05l-.13.22-.16.28-.32.58-.59,1.26c-.37.84-.67,1.75-1,2.62l-.78,2.73-.56,2.8a24.07,24.07,0,0,0-.38,2.83c-.08.95-.27,1.88-.26,2.85l-.06,2.87,0,1.43.09,1.44a81.22,81.22,0,0,0,4.51,22.61l.88,2.75,1.1,2.71,2.17,5.4c.81,1.77,1.7,3.52,2.54,5.27l1.27,2.63c.44.87.82,1.75,1.34,2.59L362,542l1.44,2.54c.48.85,1,1.7,1.51,2.51l6.39,9.86.22.33a7.6,7.6,0,0,1-12.75,8.27c-.15-.24-.3-.5-.43-.75l-5.56-11.2c-.48-.92-.89-1.89-1.29-2.85l-1.23-2.89-2.45-5.76c-.43-.94-.75-2-1.1-2.94l-1-3c-.68-2-1.41-3.94-2.05-5.93L342,524.18l-.83-3-.62-3.11a89.06,89.06,0,0,1-2.05-25.2l.08-1.58.21-1.59.44-3.16c.12-1.05.44-2.09.65-3.13a27.6,27.6,0,0,1,.79-3.1l1-3.06,1.24-3c.49-1,1-1.94,1.51-2.89l.87-1.4.49-.69.25-.35.32-.4a2,2,0,0,1,3.3,2.3Z"/><path class="cls-5" d="M307,466l-.38.29-.43.34-.86.8c-.57.55-1.09,1.17-1.63,1.76l-1.45,1.93L301,473.18a37,37,0,0,0-3.52,9.09l-.57,2.39-.14.6-.08.61-.16,1.23A38.48,38.48,0,0,0,296,492c-.05,1.66-.15,3.31-.15,5l.27,5a42.32,42.32,0,0,0,.56,5c.25,1.67.42,3.32.72,5l1.08,5c.39,1.64.65,3.29,1.18,4.91l1.43,4.89c.5,1.62.87,3.25,1.51,4.85l3.47,9.6.13.38a7.6,7.6,0,1,1-14.3,5.17,8.1,8.1,0,0,1-.28-1L289.29,535c-.44-1.77-.63-3.62-.94-5.43l-.83-5.43c-.33-1.8-.39-3.67-.57-5.5l-.46-5.5c-.09-1.85-.05-3.72-.08-5.56a51.65,51.65,0,0,1,.12-5.56l.43-5.57c.25-1.85.6-3.7.9-5.54a48.5,48.5,0,0,1,1.32-5.48l.37-1.36.18-.67.25-.67,1-2.65a42.73,42.73,0,0,1,5.47-9.95l1.8-2.22,2-2.06c.74-.63,1.45-1.27,2.24-1.85l1.2-.85.66-.39.33-.2.42-.21a2,2,0,0,1,2.16,3.37Z"/><path class="cls-5" d="M371.72,567.59l-68.07,23a3.05,3.05,0,0,1-4-3.15c1.21-13.85,10.05-52.74,72.32-25.52A3.06,3.06,0,0,1,371.72,567.59Z"/><path class="cls-5" d="M304.71,552,238.06,560a4.18,4.18,0,0,1-4.46-5.49c4.85-14.2,21.89-45.12,73-10A4.19,4.19,0,0,1,304.71,552Z"/><path class="cls-5" d="M360.55,387.9a14.88,14.88,0,0,1-3.17,12.27,15.74,15.74,0,0,1-5.35,4.25,16,16,0,0,1-6.78,1.6,18.77,18.77,0,0,1-12.36-4.68,23.51,23.51,0,0,1-4.2-4.63,24,24,0,0,1-2.83-5.37,1.56,1.56,0,0,1,2.46-1.74l0,0a77,77,0,0,0,8.34,6.62,17.4,17.4,0,0,0,8.59,3.14,11.66,11.66,0,0,0,8.14-2.93,14.34,14.34,0,0,0,4.65-8.46v-.06a1.26,1.26,0,0,1,1.46-1A1.24,1.24,0,0,1,360.55,387.9Z"/><path class="cls-5" d="M305.48,340.26a35.68,35.68,0,0,0,3.65,6.54,49.15,49.15,0,0,0,4.63,5.79l1.25,1.35,1.33,1.27c.84.88,1.81,1.62,2.7,2.44a50.9,50.9,0,0,0,5.81,4.14,41.65,41.65,0,0,0,6.2,3.09,32.53,32.53,0,0,0,6.45,1.71,29,29,0,0,0,13-.89c1.05-.39,2.12-.73,3.17-1.13s2.08-1,3.13-1.43l3-1.74c1-.6,2-1.32,3-2s1.91-1.45,2.87-2.18a34.49,34.49,0,0,0,2.81-2.34c.9-.83,1.82-1.66,2.75-2.47l2.62-2.67c7.05-7.14,13.24-15.44,19.61-23.84h0a1,1,0,0,1,1.72.91,99.57,99.57,0,0,1-14.81,28.52l-2.54,3.25c-.92,1-1.85,2.06-2.8,3.08a39.65,39.65,0,0,1-3,3,38.83,38.83,0,0,1-3.19,2.79,45.33,45.33,0,0,1-15.26,8.43,35.73,35.73,0,0,1-18,.91,38.18,38.18,0,0,1-8.52-2.88,42.52,42.52,0,0,1-7.42-4.69,47.08,47.08,0,0,1-6.23-5.9,49.08,49.08,0,0,1-4.93-6.85,20.46,20.46,0,0,1-1-1.83c-.32-.62-.65-1.23-1-1.86a39.52,39.52,0,0,1-1.57-3.89,26.62,26.62,0,0,1-1.63-8.19,1.1,1.1,0,0,1,1.08-1.14,1.12,1.12,0,0,1,1.06.69Z"/><path class="cls-5" d="M489.08,319c.69-.19,1.12-.3,1.66-.42s1-.22,1.52-.31c1-.19,2-.33,3-.44a47.36,47.36,0,0,1,6.07-.29,45.21,45.21,0,0,1,12.15,1.91,42.37,42.37,0,0,1,20.41,14,55.17,55.17,0,0,1,6.66,10.25c1,1.78,1.7,3.63,2.52,5.46s1.4,3.71,2,5.58A120.22,120.22,0,0,1,550,377.46a7.51,7.51,0,0,1-14.9,1.82c0-.17,0-.34,0-.5v0a107.55,107.55,0,0,0-2.8-20.21c-.44-1.61-.89-3.21-1.39-4.79s-1.05-3.13-1.75-4.59a42.22,42.22,0,0,0-4.62-8.38,31.18,31.18,0,0,0-14.33-11.43,34.83,34.83,0,0,0-9.24-2.12,37.21,37.21,0,0,0-4.84-.11q-1.21,0-2.4.18-.6.06-1.17.15l-1,.17-.43.07a4.45,4.45,0,0,1-2-8.67Z"/><ellipse class="cls-8" cx="349.37" cy="243.27" rx="31.29" ry="27.72" transform="translate(-35.99 424.19) rotate(-60)"/><ellipse class="cls-8" cx="391.67" cy="253.58" rx="34.35" ry="31.04" transform="translate(-23.77 465.99) rotate(-60)"/><ellipse class="cls-5" cx="377.24" cy="261.36" rx="18.06" ry="15.64" transform="translate(-37.72 457.38) rotate(-60)"/><ellipse class="cls-5" cx="335.2" cy="251.88" rx="15.88" ry="13.53" transform="translate(-13.68 484.44) rotate(-70.61)"/><ellipse class="cls-5" cx="547.92" cy="387.95" rx="31.35" ry="23.5" transform="translate(-122.87 360.44) rotate(-32.95)"/><ellipse class="cls-5" cx="523.96" cy="403.48" rx="18.04" ry="12.27" transform="translate(-92.3 163.59) rotate(-16.33)"/><path d="M110.65,172c-.1-1.43-.14-2.58-.13-3.44a35.91,35.91,0,0,1,1.18-8.43,44.37,44.37,0,0,1,3-8.32,25.66,25.66,0,0,1,4.09-6.32c1.48-1.6,2.9-2.45,4.28-2.55a2.13,2.13,0,0,1,2,1.05,6.9,6.9,0,0,1,.93,3.43,9,9,0,0,1-.3,3.48c-.31.87-.71,1.31-1.2,1.35a9.5,9.5,0,0,1-1.1-.26,5.55,5.55,0,0,0-1.79-.2,6.16,6.16,0,0,0-3.78,1.63,11.62,11.62,0,0,0-2.75,4,21.49,21.49,0,0,0-1.57,5.44,26.78,26.78,0,0,0-.25,5.94,7.49,7.49,0,0,0,1.59,4.47,4.13,4.13,0,0,0,3.66,1.47,6.53,6.53,0,0,0,3.56-1.21,9.77,9.77,0,0,0,2.66-3.52,14.58,14.58,0,0,0,1.55-4.29,4.06,4.06,0,0,1,.37-1.29c.16-.31.29-.47.36-.47a1.12,1.12,0,0,1,1,.56,3.48,3.48,0,0,1,.54,1.83c0,.24,0,.75-.07,1.54s-.16,1.55-.29,2.3a21.25,21.25,0,0,1-1.29,4.14,17.76,17.76,0,0,1-2.25,4.14,10.32,10.32,0,0,1-1.86,1.81,11.43,11.43,0,0,1-2.34,1.38,7.63,7.63,0,0,1-2.5.64,5,5,0,0,1-4.2-1.3,10,10,0,0,1-2-3.6A20.64,20.64,0,0,1,110.65,172Z"/><path d="M131.56,175.09l-.46-6.61q-.27-3.93-.38-6.7c-.07-1.85-.1-3.05-.1-3.61a7.43,7.43,0,0,0-.28-1.47c-.16-.62-.27-1.07-.34-1.33a8.69,8.69,0,0,1-.15-1.09,7.87,7.87,0,0,1,.51-2.8,13.19,13.19,0,0,1,1.77-3.43,11.06,11.06,0,0,1,3.12-2.91,9.16,9.16,0,0,1,4.43-1.4,8.57,8.57,0,0,1,3.9.49,7.13,7.13,0,0,1,3.06,3.05,9.46,9.46,0,0,1,1.43,4.32,20.9,20.9,0,0,1-.4,5.81,19.41,19.41,0,0,1-1.85,5.17,11.53,11.53,0,0,1-2.83,3.59,13.71,13.71,0,0,0-1.44,1.29,2,2,0,0,0-.35,1.48,2.79,2.79,0,0,0,.5,1.5,14.74,14.74,0,0,0,3,3.31,4,4,0,0,0,2.47,1,1.58,1.58,0,0,0,1.3-1l.4-.86a4.46,4.46,0,0,1,.39-.69.6.6,0,0,1,.44-.31c.32,0,.6.27.83.87a9.55,9.55,0,0,1,.45,2.55,6.11,6.11,0,0,1-.46,3,4.9,4.9,0,0,1-1.61,2.1,4.36,4.36,0,0,1-2.34.85,4.74,4.74,0,0,1-2.57-.76,12.16,12.16,0,0,1-2.95-2.5,18.29,18.29,0,0,1-2.57-3.81l-.87-1.8a3,3,0,0,0-.73-1.06,1.36,1.36,0,0,0-1-.26.71.71,0,0,0-.7.51,3.71,3.71,0,0,0-.09,1.32c0,.22,0,.41.06.59s0,.41.06.69a22.33,22.33,0,0,1-.21,5.67c-.3,1.5-.76,2.27-1.39,2.32q-.17,0-.51-.36a3.36,3.36,0,0,1-.56-.74Q131.88,179.67,131.56,175.09Zm6.32-25.61a5.07,5.07,0,0,0-1.2.28c-.46.16-.75.26-.89.29a2.39,2.39,0,0,0-1.36.68,3.46,3.46,0,0,0-.73,1.69,16.1,16.1,0,0,0-.23,3.11c0,1.31.08,3,.23,5.07a12.92,12.92,0,0,0,.31,2,7.22,7.22,0,0,0,.4,1.4c.24.48.82.69,1.72.63a9.16,9.16,0,0,0,4.5-1.52,10.32,10.32,0,0,0,3.23-3.41,13.81,13.81,0,0,0,1.19-2.46,5,5,0,0,0,.23-1.94,7.87,7.87,0,0,0-.86-3.28,3.85,3.85,0,0,0-1.29-1.24,8.08,8.08,0,0,0-2.31-1A9.1,9.1,0,0,0,137.88,149.48Z"/><path d="M159,176.09a11.93,11.93,0,0,0-3,.46,1.38,1.38,0,0,0-1,1,12.61,12.61,0,0,0-.05,2.72,11.35,11.35,0,0,1-.13,2.64,5.52,5.52,0,0,1-.63,1.93c-.27.46-.57.7-.88.72a1.05,1.05,0,0,1-1.08-.66,6.87,6.87,0,0,1-.44-2.27,18.74,18.74,0,0,1,.11-3.15c.13-1.26.35-2.74.66-4.42s.71-3.78,1.21-6.28q.68-3.44,1.33-6.15c.44-1.8.81-3.25,1.12-4.35s.57-2,.8-2.7l.44-1.34a27.57,27.57,0,0,1,1-3.1l.38-.82a4.7,4.7,0,0,0,.24-.65,1.79,1.79,0,0,0,.07-.59,8.4,8.4,0,0,0-.49-1.89c-.31-.86-.49-1.42-.56-1.68a4.58,4.58,0,0,0-.23-.76,1.06,1.06,0,0,0-.3-.37,1.07,1.07,0,0,1-.32-.54,4.9,4.9,0,0,1-.13-1,3.23,3.23,0,0,1,.66-2.3c.5-.64.91-1,1.24-1s.84.26,1.26.89a14.9,14.9,0,0,1,1.35,2.77q.71,1.84,1.7,4.95t2.58,8.28q1,3.39,2.94,9t2.39,7.14a11.66,11.66,0,0,1,.56,2.53,6.83,6.83,0,0,1-.37,3c-.33.82-.78,1.24-1.36,1.28s-1.29-.69-2-2.21c-.45-1.07-.74-1.75-.88-2.05s-.31-.45-.5-.43a4.28,4.28,0,0,0-1.48.65c-.73.43-1.29.73-1.67.92a4,4,0,0,1-1.46.34,5.28,5.28,0,0,1-1.51-.09,6.56,6.56,0,0,1-1.16-.34A3.08,3.08,0,0,0,159,176.09Zm3.74-6.49c1.4-.09,2.08-.35,2.05-.77a8.07,8.07,0,0,0-.13-1.06,8.66,8.66,0,0,0-.28-.93c-.1-.35-.31-1.16-.63-2.42s-.61-2.39-.87-3.39-.54-1.95-.83-2.83c-.56-1.87-1-3.14-1.19-3.81s-.41-1-.55-1-.14.15-.28.44a10.63,10.63,0,0,0-.44,1.23,18,18,0,0,0-.47,2c-.1.53-.28,1.43-.54,2.71s-.57,2.71-.94,4.28q-.21.89-.6,2.22c-.27.89-.44,1.54-.52,1.94a4.51,4.51,0,0,0-.08,1.21,4,4,0,0,0,.1.78c0,.17.11.26.21.25-.11,0,.21-.18,1-.56a6.23,6.23,0,0,1,2.4-.66l1,.22A5.63,5.63,0,0,0,162.78,169.6Z"/><path d="M171.24,147.22a4.16,4.16,0,0,1,.33-1.89,18.35,18.35,0,0,1,4.83-6.72,11.21,11.21,0,0,1,6.52-2.73,6.62,6.62,0,0,1,1.08,0,2.23,2.23,0,0,1,.7.15,3.4,3.4,0,0,1,.84,1.37,6.42,6.42,0,0,1,.45,1.73,7.48,7.48,0,0,1-.14,2.41,9.3,9.3,0,0,1-.81,1.86,4.29,4.29,0,0,1-.89,1.21,1.71,1.71,0,0,1-.93.33l-.68.05a1.08,1.08,0,0,1-.61-.21c-.23-.16-.48-.34-.74-.54a6.39,6.39,0,0,0-.76-.49,1.46,1.46,0,0,0-.77-.15,15.21,15.21,0,0,0-3.84,2,1.24,1.24,0,0,0-.65.87,9.77,9.77,0,0,0,0,1.94c0,.3,0,.61,0,.93s0,.69,0,1.1,0,.79,0,1.12,0,.65,0,1a10.28,10.28,0,0,0,.24,1.56,3.78,3.78,0,0,0,.28,1l.43.18.25.1A2.43,2.43,0,0,0,177,155a6.42,6.42,0,0,1,1.1-.6,16.43,16.43,0,0,1,3.73-1.32,1.22,1.22,0,0,1,.66.33,3,3,0,0,1,.74.81,2.66,2.66,0,0,1,.46,1,9.09,9.09,0,0,1,.18,1.46,10.14,10.14,0,0,1,0,1.83,4,4,0,0,1-.45,1.39,2.2,2.2,0,0,1-1.76,1.41h-.53l-.69,0a9.57,9.57,0,0,0-2.68.48,2.39,2.39,0,0,0-1.31,1.16,4.6,4.6,0,0,0-.28,2.29s.18,1.25.53,3.69.58,4.39.68,5.85a12.26,12.26,0,0,1,.05,1.6,7.55,7.55,0,0,1-.28,1.43,5.79,5.79,0,0,1-.46,1.31.86.86,0,0,1-.73.42c-.16,0-.37-.23-.64-.71a7.52,7.52,0,0,1-.68-1.73,23.23,23.23,0,0,1-.51-3c-.14-1.21-.31-2.89-.5-5.05s-.37-3.82-.52-5c-.09-.69-.21-1.45-.35-2.27s-.23-1.39-.25-1.69a8.39,8.39,0,0,1,.06-1.53c.07-.61.12-1.09.14-1.46a17.23,17.23,0,0,0-.07-1.94q-.19-2.76-.39-4.2a6.85,6.85,0,0,0-.52-2.08c0-.08-.1-.2-.2-.37a2.28,2.28,0,0,1-.21-.51A4.42,4.42,0,0,1,171.24,147.22Z"/><path d="M202.88,136.51A1.13,1.13,0,0,1,204,137a4,4,0,0,1,.45,1.87,8.66,8.66,0,0,1-.14,1.94,7.64,7.64,0,0,1-.51,1.93,4.64,4.64,0,0,1-1.51,1.62,11.23,11.23,0,0,1-2.94,1.51,4.91,4.91,0,0,0-1.84,1,3,3,0,0,0-.35,2.1q.09,1.17.55,6t.71,8.42c0,.54.08,1.16.11,1.85s.06,1.34.08,2,.06,1.28.09,2c.14,2.25.21,3.88.2,4.88a6,6,0,0,1-.45,2.5,2.81,2.81,0,0,1-.48.72c-.23.26-.38.39-.46.4-.84.06-1.35-1.3-1.55-4.07,0-.48-.08-1.44-.13-2.88s-.13-2.94-.2-4.51-.19-3.36-.33-5.37q-.48-7-.74-9.69a9.57,9.57,0,0,0-.63-3.27c0-.07-.25-.13-.61-.18s-.88-.07-1.51-.09-1.41,0-2.32.07c-1.62.11-2.51-.85-2.65-2.88a4.89,4.89,0,0,1,.11-1.15,4.3,4.3,0,0,1,.35-1.17,2.82,2.82,0,0,1,1.06-1.17,5.36,5.36,0,0,1,1.52-.6c.58-.14,1.39-.32,2.42-.53s1.8-.4,2.3-.55c1.26-.39,2.28-.73,3.07-1s1.82-.72,3.08-1.28A14.64,14.64,0,0,1,202.88,136.51Z"/><path d="M221.85,134.94c1-.06,1.52.95,1.66,3a7.43,7.43,0,0,1,0,1.9,8,8,0,0,1-.56,1.57c-.61,1.33-1.15,2-1.64,2a2.44,2.44,0,0,1-.88-.1,6.49,6.49,0,0,1-.87-.33,5.41,5.41,0,0,0-.54-.22,11.61,11.61,0,0,0-1.55.41l-.37.05-.79.15q-.51.09-1.26.3c-.5.13-1,.29-1.44.46a9.46,9.46,0,0,0-2.21,1,1.7,1.7,0,0,0-.64,1.2,18.91,18.91,0,0,0,.06,2.91c.13,1.86.26,3.22.4,4.08s.32,1.29.52,1.27a4.07,4.07,0,0,1,.83-.49,12.15,12.15,0,0,1,1.93-.87,30.54,30.54,0,0,1,5.52-1.8,2.15,2.15,0,0,1,1.84.79,3.66,3.66,0,0,1,.88,2.27,8.62,8.62,0,0,1-.15,2.61,2.86,2.86,0,0,1-.91,1.52,2.79,2.79,0,0,1-1.54.62,39.12,39.12,0,0,0-4.35.74,11.83,11.83,0,0,0-2.61.91,2.47,2.47,0,0,0-1.21,1.08,3.66,3.66,0,0,0-.2,1.1c0,.48,0,1.05,0,1.7s0,1.08,0,1.28a7.36,7.36,0,0,0-.07,1.05,2.33,2.33,0,0,0,.31,1q.28.5.51.48s.3-.16.84-.48a14.14,14.14,0,0,1,2-.95,24.59,24.59,0,0,0,3.06-1.61c1.17-.72,2-1.2,2.44-1.45a3.39,3.39,0,0,1,1.46-.43,1.38,1.38,0,0,1,1.15.68,4.13,4.13,0,0,1,.65,2.2,9.33,9.33,0,0,1-.09,2,5.46,5.46,0,0,1-.44,1.59,1.14,1.14,0,0,1-.72.5l-1.32.44a7.15,7.15,0,0,0-1.73.92,14.66,14.66,0,0,1-1.81,1l-2.26,1.11a26.66,26.66,0,0,0-2.6,1.44q-.36.21-1.11.72a6.43,6.43,0,0,1-.8.52,6.14,6.14,0,0,1-2.54-.81,2,2,0,0,1-.93-.79,3.82,3.82,0,0,1-.39-1.61,5.77,5.77,0,0,1,.43-2.62,6.05,6.05,0,0,1,1.41-2.14,3.05,3.05,0,0,0,.42-.56,1.12,1.12,0,0,0,.12-.46c0-.17,0-.54,0-1.12,0-.2,0-.44,0-.72a6.33,6.33,0,0,0,0-.87,15,15,0,0,0-.32-2.54,1.49,1.49,0,0,0-.6-.92,3.35,3.35,0,0,1-.83-.75,3.29,3.29,0,0,1-.29-1.42,6.45,6.45,0,0,1,.26-1.78,8.31,8.31,0,0,1,.79-2.12,5.47,5.47,0,0,0,.42-1,3.59,3.59,0,0,0,0-1.11c-.13-1.92-.24-3.25-.31-4a7.93,7.93,0,0,0-.31-1.67,1.71,1.71,0,0,0-.61-.84,2.13,2.13,0,0,1-.42-.44,1.37,1.37,0,0,1-.18-.69,5.45,5.45,0,0,1,.39-2.06,8.68,8.68,0,0,1,.81-1.84,8.07,8.07,0,0,1,2.18-1.61,38.61,38.61,0,0,1,4.79-2.4c.75-.33,1.49-.69,2.23-1.07s1.4-.73,2-1,1-.56,1.41-.74A2.37,2.37,0,0,1,221.85,134.94Z"/><path d="M228.16,168.35l-.46-6.61c-.18-2.61-.31-4.84-.37-6.69s-.11-3.05-.1-3.62A9.4,9.4,0,0,0,227,150c-.17-.62-.28-1.07-.35-1.33a7.35,7.35,0,0,1-.14-1.09,7.65,7.65,0,0,1,.51-2.8,12.6,12.6,0,0,1,1.77-3.43,10.88,10.88,0,0,1,3.11-2.91,9.32,9.32,0,0,1,4.43-1.41,8.68,8.68,0,0,1,3.9.5,7.13,7.13,0,0,1,3.06,3.05,9.34,9.34,0,0,1,1.43,4.32,20.9,20.9,0,0,1-.4,5.81,19.19,19.19,0,0,1-1.85,5.17,11.51,11.51,0,0,1-2.82,3.59,13.05,13.05,0,0,0-1.45,1.29,1.94,1.94,0,0,0-.34,1.48,2.71,2.71,0,0,0,.5,1.5,15,15,0,0,0,3,3.31,4,4,0,0,0,2.48,1,1.56,1.56,0,0,0,1.29-1c.15-.31.29-.59.4-.85a4.46,4.46,0,0,1,.39-.69.64.64,0,0,1,.44-.32c.32,0,.6.27.83.88a9.42,9.42,0,0,1,.46,2.55,6.35,6.35,0,0,1-.46,2.95,4.92,4.92,0,0,1-1.62,2.1,4.36,4.36,0,0,1-2.34.85,4.65,4.65,0,0,1-2.56-.77,11.76,11.76,0,0,1-3-2.5,18,18,0,0,1-2.57-3.8l-.87-1.8a3.27,3.27,0,0,0-.72-1.07,1.44,1.44,0,0,0-1-.26.72.72,0,0,0-.71.52,3.67,3.67,0,0,0-.09,1.31q0,.33.06.6t.06.69a21.88,21.88,0,0,1-.21,5.67c-.29,1.5-.76,2.27-1.39,2.32-.1,0-.28-.11-.51-.36a3.36,3.36,0,0,1-.56-.74Q228.49,172.94,228.16,168.35Zm6.32-25.6a5.07,5.07,0,0,0-1.2.28c-.46.16-.75.26-.89.29A2.42,2.42,0,0,0,231,144a3.51,3.51,0,0,0-.73,1.69,16.23,16.23,0,0,0-.22,3.11c0,1.3.08,3,.22,5.07a13,13,0,0,0,.31,1.94,7.78,7.78,0,0,0,.4,1.4c.24.49.82.7,1.72.64a9.26,9.26,0,0,0,4.5-1.52,10.42,10.42,0,0,0,3.23-3.41,14.15,14.15,0,0,0,1.19-2.46,5,5,0,0,0,.23-1.94,7.84,7.84,0,0,0-.85-3.28,4.11,4.11,0,0,0-1.3-1.25,8.29,8.29,0,0,0-2.3-1A9.18,9.18,0,0,0,234.48,142.75Z"/></svg>