<svg id="Layer_1" data-name="Layer 1" xmlns="http://www.w3.org/2000/svg" viewBox="0 0 700 700"><defs><style>.cls-1{fill:#363637;}.cls-2{fill:#fc6769;}.cls-3{fill:#48322d;}.cls-4{fill:#e5e2d6;}.cls-5{fill:#72524b;}.cls-6{fill:#fa4847;}.cls-7{fill:#73534c;}.cls-8{fill:#5f4c48;}.cls-9{fill:#5d4c49;}.cls-10{fill:#353638;}.cls-11{fill:#73524b;}.cls-12{fill:#373737;}.cls-13{fill:#604e4a;}.cls-14{fill:#fbfcfc;}.cls-15{fill:#fdfdfd;}</style></defs><title>Document FLAT</title><path class="cls-1" d="M382.23,494.71l10,.41c-8.32,6.65-10.25,15.52-8.55,25.45,2.17,12.63,8.43,23.23,16.73,32.79a17,17,0,0,1,3.65,5.75c.92,3.07-.84,5.51-3.47,7.06-5.29,3.1-10.54,6.3-16,9.07-13.15,6.68-26.36,13.27-39.67,19.66-9.85,4.73-19.88,9.08-29.84,13.59-3.49,1.57-4.53.71-4.95-3.25-.89-8.56,2.17-16,6.31-23.11,5.53-9.43,12.5-17.57,22.37-22.78a59.7,59.7,0,0,1,20.24-6.15c6.52-.88,12.86.55,19.9.1-.88-1.8-1.51-3.4-2.39-4.83A55.82,55.82,0,0,1,369.4,529a28.92,28.92,0,0,1,2.31-17.5A69.83,69.83,0,0,1,382.23,494.71Z"/><path class="cls-1" d="M308.08,492.22c4.27-.93,8.54-1.67,12.81,0-2.78,3.48-5.82,6.79-8.29,10.48-4.8,7.18-5.08,15-1.64,22.74,3.85,8.63,8.14,17.07,12.3,25.57,2.41,4.93,2.18,5.08-1.94,8.58a27,27,0,0,1-9.18,4.69q-41.1,14-82.16,28c-1.71.59-3.39,1.28-5.06,2a4.25,4.25,0,0,1-5.81-4.94l0-.07a120.07,120.07,0,0,1,4.72-15.1c7.42-18.29,20.81-29.4,40.34-33.09,11.94-2.25,23.38-.54,34.62,3.53.73.26,1.51.39,3,.78-1.72-4.24-3.13-7.87-4.65-11.44-5.61-13.12-3-24.85,5.9-35.55C304.78,496.37,306.41,494.28,308.08,492.22Z"/><path class="cls-2" d="M431.17,496.31c-2.4.24-189.61-5.9-191.38-6.15,0-5.45,0-10.55,0-15.65,0-1.16,2.18-76.11,2.55-85.23l-.1.08,1.05-1.1c7.5-5.3,16-8.58,24.47-11.9,16-6.3,32.38-11.4,48.82-16.36a7,7,0,0,1,5.21.11c8.12,3.44,16,7.28,23.11,12.52A261.45,261.45,0,0,1,373.3,396c1.88,1.84,3.8,3.85,5.54,5.84,1.31,1.51,2.24,1.83,3.86.44,3-2.59,6.14-5,9.27-7.47,9.28-7.23,18.53-14.48,27.89-21.59,3.29-2.5,8.14-5.43,11.59-7.72a6.18,6.18,0,0,1,.75,3c-.39,5.75-1,11.51-1,17.26Q431.07,441,431.17,496.31ZM354.74,396.4c-10.8,6.29-22.05,7.73-34.84,6.37S296,396.45,285.59,388c-.38,2.27-.53,3.84.3,5.63a21,21,0,0,0,12.37,11.49c2.09.74,2.93,1.64,3,3.8.18,4.27.8,8.53.89,12.8.15,8,5.31,12.86,10.88,17.43a6.4,6.4,0,0,0,3.23,1.07c7.86.85,14.34-2.15,19.25-8,3.58-4.26,6.91-8.85,8.43-14.4.78-2.85,1.51-5.7,2.35-8.52.75-2.54,1.57-4.89,4.52-6,1.6-.6,2.87-2.16,4.2-3.39S356.31,398.71,354.74,396.4Z"/><path class="cls-3" d="M470.2,296.36c-.4,11.69-.74,23.38-1.21,35.07-.18,4.43-.63,8.85-1,13.27-9.73,2.71-32.29,10.07-38.87,12.55,0-3.62,0-7.25-.05-10.87-.29-10.5-.67-21-1-31.48,0-1.62,1.6-3.28-.06-3.92,2-1.86,2-.14,4-2,2.47-2.31,4.53-5,4.11-8.12-.38-2.76-2.08-4.67-5.53-5.1.32-1.09.35-6.55.4-7.65.4-8.55.69-17.11,1-25.66a6.59,6.59,0,0,1,.27-2.44c2.34-4.09,3.18-8.57,4.1-13.12,1.74-8.51-.44-15.87-5.59-22.59l.31-1.18h-1.08c.34-1.05-5.1-10.93-5.1-10.93a29.59,29.59,0,0,0,9.78.84c2.73-1.58,5.57-6.39,6.71-9.18,1.07-2.64.47-4.47-1.56-6.06-1-.81-2.28-1.34-3.27-2.17a11,11,0,0,1-1.6-2.18c.65-5.71,1.34-11.41,1.94-17.12a36,36,0,0,0,.09-5c-.12-3.55-.74-4-4.12-2.92-3.92,1.28-7.83,2.33-11.94,1-6.78-2.16-11.84-5.91-14-13.23-1.52-5.09-.41-9.77.63-14.56.38-1.79.9-3.42-.22-5-7.08,1.45-9,.63-13-5.27-3.72-5.56-3.08-11.18-.29-16.85.41-.26,18.48-17.48,19-21.09,0,39.28,26.31,31.2,26.31,31.2a52,52,0,0,0-1.73,6.68c-.72,6.11,5.25,18,13.05,21.26,5.6,2.33,22.74.83,22.74.83s-1.9,124.22-2.15,126.85a9.46,9.46,0,0,1-2.25,1,56.3,56.3,0,0,0-17.43,6.38,24.51,24.51,0,0,0-6.48,5.27c-2.93,3.26-2.17,8.51,1.43,10.09,2.47,1.09,5.06,2,8.08.66,3.61-1.55,7.3-2.85,10.64-5A36.06,36.06,0,0,1,470.2,296.36Z"/><path class="cls-4" d="M429.16,357.25c6.58-2.48,27.35-10.14,38.87-12.55,4.29,4.62,5.37,7.15,16.41,21.24-3,1.79-11.21,5.17-14.31,6.75-.73.37-1.4.86-2.09,1.3l-24.2,9.61c-3.71-5.59-11.64-17.41-12.39-18.09-3.45,2.29-8.3,5.22-11.59,7.72-9.36,7.11-18.61,14.36-27.89,21.59-3.13,2.43-8.33,6.69-11.34,9.27-1.47-1.38-5.45-6.24-7.33-8.08a261.45,261.45,0,0,0-28.38-23.38c-7.14-5.24-15-9.08-23.11-12.52a7,7,0,0,0-5.21-.11c-16.44,5-77.35,31.45-77.35,31.45s-1-1.12-2.87-3.43c-5-6.23-14.43-17.94-19.47-24.11a130.46,130.46,0,0,1,17.33-6.5c.77-.22,90.38-21.86,92.06-22.42l16.88,2.43c.4.25.78.67,1.21.75,12,2.27,24,4.13,35.9,6.85C396.66,348.76,412.88,353.14,429.16,357.25Z"/><path class="cls-5" d="M239.22,193.23c.37-7.44.59-16.84,1.06-24.28.53-8.41,1.24-16.82,1.87-25.22,0-.67,0-1.33.07-2,.57-9.24,1.15-18.48,1.69-27.72a9.21,9.21,0,0,0-.35-1.89c-.55-3.59-.31-4,3.69-5.66l1-.68,2-.24c.37.3.73.83,1.13.86,5.26.4,10.53.78,15.8,1,7.6.4,15.2.69,22.8,1,.34,0,.67,0,1,.06,7.21.64,14.42,1.27,21.63,1.93,2.94.27,5.88.61,8.82.92l9.8,1a4.74,4.74,0,0,1,3,5.2c-.4,3.59-2.77,67.38-3.2,74a15.9,15.9,0,0,1-.79,3.18C328,196.89,239.19,193.89,239.22,193.23Zm44.56-7.89c3.48.21,5.54-1.7,7.52-4a13,13,0,0,1,4.07-3.42,88,88,0,0,1,9.67-3.56c4.44-1.44,8.63-3.17,11.71-7,3.36-4.11,3.11-8.43-.81-11.72-2.36-2-5-1.27-7.53-.79-8.58,1.61-15.12,6.65-20.2,13.33C284.65,172.91,281.78,178.3,283.78,185.34Z"/><path class="cls-1" d="M470.2,296.36a36.06,36.06,0,0,0-4.83,2.25c-3.34,2.18-7,3.48-10.64,5-3,1.3-5.61.43-8.08-.66-3.6-1.58-4.36-6.83-1.43-10.09a24.51,24.51,0,0,1,6.48-5.27,56.3,56.3,0,0,1,17.43-6.38,9.46,9.46,0,0,0,2.25-1,72.38,72.38,0,0,1,24.21-1.73c11.14,1,21.38,4.63,29.19,13.21a27.81,27.81,0,0,1,7.31,16c.29,2.72.48,5.45.75,8.58,1.61-.75,3.32-1.57,5-2.36,5.66-2.57,11.46-4.31,17.73-2.55a24.19,24.19,0,0,1,5.07,1.92c5.88,3.24,5,8.3.36,11.91-1.74,1.36-4.19,1.8-5.92,2.5,3.42,2.87,7.47,5.71,10.82,9.22a25.17,25.17,0,0,1,7.1,19.54,13.37,13.37,0,0,1-8,11c-3.07,1.24-5.46.45-7.78-1.52-3.17-2.7-4.52-6.48-6.13-10.12a47.61,47.61,0,0,0-5.72-10.13,6,6,0,0,0-.27,1.48,8.13,8.13,0,0,0,.38,1.94,61.65,61.65,0,0,1,2.58,21.6,31.47,31.47,0,0,1-6.32,18c-2.29,3-5.2,5.1-9.35,4.62-1.67-.2-3-.85-3.24-2.54-.4-2.25-1-4.61-.72-6.8.93-6.19,2.62-12.28,3.4-18.48,1.11-8.72-.35-23.27-6.18-29.68-2.92,6.26-5.53,12.61-8.79,18.6a80,80,0,0,1-8.31,11.72,13.61,13.61,0,0,1-4.91,3.25c-3,1.39-5.4,0-5.39-3.3a18.61,18.61,0,0,1,1.5-7.69c5-10.69,10.16-21.33,19.13-29.43,1.77-1.61,2.22-3.42,2.39-5.7,1.07-13.76-9.88-28-24.24-30.1-7-1-13.84-1.64-20.69.19C474.17,294,472.23,295.35,470.2,296.36Z"/><path class="cls-6" d="M443.84,383.6,468,374c.15,9.39,2.64,84.64,2.24,96.61-3,2.54-26.86,17-39.11,25.71q0-55.29,0-110.58c0-5.75-.13-14.47.26-20.22C432.39,366.21,440.13,378,443.84,383.6Z"/><path class="cls-7" d="M237.09,290.43c-.6-20,.46-82.69.25-85,14.85.19,60.55,1.22,66.5,1.35-5.83,1.27-11.62,2.8-16.82,5.76-14.53,8.26-25.18,19.54-27.1,37-1.1,10,2.41,18.33,10.25,24.63,5.89,4.73,12.81,6.89,20.32,7.21,12.45.52,23.5-3.43,33.44-10.7,1.4-1,2.34-2.67,3.5-4l3.73-2.22c-.34,5.43-.24,10.94-1.15,16.28a47,47,0,0,0-.81,12.62C326.45,293.67,251.43,290.55,237.09,290.43Z"/><path class="cls-8" d="M303.84,206.79c-5.95-.13-53-.93-66.5-1.35,12.44-2.25,8.63-8,3-12,1.55-.76,25.56,1.16,35.17,1,12.82-.17,25.64-.09,38.46,0,2.78,0,13.93,1.07,16.2-1,6,1,8.71,5.87,6.13,11.47-1.31,2.86-5.19,2.92-11.54,4C317.39,206.9,314.77,205.34,303.84,206.79Z"/><path class="cls-1" d="M238.24,316.17c0,3.77.11,7.56,0,11.33a29.2,29.2,0,0,1-.94,4.72c-3.63,3.84-7.18,7.77-10.93,11.5a58.41,58.41,0,0,1-19.76,13c-12.58,5-21.22,1-28.14-8.42a41.17,41.17,0,0,1-7.19-17.28,43.12,43.12,0,0,0-1.21-4.3c-3.67,1.24-7,3-10.47,3.4-8.2.92-14.14-3.5-18.14-10-7.82-12.75-6.12-26.67,2.87-37.92,1.7-2.12,4.28-3.67,6.7-5,3.16-1.8,5.23-1.11,7.1,2,1.46,2.38,7,13.7,3.21,26.25-1.64,3-4.55,3-7.76,3.15,5.1,4,7.47,3.49,10-1.64a15.14,15.14,0,0,0,.75-1.82,25.89,25.89,0,0,0,.31-14.66c-.32-1.34-2.83-7.75-3.43-9.43-1.43-4-1.31-6,.77-7.73s8.3.86,11,3.43a4.32,4.32,0,0,1,1.33,3.84c-.75,4.58-5,9.28-1.37,17.77,1.42,3.46,5.39,3.28,7.61,2.83a21.18,21.18,0,0,1,3.35-.74c2.41-.08,3.3.8,3.4,3.19a13.15,13.15,0,0,1-.18,4c-1.84,6.83-.66,13.48,1.23,20,1.77,6.09,4.95,11.35,11.61,13.09a19.5,19.5,0,0,0,19.27-4.88C225.81,329.49,231.93,322.73,238.24,316.17Z"/><path class="cls-9" d="M331.24,112.44l-9.8-1c-2.94-.31-5.88-.65-8.82-.92-7.21-.66-14.42-1.29-21.63-1.93-.33,0-.66-.05-1-.06-7.6-.34-15.2-.63-22.8-1-5.27-.27-10.54-.65-15.8-1-.4,0-.76-.56-1.13-.86q9.53-4,19-8c6.24-2.63,12.51-5.17,18.66-8a23.58,23.58,0,0,1,12.05-2c5.27.41,111.5,5.18,113.15,5.78-.5,3.61-18.57,20.83-19,21.09-16.47-1.46-38.87-2.43-46.3-2.09,4.32-3.07,3.47-5.26.51-5.69-4.73-.71-9.48-.69-13.5,2.61C333.65,110.33,332.46,111.4,331.24,112.44Z"/><path class="cls-8" d="M237.09,290.43c11.1,0,89.36,3.24,92.11,2.91,6,5,5.09,11.93-2,15,0-1.49-83.49-5.13-89-5.14C250.82,296.64,246.1,291.69,237.09,290.43Z"/><path class="cls-10" d="M152.84,248.37c-4.47-4.64-4.74-10.68-1-15.83a10.86,10.86,0,0,1,14.62-2.62c5.64,3.53,8.85,9.06,11.24,14.85,2.71,6.53,4.58,13.58,6.88,20.29,1.38,4.06-2.33,9.71-3.17,9.59-1.58,1.38-3.35,2.54-5.26,4C175,276.88,176.06,272.66,152.84,248.37Z"/><path class="cls-1" d="M203.92,283.79a33.89,33.89,0,0,1-18.7,13.93,15.92,15.92,0,0,1-5.87.51,5.37,5.37,0,0,1-4.67-7.22,18.53,18.53,0,0,1,2.76-5.81c5.35-6.62,11.2-12.65,19.87-14.93C202.17,269,211.65,268.8,203.92,283.79Z"/><path class="cls-9" d="M248.22,105.78l-1,.68Z"/><path class="cls-1" d="M352.71,396.1a2.84,2.84,0,0,1,4,1.46,1.71,1.71,0,0,1-.57,2,21.32,21.32,0,0,1-5.33,3.71c-3.58,1.33-4,4.52-5,7.63-.66,2.07-1.18,4.18-1.71,6.29-1.43,5.82-4.87,10.58-8.58,15-4.91,5.86-11.39,8.86-19.25,8a25.64,25.64,0,0,1-6.29-2.82c-5.57-4.57-7.67-7.64-7.82-15.68-.09-4.27-.71-8.53-.89-12.8-.09-2.16-.93-3.06-3-3.8a21,21,0,0,1-12.37-11.49c-.83-1.79-.68-3.36-.3-5.63,10.42,8.47,21.46,13.42,34.31,14.79A55.65,55.65,0,0,0,352.71,396.1Zm-27,13.75c-3.58.57-6.77.44-9.32,1.65a28.12,28.12,0,0,0-9.06,6.58c-1.32,1.5-1.19,4.69-1,7.05.7,7.5,8.07,13,15.22,10.77a24.7,24.7,0,0,0,16.28-16.19c1.36-3.94.73-6.23-3.63-7.87A61.17,61.17,0,0,0,325.66,409.85Z"/><path class="cls-5" d="M394.18,114.48c-2.79,5.67-3.43,11.29.29,16.85,4,5.9,8.15,6.35,15.22,4.89a14.48,14.48,0,0,0-2,5.4c-1,4.79-2.15,9.47-.63,14.56,2.19,7.32,7.25,11.07,14,13.23,5.49,1.75,10.63-.72,15.9-2.31a74,74,0,0,1,.07,9.19c-.6,5.71-1.29,11.41-1.94,17.12-2.18,1.47-4.18,3-7.13,3.05-20.43.23-40.85.63-61.28.93-5.49.09-21.07.05-21.07.05l.62-85.58S386,113,394.18,114.48Zm-1.65,70.79c4.34-.35,5.87-1.8,6.63-5.69a31.75,31.75,0,0,0,.14-13.69,19.66,19.66,0,0,0-6.61-11.28,10.44,10.44,0,0,0-5.38-2.11c-6.6-.6-11.43,2.69-15.06,7.86-1.75,2.5-3.67,5.11-2.67,8.95C381,168.94,390.56,171.61,392.53,185.27Z"/><path class="cls-11" d="M429.16,357.25c-16.28-4.11-85.58-19.58-86-19.83-.05-3.44-.94-27.19-.94-27.19l6.91.06c25.67.54,57.55.23,80,1.4.29,10.5-.35,24.19-.06,34.69C429.21,350,429.15,353.63,429.16,357.25Z"/><path class="cls-12" d="M430.89,224.27c5.15,6.72,7.33,14.08,5.59,22.59-.92,4.55-1.76,9-4.1,13.12a6.59,6.59,0,0,0-.27,2.44c-.67.67-1.4,1.29-2,2-4.71,5.7-9.57,11.19-17.18,13.07l-.87.92.14-.15a7.86,7.86,0,0,0-1.42-.26c-9.29-.11-15-4.64-16.91-13.59a37.34,37.34,0,0,1,2.82-23.71c3.51-7.79,9.27-13.34,16.52-17.89,5-3.13,9.39-3.42,14.41-1a12.65,12.65,0,0,0,3.07.59l.44.38.07.28Z"/><path class="cls-8" d="M343.19,295.75c15.63,0,39.26,1.7,54.89,1.54,7.93-.07,15.86-.51,23.77-1,1.68-.11,7.71.43,8.84-.52,3.45.43,5.15,2.34,5.53,5.1.42,3.14-1,8.38-7.75,11.17-27.15-.81-60.56-1.22-86.23-1.77C348.94,305.53,343.7,296.76,343.19,295.75Z"/><path class="cls-13" d="M378.53,211.58c-8.79-.06-25.92-.13-34.71-.2.05-.65,8.24-4.19,1.78-13.94,5.5,0,15.58,0,21.07-.05,20.43-.3,40.85-.7,61.28-.93,2.95,0,4.95-1.58,7.13-3.05a11,11,0,0,0,1.6,2.18c1,.83,2.24,1.36,3.27,2.17,2,1.59,8.7,9-3.48,14.86a22.53,22.53,0,0,1-10.79.13c-2.83-2.74.73,0-3.59-3.49-7.43-6-15.92-6.93-24.93-5.45C390.36,204.93,384.46,208.32,378.53,211.58Z"/><path class="cls-3" d="M344.71,296.21c.51,1,5.78,7-2.47,14h0s.62,13.63.77,16.87c.17,3.43.12,6.88.17,10.32L326.3,335c0-7.11-.12-14.23,0-21.34a68,68,0,0,1,1-8c7.05-3.1,8-7.3,2-12.31a47,47,0,0,1,.81-12.62c.91-5.34.81-10.85,1.15-16.28,2.33-2.5,4.73-4.92,6.95-7.5,1.8-2.1,3.39-4.37,5.08-6.57v45.38C346.09,296.33,342.17,295.7,344.71,296.21Z"/><path class="cls-3" d="M348.94,198.66c8.11,8.93-4.44,12.17-4.48,12.82-5.43.35-.64-.1-.64-.1s.3,12.74.27,15l-2.33-2-1.66-1.1.19.14c-.23-1-.18-2.21-.74-3-1.72-2.34-6.26-10-15.4-11.63,16,0,11.8-12.11,6.07-15.46a6,6,0,0,0,.79-1.81c.43-6.58,2.8-70.37,3.2-74a4.74,4.74,0,0,0-3-5.2c1.22-1,2.41-2.11,3.65-3.13,4-3.3,24.33-6.62,14,2.55-3.46.11-2.69,0-2.69,0l-.62,85.58S346.75,197.05,348.94,198.66Z"/><path class="cls-12" d="M283.78,185.34c-2-7,.87-12.43,4.43-17.13,5.08-6.68,11.62-11.72,20.2-13.33,2.57-.48,5.17-1.2,7.53.79,3.92,3.29,4.17,7.61.81,11.72-3.08,3.79-7.27,5.52-11.71,7a88,88,0,0,0-9.67,3.56,13,13,0,0,0-4.07,3.42C289.32,183.64,287.26,185.55,283.78,185.34Z"/><path class="cls-14" d="M334,213.75c1.86,2.24,3.81,4.41,5.53,6.75.56.76.51,2,.74,3-5.17-2.33-10.45-3.16-15.83-.82a42.21,42.21,0,0,0-15.7,11.14c-5.59,6.59-9.43,14-8.73,23.06.64,8.4,5.79,13.39,14.16,13.55,4.81.1,9.08-1.62,13.24-3.74-1.16,1.36-2.1,3-3.5,4-9.94,7.27-21,11.22-33.44,10.7-7.51-.32-14.43-2.48-20.32-7.21-7.84-6.3-11.35-14.66-10.25-24.63,1.92-17.46,12.57-28.74,27.1-37,5.2-3,11-4.49,16.82-5.76C314.77,205.34,324.9,207.34,334,213.75Z"/><path class="cls-12" d="M327.43,266.66c-4.16,2.12-8.43,3.84-13.24,3.74-8.37-.16-13.52-5.15-14.16-13.55-.7-9.09,3.14-16.47,8.73-23.06a42.21,42.21,0,0,1,15.7-11.14c5.38-2.34,10.66-1.51,15.83.82l-.19-.14,1.66,1.1,2.33,2c.2,1.3.09,2.74.64,3.87,2.52,5.19,1.25,10.27-.17,15.38-.44,1.58-.92,3.15-1.37,4.72-1.69,2.2-3.28,4.47-5.08,6.57-2.22,2.58-4.62,5-6.95,7.5Z"/><path class="cls-2" d="M334.18,411.84c4.36,1.64,5,3.93,3.63,7.87a24.7,24.7,0,0,1-16.28,16.19c-7.15,2.24-14.52-3.27-15.22-10.77-.22-2.36-.35-5.55,1-7.05a28.12,28.12,0,0,1,9.06-6.58C318.89,410.29,325.42,408,334.18,411.84Z"/><path class="cls-12" d="M392.53,185.27c-2-13.66-11.5-16.33-22.95-16-1-3.84.92-6.45,2.67-8.95,3.63-5.17,8.46-8.46,15.06-7.86a10.44,10.44,0,0,1,5.38,2.11,19.66,19.66,0,0,1,6.61,11.28,31.75,31.75,0,0,1-.14,13.69C398.4,183.47,396.87,184.92,392.53,185.27Z"/><path class="cls-15" d="M378.53,211.58c5.93-3.26,11.83-6.65,18.63-7.77,9-1.48,17.5-.55,24.93,5.45,4.32,3.49,6.54,8.25,8.6,13.17a12.65,12.65,0,0,1-3.07-.59c-5-2.44-9.42-2.15-14.41,1-7.25,4.55-13,10.1-16.52,17.89a37.34,37.34,0,0,0-2.82,23.71c1.92,8.95,7.62,13.48,16.91,13.59a7.86,7.86,0,0,1,1.42.26,49.33,49.33,0,0,1-30.5,17c-5.74.89-11.62.62-17.07-2.1-9.67-4.83-14.45-13.07-15.43-23.43-1.73-18.34,5.28-33.73,17.26-47.07C370.09,218.62,374.49,215.26,378.53,211.58Z"/><path class="cls-15" d="M412.93,277.5l-.87.92Z"/><path class="cls-14" d="M341.76,224.43l-1.66-1.1Z"/><path class="cls-11" d="M326.3,335c-1.68.56-88.49,21.4-89.81,21.54.26-8.11,1.8-53.3,1.8-53.3s71.4,1.29,89,2.42C326.9,307.41,326.27,327.88,326.3,335Z"/><path class="cls-7" d="M412.93,277.5c7.61-1.88,12.47-7.37,17.18-13.07.6-.72,1.33-1.34,2-2-.33,8.55-.62,17.11-1,25.66,0,1.1-.08,6.56-.4,7.65-1.13.95-7.16.41-8.84.52-7.91.53-15.84,1-23.77,1-15.63.16-52-1-54.89-1.54V250.37c.45-1.57.93-3.14,1.37-4.72,1.42-5.11,2.69-10.19.17-15.38-.55-1.13-.44-2.57-.64-3.87,0-2.28-.27-15-.27-15l34.71.2c-4,3.68-8.44,7-12.07,11.09-12,13.34-19,28.73-17.26,47.07,1,10.36,5.76,18.6,15.43,23.43,5.45,2.72,11.33,3,17.07,2.1a49.33,49.33,0,0,0,30.5-17l-.14.15Z"/><path d="M250.68,450.15a2.58,2.58,0,0,1,.55-1.48,4.34,4.34,0,0,1,1.47-1.19,8.6,8.6,0,0,1,2.25-.76,13.47,13.47,0,0,1,3-.2,11.1,11.1,0,0,1,4.07.91,15.29,15.29,0,0,1,3.61,2.16,18,18,0,0,1,2.88,2.91,14.53,14.53,0,0,1,1.9,3.14,18.41,18.41,0,0,1,1.2,7.76,11.42,11.42,0,0,1-3.27,7.3,25,25,0,0,1-9.09,6,9.53,9.53,0,0,1-3.87.81,6.56,6.56,0,0,1-3-.57,4.3,4.3,0,0,1-1.47-1.75,4.6,4.6,0,0,1-.55-2.25,3.33,3.33,0,0,1,.45-1.37,3.7,3.7,0,0,1,.93-1.2,1.83,1.83,0,0,0,.66-.75,7,7,0,0,0,.19-1.76c0,.12,0-.82,0-2.83s.05-4.07.11-6.16c0-.68.08-1.78.17-3.32s.15-2.63.17-3.27a1.72,1.72,0,0,0-.09-.79c-.07-.12-.22-.18-.46-.19a2.07,2.07,0,0,0-.5.13,2,2,0,0,1-.62.13C250.89,451.55,250.65,451.08,250.68,450.15Zm5.36,2c-.17,0-.33.14-.46.43a3.73,3.73,0,0,0-.3,1.09c0,.46-.07,1.23-.13,2.32s-.12,2.31-.16,3.66c-.11,3.45-.12,6.24-.05,8.37a17.42,17.42,0,0,0,.38,3.88.73.73,0,0,0,.67.54,5.46,5.46,0,0,0,1.84-.25,8.71,8.71,0,0,0,1.56-.66c.44-.25,1.11-.64,2-1.17s1.92-1.22,2.74-1.83,1.44-1.11,1.86-1.49a4.86,4.86,0,0,0,.69-.69,7.23,7.23,0,0,0,.72-1.79,9.72,9.72,0,0,0,.4-2.39,4.2,4.2,0,0,0-.11-1.35,4.68,4.68,0,0,0-.56-1,7.57,7.57,0,0,1-.75-1.48q-.89-2.16-5.26-4.29a22.71,22.71,0,0,0-3.11-1.31C257.09,452.43,256.44,452.24,256,452.14Z"/><path d="M272.88,469.13a20.47,20.47,0,0,1,1.07-5.9,27.52,27.52,0,0,1,2.87-5.9,16.33,16.33,0,0,1,4.12-4.74,7.91,7.91,0,0,1,5.05-1.47,4,4,0,0,1,1.95.54,6.08,6.08,0,0,1,1.74,1.69,10.23,10.23,0,0,1,1.32,2.16,13.83,13.83,0,0,1,.85,2.57,19.15,19.15,0,0,1,.43,2.89,31,31,0,0,1,.05,3.23,17.52,17.52,0,0,1-1.46,6.21,6.61,6.61,0,0,1-1.56,2.28s-.23.42-.62,1.22a11.75,11.75,0,0,1-1.58,2.34,7.72,7.72,0,0,1-2.81,2,10.12,10.12,0,0,1-4.48.72,5.94,5.94,0,0,1-2.53-.62,6.37,6.37,0,0,1-2-1.75,12.74,12.74,0,0,1-2.25-5.08A13.63,13.63,0,0,1,272.88,469.13Zm10.9-11.8a6.48,6.48,0,0,0-3.1.68A6.81,6.81,0,0,0,278.3,460a8,8,0,0,0-1.32,2.39,7.15,7.15,0,0,0-.32,1.49,4.75,4.75,0,0,0-.36.92,8.46,8.46,0,0,0-.26,2.1,5.75,5.75,0,0,0,.76,2.78,8.62,8.62,0,0,0,2.14,2.73,4.61,4.61,0,0,0,2.9,1.19,5.66,5.66,0,0,0,2.73-.78,8,8,0,0,0,2.3-1.65,9.74,9.74,0,0,0,1.92-6.07,11.07,11.07,0,0,0-.51-3.77,6.54,6.54,0,0,0-1.74-2.83A4.15,4.15,0,0,0,283.78,457.33Z"/><path d="M293.62,469.4c0-1.15.1-2.07.19-2.76a23.74,23.74,0,0,1,2-6.59,32.43,32.43,0,0,1,3.82-6.36,22,22,0,0,1,4.72-4.66,7.7,7.7,0,0,1,4.56-1.65,2.3,2.3,0,0,1,1.95,1,4.76,4.76,0,0,1,.61,2.81,5.79,5.79,0,0,1-.65,2.74c-.39.66-.83,1-1.33,1a10.5,10.5,0,0,1-1.08-.29,6.58,6.58,0,0,0-1.79-.32,7.29,7.29,0,0,0-4,1,10.08,10.08,0,0,0-3.15,2.91,15.19,15.19,0,0,0-2.1,4.18,16.87,16.87,0,0,0-.82,4.7,5.14,5.14,0,0,0,1.17,3.7,4.71,4.71,0,0,0,3.56,1.49,8.12,8.12,0,0,0,3.7-.65,8.83,8.83,0,0,0,3-2.57,10.63,10.63,0,0,0,2-3.27,2.69,2.69,0,0,1,.5-1c.19-.24.33-.35.41-.35a1.21,1.21,0,0,1,.9.53,2.26,2.26,0,0,1,.37,1.5,9.21,9.21,0,0,1-.22,1.22,17.71,17.71,0,0,1-.51,1.8,15.48,15.48,0,0,1-1.69,3.18,14.24,14.24,0,0,1-2.67,3.09,10.52,10.52,0,0,1-2,1.28,13.1,13.1,0,0,1-2.49.89,9.36,9.36,0,0,1-2.59.29,5.84,5.84,0,0,1-4.1-1.4,7.15,7.15,0,0,1-1.7-3A13,13,0,0,1,293.62,469.4Z"/><path d="M327,453.1a2.75,2.75,0,0,1,.31-1.15,4.87,4.87,0,0,1,.73-1.06,5.18,5.18,0,0,1,.78-.74,1.14,1.14,0,0,1,.45-.26c.28,0,.62.32,1,.94a6,6,0,0,1,.83,1.75,9.43,9.43,0,0,1,.22,1.27q.14,1,.21,2.31c0,.87.05,1.79,0,2.75q-.12,3.69-.36,6.65c-.16,2-.28,3.23-.37,3.73a12.27,12.27,0,0,1-.48,2.08,7.92,7.92,0,0,1-.55,1.21,9.35,9.35,0,0,1-.7,1,5.34,5.34,0,0,0-.58.88c-.05.15-.14.41-.29.8a4,4,0,0,1-.85,1.24,6.8,6.8,0,0,1-1.8,1.3,15.31,15.31,0,0,1-3.28,1.24,10.86,10.86,0,0,1-2.94.44,5.35,5.35,0,0,1-2.47-.76,6.32,6.32,0,0,1-1.83-1.49,5.77,5.77,0,0,1-1.08-3.63,39.64,39.64,0,0,1,.46-4.29,51.52,51.52,0,0,1,1-5.28c.34-1.33.66-2.44.94-3.32s.53-1.6.75-2.17a8,8,0,0,1,.42-1c.43-.75.8-1.12,1.1-1.11s.35.08.4.21a2.78,2.78,0,0,1,0,.73,8.74,8.74,0,0,1-.34,1.33c-.22.76-.45,1.64-.69,2.62s-.45,2.19-.65,3.61a45.12,45.12,0,0,0-.37,4.71,10,10,0,0,0,.08,1.6,5.08,5.08,0,0,0,.23,1.17,3.8,3.8,0,0,0,1.55,1.42,5.55,5.55,0,0,0,2.86.87,4.42,4.42,0,0,0,1.59-.27,9.31,9.31,0,0,0,1.67-.74,5.11,5.11,0,0,0,1.12-.77,7.31,7.31,0,0,0,1.27-2,6.76,6.76,0,0,0,.75-2.64q0-1.39-.88-11.47C327.07,454.45,327,453.23,327,453.1Z"/><path d="M341.26,449.38a.85.85,0,0,1,.76.47,5.49,5.49,0,0,1,.47,1.57q.21,1.13.78,4.74c.23,1.4.43,2.72.58,4s.28,2.33.39,3.25.19,1.58.27,2,.15.59.23.59.3-.53.52-1.61a83.09,83.09,0,0,1,2.58-9.59,7.15,7.15,0,0,1,1.36-2.47,2,2,0,0,1,1.48-.77c.44,0,.83.33,1.17,1a11.84,11.84,0,0,1,.91,2.2q.39,1.24,1.86,6.33.92,3.19,1.53,6.08c.42,1.92.71,3.53.89,4.82a20.09,20.09,0,0,1,.25,2.5,4.43,4.43,0,0,1-.36,1.6,5.26,5.26,0,0,1-.77,1.38c-.29.36-.54.54-.73.53a1.38,1.38,0,0,1-1.17-.47,30.74,30.74,0,0,1-1-3.88q-.86-3.66-1.27-5.38a54.07,54.07,0,0,0-1.64-5.71c-.51-1.39-.86-2.09-1.06-2.09a10.29,10.29,0,0,0-.87,2.82q-.53,2-1.54,5.34c-.67,2.21-1.16,4-1.45,5.34-.21,1-.36,1.71-.48,2.19a6,6,0,0,1-.49,1.35,4,4,0,0,1-.74,1.09,1.17,1.17,0,0,1-.73.45,1.13,1.13,0,0,1-1-.68,5.62,5.62,0,0,1-.48-1.67c-.09-.68-.23-2-.4-3.9s-.33-3.49-.49-4.69c-.09-.66-.21-1.69-.36-3.08s-.26-2.29-.32-2.66-.14-.57-.26-.58-.82,1.88-2,5.65q-2.64,8.38-3.35,11.38a4.77,4.77,0,0,1-.61,1.58,1.39,1.39,0,0,1-1.31.52.53.53,0,0,1-.47-.34,1.4,1.4,0,0,1-.14-.66,17.37,17.37,0,0,1,.5-3.28q.46-2,1.38-5t2.12-6.64c.73-2.25,1.32-4,1.75-5.19s.87-2.31,1.32-3.3a3.71,3.71,0,0,0,.26-.78c0-.29,0-.79,0-1.49s-.05-1.26,0-1.66a3.15,3.15,0,0,1,.4-1.33,4.61,4.61,0,0,1,.9-1.26A1.35,1.35,0,0,1,341.26,449.38Z"/><path d="M376.84,448.63c1,0,1.43.88,1.38,2.56a4.7,4.7,0,0,1-.23,1.5,5.85,5.85,0,0,1-.71,1.2c-.74,1-1.35,1.49-1.84,1.48a3,3,0,0,1-.88-.16,7.17,7.17,0,0,1-.85-.34,4,4,0,0,0-.53-.22c-.17,0-.7.06-1.6.19h-.38l-.81,0c-.34,0-.78.06-1.3.13s-1,.14-1.49.24a10.9,10.9,0,0,0-2.32.61,1.32,1.32,0,0,0-.76.9,11.34,11.34,0,0,0-.23,2.32c0,1.48,0,2.57,0,3.27s.2,1.05.41,1.06a4.62,4.62,0,0,1,.87-.32,16.86,16.86,0,0,1,2-.53,39.46,39.46,0,0,1,5.73-.94,2.44,2.44,0,0,1,1.79.78,2.55,2.55,0,0,1,.67,1.88,5.22,5.22,0,0,1-.41,2.07,2.41,2.41,0,0,1-1.05,1.13,3.39,3.39,0,0,1-1.62.35c-1.86,0-3.34.09-4.46.21a15.53,15.53,0,0,0-2.72.5,1.79,1.79,0,0,0-1.63,1.61q-.12.57-.21,1.35c-.06.51-.1.85-.13,1a4.19,4.19,0,0,0-.17.83,1.52,1.52,0,0,0,.22.83c.15.27.31.41.46.42s.32-.1.9-.31a18.32,18.32,0,0,1,2.15-.58,28.25,28.25,0,0,0,3.23-1c1.25-.47,2.12-.78,2.6-.94a4.51,4.51,0,0,1,1.52-.22,1.44,1.44,0,0,1,1.09.65A2.68,2.68,0,0,1,376,474a5.53,5.53,0,0,1-.29,1.6,3.91,3.91,0,0,1-.59,1.23,1.28,1.28,0,0,1-.77.33c-.36.06-.82.13-1.38.24a8.61,8.61,0,0,0-1.83.57,17.16,17.16,0,0,1-1.92.68l-2.38.68c-.83.23-1.75.53-2.77.92-.25.08-.65.24-1.19.48a9.15,9.15,0,0,1-.85.34,7.74,7.74,0,0,1-2.49-.87,1.81,1.81,0,0,1-.86-.71,2.43,2.43,0,0,1-.24-1.32,3.85,3.85,0,0,1,.68-2,5.34,5.34,0,0,1,1.63-1.58,2.91,2.91,0,0,0,.48-.4.74.74,0,0,0,.16-.36c0-.13,0-.43.08-.89a5.27,5.27,0,0,1,.07-.58,5,5,0,0,0,.07-.69,9,9,0,0,0-.09-2,1.11,1.11,0,0,0-.51-.78,3,3,0,0,1-.76-.68,2.1,2.1,0,0,1-.16-1.15,4.39,4.39,0,0,1,.43-1.39,5.67,5.67,0,0,1,1-1.61,5.66,5.66,0,0,0,.51-.73,2.59,2.59,0,0,0,.15-.88c0-1.54.06-2.6.06-3.2a4.84,4.84,0,0,0-.16-1.35,1.38,1.38,0,0,0-.53-.73,1.94,1.94,0,0,1-.38-.38.9.9,0,0,1-.12-.57,3.76,3.76,0,0,1,.59-1.6,6.74,6.74,0,0,1,1-1.39,9,9,0,0,1,2.36-1.09,44,44,0,0,1,5.06-1.49c.78-.2,1.57-.42,2.35-.65l2.09-.66c.6-.2,1.1-.35,1.49-.47A2.9,2.9,0,0,1,376.84,448.63Z"/><path d="M395.27,450.24c.45,0,.79.45,1,1.3a17.12,17.12,0,0,1,.36,3.8c0,.26.05.82.08,1.69s.05,2.21,0,4-.05,4-.13,6.53c-.09,3-.21,5.38-.37,7.28s-.27,3.23-.36,4a5.21,5.21,0,0,1-.88,2.49,2,2,0,0,1-1.7.76,5.75,5.75,0,0,1-3-1.63,22.69,22.69,0,0,1-3.66-4,19.31,19.31,0,0,1-2.54-4.43,10.09,10.09,0,0,0-.57-1.34c-.16-.31-.31-.46-.46-.47s-.12.18-.17.54-.11.91-.17,1.66-.12,1.62-.19,2.63-.14,2.22-.24,3.64a8.28,8.28,0,0,1-.53,2.7,1.28,1.28,0,0,1-1.25.89.63.63,0,0,1-.57-.46,4.93,4.93,0,0,1-.21-1.53c0-.72,0-1.82,0-3.29q.1-3.37.29-5.83c.12-1.63.23-3,.34-4s.18-1.71.22-2.05a8.72,8.72,0,0,0-.3-2.19,8.38,8.38,0,0,1-.3-2,2.93,2.93,0,0,1,.64-1.42,2.53,2.53,0,0,1,1.05-1,2.62,2.62,0,0,1,.92-.09c.18,0,.34.26.51.76.28.84.65,1.75,1.09,2.74s1,2.17,1.74,3.54,1.38,2.58,2,3.66q1.81,3.1,3.16,5.05c.91,1.3,1.43,1.95,1.58,1.95a.76.76,0,0,0,.65-.2,1.91,1.91,0,0,0,.22-1s0-.93-.1-2.64-.11-3.35-.12-4.92,0-2.82-.05-4.06,0-2.54,0-3.92,0-2.86.07-4.45q0-1.38.15-2.19a3.73,3.73,0,0,1,.44-1.39,3.53,3.53,0,0,1,.68-.72A1.11,1.11,0,0,1,395.27,450.24Z"/><path d="M415.59,450a1.23,1.23,0,0,1,1.06.47,2.6,2.6,0,0,1,.28,1.53,5.87,5.87,0,0,1-.33,1.53,5.35,5.35,0,0,1-.69,1.49,4.47,4.47,0,0,1-1.68,1.16,13.5,13.5,0,0,1-3.11.94,5.75,5.75,0,0,0-2,.66,2.07,2.07,0,0,0-.55,1.64c0,.62,0,2.23,0,4.82s0,4.84-.08,6.76c0,.43,0,.92-.07,1.47s-.07,1.08-.11,1.57-.06,1-.1,1.58c-.07,1.81-.16,3.11-.26,3.9a4,4,0,0,1-.69,1.95,2.41,2.41,0,0,1-.56.53c-.25.19-.42.28-.5.27-.85,0-1.24-1.15-1.17-3.37,0-.38.06-1.15.14-2.3s.15-2.34.23-3.6.13-2.68.19-4.3q.17-5.58.17-7.76a6.26,6.26,0,0,0-.32-2.65c0-.07-.24-.13-.61-.2s-.87-.14-1.51-.2-1.42-.12-2.34-.15a2.17,2.17,0,0,1-2.4-2.52,3.16,3.16,0,0,1,.22-.91,2.84,2.84,0,0,1,.47-.89,2.7,2.7,0,0,1,1.17-.84,6.62,6.62,0,0,1,1.6-.35l2.49-.21c1.06-.07,1.86-.15,2.38-.23,1.3-.2,2.36-.39,3.18-.55s1.91-.42,3.24-.75A17.59,17.59,0,0,1,415.59,450Z"/></svg>