<svg id="Layer_1" data-name="Layer 1" xmlns="http://www.w3.org/2000/svg" viewBox="0 0 700 700"><defs><style>.cls-1{fill:#363637;}.cls-2{fill:#f4c55d;}.cls-3{fill:#c18e1f;}.cls-4{fill:#40b7c0;}.cls-5{fill:#0e6b70;}.cls-6{fill:#ec7670;}.cls-7{fill:#c06866;}.cls-8{fill:#0c6a6f;}.cls-9{fill:#f4f4f5;}.cls-10{fill:#505456;}.cls-11{fill:#6d7278;}.cls-12{fill:#fff;}.cls-13{fill:#ed736c;}.cls-14{fill:#f9c95f;}.cls-15{fill:#1d1d1b;}.cls-16{fill:#575756;}</style></defs><title>ILLUST #5 FLAT</title><path class="cls-1" d="M414.68,248.27a24.49,24.49,0,0,0-2.37.71,25,25,0,0,1-3.07,1,10.33,10.33,0,0,1-2.33.28c-.42,0-.85,0-1.27-.08s-.79-.14-1.18-.22a8.79,8.79,0,0,1-1.08-.3c-.33-.11-.69-.23-1-.35-.57-.25-1.2-.51-1.73-.78a56.78,56.78,0,0,1-5.62-3.34c-1.71-1.15-3.35-2.31-5-3.47a6,6,0,0,1,7-9.82,6.58,6.58,0,0,1,.92.81l0,0c1.28,1.4,2.56,2.77,3.84,4.09a50.74,50.74,0,0,0,3.75,3.51c.29.24.54.41.81.63l.33.22.29.19.23.14a.7.7,0,0,1,.17.09,1.18,1.18,0,0,0,.56.11,18.25,18.25,0,0,0,2.59-.28,30.68,30.68,0,0,1,3.35-.26,3.58,3.58,0,0,1,1,7Z"/><path class="cls-1" d="M363,265.33a7.15,7.15,0,0,1,.53.7c.17.25.22.36.34.55.21.38.31.62.46.92.25.55.45,1,.64,1.5.38.93.73,1.77,1.1,2.55a8.89,8.89,0,0,0,2.4,3.39,2,2,0,0,0,1.06.45c.15.06.38,0,.57,0a5.84,5.84,0,0,0,.72-.13,12.69,12.69,0,0,0,3.8-1.82,47.86,47.86,0,0,0,7.92-7.08c2.53-2.72,4.93-5.65,7.27-8.63l0,0a5.51,5.51,0,1,1,8.66,6.81,4.13,4.13,0,0,1-.34.39c-2.79,2.93-5.65,5.81-8.73,8.56A57,57,0,0,1,379,281.05a20.21,20.21,0,0,1-7.1,2.38,13.32,13.32,0,0,1-2.2.05,10.54,10.54,0,0,1-2.32-.44,9.92,9.92,0,0,1-4-2.37,13.15,13.15,0,0,1-2.46-3.22,22.61,22.61,0,0,1-1.43-3.19c-.37-1-.68-2-.95-3l-.4-1.24a4.35,4.35,0,0,0-.15-.42s0-.14,0-.09a.21.21,0,0,0,.11.1,3.27,3.27,0,1,1,4.91-4.32Z"/><polygon class="cls-2" points="161.72 404.82 310.94 367.44 323.87 517.52 161.72 404.82"/><path class="cls-3" d="M161.71,404.82S309.3,503.74,309.28,507.38c-.07,12.87,1.66,41.68,1.66,41.68L170.33,441.56Z"/><polygon class="cls-4" points="454.33 266.15 492.29 246.16 497.35 254.08 458.03 276.52 454.33 266.15"/><polygon class="cls-4" points="398.21 262.84 434.69 271.71 431.98 283.07 393.16 276.52 398.21 262.84"/><path class="cls-5" d="M515.08,261.67C509.42,236,474.62,221.79,437.35,230s-62.92,35.68-57.27,61.38,40.46,39.87,77.73,31.67S520.73,287.37,515.08,261.67Zm-58.93,53.82c-29.53,6.5-57.1-4.74-61.58-25.1s15.83-42.13,45.37-48.62,57.1,4.74,61.58,25.1S485.69,309,456.15,315.49Z"/><ellipse class="cls-5" cx="444.92" cy="276.05" rx="18.69" ry="14.07" transform="translate(-62.87 148.36) rotate(-17.7)"/><path class="cls-6" d="M101.39,214.55l69.48,183.54A13.61,13.61,0,0,0,176.6,405l61.47,37.09a10.61,10.61,0,0,0,11,0L317.19,401l-2.61-73.62-52.39,14.23L189.13,185.08h-30s-34.31,9.73-44.24,16C110.83,203.67,101.39,214.55,101.39,214.55Z"/><path class="cls-7" d="M127.33,215.42l60,165.74a9.32,9.32,0,0,0,5.31,5.5l38.5,15.43a9.38,9.38,0,0,0,7,0l65.33-26.25a9.36,9.36,0,0,0,4-14.31l-16.33-21.68a9.35,9.35,0,0,0-9.92-3.4l-11.36,3.08a9.34,9.34,0,0,1-10.93-5.07L195.18,198a9.35,9.35,0,0,0-8.48-5.4H159.32a9.45,9.45,0,0,0-3.78.79l-23.19,10.25A9.34,9.34,0,0,0,127.33,215.42Z"/><circle class="cls-8" cx="239.69" cy="392.21" r="18.34"/><path class="cls-9" d="M244.62,407.88l29.54,49.51a4.85,4.85,0,0,0,7.53,1l.51-.5a4.82,4.82,0,0,0,.76-6l-30.06-49a4.83,4.83,0,0,0-7.71-.71h0A4.83,4.83,0,0,0,244.62,407.88Z"/><polygon class="cls-3" points="257.67 462.64 300.82 495.37 293.6 435.58 257.67 462.64"/><path class="cls-10" d="M153,219.5l11.51,7a125.61,125.61,0,0,0,7.85,44.68L161,284.62s-1.17,14.92,21.6,32.68c2.5,1.95,8.45-1.28,13.64-4.88A127.9,127.9,0,0,0,220.68,335c.14,7.82.73,17.11,2.67,19.81,5.29,7.37,32.14,15.87,32.14,15.87l15.69-16.53a78.47,78.47,0,0,0,39.28-6.4l12.8,15s29.19-14.63,30.75-30.2c.53-5.27-4.88-14.17-7.74-18.46,16.76-30.85,15.53-74.13-6.48-112.25-20.44-35.41-53.69-57.51-86.44-61.21L247,119.22s-39.72,0-54.55,19c-2.76,3.54-1.47,13,.25,20.82a78.25,78.25,0,0,0-15.37,18.83c-3.8-2.36-8.1-4.56-11.73-2.78C147.84,183.83,153,219.5,153,219.5Zm85.36-20.45c13.14-7.59,34,4,46.68,25.88s12.22,45.78-.93,53.37-34-4-46.68-25.88S225.16,206.64,238.31,199.05Z"/><path class="cls-11" d="M162.9,211.91l9.37,5.72a125.19,125.19,0,0,0,7.46,43.7l-11.49,18.13s12.9,29.57,22.36,31.92c3.33.83,9.77-2.75,14.82-6.08a128.39,128.39,0,0,0,22.14,20.22c.05,5.41.45,17.53,3.16,21.3,5.29,7.38,32.58,16,32.58,16l16.11-17.45a79.08,79.08,0,0,0,36-5.2l11.45,13.41S352.5,339,355.35,330.2c1.35-4.13-1.58-13.41-4.11-20.1,7.78-12.28,12.46-26.87,13.85-42.52l18-12.77s-2.7-36.91-11.89-43.4c-2.71-1.91-9.27-1-14.61.13A138.8,138.8,0,0,0,347.6,193,137.38,137.38,0,0,0,338,178.59l10.82-18.32s-24.45-24.66-35.17-24.57c-3.65,0-9.59,4.38-14.54,8.65A102.08,102.08,0,0,0,262,131.88L255,119s-43.45.25-51.15,10.81c-2.32,3.18-1.63,10.82-.28,17.91A78.27,78.27,0,0,0,183,173c-6.83-.63-14.47-.69-17.43,2.17C158.93,181.53,162.9,211.91,162.9,211.91ZM244.26,196c15.8-9.12,39,1.52,51.87,23.76s10.45,47.68-5.35,56.8-39-1.51-51.87-23.76S228.46,205.14,244.26,196Z"/><ellipse class="cls-12" cx="257.11" cy="168.67" rx="21.13" ry="23.86" transform="translate(-49.89 151.15) rotate(-30)"/><ellipse class="cls-12" cx="224.86" cy="176.53" rx="23.67" ry="26.19" transform="translate(-58.14 136.08) rotate(-30)"/><ellipse class="cls-1" cx="234.01" cy="179.69" rx="11.93" ry="15.78" transform="translate(-58.49 141.08) rotate(-30)"/><path class="cls-1" d="M251.3,307.42c3.81,6.58,9.91,7.3,14.92,4.41s3.48-12.26,3.48-12.26l-19.57-9.3S247.5,300.83,251.3,307.42Z"/><ellipse class="cls-1" cx="270.39" cy="171.33" rx="9.22" ry="13.8" transform="translate(-41.55 99.49) rotate(-19.39)"/><path class="cls-1" d="M205.12,151.68a21.2,21.2,0,0,1,.77-2.71,25.61,25.61,0,0,1,1.08-2.55,21.56,21.56,0,0,1,3.25-4.75,18,18,0,0,1,4.86-3.79,20.39,20.39,0,0,1,6-2.12l.06,0a5.24,5.24,0,1,1,2.2,10.25,5.37,5.37,0,0,1-1.69.08,11.39,11.39,0,0,0-3.4,0,9.71,9.71,0,0,0-3.44,1.15,14.43,14.43,0,0,0-3.25,2.43,20,20,0,0,0-1.43,1.61,18.78,18.78,0,0,0-1.2,1.72l-.18.28a2,2,0,0,1-3.67-1.54Z"/><path class="cls-1" d="M247.84,312.84a36.94,36.94,0,0,0,4.53,2.83,16.58,16.58,0,0,0,4.46,1.55,6.88,6.88,0,0,0,1.12.17,6,6,0,0,0,1.13.11c.38,0,.76.06,1.15.09s.79,0,1.2,0l.62,0c.2,0,.41,0,.63,0,.42,0,.86,0,1.31,0a17.19,17.19,0,0,1,2.91.1l.28,0a1.62,1.62,0,0,1,1.38,1.84,1.66,1.66,0,0,1-.43.89,12.1,12.1,0,0,1-2.65,2.13,15.9,15.9,0,0,1-1.56.73c-.26.12-.53.22-.8.32s-.57.15-.86.21c-.57.14-1.16.23-1.74.33s-1.21,0-1.81,0a8,8,0,0,1-1.81-.2,8.94,8.94,0,0,1-1.77-.42,14,14,0,0,1-6.08-3.67c-.4-.42-.77-.87-1.13-1.31a14.63,14.63,0,0,1-.95-1.42,10.72,10.72,0,0,1-.75-1.52,9.79,9.79,0,0,1-.54-1.66,1.27,1.27,0,0,1,2-1.35Z"/><path class="cls-1" d="M255.9,140.24a17.74,17.74,0,0,0-1.78-1.13,16.41,16.41,0,0,0-1.94-.93,14.15,14.15,0,0,0-3.92-1,9.88,9.88,0,0,0-3.63.26,11.26,11.26,0,0,0-3.12,1.35,5.24,5.24,0,0,1-5.1-9.16,5.31,5.31,0,0,1,1.57-.57h.08a20.29,20.29,0,0,1,6.4-.37,17.74,17.74,0,0,1,5.94,1.64,20.68,20.68,0,0,1,4.83,3.13,25.93,25.93,0,0,1,2,1.94,21.72,21.72,0,0,1,1.76,2.2,2,2,0,0,1-2.8,2.83Z"/><path class="cls-1" d="M287.65,294.23a1.13,1.13,0,0,1,.66.89,1.11,1.11,0,0,1-.13.69,1.15,1.15,0,0,1-.13.21l-.09.12-.18.21-.22.25-.38.4c-.24.25-.48.48-.72.71-.49.43-1,.84-1.51,1.22a26,26,0,0,1-3.22,2,30.82,30.82,0,0,1-7.13,2.76,29.56,29.56,0,0,1-15.82-.24,25.54,25.54,0,0,1-7.51-3.66,24.31,24.31,0,0,1-5.83-5.84A24.64,24.64,0,0,1,241,279.37a1.05,1.05,0,0,1,1.07-1,1,1,0,0,1,.77.38h0c3.08,3.74,5.85,7.07,9,9.49a27,27,0,0,0,9.91,5.05,49.73,49.73,0,0,0,11.72,1.46c2.09.05,4.25,0,6.47-.05,1.11,0,2.23-.08,3.37-.13l1.71-.1.84,0,.38,0h.14s0,0,0,.08a.25.25,0,0,0-.05.07l-.1.17a1,1,0,0,0-.11.64,1.12,1.12,0,0,0,.62.85,1.11,1.11,0,0,1-.53-1.47A1.1,1.1,0,0,1,287.65,294.23Z"/><path class="cls-13" d="M254.38,307.26c2.17,3.25,6.22,5.09,8.16,3.06,2.51-2.62-3.28-11.35-8.54-11.19C251.19,299.22,252.2,304,254.38,307.26Z"/><polygon class="cls-14" points="341.86 309.21 365.42 590.98 511.94 512.97 553.3 247.88 341.86 309.21"/><path class="cls-1" d="M208.73,320c-.47.32-1.11.79-1.65,1.21s-1.12.9-1.66,1.38a36.08,36.08,0,0,0-3.07,3,23.91,23.91,0,0,0-4.48,6.72c-2.12,4.73-1.07,9.29,2.24,13.28a30.5,30.5,0,0,0,2.72,2.88c1.1.85,2.07,1.79,3.29,2.57l1.73,1.22,1.86,1.11c.63.37,1.22.77,1.87,1.1l1.95,1a127.44,127.44,0,0,0,16.55,6.83l.07,0a5.5,5.5,0,0,1-3.58,10.41l-.31-.12a136.07,136.07,0,0,1-17.54-8.51l-2.12-1.27c-.71-.42-1.39-.94-2.09-1.4L202.44,360l-2-1.58c-1.36-1-2.6-2.29-3.87-3.44a37.7,37.7,0,0,1-3.47-4.13,22.49,22.49,0,0,1-4.29-10.54,17.33,17.33,0,0,1-.11-3,26,26,0,0,1,.35-2.93,22.46,22.46,0,0,1,1.88-5.35,31.06,31.06,0,0,1,6.34-8.44,46,46,0,0,1,3.83-3.32c.67-.51,1.35-1,2-1.49s1.36-.91,2.21-1.41a3.27,3.27,0,0,1,3.49,5.52Z"/><path class="cls-1" d="M229.17,374a37.27,37.27,0,0,0-11.75,4.44,15.62,15.62,0,0,0-4.18,3.49,5.84,5.84,0,0,0-1,1.74,3.08,3.08,0,0,0-.1,1.39,5.06,5.06,0,1,1-10,1.56,5,5,0,0,1,0-1.09l0-.7a13.12,13.12,0,0,1,1.54-5.26,15.21,15.21,0,0,1,3-3.87,24.17,24.17,0,0,1,7.09-4.4,40.52,40.52,0,0,1,7.27-2.24,44.6,44.6,0,0,1,7.41-1,3,3,0,0,1,.71,5.9Z"/><path class="cls-1" d="M227.56,367.25c.72-.53,1.28-.9,1.93-1.3s1.26-.78,1.91-1.13a37.42,37.42,0,0,1,4-1.92,28.38,28.38,0,0,1,9.15-2.13,20.24,20.24,0,0,1,10.12,2.08,22.78,22.78,0,0,1,7.9,6.78l0,0a5.52,5.52,0,1,1-8.77,6.69,6.4,6.4,0,0,1-.42-.64,12.42,12.42,0,0,0-3.62-4.27,10.78,10.78,0,0,0-5.31-1.91,20.39,20.39,0,0,0-6.66.62,28.94,28.94,0,0,0-3.43,1.08c-.57.21-1.13.45-1.68.7s-1.14.53-1.54.74l-.23.12a3.27,3.27,0,0,1-3.42-5.55Z"/><path class="cls-1" d="M229.15,369.51c.41.91.66,1.6.95,2.4s.51,1.56.73,2.35a33.82,33.82,0,0,1,.95,4.87,26.14,26.14,0,0,1-.7,10.38,22.51,22.51,0,0,1-2.16,5.1,24.23,24.23,0,0,1-3.4,4.46,29.67,29.67,0,0,1-8.92,6l-.1,0A5.52,5.52,0,1,1,212,395.08c.21-.09.45-.18.67-.25a19.51,19.51,0,0,0,6.15-3,14.52,14.52,0,0,0,2.29-2.28,13.34,13.34,0,0,0,1.67-2.84,17.9,17.9,0,0,0,1.37-7.07,26.81,26.81,0,0,0-.26-3.88c-.09-.65-.2-1.3-.34-1.94s-.31-1.34-.44-1.8l-.08-.25a3.27,3.27,0,0,1,6.13-2.24Z"/><path class="cls-1" d="M228.25,368c.59,0,1,0,1.45,0s.91,0,1.36,0c.89,0,1.78.14,2.68.26a26.54,26.54,0,0,1,5.37,1.34,20.11,20.11,0,0,1,5.19,2.78,17.45,17.45,0,0,1,4.25,4.59,19.26,19.26,0,0,1,2.4,5.78,26,26,0,0,1,.61,5.88,40.87,40.87,0,0,1-1.71,10.8,5.51,5.51,0,0,1-10.62-2.95,4.1,4.1,0,0,1,.2-.59v0a30.87,30.87,0,0,0,2.25-7.77,16.94,16.94,0,0,0,.09-3.61,9.48,9.48,0,0,0-5.67-7.83,19.72,19.72,0,0,0-3.73-1.41c-.67-.17-1.34-.32-2-.44q-.51-.09-1-.15l-.92-.1-.33,0a3.27,3.27,0,0,1,.17-6.51Z"/><path class="cls-1" d="M406.63,239.81a7.61,7.61,0,0,1-.78-3.75,7.07,7.07,0,0,1,1.57-3.91,8.4,8.4,0,0,1,2.94-2.27,10.27,10.27,0,0,1,3.2-.94,11.5,11.5,0,0,1,6.37,1,12.28,12.28,0,0,1,4.87,4.26,15.9,15.9,0,0,1,2.28,5.51,24.45,24.45,0,0,1,.51,5.37,42,42,0,0,1-1.47,9.71v0a5.51,5.51,0,1,1-10.68-2.74,5.21,5.21,0,0,1,.23-.7,31.75,31.75,0,0,0,2.05-7,10.62,10.62,0,0,0-.4-5.64,3.84,3.84,0,0,0-1.22-1.56,3.46,3.46,0,0,0-1.89-.67,3.34,3.34,0,0,0-1.44.25c-.07,0-.07-.06-.13-.08s-.07.14,0,.41l.11,1a3.2,3.2,0,0,1-6.09,1.69Z"/><path class="cls-1" d="M420.29,238.28a7.86,7.86,0,0,1-.84-3.4,7.09,7.09,0,0,1,1-3.79,8.33,8.33,0,0,1,2.62-2.63,9.75,9.75,0,0,1,3.21-1.25,9.84,9.84,0,0,1,6.62,1.07,11.2,11.2,0,0,1,4.49,4.68,16.29,16.29,0,0,1,1.68,5.38,25.85,25.85,0,0,1,.25,2.58c0,.83,0,1.66,0,2.47a47.06,47.06,0,0,1-1.5,9.18h0a5.51,5.51,0,1,1-10.45-3.43,37.17,37.17,0,0,0,2.12-6.78c.1-.55.16-1.08.24-1.62s.1-1.05.08-1.51a8,8,0,0,0-.33-2.52,3,3,0,0,0-.81-1.4,1.94,1.94,0,0,0-1.25-.54,2.57,2.57,0,0,0-.65.08l-.36.12c-.07,0-.09,0-.15.07s0,.29,0,.57l.12,1a3.19,3.19,0,0,1-6.09,1.66Z"/><path class="cls-1" d="M425.71,232.34a7.84,7.84,0,0,1,.08-7.06,10.85,10.85,0,0,1,4.37-4.5,12.65,12.65,0,0,1,5.78-1.71,12,12,0,0,1,3.24.29,11.34,11.34,0,0,1,3.18,1.34,12,12,0,0,1,4.39,5,17.53,17.53,0,0,1,1.6,5.51,34.18,34.18,0,0,1-.28,9.91v0a5.51,5.51,0,0,1-10.91-1.61,6.43,6.43,0,0,1,.17-.76A24.5,24.5,0,0,0,438.5,232a8.59,8.59,0,0,0-.29-2.6,3.42,3.42,0,0,0-.77-1.46,2.24,2.24,0,0,0-1.48-.68,4.67,4.67,0,0,0-2.27.29,4.11,4.11,0,0,0-1.68,1.11,1.57,1.57,0,0,0-.29.45c-.09.13,0,.29,0,.54l0,1.3a3.14,3.14,0,0,1-6,1.36Z"/><path class="cls-1" d="M279.58,349.51a30.42,30.42,0,0,1,3.14,3.2,39.58,39.58,0,0,1,2.67,3.48A39.69,39.69,0,0,1,292.15,382a48.56,48.56,0,0,1-1.63,9c-.43,1.46-.86,2.94-1.42,4.35s-1.12,2.82-1.74,4.21A79.94,79.94,0,0,1,278,414.87l-.05.06a7.61,7.61,0,1,1-12.12-9.2,8,8,0,0,1,.87-1,66.7,66.7,0,0,0,9.79-11.19c.68-1,1.37-2,2-3.1s1.16-2.13,1.71-3.21a38.2,38.2,0,0,0,2.47-6.78A32,32,0,0,0,283,366a33.79,33.79,0,0,0-2.34-7.15,34.2,34.2,0,0,0-1.78-3.39,28.28,28.28,0,0,0-2.11-3.06l-.11-.14a2,2,0,0,1,2.91-2.79Z"/><path class="cls-1" d="M267.34,416.44l52-4.61a2.23,2.23,0,0,0,1.76-3.28c-4.86-8.86-21-35.91-54.5.41C265.25,410.46,265.32,416.61,267.34,416.44Z"/><polygon class="cls-3" points="341.86 309.21 284.99 334.09 310.94 549.06 365.42 590.98 341.86 309.21"/><path class="cls-15" d="M378.35,328.07a3.77,3.77,0,0,1,.69-2A9.15,9.15,0,0,1,381,324a17.91,17.91,0,0,1,3-1.93,26,26,0,0,1,4.12-1.62,16.78,16.78,0,0,1,5.6-.77,16.4,16.4,0,0,1,5,.95,15.06,15.06,0,0,1,4.05,2.17,10.87,10.87,0,0,1,2.73,2.89q2,3.23,2,8.73,0,4.59-4.15,10.22a53.52,53.52,0,0,1-12.15,11.33,19.51,19.51,0,0,1-5.25,2.73,10.3,10.3,0,0,1-4.17.7,3.63,3.63,0,0,1-2.08-1.42,4,4,0,0,1-.85-2.44,4.7,4.7,0,0,1,.57-1.86,6.52,6.52,0,0,1,1.22-1.85,3.93,3.93,0,0,0,.86-1.19,8.15,8.15,0,0,0,.18-2.2c0,.15,0-1-.11-3.39s-.1-4.89-.1-7.43c0-.81,0-2.16.08-4s.09-3.21.09-4a1.63,1.63,0,0,0-.15-.91c-.1-.1-.31-.1-.64,0a3.55,3.55,0,0,0-.67.38,3.94,3.94,0,0,1-.85.43C378.69,329.65,378.35,329.19,378.35,328.07Zm7.4-.06c-.23.07-.44.31-.62.72a5.26,5.26,0,0,0-.35,1.43c0,.57,0,1.52-.09,2.84s-.05,2.81-.05,4.46c0,4.17.1,7.52.29,10a16,16,0,0,0,.68,4.46.73.73,0,0,0,.94.35,10.5,10.5,0,0,0,2.49-1.14,18.34,18.34,0,0,0,2.11-1.5q.89-.75,2.67-2.31,2-1.77,3.66-3.44c1.09-1.11,1.92-2,2.47-2.62a12.76,12.76,0,0,0,.92-1.14,12.59,12.59,0,0,0,.9-2.46,12,12,0,0,0,.44-3.06,4.1,4.1,0,0,0-.2-1.56,3.85,3.85,0,0,0-.81-.95,6.26,6.26,0,0,1-1.09-1.42c-.86-1.46-3.32-2.38-7.37-2.74a27,27,0,0,0-4.3-.15C387.19,327.87,386.29,327.94,385.75,328Z"/><path class="cls-15" d="M410.19,344.35v-6.41c0-2.53,0-4.71.12-6.52s.16-3,.22-3.56a5.27,5.27,0,0,0-.25-1.36c-.17-.56-.28-1-.34-1.2a4,4,0,0,1-.1-1,7.46,7.46,0,0,1,1-3,20.14,20.14,0,0,1,2.77-4,23.8,23.8,0,0,1,4.58-4,22.55,22.55,0,0,1,6.25-3,16.68,16.68,0,0,1,5.34-.89,5.78,5.78,0,0,1,3.93,1.94,5.32,5.32,0,0,1,1.55,3.79,17.22,17.22,0,0,1-1.11,5.92,24.34,24.34,0,0,1-3.05,5.79,21.81,21.81,0,0,1-4.24,4.58c-1,.79-1.71,1.39-2.12,1.79a2.16,2.16,0,0,0-.62,1.6,1.51,1.51,0,0,0,.55,1.31,10.83,10.83,0,0,0,3.86,2.21,5.76,5.76,0,0,0,3.32.12,3.45,3.45,0,0,0,1.89-1.48c.24-.36.45-.69.64-1a7.54,7.54,0,0,1,.6-.82,1.34,1.34,0,0,1,.64-.47c.44-.14.8.05,1.06.57a5.76,5.76,0,0,1,.38,2.38,5.93,5.93,0,0,1-.91,3.09,9.44,9.44,0,0,1-2.43,2.66,10.89,10.89,0,0,1-3.31,1.68,7.62,7.62,0,0,1-3.47.15,10.71,10.71,0,0,1-3.85-1.44,11.14,11.14,0,0,1-3.17-2.87l-1-1.49a1.93,1.93,0,0,0-.9-.79,2.32,2.32,0,0,0-1.39.1,1.58,1.58,0,0,0-1,.77,3.2,3.2,0,0,0-.24,1.33c0,.21,0,.4,0,.58s0,.39,0,.66a17.6,17.6,0,0,1-.83,5.71c-.55,1.6-1.27,2.53-2.14,2.8a1,1,0,0,1-.68-.17,2.18,2.18,0,0,1-.69-.54Q410.19,348.79,410.19,344.35Zm11.18-27.7a11.49,11.49,0,0,0-1.68.71c-.64.32-1.06.52-1.25.6a5.47,5.47,0,0,0-1.94,1.16,4.74,4.74,0,0,0-1.18,1.94,13.5,13.5,0,0,0-.61,3.17c-.11,1.29-.17,2.94-.17,4.95a8.54,8.54,0,0,0,.23,1.83,4.08,4.08,0,0,0,.42,1.25c.29.4,1.06.4,2.31,0a22.36,22.36,0,0,0,6.36-3.1,21.66,21.66,0,0,0,6.67-7.41,4.59,4.59,0,0,0,.5-2,4.4,4.4,0,0,0-.87-2.95,3.05,3.05,0,0,0-1.66-.78,10.9,10.9,0,0,0-3.09-.16A18.22,18.22,0,0,0,421.37,316.65Z"/><path class="cls-15" d="M440,327.42q0-6.12.31-11.32t.52-7.3a4.44,4.44,0,0,1,.85-1.95,2.66,2.66,0,0,1,1.1-1c.57-.18.95.13,1.14.91a32.58,32.58,0,0,1,.28,5.62c0,.83,0,2.39-.07,4.69s-.07,4.13-.07,5.5c0,.7,0,1.41,0,2.14s.07,2,.13,3.89.09,3.18.09,3.93,0,1.59,0,2.09,0,1.08,0,1.72c0,.21,0,.4,0,.56s0,.39,0,.68a4.82,4.82,0,0,1-.71,2.39,3.51,3.51,0,0,1-1.47,1.55c-.63.19-1,.22-1.17.08a1.94,1.94,0,0,1-.43-.95,3.74,3.74,0,0,1-.35-1.24,24.64,24.64,0,0,1-.22-4.1c0-.39,0-.88.07-1.47s.07-1.08.07-1.45v-1c0-.24,0-.57,0-1s0-.9,0-1.43S440,327.92,440,327.42Z"/><path class="cls-15" d="M469,295c.51-.15.76.22.76,1.13a23.77,23.77,0,0,1-.59,4q-.6,2.86-2,9.19-.86,3.76-1.84,7.36c-.66,2.4-1.27,4.49-1.85,6.29s-1.11,3.42-1.64,4.87l-1.37,3.8c-.33.93-.65,1.76-1,2.48a8.88,8.88,0,0,1-.91,1.7,1.78,1.78,0,0,1-.89.75,1,1,0,0,1-1.1-.37,6.08,6.08,0,0,1-1-1.65c-.32-.72-.79-1.92-1.4-3.59s-1.15-3-1.61-4.12l-2.06-5.05c-.74-1.82-1.34-3.21-1.8-4.15a7.3,7.3,0,0,0-1.17-1.91,4.58,4.58,0,0,1-1-3.27,4.48,4.48,0,0,1,.93-2.43,3.8,3.8,0,0,1,1.59-1.56c.36-.11.82.15,1.39.77a11.88,11.88,0,0,1,1.72,2.57c.25.51.68,1.45,1.29,2.84s1.4,3.38,2.37,6l1.19,3.24a14.32,14.32,0,0,0,1,2.21c.29.5.57.7.84.62a1,1,0,0,0,.49-.56,16.82,16.82,0,0,0,.57-1.59c.24-.75.46-1.53.69-2.33l1-3.74c.58-2,1.08-4,1.52-6s.92-4.16,1.46-6.64,1-4.36,1.33-5.63a14.1,14.1,0,0,1,1.22-3.13,8.72,8.72,0,0,1,1-1.47A2.45,2.45,0,0,1,469,295Z"/><path class="cls-15" d="M494.25,286c1.33-.41,2,.4,2,2.43a5.69,5.69,0,0,1-.25,1.91,9.79,9.79,0,0,1-.92,1.76c-1,1.53-1.78,2.4-2.45,2.6a4.27,4.27,0,0,1-1.21.21,9.24,9.24,0,0,1-1.18,0,5.51,5.51,0,0,0-.72,0c-.24.07-1,.39-2.17,1a4.73,4.73,0,0,0-.52.18l-1.11.43c-.47.18-1.06.43-1.76.74s-1.39.64-2,1a22.67,22.67,0,0,0-3.15,1.79,2.55,2.55,0,0,0-1,1.42,14.09,14.09,0,0,0-.2,2.87,32.12,32.12,0,0,0,.17,3.91c.11.81.31,1.17.59,1.08a9.79,9.79,0,0,1,1.18-.78c.86-.54,1.78-1.06,2.76-1.55a80.78,80.78,0,0,1,7.79-3.75,3,3,0,0,1,2.47.13,2.08,2.08,0,0,1,1,1.95,6.91,6.91,0,0,1-.46,2.65,4.64,4.64,0,0,1-1.4,1.83,6.74,6.74,0,0,1-2.19,1.16q-3.8,1.31-6.07,2.28a28.64,28.64,0,0,0-3.69,1.84,5.27,5.27,0,0,0-1.77,1.5,4,4,0,0,0-.39,1.16c-.09.49-.17,1.06-.23,1.71s-.1,1.07-.14,1.28a5.79,5.79,0,0,0-.19,1.07,1.32,1.32,0,0,0,.33.88q.35.39.66.3l1.21-.78c.78-.51,1.75-1.07,2.9-1.67s2.68-1.56,4.37-2.69,2.86-1.89,3.51-2.3a8.26,8.26,0,0,1,2.07-.95,1.59,1.59,0,0,1,1.51.27,2.36,2.36,0,0,1,.69,2,7.66,7.66,0,0,1-.32,2,6.54,6.54,0,0,1-.75,1.74,2.93,2.93,0,0,1-1.05.75c-.48.22-1.1.53-1.87.9a17.79,17.79,0,0,0-2.47,1.53c-.7.5-1.56,1.06-2.6,1.68l-3.22,1.9c-1.11.65-2.36,1.43-3.74,2.36q-.51.33-1.59,1.11c-.73.52-1.11.79-1.16.8a10.34,10.34,0,0,1-3.43.09,1.7,1.7,0,0,1-1.2-.46,2.11,2.11,0,0,1-.39-1.46,5.51,5.51,0,0,1,.84-2.75,10.75,10.75,0,0,1,2.17-2.63,6.57,6.57,0,0,0,.62-.7,1.14,1.14,0,0,0,.21-.5c0-.17,0-.54.07-1.11,0-.2,0-.44.08-.72a6.11,6.11,0,0,0,.06-.86,9.31,9.31,0,0,0-.2-2.4,1,1,0,0,0-.74-.71,2.68,2.68,0,0,1-1.07-.45c-.18-.16-.27-.6-.27-1.31a6.27,6.27,0,0,1,.53-1.86,10.34,10.34,0,0,1,1.31-2.39,7.56,7.56,0,0,0,.66-1.1,2.85,2.85,0,0,0,.17-1.12c0-1.86,0-3.14,0-3.86a4.74,4.74,0,0,0-.27-1.54,1.13,1.13,0,0,0-.76-.63,1.5,1.5,0,0,1-.54-.28.83.83,0,0,1-.18-.63,5.42,5.42,0,0,1,.74-2.18,11.61,11.61,0,0,1,1.29-2.12,19,19,0,0,1,3.17-2.38q2.76-1.84,6.84-4.07,1.59-.9,3.18-1.86c1.06-.64,2-1.22,2.82-1.73s1.49-.93,2-1.24A5.49,5.49,0,0,1,494.25,286Z"/><path class="cls-15" d="M499.74,317v-6.41c0-2.53,0-4.71.13-6.52s.15-3,.21-3.56a4.88,4.88,0,0,0-.25-1.36c-.16-.56-.28-1-.34-1.2a4,4,0,0,1-.1-1,7.46,7.46,0,0,1,1-3,19.5,19.5,0,0,1,2.78-4,23.42,23.42,0,0,1,4.57-4,22.68,22.68,0,0,1,6.25-3,16.68,16.68,0,0,1,5.34-.89,5.78,5.78,0,0,1,3.93,1.94,5.28,5.28,0,0,1,1.56,3.79,17.34,17.34,0,0,1-1.12,5.93,24.69,24.69,0,0,1-3,5.79,22,22,0,0,1-4.25,4.57,27,27,0,0,0-2.12,1.8,2.12,2.12,0,0,0-.62,1.59,1.51,1.51,0,0,0,.55,1.31,10.72,10.72,0,0,0,3.87,2.21,5.76,5.76,0,0,0,3.32.12,3.47,3.47,0,0,0,1.89-1.48l.63-1a7.54,7.54,0,0,1,.6-.82,1.39,1.39,0,0,1,.64-.47c.45-.14.8.06,1.06.58a5.52,5.52,0,0,1,.39,2.37,6,6,0,0,1-.92,3.1,9.24,9.24,0,0,1-2.43,2.65,10.89,10.89,0,0,1-3.31,1.68,7.62,7.62,0,0,1-3.47.15,10.74,10.74,0,0,1-3.84-1.44,10.91,10.91,0,0,1-3.18-2.87c-.4-.57-.74-1.07-1-1.48a2,2,0,0,0-.91-.8,2.26,2.26,0,0,0-1.39.11,1.49,1.49,0,0,0-1,.76,3.05,3.05,0,0,0-.25,1.34c0,.21,0,.4,0,.57s0,.39,0,.66a17.33,17.33,0,0,1-.83,5.71c-.55,1.6-1.26,2.53-2.13,2.8a1,1,0,0,1-.68-.17,2.23,2.23,0,0,1-.7-.54Q499.75,321.4,499.74,317Zm11.18-27.7a11.49,11.49,0,0,0-1.68.71c-.64.32-1.06.52-1.25.6a5.62,5.62,0,0,0-1.94,1.16,4.74,4.74,0,0,0-1.18,1.94,13.55,13.55,0,0,0-.6,3.17q-.18,1.93-.18,4.95a7.94,7.94,0,0,0,.24,1.83,4.17,4.17,0,0,0,.41,1.25c.3.4,1.07.4,2.32,0a22.17,22.17,0,0,0,6.35-3.1,21.29,21.29,0,0,0,4.79-4.54,20.18,20.18,0,0,0,1.88-2.87,4.59,4.59,0,0,0,.5-2,4.46,4.46,0,0,0-.86-2.95,3.09,3.09,0,0,0-1.67-.78,10.85,10.85,0,0,0-3.08-.16A18.19,18.19,0,0,0,510.92,289.27Z"/><polygon class="cls-16" points="450.45 136.91 491.57 125.31 491.57 135.95 450.45 148.22 450.45 136.91"/><polygon class="cls-16" points="490.08 172.18 492 125.31 486.98 126.73 486.98 173.93 490.08 172.18"/><polygon class="cls-16" points="452.87 182.82 455.47 135.56 450.45 136.98 450.45 184.18 452.87 182.82"/><ellipse class="cls-16" cx="483.25" cy="169.06" rx="7.27" ry="11.97"/><ellipse class="cls-16" cx="446.42" cy="179.24" rx="7.27" ry="11.97"/><polygon class="cls-16" points="401.25 91.55 420.22 81.19 422.19 91.65 403.34 102.66 401.25 91.55"/><polygon class="cls-16" points="412.13 136.22 405.93 89.3 401.26 91.62 410 138.01 412.13 136.22"/><ellipse class="cls-16" cx="404.72" cy="135.91" rx="7.27" ry="11.97" transform="translate(-12.55 45.6) rotate(-6.35)"/></svg>