<svg id="Layer_1" data-name="Layer 1" xmlns="http://www.w3.org/2000/svg" viewBox="0 0 700 700"><defs><style>.cls-1{fill:#f7c860;}.cls-2{fill:#363637;}.cls-3{fill:#4f5356;}.cls-4{fill:#6d7278;}.cls-5{fill:#fff;}</style></defs><title>Encoder FLAT</title><path d="M174.73,340.47s8.32-72.34,28-147.44"/><path d="M171.19,340.06c1.09-12.58,2.47-25,4-37.52s3.26-24.93,5.17-37.37c.92-6.22,2-12.43,3-18.65s2.12-12.41,3.31-18.6c2.25-12.41,4.87-24.76,7.58-37.11a8.76,8.76,0,1,1,17.12,3.75c0,.19-.09.38-.14.56l0,.12c-3.49,11.9-6.9,23.85-10,35.9-1.6,6-3,12.07-4.54,18.11s-2.88,12.12-4.22,18.2q-4.11,18.24-7.67,36.61c-2.38,12.24-4.61,24.55-6.53,36.82v.05a3.56,3.56,0,0,1-7.07-.87Z"/><polygon class="cls-1" points="112.6 136.86 284.98 109.28 284.98 189.08 120.99 202 112.6 136.86"/><path d="M147.37,141.59c.94-.07,1.48.93,1.62,3a7.18,7.18,0,0,1,0,1.87,8.28,8.28,0,0,1-.54,1.55c-.59,1.3-1.12,2-1.6,2a2.33,2.33,0,0,1-.86-.1,6.19,6.19,0,0,1-.85-.32,4,4,0,0,0-.53-.22,11,11,0,0,0-1.51.41l-.36,0-.77.14c-.33.07-.74.16-1.23.3a14.53,14.53,0,0,0-1.41.45,9.18,9.18,0,0,0-2.15,1,1.64,1.64,0,0,0-.62,1.18,18.4,18.4,0,0,0,.06,2.87c.13,1.83.26,3.16.4,4s.31,1.27.5,1.25a5.85,5.85,0,0,1,.81-.48,12,12,0,0,1,1.88-.86,30.21,30.21,0,0,1,5.39-1.77,2.12,2.12,0,0,1,1.8.77,3.59,3.59,0,0,1,.86,2.24,8.09,8.09,0,0,1-.14,2.57,2.87,2.87,0,0,1-.88,1.5,2.78,2.78,0,0,1-1.51.6,40.81,40.81,0,0,0-4.25.73,11.8,11.8,0,0,0-2.54.91,2.31,2.31,0,0,0-1.18,1.06,3.84,3.84,0,0,0-.2,1.08c0,.47,0,1,0,1.67s0,1.07,0,1.26a5.68,5.68,0,0,0-.06,1,2.27,2.27,0,0,0,.3,1c.18.32.35.48.5.47l.82-.47a12.92,12.92,0,0,1,2-.94,24.49,24.49,0,0,0,3-1.59c1.14-.7,1.94-1.18,2.38-1.43a3.25,3.25,0,0,1,1.43-.42,1.32,1.32,0,0,1,1.12.67,4.1,4.1,0,0,1,.64,2.16,8.46,8.46,0,0,1-.09,2,5.17,5.17,0,0,1-.42,1.57,1.14,1.14,0,0,1-.7.49c-.34.11-.77.25-1.29.44a6.66,6.66,0,0,0-1.69.9,15.28,15.28,0,0,1-1.76,1c-.71.35-1.45.72-2.21,1.08a28.34,28.34,0,0,0-2.54,1.43c-.23.13-.59.37-1.08.71a7,7,0,0,1-.78.51,6,6,0,0,1-2.48-.8,1.89,1.89,0,0,1-.91-.78,3.68,3.68,0,0,1-.38-1.58,5.57,5.57,0,0,1,.41-2.58,6.18,6.18,0,0,1,1.38-2.11,2.88,2.88,0,0,0,.4-.55,1.07,1.07,0,0,0,.12-.45c0-.17,0-.53,0-1.11,0-.19,0-.43,0-.71a8.1,8.1,0,0,0,0-.85,15.78,15.78,0,0,0-.32-2.5,1.46,1.46,0,0,0-.59-.9,3.37,3.37,0,0,1-.81-.75,3.28,3.28,0,0,1-.29-1.4,7.07,7.07,0,0,1,.25-1.75,8.53,8.53,0,0,1,.78-2.08,5.05,5.05,0,0,0,.4-.95,3.39,3.39,0,0,0,0-1.09c-.14-1.89-.24-3.2-.32-3.93a8.39,8.39,0,0,0-.3-1.64,1.72,1.72,0,0,0-.6-.83,2.3,2.3,0,0,1-.41-.43,1.36,1.36,0,0,1-.18-.68,5.68,5.68,0,0,1,.38-2,8.31,8.31,0,0,1,.79-1.82,8.43,8.43,0,0,1,2.13-1.58,35.9,35.9,0,0,1,4.67-2.36c.73-.33,1.45-.68,2.18-1.06s1.36-.71,1.92-1,1-.55,1.37-.73A2.25,2.25,0,0,1,147.37,141.59Z"/><path d="M165.21,141.6c.44,0,.81.47,1.12,1.49a28.31,28.31,0,0,1,.79,4.62l.27,2.07c.13,1.07.3,2.7.51,4.91s.42,4.88.64,8c.25,3.63.42,6.62.49,9s.12,4,.13,4.94a7.71,7.71,0,0,1-.56,3.15,1.79,1.79,0,0,1-1.54,1.11c-.7,0-1.73-.51-3.06-1.68a26.14,26.14,0,0,1-4-4.5,24.91,24.91,0,0,1-2.95-5.16c-.28-.69-.51-1.22-.7-1.58s-.36-.54-.5-.53-.09.23-.11.68,0,1.13,0,2.05.07,2,.13,3.25.12,2.73.19,4.48a13,13,0,0,1-.19,3.38c-.19.77-.56,1.18-1.1,1.21-.25,0-.45-.15-.6-.5a8,8,0,0,1-.38-1.85c-.1-.88-.22-2.23-.34-4-.2-2.76-.34-5.16-.41-7.17S153,165.24,153,164s0-2.11,0-2.53a13.26,13.26,0,0,0-.54-2.65,14,14,0,0,1-.53-2.48,4.27,4.27,0,0,1,.45-1.81,2.9,2.9,0,0,1,.89-1.37,1.88,1.88,0,0,1,.87-.21c.17,0,.36.29.57.88.37,1,.83,2.09,1.37,3.25s1.23,2.55,2.08,4.15,1.62,3,2.34,4.27q2.09,3.61,3.62,5.86a8.87,8.87,0,0,0,1.73,2.23.67.67,0,0,0,.6-.32,2.78,2.78,0,0,0,.09-1.3c0-.06-.14-1.13-.4-3.23s-.5-4.09-.69-6-.36-3.45-.52-5-.32-3.11-.49-4.81-.32-3.51-.45-5.46q-.12-1.71-.12-2.7a5.51,5.51,0,0,1,.26-1.75,4.27,4.27,0,0,1,.57-1Q165,141.61,165.21,141.6Z"/><path d="M170.87,168.79c-.1-1.41-.15-2.54-.14-3.39a35.71,35.71,0,0,1,1.14-8.3,44,44,0,0,1,2.92-8.2,25.11,25.11,0,0,1,4-6.21c1.44-1.59,2.83-2.42,4.17-2.52a2.1,2.1,0,0,1,2,1,7,7,0,0,1,.91,3.38,8.58,8.58,0,0,1-.29,3.43q-.45,1.28-1.17,1.32a6.53,6.53,0,0,1-1.07-.25,5.57,5.57,0,0,0-1.75-.2,6,6,0,0,0-3.69,1.61,11.41,11.41,0,0,0-2.68,3.91,21.52,21.52,0,0,0-1.52,5.34,26.62,26.62,0,0,0-.23,5.85A7.51,7.51,0,0,0,175,170a4.06,4.06,0,0,0,3.58,1.45,6.39,6.39,0,0,0,3.48-1.2,9.57,9.57,0,0,0,2.59-3.47,14.46,14.46,0,0,0,1.5-4.22,4.13,4.13,0,0,1,.36-1.27c.16-.3.28-.46.35-.47a1.11,1.11,0,0,1,.93.56,3.46,3.46,0,0,1,.53,1.8c0,.23,0,.74-.07,1.51s-.15,1.53-.28,2.27a20.63,20.63,0,0,1-1.24,4.07,17.61,17.61,0,0,1-2.2,4.08,10.59,10.59,0,0,1-1.81,1.79,11.44,11.44,0,0,1-2.29,1.36,7.46,7.46,0,0,1-2.44.63,4.92,4.92,0,0,1-4.1-1.28,9.76,9.76,0,0,1-2-3.55A20,20,0,0,1,170.87,168.79Z"/><path d="M190.49,167.88a32.2,32.2,0,0,1,.33-7.35,39.34,39.34,0,0,1,2.06-7.53,20.09,20.09,0,0,1,3.39-6.25,6.6,6.6,0,0,1,4.67-2.34,3.24,3.24,0,0,1,1.93.45,6.75,6.75,0,0,1,1.87,1.88,14.13,14.13,0,0,1,1.51,2.52,18.78,18.78,0,0,1,1.12,3.05,30.9,30.9,0,0,1,.75,3.5c.18,1.23.33,2.54.43,4a26.48,26.48,0,0,1-.05,3.74,23.09,23.09,0,0,1-.63,4,9,9,0,0,1-1.23,3s-.16.54-.45,1.55a14.81,14.81,0,0,1-1.24,3,7.85,7.85,0,0,1-6.66,4.07,4.69,4.69,0,0,1-2.5-.49,6.5,6.5,0,0,1-2.16-1.93,16.18,16.18,0,0,1-1.88-3.37,17.66,17.66,0,0,1-.87-2.61A18.6,18.6,0,0,1,190.49,167.88Zm9.06-15.62a5.05,5.05,0,0,0-2.89,1.16,7.37,7.37,0,0,0-2,2.65,11,11,0,0,0-1,3.07,11.56,11.56,0,0,0-.13,1.85,6.62,6.62,0,0,0-.23,1.17,12.91,12.91,0,0,0,0,2.61,8.89,8.89,0,0,0,1.05,3.32,10.39,10.39,0,0,0,2.37,3.12,4,4,0,0,0,2.92,1.15,4.67,4.67,0,0,0,2.52-1.24,8.84,8.84,0,0,0,2-2.27,14.6,14.6,0,0,0,1.12-7.65,17.08,17.08,0,0,0-.93-4.56,8.46,8.46,0,0,0-2-3.29A3.54,3.54,0,0,0,199.55,152.26Z"/><path d="M209,144a3.83,3.83,0,0,1,.36-1.88,4.6,4.6,0,0,1,1.27-1.61,6.72,6.72,0,0,1,2.06-1.17,10.28,10.28,0,0,1,2.88-.57,8.78,8.78,0,0,1,4,.67,14.63,14.63,0,0,1,3.71,2.27,20.29,20.29,0,0,1,3.09,3.26,18.29,18.29,0,0,1,2.19,3.65,28.37,28.37,0,0,1,2.06,9.39,16.34,16.34,0,0,1-2.28,9.29,25.3,25.3,0,0,1-8,8.34,7.75,7.75,0,0,1-3.62,1.41,5.28,5.28,0,0,1-3-.38,5.21,5.21,0,0,1-1.62-2,7.22,7.22,0,0,1-.79-2.7,5.16,5.16,0,0,1,.28-1.73,4.68,4.68,0,0,1,.75-1.57,2.4,2.4,0,0,0,.55-1,11.41,11.41,0,0,0,0-2.19c0,.16-.1-1-.32-3.47s-.43-5-.61-7.57c-.06-.82-.14-2.18-.23-4.08s-.17-3.24-.22-4a2.78,2.78,0,0,0-.17-1,.46.46,0,0,0-.47-.17,1.37,1.37,0,0,0-.46.21,1.56,1.56,0,0,1-.59.21C209.34,145.71,209.06,145.15,209,144Zm5.37,1.87c-.17,0-.3.2-.4.57a5.81,5.81,0,0,0-.15,1.36c0,.57.07,1.52.14,2.86s.16,2.84.28,4.51c.3,4.24.61,7.67.93,10.27a27.3,27.3,0,0,0,.81,4.71c.18.42.42.62.71.6a4.32,4.32,0,0,0,1.73-.51,7.84,7.84,0,0,0,1.42-1l1.78-1.65a32.83,32.83,0,0,0,2.4-2.54c.72-.84,1.25-1.52,1.61-2a6.62,6.62,0,0,0,.58-.92,10.27,10.27,0,0,0,.48-2.27,14.29,14.29,0,0,0,.1-3,6.12,6.12,0,0,0-.26-1.64,5.84,5.84,0,0,0-.65-1.18,11.07,11.07,0,0,1-.9-1.73q-1.08-2.55-5.54-4.7a18.53,18.53,0,0,0-3.13-1.27C215.38,146.12,214.74,146,214.35,145.89Z"/><path d="M247.25,134.53q1.4-.09,1.62,3a5.47,5.47,0,0,1-.59,3.41q-.89,2-1.59,2a2.33,2.33,0,0,1-.86-.1,8,8,0,0,1-.86-.32,4.14,4.14,0,0,0-.52-.22,11.91,11.91,0,0,0-1.51.4l-.37.06-.77.14c-.33.07-.74.16-1.23.3a14.33,14.33,0,0,0-1.4.45,8.91,8.91,0,0,0-2.16,1,1.65,1.65,0,0,0-.62,1.18,18.4,18.4,0,0,0,.06,2.87c.13,1.82.26,3.16.4,4s.31,1.27.51,1.25a4.77,4.77,0,0,1,.8-.48,12.51,12.51,0,0,1,1.89-.86,29.94,29.94,0,0,1,5.39-1.77,2.14,2.14,0,0,1,1.8.77,3.65,3.65,0,0,1,.86,2.24,8.72,8.72,0,0,1-.14,2.57,2.81,2.81,0,0,1-.89,1.49,2.69,2.69,0,0,1-1.5.61,40.34,40.34,0,0,0-4.25.73,11.39,11.39,0,0,0-2.55.91,2.33,2.33,0,0,0-1.17,1.06,3.51,3.51,0,0,0-.2,1.08c0,.47-.05,1,0,1.67s0,1.06,0,1.26a8.52,8.52,0,0,0-.06,1,2.43,2.43,0,0,0,.31,1c.18.32.34.48.49.47l.83-.48a15.54,15.54,0,0,1,2-.94,23,23,0,0,0,3-1.58c1.14-.71,1.93-1.18,2.37-1.43a3.4,3.4,0,0,1,1.44-.43,1.35,1.35,0,0,1,1.12.68,4.1,4.1,0,0,1,.64,2.16,9.69,9.69,0,0,1-.09,2,5.83,5.83,0,0,1-.42,1.57,1.16,1.16,0,0,1-.71.49l-1.29.43a7.25,7.25,0,0,0-1.69.91,12.7,12.7,0,0,1-1.76,1l-2.2,1.09a28.34,28.34,0,0,0-2.54,1.43,12.34,12.34,0,0,0-1.08.71,5.67,5.67,0,0,1-.79.51,6,6,0,0,1-2.48-.8,1.91,1.91,0,0,1-.9-.78,3.68,3.68,0,0,1-.39-1.59,5.82,5.82,0,0,1,.41-2.57A6.23,6.23,0,0,1,234.9,168a3,3,0,0,0,.41-.55.94.94,0,0,0,.11-.45q0-.25,0-1.11c0-.19,0-.43,0-.71a8.42,8.42,0,0,0,0-.86,13.66,13.66,0,0,0-.32-2.49,1.48,1.48,0,0,0-.58-.91,3,3,0,0,1-.81-.74,3.28,3.28,0,0,1-.29-1.4,6.61,6.61,0,0,1,.25-1.75,7.78,7.78,0,0,1,.78-2.08,5.84,5.84,0,0,0,.4-.95,3.47,3.47,0,0,0,0-1.09c-.13-1.89-.24-3.2-.31-3.93a7.57,7.57,0,0,0-.31-1.64,1.65,1.65,0,0,0-.59-.83,2,2,0,0,1-.41-.43,1.37,1.37,0,0,1-.18-.69,5.42,5.42,0,0,1,.38-2,8.94,8.94,0,0,1,.78-1.82,8.18,8.18,0,0,1,2.13-1.58,36.09,36.09,0,0,1,4.68-2.36c.72-.33,1.45-.68,2.17-1.06s1.36-.72,1.92-1,1-.55,1.37-.73A2.64,2.64,0,0,1,247.25,134.53Z"/><path d="M253.45,167.43l-.46-6.51c-.18-2.57-.31-4.77-.37-6.59s-.11-3-.11-3.56a8.06,8.06,0,0,0-.27-1.45c-.16-.61-.28-1-.34-1.3a8.57,8.57,0,0,1-.15-1.07,7.82,7.82,0,0,1,.5-2.76,12.71,12.71,0,0,1,1.72-3.38,10.66,10.66,0,0,1,3-2.86,9.09,9.09,0,0,1,4.33-1.39,8.3,8.3,0,0,1,3.81.49,7.05,7.05,0,0,1,3,3,9.55,9.55,0,0,1,1.4,4.25,21,21,0,0,1-.39,5.72,19.25,19.25,0,0,1-1.79,5.09,11.41,11.41,0,0,1-2.76,3.54,12,12,0,0,0-1.41,1.27,1.93,1.93,0,0,0-.33,1.46,2.6,2.6,0,0,0,.49,1.47,14.47,14.47,0,0,0,3,3.26,3.87,3.87,0,0,0,2.42,1,1.54,1.54,0,0,0,1.27-1l.39-.84a4.82,4.82,0,0,1,.37-.68.63.63,0,0,1,.43-.31c.32,0,.59.27.81.86a9.24,9.24,0,0,1,.46,2.52,6.27,6.27,0,0,1-.45,2.9,4.86,4.86,0,0,1-1.57,2.07,4.29,4.29,0,0,1-2.28.84,4.54,4.54,0,0,1-2.51-.76,11.52,11.52,0,0,1-2.89-2.46,17.74,17.74,0,0,1-2.52-3.74l-.85-1.78a3.05,3.05,0,0,0-.71-1,1.36,1.36,0,0,0-1-.26.7.7,0,0,0-.69.51,3.57,3.57,0,0,0-.08,1.29c0,.22,0,.41.06.59s0,.4,0,.68a22.18,22.18,0,0,1-.19,5.58q-.43,2.22-1.35,2.28c-.11,0-.28-.11-.51-.35a3.58,3.58,0,0,1-.55-.73A19.51,19.51,0,0,1,253.45,167.43Zm6.13-25.21a4.37,4.37,0,0,0-1.17.27c-.44.16-.73.26-.86.29a2.29,2.29,0,0,0-1.33.67,3.34,3.34,0,0,0-.71,1.66,15,15,0,0,0-.22,3.07c0,1.28.08,2.94.23,5a13.81,13.81,0,0,0,.3,1.92,9,9,0,0,0,.39,1.38c.25.48.8.68,1.68.62a8.87,8.87,0,0,0,4.4-1.49,10.22,10.22,0,0,0,3.15-3.36,14,14,0,0,0,1.15-2.42,5.1,5.1,0,0,0,.23-1.91,7.9,7.9,0,0,0-.84-3.23,3.84,3.84,0,0,0-1.27-1.23,7.78,7.78,0,0,0-2.25-1A8.47,8.47,0,0,0,259.58,142.22Z"/><path class="cls-2" d="M236.21,326.63l-1.11.27-1,.22c-.65.14-1.31.26-2,.37-1.3.21-2.61.37-3.93.49a49,49,0,0,1-8,0A37,37,0,0,1,204,323a33.75,33.75,0,0,1-12.11-13.08,50.14,50.14,0,0,1-5.05-16.13l0-.16a8.52,8.52,0,1,1,16.86-2.49,9.47,9.47,0,0,1,.09,1.06,34.73,34.73,0,0,0,1.95,11.2,19.22,19.22,0,0,0,5.89,8.37,24.06,24.06,0,0,0,10.2,4.53,36.85,36.85,0,0,0,6.11.73c1,0,2.09,0,3.13,0l1.55-.1,1.39-.13.57-.06a5,5,0,0,1,1.71,9.91Z"/><ellipse class="cls-2" cx="186.45" cy="264.81" rx="34.48" ry="23.45" transform="translate(-83.06 444.39) rotate(-88.53)"/><ellipse class="cls-2" cx="208.78" cy="269.27" rx="18.04" ry="12.27" transform="translate(-131.74 281.02) rotate(-54.19)"/><path class="cls-3" d="M517.36,239c-4.76-2.34-10.4.54-15.39,3.64a102.66,102.66,0,0,0-20.15-24.7c2.26-10.25,3.94-22.66.32-27.3-19.44-25-71.54-25-71.54-25l-8.36,28c-42.95,4.85-86.57,33.84-113.38,80.28-28.87,50-30.47,106.75-8.49,147.21-3.76,5.64-10.85,17.31-10.16,24.22,2.05,20.42,40.33,39.61,40.33,39.61l16.79-19.65a103,103,0,0,0,51.52,8.4l20.58,21.67s35.21-11.14,42.15-20.81c2.54-3.54,3.32-15.73,3.5-26A167.79,167.79,0,0,0,477.19,419c6.8,4.72,14.61,9,17.89,6.41,29.86-23.29,28.33-42.87,28.33-42.87L508.51,365a164.31,164.31,0,0,0,10.31-58.59l15.09-9.21S540.61,250.38,517.36,239ZM423.18,340.34c-16.57,28.7-44,43.9-61.22,34s-17.79-41.29-1.22-70,44-43.9,61.22-33.95S439.75,311.64,423.18,340.34Z"/><path class="cls-4" d="M517.36,239c-3.89-3.76-13.9-3.68-22.85-2.85a103.18,103.18,0,0,0-27-33.15c1.76-9.29,2.67-19.31-.37-23.48-10.1-13.86-67.08-14.18-67.08-14.18l-9.13,16.94a133.83,133.83,0,0,0-48.75,16.35c-6.5-5.59-14.29-11.3-19.07-11.35C309,187.14,277,219.49,277,219.49l14.18,24a183.28,183.28,0,0,0-24.26,43.22c-7-1.53-15.62-2.67-19.16-.17-12.06,8.52-15.6,56.92-15.6,56.92l23.55,16.75c1.82,20.52,8,39.66,18.17,55.76-3.32,8.78-7.16,20.95-5.4,26.36,3.74,11.5,37.42,30.67,37.42,30.67l15-17.59a103.55,103.55,0,0,0,47.15,6.82l21.13,22.89s35.8-11.31,42.74-21c3.55-5,4.08-20.85,4.13-27.94a167.61,167.61,0,0,0,29-26.52c6.62,4.37,15.07,9.07,19.44,8,12.4-3.08,29.33-41.87,29.33-41.87L498.79,352a164.14,164.14,0,0,0,9.78-57.32l12.28-7.49S526.06,247.37,517.36,239ZM421.18,340.87c-16.85,29.18-47.31,43.13-68,31.17s-23.87-45.32-7-74.5,47.3-43.13,68-31.17S438,311.69,421.18,340.87Z"/><path class="cls-5" d="M390.05,229s3.95,31.29-27.71,31.29c-27.72,0-27.72-31.29-27.72-31.29Z"/><path class="cls-2" d="M390.05,229s1.07,15.64-9.66,15.64c-13.22,0-13.45-15.64-13.45-15.64Z"/><path class="cls-5" d="M458.09,229s4,31.29-27.71,31.29c-27.72,0-27.72-31.29-27.72-31.29Z"/><path class="cls-2" d="M458.22,229s1.07,15.64-9.66,15.64c-13.22,0-13.45-15.64-13.45-15.64Z"/><path class="cls-2" d="M372.13,471.05l-.13.22-.16.28-.32.58-.58,1.26c-.37.84-.68,1.75-1,2.62l-.78,2.73-.56,2.8a26.38,26.38,0,0,0-.38,2.83c-.08.95-.26,1.88-.26,2.85l-.06,2.87,0,1.43L368,493a80.85,80.85,0,0,0,4.5,22.61l.89,2.75,1.09,2.71,2.18,5.4c.8,1.77,1.7,3.52,2.53,5.27l1.28,2.63c.43.87.82,1.75,1.33,2.59l2.9,5.11,1.45,2.54a29.17,29.17,0,0,0,1.5,2.51l6.4,9.86.21.33a7.59,7.59,0,1,1-12.74,8.27,6.29,6.29,0,0,1-.43-.75l-5.57-11.2c-.48-.92-.88-1.89-1.29-2.85L373,547.85l-2.44-5.76c-.44-.94-.75-2-1.11-2.94l-1-3c-.69-2-1.42-3.94-2.05-5.93l-1.68-6.08-.83-3-.62-3.11a89.06,89.06,0,0,1-2.06-25.2l.08-1.58.22-1.59.43-3.16c.12-1.05.44-2.09.65-3.13s.43-2.09.79-3.1l1-3.06,1.24-3c.49-1,1-1.94,1.5-2.89l.87-1.4.5-.69.25-.35.31-.4a2,2,0,0,1,3.31,2.3Z"/><path class="cls-2" d="M329.64,466l-.37.29-.44.34-.86.8c-.57.55-1.09,1.17-1.62,1.76l-1.45,1.93-1.26,2.08a36.64,36.64,0,0,0-3.53,9.09l-.57,2.39-.14.6-.08.61-.16,1.23a40.36,40.36,0,0,0-.51,4.93c0,1.66-.15,3.3-.15,5l.28,5a44.52,44.52,0,0,0,.55,5c.25,1.67.43,3.32.73,5l1.08,5c.38,1.64.64,3.29,1.18,4.91l1.42,4.89c.51,1.62.88,3.25,1.51,4.85l3.47,9.6.14.38a7.6,7.6,0,1,1-14.3,5.17,8.1,8.1,0,0,1-.28-1L311.93,535c-.44-1.77-.62-3.62-.93-5.43l-.84-5.43c-.33-1.8-.39-3.67-.57-5.5l-.45-5.5c-.09-1.85-.06-3.72-.08-5.56a49.19,49.19,0,0,1,.12-5.56l.43-5.57c.24-1.85.6-3.7.9-5.54a48.44,48.44,0,0,1,1.31-5.48l.37-1.36.18-.67.26-.67,1-2.65a42.73,42.73,0,0,1,5.47-9.95L320.9,468l2-2.06c.74-.63,1.44-1.27,2.23-1.85l1.21-.85.65-.39.34-.2.41-.21a2,2,0,0,1,2.16,3.37Z"/><path class="cls-2" d="M394.36,567.59l-68.07,23a3.05,3.05,0,0,1-4-3.15c1.22-13.85,10.05-52.74,72.33-25.52A3.06,3.06,0,0,1,394.36,567.59Z"/><path class="cls-2" d="M327.35,552,260.71,560a4.18,4.18,0,0,1-4.46-5.49c4.84-14.2,21.88-45.12,73-10A4.18,4.18,0,0,1,327.35,552Z"/><path class="cls-2" d="M420.62,364.36a13.88,13.88,0,0,1,2.19.22,13.69,13.69,0,0,1,2.08.5,19.9,19.9,0,0,1,2,.73c.64.32,1.31.63,1.94,1a18.53,18.53,0,0,1,6.44,6.2,13.37,13.37,0,0,1,1.1,2,11,11,0,0,1,.86,2.11c.23.72.41,1.46.61,2.18s.18,1.49.23,2.23c0,.37.06.74.08,1.1s0,.73-.08,1.1c-.07.73-.15,1.45-.26,2.16a18.49,18.49,0,0,1-1.4,4.05,1.57,1.57,0,0,1-2.92-.18l-.08-.24a29.87,29.87,0,0,1-.82-3.69c-.16-.58-.29-1.16-.4-1.72-.07-.29-.11-.57-.16-.85s-.17-.54-.24-.81c-.17-.53-.29-1.07-.42-1.6s-.38-1-.53-1.53a10.14,10.14,0,0,0-.59-1.48,9.08,9.08,0,0,0-.69-1.44,20.26,20.26,0,0,0-4-5.22,35.91,35.91,0,0,0-5.6-4.4l-.14-.09a1.27,1.27,0,0,1-.37-1.75A1.31,1.31,0,0,1,420.62,364.36Z"/><path class="cls-2" d="M342.56,212.81c3-.4,6-.73,9-1s6-.55,9-.76,6-.39,9.05-.51,6.06-.18,9.12-.2a5.19,5.19,0,0,1,.07,10.38,6.4,6.4,0,0,1-.88-.07h-.07c-2.86-.49-5.74-1-8.65-1.35s-5.82-.75-8.76-1-5.87-.58-8.81-.81-5.91-.41-8.84-.55h0a2,2,0,0,1-.17-4Z"/><path class="cls-2" d="M417.11,213.25c3-.39,6-.73,9-1s6-.55,9-.77,6-.39,9-.51,6.07-.18,9.13-.2a5.19,5.19,0,1,1-.81,10.31h-.07c-2.86-.49-5.74-1-8.65-1.34s-5.83-.75-8.76-1.06-5.87-.58-8.81-.8-5.91-.42-8.84-.55h0a2,2,0,0,1-.17-4Z"/><path class="cls-2" d="M341.86,399.34c1.93.7,4,1.23,6.07,1.75s4.12,1,6.19,1.36c4.13.79,8.25,1.42,12.34,1.83a84.28,84.28,0,0,0,24.06-.83,56.9,56.9,0,0,0,21.7-9c1.71-1.06,3.23-2.4,4.87-3.62,1.49-1.39,3.15-2.65,4.57-4.17.74-.74,1.52-1.45,2.24-2.22s1.41-1.56,2.15-2.33,1.42-1.6,2.11-2.43,1.41-1.65,2.15-2.46l.07-.07a1,1,0,0,1,1.39-.05,1,1,0,0,1,.26,1.05,56.28,56.28,0,0,1-2.42,6.27c-.47,1-1,2-1.49,3.06s-1.15,2-1.73,2.94a27.41,27.41,0,0,1-1.9,2.87c-.67.93-1.37,1.85-2.08,2.77a55.86,55.86,0,0,1-4.8,5.07,51.74,51.74,0,0,1-25,12.77,62.46,62.46,0,0,1-27.7-.67,67.58,67.58,0,0,1-12.87-4.55c-1-.47-2-1-3-1.54s-2-1.1-2.93-1.73a30.72,30.72,0,0,1-5.48-4.22,1.11,1.11,0,0,1,0-1.58,1.1,1.1,0,0,1,1.16-.26Z"/><path class="cls-2" d="M561.77,380.75l-1.08.35-1.16.4c-.77.28-1.53.59-2.26.92a22.18,22.18,0,0,0-3.94,2.21,6.14,6.14,0,0,0-2.12,2.32c-.12.3,0,.49.07.54s.27,0,.38,0a7.5,7.5,0,0,1-15-.34,14.57,14.57,0,0,1,1.56-5.34,14.38,14.38,0,0,1,3.09-4,19.65,19.65,0,0,1,6.85-3.95,33.72,33.72,0,0,1,6.39-1.52c1-.15,2.07-.25,3.1-.33l1.54-.08,1.64,0a4.46,4.46,0,0,1,1.48,8.7Z"/><path class="cls-2" d="M511.72,319c.69-.19,1.13-.3,1.67-.42s1-.22,1.52-.31c1-.19,2-.33,3-.44a47.27,47.27,0,0,1,6.07-.29,45.28,45.28,0,0,1,12.15,1.91,42.46,42.46,0,0,1,20.41,14,55.12,55.12,0,0,1,6.65,10.25c1,1.78,1.7,3.63,2.53,5.46s1.4,3.71,2,5.58a121,121,0,0,1,4.81,22.73,7.51,7.51,0,0,1-14.9,1.82c0-.17,0-.34-.05-.5v0a105.93,105.93,0,0,0-2.8-20.21c-.44-1.61-.89-3.21-1.39-4.79s-1.05-3.13-1.74-4.59a43.26,43.26,0,0,0-4.62-8.38,31.18,31.18,0,0,0-14.33-11.43,34.9,34.9,0,0,0-9.25-2.12,37.17,37.17,0,0,0-4.84-.11c-.8,0-1.61.09-2.4.18q-.6.06-1.17.15l-1,.17-.42.07a4.45,4.45,0,0,1-2-8.67Z"/><path class="cls-2" d="M561.57,373.86l.69-.83.62-.71c.43-.46.85-.92,1.3-1.35a31.49,31.49,0,0,1,2.86-2.51,24.48,24.48,0,0,1,7.25-3.91,18.49,18.49,0,0,1,9.52-.55,21.26,21.26,0,0,1,8.69,4.17l.55.42a7.61,7.61,0,0,1-9.31,12.05,8.39,8.39,0,0,1-1.45-1.47,8.1,8.1,0,0,0-2.21-2.21,5.34,5.34,0,0,0-3.09-.76,12.57,12.57,0,0,0-4.41,1.12,21.33,21.33,0,0,0-2.33,1.19c-.39.23-.76.47-1.13.71l-.54.38c-.16.1-.38.28-.44.3l-2,.66a4.23,4.23,0,0,1-4.61-6.7Z"/><path class="cls-2" d="M566.11,375.48l.73.94.62.86c.4.58.77,1.16,1.13,1.76a29.28,29.28,0,0,1,1.9,3.8,22.79,22.79,0,0,1,1.78,9,20.89,20.89,0,0,1-.69,5,22.65,22.65,0,0,1-2,4.74,27.08,27.08,0,0,1-6.32,7.32l-.4.32a7.58,7.58,0,1,1-8.1-12.68,13.91,13.91,0,0,0,3.61-2.45,8.83,8.83,0,0,0,1.17-1.49,7.44,7.44,0,0,0,.78-1.84,11.07,11.07,0,0,0,.15-4.81,18.06,18.06,0,0,0-.65-2.71c-.15-.46-.31-.91-.49-1.35l-.27-.64a5.31,5.31,0,0,1-.22-.52l0-2.67a4.06,4.06,0,0,1,4-4.13A4.11,4.11,0,0,1,566.11,375.48Z"/><path class="cls-2" d="M563.13,373.75c.56-.18.84-.26,1.25-.37l1.13-.27c.76-.17,1.52-.29,2.29-.4a22,22,0,0,1,4.82-.09,18,18,0,0,1,5.18,1.23,16,16,0,0,1,4.91,3.13,18.17,18.17,0,0,1,3.54,4.63,24.08,24.08,0,0,1,1.9,5,36.61,36.61,0,0,1,1,9.42v.2a7.56,7.56,0,0,1-15.11,0,8.13,8.13,0,0,1,.17-1.58,23.24,23.24,0,0,0,.64-5.6,12.76,12.76,0,0,0-.24-2.2,6.83,6.83,0,0,0-.61-1.62,5.29,5.29,0,0,0-3.13-2.29,12.61,12.61,0,0,0-2.68-.52,14.45,14.45,0,0,0-1.47-.06H566a5.11,5.11,0,0,1-.59,0l-2.68-1.15a4,4,0,0,1-2.1-5.24A4,4,0,0,1,563.13,373.75Z"/><path d="M475.42,277.07l-20.78,4.1c.1.26,9.62,25.12-.67,52.13l-5.71-3.77-2.14,35.53L478,349.15l-6.13-4C488,308.56,476,278.53,475.42,277.07Z"/><path d="M287.27,351.84l21.08-2c-.08-.28-6.93-26,6.13-51.78l5.28,4.35,5.85-35.11-33.33,12.48,5.67,4.67C278.07,319.1,286.84,350.32,287.27,351.84Z"/></svg>