<svg id="Layer_1" data-name="Layer 1" xmlns="http://www.w3.org/2000/svg" viewBox="0 0 700 700"><defs><style>.cls-1{fill:#363637;}.cls-2{fill:#118f98;}.cls-3{fill:#4f5356;}.cls-4{fill:#6d7278;}.cls-5{fill:#fff;}.cls-6{fill:#fc6769;}.cls-7{fill:#f7c860;}</style></defs><title>Evaluator  FLAT</title><path class="cls-1" d="M618,282.53A96.9,96.9,0,0,0,612,292.91c-.89,1.8-1.78,3.6-2.57,5.45l-1.22,2.75-1.13,2.79a180.71,180.71,0,0,0-7.35,22.91c-.47,2-.87,3.92-1.31,5.88-.21,1-.44,1.95-.64,2.93l-.51,3-1,5.92-.74,6-.37,3c-.1,1-.16,2-.24,3l-.45,6c-.1,1-.13,2-.14,3l-.08,3-.15,6v.14a3,3,0,1,1-6-.15.37.37,0,0,0,0-.11l.38-6.16.19-3.07c0-1,.13-2.05.26-3.07l.69-6.13c.12-1,.21-2,.35-3.06l.49-3,1-6.08,1.26-6,.63-3c.24-1,.51-2,.76-3,.52-2,1-4,1.56-5.95a183.78,183.78,0,0,1,8.37-23.12,122.69,122.69,0,0,1,12-21.53,1.22,1.22,0,0,1,2,1.39Z"/><path class="cls-1" d="M500.46,312.63A96.9,96.9,0,0,0,494.52,323c-.89,1.81-1.78,3.6-2.57,5.45l-1.22,2.75L489.6,334a178.11,178.11,0,0,0-7.35,22.91c-.47,1.95-.87,3.91-1.31,5.87-.22,1-.45,1.95-.64,2.94l-.51,3-1,5.93-.75,6-.37,3c-.1,1-.15,2-.23,3l-.45,6c-.1,1-.13,2-.15,3l-.07,3-.15,6v.15a3,3,0,0,1-6-.16.34.34,0,0,1,0-.1l.38-6.16.19-3.08c.05-1,.12-2.05.26-3.07l.68-6.13c.12-1,.22-2,.36-3.06l.49-3.05,1-6.08,1.25-6,.64-3c.23-1,.51-2,.76-3,.52-2,1-4,1.56-5.95a182.22,182.22,0,0,1,8.37-23.12,122,122,0,0,1,12-21.53,1.22,1.22,0,0,1,2,1.39Z"/><path class="cls-2" d="M511.44,187.61c1.08.89,2,1.67,2.9,2.52s1.82,1.7,2.7,2.56,1.76,1.73,2.6,2.62,1.74,1.76,2.54,2.69c1.63,1.83,3.3,3.65,4.83,5.56l2.34,2.85,2.23,2.92a190,190,0,0,1,15.9,24.83c1.18,2.17,2.22,4.4,3.33,6.6l1.65,3.32,1.47,3.39,2.94,6.81,2.58,7,1.28,3.49c.42,1.16.74,2.35,1.12,3.53l2.18,7.11.54,1.78.44,1.8.89,3.61,1.77,7.23a8.77,8.77,0,1,1-17,4.17,5,5,0,0,1-.15-.75l-.08-.49-1-6.79-.51-3.41-.25-1.71-.35-1.68-1.42-6.74c-.25-1.13-.45-2.26-.74-3.38l-.89-3.32-1.8-6.67-2.16-6.57-1.08-3.28-1.25-3.23c-.85-2.14-1.63-4.32-2.54-6.44a178.47,178.47,0,0,0-12.79-24.62l-1.84-3-2-2.87c-1.28-1.94-2.69-3.77-4.07-5.64-.67-.95-1.42-1.82-2.14-2.73s-1.44-1.81-2.2-2.67-1.5-1.76-2.28-2.59-1.58-1.7-2.28-2.4l-.15-.14a3.56,3.56,0,0,1,4.77-5.27Z"/><path class="cls-2" d="M493.52,312.17c1.2-.83,2.3-1.58,3.46-2.33s2.3-1.48,3.47-2.19c2.31-1.45,4.67-2.79,7-4.16s4.75-2.64,7.16-3.9,4.83-2.51,7.29-3.67,4.91-2.35,7.4-3.45l7.51-3.24,7.63-3,1.91-.75,1.93-.66,3.88-1.34,3.88-1.34c1.3-.42,2.62-.79,3.93-1.19,2.63-.77,5.25-1.58,7.9-2.31,5.33-1.29,10.64-2.78,16.07-3.72a239.32,239.32,0,0,1,32.93-4.24,8.77,8.77,0,0,1,1.28,17.49c-.23,0-.45,0-.68,0h-.38a222.49,222.49,0,0,0-30.81,1.45c-5.15.46-10.24,1.47-15.38,2.26-2.55.49-5.08,1.06-7.63,1.59-1.27.27-2.55.51-3.82.82l-3.78,1-3.79,1-1.9.48-1.87.56-7.52,2.25-7.43,2.51c-2.47.86-4.91,1.83-7.37,2.74s-4.85,2-7.29,2.95-4.8,2.11-7.19,3.19-4.74,2.24-7.06,3.45c-1.17.58-2.32,1.19-3.47,1.81s-2.3,1.27-3.34,1.88l-.13.07a3.56,3.56,0,0,1-3.81-6Z"/><path class="cls-1" d="M429.15,305c.83-1.12,1.56-2.06,2.36-3s1.59-1.91,2.4-2.84,1.63-1.85,2.48-2.75,1.66-1.82,2.54-2.67c1.74-1.73,3.46-3.5,5.28-5.14l2.71-2.5,2.8-2.39a189.23,189.23,0,0,1,23.91-17.25c2.09-1.3,4.26-2.46,6.4-3.69l3.22-1.83,3.31-1.66,6.63-3.32,6.8-3,3.41-1.48c1.14-.48,2.31-.87,3.46-1.31l7-2.58,1.74-.64,1.78-.54,3.55-1.09L528,243.2A8.78,8.78,0,1,1,533.15,260a6.87,6.87,0,0,1-.75.19l-.48.1-6.73,1.41-3.37.7-1.69.35-1.66.44L511.82,265c-1.11.31-2.23.57-3.33.92L505.22,267l-6.56,2.16-6.43,2.52L489,272.92l-3.14,1.43c-2.09,1-4.23,1.87-6.29,2.9a179.89,179.89,0,0,0-23.88,14.13l-2.84,2-2.75,2.12c-1.87,1.38-3.62,2.89-5.41,4.37-.91.72-1.74,1.53-2.61,2.29s-1.72,1.54-2.54,2.35-1.67,1.59-2.46,2.41-1.6,1.68-2.26,2.42l-.14.15a3.56,3.56,0,0,1-5.53-4.47Z"/><path class="cls-3" d="M155.85,327.4l15.31,9.34a167,167,0,0,0,10.46,59.46l-15.11,17.86s-1.56,19.87,28.74,43.5c3.33,2.6,11.25-1.71,18.16-6.5a170.55,170.55,0,0,0,32.58,30c.19,10.4,1,22.77,3.55,26.36,7,9.82,42.77,21.12,42.77,21.12l20.88-22A104.66,104.66,0,0,0,365.48,498l17,19.93s52.69-33.73,54.77-54.45c.71-7-20.34-4.59-24.15-10.31,22.3-41.06,20.68-98.65-8.62-149.39-27.2-47.12-71.46-76.53-115-81.46l-8.85-34.47s-52.5,6.07-72.23,31.4c-3.67,4.72-2,17.3.33,27.71-8.09,7.21-9.4,6.27-14.93,15.67-5.06-3.15-16.31,3.33-21.14,5.7C149.05,279.92,155.85,327.4,155.85,327.4Z"/><path class="cls-4" d="M184.88,308.37l12.28,7.5a164.32,164.32,0,0,0,9.78,57.31L191.88,397s16.92,38.79,29.32,41.87c4.38,1.09,12.82-3.61,19.44-8a167.61,167.61,0,0,0,29,26.52c.06,7.09.59,23,4.14,27.94,6.94,9.67,42.73,21,42.73,21l21.13-22.89a103.44,103.44,0,0,0,47.16-6.82l15,17.59S433.54,475,437.28,463.5c1.76-5.41-2.08-17.58-5.39-26.36,10.2-16.1,16.34-35.24,18.16-55.75l23.56-16.76s-3.55-48.4-15.6-56.91c-3.55-2.51-12.15-1.37-19.16.17a182.27,182.27,0,0,0-24.27-43.22l14.19-24s-32.07-32.35-46.14-32.23c-4.77,0-12.57,5.75-19.06,11.34a133.81,133.81,0,0,0-48.76-16.35l-9.12-16.94s-57,.33-67.08,14.18c-3,4.17-2.14,14.19-.38,23.49a102.87,102.87,0,0,0-27,33.14c-9-.83-19-.9-22.86,2.85C179.67,268.52,184.88,308.37,184.88,308.37Z"/><ellipse class="cls-5" cx="312.83" cy="251.74" rx="26.38" ry="32.89" transform="translate(-83.96 190.14) rotate(-30)"/><ellipse class="cls-1" cx="328.22" cy="258.24" rx="12.42" ry="19.95" transform="translate(-68.88 128.91) rotate(-20.16)"/><ellipse class="cls-1" cx="539.62" cy="235.72" rx="25" ry="36.76" transform="translate(-37.55 118.99) rotate(-12.16)"/><ellipse class="cls-1" cx="513.61" cy="233.32" rx="12.27" ry="18.04" transform="translate(-37.63 113.46) rotate(-12.16)"/><ellipse class="cls-1" cx="78.15" cy="307.19" rx="12.27" ry="18.04" transform="translate(-238.4 323.67) rotate(-78.71)"/><path class="cls-1" d="M332,495.28l.32.39.25.35.5.7.86,1.4c.55.94,1,1.91,1.51,2.88l1.24,3,1,3a28.16,28.16,0,0,1,.79,3.1,31.06,31.06,0,0,1,.65,3.13l.44,3.16.21,1.59.09,1.59a89.09,89.09,0,0,1-2.06,25.2l-.62,3.1-.83,3L334.6,557c-.64,2-1.37,4-2.05,5.93l-1,3c-.36,1-.68,2-1.11,2.94L328,574.61l-1.22,2.89c-.41,1-.81,1.93-1.3,2.85l-5.56,11.19a7.6,7.6,0,0,1-13.61-6.76c.13-.26.28-.51.43-.75l.22-.33,6.4-9.86c.55-.81,1-1.67,1.5-2.51l1.45-2.55,2.9-5.1c.51-.84.9-1.73,1.33-2.6l1.27-2.62c.84-1.76,1.74-3.5,2.54-5.27l2.17-5.4,1.1-2.71.88-2.76a81.08,81.08,0,0,0,4.51-22.6l.1-1.44,0-1.43L333,514c0-1-.18-1.89-.25-2.84a26.57,26.57,0,0,0-.39-2.84l-.55-2.8-.79-2.73c-.32-.87-.63-1.77-1-2.62l-.59-1.25-.32-.58-.15-.29-.13-.22-.14-.23a2,2,0,0,1,3.3-2.29Z"/><path class="cls-1" d="M373.16,489.14l.41.22.33.19.66.4,1.21.84c.78.58,1.49,1.23,2.23,1.86l2,2.05,1.8,2.23a42.86,42.86,0,0,1,5.47,9.94l1,2.66.25.66.19.68.37,1.36a47.77,47.77,0,0,1,1.31,5.47c.3,1.84.66,3.7.9,5.55l.43,5.56a51.76,51.76,0,0,1,.12,5.56c0,1.85,0,3.72-.08,5.56l-.45,5.51c-.18,1.83-.25,3.7-.58,5.49l-.83,5.44c-.31,1.8-.5,3.66-.94,5.42l-2.34,10.72a7.61,7.61,0,1,1-14.86-3.26,8.7,8.7,0,0,1,.26-.91l.16-.42,3.47-9.6c.63-1.6,1-3.23,1.5-4.86l1.43-4.88c.54-1.63.79-3.27,1.18-4.92l1.08-4.95c.3-1.65.48-3.31.72-5a42.56,42.56,0,0,0,.56-5l.28-5c0-1.66-.11-3.3-.15-5a40.41,40.41,0,0,0-.51-4.92l-.17-1.23-.08-.62-.14-.59L380.8,509a36.86,36.86,0,0,0-3.52-9.09L376,497.86l-1.45-1.94c-.54-.58-1.06-1.21-1.62-1.75l-.87-.8-.43-.35-.38-.29-.28-.22a2,2,0,0,1-.34-2.82A2,2,0,0,1,373.16,489.14Z"/><path class="cls-1" d="M306.55,594.35l68.07,23a3.05,3.05,0,0,0,4-3.16c-1.21-13.84-10.05-52.74-72.32-25.51A3.06,3.06,0,0,0,306.55,594.35Z"/><path class="cls-1" d="M373.56,578.79l66.65,7.92a4.19,4.19,0,0,0,4.46-5.5c-4.85-14.19-21.88-45.11-73-10A4.19,4.19,0,0,0,373.56,578.79Z"/><path class="cls-1" d="M240.84,229.57a26.07,26.07,0,0,1,1.09-3.4A30.53,30.53,0,0,1,243.4,223a26.76,26.76,0,0,1,4.26-5.87,26.43,26.43,0,0,1,2.83-2.53c.52-.38,1.07-.72,1.61-1.08.28-.17.55-.36.83-.52l.88-.44a25.25,25.25,0,0,1,7.51-2.44,5.21,5.21,0,1,1,2,10.23,4.9,4.9,0,0,1-1.2.09h-.21a16.29,16.29,0,0,0-4.87.28l-.62.12c-.2.05-.39.13-.59.2-.39.14-.81.25-1.2.41a17.73,17.73,0,0,0-2.33,1.2,19.62,19.62,0,0,0-4.25,3.55,26.78,26.78,0,0,0-1.83,2.25,25.46,25.46,0,0,0-1.51,2.41l-.11.21a2,2,0,0,1-3.74-1.47Z"/><path class="cls-1" d="M290.11,359a13.36,13.36,0,0,0-1.05.94,12.93,12.93,0,0,0-1,1.1,9.82,9.82,0,0,0-1.43,2.41,7,7,0,0,0-.58,2.48,8.24,8.24,0,0,0,.25,2.42l0,.12a3.52,3.52,0,1,1-6.9,1.38,4.05,4.05,0,0,1-.07-.7,14.88,14.88,0,0,1,.58-4.5,12.85,12.85,0,0,1,1.93-4,15.16,15.16,0,0,1,2.86-3.05,17.38,17.38,0,0,1,3.49-2.19,2,2,0,0,1,2.15,3.37Z"/><path class="cls-1" d="M375.14,334.89a14.42,14.42,0,0,0-1.76-1.11,8.63,8.63,0,0,0-1.88-.74,5.72,5.72,0,0,0-1.73-.2,4.17,4.17,0,0,0-1.4.34,3.56,3.56,0,0,1-2.54-6.66,3.44,3.44,0,0,1,1.12-.23h.28a11.13,11.13,0,0,1,3.63.4,12.25,12.25,0,0,1,3,1.38,15.42,15.42,0,0,1,2.4,1.92,16.71,16.71,0,0,1,1.95,2.31,2,2,0,0,1-2.85,2.79Z"/><path class="cls-1" d="M307.32,214a24.22,24.22,0,0,0-2.32-1.64,25.26,25.26,0,0,0-2.55-1.38,20.12,20.12,0,0,0-5.3-1.64,16.47,16.47,0,0,0-2.6-.21c-.43,0-.86.06-1.27.08-.21,0-.42,0-.62.05l-.62.12a15.85,15.85,0,0,0-4.6,1.62l-.17.08a5.21,5.21,0,1,1-4.45-9.43,5,5,0,0,1,1.17-.39,25.54,25.54,0,0,1,7.88-.64l1,.07c.32,0,.64.11,1,.17.64.12,1.28.22,1.9.37a24.94,24.94,0,0,1,3.59,1.25,26.4,26.4,0,0,1,6.19,3.77,30.93,30.93,0,0,1,2.59,2.39,25.35,25.35,0,0,1,2.31,2.72,2,2,0,0,1-2.88,2.79Z"/><path class="cls-1" d="M373.74,332.11a56.82,56.82,0,0,1-6.1,12.14A73.69,73.69,0,0,1,359.17,355a65.59,65.59,0,0,1-22.83,15.79l-1.64.67c-.56.21-1.12.39-1.68.58l-1.69.55a14.5,14.5,0,0,1-1.71.49l-3.46.85-3.52.58a17.78,17.78,0,0,1-1.77.21l-1.78.15-1.77.12h-1.78c-1.18,0-2.36,0-3.54-.08l-3.51-.34a55.41,55.41,0,0,1-25.27-10.21,1,1,0,0,1-.21-1.39,1,1,0,0,1,1-.38h0c8.52,2.12,16.82,3.58,24.93,3.39a63.74,63.74,0,0,0,11.92-1.38,62.23,62.23,0,0,0,11.35-3.63,91.2,91.2,0,0,0,20.79-12.65A188.89,188.89,0,0,0,371.83,331l0,0a1.12,1.12,0,0,1,1.87,1.14Z"/><path class="cls-1" d="M194.61,348.64c-1.82,1.62-3.52,3-5.32,4.48s-3.58,2.84-5.42,4.2c-3.67,2.72-7.45,5.32-11.39,7.75a115.8,115.8,0,0,1-12.36,6.65,70.49,70.49,0,0,1-13.86,4.76,38.34,38.34,0,0,1-16.1.37,28.37,28.37,0,0,1-8.32-3.18,29.13,29.13,0,0,1-7-5.64,40.87,40.87,0,0,1-8-14.29,75.68,75.68,0,0,1-3.24-14.59v0a8.51,8.51,0,1,1,16.87-2.18c0,.18,0,.38.05.56A59.86,59.86,0,0,0,122.28,349a25.78,25.78,0,0,0,4.18,9.1,13.39,13.39,0,0,0,7,4.77,24.39,24.39,0,0,0,10.27.33c7.53-1.15,15.38-4.42,22.83-8.35,3.74-2,7.42-4.16,11-6.49q2.7-1.74,5.33-3.6c1.73-1.22,3.52-2.53,5.1-3.76l.09-.07a5.06,5.06,0,0,1,6.48,7.76Z"/><ellipse class="cls-5" cx="268.27" cy="267.09" rx="30.64" ry="35.96" transform="translate(-97.6 169.92) rotate(-30)"/><ellipse class="cls-1" cx="283.65" cy="274.64" rx="13.79" ry="19.15" transform="translate(-99.32 178.62) rotate(-30)"/><path class="cls-1" d="M617.84,280.92a84.94,84.94,0,0,1,8.48,10c1.33,1.73,2.51,3.54,3.76,5.32s2.35,3.65,3.53,5.47a212.69,212.69,0,0,1,12.17,23l2.66,5.93,2.45,6,1.22,3c.4,1,.75,2,1.12,3l2.22,6.12c1.44,4.08,2.68,8.23,4,12.35L663,373.68a3,3,0,0,1-5.77,1.63l0-.08,0-.13-3.06-12.41c-1.18-4.09-2.27-8.21-3.55-12.28l-2-6.08c-.33-1-.64-2-1-3l-1.09-3-2.2-6-2.41-5.92a211.47,211.47,0,0,0-11.17-23c-1.09-1.82-2.14-3.68-3.27-5.48s-2.27-3.6-3.51-5.33a83,83,0,0,0-7.81-9.92l-.06-.07a1.22,1.22,0,0,1,1.74-1.7Z"/><path class="cls-1" d="M500.32,310.08a84.94,84.94,0,0,1,8.48,10c1.32,1.72,2.51,3.54,3.76,5.32s2.35,3.64,3.53,5.46a216.4,216.4,0,0,1,12.17,23l2.66,5.94,2.44,6,1.22,3c.41,1,.75,2,1.13,3.05l2.22,6.11c1.43,4.09,2.68,8.24,4,12.36l3.55,12.5a3,3,0,0,1-5.78,1.64.29.29,0,0,0,0-.09l0-.12-3.06-12.41c-1.19-4.09-2.27-8.22-3.55-12.28l-2-6.08c-.33-1-.64-2-1-3l-1.1-3-2.19-6-2.42-5.91a211.4,211.4,0,0,0-11.16-23c-1.1-1.83-2.15-3.68-3.28-5.48s-2.26-3.61-3.5-5.33a83.12,83.12,0,0,0-7.81-9.93l-.06-.06a1.22,1.22,0,0,1,1.74-1.7Z"/><path class="cls-6" d="M548.42,400.66c0,12.1-17.59,21.9-39.29,21.9s-39.3-9.8-39.3-21.9S548.42,388.57,548.42,400.66Z"/><path class="cls-6" d="M663.66,372.1c0,12.09-17.59,21.9-39.29,21.9s-39.29-9.81-39.29-21.9S663.66,360,663.66,372.1Z"/><path d="M138.06,391.59s-23.81-68.81-38.61-145"/><path d="M134.7,392.75c-4.46-11.81-8.62-23.63-12.64-35.55s-7.85-23.89-11.52-35.93c-1.86-6-3.6-12.06-5.38-18.1s-3.47-12.11-5.07-18.21c-3.34-12.15-6.33-24.42-9.24-36.72a8.77,8.77,0,0,1,17.06-4c0,.19.08.38.12.57l0,.13c2,12.23,4.1,24.48,6.56,36.67,1.16,6.11,2.5,12.19,3.75,18.28S121,312,122.44,318.09q4.2,18.21,8.93,36.32c3.16,12.06,6.48,24.13,10.06,36v0a3.56,3.56,0,0,1-6.74,2.28Z"/><ellipse class="cls-1" cx="109.08" cy="315.14" rx="23.45" ry="34.48" transform="translate(-208.33 212.84) rotate(-53.04)"/><polygon class="cls-7" points="7.86 201.5 165.44 138.01 183.33 222.73 34.52 267.09 7.86 201.5"/><path d="M40.07,205.56c.77-.24,1.41.43,1.9,2a5.56,5.56,0,0,1,.29,1.46,6.2,6.2,0,0,1-.18,1.32c-.26,1.14-.59,1.77-1,1.89a2.31,2.31,0,0,1-.75.1,6.48,6.48,0,0,1-.77-.09l-.48-.06a9.88,9.88,0,0,0-1.2.62l-.3.11-.62.27c-.27.12-.59.27-1,.48s-.76.41-1.1.63a8.31,8.31,0,0,0-1.64,1.22,1.3,1.3,0,0,0-.31,1,13.61,13.61,0,0,0,.56,2.23c.43,1.41.78,2.42,1.05,3.06s.48.93.65.88c-.05,0,.15-.17.58-.55a12.05,12.05,0,0,1,1.44-1,27.38,27.38,0,0,1,4.22-2.47,1.88,1.88,0,0,1,1.65.24,2.79,2.79,0,0,1,1.12,1.58,6,6,0,0,1,.33,2,2.17,2.17,0,0,1-.47,1.34,2.44,2.44,0,0,1-1.16.78c-1.45.53-2.6,1-3.44,1.42a11,11,0,0,0-2,1.22,2,2,0,0,0-.8,1.07,2.65,2.65,0,0,0,0,.88c.06.38.14.82.26,1.32s.19.83.22,1a4,4,0,0,0,.13.83,1.76,1.76,0,0,0,.43.71c.21.21.38.3.5.26s.22-.18.61-.53a12.65,12.65,0,0,1,1.5-1.13,20.7,20.7,0,0,0,2.23-1.84c.84-.78,1.42-1.31,1.75-1.59a2.93,2.93,0,0,1,1.12-.62,1.17,1.17,0,0,1,1.07.3,3.12,3.12,0,0,1,.92,1.56,7,7,0,0,1,.28,1.57,4.15,4.15,0,0,1-.08,1.31,1,1,0,0,1-.5.53l-1,.6a6.65,6.65,0,0,0-1.26,1,13.55,13.55,0,0,1-1.3,1.16L41.93,237q-.85.66-1.89,1.62-.26.23-.78.78a6.73,6.73,0,0,1-.57.56,5.84,5.84,0,0,1-2.22-.13,1.59,1.59,0,0,1-.9-.43,2.76,2.76,0,0,1-.61-1.16,4.26,4.26,0,0,1-.11-2.1,4.93,4.93,0,0,1,.79-1.93,4,4,0,0,0,.24-.5.81.81,0,0,0,0-.38c0-.13-.1-.42-.22-.86,0-.15-.08-.34-.12-.56a5.74,5.74,0,0,0-.16-.66,10.49,10.49,0,0,0-.72-1.89,1.14,1.14,0,0,0-.65-.59,2.46,2.46,0,0,1-.81-.42,2.34,2.34,0,0,1-.49-1,4.72,4.72,0,0,1-.1-1.42,5.93,5.93,0,0,1,.28-1.78,4.32,4.32,0,0,0,.17-.83,2.76,2.76,0,0,0-.16-.86c-.45-1.45-.77-2.45-1-3a6.08,6.08,0,0,0-.55-1.22,1.34,1.34,0,0,0-.65-.53,1.67,1.67,0,0,1-.42-.25,1,1,0,0,1-.27-.5,4.14,4.14,0,0,1,0-1.66,6.16,6.16,0,0,1,.34-1.57A7.14,7.14,0,0,1,31.87,212a32.37,32.37,0,0,1,3.51-2.78c.55-.41,1.1-.82,1.64-1.26l1.44-1.19,1-.85A2.53,2.53,0,0,1,40.07,205.56Z"/><path d="M55.94,201.72c.3-.09.56.22.77.93a21.47,21.47,0,0,1,.58,3.1c.2,1.47.5,3.81.89,7.05q.34,2.88.56,5.63c.15,1.83.25,3.42.3,4.79s.09,2.6.1,3.7,0,2.06,0,2.88,0,1.34,0,1.88a5.1,5.1,0,0,1-.19,1.27c-.09.3-.22.48-.4.54s-.51-.05-.82-.36a8.81,8.81,0,0,1-1-1.34c-.39-.58-1-1.54-1.79-2.88s-1.48-2.44-2-3.3l-2.58-4.06c-.92-1.46-1.65-2.58-2.17-3.34a10.76,10.76,0,0,0-1.23-1.55,6,6,0,0,1-1.43-2.61,3.21,3.21,0,0,1,0-1.84c.19-.67.41-1,.67-1.12s.57.16,1.1.68A17.42,17.42,0,0,1,49,213.88c.28.4.79,1.17,1.53,2.28s1.73,2.72,3,4.79c.57.94,1.09,1.81,1.56,2.6a19.76,19.76,0,0,0,1.17,1.78c.31.4.54.57.7.52s.17-.16.19-.4,0-.64,0-1.21-.06-1.16-.11-1.78-.12-1.56-.22-2.85c-.11-1.55-.25-3.07-.43-4.56s-.4-3.18-.64-5.09-.41-3.34-.48-4.3a9.9,9.9,0,0,1,0-2.37,4.75,4.75,0,0,1,.32-1.09Q55.81,201.77,55.94,201.72Z"/><path d="M70.19,226.54a10.92,10.92,0,0,0-2.35.94,1.13,1.13,0,0,0-.62,1,9.45,9.45,0,0,0,.44,2.11,8.59,8.59,0,0,1,.36,2.05,4.35,4.35,0,0,1-.18,1.6c-.14.41-.34.66-.6.73a.86.86,0,0,1-1-.29,5.08,5.08,0,0,1-.76-1.66,13.1,13.1,0,0,1-.46-2.45c-.12-1-.2-2.17-.24-3.53s-.09-3-.12-5.06c0-1.86,0-3.52,0-5s.09-2.67.15-3.57.12-1.64.18-2.23.11-1,.13-1.12a20.7,20.7,0,0,1,.25-2.58c.06-.28.12-.51.16-.7a3.7,3.7,0,0,0,.09-.55,1.39,1.39,0,0,0,0-.47,6,6,0,0,0-.74-1.35c-.4-.61-.65-1-.75-1.18a4.51,4.51,0,0,0-.32-.55,1,1,0,0,0-.31-.22.87.87,0,0,1-.36-.35,5.18,5.18,0,0,1-.28-.72,2.44,2.44,0,0,1,.14-1.9c.3-.59.58-.92.84-1s.74,0,1.2.43a11.81,11.81,0,0,1,1.59,1.88c.61.85,1.36,2,2.27,3.47s2.09,3.42,3.58,5.86q1.44,2.4,4,6.36c1.7,2.63,2.78,4.31,3.22,5a8.26,8.26,0,0,1,.9,1.84,5.12,5.12,0,0,1,.23,2.39c-.13.69-.42,1.11-.89,1.25s-1.19-.28-2-1.31c-.55-.74-.91-1.21-1.08-1.42s-.33-.28-.48-.23a4.08,4.08,0,0,0-1.11.8c-.52.47-.92.81-1.21,1a3.56,3.56,0,0,1-1.14.55,4.8,4.8,0,0,1-1.25.23,6.19,6.19,0,0,1-1,0Zm1.93-5.72c1.13-.35,1.64-.68,1.54-1a5.19,5.19,0,0,0-.29-.78,5.13,5.13,0,0,0-.39-.66c-.15-.26-.46-.84-.94-1.74l-1.32-2.44c-.4-.72-.79-1.39-1.18-2-.79-1.32-1.34-2.22-1.65-2.69s-.51-.7-.63-.66-.09.14-.14.39a7.53,7.53,0,0,0-.15,1,13.62,13.62,0,0,0,0,1.63c0,.42,0,1.15,0,2.19s0,2.19,0,3.47c0,.48,0,1.09-.1,1.83s-.08,1.27-.08,1.59a3.31,3.31,0,0,0,.14.95,4.57,4.57,0,0,0,.22.58c.07.13.14.18.22.15-.09,0,.15-.18.7-.62a5.58,5.58,0,0,1,1.85-1l.82,0A5.26,5.26,0,0,0,72.12,220.82Z"/><path d="M79.62,215.41q-1.07-3.43-1.84-6.27c-.52-1.88-1-3.54-1.32-5S75.92,202,75.9,202q-.63-3.15.63-3.54c.09,0,.22.07.38.27a3,3,0,0,1,.44.69c.15.29.48,1.19,1,2.7s1.15,3.43,1.86,5.75c.48,1.54.84,2.76,1.09,3.67s.57,2.09,1,3.56.7,2.51.89,3.13a3,3,0,0,0,.58,1.15.64.64,0,0,0,.69.26,8.51,8.51,0,0,0,2.33-1.69c1.11-1,1.9-1.68,2.36-2A5.49,5.49,0,0,1,90.9,215a.79.79,0,0,1,.66.22,2,2,0,0,1,.64,1,10.16,10.16,0,0,1,.33,1.66,6.31,6.31,0,0,1,0,1.43,2,2,0,0,1-.5,1.1,6.49,6.49,0,0,1-1.11,1l-2,1.37c-.88.59-1.55,1.08-2,1.47a6.49,6.49,0,0,1-2.16,1.34,1.49,1.49,0,0,1-1.8-.66,8.87,8.87,0,0,1-.79-1.67q-.45-1.19-1-2.85C80.83,219.29,80.3,217.62,79.62,215.41Z"/><path d="M97.28,194.14a3.2,3.2,0,0,1-.12-1.17,4.58,4.58,0,0,1,.24-1.18,4.8,4.8,0,0,1,.38-.91c.12-.23.22-.36.27-.37.22-.07.59.13,1.11.59a6.67,6.67,0,0,1,1.22,1.41c.09.15.28.53.57,1.13s.58,1.29.89,2.1.61,1.65.88,2.56c.72,2.32,1.33,4.42,1.83,6.32s.79,3.09.88,3.59a13.57,13.57,0,0,1,.28,2.07,8.23,8.23,0,0,1,0,1.29,10.81,10.81,0,0,1-.23,1.13,5.06,5.06,0,0,0-.18,1c0,.15,0,.42,0,.83a4.45,4.45,0,0,1-.27,1.4,6.34,6.34,0,0,1-1,1.7,12.45,12.45,0,0,1-2.2,2.07,7.89,7.89,0,0,1-2.17,1.21,3.89,3.89,0,0,1-2.19,0,5.31,5.31,0,0,1-1.91-.88,6.37,6.37,0,0,1-2-3.1c-.29-.92-.62-2.3-1-4.14s-.66-3.57-.86-5.21c-.15-1.35-.25-2.46-.3-3.36s-.09-1.65-.1-2.24a9.9,9.9,0,0,1,0-1.07c.1-.82.27-1.27.51-1.34a.29.29,0,0,1,.38.09,2.79,2.79,0,0,1,.27.67c0,.11.08.55.15,1.33s.16,1.66.29,2.65.33,2.16.62,3.54.7,2.88,1.2,4.51a10.52,10.52,0,0,0,.57,1.47,5.06,5.06,0,0,0,.55,1,3.35,3.35,0,0,0,1.67.91,4.17,4.17,0,0,0,2.52,0,3.33,3.33,0,0,0,1.17-.7,7.83,7.83,0,0,0,1.08-1.15,4.36,4.36,0,0,0,.63-1,7.3,7.3,0,0,0,.36-2.26,7.94,7.94,0,0,0-.24-2.67q-.4-1.32-4.32-10.48C97.79,195.37,97.31,194.26,97.28,194.14Z"/><path d="M114.68,212.8a11,11,0,0,0-2.34.94,1.13,1.13,0,0,0-.62,1,9.45,9.45,0,0,0,.44,2.11,8.59,8.59,0,0,1,.36,2,4.57,4.57,0,0,1-.18,1.6c-.15.41-.34.65-.6.73a.86.86,0,0,1-1-.29,5.28,5.28,0,0,1-.77-1.66,15.18,15.18,0,0,1-.46-2.45c-.11-1-.19-2.17-.23-3.53s-.09-3-.12-5.06c0-1.86,0-3.52,0-5s.09-2.67.15-3.57.12-1.64.18-2.23.11-1,.13-1.12a20.7,20.7,0,0,1,.25-2.58c.06-.28.12-.52.16-.7s.07-.37.09-.55a1.39,1.39,0,0,0,0-.47,6,6,0,0,0-.74-1.35c-.4-.61-.65-1-.75-1.18a4.51,4.51,0,0,0-.32-.55,1,1,0,0,0-.31-.22.9.9,0,0,1-.37-.35,5.45,5.45,0,0,1-.27-.72,2.44,2.44,0,0,1,.14-1.9c.3-.59.58-.92.84-1a1.29,1.29,0,0,1,1.19.43,11.28,11.28,0,0,1,1.6,1.88c.61.85,1.36,2,2.27,3.47s2.09,3.42,3.58,5.86q1.44,2.4,4,6.36t3.22,5a8.26,8.26,0,0,1,.9,1.84,5.12,5.12,0,0,1,.23,2.39c-.13.69-.42,1.11-.89,1.25s-1.19-.28-2-1.31c-.55-.74-.91-1.21-1.08-1.42s-.33-.28-.49-.23a4.09,4.09,0,0,0-1.1.8c-.52.47-.92.81-1.21,1a3.56,3.56,0,0,1-1.14.55,5.35,5.35,0,0,1-1.25.23,6.14,6.14,0,0,1-1,0A2.47,2.47,0,0,0,114.68,212.8Zm1.94-5.72c1.12-.35,1.64-.68,1.54-1a5.94,5.94,0,0,0-.29-.79c-.08-.15-.21-.36-.39-.65s-.46-.84-1-1.74-.92-1.72-1.31-2.44-.79-1.39-1.18-2c-.79-1.32-1.34-2.22-1.65-2.69s-.52-.7-.63-.66-.09.14-.15.39a10,10,0,0,0-.14,1,11.7,11.7,0,0,0,0,1.62c0,.43,0,1.16,0,2.2s0,2.19,0,3.47c0,.48,0,1.09-.1,1.83s-.09,1.27-.08,1.59a3.31,3.31,0,0,0,.14.95,3.42,3.42,0,0,0,.22.58c.07.13.14.18.22.15-.09,0,.15-.18.7-.62a5.58,5.58,0,0,1,1.85-1l.82,0A5.26,5.26,0,0,0,116.62,207.08Z"/><path d="M129.07,178.28a1,1,0,0,1,1,.15,3.06,3.06,0,0,1,.71,1.35,7.44,7.44,0,0,1,.22,1.52,5.72,5.72,0,0,1-.08,1.58,3.7,3.7,0,0,1-.95,1.55,9.8,9.8,0,0,1-2.15,1.74,4.13,4.13,0,0,0-1.33,1.16,2.24,2.24,0,0,0,.08,1.68c.18.58.69,2.09,1.51,4.51s1.51,4.53,2.07,6.34c.12.41.26.87.41,1.4s.28,1,.41,1.49l.42,1.5c.51,1.71.86,2.95,1,3.72a4.48,4.48,0,0,1,.07,2,2.15,2.15,0,0,1-.27.65c-.14.25-.24.38-.31.4-.68.21-1.34-.74-2-2.83-.12-.36-.32-1.09-.62-2.19s-.62-2.24-1-3.43-.74-2.55-1.21-4.07c-1.09-3.51-1.86-5.95-2.32-7.3a7.06,7.06,0,0,0-1.09-2.39s-.22-.06-.54,0-.72.11-1.25.23-1.15.28-1.89.5c-1.31.41-2.21-.15-2.68-1.69a3.27,3.27,0,0,1-.12-.91,3.44,3.44,0,0,1,.09-1,2.21,2.21,0,0,1,.66-1.1,4.94,4.94,0,0,1,1.14-.77c.45-.22,1.08-.51,1.9-.88s1.41-.66,1.79-.87c1-.55,1.74-1,2.34-1.39s1.36-.91,2.3-1.59A14.09,14.09,0,0,1,129.07,178.28Z"/><path d="M137.34,200.06a23.93,23.93,0,0,1-1-5.81,30,30,0,0,1,.39-6.3,16.34,16.34,0,0,1,1.74-5.56,6,6,0,0,1,3.51-2.77,2.93,2.93,0,0,1,1.71,0,5.7,5.7,0,0,1,1.91,1.09,11.62,11.62,0,0,1,1.71,1.66,15,15,0,0,1,1.49,2.17A21.41,21.41,0,0,1,150,187.1c.37.91.72,1.91,1.06,3a18.7,18.7,0,0,1,.63,2.94,17.45,17.45,0,0,1,.18,3.27,6.86,6.86,0,0,1-.51,2.56s0,.45-.1,1.3a12,12,0,0,1-.5,2.63,6.72,6.72,0,0,1-1.59,2.61,7.27,7.27,0,0,1-3.3,1.91,4.28,4.28,0,0,1-2.18.12,5.35,5.35,0,0,1-2.16-1.08,12.36,12.36,0,0,1-2.18-2.25,12.59,12.59,0,0,1-1.19-1.87A14,14,0,0,1,137.34,200.06Zm4.85-14a4.53,4.53,0,0,0-2.22,1.49,6,6,0,0,0-1.26,2.47,8.34,8.34,0,0,0-.28,2.6,8.2,8.2,0,0,0,.21,1.48,6.18,6.18,0,0,0,0,1,10.45,10.45,0,0,0,.46,2,6.62,6.62,0,0,0,1.47,2.38,8.34,8.34,0,0,0,2.55,2,3.53,3.53,0,0,0,2.66.32,4.27,4.27,0,0,0,1.9-1.48,7.08,7.08,0,0,0,1.3-2.18,11,11,0,0,0-.42-6.2A12.69,12.69,0,0,0,147,188.5a6.62,6.62,0,0,0-2.26-2.17A3.15,3.15,0,0,0,142.19,186Z"/><path d="M155.27,197.87l-1.54-5q-.91-3-1.49-5.07t-.72-2.76A5.45,5.45,0,0,0,151,184l-.51-1a5.16,5.16,0,0,1-.31-.81,5.66,5.66,0,0,1-.08-2.25,10.47,10.47,0,0,1,.85-3,9.51,9.51,0,0,1,2.05-2.85,8.23,8.23,0,0,1,3.39-2,7.78,7.78,0,0,1,3.29-.38,5.82,5.82,0,0,1,3,1.74,7.07,7.07,0,0,1,1.93,3,15.77,15.77,0,0,1,.7,4.56,14.81,14.81,0,0,1-.61,4.33,9.43,9.43,0,0,1-1.69,3.32,10.67,10.67,0,0,0-1,1.27,1.51,1.51,0,0,0,0,1.21,2.07,2.07,0,0,0,.67,1.06,12,12,0,0,0,3.08,1.94,3.39,3.39,0,0,0,2.2.29,1.33,1.33,0,0,0,.89-1c.07-.27.13-.52.18-.74a3.25,3.25,0,0,1,.2-.6q.12-.28.3-.33c.26-.09.54.09.83.5a6.72,6.72,0,0,1,.83,1.88,4.66,4.66,0,0,1,.14,2.36,4,4,0,0,1-1,1.93,3.82,3.82,0,0,1-1.77,1.11,4.27,4.27,0,0,1-2.25-.08,9.84,9.84,0,0,1-2.87-1.35,14,14,0,0,1-2.78-2.42c-.4-.47-.74-.87-1-1.22a2.48,2.48,0,0,0-.79-.67,1.23,1.23,0,0,0-.89,0,.62.62,0,0,0-.49.54,2.85,2.85,0,0,0,.16,1c.06.17.11.32.16.45s.1.31.16.52a16.28,16.28,0,0,1,.83,4.4c0,1.21-.22,1.9-.73,2.06a.83.83,0,0,1-.49-.17,3.21,3.21,0,0,1-.59-.47A14.14,14.14,0,0,1,155.27,197.87Zm.68-20.93a3.88,3.88,0,0,0-.93.45l-.68.39a2,2,0,0,0-1,.79A2.66,2.66,0,0,0,153,180a11.55,11.55,0,0,0,.36,2.44c.23,1,.59,2.29,1.08,3.85a9.77,9.77,0,0,0,.59,1.44,5.43,5.43,0,0,0,.58,1c.28.32.79.37,1.52.15a8.14,8.14,0,0,0,3.43-2,8.45,8.45,0,0,0,2.05-3.26,10.88,10.88,0,0,0,.55-2.12,3.86,3.86,0,0,0-.16-1.54,5.76,5.76,0,0,0-1.28-2.35,3.12,3.12,0,0,0-1.28-.71,6.94,6.94,0,0,0-2.06-.3A7.78,7.78,0,0,0,156,176.94Z"/></svg>