<svg id="Layer_1" data-name="Layer 1" xmlns="http://www.w3.org/2000/svg" viewBox="0 0 700 700"><defs><style>.cls-1{fill:#f7c860;}.cls-2{fill:#363637;}.cls-3{fill:#4f5356;}.cls-4{fill:#6d7278;}.cls-5{fill:#fff;}.cls-6{fill:#f1746c;}</style></defs><title>Executor FLAT</title><path d="M462.58,374.66s27-67.64,45.27-143.09"/><path d="M459.28,373.34c4.12-11.71,8-23.61,11.7-35.51S478.23,314,481.58,302c1.71-6,3.29-12,4.92-18s3.15-12,4.59-18.09c3-12.07,5.68-24.2,8.25-36.33l0-.1a8.77,8.77,0,1,1,17.15,3.64c0,.19-.09.4-.15.59-3.47,12.15-7,24.27-10.92,36.26-1.88,6-3.93,12-5.9,18s-4.08,11.91-6.22,17.83Q487,323.47,480.16,341c-4.57,11.72-9.26,23.34-14.27,34.94a3.56,3.56,0,0,1-6.63-2.58Z"/><polygon class="cls-1" points="456.07 126.35 629.9 198.99 587.57 278.05 438.89 199.32 456.07 126.35"/><path d="M480.91,158.65c.86.39.86,1.52,0,3.41a7.3,7.3,0,0,1-.92,1.62,8.09,8.09,0,0,1-1.21,1.11c-1.14.87-1.92,1.21-2.36,1a2.55,2.55,0,0,1-.71-.5,8,8,0,0,1-.6-.69,3.59,3.59,0,0,0-.36-.44,10.84,10.84,0,0,0-1.52-.36l-.34-.12-.75-.24c-.32-.1-.73-.21-1.22-.33s-1-.2-1.45-.26a9.18,9.18,0,0,0-2.37-.15,1.69,1.69,0,0,0-1.11.75,19.29,19.29,0,0,0-1.31,2.55c-.75,1.67-1.27,2.91-1.55,3.73s-.33,1.26-.14,1.34a4,4,0,0,1,.93-.05,13.42,13.42,0,0,1,2.07.14,30.9,30.9,0,0,1,5.58,1,2.07,2.07,0,0,1,1.22,1.53,3.63,3.63,0,0,1-.3,2.38,8.15,8.15,0,0,1-1.35,2.19,2.71,2.71,0,0,1-1.48.9,2.77,2.77,0,0,1-1.62-.17,40.14,40.14,0,0,0-4.08-1.38,11.75,11.75,0,0,0-2.67-.41,2.36,2.36,0,0,0-1.54.38,3.85,3.85,0,0,0-.69.86c-.25.4-.53.89-.83,1.45s-.5.93-.61,1.1a9.36,9.36,0,0,0-.55.89,2.39,2.39,0,0,0-.19,1c0,.37.07.59.21.65s.33,0,.95,0a15,15,0,0,1,2.2.12,21.92,21.92,0,0,0,3.37,0c1.34-.07,2.27-.11,2.77-.12a3.4,3.4,0,0,1,1.47.3,1.35,1.35,0,0,1,.66,1.13,4,4,0,0,1-.46,2.2,9,9,0,0,1-1,1.71,5.16,5.16,0,0,1-1.12,1.18,1.17,1.17,0,0,1-.85.11l-1.34-.24a6.76,6.76,0,0,0-1.91,0,14.17,14.17,0,0,1-2,.07l-2.46-.09c-.84,0-1.82,0-2.91,0-.27,0-.7.05-1.29.11a9,9,0,0,1-.93.09,6.21,6.21,0,0,1-1.81-1.89,1.84,1.84,0,0,1-.42-1.11,3.64,3.64,0,0,1,.41-1.58A5.62,5.62,0,0,1,452,183.5a6.06,6.06,0,0,1,2.22-1.21,2.93,2.93,0,0,0,.61-.29,1,1,0,0,0,.32-.34c.08-.15.25-.48.5-1a7,7,0,0,1,.34-.62,7.91,7.91,0,0,0,.39-.77,14.59,14.59,0,0,0,.9-2.34,1.51,1.51,0,0,0-.08-1.08,3.45,3.45,0,0,1-.37-1,3.53,3.53,0,0,1,.42-1.37,6.5,6.5,0,0,1,1.05-1.42,7.83,7.83,0,0,1,1.67-1.46,6.3,6.3,0,0,0,.8-.65,3.49,3.49,0,0,0,.56-.94c.77-1.73,1.3-2.93,1.58-3.61a7.9,7.9,0,0,0,.51-1.59,1.63,1.63,0,0,0-.13-1,2.49,2.49,0,0,1-.16-.57,1.43,1.43,0,0,1,.17-.69,5.42,5.42,0,0,1,1.3-1.6,8.17,8.17,0,0,1,1.55-1.23,8.34,8.34,0,0,1,2.63-.39,38.66,38.66,0,0,1,5.23.14c.79.06,1.6.09,2.41.1s1.55,0,2.18,0h1.56A2.47,2.47,0,0,1,480.91,158.65Z"/><path d="M486,176.45c.06,0,.19,0,.38-.22s.44-.44.76-.79l1.1-1.22q2.39-2.55,4.33-4.28a23.35,23.35,0,0,1,2.62-2.14c1.15-.71,1.94-1,2.37-.78s.31.48.05,1.06a2.23,2.23,0,0,1-.32.53,2.93,2.93,0,0,1-.47.39,4.4,4.4,0,0,0-.4.29c-.41.42-1,1.06-1.88,1.94s-2.16,2.31-4,4.29c-.82.93-1.54,1.72-2.15,2.39s-1.13,1.25-1.57,1.77a6,6,0,0,0-.83,1.15,5,5,0,0,0-.45,1.75,21.66,21.66,0,0,0,.06,2.67c.09,1.18.13,2.05.14,2.59.06,1.9.08,3.12.08,3.65a8.79,8.79,0,0,1-.18,1.7,9.17,9.17,0,0,1-.68,2,10.55,10.55,0,0,1-2,3.29,1.56,1.56,0,0,1-1.78.32c-.16-.07-.28-.33-.37-.78s-.25-1.65-.49-3.59q-.07-.58-.18-1.29c-.08-.46-.13-.89-.17-1.28s-.06-.8-.08-1.19c-.06-1.54-.15-2.34-.29-2.4s-.87.32-1.84,1.31-2.7,2.85-5.17,5.6a15.82,15.82,0,0,0-1.27,1.55c-.26.39-.64,1-1.15,1.79a13,13,0,0,1-1.18,1.68,9,9,0,0,1-1.81,1.71,1.28,1.28,0,0,1-1.22.1,1,1,0,0,1-.62-.69,2.83,2.83,0,0,1,.38-1.59l.33-.68c.17-.34.3-.61.4-.8s.7-.9,1.86-2.23,2.82-3.17,5-5.54q1.38-1.54,3.15-3.42c1.18-1.25,2-2.12,2.4-2.6a6.15,6.15,0,0,0,.93-1.42,3.37,3.37,0,0,0,.25-1c.05-.43.12-1.25.21-2.48.08-.85.25-2.19.5-4,.38-2.66.66-4.47.82-5.43a10,10,0,0,1,.66-2.33,3.63,3.63,0,0,1,.59-1,1.63,1.63,0,0,1,.54-.43l.57-.19.67-.33a.62.62,0,0,1,.57-.05.74.74,0,0,1,.39.56,15.62,15.62,0,0,1,.33,2.92,34.61,34.61,0,0,1-.08,4.41c-.07,1-.1,1.67-.09,2.06S485.8,176.37,486,176.45Z"/><path d="M514.77,173.92c.86.38.86,1.52,0,3.4a7.46,7.46,0,0,1-.92,1.62,8.09,8.09,0,0,1-1.21,1.11c-1.14.87-1.93,1.21-2.36,1a2.24,2.24,0,0,1-.71-.5,5.71,5.71,0,0,1-.6-.69,3.59,3.59,0,0,0-.36-.44,15.3,15.3,0,0,0-1.52-.36l-.35-.12-.74-.24c-.32-.1-.73-.21-1.22-.32a13.28,13.28,0,0,0-1.46-.27A9,9,0,0,0,501,178a1.63,1.63,0,0,0-1.1.74,17.81,17.81,0,0,0-1.31,2.56c-.75,1.66-1.27,2.91-1.55,3.72s-.33,1.26-.15,1.34a5.35,5.35,0,0,1,.94-.05,13.42,13.42,0,0,1,2.07.14,31.11,31.11,0,0,1,5.58,1,2.11,2.11,0,0,1,1.22,1.54,3.61,3.61,0,0,1-.3,2.37,8.15,8.15,0,0,1-1.35,2.19,2.79,2.79,0,0,1-1.48.91,2.85,2.85,0,0,1-1.62-.18,37.36,37.36,0,0,0-4.08-1.37,11.22,11.22,0,0,0-2.67-.41,2.37,2.37,0,0,0-1.54.37,3.8,3.8,0,0,0-.69.86c-.25.4-.53.89-.83,1.45s-.51.94-.61,1.11a6.94,6.94,0,0,0-.55.88,2.25,2.25,0,0,0-.19,1c0,.37.07.59.21.65s.33,0,1,0a13.48,13.48,0,0,1,2.19.11,23.25,23.25,0,0,0,3.38,0c1.34-.08,2.27-.12,2.77-.13a3.35,3.35,0,0,1,1.46.3,1.34,1.34,0,0,1,.67,1.13,4,4,0,0,1-.46,2.2,9,9,0,0,1-1,1.71,5.38,5.38,0,0,1-1.12,1.18,1.13,1.13,0,0,1-.85.11l-1.34-.24a7.68,7.68,0,0,0-1.92,0,14.06,14.06,0,0,1-2,.07l-2.45-.09c-.85,0-1.82,0-2.91.05-.27,0-.7,0-1.29.11a9,9,0,0,1-.94.09,6.21,6.21,0,0,1-1.8-1.89,1.85,1.85,0,0,1-.43-1.11,3.71,3.71,0,0,1,.42-1.58,5.62,5.62,0,0,1,1.58-2.07,6.06,6.06,0,0,1,2.22-1.21,2.49,2.49,0,0,0,.61-.29,1,1,0,0,0,.32-.34c.08-.15.25-.48.5-1,.08-.17.2-.38.34-.62a7.91,7.91,0,0,0,.39-.77,14.59,14.59,0,0,0,.9-2.34,1.52,1.52,0,0,0-.08-1.08,2,2,0,0,1,0-2.4,7,7,0,0,1,1.05-1.43,8.11,8.11,0,0,1,1.68-1.46,6.42,6.42,0,0,0,.8-.64,3.63,3.63,0,0,0,.55-.95c.78-1.72,1.31-2.93,1.59-3.61a7.86,7.86,0,0,0,.51-1.58,1.65,1.65,0,0,0-.13-1,2.06,2.06,0,0,1-.16-.57,1.43,1.43,0,0,1,.17-.69,5.52,5.52,0,0,1,1.29-1.6,8.49,8.49,0,0,1,1.56-1.23,8.32,8.32,0,0,1,2.62-.39,38.77,38.77,0,0,1,5.24.14c.79.06,1.6.09,2.41.11H514A2.21,2.21,0,0,1,514.77,173.92Z"/><path d="M506,201.52c.58-1.29,1.08-2.31,1.49-3.06a35.88,35.88,0,0,1,4.94-6.76,44.5,44.5,0,0,1,6.45-5.83,25.2,25.2,0,0,1,6.45-3.59q3-1.07,4.87-.23a2.09,2.09,0,0,1,1.26,1.84,7,7,0,0,1-.8,3.41,8.74,8.74,0,0,1-1.89,2.88c-.66.61-1.22.81-1.65.61a6.31,6.31,0,0,1-.82-.72,5.24,5.24,0,0,0-1.45-1,5.93,5.93,0,0,0-4-.33,11.43,11.43,0,0,0-4.21,2.16,21.34,21.34,0,0,0-3.88,4,26,26,0,0,0-3,5,7.43,7.43,0,0,0-.72,4.61,4,4,0,0,0,2.47,3,6.28,6.28,0,0,0,3.62.6,9.55,9.55,0,0,0,3.93-1.82,14.56,14.56,0,0,0,3.32-3,4.11,4.11,0,0,1,.92-.94c.29-.2.47-.28.53-.25a1.12,1.12,0,0,1,.56.93,3.43,3.43,0,0,1-.39,1.83,14.45,14.45,0,0,1-.78,1.31q-.63,1-1.32,1.86a20.42,20.42,0,0,1-3,3,17.59,17.59,0,0,1-3.87,2.55,10.39,10.39,0,0,1-2.43.72,11.28,11.28,0,0,1-2.66.11,7.29,7.29,0,0,1-2.45-.6,4.91,4.91,0,0,1-3-3.07,9.51,9.51,0,0,1-.07-4.06A20.21,20.21,0,0,1,506,201.52Z"/><path d="M543.55,195.05a4.11,4.11,0,0,1,.83-1.2,6.61,6.61,0,0,1,1.15-.93,6.72,6.72,0,0,1,1.06-.57c.29-.11.47-.16.53-.13.24.11.4.59.47,1.44a8.55,8.55,0,0,1-.09,2.3c0,.22-.17.72-.41,1.51s-.54,1.69-.92,2.7-.81,2.05-1.29,3.12c-1.25,2.77-2.42,5.24-3.51,7.43s-1.79,3.55-2.11,4.1a18.53,18.53,0,0,1-1.43,2.17,9.73,9.73,0,0,1-1.07,1.19,13,13,0,0,1-1.11.89,7.71,7.71,0,0,0-.94.79c-.11.15-.32.41-.64.8a5.39,5.39,0,0,1-1.35,1.1,7.32,7.32,0,0,1-2.23.83,13.24,13.24,0,0,1-3.53.22,8.73,8.73,0,0,1-2.84-.56,4.28,4.28,0,0,1-1.84-1.76,6.55,6.55,0,0,1-.93-2.34,8.46,8.46,0,0,1,.78-4.51c.49-1.1,1.31-2.66,2.46-4.71s2.3-3.91,3.45-5.62c.94-1.38,1.75-2.53,2.42-3.42s1.25-1.63,1.71-2.2.75-.9.86-1c.76-.7,1.26-1,1.52-.87s.28.22.25.39a4,4,0,0,1-.3.85c-.06.12-.37.58-.94,1.37s-1.19,1.71-1.87,2.74-1.46,2.31-2.31,3.85-1.71,3.28-2.59,5.21a17.11,17.11,0,0,0-.69,1.85,7.61,7.61,0,0,0-.35,1.41,4.15,4.15,0,0,0,.7,2.18,4.57,4.57,0,0,0,2.14,2,3.56,3.56,0,0,0,1.55.27,8.3,8.3,0,0,0,1.85-.24,5.1,5.1,0,0,0,1.36-.47,9.74,9.74,0,0,0,2.12-1.86,10.24,10.24,0,0,0,1.93-2.73q.71-1.56,4.7-13.33C543,196.62,543.48,195.19,543.55,195.05Z"/><path d="M566.87,197.66a1.08,1.08,0,0,1,.72.92,3.81,3.81,0,0,1-.48,1.84,8.91,8.91,0,0,1-1,1.61,7.73,7.73,0,0,1-1.34,1.44,4.41,4.41,0,0,1-2,.71,10.76,10.76,0,0,1-3.24-.05,4.72,4.72,0,0,0-2.06.05c-.42.15-.84.71-1.27,1.66-.32.7-1.09,2.52-2.33,5.46s-2.34,5.49-3.31,7.64c-.21.49-.47,1-.77,1.65l-.84,1.74-.84,1.76q-1.39,3-2.1,4.33a6.19,6.19,0,0,1-1.55,2,3,3,0,0,1-.76.4,1.12,1.12,0,0,1-.58.13c-.74-.34-.55-1.75.57-4.25.2-.43.6-1.28,1.22-2.55s1.27-2.61,1.93-4,1.41-3,2.23-4.81q2.82-6.27,3.87-8.75a9.33,9.33,0,0,0,1-3.13c0-.08-.14-.23-.44-.44a13,13,0,0,0-1.25-.77,22.21,22.21,0,0,0-2-1q-2.19-1-.94-3.73a4.79,4.79,0,0,1,.62-1,4.16,4.16,0,0,1,.86-.84,2.66,2.66,0,0,1,1.44-.53,5.08,5.08,0,0,1,1.6.18L556,196c1,.29,1.74.49,2.24.59,1.26.24,2.29.42,3.11.53s1.9.21,3.25.31A13.83,13.83,0,0,1,566.87,197.66Z"/><path d="M556.5,224.82a32.12,32.12,0,0,1,3.77-6.31,39.36,39.36,0,0,1,5.38-5.66,20.34,20.34,0,0,1,6-3.89,6.6,6.6,0,0,1,5.23.15,3.27,3.27,0,0,1,1.48,1.32,6.85,6.85,0,0,1,.75,2.54,13.43,13.43,0,0,1,.14,2.93,20.45,20.45,0,0,1-.46,3.22,31.55,31.55,0,0,1-1,3.44c-.42,1.16-.92,2.39-1.5,3.68a27.44,27.44,0,0,1-1.81,3.28,23.78,23.78,0,0,1-2.47,3.24,9,9,0,0,1-2.48,2s-.41.39-1.14,1.15a15.18,15.18,0,0,1-2.54,2.1,7.88,7.88,0,0,1-3.44,1.21,8,8,0,0,1-4.35-.79,4.56,4.56,0,0,1-2-1.62,6.38,6.38,0,0,1-1-2.72,15.2,15.2,0,0,1-.06-3.85,18.32,18.32,0,0,1,.47-2.72A19.19,19.19,0,0,1,556.5,224.82Zm15.38-9.46a5.18,5.18,0,0,0-3.1-.34,7.5,7.5,0,0,0-3.06,1.35,11.11,11.11,0,0,0-2.32,2.24,11.51,11.51,0,0,0-1,1.57,7.29,7.29,0,0,0-.76.92,13.39,13.39,0,0,0-1.24,2.29,8.71,8.71,0,0,0-.65,3.42,10.41,10.41,0,0,0,.61,3.87,3.92,3.92,0,0,0,2,2.4,4.68,4.68,0,0,0,2.81.1,8.47,8.47,0,0,0,2.85-1,14.59,14.59,0,0,0,4.62-6.2,16.92,16.92,0,0,0,1.34-4.46,8.47,8.47,0,0,0-.19-3.84A3.58,3.58,0,0,0,571.88,215.36Z"/><path d="M573.59,236.9l2.69-6c1.05-2.35,2-4.34,2.79-6s1.33-2.7,1.6-3.18a8.93,8.93,0,0,0,.44-1.41c.14-.61.25-1,.32-1.31a6.82,6.82,0,0,1,.38-1,7.47,7.47,0,0,1,1.74-2.19,12.71,12.71,0,0,1,3.12-2.16,10.92,10.92,0,0,1,4-1.08,8.92,8.92,0,0,1,4.47.83,8.33,8.33,0,0,1,3.12,2.23,7,7,0,0,1,1.21,4.06,9.23,9.23,0,0,1-.78,4.41,20.64,20.64,0,0,1-3.05,4.86,19.83,19.83,0,0,1-4,3.63,11.41,11.41,0,0,1-4.11,1.81,12.9,12.9,0,0,0-1.84.45,2,2,0,0,0-1,1.12,2.65,2.65,0,0,0-.26,1.53,14.48,14.48,0,0,0,1.06,4.28,3.88,3.88,0,0,0,1.67,2,1.52,1.52,0,0,0,1.59-.29l.74-.55a4,4,0,0,1,.66-.42.6.6,0,0,1,.52-.07c.29.13.39.51.31,1.14a9.39,9.39,0,0,1-.8,2.43,6.11,6.11,0,0,1-1.77,2.34,4.8,4.8,0,0,1-2.36,1.07,4.17,4.17,0,0,1-2.41-.34,4.64,4.64,0,0,1-1.85-1.85,11.78,11.78,0,0,1-1.38-3.54,18.16,18.16,0,0,1-.44-4.49c0-.76.07-1.41.1-2a3.19,3.19,0,0,0-.13-1.26,1.38,1.38,0,0,0-.77-.7.69.69,0,0,0-.84.12,3.67,3.67,0,0,0-.69,1.1c-.08.2-.16.38-.23.54l-.27.63a22.23,22.23,0,0,1-2.81,4.82c-1,1.16-1.72,1.62-2.28,1.37-.1,0-.19-.23-.28-.55a3.32,3.32,0,0,1-.13-.9C571.72,241.51,572.36,239.65,573.59,236.9Zm17.35-19.29a4.29,4.29,0,0,0-1.16-.31c-.47-.07-.77-.13-.89-.16a2.32,2.32,0,0,0-1.49,0,3.36,3.36,0,0,0-1.42,1.13,15.77,15.77,0,0,0-1.64,2.59q-.9,1.69-2.16,4.5a12.36,12.36,0,0,0-.64,1.83,6.67,6.67,0,0,0-.31,1.4c0,.54.38,1,1.18,1.35a8.86,8.86,0,0,0,4.58.76,10.08,10.08,0,0,0,4.36-1.46,14.14,14.14,0,0,0,2.17-1.58,5.21,5.21,0,0,0,1.1-1.58,7.65,7.65,0,0,0,.79-3.24,3.89,3.89,0,0,0-.53-1.68,8,8,0,0,0-1.52-1.92A8.47,8.47,0,0,0,590.94,217.61Z"/><path class="cls-2" d="M144.59,295.66c-.58.46-1.29,1-1.93,1.6s-1.31,1.15-1.95,1.75c-1.28,1.19-2.54,2.43-3.75,3.7a95.32,95.32,0,0,0-6.82,8,86.39,86.39,0,0,0-10.53,17.76A77.36,77.36,0,0,0,116.2,338a72,72,0,0,0-2,9.77,70.58,70.58,0,0,0,.27,19.64h0A8.78,8.78,0,0,1,97.12,370a9,9,0,0,1-.09-1,86.39,86.39,0,0,1,2.54-24.11,87.5,87.5,0,0,1,3.78-11.4,93.17,93.17,0,0,1,5.3-10.63,98.26,98.26,0,0,1,14.14-18.5,105.47,105.47,0,0,1,8.46-7.79q2.22-1.83,4.54-3.52c.77-.57,1.56-1.12,2.36-1.66s1.58-1,2.52-1.62a3.56,3.56,0,0,1,4.06,5.83Z"/><path class="cls-3" d="M419.24,221.91c-4.75-2.34-10.39.54-15.38,3.64a102.7,102.7,0,0,0-20.16-24.7c2.26-10.25,3.95-22.66.33-27.3-19.45-25-71.54-25-71.54-25l-8.37,28c-42.95,4.85-86.56,33.84-113.37,80.27-28.87,50-30.47,106.76-8.5,147.22-3.75,5.64-10.85,17.31-10.15,24.22,2,20.42,40.33,39.6,40.33,39.6l16.78-19.64a103,103,0,0,0,51.53,8.4l20.58,21.67s35.2-11.14,42.14-20.81c2.54-3.54,3.32-15.73,3.51-26A168.11,168.11,0,0,0,379.08,402c6.8,4.72,14.6,9,17.89,6.41,29.86-23.29,28.32-42.87,28.32-42.87L410.4,347.9a164.56,164.56,0,0,0,10.3-58.59l15.09-9.21S442.5,233.31,419.24,221.91ZM325.06,323.27c-16.57,28.7-44,43.9-61.22,34s-17.78-41.29-1.21-70,44-43.89,61.22-33.94S341.63,294.57,325.06,323.27Z"/><path class="cls-4" d="M419.24,221.91c-3.88-3.76-13.89-3.68-22.85-2.85a102.91,102.91,0,0,0-27-33.15c1.76-9.29,2.66-19.31-.38-23.48-10.09-13.86-67.08-14.18-67.08-14.18l-9.12,16.94a133.81,133.81,0,0,0-48.76,16.35c-6.49-5.6-14.29-11.31-19.06-11.35-14.07-.12-46.14,32.23-46.14,32.23l14.19,24a182.81,182.81,0,0,0-24.27,43.22c-7-1.53-15.61-2.67-19.16-.17C137.56,278,134,326.41,134,326.41l23.56,16.75c1.82,20.52,8,39.66,18.16,55.76-3.31,8.78-7.15,20.95-5.39,26.36,3.74,11.5,37.42,30.67,37.42,30.67l15-17.59a103.57,103.57,0,0,0,47.16,6.82l21.13,22.89s35.79-11.31,42.73-21c3.55-4.95,4.08-20.85,4.14-27.95a167.15,167.15,0,0,0,29-26.51c6.62,4.37,15.06,9.07,19.44,8,12.4-3.09,29.32-41.87,29.32-41.87L400.68,335a164.37,164.37,0,0,0,9.78-57.32l12.28-7.49S428,230.3,419.24,221.91ZM323.06,323.8C306.21,353,275.76,366.93,255,355s-23.86-45.32-7-74.5,47.31-43.13,68-31.17S339.91,294.62,323.06,323.8Z"/><ellipse class="cls-5" cx="299.18" cy="213.43" rx="31.29" ry="27.72" transform="translate(-35.25 365.82) rotate(-60)"/><ellipse class="cls-5" cx="341.48" cy="223.75" rx="34.35" ry="31.04" transform="translate(-23.03 407.61) rotate(-60)"/><ellipse class="cls-2" cx="327.06" cy="231.53" rx="18.06" ry="15.64" transform="translate(-36.98 399) rotate(-60)"/><path class="cls-2" d="M306.8,395.4c-5,8.64-13,9.59-19.56,5.79s-4.56-16.08-4.56-16.08l25.66-12.19S311.79,386.76,306.8,395.4Z"/><ellipse class="cls-2" cx="285.01" cy="222.04" rx="15.88" ry="13.53" transform="translate(-19.06 417.17) rotate(-70.61)"/><path class="cls-2" d="M274,454l-.13.22-.16.28-.32.58-.59,1.26c-.37.84-.67,1.74-1,2.62l-.78,2.73-.56,2.8a24.07,24.07,0,0,0-.38,2.83c-.08.95-.27,1.88-.26,2.85l-.06,2.87,0,1.43.09,1.44a81.22,81.22,0,0,0,4.51,22.61l.88,2.75,1.1,2.71,2.17,5.4c.81,1.77,1.7,3.52,2.54,5.27l1.28,2.63c.43.87.81,1.75,1.33,2.59l2.9,5.1L288,527.5c.48.85.95,1.7,1.51,2.51l6.39,9.86.22.33a7.6,7.6,0,0,1-12.75,8.27c-.15-.24-.3-.5-.43-.75l-5.56-11.2c-.48-.92-.89-1.89-1.29-2.85l-1.23-2.89L272.4,525c-.43-.94-.75-1.95-1.1-2.94l-1.05-3c-.68-2-1.41-3.94-2.05-5.94l-1.67-6.08-.84-3-.62-3.1a89.06,89.06,0,0,1-2.05-25.2l.08-1.58.21-1.59.44-3.16c.12-1.05.44-2.09.65-3.14a28.75,28.75,0,0,1,.79-3.1l1-3.05,1.24-3c.49-1,1-1.94,1.51-2.89l.87-1.4.49-.69.25-.35.32-.4a2,2,0,0,1,3.3,2.3Z"/><path class="cls-2" d="M231.53,448.9l-.38.3-.43.34-.86.8c-.57.55-1.09,1.17-1.63,1.76L226.78,454l-1.26,2.08A37,37,0,0,0,222,465.2l-.57,2.39-.14.6-.08.61-.16,1.23a38.51,38.51,0,0,0-.51,4.92c0,1.67-.15,3.31-.15,5l.27,5a42.56,42.56,0,0,0,.56,5c.25,1.66.42,3.32.72,5l1.08,4.95c.39,1.65.65,3.29,1.18,4.92l1.43,4.89c.5,1.62.87,3.25,1.51,4.85l3.47,9.6.13.38a7.6,7.6,0,0,1-14.3,5.17,8.69,8.69,0,0,1-.28-1L213.82,518c-.44-1.76-.63-3.61-.93-5.42l-.84-5.44c-.33-1.79-.39-3.66-.57-5.49l-.46-5.5c-.09-1.85-.05-3.72-.08-5.56a51.65,51.65,0,0,1,.12-5.56l.43-5.57c.25-1.85.6-3.7.9-5.54a47.48,47.48,0,0,1,1.32-5.48l.37-1.36.18-.67.25-.67,1-2.65A42.73,42.73,0,0,1,221,453.1l1.8-2.23,2-2.05c.74-.63,1.45-1.27,2.24-1.85l1.2-.85.66-.39.33-.2.42-.21a2,2,0,0,1,2.16,3.37Z"/><path class="cls-2" d="M296.25,550.52l-68.07,23a3.05,3.05,0,0,1-4-3.16c1.21-13.84,10.05-52.74,72.32-25.51A3.06,3.06,0,0,1,296.25,550.52Z"/><path class="cls-2" d="M229.24,535l-66.65,7.92a4.18,4.18,0,0,1-4.46-5.49c4.85-14.2,21.89-45.12,73-10A4.19,4.19,0,0,1,229.24,535Z"/><path class="cls-2" d="M362.93,192.61a22.68,22.68,0,0,0-1.52-2.41,24.83,24.83,0,0,0-1.82-2.25,19.62,19.62,0,0,0-4.25-3.55,16.59,16.59,0,0,0-2.33-1.2c-.39-.16-.81-.28-1.2-.42-.2-.06-.39-.14-.59-.19l-.62-.12a16.29,16.29,0,0,0-4.87-.28h-.18a5.22,5.22,0,1,1-.48-10.42,6.26,6.26,0,0,1,1.23.09,25.56,25.56,0,0,1,7.51,2.45l.88.44c.28.16.55.35.83.52.54.36,1.09.7,1.61,1.08a25.39,25.39,0,0,1,2.83,2.53,26.3,26.3,0,0,1,4.26,5.87,29.61,29.61,0,0,1,1.47,3.19,26.07,26.07,0,0,1,1.09,3.4,2,2,0,0,1-3.74,1.47Z"/><path class="cls-2" d="M313.85,403.91a14.11,14.11,0,0,1-.8,2,14.86,14.86,0,0,1-1.06,1.86,20.06,20.06,0,0,1-1.26,1.76c-.48.54-1,1.09-1.49,1.6a18.32,18.32,0,0,1-7.72,4.49,11.92,11.92,0,0,1-2.22.51,11,11,0,0,1-2.27.26c-.76,0-1.51,0-2.27,0s-1.47-.24-2.2-.39c-.36-.07-.73-.14-1.08-.23s-.7-.24-1-.38c-.69-.26-1.36-.54-2-.83a19.15,19.15,0,0,1-3.52-2.46,1.58,1.58,0,0,1-.15-2.22,1.6,1.6,0,0,1,1.12-.54h.26a30.05,30.05,0,0,1,3.78.22c.6,0,1.19,0,1.76.08.29,0,.57.06.86.09s.56,0,.84,0c.56,0,1.11,0,1.66,0s1.08-.09,1.61-.09a11.73,11.73,0,0,0,1.59-.16,10.3,10.3,0,0,0,1.57-.27,20.21,20.21,0,0,0,6.1-2.37,36.36,36.36,0,0,0,5.77-4.18l.13-.12a1.26,1.26,0,0,1,2,1.32Z"/><path class="cls-2" d="M297.23,173.09a25.49,25.49,0,0,1,2.31-2.73,32.61,32.61,0,0,1,2.59-2.38,26.77,26.77,0,0,1,6.19-3.78,26.18,26.18,0,0,1,3.59-1.24c.62-.16,1.26-.25,1.9-.38.32-.05.64-.12,1-.16l1-.07a25.85,25.85,0,0,1,7.88.63,5.21,5.21,0,1,1-2.11,10.21,5.33,5.33,0,0,1-1.15-.37l-.19-.09a15.85,15.85,0,0,0-4.6-1.62L315,171c-.2,0-.41,0-.62,0-.42,0-.84-.08-1.27-.09a17.77,17.77,0,0,0-2.6.22,19.75,19.75,0,0,0-5.3,1.64,25.26,25.26,0,0,0-2.55,1.38,24.22,24.22,0,0,0-2.32,1.64l-.19.15a2,2,0,0,1-2.88-2.79Z"/><path class="cls-2" d="M260.21,380.42a1.1,1.1,0,0,0,.41-.34,1.08,1.08,0,0,0,.21-.5,1.14,1.14,0,0,0-.11-.64l-.1-.16s-.05-.06,0-.06,0-.05,0-.06l.2,0,.5.09,1.09.16c.73.11,1.47.21,2.2.3,1.48.18,2.94.34,4.4.47,2.91.27,5.78.45,8.59.5a57,57,0,0,0,16-1.74,34.06,34.06,0,0,0,13.54-7.31c4.09-3.5,7.54-8.14,11.07-13.24h0a1,1,0,0,1,1.41-.26,1,1,0,0,1,.43.89,33.91,33.91,0,0,1-6.54,18.37,31.9,31.9,0,0,1-7.47,7.23,33,33,0,0,1-9.48,4.53,39.65,39.65,0,0,1-20.12.51,43.52,43.52,0,0,1-9.24-3.19,39.38,39.38,0,0,1-4.25-2.38c-.68-.45-1.35-.92-2-1.43-.32-.27-.64-.54-1-.83l-.5-.46-.28-.29-.21-.24-.09-.11a1.77,1.77,0,0,1-.14-.22,1.11,1.11,0,0,1-.12-.7,1.14,1.14,0,0,1,.21-.54,1.34,1.34,0,0,1,.44-.36,1.1,1.1,0,0,1,.94,2Z"/><path class="cls-2" d="M418.14,316.5l1,.92c.39.33.8.66,1.21,1,.82.64,1.67,1.25,2.54,1.84a37.46,37.46,0,0,0,5.38,3,24.11,24.11,0,0,0,10.92,2.29,19.25,19.25,0,0,0,9.68-3.34,34.83,34.83,0,0,0,8.13-7.94,8.52,8.52,0,0,1,13.6,10.26,7,7,0,0,1-.66.78l-.14.15a50.43,50.43,0,0,1-13.54,10.12,33.67,33.67,0,0,1-17.47,3.52,37,37,0,0,1-16.11-5.41,47.54,47.54,0,0,1-6.49-4.73c-1-.87-2-1.76-2.91-2.7-.46-.47-.92-.94-1.37-1.44l-.68-.76-.74-.87a5,5,0,0,1,7.18-7Z"/><path class="cls-6" d="M302.77,395.2c-2.85,4.26-8.15,6.67-10.7,4-3.3-3.44,4.29-14.88,11.2-14.67C307,384.65,305.62,390.94,302.77,395.2Z"/><ellipse class="cls-2" cx="487.05" cy="302.13" rx="34.48" ry="23.45" transform="translate(-37.16 533.88) rotate(-55.66)"/><ellipse class="cls-2" cx="97.54" cy="377.47" rx="34.48" ry="23.45" transform="translate(-269.17 245.09) rotate(-55.66)"/><ellipse class="cls-2" cx="466.34" cy="292.69" rx="12.27" ry="18.04"/><ellipse class="cls-2" cx="120.87" cy="379.69" rx="18.04" ry="12.27" transform="translate(-268.38 294.53) rotate(-60)"/></svg>