<svg id="Layer_1" data-name="Layer 1" xmlns="http://www.w3.org/2000/svg" viewBox="0 0 700 700"><defs><style>.cls-1{fill:#f7c860;}.cls-2{fill:#0b6c71;}.cls-3{fill:#0e4c4c;}.cls-4{fill:#118f98;}.cls-5{fill:#1bc5c9;}.cls-6{fill:#353638;}</style></defs><title>Flow FLAT</title><polygon class="cls-1" points="330.43 529.21 200.56 558.39 207.31 578.82 224.08 635.15 342.69 614.1 330.43 529.21"/><path class="cls-2" d="M450.78,80.15c2.27.84,4.31,1.69,6.42,2.62s4.15,1.9,6.18,2.94a103.35,103.35,0,0,1,11.84,7,60.62,60.62,0,0,1,10.66,9.16,37.49,37.49,0,0,1,4.35,5.85,26.69,26.69,0,0,1,1.69,3.33c.48,1.13.89,2.25,1.26,3.37a67.42,67.42,0,0,1,2.76,13.63,68.72,68.72,0,0,1,.06,13.83,45.53,45.53,0,0,1-3.39,13.63,27.24,27.24,0,0,1-8.86,11.37,32.53,32.53,0,0,1-6.23,3.53,20.93,20.93,0,0,1-7.18,1.66,17.9,17.9,0,0,1-7.36-1.2,20.61,20.61,0,0,1-6.22-3.82,25.42,25.42,0,0,1-4.66-5.43c-.33-.5-.63-1-.92-1.57-.15-.27-.27-.54-.42-.85a9.43,9.43,0,0,1-.37-1,12.25,12.25,0,0,1-.29-3.9,19.69,19.69,0,0,1,1.95-7,14.62,14.62,0,0,1,4.69-5.72,9.56,9.56,0,0,1,3.62-1.51,9.15,9.15,0,0,1,4,.12,7.77,7.77,0,0,1,3.48,2,8.88,8.88,0,0,1,2.12,3.26,11.62,11.62,0,0,1,.19,7.34c-.36,1.19-.75,2.16-1.17,3.24s-.89,2.09-1.39,3.11a27.28,27.28,0,0,1-8.63,10.56,21.48,21.48,0,0,1-11.53,3.7,1.45,1.45,0,0,1-1.52-1.45h0a20.27,20.27,0,0,0,12-3.77,25.21,25.21,0,0,0,7.67-10c.44-1,.85-2,1.22-3s.76-2.09,1-3a9.1,9.1,0,0,0-.32-5.69,5.53,5.53,0,0,0-3.8-3.39,6.15,6.15,0,0,0-2.63,0,6.64,6.64,0,0,0-2.42,1.1,11.44,11.44,0,0,0-3.47,4.56,16.34,16.34,0,0,0-1.44,5.77,8.74,8.74,0,0,0,.25,2.68,4.94,4.94,0,0,0,.2.51c.09.18.21.42.33.62.24.43.51.86.8,1.28a21.79,21.79,0,0,0,4.09,4.48,15.05,15.05,0,0,0,10.78,3.68c3.84-.27,7.56-2.19,10.82-4.67a22.27,22.27,0,0,0,6.94-9.55,40.35,40.35,0,0,0,2.6-12.11,63.13,63.13,0,0,0-.44-12.66,61.82,61.82,0,0,0-2.87-12.26c-.35-1-.73-1.91-1.14-2.81a19.36,19.36,0,0,0-1.39-2.53,30.79,30.79,0,0,0-3.71-4.67,54,54,0,0,0-9.68-7.79A96.12,96.12,0,0,0,460,92.53c-1.93-.92-3.9-1.78-5.88-2.58s-4-1.59-5.93-2.22Z"/><path class="cls-2" d="M400.51,210.42s-7.36-54.94-16.28-72.06c-.42-.81-4.58-7.87-4.58-7.87s16.17-31.3,43.71-6.56-22.85,86.49-22.85,86.49"/><path class="cls-2" d="M375.12,134.37s17.14,22,20.33,29.07c8.63,19.12,5.06,47,5.06,47s-13.13-24.07-24.35-29.74-25.52-6.82-26.43-17.89S351.65,135.59,375.12,134.37Z"/><path class="cls-2" d="M298.43,647.76c0-.31.71-1,.71-1l.8-1.22,1.63-2.52,3.24-5.16q3.21-5.24,6.32-10.59,6.22-10.72,12-21.77c7.65-14.71,14.65-29.76,20.82-45.08a401.42,401.42,0,0,0,15.71-46.69A276.53,276.53,0,0,0,368.18,466a182.69,182.69,0,0,0-1.71-47.16,129.57,129.57,0,0,0-15.59-43.25,122.72,122.72,0,0,0-13.51-18.75l-4.21-4.7c-1.51-1.66-3-3.34-4.47-5.06s-3-3.4-4.38-5.16-2.89-3.47-4.27-5.27c-11.22-14.2-21.35-29.63-28.82-46.72a141.55,141.55,0,0,1-8.75-26.76,113.57,113.57,0,0,1-2.6-28.41,106.28,106.28,0,0,1,4.85-28.1,118.12,118.12,0,0,1,11.62-25.54,155.73,155.73,0,0,1,16.25-22c3-3.4,6-6.65,9.05-9.8l4.43-4.61,2.27-2.41c.81-.85,1.63-1.66,2.45-2.47a199.51,199.51,0,0,1,20.59-17.25,254.4,254.4,0,0,1,22.14-14.64,228.8,228.8,0,0,1,48.25-21.69,178.76,178.76,0,0,1,25.84-5.93c2.19-.35,4.39-.56,6.58-.84s4.42-.39,6.61-.56a121.41,121.41,0,0,0,12.53-1.23c4-.72,7.91-1.85,10.66-3.92A8.36,8.36,0,0,0,486.87,70a10.56,10.56,0,0,0,.44-5,22.83,22.83,0,0,0-1.49-5.54c-.38-.93-.77-1.86-1.22-2.77a23.17,23.17,0,0,0-1.39-2.52,11.74,11.74,0,0,0-8.64-5.76,17.18,17.18,0,0,0-10.85,3,21.21,21.21,0,0,0-4.52,3.81,12.5,12.5,0,0,0-2.82,4.84,4,4,0,0,0,1.17,4.3,10.62,10.62,0,0,0,5.27,2,45.13,45.13,0,0,0,12.56-.54l.32,1.64a46.69,46.69,0,0,1-13.15,1.41,12.85,12.85,0,0,1-6.82-2.16,6.69,6.69,0,0,1-2.4-3.31,8,8,0,0,1-.17-4,15.71,15.71,0,0,1,3.23-6.48,25.34,25.34,0,0,1,5.07-4.8,24.85,24.85,0,0,1,6.27-3.24,18.94,18.94,0,0,1,7.23-1,15.66,15.66,0,0,1,7.21,2.27,18.74,18.74,0,0,1,5.39,5.13,24.59,24.59,0,0,1,1.88,3.05c.55,1,1,2,1.52,3.1a28.32,28.32,0,0,1,2.1,6.85,15.78,15.78,0,0,1-.53,7.81,14.44,14.44,0,0,1-4.74,6.53,23.87,23.87,0,0,1-6.52,3.56,45.71,45.71,0,0,1-6.69,1.9A131.16,131.16,0,0,1,461.44,86c-2.11.27-4.18.57-6.26.88S451,87.58,449,88a168.76,168.76,0,0,0-24.21,7A217.94,217.94,0,0,0,380,118.29a242.42,242.42,0,0,0-20.2,15.07,184.88,184.88,0,0,0-18.14,17c-.67.74-1.35,1.49-2,2.24l-2,2.42-4.26,5c-2.78,3.23-5.45,6.42-8,9.69a137.12,137.12,0,0,0-13.32,20.36,98.29,98.29,0,0,0-8.55,22A86.17,86.17,0,0,0,300.93,235c.27,15.4,4.88,30.61,12,44.76s16.88,27.35,27.75,39.6c1.34,1.55,2.75,3.05,4.14,4.56s2.82,3,4.26,4.47,2.88,2.95,4.36,4.4l4.7,4.68a152,152,0,0,1,18,22.2,160.71,160.71,0,0,1,22.42,52.43,216.88,216.88,0,0,1,5.32,55.81,320.19,320.19,0,0,1-6.51,54.57,442.12,442.12,0,0,1-14.2,52.33c-5.73,17.07-12.32,33.78-19.63,50.15Q358.1,637.24,352,649.3c-2,4-4.1,8-6.25,12q-1.6,3-3.28,6l-1.71,3-.89,1.54h0c-.55.93-2.05-.24-2.67.64C335,675.69,296.14,676.49,298.43,647.76Z"/><path class="cls-3" d="M368,115.68c.62-.12,1.17-.43,1.58,0s1,1.17,1.53,1.77c.73.85,1.44,1.72,2.15,2.58,1.4,1.74,2.76,3.49,4.09,5.27q4,5.34,7.53,10.94a145.88,145.88,0,0,1,12.19,23.55,111.49,111.49,0,0,1,4.21,12.6,93.4,93.4,0,0,1,2.43,13.05,77.18,77.18,0,0,1,.17,13.25,68,68,0,0,1-2.22,11.9,1.09,1.09,0,0,1-1.32.75h0a1.07,1.07,0,0,1-.79-1.23,64.17,64.17,0,0,0,1-11.55,73.08,73.08,0,0,0-1.36-12.44,87.93,87.93,0,0,0-3.46-12,105.91,105.91,0,0,0-5.09-11.42,137.92,137.92,0,0,0-13.58-21c-2.56-3.29-5.25-6.49-8.05-9.57q-2.1-2.31-4.28-4.53l-2.19-2.18-1.34-1.27a1.09,1.09,0,0,1,0-1.55S358.6,117.42,368,115.68Z"/><path class="cls-3" d="M468.67,287.63a1.62,1.62,0,0,1-2.12-.53,128.91,128.91,0,0,0-13.28-16.68,81.75,81.75,0,0,0-17.12-14.21,43.19,43.19,0,0,0-9.64-4.31,27.13,27.13,0,0,0-9.78-1.15c-6.39.43-12.2,3.61-17.12,8.27-.63.55-1.2,1.2-1.81,1.79l-2,2.05q-2,2.06-4,4.15-3.93,4.15-7.74,8.42-7.65,8.51-14.69,17.39c-2.36,3-4.66,6-7,9.05s-4.65,6.22-7.48,9.54a52.16,52.16,0,0,1-4.83,5,36.5,36.5,0,0,1-6.31,4.62,41.55,41.55,0,0,1-7,3.2c-1.73.6-3.4,1.08-5,1.5-.9.23-1.1-1-2-1.26-5.67-1.73-9.87-8.78-3.28-17.12.56-.71.43-1.75,1.32-1.9s2-.37,2.94-.59a21.82,21.82,0,0,0,3.69-1.25,17.05,17.05,0,0,0,3.25-1.92,36,36,0,0,0,3.49-3.06c2.42-2.36,5-5.27,7.6-8.12s5.28-5.81,8-8.68q8.18-8.64,16.83-16.72,4.31-4,8.71-7.95,2.21-2,4.42-3.88l2.24-1.95c.86-.68,1.65-1.39,2.55-2a52.13,52.13,0,0,1,5.51-3.66,44.36,44.36,0,0,1,6.11-2.88,38.41,38.41,0,0,1,6.61-1.79,34.88,34.88,0,0,1,6.84-.47,37.11,37.11,0,0,1,13,2.87,51.74,51.74,0,0,1,10.95,6.31,88.67,88.67,0,0,1,16.91,17.18,132.74,132.74,0,0,1,11.89,18.58,1.62,1.62,0,0,1-.65,2.17Z"/><path class="cls-3" d="M204.61,207.25a1.7,1.7,0,0,1-1.68-1.61,74.44,74.44,0,0,1,.31-10.34,65,65,0,0,1,2.3-11.94,45.44,45.44,0,0,1,5.23-11.62,34.06,34.06,0,0,1,9.46-9.82,29.1,29.1,0,0,1,3-1.84,17.47,17.47,0,0,1,3.36-1.47,21.66,21.66,0,0,1,16,.91,28.84,28.84,0,0,1,6.39,4.07,50.33,50.33,0,0,1,8.95,10,103.19,103.19,0,0,1,6.45,10.63c3.83,7.16,7,14.41,10,21.62s5.82,14.4,8.68,21.47,5.73,14,8.89,20.57a100.82,100.82,0,0,0,5,9.21,36.52,36.52,0,0,0,4.19,5.61,1.67,1.67,0,0,1,0,2.3s6.18,15.28-11.92,12.6c-1-.14-1.82.7-2.49,0a53,53,0,0,1-7.17-10.37,120.63,120.63,0,0,1-5.36-11.36c-3.1-7.5-5.64-14.92-8.12-22.26s-4.83-14.62-7.33-21.75-5.11-14.14-8.14-20.73a89.44,89.44,0,0,0-5-9.39,37.06,37.06,0,0,0-5.88-7.53,15.42,15.42,0,0,0-3.15-2.34,8.46,8.46,0,0,0-3.06-1,8.81,8.81,0,0,0-3.33.24c-.55.17-1.33.32-2,.54a19.58,19.58,0,0,0-2.11.75,22.87,22.87,0,0,0-7.68,5.36,36.63,36.63,0,0,0-6,8.45,57.86,57.86,0,0,0-4.1,10.16,69.24,69.24,0,0,0-2.16,9.48,1.7,1.7,0,0,1-1.68,1.45Z"/><path class="cls-3" d="M427.64,339.16a40.41,40.41,0,0,0-6.6,4.35l-1.55,1.26L418,346.1c-1,.86-1.91,1.86-2.84,2.78a75.76,75.76,0,0,0-9.57,12.5l-2,3.37c-.65,1.13-1.2,2.33-1.79,3.48-1.23,2.28-2.17,4.74-3.19,7.1-.54,1.17-.92,2.44-1.36,3.65L396,382.64c-.74,2.49-1.42,5-2.13,7.46l-.13.46a10.52,10.52,0,1,1-20.21-5.82,10.73,10.73,0,0,1,1.09-2.52c1.56-2.59,3.09-5.17,4.67-7.71l2.56-3.72c.87-1.23,1.66-2.48,2.63-3.65,1.88-2.36,3.64-4.75,5.71-6.95,1-1.1,2-2.24,3-3.3l3.2-3.14A85.18,85.18,0,0,1,410.54,343c1.28-.73,2.52-1.51,3.85-2.15l2-1,2-.89a43.67,43.67,0,0,1,8.42-2.74,1.54,1.54,0,0,1,1,2.88Z"/><path class="cls-3" d="M312.58,512.75c-2.65-6-4.9-12.07-7-18.27s-3.83-12.5-5.29-18.91c-2.87-12.82-4.66-26.13-3.48-39.92a70.36,70.36,0,0,1,4.9-20.68,51.66,51.66,0,0,1,12.92-18.4,56.46,56.46,0,0,1,19.64-11.35A87.29,87.29,0,0,1,355.69,381h0a10.42,10.42,0,1,1,1.75,20.77c-.4,0-.81,0-1.21,0a68.09,68.09,0,0,0-16.71,1.31,42.72,42.72,0,0,0-7.64,2.39,33.94,33.94,0,0,0-6.84,3.77,36.36,36.36,0,0,0-10.54,11.87,56.94,56.94,0,0,0-5.84,16.27c-2.42,11.75-2.29,24.43-.94,37,.69,6.27,1.71,12.55,3,18.79s2.83,12.47,4.71,18.52v0a1.54,1.54,0,0,1-2.87,1.08Z"/><path class="cls-4" d="M314.44,513.6s-10.53-28.6-10.86-61.83c0-.91,2.48-28.79,8.07-42.91,4.08-10.27,16.17-31.3,43.71-6.56s-40.92,111.3-40.92,111.3"/><path class="cls-4" d="M315.05,395.65S302.79,412.3,300,431.73c-6.18,42.41,14.48,81.87,14.48,81.87s-30.9-3-47.16-39.21c-5.16-11.46-8.39-37.62-1.31-56.87C269.8,407.09,294.94,389.69,315.05,395.65Z"/><path class="cls-2" d="M196.77,231s48.16,67.8-1.35,171c-22.48,46.86-3.08,61.86-3.08,61.86s16-39.31,52.4-72.6c21.74-19.86,42.07-126.22-21.62-158.56a91.89,91.89,0,0,1-22.22-16.25Z"/><circle class="cls-5" cx="218.41" cy="291.57" r="30.09"/><circle class="cls-5" cx="211.24" cy="348.45" r="23"/><path class="cls-6" d="M198.27,284.85a15.05,15.05,0,0,0,.36,3.72,4.9,4.9,0,0,0,1.48,2.86,1.91,1.91,0,0,0,1.31.38,5.19,5.19,0,0,0,1.66-.44,15.42,15.42,0,0,0,3.24-2.17h0a.61.61,0,0,1,.83.89,16.24,16.24,0,0,1-3.31,2.76,6.58,6.58,0,0,1-2.22.85,4,4,0,0,1-2.63-.46,5.4,5.4,0,0,1-1.83-1.82,10.64,10.64,0,0,1-1-2.11,18.51,18.51,0,0,1-.9-4.39,1.5,1.5,0,0,1,3-.27,1,1,0,0,1,0,.17Z"/><path class="cls-6" d="M214.92,288.85a15.69,15.69,0,0,0,.28,3.74,5.17,5.17,0,0,0,1.47,3c.74.64,2,.52,3.18,0a14.89,14.89,0,0,0,3.35-2.15h0a.27.27,0,0,1,.37.39,15.61,15.61,0,0,1-3.2,2.78,6.35,6.35,0,0,1-2.12.86,3.75,3.75,0,0,1-2.52-.39,5.25,5.25,0,0,1-1.8-1.73,10.06,10.06,0,0,1-1-2.08,17.8,17.8,0,0,1-1-4.36,1.5,1.5,0,1,1,3-.32,1.55,1.55,0,0,1,0,.22Z"/><path class="cls-6" d="M198.44,304.22a25.62,25.62,0,0,0,4.37,4.78,14,14,0,0,0,5.33,2.83,11.23,11.23,0,0,0,3,.41,15.12,15.12,0,0,0,3.06-.22,35.86,35.86,0,0,0,6.28-1.79h0a.78.78,0,0,1,.77,1.32,17,17,0,0,1-6.37,3.44,13.6,13.6,0,0,1-7.59.09,13.88,13.88,0,0,1-6.41-4,15.59,15.59,0,0,1-3.56-6.35.63.63,0,0,1,1.12-.53Z"/><path class="cls-6" d="M201.33,344a10.62,10.62,0,0,0,.17,2.57,3.51,3.51,0,0,0,.87,1.89,1.09,1.09,0,0,0,.75.25,3.06,3.06,0,0,0,1.1-.26,10.14,10.14,0,0,0,2.31-1.46h0a.61.61,0,0,1,.86.1.62.62,0,0,1,0,.8,11.86,11.86,0,0,1-2.37,2.05,5,5,0,0,1-1.67.66,3.06,3.06,0,0,1-2.07-.34,5.43,5.43,0,0,1-2.21-3,13.62,13.62,0,0,1-.72-3.23,1.5,1.5,0,1,1,3-.32,1.85,1.85,0,0,1,0,.23Z"/><path class="cls-6" d="M213.23,346.82a11.3,11.3,0,0,0,.09,2.59,3.6,3.6,0,0,0,.86,2,2,2,0,0,0,2.06.08,10.92,10.92,0,0,0,2.43-1.45h0a.27.27,0,0,1,.38.05.29.29,0,0,1,0,.35,11.23,11.23,0,0,1-2.26,2.07,4.76,4.76,0,0,1-1.57.68,3,3,0,0,1-2-.28,5.31,5.31,0,0,1-2.21-2.84,13.3,13.3,0,0,1-.81-3.2,1.51,1.51,0,1,1,3-.39,1.13,1.13,0,0,1,0,.32Z"/><path class="cls-6" d="M201.18,357.74a22.64,22.64,0,0,0,3.24,3.19,10,10,0,0,0,3.67,1.84,5.37,5.37,0,0,0,1,.19,4.22,4.22,0,0,0,1,.09c.34,0,.68,0,1,0s.7-.11,1.06-.13a4.54,4.54,0,0,0,1.08-.19l1.11-.22c.74-.2,1.47-.46,2.29-.61l.11,0a.78.78,0,0,1,.91.61.79.79,0,0,1-.25.73,17.42,17.42,0,0,1-2.09,1.59,13.14,13.14,0,0,1-2.48,1.09A9.7,9.7,0,0,1,202.46,363a10.68,10.68,0,0,1-2.43-4.75.63.63,0,0,1,1.1-.55Z"/><path class="cls-2" d="M482.2,307.36s-20.48,80.59,62.88,159c37.87,35.6,25.18,56.59,25.18,56.59S541.2,492,495.2,474.09c-27.43-10.68-84.73-102.57-37-155.69a91.65,91.65,0,0,0,14.86-23.17Z"/><circle class="cls-5" cx="480.36" cy="373.04" r="26.33"/><circle class="cls-5" cx="504.42" cy="419.68" r="23"/><circle class="cls-5" cx="539.63" cy="461.44" r="23"/><path class="cls-6" d="M553.33,452.92a14.49,14.49,0,0,1-.78,3.58,8.41,8.41,0,0,1-.84,1.74,4.61,4.61,0,0,1-1.55,1.52,3.38,3.38,0,0,1-2.24.38,5.7,5.7,0,0,1-1.84-.72,13.43,13.43,0,0,1-2.66-2.27.62.62,0,0,1,0-.87.61.61,0,0,1,.8,0h0a11.92,11.92,0,0,0,2.59,1.68,3.64,3.64,0,0,0,1.28.32,1.33,1.33,0,0,0,.92-.3,3.88,3.88,0,0,0,1.05-2.18,12,12,0,0,0,.23-2.92v0a1.51,1.51,0,0,1,3-.12A1.48,1.48,0,0,1,553.33,452.92Z"/><path class="cls-6" d="M541.13,456.08a15.18,15.18,0,0,1-.86,3.56,5.85,5.85,0,0,1-2.41,3.14,3.18,3.18,0,0,1-2.12.31,5.46,5.46,0,0,1-1.74-.73,13.06,13.06,0,0,1-2.55-2.29.28.28,0,0,1,0-.39.27.27,0,0,1,.35,0h0a12,12,0,0,0,2.7,1.66,2.29,2.29,0,0,0,2.4-.06A4,4,0,0,0,538,459a12.15,12.15,0,0,0,.15-2.94v0a1.51,1.51,0,0,1,3-.22A2.71,2.71,0,0,1,541.13,456.08Z"/><path class="cls-6" d="M552.79,464.88a12.08,12.08,0,0,1-2.78,5.23,10.82,10.82,0,0,1-11.47,3.24,15.35,15.35,0,0,1-2.76-1.17,23.11,23.11,0,0,1-2.36-1.73.77.77,0,0,1,.66-1.35l.11,0c.91.2,1.73.5,2.56.74l1.25.27a5.27,5.27,0,0,0,1.22.24c.41,0,.81.09,1.2.15s.79,0,1.18,0a4.88,4.88,0,0,0,1.15-.11,5.27,5.27,0,0,0,1.12-.21,11.22,11.22,0,0,0,4.18-2.13,24.11,24.11,0,0,0,3.59-3.68l0-.06a.64.64,0,0,1,.89-.1A.63.63,0,0,1,552.79,464.88Z"/><path class="cls-6" d="M520.92,406.46a11.08,11.08,0,0,1-.64,2.7,4.65,4.65,0,0,1-1.93,2.52,2.72,2.72,0,0,1-1.81.29,4.18,4.18,0,0,1-1.41-.58,9.65,9.65,0,0,1-2-1.73.63.63,0,0,1,.05-.87.61.61,0,0,1,.78,0h0a7.57,7.57,0,0,0,1.87,1.14,2.28,2.28,0,0,0,.85.18.68.68,0,0,0,.49-.2,2.87,2.87,0,0,0,.59-1.45,8.66,8.66,0,0,0,.09-2,1.51,1.51,0,0,1,3-.24A1.38,1.38,0,0,1,520.92,406.46Z"/><path class="cls-6" d="M511.2,408.8a10.85,10.85,0,0,1-.72,2.67,4.54,4.54,0,0,1-1.94,2.4,2.53,2.53,0,0,1-1.69.22,3.9,3.9,0,0,1-1.32-.59,9.3,9.3,0,0,1-1.83-1.76.27.27,0,0,1,.36-.39h0a8.45,8.45,0,0,0,2,1.12c.69.25,1.31.21,1.55-.1a3,3,0,0,0,.58-1.57,8.36,8.36,0,0,0,0-2.06,1.52,1.52,0,0,1,3-.37,1.78,1.78,0,0,1,0,.4Z"/><path class="cls-6" d="M519.37,418.11a8.45,8.45,0,0,1-1.92,4,8.09,8.09,0,0,1-4,2.6,8,8,0,0,1-4.75-.11,11,11,0,0,1-2.05-.95,12.76,12.76,0,0,1-1.69-1.39.79.79,0,0,1,.65-1.34l.12,0a18.94,18.94,0,0,1,1.89.41l.9.14a3.2,3.2,0,0,0,.86.13c.28,0,.56.05.84.08s.53,0,.8,0a2.91,2.91,0,0,0,.78-.07,3.82,3.82,0,0,0,.75-.14,8.4,8.4,0,0,0,2.9-1.39,22.84,22.84,0,0,0,2.72-2.47l.06-.06a.64.64,0,0,1,.91,0A.65.65,0,0,1,519.37,418.11Z"/><path class="cls-6" d="M504.26,367.49a15,15,0,0,1-.78,3.58,8.17,8.17,0,0,1-.84,1.74,4.61,4.61,0,0,1-1.55,1.52,3.38,3.38,0,0,1-2.24.38A5.7,5.7,0,0,1,497,374a13.11,13.11,0,0,1-2.66-2.27.61.61,0,0,1,.83-.9h0a11.92,11.92,0,0,0,2.59,1.68,3.64,3.64,0,0,0,1.28.32,1.34,1.34,0,0,0,.91-.29,3.89,3.89,0,0,0,1.06-2.19,12,12,0,0,0,.23-2.92v0a1.51,1.51,0,0,1,3-.12A1.48,1.48,0,0,1,504.26,367.49Z"/><path class="cls-6" d="M490.91,370.69a15.06,15.06,0,0,1-.86,3.56,5.85,5.85,0,0,1-2.41,3.14,3.18,3.18,0,0,1-2.12.31,5.25,5.25,0,0,1-1.74-.73,12.78,12.78,0,0,1-2.55-2.29.28.28,0,0,1,0-.39.29.29,0,0,1,.35,0h0a11.43,11.43,0,0,0,2.7,1.66,2.32,2.32,0,0,0,2.4-.05,4.08,4.08,0,0,0,1.05-2.31,12.15,12.15,0,0,0,.15-2.94v0a1.51,1.51,0,0,1,3-.22A2.71,2.71,0,0,1,490.91,370.69Z"/><path class="cls-6" d="M502.47,383.4a12.33,12.33,0,0,1-2.78,5.24,10.82,10.82,0,0,1-11.47,3.24,15.18,15.18,0,0,1-2.77-1.18,21.35,21.35,0,0,1-2.36-1.73.76.76,0,0,1-.09-1.08.77.77,0,0,1,.76-.26l.11,0c.9.2,1.73.5,2.56.75l1.25.27a5.59,5.59,0,0,0,1.22.23c.4,0,.8.09,1.2.15s.79,0,1.18,0a4.44,4.44,0,0,0,1.15-.1,4.83,4.83,0,0,0,1.12-.22,11,11,0,0,0,4.17-2.13,22.8,22.8,0,0,0,3.59-3.68l0-.05a.65.65,0,0,1,.9-.1A.66.66,0,0,1,502.47,383.4Z"/><path d="M219.32,581.18a2.87,2.87,0,0,1,.24-1.88,21.49,21.49,0,0,1,6-7.68,22,22,0,0,1,8.89-4.35A13.34,13.34,0,0,1,236,567a4.38,4.38,0,0,1,1,0,3.12,3.12,0,0,1,1.37,1.07,4.19,4.19,0,0,1,.84,1.52,4.81,4.81,0,0,1,.1,2.32,7.7,7.7,0,0,1-.91,2,5.16,5.16,0,0,1-1.12,1.39,3.55,3.55,0,0,1-1.27.57l-.95.23a2.12,2.12,0,0,1-.89,0c-.35-.08-.73-.19-1.12-.31a7.59,7.59,0,0,0-1.14-.25,2.62,2.62,0,0,0-1.11.06,29.48,29.48,0,0,0-5.19,2.91,1.55,1.55,0,0,0-.82,1,7.12,7.12,0,0,0,.19,1.85,5.84,5.84,0,0,1,.15.87q0,.47.09,1.05c0,.4.06.75.1,1.07a6.65,6.65,0,0,0,.16.91,7,7,0,0,0,.53,1.42,2.48,2.48,0,0,0,.53.86c.14,0,.35,0,.61,0s.4,0,.37,0a5.19,5.19,0,0,0,1-.57,14.42,14.42,0,0,1,1.48-.87,33.85,33.85,0,0,1,5.13-2.26,2.21,2.21,0,0,1,1,.14,3.63,3.63,0,0,1,1.15.56,2,2,0,0,1,.76.79,6.1,6.1,0,0,1,.45,1.33,6.74,6.74,0,0,1,.23,1.74,3.3,3.3,0,0,1-.46,1.43,3.52,3.52,0,0,1-2.31,1.82l-.77.14c-.24,0-.56.12-1,.21a20.73,20.73,0,0,0-3.72,1.19,3.54,3.54,0,0,0-1.72,1.45,3.16,3.16,0,0,0-.11,2.25s.4,1.14,1.2,3.35a50.35,50.35,0,0,1,1.69,5.36,8.2,8.2,0,0,1,.27,1.51,5.62,5.62,0,0,1-.22,1.43,4.92,4.92,0,0,1-.49,1.37,1.53,1.53,0,0,1-1,.59c-.23,0-.56-.12-1-.5a5.72,5.72,0,0,1-1.17-1.45,14.73,14.73,0,0,1-1.09-2.7c-.35-1.1-.79-2.65-1.34-4.64s-1-3.52-1.35-4.57c-.21-.64-.47-1.32-.78-2.06a12.42,12.42,0,0,1-.55-1.53,5.82,5.82,0,0,1-.11-1.48c0-.59,0-1.06,0-1.41a10.51,10.51,0,0,0-.33-1.83c-.41-1.71-.76-3-1.07-3.87a4.73,4.73,0,0,0-1-1.84l-.33-.29a2.07,2.07,0,0,1-.37-.42A3,3,0,0,1,219.32,581.18Z"/><path d="M246.64,592.27q-1-4.21-1.68-7.7c-.45-2.33-.81-4.36-1.1-6.12s-.43-2.67-.44-2.74q-.36-3.88,1.83-4.41c.15,0,.35.07.58.32a3.53,3.53,0,0,1,.59.84,34.75,34.75,0,0,1,1.06,3.32q.81,2.79,1.84,7.07c.45,1.89.78,3.39,1,4.51s.49,2.57.84,4.38.6,3.09.79,3.85a2.75,2.75,0,0,0,.71,1.42,1.16,1.16,0,0,0,1.1.29,19.35,19.35,0,0,0,4.26-2.18c2.08-1.27,3.54-2.14,4.4-2.61a12.58,12.58,0,0,1,3.18-1.15,1.42,1.42,0,0,1,1,.24,1.93,1.93,0,0,1,.83,1.28,7.46,7.46,0,0,1,.18,2,6.18,6.18,0,0,1-.28,1.77,3,3,0,0,1-1.08,1.39,13.44,13.44,0,0,1-2.07,1.24c-.82.42-2,1-3.62,1.76s-2.82,1.4-3.71,1.91a14.68,14.68,0,0,1-3.91,1.72,2.53,2.53,0,0,1-2.85-.75,7.2,7.2,0,0,1-.95-2.05c-.33-1-.67-2.14-1-3.5S247.3,595,246.64,592.27Z"/><path d="M268.56,590a20.49,20.49,0,0,1-.42-7.17,30.25,30.25,0,0,1,2.05-7.82,21.06,21.06,0,0,1,4.15-7,12.75,12.75,0,0,1,6.48-3.55,6.63,6.63,0,0,1,2.86-.09,8.36,8.36,0,0,1,2.94,1.29,12.7,12.7,0,0,1,2.5,2,14.09,14.09,0,0,1,2,2.64,19.2,19.2,0,0,1,1.52,3.16,32.27,32.27,0,0,1,1.11,3.69,17.69,17.69,0,0,1,.4,3.62,16.88,16.88,0,0,1-.42,4.05,8.11,8.11,0,0,1-1.42,3.19s-.18.57-.46,1.63a13.75,13.75,0,0,1-1.43,3.28,11.06,11.06,0,0,1-3.23,3.28,16.89,16.89,0,0,1-5.93,2.48,9.92,9.92,0,0,1-3.68.22,8.76,8.76,0,0,1-3.37-1.27,14,14,0,0,1-3.14-2.72,12.29,12.29,0,0,1-1.58-2.28A11.56,11.56,0,0,1,268.56,590Zm11.21-17.55a10.43,10.43,0,0,0-4,1.92,9.49,9.49,0,0,0-2.66,3.12,8.76,8.76,0,0,0-1,3.22,7.21,7.21,0,0,0,0,1.83,4.84,4.84,0,0,0-.19,1.19,8.31,8.31,0,0,0,.3,2.51,6.2,6.2,0,0,0,1.94,2.91,10.84,10.84,0,0,0,3.82,2.34,7.43,7.43,0,0,0,4.38.31,9.24,9.24,0,0,0,3.5-1.9,11.59,11.59,0,0,0,2.65-2.74,10.41,10.41,0,0,0,.68-7.68,11.11,11.11,0,0,0-1.91-4.13,7.83,7.83,0,0,0-3.29-2.62A6.63,6.63,0,0,0,279.77,572.42Z"/><path d="M317.48,552.09c.42-.1.77.09,1.07.57a10.13,10.13,0,0,1,.93,2.74c.27,1.13.54,2.67.82,4.61s.51,4,.71,6.3.33,4.66.4,7.23,0,4.91-.1,7a44.48,44.48,0,0,1-.84,6.89c-.33,1.24-.9,2-1.7,2.15a1.51,1.51,0,0,1-1.27-.18,2.66,2.66,0,0,1-.81-.92c-.2-.38-.75-1.43-1.64-3.15-1.08-2.07-1.95-3.64-2.63-4.69s-1.14-1.74-1.39-2c-1-1.67-1.69-2.48-2-2.41s-.27,1.25-.14,3.59c0,.65,0,1.13,0,1.47s0,.78,0,1.34c0,2.84,0,4.88-.06,6.13a4.93,4.93,0,0,1-.81,2.75,4.61,4.61,0,0,1-.88.74,4.15,4.15,0,0,1-.86.53,1.63,1.63,0,0,1-1.25-.17,3.29,3.29,0,0,1-1-1.13,17.49,17.49,0,0,1-1-2l-1.25-2.92c-.64-1.45-1.3-2.83-2-4.12s-1.54-3-2.61-5-1.88-3.59-2.42-4.78a17.18,17.18,0,0,1-1.13-3.1,6.65,6.65,0,0,1,0-3c.23-1.07.6-1.66,1.1-1.78s.84.11,1.27.63a13.77,13.77,0,0,1,1.46,2.39c.55,1.09,1.13,2.21,1.75,3.37a31.54,31.54,0,0,0,1.86,3.11c.48.69.88,1.33,1.21,1.91s.71,1.3,1.16,2.17.74,1.41.87,1.6.25.28.38.25.31-.36.35-.94a23.43,23.43,0,0,0,0-2.66c-.05-1.19-.11-2.75-.18-4.67,0-.47-.05-1.41-.13-2.82s-.13-2.49-.16-3.24a9.5,9.5,0,0,1,.07-1.85,7.73,7.73,0,0,1,.84-2.43c.44-.81.76-1.24,1-1.29a.72.72,0,0,1,.81.27,4.08,4.08,0,0,1,.54,1.43c0,.09.05.25.08.46s.07.45.1.69.06.4.08.49.22.34.66,1a22.65,22.65,0,0,1,1.24,2.07c.47.91,1,1.89,1.7,2.93l2,3.12c.64,1,1.13,1.89,1.47,2.57.85,1.7,1.47,2.5,1.85,2.41q.19,0,.33-1.05a11.91,11.91,0,0,0,.1-2.2c0-1-.09-2.33-.27-4.06s-.28-2.9-.34-3.49c0-.14,0-.29,0-.45s0-.75-.12-1.77-.16-2.08-.26-3.21-.25-2.53-.46-4.18a7.87,7.87,0,0,1-.06-1.88,6.45,6.45,0,0,1,.5-1.52C316.88,552.74,317.25,552.15,317.48,552.09Z"/><path class="cls-3" d="M330.93,433.85a18.57,18.57,0,0,0-1.6-3.18l-.48-.76-.52-.73c-.33-.5-.73-.95-1.1-1.42a34,34,0,0,0-5.09-4.94l-1.4-1.06c-.47-.35-1-.65-1.46-1-1-.67-2-1.22-3-1.8-.5-.3-1-.54-1.56-.8l-1.57-.77c-1.08-.46-2.17-.89-3.23-1.34l-.2-.08a4.74,4.74,0,0,1,3.67-8.74,5.15,5.15,0,0,1,1.07.62c1.07.83,2.15,1.65,3.2,2.49l1.53,1.34c.51.46,1,.88,1.5,1.37.95,1,1.93,1.88,2.8,2.92.45.51.9,1,1.32,1.53l1.24,1.6a38.24,38.24,0,0,1,4.08,6.88c.26.61.54,1.2.76,1.84l.34.93.29.94a20.06,20.06,0,0,1,.78,3.91.69.69,0,0,1-.63.75.69.69,0,0,1-.71-.45Z"/><path class="cls-3" d="M320.48,451.75a14.36,14.36,0,0,0-1.24-2.48l-.38-.59-.4-.57c-.26-.39-.57-.74-.85-1.11a27.16,27.16,0,0,0-4-3.84l-1.09-.83c-.37-.27-.77-.51-1.14-.76-.74-.52-1.56-.95-2.35-1.4-.38-.24-.81-.42-1.21-.63l-1.22-.59-2.52-1.05-.15-.06a3.69,3.69,0,1,1,2.86-6.81,4.85,4.85,0,0,1,.83.48c.84.65,1.67,1.29,2.49,1.95l1.19,1c.4.35.8.68,1.17,1.07.74.75,1.51,1.46,2.19,2.27.34.4.7.78,1,1.19l1,1.24a30,30,0,0,1,3.18,5.36c.2.48.43.94.59,1.43l.27.73.22.74a14.37,14.37,0,0,1,.61,3,.54.54,0,0,1-1,.23Z"/><path class="cls-3" d="M318.57,474.12a12.83,12.83,0,0,0-1.15-2.28l-.34-.54-.38-.53c-.23-.36-.52-.68-.78-1a24.9,24.9,0,0,0-3.65-3.54l-1-.76c-.34-.25-.71-.47-1.05-.71-.69-.48-1.44-.87-2.16-1.29-.36-.22-.75-.39-1.12-.57l-1.13-.55c-.77-.34-1.55-.65-2.32-1l-.14-.06A3.4,3.4,0,0,1,306,455a3.11,3.11,0,0,1,.77.45c.77.6,1.55,1.18,2.3,1.79l1.1,1c.36.32.73.62,1.07,1,.69.69,1.39,1.35,2,2.1.31.36.64.71.94,1.09l.89,1.15a27.12,27.12,0,0,1,2.93,4.94c.18.44.39.86.54,1.32l.25.66.21.68a15.2,15.2,0,0,1,.56,2.81.5.5,0,0,1-1,.22Z"/><path class="cls-3" d="M285,426.89a17.14,17.14,0,0,1,2.25-2.52l.62-.58.66-.55c.42-.37.9-.69,1.35-1a32,32,0,0,1,5.87-3.28l1.55-.63c.51-.21,1.06-.36,1.58-.54,1-.38,2.14-.63,3.2-.92.53-.15,1.09-.24,1.63-.35l1.62-.32c1.1-.16,2.21-.29,3.29-.44l.2,0a4.5,4.5,0,0,0-1.22-8.91,4.72,4.72,0,0,0-1.13.31c-1.2.5-2.38,1-3.55,1.5l-1.73.86c-.58.29-1.15.55-1.71.89-1.11.65-2.23,1.25-3.29,2-.53.36-1.07.69-1.58,1.07l-1.52,1.17a36.37,36.37,0,0,0-5.43,5.31c-.39.5-.79,1-1.14,1.5l-.54.77-.5.8a18.42,18.42,0,0,0-1.67,3.39.65.65,0,0,0,.39.84.66.66,0,0,0,.76-.24Z"/><path class="cls-3" d="M282.08,446a14.29,14.29,0,0,1,1.84-2.07l.52-.48L285,443c.35-.31.74-.57,1.11-.85a26.55,26.55,0,0,1,4.82-2.69l1.27-.52c.42-.17.87-.3,1.3-.45.85-.31,1.75-.51,2.63-.75.43-.12.89-.19,1.33-.29l1.33-.26,2.7-.36.17,0a3.69,3.69,0,0,0-1-7.32,3.91,3.91,0,0,0-.92.26c-1,.41-2,.81-2.92,1.23l-1.42.7c-.47.24-.94.45-1.4.73-.91.54-1.83,1-2.7,1.64-.43.29-.87.57-1.29.88l-1.25,1a30.67,30.67,0,0,0-4.46,4.36c-.31.42-.65.8-.94,1.24l-.44.63-.41.65a15.38,15.38,0,0,0-1.37,2.79.54.54,0,0,0,.32.69.56.56,0,0,0,.63-.2Z"/><path class="cls-3" d="M282.16,469.13a13.77,13.77,0,0,1,1.7-1.91l.47-.43.5-.42c.32-.28.68-.52,1-.78a25.14,25.14,0,0,1,4.44-2.48l1.17-.48c.39-.15.8-.27,1.2-.41.78-.28,1.62-.47,2.42-.69.4-.12.82-.18,1.23-.26l1.23-.25,2.49-.33.15,0a3.4,3.4,0,0,0-.93-6.74,3.44,3.44,0,0,0-.85.23c-.91.38-1.8.75-2.69,1.14l-1.31.65c-.43.22-.87.41-1.29.67-.84.49-1.68.94-2.48,1.5-.4.28-.81.53-1.2.82l-1.15.88a27.36,27.36,0,0,0-4.1,4c-.3.38-.6.73-.87,1.13l-.41.58-.38.61a13.94,13.94,0,0,0-1.26,2.57.49.49,0,0,0,.3.63.48.48,0,0,0,.57-.18Z"/><path class="cls-3" d="M405.84,146.68a13.55,13.55,0,0,0-2.29-1.51l-.61-.33-.62-.29c-.41-.2-.85-.36-1.27-.53a25.84,25.84,0,0,0-5.29-1.35l-1.34-.18c-.45-.05-.91-.06-1.35-.1-.89-.08-1.81,0-2.7,0-.44,0-.9,0-1.35.06l-1.34.09-2.67.33-.16,0a3.65,3.65,0,0,1-.89-7.24,3.77,3.77,0,0,1,1,0c1,.15,2.07.28,3.1.44l1.53.32c.51.11,1,.19,1.52.34,1,.28,2,.52,3,.88.49.17,1,.32,1.46.52l1.44.59a29.93,29.93,0,0,1,5.35,3c.41.32.82.6,1.21.94l.58.5.56.52a15.5,15.5,0,0,1,2,2.31.53.53,0,0,1-.13.74.54.54,0,0,1-.65,0Z"/><path class="cls-3" d="M409.1,161.07a11.22,11.22,0,0,0-1.78-1.18l-.47-.25-.49-.22c-.32-.16-.66-.28-1-.42a19.94,19.94,0,0,0-4.12-1.05l-1-.14c-.35,0-.71-.05-1.06-.08-.69-.06-1.4,0-2.1,0-.34,0-.7,0-1.05.05l-1,.07-2.08.26h-.13a2.84,2.84,0,0,1-.69-5.64,3,3,0,0,1,.74,0c.81.12,1.62.22,2.41.35l1.2.24c.39.09.79.15,1.18.27.79.21,1.57.4,2.33.68.38.14.76.25,1.14.41l1.12.46a22.71,22.71,0,0,1,4.16,2.37c.32.24.65.46,1,.73l.45.38.43.41a10.9,10.9,0,0,1,1.57,1.8.42.42,0,0,1-.11.58.41.41,0,0,1-.5,0Z"/><path class="cls-3" d="M415.42,179.61a10.52,10.52,0,0,0-1.63-1.09l-.44-.23-.45-.21c-.29-.14-.61-.25-.91-.38a18.76,18.76,0,0,0-3.8-1l-1-.13-1-.07c-.64-.06-1.3,0-1.94,0-.32,0-.64,0-1,0l-1,.06c-.64.07-1.28.16-1.91.24h-.12a2.61,2.61,0,0,1-.63-5.19,3.09,3.09,0,0,1,.68,0l2.22.32,1.1.23c.36.08.73.14,1.09.24.72.2,1.44.37,2.15.64.35.12.7.23,1,.37l1,.42a21.41,21.41,0,0,1,3.84,2.19c.29.22.59.43.86.67l.42.35.4.38a11.06,11.06,0,0,1,1.45,1.66.38.38,0,0,1-.1.53.37.37,0,0,1-.46,0Z"/><path class="cls-3" d="M370.45,160.62a13.77,13.77,0,0,1,.56-2.68l.21-.65.24-.65c.15-.43.36-.85.54-1.27a25.62,25.62,0,0,1,2.81-4.67l.84-1.07c.28-.35.6-.68.89-1,.58-.68,1.26-1.3,1.89-1.93.31-.32.67-.6,1-.9l1-.88,2.14-1.63.13-.1a3.65,3.65,0,0,0-4.45-5.78,3.86,3.86,0,0,0-.67.67c-.64.83-1.28,1.65-1.89,2.49l-.88,1.29c-.28.44-.59.85-.84,1.31-.52.91-1.07,1.78-1.52,2.73-.22.47-.47.92-.68,1.39l-.6,1.43a29.75,29.75,0,0,0-1.69,5.92c-.07.51-.16,1-.2,1.52l-.07.76,0,.76a14.52,14.52,0,0,0,.19,3.07.53.53,0,0,0,.61.43.54.54,0,0,0,.44-.48Z"/><path class="cls-3" d="M382.29,173.48a11.14,11.14,0,0,1,.25-2.12l.12-.52.14-.52c.09-.35.22-.69.33-1a20.15,20.15,0,0,1,1.86-3.82l.57-.89c.2-.29.42-.57.63-.85.4-.57.88-1.1,1.32-1.63.22-.27.48-.51.72-.77l.73-.75,1.54-1.42.1-.08a2.84,2.84,0,1,0-4.33-3.61l-1.3,2.06-.58,1.07c-.19.35-.4.7-.57,1.07-.34.74-.7,1.46-1,2.22-.15.38-.31.75-.43,1.13l-.37,1.15a23.17,23.17,0,0,0-.9,4.71c0,.4-.06.79-.05,1.19v.6l0,.59a11.33,11.33,0,0,0,.36,2.36.41.41,0,0,0,.51.29.41.41,0,0,0,.3-.39Z"/><path class="cls-3" d="M390.48,188.86a9.41,9.41,0,0,1,.41-1.92l.15-.48.17-.46c.11-.31.25-.61.38-.91a18.87,18.87,0,0,1,2-3.35l.61-.77c.2-.25.43-.49.64-.73.41-.49.9-.93,1.35-1.39.22-.23.48-.43.72-.64l.73-.63,1.53-1.18.1-.07a2.62,2.62,0,0,0-3.19-4.15,2.47,2.47,0,0,0-.48.49c-.46.59-.92,1.18-1.36,1.78l-.63.93c-.21.31-.42.61-.61.94-.37.65-.76,1.28-1.08,2-.17.33-.34.66-.49,1l-.44,1a21.56,21.56,0,0,0-1.2,4.25,10.55,10.55,0,0,0-.15,1.09l-.05.55,0,.54a10.88,10.88,0,0,0,.13,2.2.38.38,0,0,0,.76,0Z"/><path class="cls-4" d="M476.67,308.2s-26.11,80.51,57.25,158.89c37.87,35.6,36.34,55.83,36.34,55.83S530,492.76,484.05,474.85c-27.44-10.69-84.74-102.57-37-155.7,9.73-10.82,21-23.34,21-23.34Z"/><path class="cls-5" d="M505.38,329.41s5.9-15.91-1.27-22.29c-4.92-4.38-10.82-8.89-13.09-13.18-5.46-10.32-22-22.95-29.56-3.44-5.89,15.09-5.06,18.69-9.4,21.16-1.9,1.08-13.3,5.26-13.3,5.26s4.15,7.3,21.56,2.62c4.82-1.29,13.14-10.18,13.14-10.18s.69,9.41-.25,13.2a81.7,81.7,0,0,1-9.07,21.36s22.14-10.47,24.49-19c.94-3.42,1.31-14.13,1.31-14.13s4.9,2,7.44,3.51C503.28,317.73,505.38,329.41,505.38,329.41Z"/><path class="cls-3" d="M414.19,251.07a25.78,25.78,0,0,1,18.23,3.14c8.93,5.48-.83-8.46-.83-8.46l-6.4-3.87s-12.11-2.09-15-.83S412,244.4,412,244.4Z"/><path class="cls-4" d="M202.23,229.76s53.38,65.68,3.87,168.84c-22.48,46.86-13.76,65.18-13.76,65.18s26.64-42.63,63.08-75.92C277.16,368,297.49,261.64,233.8,229.3c-13-6.59-28-14.2-28-14.2Z"/><path class="cls-5" d="M176.15,259.31s-1.25-15.26.1-20.67c1.59-6.39,6.88-12.2,7.45-17,1.38-11.59,12.22-29.32,26.34-13.87,10.93,12,13.89,14.22,18.83,15,2.16.32,9-1.1,9-1.1s-1.32,8-13,13.49c-4.52,2.11-19.22-5.42-19.22-5.42s2.28,11.6,3.59,15.28,10.82,15.25,10.82,15.25-17.69-3.44-22.95-10.54c-2.11-2.85-6.32-12.7-6.32-12.7s-5.42,7-7,9.42C181.67,249.51,176.15,259.31,176.15,259.31Z"/></svg>