<svg id="Layer_1" data-name="Layer 1" xmlns="http://www.w3.org/2000/svg" viewBox="0 0 700 700"><defs><style>.cls-1{fill:#f97870;}.cls-2{fill:#363637;}.cls-3{fill:#4f5356;}.cls-4{fill:#6d7278;}.cls-5{fill:#fff;}.cls-6{fill:#f7c860;}.cls-7{fill:#d16966;}</style></defs><title>Indexer FLAT</title><path class="cls-1" d="M145.65,214.1l-10,45.37s-3.07.62-4,0-35.9-57.13,9.14-45.37Z"/><path class="cls-2" d="M176.19,275.22c0,2.76.1,5.73.32,8.57s.58,5.7,1.06,8.46a59.94,59.94,0,0,0,2,8,27.31,27.31,0,0,0,3.13,6.72,8.83,8.83,0,0,0,3.95,3.56,7.28,7.28,0,0,0,4.35.08,19.74,19.74,0,0,0,2.85-1,29.92,29.92,0,0,0,3.07-1.58,51.05,51.05,0,0,0,6.24-4.38,8.78,8.78,0,1,1,11,13.67,8.59,8.59,0,0,1-1,.72l-.16.09a67.41,67.41,0,0,1-9.2,4.58,37,37,0,0,1-11.09,2.7,23.93,23.93,0,0,1-6.52-.47,19.77,19.77,0,0,1-6.39-2.65,20,20,0,0,1-4.86-4.43,25.82,25.82,0,0,1-3.09-5,39.27,39.27,0,0,1-3-10,68.24,68.24,0,0,1-.91-9.63c-.09-3.17,0-6.29.19-9.38s.52-6.11,1-9.29a3.57,3.57,0,0,1,7.09.57Z"/><path class="cls-3" d="M485.79,235.57c-4.75-2.33-10.4.55-15.38,3.64a102.45,102.45,0,0,0-20.16-24.69c2.26-10.26,3.95-22.66.33-27.31-19.45-25-71.54-25-71.54-25l-8.37,28c-42.95,4.86-86.56,33.84-113.37,80.28-28.87,50-30.47,106.76-8.5,147.22-3.75,5.63-10.85,17.3-10.16,24.21,2.05,20.42,40.34,39.61,40.34,39.61l16.78-19.65a103,103,0,0,0,51.53,8.4L367.86,492s35.21-11.14,42.15-20.81c2.54-3.54,3.32-15.73,3.51-26a167.85,167.85,0,0,0,32.11-29.56c6.8,4.73,14.6,9,17.89,6.41,29.86-23.29,28.32-42.86,28.32-42.86L477,361.56A164.52,164.52,0,0,0,487.25,303l15.09-9.21S509.05,247,485.79,235.57ZM380.08,333.52c-12.28,21.28-32.6,32.54-45.38,25.17s-13.19-30.62-.9-51.89,32.6-32.55,45.38-25.17S392.37,312.24,380.08,333.52Z"/><path class="cls-4" d="M485.79,235.57c-3.88-3.75-13.89-3.68-22.85-2.85a102.87,102.87,0,0,0-27-33.14c1.76-9.3,2.66-19.32-.38-23.49-10.09-13.85-67.08-14.18-67.08-14.18l-9.12,16.94A133.81,133.81,0,0,0,310.6,195.2c-6.49-5.59-14.29-11.3-19.06-11.34-14.07-.12-46.14,32.23-46.14,32.23l14.19,24a182.27,182.27,0,0,0-24.27,43.22c-7-1.54-15.61-2.68-19.16-.17-12,8.51-15.6,56.91-15.6,56.91l23.56,16.76c1.82,20.51,8,39.65,18.16,55.75-3.31,8.78-7.15,21-5.39,26.36,3.74,11.51,37.42,30.67,37.42,30.67l15-17.59a103.58,103.58,0,0,0,47.16,6.83l21.13,22.88s35.79-11.31,42.73-21c3.55-4.95,4.08-20.85,4.14-27.94a168,168,0,0,0,29-26.52c6.62,4.37,15.06,9.07,19.44,8,12.4-3.08,29.32-41.86,29.32-41.86l-15.06-23.79A164.32,164.32,0,0,0,477,291.31l12.28-7.5S494.5,244,485.79,235.57ZM380.72,332.43c-12.93,22.4-36.32,33.12-52.23,23.93s-18.32-34.79-5.39-57.2,36.32-33.11,52.23-23.93S393.66,310,380.72,332.43Z"/><ellipse class="cls-5" cx="365.32" cy="232.18" rx="40.8" ry="24.51" transform="translate(-18.42 432.46) rotate(-60)"/><ellipse class="cls-5" cx="400.45" cy="240.05" rx="40.8" ry="24.51" transform="translate(-7.66 466.82) rotate(-60)"/><ellipse class="cls-2" cx="385.44" cy="232.12" rx="13.04" ry="7.84" transform="translate(-8.3 449.86) rotate(-60)"/><ellipse class="cls-2" cx="348.7" cy="227.18" rx="13.04" ry="7.84" transform="translate(-22.4 415.57) rotate(-60)"/><path class="cls-2" d="M340.57,467.64l-.13.22-.16.29-.32.58-.59,1.25c-.37.85-.67,1.75-1,2.62l-.78,2.73-.56,2.8a24.36,24.36,0,0,0-.38,2.83c-.08,1-.27,1.88-.26,2.85l-.06,2.87,0,1.43.1,1.44a81.22,81.22,0,0,0,4.51,22.61l.88,2.76,1.1,2.71,2.17,5.39c.81,1.78,1.7,3.52,2.54,5.27l1.27,2.63c.44.87.82,1.76,1.34,2.6l2.9,5.1,1.44,2.54c.48.85.95,1.7,1.51,2.52l6.39,9.85.22.33a7.6,7.6,0,0,1-12.75,8.27,8,8,0,0,1-.43-.75l-5.56-11.2c-.48-.91-.89-1.88-1.29-2.85l-1.23-2.88L339,538.69c-.43-1-.75-2-1.1-2.94l-1.05-3c-.68-2-1.41-3.94-2.05-5.93l-1.68-6.08-.83-3-.62-3.11a89.06,89.06,0,0,1-2.05-25.2l.08-1.58.21-1.59.44-3.16c.12-1.05.44-2.09.65-3.13a28.16,28.16,0,0,1,.79-3.1l1-3.05,1.24-3c.49-1,1-1.94,1.51-2.88l.87-1.41.49-.69.25-.35.32-.39a2,2,0,0,1,3.3,2.29Z"/><path class="cls-2" d="M298.08,462.57l-.38.29-.43.35-.86.79c-.57.55-1.09,1.18-1.63,1.76l-1.45,1.93-1.26,2.08a37.08,37.08,0,0,0-3.52,9.1l-.57,2.39-.14.59-.08.62-.16,1.23a38.14,38.14,0,0,0-.51,4.92c0,1.66-.15,3.31-.15,5l.27,5a42.73,42.73,0,0,0,.56,5c.25,1.66.42,3.31.72,5l1.08,4.95c.39,1.64.65,3.29,1.18,4.92l1.43,4.88c.5,1.62.87,3.26,1.51,4.86l3.47,9.6.13.37A7.6,7.6,0,1,1,283,543.3a8.1,8.1,0,0,1-.28-1l-2.34-10.71c-.44-1.76-.63-3.62-.94-5.43l-.83-5.43c-.33-1.79-.4-3.67-.57-5.5l-.46-5.5c-.09-1.84-.05-3.71-.08-5.56a51.71,51.71,0,0,1,.12-5.56l.43-5.56c.25-1.86.6-3.71.9-5.55a48.5,48.5,0,0,1,1.32-5.48l.37-1.35.18-.68.25-.67,1-2.65a42.66,42.66,0,0,1,5.47-9.94l1.8-2.23,2-2.06c.74-.63,1.45-1.27,2.24-1.85l1.2-.85.66-.39.33-.19.42-.22a2,2,0,0,1,2.16,3.37Z"/><path class="cls-2" d="M362.8,564.18l-68.07,23a3,3,0,0,1-4-3.15c1.21-13.85,10.05-52.74,72.32-25.51A3.05,3.05,0,0,1,362.8,564.18Z"/><path class="cls-2" d="M295.79,548.62l-66.65,7.92a4.18,4.18,0,0,1-4.46-5.49c4.85-14.19,21.89-45.11,73-10A4.19,4.19,0,0,1,295.79,548.62Z"/><path class="cls-2" d="M429.48,206.27a23.74,23.74,0,0,0-1.52-2.41,24.83,24.83,0,0,0-1.82-2.25,19.62,19.62,0,0,0-4.25-3.55,17.73,17.73,0,0,0-2.33-1.2c-.39-.16-.81-.27-1.2-.41l-.59-.2-.62-.12a16.29,16.29,0,0,0-4.87-.28h-.18a5.21,5.21,0,0,1-.49-10.41,5,5,0,0,1,1.23.09,25.5,25.5,0,0,1,7.52,2.44l.88.44c.28.16.55.35.83.52.54.36,1.09.7,1.6,1.08a25.61,25.61,0,0,1,2.84,2.53,26.76,26.76,0,0,1,4.26,5.87,30.53,30.53,0,0,1,1.47,3.19,26.07,26.07,0,0,1,1.09,3.4,2,2,0,0,1-3.74,1.47Z"/><path class="cls-2" d="M391.17,339a23.75,23.75,0,0,1,3.31,1.25,30.8,30.8,0,0,1,3.06,1.61A26.55,26.55,0,0,1,403,346.3a25.27,25.27,0,0,1,2.29,2.83c.34.5.63,1,.95,1.57.15.27.32.53.46.81l.38.84a24.3,24.3,0,0,1,2,7.14,3.5,3.5,0,1,1-6.93,1c0-.11,0-.23,0-.35v-.27a17.22,17.22,0,0,0-.81-5.24l-.19-.64c-.07-.21-.18-.41-.26-.61-.19-.41-.35-.83-.56-1.23a19.56,19.56,0,0,0-1.46-2.32,21.36,21.36,0,0,0-4-4,25,25,0,0,0-2.41-1.65,21.08,21.08,0,0,0-2.51-1.32l-.16-.07a2,2,0,0,1,1.4-3.78Z"/><path class="cls-2" d="M328.11,418.55a20.89,20.89,0,0,1-8.23,3.31,24.61,24.61,0,0,1-13.54-1.35,18.65,18.65,0,0,1-4-2.38,15.2,15.2,0,0,1-5.37-7.4,1.62,1.62,0,0,1,1-2.05,1.54,1.54,0,0,1,1.1,0l.19.07c2.69,1.05,4.68,2.29,6.88,3.13l.77.37a7.94,7.94,0,0,0,.81.31l1.57.66c.55.17,1.08.36,1.61.57s1.11.31,1.65.5a44.31,44.31,0,0,0,7,1.36c2.45.27,5.07.42,7.71.54h.15a1.27,1.27,0,0,1,.67,2.32Z"/><path class="cls-2" d="M274.52,346.08a27.28,27.28,0,0,1,2.78-4.27,25.94,25.94,0,0,1,3.58-3.69,19.9,19.9,0,0,1,4.59-2.88,17.78,17.78,0,0,1,5.55-1.41,3.51,3.51,0,1,1,.74,7,2.83,2.83,0,0,1-.5,0h-.16a11.23,11.23,0,0,0-3.48.3,13.78,13.78,0,0,0-3.51,1.48,20.88,20.88,0,0,0-3.28,2.45,23.49,23.49,0,0,0-2.8,3.06l-.1.13a2,2,0,0,1-3.41-2.16Z"/><path class="cls-2" d="M363.78,186.75a26.36,26.36,0,0,1,2.31-2.72,29.21,29.21,0,0,1,2.59-2.38,26.1,26.1,0,0,1,6.19-3.78,24.94,24.94,0,0,1,3.59-1.25c.62-.15,1.26-.25,1.9-.37.32-.06.64-.13,1-.17l1-.07a25.54,25.54,0,0,1,7.88.64,5.21,5.21,0,0,1-2.11,10.21,5.35,5.35,0,0,1-1.15-.38l-.19-.09a15.85,15.85,0,0,0-4.6-1.62l-.62-.12c-.2,0-.41,0-.62-.05-.42,0-.84-.08-1.27-.08a16.47,16.47,0,0,0-2.6.21,20.12,20.12,0,0,0-5.3,1.64,25.26,25.26,0,0,0-2.55,1.38,23,23,0,0,0-2.32,1.64l-.19.15a2,2,0,0,1-2.88-2.79Z"/><path class="cls-2" d="M284.76,340.77a122.34,122.34,0,0,0,7.5,18,72.22,72.22,0,0,0,10.46,15.49,38.22,38.22,0,0,0,14.12,10.12,35.6,35.6,0,0,0,16.93,2.13,58.94,58.94,0,0,0,8.85-1.69,83.37,83.37,0,0,0,8.78-3,135.26,135.26,0,0,0,17.05-8.57c11.16-6.51,21.76-14.32,32.57-22.1a1,1,0,0,1,1.38.22,1,1,0,0,1,0,1.19,167.43,167.43,0,0,1-13.67,14.79,149.17,149.17,0,0,1-15.53,13.08A109.87,109.87,0,0,1,355.41,391a66.92,66.92,0,0,1-20.53,6,42.52,42.52,0,0,1-22.07-3.15,41.8,41.8,0,0,1-9.55-5.94,47.12,47.12,0,0,1-7.52-8,63.54,63.54,0,0,1-9.51-18.74,74.31,74.31,0,0,1-3.65-20.14,1.11,1.11,0,0,1,1.08-1.14,1.12,1.12,0,0,1,1.08.75Z"/><path class="cls-2" d="M529.31,374.5a38.27,38.27,0,0,0-4.75,1.5,25.27,25.27,0,0,0-4.26,2.13,8.91,8.91,0,0,0-2.75,2.53,1.77,1.77,0,0,0-.23,1.72,5.68,5.68,0,0,1-10.92,3.13,5.9,5.9,0,0,1-.2-2l.12-1.35a12.54,12.54,0,0,1,4-8.18,18.67,18.67,0,0,1,6.22-3.73,32.7,32.7,0,0,1,6.07-1.61,45.41,45.41,0,0,1,6-.62,3.28,3.28,0,0,1,.9,6.46Z"/><polygon class="cls-6" points="581.42 334.47 468.47 427.39 511.82 493.66 607.07 388.36 581.42 334.47"/><path class="cls-2" d="M479.7,315.08c.62-.17,1.06-.27,1.57-.39s1-.2,1.48-.28c1-.18,2-.31,2.94-.41a46.5,46.5,0,0,1,5.9-.24,44,44,0,0,1,11.77,1.94A40.9,40.9,0,0,1,523,329.35a53.44,53.44,0,0,1,6.39,10c.95,1.74,1.63,3.56,2.42,5.35s1.34,3.63,2,5.47a118.58,118.58,0,0,1,4.54,22.39,5.5,5.5,0,1,1-10.93,1.24,2.11,2.11,0,0,1,0-.26v-.05a108.64,108.64,0,0,0-3.06-20.55c-.47-1.63-1-3.27-1.48-4.88s-1.12-3.21-1.85-4.71a44.6,44.6,0,0,0-4.89-8.64A32.67,32.67,0,0,0,500.88,323a36,36,0,0,0-9.63-2.1,39.89,39.89,0,0,0-5-.05c-.83,0-1.66.11-2.48.21-.41.05-.82.11-1.22.18s-.83.14-1.09.2l-.2,0a3.27,3.27,0,0,1-1.55-6.35Z"/><path class="cls-2" d="M530.11,369.6c.48-.58.83-1,1.26-1.43s.84-.86,1.28-1.26a28.69,28.69,0,0,1,2.79-2.33A23.42,23.42,0,0,1,542.3,361a17,17,0,0,1,8.67-.38,19.21,19.21,0,0,1,7.83,3.91l.14.11a5.53,5.53,0,0,1-6.9,8.65,6.07,6.07,0,0,1-.73-.7,9,9,0,0,0-3.08-2.47,7.35,7.35,0,0,0-3.94-.58,15.07,15.07,0,0,0-4.79,1.49,22.09,22.09,0,0,0-2.4,1.37c-.4.25-.78.52-1.15.8s-.78.6-1,.79l-.29.23a3.26,3.26,0,0,1-4.52-4.66Z"/><path class="cls-2" d="M532.8,371.11c.52.67.85,1.14,1.24,1.72s.71,1.12,1.05,1.7a29.26,29.26,0,0,1,1.73,3.66,21.66,21.66,0,0,1,1.52,8.43,19,19,0,0,1-.7,4.57,21.1,21.1,0,0,1-1.86,4.31,24.58,24.58,0,0,1-6,6.66l-.14.12a5.53,5.53,0,0,1-6.85-8.68,6.22,6.22,0,0,1,.76-.5,14.77,14.77,0,0,0,4-3.09,11.14,11.14,0,0,0,1.28-1.93,9.71,9.71,0,0,0,.77-2.26,13.22,13.22,0,0,0-.11-5.37,20.49,20.49,0,0,0-.82-2.86c-.18-.47-.37-.94-.57-1.4s-.47-1-.61-1.25l-.18-.34a3.26,3.26,0,0,1,5.48-3.49Z"/><path class="cls-1" d="M135.31,223.38a31,31,0,0,1,8.08-16.15,25.55,25.55,0,0,1,4.17-3.53c5.28-3.57,10.83-3.73,16.46-.9,2.06,1,3.92,2.51,6,3.57,2.52,1.29,4.18.41,4.67-2.36a32,32,0,0,0,.7-5.91c-.18-11.76,0-23.56-.88-35.27-.74-9.76-2-19.46-1.94-29.27a42,42,0,0,1,7-23.9,21.87,21.87,0,0,1,2.51-3.09c4.88-4.94,11.11-4.16,14.42,2a30.72,30.72,0,0,1,4,15.72c-.44,12.62-1.17,25.23-1.54,37.85-.32,11.16-.4,22.33-.45,33.49-.06,13.32.16,26.65,0,40-.19,18.44-.58,36.87-.9,55.31,0,.65-.13,1.3-.18,1.86-19.3,4.91-39.27,5.85-58.07,12.34C137.76,299.59,126,249.25,135.31,223.38Z"/><path d="M507.49,457.92c-1.95-2.11-3.69-4.1-5.22-5.95s-2.58-3.17-3.16-3.94a2.34,2.34,0,0,1-.42-1.27,1.24,1.24,0,0,1,.22-.82c.27-.26.65-.21,1.14.14a25.84,25.84,0,0,1,2.85,2.82c.4.43,1.13,1.25,2.2,2.45s1.93,2.16,2.59,2.88c.33.36.68.72,1,1.09l1.94,2c.93.95,1.57,1.62,1.93,2s.76.83,1,1.09l.81.9c.11.1.2.2.28.28l.33.35a2.8,2.8,0,0,1,.71,1.45,1.5,1.5,0,0,1-.17,1.24c-.29.29-.52.41-.68.39a2.2,2.2,0,0,1-.72-.37,3.57,3.57,0,0,1-.81-.54,21.65,21.65,0,0,1-2.09-2.06c-.18-.2-.4-.46-.65-.78s-.48-.58-.65-.77l-.5-.53-.49-.51-.71-.73C508,458.45,507.73,458.18,507.49,457.92Z"/><path d="M509.15,433.16c.29-.28.76-.24,1.4.15a14.22,14.22,0,0,1,2.5,2.07c.16.15.52.47,1.06,1s1.35,1.31,2.42,2.41,2.35,2.44,3.83,4q2.57,2.79,4.12,4.66c1,1.25,1.76,2.14,2.17,2.65a4.58,4.58,0,0,1,.94,2.08,1.88,1.88,0,0,1-.61,1.56,5.08,5.08,0,0,1-2.84.93,19.29,19.29,0,0,1-4.66-.07,15.5,15.5,0,0,1-4.23-1.07c-.48-.21-.87-.36-1.15-.45s-.48-.07-.57,0,0,.18.21.43.48.62.89,1.12l1.46,1.71,2,2.37a6.77,6.77,0,0,1,1.29,2,1.18,1.18,0,0,1-.25,1.34.53.53,0,0,1-.63.08,3.87,3.87,0,0,1-1-.79c-.44-.42-1.09-1.1-1.94-2q-1.95-2.11-3.31-3.72c-.9-1.07-1.62-1.95-2.17-2.64s-.91-1.16-1.09-1.39a7.31,7.31,0,0,0-1.49-1.14,7.29,7.29,0,0,1-1.42-1,2.65,2.65,0,0,1-.45-1.28,2.3,2.3,0,0,1,0-1.29,2.17,2.17,0,0,1,.52-.65c.11-.11.37-.06.77.14a23,23,0,0,0,2.32,1c.86.32,1.93.66,3.19,1s2.41.69,3.43.95q3,.72,5,1a6,6,0,0,0,2.15.17.72.72,0,0,0,.28-.54,1.6,1.6,0,0,0-.48-.77l-1.65-1.54c-1.06-1-2.07-2-3-2.91l-2.45-2.43-2.37-2.36c-.83-.84-1.7-1.75-2.62-2.74-.53-.59-.94-1.06-1.22-1.43a3.11,3.11,0,0,1-.55-1.13,2.8,2.8,0,0,1,0-.87A1.08,1.08,0,0,1,509.15,433.16Z"/><path d="M514.3,433.46a2.23,2.23,0,0,1-.54-1.26,4,4,0,0,1,.2-1.66,7.66,7.66,0,0,1,.95-1.9,13,13,0,0,1,1.76-2.07,10.33,10.33,0,0,1,3.08-2.06,13.57,13.57,0,0,1,3.54-1,15.52,15.52,0,0,1,3.53-.08,12.29,12.29,0,0,1,3.06.69,15,15,0,0,1,5.39,3.94,9.75,9.75,0,0,1,2.33,6.53,23.34,23.34,0,0,1-2.06,9.47,9.09,9.09,0,0,1-1.93,3,6.28,6.28,0,0,1-2.23,1.6,3.7,3.7,0,0,1-2-.12,3.88,3.88,0,0,1-1.69-1,2.89,2.89,0,0,1-.54-1.13,3.23,3.23,0,0,1-.13-1.32,1.63,1.63,0,0,0,0-.88,5.91,5.91,0,0,0-.94-1.19l-1.69-1.73c-1.19-1.23-2.4-2.5-3.61-3.81-.39-.42-1-1.13-1.88-2.12s-1.48-1.69-1.85-2.09-.41-.41-.52-.43-.25,0-.41.19a2,2,0,0,0-.23.39,1.89,1.89,0,0,1-.31.48C515.26,434.17,514.84,434,514.3,433.46Zm4.53-2.23c-.11.1-.12.29,0,.56a3,3,0,0,0,.46.84l1.3,1.5c.61.7,1.31,1.47,2.1,2.32,2,2.17,3.65,3.87,5,5.12a13.88,13.88,0,0,0,2.55,2.1.63.63,0,0,0,.75-.09,5.36,5.36,0,0,0,1-1.33,8.19,8.19,0,0,0,.58-1.4c.12-.44.3-1.1.54-2s.46-2,.6-2.86.24-1.6.27-2.1a4.26,4.26,0,0,0,0-.86,6,6,0,0,0-.62-1.54,8,8,0,0,0-1.19-1.72,3.16,3.16,0,0,0-.87-.74,3.77,3.77,0,0,0-1-.26,6.82,6.82,0,0,1-1.35-.41c-1.23-.5-3.17-.25-5.84.77a20.68,20.68,0,0,0-2.72,1.19C519.65,430.73,519.13,431,518.83,431.23Z"/><path d="M537,405c.63-.61,1.43-.39,2.39.66a4,4,0,0,1,.76,1.06,5,5,0,0,1,.28,1.19c.14,1.08,0,1.77-.27,2.08a2.79,2.79,0,0,1-.64.47,8,8,0,0,1-.73.34,2.57,2.57,0,0,0-.46.2c-.11.11-.4.49-.88,1.14,0,0-.12.12-.23.25s-.28.31-.48.55-.44.53-.73.91-.55.74-.79,1.1a12.23,12.23,0,0,0-1.08,1.86,1.19,1.19,0,0,0,.07,1,9.32,9.32,0,0,0,1.25,1.55,24.13,24.13,0,0,0,2,2c.45.38.75.51.88.38a4.9,4.9,0,0,1,.35-.75,14.72,14.72,0,0,1,1-1.63,38,38,0,0,1,3-4.25,2.15,2.15,0,0,1,1.58-.66,2,2,0,0,1,1.54.71,4.23,4.23,0,0,1,1,1.51,2,2,0,0,1,0,1.36,3.14,3.14,0,0,1-.79,1.25c-1.14,1.21-2,2.2-2.65,3a13,13,0,0,0-1.39,2.05,2.16,2.16,0,0,0-.37,1.3,2.06,2.06,0,0,0,.31.72c.18.28.41.6.68.95s.44.59.52.7a3.49,3.49,0,0,0,.4.62,1.23,1.23,0,0,0,.62.36c.27.06.45.05.55-.05s.13-.26.37-.76a18.31,18.31,0,0,1,1-1.73,25.62,25.62,0,0,0,1.41-2.69c.5-1.08.85-1.83,1-2.23a4.15,4.15,0,0,1,.82-1.11,1.28,1.28,0,0,1,1.06-.31,2.23,2.23,0,0,1,1.36.81,5,5,0,0,1,.78,1.16,3.17,3.17,0,0,1,.36,1.12,1.15,1.15,0,0,1-.28.7c-.19.26-.43.6-.72,1a8,8,0,0,0-.79,1.52,16.7,16.7,0,0,1-.79,1.64L549.11,430c-.37.67-.76,1.44-1.17,2.33q-.16.33-.45,1.05a8.22,8.22,0,0,1-.33.76,6.86,6.86,0,0,1-2.07,1.07,1.64,1.64,0,0,1-1,.12,2,2,0,0,1-.93-.65,3.23,3.23,0,0,1-.8-1.67,4.88,4.88,0,0,1,.07-2,2.59,2.59,0,0,0,0-.55.51.51,0,0,0-.11-.31c-.07-.1-.23-.3-.49-.6-.08-.1-.18-.24-.29-.4a5.32,5.32,0,0,0-.37-.46,7.74,7.74,0,0,0-1.28-1.19,1,1,0,0,0-.78-.14,2.83,2.83,0,0,1-.88.08,1.75,1.75,0,0,1-.79-.6,3.58,3.58,0,0,1-.57-1.12,5.25,5.25,0,0,1-.33-1.62,4,4,0,0,0-.12-.77,1.8,1.8,0,0,0-.44-.63c-.88-1-1.51-1.63-1.87-2a3.86,3.86,0,0,0-.9-.72,1.13,1.13,0,0,0-.77-.09,1.81,1.81,0,0,1-.46,0,.78.78,0,0,1-.42-.27,3.19,3.19,0,0,1-.58-1.35,5.55,5.55,0,0,1-.22-1.48,8.22,8.22,0,0,1,.81-2.18,43.78,43.78,0,0,1,2.26-4.14c.37-.63.73-1.26,1.07-1.91s.65-1.22.91-1.73.48-.92.65-1.24A2.62,2.62,0,0,1,537,405Z"/><path d="M551.52,404.46c.05,0,.05-.16,0-.34a6.12,6.12,0,0,0-.24-.77c-.11-.32-.25-.69-.4-1.12a41.89,41.89,0,0,1-1.21-4.3,15.79,15.79,0,0,1-.41-2.52,2.9,2.9,0,0,1,.42-2c.22-.21.47-.15.77.17a1.12,1.12,0,0,1,.24.36,1.66,1.66,0,0,1,.08.45,1.94,1.94,0,0,0,0,.38c.12.41.31,1,.58,1.88s.73,2.19,1.37,4l.78,2.19c.21.62.41,1.15.59,1.6a3.06,3.06,0,0,0,.47.89,2.65,2.65,0,0,0,1,.71,13,13,0,0,0,1.9.48c.86.17,1.48.3,1.87.41,1.36.33,2.22.55,2.59.66a4.67,4.67,0,0,1,1.12.48,4.74,4.74,0,0,1,1.14.95,5.59,5.59,0,0,1,1.49,2.25,1.56,1.56,0,0,1-.51,1.48,1,1,0,0,1-.71.14c-.35,0-1.25-.13-2.71-.33l-1-.1c-.36,0-.68-.08-1-.13l-.87-.16c-1.1-.27-1.7-.35-1.8-.25s-.14.76.16,1.73.89,2.71,1.79,5.23a8.46,8.46,0,0,0,.56,1.32c.17.29.43.71.78,1.27a8.22,8.22,0,0,1,.69,1.28,5.83,5.83,0,0,1,.45,1.79,1.37,1.37,0,0,1-.44,1,1.15,1.15,0,0,1-.73.36q-.37,0-1-.63l-.34-.4-.4-.47a17.07,17.07,0,0,1-.79-1.93q-.68-1.79-1.83-5.07c-.35-.94-.71-2-1.1-3.2s-.66-2-.83-2.42a3.26,3.26,0,0,0-.61-1,2.08,2.08,0,0,0-.62-.41l-1.65-.66c-.57-.23-1.44-.63-2.62-1.2-1.7-.83-2.86-1.4-3.46-1.73a5.15,5.15,0,0,1-1.37-1,2,2,0,0,1-.43-.67,1,1,0,0,1-.07-.52c0-.13,0-.3.09-.49s0-.4,0-.6a.69.69,0,0,1,.76-.66,9.45,9.45,0,0,1,2.19.32,21.33,21.33,0,0,1,3.06.94,11.73,11.73,0,0,0,1.4.47A.61.61,0,0,0,551.52,404.46Z"/><path d="M561.65,381c.62-.6,1.42-.38,2.39.67a4,4,0,0,1,.76,1.06,4.91,4.91,0,0,1,.27,1.19c.14,1.08,0,1.77-.26,2.07a2.71,2.71,0,0,1-.64.47,6.09,6.09,0,0,1-.74.34l-.45.2a13.63,13.63,0,0,0-.88,1.14l-.23.26-.48.54c-.2.24-.45.54-.73.91s-.55.74-.79,1.11a10,10,0,0,0-1.08,1.86,1.2,1.2,0,0,0,.07,1,9.52,9.52,0,0,0,1.24,1.55,25.58,25.58,0,0,0,2,2c.45.38.74.51.88.38a3.6,3.6,0,0,1,.35-.76,17.41,17.41,0,0,1,1-1.62,37.79,37.79,0,0,1,3-4.25,2.2,2.2,0,0,1,1.58-.67,2.06,2.06,0,0,1,1.54.72,4.44,4.44,0,0,1,1,1.5,2.14,2.14,0,0,1,0,1.37,3.33,3.33,0,0,1-.79,1.25c-1.14,1.2-2,2.2-2.65,3a13.94,13.94,0,0,0-1.4,2,2.34,2.34,0,0,0-.37,1.3,2.15,2.15,0,0,0,.32.72c.18.28.4.6.67,1s.45.59.53.71a4.13,4.13,0,0,0,.39.61,1.31,1.31,0,0,0,.63.36c.26.07.44.06.54,0s.14-.26.38-.76a15.84,15.84,0,0,1,1-1.73,24.76,24.76,0,0,0,1.41-2.69c.5-1.08.86-1.83,1.06-2.23a4,4,0,0,1,.81-1.11,1.27,1.27,0,0,1,1.07-.31,2.26,2.26,0,0,1,1.36.81,4.91,4.91,0,0,1,.77,1.15,3.26,3.26,0,0,1,.37,1.13,1.24,1.24,0,0,1-.28.7l-.72,1a7.78,7.78,0,0,0-.79,1.53c-.19.46-.46,1-.8,1.64L573.81,406c-.38.66-.77,1.44-1.17,2.33-.11.21-.26.57-.46,1s-.3.74-.32.76a6.91,6.91,0,0,1-2.07,1.06,1.51,1.51,0,0,1-1,.12,2,2,0,0,1-.94-.64,3.22,3.22,0,0,1-.79-1.67,4.71,4.71,0,0,1,.07-2,2.59,2.59,0,0,0,.05-.55.62.62,0,0,0-.11-.32c-.07-.09-.23-.29-.49-.59l-.29-.4a3.32,3.32,0,0,0-.38-.46,7,7,0,0,0-1.27-1.19,1,1,0,0,0-.79-.15,2.59,2.59,0,0,1-.88.09,1.8,1.8,0,0,1-.79-.6,4,4,0,0,1-.56-1.12,5.28,5.28,0,0,1-.34-1.63,5.55,5.55,0,0,0-.11-.77,2,2,0,0,0-.44-.63c-.89-1-1.51-1.62-1.87-2a4.32,4.32,0,0,0-.9-.72,1.2,1.2,0,0,0-.77-.1,1.51,1.51,0,0,1-.47,0,.71.71,0,0,1-.41-.26,3.23,3.23,0,0,1-.59-1.36,5.94,5.94,0,0,1-.22-1.48,8.42,8.42,0,0,1,.82-2.17,41.63,41.63,0,0,1,2.26-4.15c.37-.62.72-1.25,1.07-1.9s.65-1.23.91-1.74.47-.92.64-1.24A3.07,3.07,0,0,1,561.65,381Z"/><path d="M579.83,395.41l-3.06-3.32q-1.82-2-3-3.41c-.82-1-1.34-1.6-1.57-1.91a4.43,4.43,0,0,0-.8-.63l-.79-.52a3.92,3.92,0,0,1-.55-.51,4.36,4.36,0,0,1-.82-1.82,9.11,9.11,0,0,1-.22-2.92,10.17,10.17,0,0,1,.9-3.42,10.81,10.81,0,0,1,2.43-3.4,10.13,10.13,0,0,1,2.86-2.05,5.52,5.52,0,0,1,3.35-.16,5.17,5.17,0,0,1,2.77,1.5,11.24,11.24,0,0,1,2.14,3.4,12,12,0,0,1,.89,3.91,9.65,9.65,0,0,1-.42,3.63,12.53,12.53,0,0,0-.45,1.56,1.19,1.19,0,0,0,.38,1,1.54,1.54,0,0,0,1,.52,10.56,10.56,0,0,0,3.43,0,4.11,4.11,0,0,0,2.1-.92,1.55,1.55,0,0,0,.46-1.33c0-.26-.06-.49-.08-.7a3.16,3.16,0,0,1,0-.61.68.68,0,0,1,.17-.43c.21-.2.52-.21.93,0a4.88,4.88,0,0,1,1.37,1.11,3.5,3.5,0,0,1,.91,1.88,4,4,0,0,1-.22,2.09,5,5,0,0,1-1.24,1.86,5.24,5.24,0,0,1-2.06,1.11,9.73,9.73,0,0,1-3,.39,11.83,11.83,0,0,1-3.33-.54l-1.34-.47a2,2,0,0,0-.93-.14,1.47,1.47,0,0,0-.81.47.72.72,0,0,0-.27.7,2.05,2.05,0,0,0,.49.76l.29.29.32.34a11.79,11.79,0,0,1,2.22,3.21c.42,1,.43,1.68,0,2.08a.83.83,0,0,1-.5.12A2.42,2.42,0,0,1,583,398,9.94,9.94,0,0,1,579.83,395.41Zm-6.35-17.67a6.42,6.42,0,0,0-.7.87c-.24.36-.4.58-.48.68a2.47,2.47,0,0,0-.64,1.18,2.26,2.26,0,0,0,.2,1.35,9.24,9.24,0,0,0,1.14,1.83c.55.7,1.3,1.57,2.26,2.62a6.74,6.74,0,0,0,1,.87,4.27,4.27,0,0,0,.85.53c.37.11.85-.11,1.44-.68a10.65,10.65,0,0,0,2.42-3.5,9.11,9.11,0,0,0,.78-3.77,9.34,9.34,0,0,0-.21-2,2.77,2.77,0,0,0-.65-1.19,4.16,4.16,0,0,0-1.95-1.28,3.2,3.2,0,0,0-1.4.09,8.11,8.11,0,0,0-2,.84A10.13,10.13,0,0,0,573.48,377.74Z"/><path class="cls-2" d="M531.09,369.83c.5-.15.79-.23,1.17-.32l1.08-.24c.71-.15,1.44-.25,2.17-.33a21.5,21.5,0,0,1,4.54,0,17.1,17.1,0,0,1,4.75,1.2,14.51,14.51,0,0,1,4.41,2.89,16.42,16.42,0,0,1,3.15,4.23,22.48,22.48,0,0,1,1.68,4.63,33.26,33.26,0,0,1,.8,8.92v0a5.52,5.52,0,1,1-11-.24,7.48,7.48,0,0,1,.08-.84,23.6,23.6,0,0,0,.42-6.1,12.46,12.46,0,0,0-.47-2.58,7.19,7.19,0,0,0-1-2,7,7,0,0,0-4.05-2.57,14.65,14.65,0,0,0-3-.44c-.52,0-1.05,0-1.58,0l-.78.05-.68.07-.41,0a3.26,3.26,0,0,1-1.28-6.36Z"/><path class="cls-7" d="M162.07,283.56s-31.55-37.94,9.18-37.58c1.18,0-31.67,6.28-26.59-12.49s33.76-18.42,46.1-3.68,0,48.3,0,48.3Z"/></svg>