<svg id="Layer_1" data-name="Layer 1" xmlns="http://www.w3.org/2000/svg" viewBox="0 0 700 700"><defs><style>.cls-1{fill:#3dc6cb;}.cls-2{fill:#fcfdfd;}.cls-3{fill:#353638;}.cls-4{fill:#363637;}.cls-5{fill:#373737;}.cls-6{fill:#36a1a5;}.cls-7{fill:#3dc7cb;}.cls-8{fill:#383838;}.cls-9{fill:#185ebc;}.cls-10{fill:#fc6769;}.cls-11{fill:#fcca6e;}</style></defs><title>Pea FLAT</title><path class="cls-1" d="M279.57,388.49c.67-12.88,2.81-25.4,9-36.94,1.51,2.38,3.43,4.22,6.31,4.78.6,4.63,3,8.43,5.57,12.15l1.06,1.15-.06-.06,1.07,1.05,0-.07c-.26,2,1.21,2.94,2.54,3.93,6.57,4.87,13.65,3.61,19.5.47a34.15,34.15,0,0,0,12.19-10.66c.3-.42,1.16-.46,1.77-.67l-.06,0,.95,1.09h0l1.15,1.92,0-.1c.86,4.12,4.1,6.26,7.25,8.22,9.09,5.64,18.55,5,27.92.8,13.85-6.16,23.6-16.67,30.67-29.84a60,60,0,0,0,7.09-32.43,30.15,30.15,0,0,0-2.73-11.92,26.67,26.67,0,0,1-1.33-4.67c3.4,1.95,7.19,3.46,10.13,5.95a62.05,62.05,0,0,1,21,34.46c1.76,7.7,1.95,15.36,1.75,23.11a78.3,78.3,0,0,1-1.05,8.31,28.46,28.46,0,0,0-4.53-2.9,75.31,75.31,0,0,0-9.26-3c-2.27-.58-3.3.81-3.36,3-1.15.15-1.91.71-1.6,2,.63,2.6,1.63,5,4,6.59,2.87,1.93,5.84,3.71,8.61,5.78,1.3,1,2.12.24,3.13-.21-2.59,10.24-7.64,19.33-13.51,27.95A104.3,104.3,0,0,1,389,440.78c-.86.48-1.65,1.09-2.47,1.64-.15-1.21-.3-2.42-.55-4.46-2,1.46-3.69,2.25-4.77,3.52a30.6,30.6,0,0,0-2.92,5.09c-5.79,1.75-11.52,3.73-17.38,5.18-4.11,1-8.39,1.32-12.6,1.95l-7.81.05c-13.9-.7-26.72-4.66-37.61-13.51a59.74,59.74,0,0,1-18.57-25.44c-2.43-6.39-3.57-13-4.54-19.71Zm110.07,28.34.89-2.09c2.7-5.79,2.23-11.88,1.34-17.9-.54-3.68-1.11-7.1,1.45-10.36a4.43,4.43,0,0,0,.27-5.72c-2.42,1.09-3.89,3-5.29,5a41.87,41.87,0,0,1-10.87,11.45c-6.11,4.13-12.52,7.28-20.11,7.53-2.88.1-5.73.78-9.26,1.28,6.63,6.87,13.7,4.17,20.53,2.5,1.6,3.66,3,7.16,4.65,10.58a9,9,0,0,0,7.2,5.46C384.57,425.15,388.07,422.13,389.64,416.83Z"/><path class="cls-2" d="M300.47,368.48c-2.58-3.72-5-7.52-5.57-12.15,11.33.88,23.64-12.53,21.58-26.17-1.06-7.06-7.71-10.52-14.16-7.41-1.32.64-2.61,1.33-3.92,2a4.18,4.18,0,0,1,0-1.46c3.86-9.2,9.35-17.13,18-22.48,6-3.68,12.22-4.89,18.88-1.93,4.53,3.12,7,7.87,9.48,13.27l1.74-3.31c2.73-2.8,5.18-6,8.25-8.33,5-3.84,10.48-7.14,15.74-10.67l0,0,3.05-1c3.23-.48,6.44-1.08,9.68-1.4,6.5-.65,12.26,1.45,17.52,5.13a18.08,18.08,0,0,0,1.47,1.95c6.78,6.93,8.63,15.6,7.93,24.75-.87,11.26-5.11,21.45-11.73,30.58-7.47,10.29-16.7,18.22-29.14,22.05-10.06,3.1-19.24,2.22-27.39-4.93a4.18,4.18,0,0,0-1.35-.52l0,.1-1.15-1.92h0l-.95-1.09.06,0c-.43-1.57-1-3-2.42-3.8-2.93,2.85-5.51,5.69-8.43,8.1-4.57,3.76-9.77,6.48-15.87,5.67-3.18-.42-6.19-2-9.28-3l0,.07-1.07-1.05.06.06ZM367,329.9a40.63,40.63,0,0,0-.72-5.5c-1.7-6.66-7.5-9.84-14.17-8-5.19,1.44-9.06,4.72-12.34,8.79-2.95,3.66-4.47,8-6.25,12.33a21.08,21.08,0,0,0-1,13.14c1,4.54,3.85,7.67,8.63,8.61,3.82.75,7.26-.53,10.36-2.51C361.16,350.62,366,341.57,367,329.9Z"/><path class="cls-3" d="M378.33,446.57a30.6,30.6,0,0,1,2.92-5.09c1.08-1.27,2.74-2.06,4.77-3.52.25,2,.4,3.25.55,4.46-6.23,10.05-4.43,20,.87,29.57,3.69,6.63,8.3,12.75,12.62,19a56.53,56.53,0,0,0,6.12,7.8,9.67,9.67,0,0,1,0,13.39,47.61,47.61,0,0,1-8.33,7c-11.83,7.3-23.65,14.64-36.18,20.77-4.75,2.32-7.68,2.7-7.33-4.48.36-7.4,3.74-13.33,8.35-18.65a45.56,45.56,0,0,1,26.55-15.41,21.17,21.17,0,0,0,3.13-1.15c-2.31-3.13-4.49-6-6.56-8.92-4.68-6.65-9.25-13.45-10.64-21.64a37,37,0,0,1,0-11.26C375.75,454.44,377.24,450.53,378.33,446.57Z"/><path class="cls-3" d="M424.09,365.57c.06-2.2,1.09-3.59,3.36-3a75.31,75.31,0,0,1,9.26,3,28.46,28.46,0,0,1,4.53,2.9c9.28,8.1,16.8,17.42,20.21,29.5a42.17,42.17,0,0,1,1.68,9.21,8.76,8.76,0,0,0,2.13,5.35c4.12,5.18,5.61,11,5.21,17.64-.61,10.11-12.34,18.65-21.53,15.88-9.57-2.89-14.42-9.3-16.6-18.41-1.78-7.44.61-13.58,6.12-18.73a16.25,16.25,0,0,1,10.3-4.32c1.45-.11,2.91-.16,4.85-.25-2.6-9.91-8.14-17.61-14.47-24.86-2.87-4.35-7.34-6.81-11.51-9.59C425.93,368.78,424.42,367.71,424.09,365.57Z"/><path class="cls-3" d="M279.57,388.49l.25,6.6a8.71,8.71,0,0,0-2.56,1.45c-4,4.62-7.88,9.33-12.12,14.39,4.17,1.85,7.78,3.23,10.57,6.23a13.39,13.39,0,0,1,3.87,10.35,8.3,8.3,0,0,1-2.71,5.67c-3.29,3.27-6.58,2.66-8.77-1.5-.84-1.6-1.36-3.38-2.09-5-.68-1.51-1.43-3-2.19-4.47a3.29,3.29,0,0,0-.65-.77c-2.53,10.42-5,21-7.7,31.54a13.42,13.42,0,0,1-4.46,7.6c-1.41,1.1-2.85,2.32-4.92,1.28-2.22-1.12-2.29-3.19-2-5.08.68-5.06,1.63-10.08,2.47-15.12l.79-1.08-.55-.37-.32,1.39c-2.38,0-3.16,2.14-4.58,3.41-1.7,1.54-3.17,3.43-5.09,4.61a6.5,6.5,0,0,1-4.61.62c-1.94-.52-2.08-2.68-1.59-4.21a58.47,58.47,0,0,1,3.83-9.59c1.68-3.19,3.88-6.1,6.36-9.91a40.58,40.58,0,0,0-5.6,1.33,4.05,4.05,0,0,1-4.9-1.18c-1.32-1.47-.79-3.16.17-4.59a17.45,17.45,0,0,1,3.11-3.81,38.46,38.46,0,0,1,19.26-8.43c2.21-.34,4.55.19,7.29.34C265.57,402.46,271.75,394.73,279.57,388.49Z"/><path class="cls-4" d="M340.54,453.75l7.81-.05c-3.82,9.21-1.81,17.88,2.79,26.12a142.88,142.88,0,0,0,8.91,13.71c1.6,2.23,1.76,4.12.46,6.39a11.82,11.82,0,0,1-5.6,5.44,67,67,0,0,1-7.83,3.09c-12,3.29-23.45,7.92-34.89,12.65a14.63,14.63,0,0,1-9.67,1c1.33-10,5.7-18.21,13.42-24.47s17.22-7.94,27.56-8.09C336.06,477.84,333.41,466.12,340.54,453.75Z"/><path class="cls-5" d="M298.4,324.74c1.31-.66,2.6-1.35,3.92-2,6.45-3.11,13.1.35,14.16,7.41,2.06,13.64-10.25,27-21.58,26.17-2.88-.56-4.8-2.4-6.31-4.78a33,33,0,0,1,9-26l1-.91Z"/><path class="cls-6" d="M340.53,366.5a4.18,4.18,0,0,1,1.35.52c8.15,7.15,17.33,8,27.39,4.93,12.44-3.83,21.67-11.76,29.14-22.05,6.62-9.13,10.86-19.32,11.73-30.58.7-9.15-1.15-17.82-7.93-24.75a18.08,18.08,0,0,1-1.47-1.95l6.64,3,2,1.05,0,0a26.67,26.67,0,0,0,1.33,4.67,30.15,30.15,0,0,1,2.73,11.92,60,60,0,0,1-7.09,32.43c-7.07,13.17-16.82,23.68-30.67,29.84-9.37,4.18-18.83,4.84-27.92-.8C344.63,372.76,341.39,370.62,340.53,366.5Z"/><path class="cls-3" d="M334.48,280.86c.12,5.36-1.8,6.5-5.94,7.7-2,.57-4,.26-5.1-1.94a8.61,8.61,0,0,0-1.19-1.58c-3.49-4.16-6.24-4.11-10.66.4-1.37,1.38-2.32,3.23-3.82,4.4-.82.64-2.4.31-3.64.41-.09-1.07-.5-2.24-.22-3.22,1.84-6.55,9.57-15.53,19.49-16.11C329,270.58,334.79,274.35,334.48,280.86Z"/><path class="cls-3" d="M364.94,264.76c4.16-.6,7,1.52,9.39,4.55a6.9,6.9,0,0,1-.67,8.65c-3.2,3.21-6.07,3.6-9.23,1.24-.4-.3-.72-.7-1.12-1-4.93-3.69-6.79-3.3-10.56,1.8a27.15,27.15,0,0,1-4.79,4.79,2.61,2.61,0,0,1-2.57,0,3,3,0,0,1-.54-2.63,25.18,25.18,0,0,1,11.68-14.91C359.09,265.73,361.75,264.24,364.94,264.76Z"/><path class="cls-7" d="M370.52,289.83c-5.26,3.53-10.71,6.83-15.74,10.67-3.07,2.35-5.52,5.53-8.25,8.33-1-4.21-3.4-7.71-6.06-11a102.36,102.36,0,0,1,23.67-7.8A37.6,37.6,0,0,1,370.52,289.83Z"/><path class="cls-6" d="M424.09,365.57c.33,2.14,1.84,3.21,3.54,4.34,4.17,2.78,8.64,5.24,11.51,9.59l-.94.2c-1,.45-1.83,1.18-3.13.21-2.77-2.07-5.74-3.85-8.61-5.78-2.34-1.57-3.34-4-4-6.59C422.18,366.28,422.94,365.72,424.09,365.57Z"/><path class="cls-6" d="M340.47,297.8c2.66,3.32,5,6.82,6.06,11l-1.74,3.31c-2.52-5.4-5-10.15-9.48-13.27Z"/><path class="cls-7" d="M373.54,288.89l-3.05,1C371.11,288.27,372.4,288.82,373.54,288.89Z"/><path class="cls-1" d="M409.42,296.68l-2-1.05Z"/><path class="cls-2" d="M298.55,324.65l-1,.91C297.87,325.25,298.21,325,298.55,324.65Z"/><path class="cls-4" d="M390.53,416.83c-1.57,5.3-6,8.32-10.09,7.76a9,9,0,0,1-7.2-5.46c-1.61-3.42-3.05-6.92-4.65-10.58-6.83,1.67-13.9,4.37-20.53-2.5,3.53-.5,6.38-1.18,9.26-1.28,7.59-.25,14-3.4,20.11-7.53a41.87,41.87,0,0,0,10.87-11.45c1.4-2.05,2.87-3.94,5.29-5a4.43,4.43,0,0,1-.27,5.72c-2.56,3.26-2,6.68-1.45,10.36.89,6,1.07,15.08-1.64,20.88l-1-1.27c.32-4.26,2-10.56-.44-14.45-5.86.2-9.76,3.65-12.4,8.11-2,3.35-1.41,6.12,2,9,2.76,2.36,5.71,2.29,8.41-.22.84-.79,1.64-1.63,2.45-2.44C389.34,416.57,390.38,416.7,390.53,416.83Z"/><path class="cls-6" d="M302.51,370.55c3.09,1.05,6.1,2.62,9.28,3,6.1.81,11.3-1.91,15.87-5.67,2.92-2.41,5.5-5.25,8.43-8.1,1.44.77,2,2.23,2.42,3.8-.61.21-1.47.25-1.77.67A34.15,34.15,0,0,1,324.55,375c-5.85,3.14-12.93,4.4-19.5-.47C303.72,373.49,302.25,372.57,302.51,370.55Z"/><path class="cls-6" d="M339.41,364.68l1.15,1.92Z"/><path class="cls-6" d="M338.45,363.58l.95,1.09Z"/><path class="cls-6" d="M300.47,368.48l1.06,1.15Z"/><path class="cls-6" d="M301.47,369.57l1.07,1.05Z"/><path class="cls-8" d="M367,329.9c-1,11.67-5.83,20.72-15.46,26.87-3.1,2-6.54,3.26-10.36,2.51-4.78-.94-7.59-4.07-8.63-8.61a21.08,21.08,0,0,1,1-13.14c1.78-4.29,3.3-8.67,6.25-12.33,3.28-4.07,7.15-7.35,12.34-8.79,6.67-1.85,12.47,1.33,14.17,8A40.63,40.63,0,0,1,367,329.9Z"/><path class="cls-9" d="M246.44,441.56l.32-1.39.55.37-.79,1.08Z"/><path class="cls-10" d="M390.19,414.45a3,3,0,0,1-1,2c-.81.81-1.61,1.65-2.45,2.44-2.7,2.51-5.65,2.58-8.41.22-3.39-2.88-3.95-5.65-2-9,2.64-4.46,6.54-7.91,12.4-8.11C391.16,405.89,390.5,410.19,390.19,414.45Z"/><path class="cls-5" d="M425.57,428.17c.13-.72.24-1.45.38-2.17a4.78,4.78,0,0,1,7.22-3.43c6.07,3.28,7.73,12.23,4,16.49a4.82,4.82,0,0,1-3.81,1.09,16.52,16.52,0,0,1-7.69-11.39l-.06-.68Z"/><path class="cls-11" d="M374.61,170.08c7.9-1,15.8-2,23.71-3,10.83-1.3,21.66-2.5,32.49-3.78,4.61-.54,5.52-2.07,5.06-6.61-1-9.61-1.7-19.25-2.52-28.88Q432,111.92,430.67,96a20.15,20.15,0,0,0-.58-3.72c-.61-2.23-2-3.73-4.46-3.78-6.15-.13-12.33-.68-18.43-.18a262.25,262.25,0,0,0-45.44,7.83c-8,2.12-15.77,5-23.57,7.77q-11.15,3.92-22.11,8.3a98.37,98.37,0,0,0-9.34,4.71c-1.25.66-1,1.78-.75,2.95q2.86,12.5,5.64,25c2.05,9.16,4,18.33,6.12,27.48.9,3.95,2.08,5.09,6,4.77,5.84-.48,11.66-1.33,17.46-2.2C349.93,173.63,372.38,168.68,374.61,170.08Z"/><path d="M343.15,116.82a11.22,11.22,0,0,1,2.89-.24,5.08,5.08,0,0,1,2.48,1,6.69,6.69,0,0,1,2.67,4.42,7.82,7.82,0,0,1-.2,3.6,16.12,16.12,0,0,1-1.9,4.15,43.75,43.75,0,0,1-3.65,5c-1.73,2.09-3.14,3.74-4.26,4.91s-2,2-2.56,2.59c-.95.86-1.52,1.4-1.73,1.6a1.11,1.11,0,0,0-.34.67,5.42,5.42,0,0,0,.17,1.29,37,37,0,0,0,1.2,4.39c.4,1.12.82,2.14,1.26,3.09a12.27,12.27,0,0,1,.74,1.78,4.78,4.78,0,0,1-.26,3.1,2.71,2.71,0,0,1-1.91,1.61,1.7,1.7,0,0,1-1.15-.07,2.45,2.45,0,0,1-.87-1.1,24,24,0,0,1-1.24-3.11,36.86,36.86,0,0,1-1.15-4.09c0-.24-.09-.5-.13-.77s-.09-.51-.12-.73-.06-.38-.08-.48a3.3,3.3,0,0,0-.08-.42,4.07,4.07,0,0,0-1.14-1.81,3.61,3.61,0,0,1-1-1.6,3.05,3.05,0,0,1-.1-.82,2.8,2.8,0,0,1,.15-.68l.18-.5a2.72,2.72,0,0,0,.15-1.1,11.45,11.45,0,0,0-.32-1.85,33.42,33.42,0,0,1-.66-4.12c-.13-1.43-.18-2.07-.15-1.93a1.07,1.07,0,0,0-.57-.72,1.78,1.78,0,0,0-1-.21,2.8,2.8,0,0,1-1-.08.82.82,0,0,1-.46-.65,5.63,5.63,0,0,1-.1-2.59,7.08,7.08,0,0,1,1.06-2.34,22.42,22.42,0,0,1,3.31-3.82,36.35,36.35,0,0,1,4.35-3.53,35.16,35.16,0,0,1,4.29-2.57A13.64,13.64,0,0,1,343.15,116.82Zm-1.57,6.67a19.78,19.78,0,0,0-3.11.86,15.09,15.09,0,0,0-3.16,1.78,6.55,6.55,0,0,0-1.62,1.52,2.32,2.32,0,0,0-.37,1.45,21.86,21.86,0,0,0,.49,2.77c.3,1.3.54,2.52.73,3.63.08.46.14.95.18,1.43s.09.77.1.83c.11.5.39.7.85.61a5.46,5.46,0,0,0,2-1.28,23.89,23.89,0,0,0,2.64-2.73c.47-.54.94-1.16,1.44-1.84s.91-1.25,1.27-1.69q2.21-2.79,2.84-3.79a3,3,0,0,0,.38-2.23C345.92,123.39,344.37,122.94,341.58,123.49Z"/><path d="M381.21,112.92c1.68-.22,2.67.59,2.94,2.43a3.44,3.44,0,0,1-.08,1.69,5.8,5.8,0,0,1-1,1.49,5,5,0,0,1-2.83,2.07,7.85,7.85,0,0,1-1.54.06,14.79,14.79,0,0,1-1.52-.14,7.7,7.7,0,0,0-.94-.09c-.28,0-1.19.25-2.68.64l-.64.12-1.37.28c-.58.12-1.31.29-2.17.51s-1.7.46-2.48.7a26.89,26.89,0,0,0-3.78,1.36,1.79,1.79,0,0,0-1.06,1.21,8.45,8.45,0,0,0,.2,2.57,23.1,23.1,0,0,0,.84,3.53c.27.73.58,1.07.93,1a11.75,11.75,0,0,1,1.38-.61c1-.42,2.11-.81,3.28-1.17a87.18,87.18,0,0,1,9.41-2.63,5.64,5.64,0,0,1,3.18.39,2.41,2.41,0,0,1,1.52,1.87,4.06,4.06,0,0,1-.23,2.34,3.37,3.37,0,0,1-1.53,1.5,8,8,0,0,1-2.62.81c-3.09.52-5.54,1-7.37,1.46a33,33,0,0,0-4.38,1.33,4.64,4.64,0,0,0-2,1.21,2.09,2.09,0,0,0-.31,1,10.66,10.66,0,0,0,0,1.52c0,.57,0,.95,0,1.14a3.41,3.41,0,0,0-.08,1,1.37,1.37,0,0,0,.56.82,1.09,1.09,0,0,0,.86.31s.49-.2,1.39-.6,2-.8,3.38-1.25,3.14-1.16,5.1-2,3.33-1.42,4.09-1.72a10.52,10.52,0,0,1,2.47-.63,3,3,0,0,1,1.95.43,2.4,2.4,0,0,1,1.11,1.84,4.59,4.59,0,0,1-.16,1.81,3.83,3.83,0,0,1-.72,1.49,2.68,2.68,0,0,1-1.2.55l-2.22.61a19.06,19.06,0,0,0-2.87,1.11c-.8.38-1.8.8-3,1.25l-3.72,1.4q-1.93.74-4.28,1.8c-.39.17-1,.46-1.81.87s-1.24.63-1.3.64a17.66,17.66,0,0,1-4.21-.17,3.06,3.06,0,0,1-1.56-.49,2,2,0,0,1-.72-1.34,3.3,3.3,0,0,1,.59-2.42,7.89,7.89,0,0,1,2.27-2.22A4.71,4.71,0,0,0,361,145a.71.71,0,0,0,.18-.44c0-.15,0-.48-.09-1a6,6,0,0,1,0-.64,3.38,3.38,0,0,0-.06-.77,6.57,6.57,0,0,0-.64-2.17,1.53,1.53,0,0,0-1-.69,4.6,4.6,0,0,1-1.43-.48c-.25-.15-.43-.55-.55-1.19a3.58,3.58,0,0,1,.36-1.64,6.52,6.52,0,0,1,1.27-2.06,5.2,5.2,0,0,0,.66-.94,1.77,1.77,0,0,0,0-1c-.31-1.67-.54-2.82-.7-3.47a4,4,0,0,0-.6-1.4,2,2,0,0,0-1.08-.61,3,3,0,0,1-.74-.29.76.76,0,0,1-.35-.57,3.26,3.26,0,0,1,.59-1.92,8.18,8.18,0,0,1,1.31-1.82,19.76,19.76,0,0,1,3.72-1.92c2.19-1,4.94-2,8.26-3.12,1.3-.44,2.59-.9,3.88-1.38l3.43-1.27c1-.38,1.82-.68,2.46-.91A7.94,7.94,0,0,1,381.21,112.92Z"/><path d="M402.41,143.09a37.13,37.13,0,0,0-5,.75c-.93.26-1.48.6-1.65,1a6,6,0,0,0-.12,2.42,5.81,5.81,0,0,1-.24,2.36,4.32,4.32,0,0,1-1.07,1.79,2.56,2.56,0,0,1-1.47.76,2,2,0,0,1-1.78-.44,3.41,3.41,0,0,1-.72-2,8.8,8.8,0,0,1,.2-2.82,34,34,0,0,1,1.12-4q.8-2.31,2.09-5.74,1.18-3.13,2.34-5.63c.77-1.65,1.43-3,2-4s1-1.84,1.43-2.5l.78-1.23a18.41,18.41,0,0,1,1.75-2.87c.26-.31.49-.57.67-.77a3.73,3.73,0,0,0,.43-.6.9.9,0,0,0,.14-.53,4.19,4.19,0,0,0-.83-1.63c-.51-.73-.84-1.21-1-1.42a3.39,3.39,0,0,0-.38-.66,1.66,1.66,0,0,0-.52-.29,1,1,0,0,1-.57-.44,2.77,2.77,0,0,1-.2-.84,2.23,2.23,0,0,1,1.2-2.12,5.1,5.1,0,0,1,2.21-1,3.28,3.28,0,0,1,2.22.66,11.55,11.55,0,0,1,2.31,2.33,47,47,0,0,1,2.85,4.24c1.09,1.78,2.51,4.16,4.23,7.15,1.11,2,2.69,4.54,4.71,7.79s3.24,5.32,3.74,6.19a5.66,5.66,0,0,1,.81,2.22,3.65,3.65,0,0,1-.78,2.69A3.17,3.17,0,0,1,421,145.2c-1.09.08-2.15-.54-3.2-1.84-.7-.92-1.16-1.51-1.39-1.76a.93.93,0,0,0-.83-.35,12.16,12.16,0,0,0-2.54.69c-1.24.44-2.19.75-2.85.95a12.55,12.55,0,0,1-2.47.44,18.47,18.47,0,0,1-2.54.06,19.11,19.11,0,0,1-1.93-.18Zm6.51-6.12c2.38-.21,3.55-.49,3.51-.86a3.77,3.77,0,0,0-.17-.93c-.08-.18-.25-.45-.45-.8s-.5-1-1-2.1-1-2.07-1.4-2.93-.88-1.68-1.34-2.44c-.93-1.6-1.59-2.69-2-3.27s-.7-.85-.93-.83-.25.15-.49.42a7.49,7.49,0,0,0-.8,1.14,11.42,11.42,0,0,0-.86,1.81c-.18.48-.51,1.31-1,2.47s-1,2.46-1.71,3.9c-.24.54-.6,1.22-1.06,2a15.86,15.86,0,0,0-.91,1.79,2.18,2.18,0,0,0-.16,1.08,2.3,2.3,0,0,0,.15.68.33.33,0,0,0,.37.2c-.19,0,.36-.19,1.64-.61a18.64,18.64,0,0,1,4.1-.85l1.61.1A19.2,19.2,0,0,0,408.92,137Z"/></svg>