<svg id="Layer_1" data-name="Layer 1" xmlns="http://www.w3.org/2000/svg" viewBox="0 0 700 700"><defs><style>.cls-1{fill:#0b6c71;}.cls-2{fill:#363637;}.cls-3{fill:#108992;}.cls-4{fill:#3dc6cb;}.cls-5{fill:#353638;}.cls-6{fill:#36a1a5;}.cls-7{fill:#3dc7cb;}.cls-8{fill:#fcfdfd;}.cls-9{fill:#185ebc;}.cls-10{fill:#373737;}.cls-11{fill:#383838;}.cls-12{fill:#118f98;}.cls-13{fill:#1bc5c9;}.cls-14{fill:#fcca6e;}</style></defs><title>Pod FLAT</title><path class="cls-1" d="M400.7,142.25s16,229.2,11.79,261.05S382.55,514.16,332.24,561,250.53,667.3,250.53,667.3,326,499.48,340,440c8.94-38.12,9.25-117.1,13.37-156,3.17-30,10.62-90.44,20.8-118.84,2.84-7.91,15.9-29.62,15.9-29.62Z"/><ellipse class="cls-2" cx="224.4" cy="445.31" rx="20.15" ry="16.24" transform="translate(-270.96 502.53) rotate(-69.84)"/><ellipse class="cls-2" cx="239.32" cy="428.98" rx="11.41" ry="7.76" transform="translate(-245.85 505.83) rotate(-69.84)"/><path class="cls-2" d="M217.57,433s-.06-.12-.09-.22l-.11-.33c-.08-.23-.16-.46-.25-.7-.17-.47-.37-1-.56-1.43-.42-1-.86-1.9-1.35-2.82a32.64,32.64,0,0,0-3.38-5.17,29.59,29.59,0,0,0-4.12-4.31,32.21,32.21,0,0,0-4.69-3.36h0a8.56,8.56,0,0,1,9-14.55,9.82,9.82,0,0,1,1.58,1.26,48.55,48.55,0,0,1,5.68,6.7,45,45,0,0,1,4.25,7.46,46.06,46.06,0,0,1,2.77,7.9c.34,1.34.61,2.7.84,4.07.1.69.21,1.37.28,2.08,0,.35.07.71.1,1.08l.08,1.23A5.06,5.06,0,1,1,217.57,433Z"/><path class="cls-2" d="M226.11,459.23c-.09.87-.16,2-.18,3s0,2.09.06,3.11a29.94,29.94,0,0,0,.87,5.95,15.87,15.87,0,0,0,2.1,4.9,8.1,8.1,0,0,0,3.24,2.88c2.47,1.2,6.05,1.07,9.78.09a55.73,55.73,0,0,0,11.28-4.68l0,0a6,6,0,1,1,5.61,10.62c-.16.09-.33.17-.49.24a66.47,66.47,0,0,1-14.27,4.4,32,32,0,0,1-8.13.37,19.94,19.94,0,0,1-8.56-2.71,17.47,17.47,0,0,1-6.22-6.64,24.7,24.7,0,0,1-2.57-7.78,38.92,38.92,0,0,1-.43-7.57c0-1.23.14-2.46.27-3.67s.3-2.38.57-3.74a3.57,3.57,0,0,1,7,1Z"/><path class="cls-3" d="M417.92,119.84A90.25,90.25,0,0,1,429.73,114a92.94,92.94,0,0,1,12.55-4.22,68.06,68.06,0,0,1,13.44-2.16,42.12,42.12,0,0,1,14.34,1.54,27.61,27.61,0,0,1,13.07,8.37,28,28,0,0,1,4.11,6.6,31.2,31.2,0,0,1,2.27,7.06,50.3,50.3,0,0,1,.73,13.88A72.43,72.43,0,0,1,488,158.1L481,157c.19-4.11.37-8.17.16-12.13a52.66,52.66,0,0,0-.52-5.82,36.66,36.66,0,0,0-1.11-5.48,21.66,21.66,0,0,0-4.63-8.89,17.37,17.37,0,0,0-8.08-5,34.35,34.35,0,0,0-10.73-1.33,72.34,72.34,0,0,0-11.65,1.21c-3.92.73-7.88,1.65-11.8,2.77s-7.9,2.38-11.66,3.7Z"/><path class="cls-3" d="M412.79,123.21c1.9-4.37,3.76-8.8,5.56-13.23s3.59-8.86,5.22-13.31c.8-2.21,1.6-4.48,2.18-6.56a39.58,39.58,0,0,0,1.12-6.54,21.31,21.31,0,0,0-.26-6.19,8.12,8.12,0,0,0-.87-2.4,3.9,3.9,0,0,0-1.3-1.39,4.44,4.44,0,0,0-1.89-.59,10.27,10.27,0,0,0-2.61.12A24.83,24.83,0,0,0,414,75a18,18,0,0,0-4.94,3.19A6.74,6.74,0,0,0,407,82.08a10,10,0,0,0,.72,4.77,11.24,11.24,0,0,0,.5,1.24,4,4,0,0,0,.48.75,2.24,2.24,0,0,0,1.06.73,5.31,5.31,0,0,0,1.55.21,10.91,10.91,0,0,0,2.24-.3,25.81,25.81,0,0,0,5.29-2,59.32,59.32,0,0,0,5.39-3.06c1.75-1.12,3.52-2.29,5-3.46.37-.28.72-.56,1-.81s.52-.46.81-.75c.55-.57,1.16-1.23,1.71-1.92a26.32,26.32,0,0,0,2.88-4.28,11.76,11.76,0,0,0,1.38-4,5.49,5.49,0,0,0-.09-1.85,5.41,5.41,0,0,0-.76-1.91,11.55,11.55,0,0,0-3.8-3.62A18.87,18.87,0,0,0,427,59.47c-4-1.12-8.63-1.43-13.44-1.77a72,72,0,0,1-15-2.23,32,32,0,0,1-7.42-3.18,28.94,28.94,0,0,1-6.34-5.09,41.3,41.3,0,0,1-8-13.33l5.92-2.33a32.2,32.2,0,0,0,6.88,11.06,22,22,0,0,0,10.87,5.91,59.76,59.76,0,0,0,13.49,1.12c4.75,0,9.78-.1,15.17.91a29.11,29.11,0,0,1,8.05,2.72,26,26,0,0,1,7.39,5.29,18.34,18.34,0,0,1,4.79,9.25,22.15,22.15,0,0,1-.59,10.12,29.22,29.22,0,0,1-4,8.32,28.43,28.43,0,0,1-2.92,3.58,22.85,22.85,0,0,1-1.81,1.72c-.63.52-1.22,1-1.81,1.42a43.39,43.39,0,0,1-7.19,4.16,47.91,47.91,0,0,1-7.76,2.76,35.82,35.82,0,0,1-8.7,1.22,22.06,22.06,0,0,1-4.93-.5,15,15,0,0,1-5.2-2.16,13.26,13.26,0,0,1-4-4.26,16,16,0,0,1-1.16-2.45c-.31-.88-.46-1.45-.65-2.17a19,19,0,0,1-.23-9.44,14.78,14.78,0,0,1,2.12-4.63A16.77,16.77,0,0,1,403.68,72a25.94,25.94,0,0,1,7.42-4.07A33.9,33.9,0,0,1,419,65.88a17,17,0,0,1,4.56.05,11.47,11.47,0,0,1,4.82,1.84,11,11,0,0,1,3.43,3.93,14.91,14.91,0,0,1,1.46,4.39,28.19,28.19,0,0,1,.08,8.14,46.19,46.19,0,0,1-1.59,7.58c-.81,2.51-1.71,4.73-2.63,7-3.67,9-7.62,17.71-11.53,26.52Z"/><path class="cls-4" d="M256.64,322.7c.64-13.09,2.74-25.82,9-37.53,1.51,2.37,3.43,4.21,6.32,4.77.6,4.63,3,8.43,5.57,12.15.35.39.71.77,1.06,1.15l-.06-.06,1.07,1.05,0-.07c-.26,2,1.21,2.94,2.54,3.93,6.56,4.87,13.64,3.61,19.5.47a34.15,34.15,0,0,0,12.19-10.66c.29-.42,1.16-.45,1.76-.67l-.05,0,.95,1.09h0l1.16,1.92,0-.09c.86,4.11,4.1,6.26,7.25,8.21,9.09,5.64,18.54,5,27.92.8,13.85-6.16,23.6-16.67,30.67-29.84a60,60,0,0,0,7.09-32.43,30.15,30.15,0,0,0-2.73-11.92,26.67,26.67,0,0,1-1.33-4.67c3.4,2,7.19,3.46,10.13,5.95a62.11,62.11,0,0,1,21,34.46c1.76,7.7,1.95,15.36,1.75,23.11a78.3,78.3,0,0,1-1.05,8.31c-1.5-1-4,11.66-3,11.21-2.59,10.24-7.65,19.33-13.51,27.95a104.3,104.3,0,0,1-35.65,33.13c-.86.48-1.65,1.09-2.48,1.64-3.21,2.57-5.88,2.7-8.23,4.15-5.79,1.75-11.52,3.73-17.38,5.18A87.9,87.9,0,0,1,327.92,387l-9.81.41c-14.08-.63-27.06-4.58-38.08-13.52a59.83,59.83,0,0,1-18.57-25.45c-2.44-6.39-3.57-13-4.55-19.71Z"/><path class="cls-5" d="M355.43,380.18c2.49-1.58,5.52-2,8.23-4.15-6.22,10.05-4.43,20,.88,29.57,3.69,6.63,8.3,12.75,12.62,19a56.53,56.53,0,0,0,6.12,7.8,9.67,9.67,0,0,1,0,13.39,47.61,47.61,0,0,1-8.33,7c-11.83,7.3-23.66,14.64-36.18,20.77-4.75,2.32-7.69,2.7-7.34-4.48.37-7.4,3.75-13.33,8.36-18.65a45.53,45.53,0,0,1,26.55-15.41,22.18,22.18,0,0,0,3.13-1.14c-2.31-3.14-4.5-6-6.56-8.93-4.68-6.65-9.25-13.45-10.64-21.64a36.65,36.65,0,0,1,0-11.26C352.85,388.05,354.33,384.14,355.43,380.18Z"/><path class="cls-5" d="M256.67,322.1l.24,6.6a9,9,0,0,0-2.56,1.45c-4,4.62-7.88,9.33-12.12,14.39,4.18,1.85,7.79,3.23,10.58,6.23a13.39,13.39,0,0,1,3.87,10.35,8.27,8.27,0,0,1-2.72,5.67c-3.28,3.27-6.57,2.66-8.76-1.5-.84-1.6-1.36-3.37-2.1-5-.67-1.51-1.42-3-2.19-4.47a2.86,2.86,0,0,0-.65-.77c-2.53,10.42-5,21-7.69,31.54a13.48,13.48,0,0,1-4.46,7.6c-1.41,1.1-2.85,2.32-4.92,1.28-2.23-1.12-2.29-3.19-2-5.08.67-5.06,1.63-10.08,2.47-15.12l.79-1.08-.56-.37-.31,1.39c-2.38,0-3.16,2.14-4.58,3.41-1.71,1.54-3.18,3.43-5.09,4.61a6.51,6.51,0,0,1-4.61.62c-1.94-.52-2.08-2.68-1.59-4.21A58.47,58.47,0,0,1,211.5,370c1.68-3.19,3.88-6.1,6.36-9.91a41.12,41.12,0,0,0-5.61,1.33,4,4,0,0,1-4.89-1.18c-1.33-1.47-.79-3.15.17-4.59a17.7,17.7,0,0,1,3.1-3.81,38.54,38.54,0,0,1,19.26-8.43c2.21-.34,4.56.19,7.3.34C242.66,336.07,248.84,328.34,256.67,322.1Z"/><path class="cls-2" d="M373.13,370.11c2.3-1.23,5.13-4.25,7.43-5.49.92,9.93,6.23,16.66,14.15,21.79a144.34,144.34,0,0,0,14.28,8c2.46,1.22,3.49,2.82,3.4,5.43a11.79,11.79,0,0,1-2.42,7.43,68.23,68.23,0,0,1-5.47,6.39c-9,8.51-17,18-24.93,27.49a14.64,14.64,0,0,1-8.07,5.43c-3.5-9.48-3.47-18.77.43-27.91s11.51-15.07,20.58-20C380.45,391.72,372.61,384.38,373.13,370.11Z"/><path class="cls-6" d="M317.63,300.12a4,4,0,0,1,1.35.51c8.15,7.15,17.33,8,27.39,4.93,12.43-3.83,21.67-11.76,29.13-22.05,6.63-9.13,10.87-19.32,11.73-30.58.71-9.15-1.14-17.82-7.92-24.75a18.08,18.08,0,0,1-1.47-2l6.64,3,2,1,0,0a26.67,26.67,0,0,0,1.33,4.67,30.15,30.15,0,0,1,2.73,11.92,60,60,0,0,1-7.09,32.43c-7.07,13.17-16.82,23.68-30.67,29.84-9.38,4.18-18.83,4.84-27.92-.8C321.73,306.38,318.49,304.23,317.63,300.12Z"/><path class="cls-7" d="M347.62,223.44c-5.27,3.53-10.71,6.83-15.74,10.67-3.08,2.35-5.52,5.53-8.25,8.33-1.05-4.21-3.4-7.71-6.06-11a102.44,102.44,0,0,1,23.66-7.8A37.75,37.75,0,0,1,347.62,223.44Z"/><path class="cls-6" d="M317.57,231.41c2.66,3.32,5,6.82,6.06,11l-1.74,3.31c-2.52-5.4-4.95-10.15-9.48-13.27Z"/><path class="cls-7" d="M350.64,222.5l-3.05,1C348.21,221.88,349.5,222.44,350.64,222.5Z"/><path class="cls-4" d="M386.52,230.29l-2-1Z"/><path class="cls-8" d="M275.65,258.26l-1,.91Z"/><path class="cls-6" d="M279.61,304.16c3.08,1,6.1,2.62,9.27,3,6.1.81,11.31-1.91,15.87-5.67,2.93-2.41,5.51-5.25,8.44-8.1,1.44.77,2,2.24,2.41,3.8-.6.22-1.47.25-1.76.67a34.15,34.15,0,0,1-12.19,10.66c-5.86,3.14-12.94,4.4-19.5-.47C280.82,307.1,279.35,306.18,279.61,304.16Z"/><path class="cls-6" d="M316.5,298.29l1.16,1.92Z"/><path class="cls-6" d="M315.55,297.19l.95,1.09Z"/><path class="cls-6" d="M277.57,302.09c.35.39.71.77,1.06,1.15C278.28,302.86,277.92,302.48,277.57,302.09Z"/><path class="cls-6" d="M278.57,303.18l1.07,1.05Z"/><path class="cls-9" d="M223.54,375.17l.31-1.39.56.37-.79,1.08Z"/><path class="cls-8" d="M277.57,302.09c-2.58-3.72-5-7.52-5.57-12.15,11.33.89,23.63-12.53,21.58-26.17-1.07-7.06-7.71-10.52-14.16-7.41-1.32.64-2.62,1.33-3.92,2a4,4,0,0,1,0-1.46c3.86-9.2,9.35-17.13,18-22.48,6-3.68,12.23-4.89,18.89-1.93,4.53,3.12,7,7.87,9.48,13.27l1.74-3.31c2.73-2.8,5.17-6,8.25-8.33,5-3.84,10.47-7.14,15.74-10.67l0,0,3.05-1c3.23-.47,6.44-1.08,9.68-1.4,6.5-.65,12.26,1.45,17.52,5.13a18.08,18.08,0,0,0,1.47,2c6.78,6.93,8.63,15.6,7.92,24.75-.86,11.26-5.1,21.45-11.73,30.58-7.46,10.29-16.7,18.22-29.13,22.05-10.06,3.1-19.24,2.22-27.39-4.93a4,4,0,0,0-1.35-.51l0,.09-1.16-1.92h0l-.95-1.09.05,0c-.42-1.56-1-3-2.41-3.8-2.93,2.85-5.51,5.69-8.44,8.1-4.56,3.76-9.77,6.48-15.87,5.67-3.17-.42-6.19-2-9.27-3l0,.07-1.07-1.05.06.06C278.28,302.86,277.92,302.48,277.57,302.09Zm66.52-38.58a42.29,42.29,0,0,0-.72-5.5c-1.71-6.66-7.51-9.84-14.17-8-5.19,1.44-9.06,4.72-12.34,8.79-2.95,3.66-4.47,8-6.25,12.33a21.08,21.08,0,0,0-1,13.14c1,4.54,3.85,7.67,8.62,8.61,3.82.75,7.27-.53,10.37-2.51C338.26,284.23,343.05,275.18,344.09,263.51Z"/><path class="cls-10" d="M275.5,258.35c1.3-.66,2.6-1.35,3.92-2,6.45-3.11,13.09.35,14.16,7.41,2.05,13.64-10.25,27.06-21.58,26.17-2.89-.56-4.81-2.4-6.32-4.77a33,33,0,0,1,8.95-26l1-.91Z"/><path class="cls-11" d="M344.09,263.51c-1,11.67-5.83,20.72-15.46,26.87-3.1,2-6.55,3.26-10.37,2.51-4.77-.94-7.58-4.07-8.62-8.61a21.08,21.08,0,0,1,1-13.14c1.78-4.29,3.3-8.67,6.25-12.33,3.28-4.07,7.15-7.35,12.34-8.79,6.66-1.85,12.46,1.33,14.17,8A42.29,42.29,0,0,1,344.09,263.51Z"/><path class="cls-11" d="M331.23,323.92c6.86,4.78,10.75,11,11.1,19.26a10.32,10.32,0,0,1-2.18,7.44,7.57,7.57,0,0,1-8.44,2.4,14.74,14.74,0,0,1-7.8-5.26c-2-2.63-4.19-5.14-5.4-8.3a17.61,17.61,0,0,1-1-10.9c1.25-4.87,5.31-7.41,10.06-6.13A29.67,29.67,0,0,1,331.23,323.92Z"/><path class="cls-5" d="M334.8,366.5c-2.29-3.17-1.62-4.65.38-7.09a2.89,2.89,0,0,1,3.87-1,6.31,6.31,0,0,0,1.37.46c3.82,1,5.45-.12,6.24-4.67.25-1.4,0-2.9.47-4.23.23-.72,1.32-1.18,2-1.76.5.61,1.23,1.15,1.47,1.85,1.61,4.7.69,13.3-5,17.78C342.34,370.42,337.32,370.54,334.8,366.5Z"/><path class="cls-4" d="M246.47,481.13c.62-11.88,2.59-23.43,8.31-34.06a8.89,8.89,0,0,0,5.83,4.4c.55,4.27,2.75,7.78,5.13,11.21.33.35.66.7,1,1.06l-.05-.06,1,1,0-.06c-.24,1.87,1.12,2.72,2.34,3.62,6.06,4.5,12.59,3.33,18,.44a31.44,31.44,0,0,0,11.24-9.83c.28-.39,1.08-.42,1.63-.62l-.05,0,.87,1h0l1.07,1.77,0-.09c.79,3.79,3.78,5.77,6.69,7.58,8.38,5.2,17.09,4.59,25.74.74,12.77-5.69,21.76-15.38,28.28-27.52a55.34,55.34,0,0,0,6.53-29.9,27.88,27.88,0,0,0-2.51-11,24.55,24.55,0,0,1-1.23-4.31c3.14,1.81,6.63,3.19,9.34,5.49a57.2,57.2,0,0,1,19.37,31.77c1.62,7.1,1.8,14.17,1.62,21.31a71.77,71.77,0,0,1-1,7.67c-1,6.18-3.74,10.74-2.81,10.33-2.38,9.44-7,17.82-12.45,25.77a96.21,96.21,0,0,1-32.87,30.55c-.8.44-1.52,1-2.28,1.51-4.46,2.37-2.28,1.82-7.6,3.82-5.33,1.62-10.62,3.44-16,4.78-3.79.94-7.74,1.22-11.62,1.8l-7.2,0c-12.82-.65-24.64-4.3-34.68-12.46a55.11,55.11,0,0,1-17.12-23.46c-2.25-5.89-3.3-12-4.19-18.17Z"/><path class="cls-8" d="M265.74,462.68c-2.38-3.43-4.58-6.94-5.13-11.21,10.44.82,21.79-11.55,19.89-24.13-1-6.5-7.11-9.7-13.05-6.83-1.22.59-2.41,1.22-3.62,1.84a3.79,3.79,0,0,1,0-1.35c3.56-8.49,8.62-15.8,16.6-20.73,5.5-3.4,11.27-4.51,17.42-1.78,4.17,2.88,6.41,7.26,8.74,12.24l1.6-3.05c2.52-2.59,4.77-5.52,7.61-7.69,4.64-3.54,9.66-6.58,14.51-9.83l0,0,2.82-.89c3-.44,5.93-1,8.92-1.29,6-.6,11.3,1.34,16.15,4.73a17.32,17.32,0,0,0,1.36,1.8c6.25,6.39,7.95,14.38,7.31,22.82-.8,10.38-4.71,19.77-10.82,28.19-6.88,9.49-15.4,16.81-26.86,20.33-9.28,2.86-17.74,2.05-25.25-4.55a4.05,4.05,0,0,0-1.25-.47l0,.09-1.07-1.77h0l-.87-1,.05,0c-.39-1.44-.9-2.79-2.22-3.5-2.71,2.63-5.08,5.25-7.78,7.47-4.21,3.46-9,6-14.64,5.23-2.92-.39-5.7-1.84-8.55-2.81l0,.06-1-1,.05.06C266.4,463.38,266.07,463,265.74,462.68Zm61.34-35.58a38.78,38.78,0,0,0-.67-5.07c-1.57-6.14-6.92-9.08-13.07-7.37C308.56,416,305,419,302,422.77c-2.72,3.37-4.13,7.41-5.76,11.36a19.46,19.46,0,0,0-.9,12.12c1,4.19,3.56,7.08,8,7.94,3.52.7,6.69-.49,9.55-2.32C321.7,446.21,326.12,437.86,327.08,427.1Z"/><path class="cls-2" d="M302.69,541.3l7.2,0c-3.52,8.49-.33,18,3.91,25.64A98.85,98.85,0,0,0,320.67,578c1.48,2,1.63,3.8.43,5.89a10.84,10.84,0,0,1-5.17,5c-2.38,1,3.73-.25,1.25.44C306.14,592.36,296.11,552.7,302.69,541.3Z"/><path class="cls-10" d="M263.83,422.35c1.21-.62,2.4-1.25,3.62-1.84,5.94-2.87,12.07.33,13.05,6.83,1.9,12.58-9.45,25-19.89,24.13a8.89,8.89,0,0,1-5.83-4.4,30.45,30.45,0,0,1,8.26-24l.93-.84Z"/><path class="cls-6" d="M302.68,460.85a4.05,4.05,0,0,1,1.25.47c7.51,6.6,16,7.41,25.25,4.55,11.46-3.52,20-10.84,26.86-20.33,6.11-8.42,10-17.81,10.82-28.19.64-8.44-1.06-16.43-7.31-22.82a17.32,17.32,0,0,1-1.36-1.8l6.13,2.77,1.88,1,0,0a24.55,24.55,0,0,0,1.23,4.31,27.88,27.88,0,0,1,2.51,11,55.34,55.34,0,0,1-6.53,29.9c-6.52,12.14-15.51,21.83-28.28,27.52-8.65,3.85-17.36,4.46-25.74-.74C306.46,466.62,303.47,464.64,302.68,460.85Z"/><path class="cls-5" d="M292.26,384.13c1.94,3.29,1.15,4.67-1,6.85a2.83,2.83,0,0,1-3.85.57,6.52,6.52,0,0,0-1.29-.58c-3.62-1.37-5.31-.39-6.51,3.95a31.21,31.21,0,0,1-.85,4.07c-.29.68-1.38,1-2.12,1.52a6.7,6.7,0,0,1-1.25-1.93c-1.13-4.72.57-13,6.54-16.8C285.31,379.61,290.2,380,292.26,384.13Z"/><path class="cls-5" d="M333.13,379.32c2.79.59,4.13,2.6,4.93,5.08a4.68,4.68,0,0,1-2.43,5.35c-2.79,1.31-4.71.89-6.17-1.34-.18-.29-.3-.61-.48-.9-2.29-3.49-3.57-3.67-7.15-1.3a18.82,18.82,0,0,1-4.16,2,1.77,1.77,0,0,1-1.63-.6,2,2,0,0,1,.26-1.8A17.07,17.07,0,0,1,327.19,379C329.17,378.59,331.22,378.25,333.13,379.32Z"/><path class="cls-7" d="M330.33,390.16c-4.85,3.25-9.87,6.29-14.51,9.83-2.84,2.17-5.09,5.1-7.61,7.69-1-3.89-3.13-7.11-5.59-10.18a95,95,0,0,1,21.82-7.19A34,34,0,0,1,330.33,390.16Z"/><path class="cls-6" d="M302.62,397.5c2.46,3.07,4.63,6.29,5.59,10.18l-1.6,3.05c-2.33-5-4.57-9.36-8.74-12.24Z"/><path class="cls-4" d="M366.2,396.48l-1.88-1Z"/><path class="cls-8" d="M264,422.26l-.93.84Z"/><path class="cls-6" d="M267.62,464.58c2.85,1,5.63,2.42,8.55,2.81,5.63.74,10.43-1.77,14.64-5.23,2.7-2.22,5.07-4.84,7.78-7.47,1.32.71,1.83,2.06,2.22,3.5-.55.2-1.35.23-1.63.62a31.44,31.44,0,0,1-11.24,9.83c-5.39,2.89-11.92,4.06-18-.44C268.74,467.3,267.38,466.45,267.62,464.58Z"/><path class="cls-6" d="M301.64,459.17l1.07,1.77Z"/><path class="cls-6" d="M300.76,458.15l.87,1Z"/><path class="cls-6" d="M265.74,462.68c.33.35.66.7,1,1.06C266.4,463.38,266.07,463,265.74,462.68Z"/><path class="cls-6" d="M266.67,463.68l1,1Z"/><path class="cls-11" d="M327.08,427.1c-1,10.76-5.38,19.11-14.26,24.77-2.86,1.83-6,3-9.55,2.32-4.4-.86-7-3.75-8-7.94a19.46,19.46,0,0,1,.9-12.12c1.63-3.95,3-8,5.76-11.36,3-3.75,6.59-6.78,11.37-8.11,6.15-1.71,11.5,1.23,13.07,7.37A38.78,38.78,0,0,1,327.08,427.1Z"/><path class="cls-9" d="M215.93,530.06l.28-1.28.52.33-.73,1Z"/><path class="cls-5" d="M294.75,499.67c2.32-.78,7.84,2.75,9.43,4.18.42.38,10.84,1.48,17.58-5.56a25.4,25.4,0,0,1,4.09-3.93c.91-.62,2.84-.66,4.3-.95.23.78.84,1.58.62,2.35-1.49,5.18-9.75,13.2-21.55,15.38C302.51,512.38,289.92,501.28,294.75,499.67Z"/><path class="cls-12" d="M400.7,147.78s-7.09,122.39,5.24,212.54c3.84,28.08-3.65,85.69-15.89,111.25-17.79,37.11-78.6,93.16-103.15,128.29C277,614,250.53,667.3,250.53,667.3S313,627.51,335,616.19c40.73-21,119.12-56.28,128.63-132.47s3-123.57-3.18-163.32c-6.39-41.25-36.77-162.87-36.77-162.87Z"/><path class="cls-13" d="M330.47,190.71s10.74-26.93,17.59-35c8.09-9.5,22-14.88,27-22.56,12.1-18.5,45.43-39.43,56.35-1.32,8.45,29.49,11.56,35.82,19.33,41.23,3.38,2.36,16.15,5.69,16.15,5.69s-9,12.53-33.38,11.93c-9.45-.23-28-25.38-28-25.38s-5.92,21.59-6.79,28.94c-.85,7.11,5.5,35,5.5,35s-27.09-20.74-30-37.21c-1.18-6.61,0-26.87,0-26.87s-15.07,7.25-19.9,10C348.09,178.73,330.47,190.71,330.47,190.71Z"/><path class="cls-14" d="M288,141.45c5.38-1.37,52.84-9.43,52.84-9.43l-.72-71s-56.85,3.3-64.61,4.57c-25.41,4.16-58.74,20.09-58.74,20.09s20,66.23,22.87,70.85C245.2,155.21,279.55,143.6,288,141.45Z"/><path d="M253.08,89a9.53,9.53,0,0,1,2.76-.32,4.62,4.62,0,0,1,2.43,1,7.64,7.64,0,0,1,2.84,4.66,9.23,9.23,0,0,1,.05,3.89,17.62,17.62,0,0,1-1.6,4.52,42.18,42.18,0,0,1-3.29,5.45c-1.59,2.3-2.92,4.09-4,5.37s-1.87,2.22-2.43,2.83c-.91.94-1.47,1.53-1.66,1.75a1.12,1.12,0,0,0-.32.72,6,6,0,0,0,.22,1.39,44.58,44.58,0,0,0,1.37,4.71c.45,1.19.92,2.3,1.4,3.31a13.23,13.23,0,0,1,.82,1.9,5.35,5.35,0,0,1-.14,3.34,2.66,2.66,0,0,1-1.89,1.76,1.69,1.69,0,0,1-1.18-.05,2.84,2.84,0,0,1-.93-1.18,28.15,28.15,0,0,1-1.37-3.34,42.67,42.67,0,0,1-1.29-4.39c-.05-.27-.11-.54-.16-.83l-.14-.79a5.19,5.19,0,0,1-.09-.52c0-.12-.06-.27-.1-.45a4.75,4.75,0,0,0-1.2-2,3.8,3.8,0,0,1-1.05-1.72,3.29,3.29,0,0,1-.12-.88,3.13,3.13,0,0,1,.13-.73c.08-.28.14-.46.16-.54a3.16,3.16,0,0,0,.13-1.19,15.55,15.55,0,0,0-.38-2,36,36,0,0,1-.77-4.44,18.35,18.35,0,0,1-.21-2.08,1.2,1.2,0,0,0-.59-.77,1.65,1.65,0,0,0-1-.23,2.49,2.49,0,0,1-1-.09.93.93,0,0,1-.48-.7,7,7,0,0,1-.16-2.8,8,8,0,0,1,1-2.51,24.69,24.69,0,0,1,3.1-4.1A38,38,0,0,1,246,93.18a33.39,33.39,0,0,1,4-2.81A12.09,12.09,0,0,1,253.08,89Zm-1.17,7.21a16.83,16.83,0,0,0-3,1,14.1,14.1,0,0,0-3,2,6.67,6.67,0,0,0-1.51,1.64,2.73,2.73,0,0,0-.31,1.57,26.61,26.61,0,0,0,.58,3c.34,1.4.62,2.7.85,3.9.09.51.17,1,.23,1.55s.11.82.13.89c.13.54.42.75.86.65a5,5,0,0,0,1.91-1.4,22.9,22.9,0,0,0,2.49-3q.65-.9,1.32-2c.45-.74.84-1.36,1.16-1.85,1.35-2,2.2-3.41,2.57-4.14a3.42,3.42,0,0,0,.24-2.41Q255.93,95.22,251.91,96.18Z"/><path d="M264.17,117.85a18,18,0,0,1-.22-7.22,29.53,29.53,0,0,1,2.67-8,23,23,0,0,1,5.07-7.18,16.86,16.86,0,0,1,7.65-3.83,8.77,8.77,0,0,1,3.31-.2A10,10,0,0,1,286,92.64a13.65,13.65,0,0,1,2.82,1.93,13.85,13.85,0,0,1,2.22,2.58,17,17,0,0,1,1.63,3.14,26.13,26.13,0,0,1,1.15,3.68,15.81,15.81,0,0,1-.32,7.74,8.39,8.39,0,0,1-1.76,3.27s-.22.58-.6,1.66a13.68,13.68,0,0,1-1.77,3.36,13.39,13.39,0,0,1-3.87,3.44,22.66,22.66,0,0,1-7,2.72,12.74,12.74,0,0,1-4.27.36,10.4,10.4,0,0,1-3.85-1.14,14.35,14.35,0,0,1-3.53-2.63,11.4,11.4,0,0,1-1.75-2.24A10.51,10.51,0,0,1,264.17,117.85Zm13.65-18.14a14.23,14.23,0,0,0-4.76,2.09,11.15,11.15,0,0,0-3.19,3.25,8.87,8.87,0,0,0-1.34,3.29,6.29,6.29,0,0,0,0,1.85,4.65,4.65,0,0,0-.28,1.21,7.55,7.55,0,0,0,.26,2.52,5.77,5.77,0,0,0,2.14,2.86A12.24,12.24,0,0,0,275,119a9.7,9.7,0,0,0,5.07.14,12.27,12.27,0,0,0,4.12-2,14,14,0,0,0,3.17-2.88,9.45,9.45,0,0,0,1.09-7.77,9.76,9.76,0,0,0-2.06-4.1,8,8,0,0,0-3.72-2.51A8.59,8.59,0,0,0,277.82,99.71Z"/><path d="M292.89,88.59a2.58,2.58,0,0,1,.4-1.94,7.35,7.35,0,0,1,2-2,17.17,17.17,0,0,1,3.37-1.82,31.76,31.76,0,0,1,4.8-1.52,25.27,25.27,0,0,1,6.85-.68,29.53,29.53,0,0,1,6.51,1,28,28,0,0,1,5.58,2.11,17.91,17.91,0,0,1,4.09,2.8,16.75,16.75,0,0,1,4.48,8.39q1.05,4.4-2.86,9.76T315.43,115.4a21.33,21.33,0,0,1-6,2.57,14.92,14.92,0,0,1-5.07.63,6.34,6.34,0,0,1-2.94-1.39,4.43,4.43,0,0,1-1.62-2.34,3.18,3.18,0,0,1,.28-1.77,4.89,4.89,0,0,1,1.11-1.77,2.55,2.55,0,0,0,.81-1.13,6.24,6.24,0,0,0-.28-2.11c0,.15-.27-.93-.91-3.25s-1.25-4.68-1.83-7.11c-.19-.78-.46-2.07-.82-3.88s-.63-3.07-.8-3.81a1.57,1.57,0,0,0-.4-.88,1.12,1.12,0,0,0-.81,0,4.5,4.5,0,0,0-.76.36,4.2,4.2,0,0,1-1,.4C293.67,90.1,293.15,89.66,292.89,88.59Zm9.27,0a.92.92,0,0,0-.61.69,3.52,3.52,0,0,0-.11,1.37c.1.54.28,1.45.54,2.72s.57,2.69.95,4.27q1.44,6,2.67,9.61a15.57,15.57,0,0,0,1.87,4.29,1.27,1.27,0,0,0,1.26.34,12.2,12.2,0,0,0,2.87-1.07,17,17,0,0,0,2.29-1.41c.64-.48,1.58-1.21,2.83-2.19q2.11-1.68,3.8-3.26c1.12-1,2-1.88,2.5-2.49a8.05,8.05,0,0,0,.89-1.08,7.65,7.65,0,0,0,.57-2.36,8.29,8.29,0,0,0-.15-2.92,3.6,3.6,0,0,0-.61-1.5,6,6,0,0,0-1.23-.92,9.21,9.21,0,0,1-1.7-1.37q-2.12-2.11-9.86-2.7a48.33,48.33,0,0,0-5.43-.18C303.94,88.49,302.83,88.54,302.16,88.6Z"/><path class="cls-5" d="M383.15,466.71c-4.18-.83-6.45,2.75-3.23,6.27.87.47,11.77,9.85,16,14.92-4.18,1.84-7.79,3.22-10.58,6.23a13.39,13.39,0,0,0-3.87,10.35,8.29,8.29,0,0,0,2.72,5.67c3.28,3.27,6.57,2.66,8.76-1.5.84-1.61,1.36-3.38,2.1-5s1.42-3,2.19-4.47a3,3,0,0,1,.65-.78c2.53,10.42,5,21,7.69,31.55a13.48,13.48,0,0,0,4.46,7.6c1.41,1.1,2.85,2.32,4.92,1.28,2.23-1.13,2.29-3.2,2-5.09-.67-5.06-1.63-10.07-2.47-15.11a68.39,68.39,0,0,1-2.33-8.25c.11.46,5.57,10.32,7,11.6,1.71,1.54,3.18,3.42,5.09,4.6a6.51,6.51,0,0,0,4.61.62c1.94-.51,2.08-2.67,1.59-4.2a58.12,58.12,0,0,0-3.83-9.59c-1.68-3.19-3.88-6.1-6.36-9.91a41.29,41.29,0,0,1,5.61,1.32,4,4,0,0,0,4.89-1.17c1.33-1.47.79-3.16-.17-4.6a18,18,0,0,0-3.1-3.81,38.52,38.52,0,0,0-19.26-8.42c-2.21-.34-4.56.18-7.3.34C395.5,479.43,391.31,471.89,383.15,466.71Z"/><path class="cls-5" d="M311.57,214.47c.13,5.36-1.79,6.5-5.93,7.7-2,.57-4,.26-5.1-1.94a8.61,8.61,0,0,0-1.19-1.58c-3.49-4.16-6.24-4.11-10.67.4-1.36,1.38-2.31,3.23-3.81,4.4-.83.64-2.4.31-3.64.42-.09-1.08-.5-2.25-.22-3.23,1.84-6.55,9.57-15.53,19.48-16.11C306.14,204.19,311.89,208,311.57,214.47Z"/><path class="cls-5" d="M342,198.37c4.15-.6,7,1.52,9.39,4.55a6.9,6.9,0,0,1-.67,8.65c-3.21,3.21-6.08,3.6-9.23,1.24-.4-.3-.72-.7-1.12-1-4.93-3.69-6.79-3.3-10.56,1.8a27.49,27.49,0,0,1-4.79,4.79,2.61,2.61,0,0,1-2.57,0,3,3,0,0,1-.54-2.63,25.18,25.18,0,0,1,11.68-14.91C336.19,199.34,338.85,197.85,342,198.37Z"/></svg>