<svg id="Layer_1" data-name="Layer 1" xmlns="http://www.w3.org/2000/svg" viewBox="0 0 700 700"><defs><style>.cls-1{fill:#363637;}.cls-2{fill:#4f5356;}.cls-3{fill:#6d7278;}.cls-4{fill:#fff;}.cls-5{fill:#f7c860;}.cls-6{fill:#050505;}</style></defs><title>Ranker FLAT</title><path d="M155,286.07S182,218.43,200.3,143"/><path d="M151.73,284.75c4.12-11.71,8-23.61,11.7-35.51s7.25-23.87,10.6-35.87c1.71-6,3.29-12,4.92-18s3.15-12,4.59-18.09c3-12.07,5.68-24.2,8.25-36.33l0-.1A8.77,8.77,0,0,1,209,144.46c0,.19-.09.4-.14.59-3.48,12.16-7,24.27-10.93,36.26-1.88,6-3.93,12-5.9,18s-4.08,11.91-6.22,17.83q-6.32,17.79-13.16,35.35c-4.57,11.72-9.26,23.34-14.27,34.94a3.56,3.56,0,0,1-6.63-2.58Z"/><path class="cls-1" d="M228.63,335.71c-3.54-7.73-7.32-15.46-11.18-23.1s-7.83-15.23-11.92-22.74-8.27-15-12.6-22.32-8.79-14.6-13.32-21.77l-.06-.08a8.77,8.77,0,0,1,14.83-9.38,8.46,8.46,0,0,1,.44.77c3.9,7.82,7.75,15.65,11.34,23.58s7.13,15.86,10.48,23.87,6.6,16,9.7,24.13,6.1,16.19,8.92,24.45a3.56,3.56,0,0,1-6.6,2.66Z"/><path class="cls-2" d="M507.45,260.86c-4.76-2.34-10.4.54-15.39,3.64a102.66,102.66,0,0,0-20.15-24.7c2.25-10.25,3.94-22.66.32-27.3-19.44-25-71.54-25-71.54-25l-8.36,28c-43,4.85-86.57,33.84-113.38,80.27-28.87,50-30.47,106.76-8.49,147.22-3.76,5.64-10.86,17.31-10.16,24.22,2.05,20.42,40.33,39.6,40.33,39.6l16.78-19.64a103.06,103.06,0,0,0,51.53,8.4l20.58,21.67s35.21-11.14,42.15-20.81c2.54-3.54,3.31-15.73,3.5-26a167.79,167.79,0,0,0,32.11-29.55c6.8,4.72,14.61,9,17.89,6.41C515,424,513.49,404.45,513.49,404.45l-14.89-17.6a164.79,164.79,0,0,0,10.31-58.59L524,319.05S530.7,272.26,507.45,260.86Z"/><path class="cls-3" d="M507.45,260.86c-3.89-3.76-13.9-3.68-22.86-2.85a102.91,102.91,0,0,0-27-33.15c1.76-9.29,2.66-19.31-.37-23.48-10.1-13.86-67.09-14.18-67.09-14.18L381,204.14a133.7,133.7,0,0,0-48.75,16.35c-6.5-5.6-14.29-11.31-19.07-11.35-14.07-.12-46.14,32.23-46.14,32.23l14.19,24A183.28,183.28,0,0,0,257,308.61c-7-1.53-15.62-2.67-19.17-.17-12.05,8.51-15.59,56.92-15.59,56.92l23.55,16.75c1.82,20.52,8,39.66,18.16,55.76-3.31,8.78-7.15,20.95-5.39,26.36C262.28,475.73,296,494.9,296,494.9l15-17.59a103.51,103.51,0,0,0,47.15,6.82L379.27,507s35.8-11.31,42.74-21c3.55-5,4.08-20.85,4.13-27.94a167.61,167.61,0,0,0,29-26.52c6.62,4.37,15.07,9.07,19.44,8,12.4-3.09,29.32-41.87,29.32-41.87l-15.06-23.78a164.37,164.37,0,0,0,9.78-57.32l12.28-7.49S516.15,269.25,507.45,260.86Z"/><ellipse class="cls-4" cx="382.99" cy="252.47" rx="32.89" ry="26.38" transform="matrix(0.5, -0.87, 0.87, 0.5, -27.15, 457.91)"/><ellipse class="cls-1" cx="391.27" cy="262.41" rx="19.95" ry="12.42" transform="translate(10.11 539.29) rotate(-69.84)"/><ellipse class="cls-1" cx="174.22" cy="218.48" rx="36.76" ry="25" transform="translate(-90.91 306.75) rotate(-69.84)"/><ellipse class="cls-1" cx="556.99" cy="323.23" rx="34.48" ry="23.45" transform="translate(-24.09 600.83) rotate(-55.66)"/><ellipse class="cls-1" cx="200.3" cy="219.72" rx="18.04" ry="12.27" transform="translate(-74.98 332.05) rotate(-69.84)"/><ellipse class="cls-1" cx="583.74" cy="305.79" rx="18.04" ry="12.27" transform="translate(-74.69 332.84) rotate(-30)"/><path class="cls-1" d="M362.22,492.93l-.13.22-.16.28-.32.58-.58,1.26c-.38.84-.68,1.75-1,2.62l-.78,2.73-.56,2.8a26.38,26.38,0,0,0-.38,2.83c-.08.95-.27,1.88-.26,2.85L358,512l0,1.43.09,1.44a81.22,81.22,0,0,0,4.51,22.61l.89,2.75,1.09,2.71,2.18,5.4c.8,1.77,1.69,3.52,2.53,5.27l1.28,2.63c.43.87.82,1.75,1.33,2.59l2.9,5.11,1.44,2.54c.48.85.95,1.7,1.51,2.51l6.4,9.86.21.33a7.59,7.59,0,1,1-12.74,8.27,6.29,6.29,0,0,1-.43-.75l-5.57-11.2c-.48-.92-.88-1.89-1.29-2.85l-1.23-2.89L360.6,564c-.43-.94-.75-2-1.1-2.94l-1.05-3c-.68-2-1.41-3.94-2-5.93l-1.68-6.08-.83-3-.63-3.1a89.06,89.06,0,0,1-2-25.2l.08-1.58.21-1.59.44-3.16c.12-1.05.44-2.09.65-3.13a30,30,0,0,1,.79-3.1l1-3.06,1.24-3c.49-1,.95-1.94,1.5-2.89l.87-1.4.49-.69.26-.35.31-.4a2,2,0,0,1,3.31,2.3Z"/><path class="cls-1" d="M319.73,487.86l-.37.29-.44.34-.86.8c-.57.55-1.09,1.17-1.62,1.76L315,493l-1.26,2.08a36.64,36.64,0,0,0-3.53,9.09l-.57,2.39-.14.6-.08.61-.16,1.23a40.41,40.41,0,0,0-.51,4.92c-.05,1.67-.15,3.31-.15,5l.27,5a47.31,47.31,0,0,0,.56,5c.25,1.67.43,3.32.72,5l1.09,4.95c.38,1.65.64,3.3,1.17,4.92l1.43,4.89c.51,1.62.87,3.25,1.51,4.85l3.47,9.6.13.38a7.6,7.6,0,0,1-14.3,5.17,8.05,8.05,0,0,1-.27-1L302,556.91c-.44-1.76-.62-3.61-.93-5.42l-.84-5.43c-.33-1.8-.39-3.67-.57-5.5l-.46-5.5c-.08-1.85-.05-3.72-.08-5.56a54.37,54.37,0,0,1,.12-5.56l.43-5.57c.25-1.85.61-3.7.91-5.54a46.38,46.38,0,0,1,1.31-5.48l.37-1.36.18-.67.25-.67,1-2.65a42.36,42.36,0,0,1,5.47-9.95l1.79-2.23,2-2.05c.73-.63,1.44-1.27,2.23-1.85l1.21-.85.65-.39.34-.2.41-.21a2,2,0,0,1,2.16,3.37Z"/><path class="cls-1" d="M384.45,589.47l-68.07,23a3.05,3.05,0,0,1-4-3.16c1.21-13.84,10.05-52.73,72.33-25.51A3.06,3.06,0,0,1,384.45,589.47Z"/><path class="cls-1" d="M317.44,573.91l-66.64,7.92a4.18,4.18,0,0,1-4.46-5.49c4.84-14.2,21.88-45.12,73-10A4.19,4.19,0,0,1,317.44,573.91Z"/><path class="cls-1" d="M451.13,231.56a25.46,25.46,0,0,0-1.51-2.41,26.67,26.67,0,0,0-1.82-2.25,19.91,19.91,0,0,0-4.26-3.55,16.49,16.49,0,0,0-2.32-1.2c-.4-.16-.81-.27-1.21-.42-.2-.06-.39-.14-.59-.19l-.62-.12a16.27,16.27,0,0,0-4.87-.28h-.18a5.21,5.21,0,1,1-.48-10.41,5.58,5.58,0,0,1,1.23.08,25.62,25.62,0,0,1,7.52,2.45l.87.44c.28.16.55.35.83.52.54.36,1.09.7,1.61,1.08a26.43,26.43,0,0,1,2.83,2.53,26,26,0,0,1,4.26,5.87,27.87,27.87,0,0,1,1.48,3.19,26.07,26.07,0,0,1,1.08,3.4,2,2,0,0,1-3.73,1.47Z"/><path class="cls-1" d="M463.24,297.53a25.07,25.07,0,0,1,3.31,1.26,29.74,29.74,0,0,1,3.06,1.61,26.29,26.29,0,0,1,5.49,4.43,25,25,0,0,1,2.29,2.82c.34.51.63,1.05.95,1.58.15.27.32.53.46.8l.38.85a23.92,23.92,0,0,1,2,7.14,3.5,3.5,0,1,1-6.93,1c0-.12,0-.24,0-.35v-.27a17.17,17.17,0,0,0-.81-5.24l-.19-.64c-.07-.21-.18-.41-.26-.61-.19-.41-.35-.83-.56-1.24a19.45,19.45,0,0,0-1.46-2.31,21.07,21.07,0,0,0-4-4,25,25,0,0,0-2.41-1.65,21.08,21.08,0,0,0-2.51-1.32l-.16-.07a2,2,0,0,1,1.4-3.79Z"/><path class="cls-1" d="M294.86,283.55a26.49,26.49,0,0,1,2.78-4.26,25,25,0,0,1,3.58-3.7,19.81,19.81,0,0,1,4.59-2.88,18,18,0,0,1,5.54-1.41,3.51,3.51,0,1,1,.74,7,4,4,0,0,1-.49,0h-.16a11.19,11.19,0,0,0-3.48.29,13.63,13.63,0,0,0-3.51,1.48,20.43,20.43,0,0,0-3.28,2.45,22.89,22.89,0,0,0-2.81,3.06l-.09.13a2,2,0,0,1-3.41-2.16Z"/><path class="cls-1" d="M385.43,212a25.49,25.49,0,0,1,2.31-2.73,32.61,32.61,0,0,1,2.59-2.38,26.77,26.77,0,0,1,6.19-3.78,26.18,26.18,0,0,1,3.59-1.24c.62-.15,1.26-.25,1.9-.38.32-.05.64-.12,1-.16l1-.07a25.54,25.54,0,0,1,7.88.64,5.21,5.21,0,1,1-2.11,10.2,5.33,5.33,0,0,1-1.15-.37l-.18-.09a16,16,0,0,0-4.61-1.62l-.61-.13c-.21,0-.42,0-.63,0-.41,0-.84-.08-1.27-.09a17.89,17.89,0,0,0-2.6.22,19.94,19.94,0,0,0-5.29,1.64,24.52,24.52,0,0,0-4.88,3l-.18.15a2,2,0,0,1-2.89-2.79Z"/><path class="cls-1" d="M304.85,279a238.11,238.11,0,0,0,37.94,27.72c13.41,7.78,27.61,14,42.46,17.32a109.3,109.3,0,0,0,22.54,2.81l1.43.06,1.42-.05,2.84-.08,2.85-.07c.95-.07,1.89-.18,2.84-.27l2.84-.28c.94-.11,1.9-.13,2.84-.33l5.65-1c15.05-2.91,29.53-9.07,43.44-16.8h0a1,1,0,0,1,1.33.38,1,1,0,0,1-.22,1.22c-1.53,1.3-3.11,2.56-4.67,3.85L468,315.38c-.4.31-.79.65-1.2.94l-1.25.86a109.08,109.08,0,0,1-10.34,6.52l-2.68,1.48c-.91.47-1.79,1-2.73,1.43l-5.64,2.5a51.77,51.77,0,0,1-5.79,2.19l-2.94,1-1.47.51c-.5.15-1,.26-1.5.4l-6.05,1.5c-2,.48-4.1.72-6.16,1.07-1,.16-2,.34-3.09.48l-3.12.26-3.12.23-1.57.12h-7.83l-6.25-.48-1.57-.13-1.54-.22-3.1-.47c-1-.17-2.07-.3-3.09-.5l-3.06-.67a116.68,116.68,0,0,1-23.59-7.85,139.13,139.13,0,0,1-21.42-12.22A150.9,150.9,0,0,1,319,298.83a124.48,124.48,0,0,1-15.86-18.44,1.11,1.11,0,0,1,1.65-1.45Z"/><polygon class="cls-5" points="315.7 82.71 131.44 43.43 121.22 132.52 288.27 152.48 315.7 82.71"/><path class="cls-1" d="M508.72,342.73c2,2.65,4.19,5.41,6.43,8s4.59,5.1,7,7.44a72,72,0,0,0,7.49,6.38,27.2,27.2,0,0,0,7.54,4.05,7.74,7.74,0,0,0,2.85.36,3,3,0,0,0,1.57-.63,6.72,6.72,0,0,0,1.59-1.8,18.69,18.69,0,0,0,1.61-3.29,43.54,43.54,0,0,0,2.17-8.73c.5-3.16.81-6.45,1-9.79a8.51,8.51,0,0,1,17,1c0,.23,0,.47-.07.69a114.45,114.45,0,0,1-2.11,11.38,57.82,57.82,0,0,1-4,11.72,33.05,33.05,0,0,1-3.69,6,20.54,20.54,0,0,1-6.26,5.37,17.42,17.42,0,0,1-8.64,2.13,21.89,21.89,0,0,1-7.62-1.61,39.83,39.83,0,0,1-10.79-6.85,83,83,0,0,1-8.18-8.17c-2.5-2.84-4.81-5.76-7-8.74q-1.65-2.25-3.21-4.53c-1.05-1.55-2-3-3.08-4.72a5.06,5.06,0,0,1,8.35-5.69Z"/><ellipse class="cls-4" cx="427.55" cy="267.82" rx="35.96" ry="30.64" transform="translate(-18.16 504.18) rotate(-60)"/><ellipse class="cls-1" cx="441.82" cy="278.66" rx="19.15" ry="13.79" transform="translate(-20.41 521.96) rotate(-60)"/><polygon class="cls-6" points="318.61 387.39 355.4 357.8 388.11 364.5 372.95 433.89 385.18 438.82 376.86 463.43 302.11 448.86 307.62 428.72 324.61 425.51 342.25 391.05 318.61 387.39"/><path d="M141.24,103.49l1.38-7.2q.82-4.28,1.5-7.27c.45-2,.76-3.29.93-3.89a9.2,9.2,0,0,0,.1-1.66c0-.71,0-1.22,0-1.52a6.54,6.54,0,0,1,.15-1.21,8.07,8.07,0,0,1,1.39-2.84,14.38,14.38,0,0,1,3-3.14,12.83,12.83,0,0,1,4.41-2.18,11.44,11.44,0,0,1,5.48-.18,10.68,10.68,0,0,1,4.34,1.69,8.13,8.13,0,0,1,2.63,4.17,10,10,0,0,1,.39,5,21.7,21.7,0,0,1-2.14,6.1,20.82,20.82,0,0,1-3.61,5,13.18,13.18,0,0,1-4.28,3,15.18,15.18,0,0,0-2,.95,2.08,2.08,0,0,0-.82,1.48,2.89,2.89,0,0,0,.14,1.75,16.62,16.62,0,0,0,2.53,4.44,4.79,4.79,0,0,0,2.55,1.8,1.86,1.86,0,0,0,1.78-.7l.71-.8a4.63,4.63,0,0,1,.64-.62.73.73,0,0,1,.59-.2c.38.07.61.46.7,1.18a9.54,9.54,0,0,1-.21,2.86,6.46,6.46,0,0,1-1.38,3,5.68,5.68,0,0,1-2.45,1.76,5.49,5.49,0,0,1-2.93.22,5.89,5.89,0,0,1-2.72-1.59,13.57,13.57,0,0,1-2.67-3.55,19.51,19.51,0,0,1-1.85-4.84c-.19-.84-.35-1.57-.48-2.18a3.48,3.48,0,0,0-.52-1.35,1.75,1.75,0,0,0-1.11-.59.86.86,0,0,0-1,.34,4,4,0,0,0-.48,1.38c0,.24-.07.46-.1.66s-.08.44-.14.75a22.53,22.53,0,0,1-1.87,6c-.77,1.52-1.52,2.2-2.26,2.06-.13,0-.29-.2-.49-.53a3.6,3.6,0,0,1-.42-1Q140.28,108.49,141.24,103.49ZM155.87,78a6,6,0,0,0-1.45,0c-.57,0-.94,0-1.1,0a2.85,2.85,0,0,0-1.76.32,3.77,3.77,0,0,0-1.33,1.59,17,17,0,0,0-1.15,3.26q-.56,2.09-1.21,5.48a14.38,14.38,0,0,0-.2,2.18,7.37,7.37,0,0,0,.05,1.61c.14.59.74,1,1.79,1.19a11.38,11.38,0,0,0,5.6-.28,12,12,0,0,0,4.69-2.69,15.06,15.06,0,0,0,2.07-2.27,5.24,5.24,0,0,0,.82-2,8.1,8.1,0,0,0,0-3.75,4.44,4.44,0,0,0-1.13-1.72,9.57,9.57,0,0,0-2.35-1.74A11.27,11.27,0,0,0,155.87,78Z"/><path d="M172.46,112.75a14.74,14.74,0,0,0-3.52-.39,1.63,1.63,0,0,0-1.42.81,13.57,13.57,0,0,0-.84,2.9,11.48,11.48,0,0,1-.91,2.78,6,6,0,0,1-1.27,1.87,1.47,1.47,0,0,1-1.22.51,1.23,1.23,0,0,1-1.05-1,7,7,0,0,1,.15-2.56,18.54,18.54,0,0,1,1-3.34q.77-2,2-4.53c.83-1.71,1.9-3.82,3.19-6.35,1.18-2.32,2.29-4.38,3.31-6.18s1.87-3.23,2.53-4.31,1.24-2,1.7-2.65l.89-1.3a30.21,30.21,0,0,1,2-3l.67-.77a5.22,5.22,0,0,0,.46-.62,1.68,1.68,0,0,0,.26-.61,8.79,8.79,0,0,0,0-2.17c-.09-1-.15-1.66-.15-2a5.63,5.63,0,0,0,0-.89,1.34,1.34,0,0,0-.24-.48,1.19,1.19,0,0,1-.22-.67,6.49,6.49,0,0,1,.14-1.07,3.44,3.44,0,0,1,1.42-2.27c.76-.53,1.32-.76,1.7-.68s.89.53,1.19,1.32a16.23,16.23,0,0,1,.75,3.37q.28,2.19.52,5.8t.57,9.62q.21,3.93.77,10.51t.69,8.34a12.18,12.18,0,0,1-.1,2.88,7.11,7.11,0,0,1-1.29,3.11,2,2,0,0,1-1.92,1c-.76-.14-1.29-1.13-1.61-3-.2-1.27-.33-2.09-.41-2.46s-.22-.56-.45-.61a5.51,5.51,0,0,0-1.89.27c-1,.23-1.68.39-2.18.48a5.17,5.17,0,0,1-1.77-.07,7.3,7.3,0,0,1-1.71-.55,7.6,7.6,0,0,1-1.22-.71A3.23,3.23,0,0,0,172.46,112.75Zm6.17-5.82c1.62.31,2.48.24,2.57-.22a9.37,9.37,0,0,0,.16-1.16q0-.36-.06-1.08c0-.41,0-1.33,0-2.78s0-2.74,0-3.89-.05-2.24-.12-3.27c-.11-2.16-.2-3.63-.27-4.43s-.19-1.2-.35-1.23-.2.12-.44.39a12.11,12.11,0,0,0-.87,1.19,20.16,20.16,0,0,0-1.11,2c-.26.54-.73,1.45-1.39,2.74s-1.44,2.72-2.32,4.29c-.33.59-.78,1.32-1.33,2.2s-1,1.51-1.16,1.92a4.56,4.56,0,0,0-.44,1.27,5,5,0,0,0-.11.86c0,.2.06.31.17.33-.13,0,.3-.13,1.27-.31a7.71,7.71,0,0,1,2.95,0l1,.51A6.79,6.79,0,0,0,178.63,106.93Z"/><path d="M213.44,80.71q.78.15.87,2a29.27,29.27,0,0,1-.43,5.26c0,.36-.14,1.13-.3,2.33s-.44,3-.84,5.48-1,5.43-1.62,8.9c-.77,4-1.45,7.32-2.06,9.89s-1,4.36-1.31,5.39a8.3,8.3,0,0,1-1.57,3.25,2.24,2.24,0,0,1-2.15.74c-.84-.17-1.87-1.09-3.1-2.76a30.7,30.7,0,0,1-3.34-6.1,28.18,28.18,0,0,1-1.94-6.51,18.26,18.26,0,0,0-.35-1.92c-.12-.45-.27-.7-.43-.73s-.18.22-.32.7-.34,1.23-.57,2.24-.5,2.2-.81,3.57-.66,3-1.09,4.92a13.65,13.65,0,0,1-1.22,3.61c-.46.78-1,1.11-1.65,1-.29-.05-.48-.3-.55-.73a8,8,0,0,1,.1-2.13c.13-1,.39-2.48.78-4.48q.87-4.59,1.64-7.91t1.28-5.4c.36-1.39.6-2.3.72-2.75a14.63,14.63,0,0,0,.15-3,14.88,14.88,0,0,1,.1-2.85,4.72,4.72,0,0,1,1.06-1.83,3.33,3.33,0,0,1,1.45-1.21,2.42,2.42,0,0,1,1.09,0c.19,0,.33.41.41,1.13.14,1.19.36,2.51.65,3.94s.7,3.14,1.22,5.13,1,3.78,1.49,5.36q1.38,4.56,2.52,7.46c.75,1.94,1.21,2.92,1.38,2.95a.83.83,0,0,0,.8-.16A3,3,0,0,0,206,114q0-.11.48-3.63t1-6.74c.31-2,.6-3.87.85-5.55s.54-3.48.84-5.37.67-3.91,1.08-6.06q.36-1.89.66-3a5.88,5.88,0,0,1,.83-1.82,4.59,4.59,0,0,1,.94-.87A1.24,1.24,0,0,1,213.44,80.71Z"/><path d="M219.83,84.5c.36.07.57.4.63,1a10.58,10.58,0,0,1-.25,2.79c-.16.94-.29,1.77-.41,2.51s-.21,1.36-.27,1.89-.12.92-.15,1.17-.08.64-.15,1.17a12.67,12.67,0,0,0-.15,2.34q.06.69.54.78a.44.44,0,0,0,.35-.09,1.85,1.85,0,0,0,.38-.4c.15-.18.28-.36.39-.51a16.93,16.93,0,0,1,1.46-1.37c.85-.74,2.08-1.72,3.68-2.92s3.12-2.28,4.55-3.22A22.88,22.88,0,0,1,235.56,87a8.2,8.2,0,0,1,2.73-.64,1.55,1.55,0,0,1,1.3,1.16,7,7,0,0,1-.12,3,8.85,8.85,0,0,1-.59,2,5.73,5.73,0,0,1-1,1.5,4.16,4.16,0,0,1-1.52,1.23,2.77,2.77,0,0,1-1.33.15l-1.47-.22a7.81,7.81,0,0,0-3.8,1.1,22.26,22.26,0,0,0-3.86,2.64c-1.15,1-1.76,1.65-1.82,2q-.27,1.44,1.42,4.19a29.42,29.42,0,0,1,3.24,6.54,10.38,10.38,0,0,1,.56,5.08,26.12,26.12,0,0,1-.64,2.65,8,8,0,0,1-1.47,2.55c-.62.72-1.12,1-1.51,1a1.26,1.26,0,0,1-1-.78,11.49,11.49,0,0,1-.57-2.46c-.2-1.21-.37-2.07-.51-2.57a19.9,19.9,0,0,0-.75-2.29,7.21,7.21,0,0,0-.61-1.19l-.33-.46a11.49,11.49,0,0,1-.87-2c-.29-.85-.56-1.69-.8-2.5a20.29,20.29,0,0,0-.7-2c-.22-.5-.45-.78-.68-.82s-.48.17-.76.65a5.86,5.86,0,0,0-.64,1.85c-.18,1-.35,2.17-.5,3.64a22.94,22.94,0,0,0-.2,2.52,4.36,4.36,0,0,1,.18,1.69,33.54,33.54,0,0,1-.76,5.6,6.84,6.84,0,0,1-1.17,2.63,2.07,2.07,0,0,1-2.16,1.09c-.31-.06-.48-.67-.51-1.84a46.94,46.94,0,0,1,.31-5.35c.24-2.4.56-5.14,1-8.24q1.4-10.41,3.43-21.08a11.17,11.17,0,0,1,.36-1.42,4.53,4.53,0,0,1,.62-1.16A10.07,10.07,0,0,1,219.15,85C219.49,84.64,219.72,84.48,219.83,84.5Z"/><path d="M262,88.54q1.68.31,1,3.74a8.14,8.14,0,0,1-.6,2,8.73,8.73,0,0,1-1.09,1.51c-1.08,1.24-1.91,1.8-2.47,1.69a2.87,2.87,0,0,1-1-.37,8,8,0,0,1-.91-.61,3.29,3.29,0,0,0-.56-.4,17.65,17.65,0,0,0-1.89,0l-.44,0-.95-.08q-.6,0-1.53-.06c-.61,0-1.21,0-1.78.07a11.13,11.13,0,0,0-2.82.42,1.85,1.85,0,0,0-1.08,1.09,19.22,19.22,0,0,0-.78,3.13c-.39,2-.62,3.52-.71,4.48s0,1.47.23,1.52a4.45,4.45,0,0,1,1.08-.29,17.49,17.49,0,0,1,2.47-.35,40.39,40.39,0,0,1,6.85-.28,2.66,2.66,0,0,1,1.89,1.39,3.9,3.9,0,0,1,.35,2.69,8.87,8.87,0,0,1-.93,2.75,3.09,3.09,0,0,1-1.48,1.35,3.41,3.41,0,0,1-1.94.2c-2.16-.29-3.89-.46-5.21-.5a14.75,14.75,0,0,0-3.25.2,2.92,2.92,0,0,0-1.7.79,4.29,4.29,0,0,0-.55,1.12q-.27.75-.54,1.8c-.19.7-.32,1.15-.39,1.36a8,8,0,0,0-.38,1.11,2.48,2.48,0,0,0,.07,1.17c.12.4.27.62.44.66l1.11-.27a20,20,0,0,1,2.61-.41,29.77,29.77,0,0,0,4-.81c1.55-.41,2.62-.69,3.21-.82a4.25,4.25,0,0,1,1.81,0,1.63,1.63,0,0,1,1.12,1.08,4.27,4.27,0,0,1,.11,2.54,9.26,9.26,0,0,1-.69,2.13,6.18,6.18,0,0,1-1,1.58,1.48,1.48,0,0,1-1,.32c-.43,0-1,0-1.65.07a9,9,0,0,0-2.25.47,18.45,18.45,0,0,1-2.37.57l-2.91.51c-1,.17-2.14.43-3.4.77-.32.07-.81.22-1.48.44a8.92,8.92,0,0,1-1.07.32,7.72,7.72,0,0,1-2.68-1.63,2.21,2.21,0,0,1-.83-1.12,3.9,3.9,0,0,1,0-1.84,6.06,6.06,0,0,1,1.24-2.67,7,7,0,0,1,2.25-1.87,3.37,3.37,0,0,0,.63-.47,1,1,0,0,0,.27-.45c0-.18.15-.59.29-1.21.05-.22.13-.48.22-.77a8.61,8.61,0,0,0,.23-.94,14.69,14.69,0,0,0,.36-2.8,1.69,1.69,0,0,0-.42-1.17,3.85,3.85,0,0,1-.73-1,3.47,3.47,0,0,1,.07-1.61,7.39,7.39,0,0,1,.81-1.82,8.76,8.76,0,0,1,1.53-2,6.08,6.08,0,0,0,.75-.91,3.47,3.47,0,0,0,.37-1.17c.4-2.09.67-3.55.79-4.37a8,8,0,0,0,.13-1.87,1.82,1.82,0,0,0-.46-1.08,2.52,2.52,0,0,1-.35-.59,1.4,1.4,0,0,1,0-.8,5.84,5.84,0,0,1,1-2.08,9.55,9.55,0,0,1,1.46-1.73,10.09,10.09,0,0,1,3-1.07A44.92,44.92,0,0,1,253.73,90c.94-.14,1.9-.3,2.86-.49l2.56-.52,1.83-.38A2.86,2.86,0,0,1,262,88.54Z"/><path d="M259.55,126.14l1.38-7.21q.81-4.28,1.5-7.27c.45-2,.76-3.29.93-3.89a10,10,0,0,0,.1-1.65c0-.72,0-1.22,0-1.53a7.24,7.24,0,0,1,.14-1.2,8.16,8.16,0,0,1,1.4-2.85,14.15,14.15,0,0,1,3-3.14,13,13,0,0,1,4.4-2.18A11.62,11.62,0,0,1,277.9,95a10.89,10.89,0,0,1,4.34,1.69,8.19,8.19,0,0,1,2.63,4.17,10,10,0,0,1,.39,5,21.9,21.9,0,0,1-2.14,6.1,20.82,20.82,0,0,1-3.61,5,13.18,13.18,0,0,1-4.28,3,16.58,16.58,0,0,0-2,.95,2.07,2.07,0,0,0-.82,1.48,2.88,2.88,0,0,0,.14,1.75,16.91,16.91,0,0,0,2.52,4.44,4.91,4.91,0,0,0,2.55,1.81,1.9,1.9,0,0,0,1.79-.71l.7-.79a4.78,4.78,0,0,1,.65-.63.72.72,0,0,1,.59-.2c.38.07.61.46.7,1.18a9.6,9.6,0,0,1-.21,2.87,6.63,6.63,0,0,1-1.38,3,5.6,5.6,0,0,1-2.45,1.76,5.5,5.5,0,0,1-2.93.22,5.83,5.83,0,0,1-2.73-1.59,13.84,13.84,0,0,1-2.67-3.55,19.66,19.66,0,0,1-1.84-4.83q-.29-1.28-.48-2.19a3.32,3.32,0,0,0-.53-1.35,1.69,1.69,0,0,0-1.1-.58.84.84,0,0,0-1,.34,4.06,4.06,0,0,0-.48,1.37c0,.25-.07.46-.1.66s-.08.45-.14.75a22.9,22.9,0,0,1-1.87,6c-.77,1.52-1.53,2.21-2.26,2.07-.13,0-.29-.2-.49-.54a3.6,3.6,0,0,1-.42-1C258.72,131.67,258.91,129.46,259.55,126.14Zm14.63-25.49a5.52,5.52,0,0,0-1.45-.06,10.79,10.79,0,0,1-1.11,0,3,3,0,0,0-1.75.32,3.7,3.7,0,0,0-1.33,1.59,16.93,16.93,0,0,0-1.16,3.26c-.37,1.4-.77,3.22-1.2,5.48a14.26,14.26,0,0,0-.21,2.18,9,9,0,0,0,0,1.61c.15.6.74,1,1.8,1.19a11.34,11.34,0,0,0,5.59-.28,11.94,11.94,0,0,0,4.69-2.68,15.14,15.14,0,0,0,2.08-2.28,5.36,5.36,0,0,0,.82-2,8.14,8.14,0,0,0,0-3.76,4.56,4.56,0,0,0-1.13-1.72,9.9,9.9,0,0,0-2.36-1.74A11.09,11.09,0,0,0,274.18,100.65Z"/></svg>