<svg id="Layer_1" data-name="Layer 1" xmlns="http://www.w3.org/2000/svg" viewBox="0 0 700 700"><defs><style>.cls-1{fill:#f7c860;}.cls-2{fill:#363637;}.cls-3{fill:#4f5356;}.cls-4{fill:#6d7278;}.cls-5{fill:#fff;stroke:#544e4e;stroke-width:3px;}.cls-5,.cls-6{stroke-miterlimit:10;}.cls-6{fill:none;stroke:#d7f1f7;stroke-width:1.97px;}.cls-7{fill:#5498d1;}.cls-8{fill:#2c6e9b;}</style></defs><title>Segmenter FLAT copy</title><path d="M525.21,342.19s7.81-72.39,5.18-150"/><path d="M521.67,341.81c.83-12.39,1.36-24.89,1.74-37.35s.57-24.94.58-37.4c0-6.23-.06-12.46-.11-18.69s-.2-12.44-.43-18.66c-.33-12.43-1-24.83-1.81-37.21v-.1a8.77,8.77,0,1,1,17.5-1.1c0,.2,0,.42,0,.61-.09,12.64-.25,25.27-.79,37.86-.19,6.31-.57,12.59-.86,18.88s-.73,12.58-1.2,18.85q-1.32,18.83-3.19,37.59c-1.25,12.52-2.65,25-4.36,37.49a3.56,3.56,0,0,1-7.08-.71Z"/><polygon class="cls-1" points="618.72 136.86 446.35 109.28 446.35 189.08 610.33 202 618.72 136.86"/><path d="M469.55,132.55a2.35,2.35,0,0,1,1.73,1.1A4.3,4.3,0,0,1,472,136a12.27,12.27,0,0,1-.1,1.37,8.58,8.58,0,0,1-.83,3c-.4.76-.89,1.11-1.47,1-.38,0-.71-.4-1-1.06a5.12,5.12,0,0,0-.39-.81.79.79,0,0,0-.55-.23,1.22,1.22,0,0,0-.89.32,7.37,7.37,0,0,0-1,1c-1.09,1.21-1.85,2.09-2.28,2.63a11,11,0,0,0-1.18,1.76,5.38,5.38,0,0,0-.64,2,2.17,2.17,0,0,0,.47,1.55,2.08,2.08,0,0,0,1.45.86,14.12,14.12,0,0,0,2.33.08c.76,0,1.46-.09,2.1-.16a6.86,6.86,0,0,1,1.33-.06,3.93,3.93,0,0,1,1.76.65,2.9,2.9,0,0,1,1,.85,4.88,4.88,0,0,1,.51,2.17,23.81,23.81,0,0,1-.2,3.51,22.46,22.46,0,0,1-4.11,10.38,13,13,0,0,1-3.54,3.36,5.84,5.84,0,0,1-3.84,1,3.48,3.48,0,0,1-2.26-1.21,6,6,0,0,1-1.33-2.72,10.17,10.17,0,0,1-.16-3.45,11,11,0,0,1,.94-3.63c.45-.93.86-1.37,1.24-1.33a.61.61,0,0,1,.52.42,4.71,4.71,0,0,1,.18,1.22,7.26,7.26,0,0,0,.53,2.65,1.7,1.7,0,0,0,1.44,1,5.4,5.4,0,0,0,2.4-.2,5.19,5.19,0,0,0,1.73-1,6.53,6.53,0,0,0,1.21-1.39l.68-1c.36-.58.6-1,.73-1.24a3.07,3.07,0,0,0,.27-1,5.83,5.83,0,0,0,0-1.18,1.67,1.67,0,0,0-.45-.7,1.51,1.51,0,0,0-.89-.46,2.37,2.37,0,0,0-.76.19q-.57.19-1,.3a3.42,3.42,0,0,1-1,0,5.47,5.47,0,0,1-1.2-.28c-.42-.15-.79-.3-1.13-.46a2.93,2.93,0,0,0-.59-.26.81.81,0,0,0-.21,0l-.16,0-.2,0-.24,0c-.94-.11-1.6-.83-2-2.15a10.91,10.91,0,0,1-.3-4.31,22.55,22.55,0,0,1,2.48-7.8,26.24,26.24,0,0,1,4.45-6.36Q468.23,132.4,469.55,132.55Z"/><path d="M490.58,135.17q1.19.14.84,3.12a6.22,6.22,0,0,1-1.07,3.16c-.72,1.15-1.27,1.7-1.67,1.65a2,2,0,0,1-.7-.24,4.71,4.71,0,0,1-.65-.45,2.91,2.91,0,0,0-.4-.29,8.54,8.54,0,0,0-1.32.13h-1c-.28,0-.64,0-1.07.07s-.85.12-1.25.2a7.29,7.29,0,0,0-1.95.6,1.62,1.62,0,0,0-.72,1,19.47,19.47,0,0,0-.44,2.75c-.21,1.76-.32,3.06-.35,3.89s0,1.25.2,1.27a4.72,4.72,0,0,1,.75-.33,10.67,10.67,0,0,1,1.72-.5,23,23,0,0,1,4.77-.8,1.75,1.75,0,0,1,1.37,1,4,4,0,0,1,.33,2.28,9.11,9.11,0,0,1-.56,2.42,2.66,2.66,0,0,1-1,1.28,2,2,0,0,1-1.35.34,29.52,29.52,0,0,0-3.65,0,8.86,8.86,0,0,0-2.27.44A2,2,0,0,0,478,159a4.3,4.3,0,0,0-.35,1c-.11.44-.21,1-.32,1.59s-.18,1-.22,1.19a7.48,7.48,0,0,0-.24,1,2.74,2.74,0,0,0,.09,1c.1.34.21.52.33.53l.77-.31a11.14,11.14,0,0,1,1.81-.57,18.32,18.32,0,0,0,2.74-1l2.22-1a2.62,2.62,0,0,1,1.27-.17c.32,0,.6.32.81.83a4.39,4.39,0,0,1,.16,2.17,9.8,9.8,0,0,1-.41,1.88,5.88,5.88,0,0,1-.62,1.43,1,1,0,0,1-.67.35c-.29,0-.67.11-1.14.2a5.7,5.7,0,0,0-1.56.58,10.52,10.52,0,0,1-1.64.69c-.65.22-1.32.45-2,.67a23.46,23.46,0,0,0-2.36.94c-.21.09-.55.26-1,.5s-.71.36-.73.36A4.85,4.85,0,0,1,473,171.7a1.77,1.77,0,0,1-.61-.9,4,4,0,0,1-.06-1.57,6.31,6.31,0,0,1,.79-2.39,5.78,5.78,0,0,1,1.51-1.78,3.05,3.05,0,0,0,.42-.46,1,1,0,0,0,.17-.41c0-.16.09-.51.17-1.06,0-.19.07-.41.13-.68s.1-.53.13-.82a15.37,15.37,0,0,0,.16-2.43,1.52,1.52,0,0,0-.33-1,3,3,0,0,1-.55-.84,3.73,3.73,0,0,1,0-1.38,7.43,7.43,0,0,1,.51-1.63,8.17,8.17,0,0,1,1-1.85,8.08,8.08,0,0,0,.5-.84,4.56,4.56,0,0,0,.22-1c.21-1.82.34-3.08.4-3.8a7.44,7.44,0,0,0,0-1.61,1.69,1.69,0,0,0-.35-.89,2.08,2.08,0,0,1-.27-.47,1.48,1.48,0,0,1,0-.69,6.07,6.07,0,0,1,.66-1.86,8.82,8.82,0,0,1,1-1.6,6.68,6.68,0,0,1,2-1.16,29,29,0,0,1,4.29-1.48c.66-.19,1.32-.41,2-.65l1.77-.66,1.27-.47A1.83,1.83,0,0,1,490.58,135.17Z"/><path d="M490.17,162.43a49.47,49.47,0,0,1,2.27-10.16,41.32,41.32,0,0,1,4-8.58,20.37,20.37,0,0,1,5-5.67,7.12,7.12,0,0,1,5.09-1.7,2.79,2.79,0,0,1,2.06,1,3.37,3.37,0,0,1,.45,2.37,10,10,0,0,1-.27,1.56,4.71,4.71,0,0,1-.59,1.16c-.28.42-.46.61-.57.6a5.66,5.66,0,0,1-.6-.21,3.65,3.65,0,0,0-.88-.25,7.09,7.09,0,0,0-2.43.15,9.09,9.09,0,0,0-2.49,1.07,12,12,0,0,0-2.37,1.85,14.17,14.17,0,0,0-1.94,2.51,23.18,23.18,0,0,0-2,4.07,30.74,30.74,0,0,0-1.27,4.5c-.32,1.57-.59,3.28-.8,5.14-.09.74-.15,1.34-.17,1.81a7.82,7.82,0,0,0,0,1.37,10.75,10.75,0,0,0,.27,1.35q.6,2.21,1.26,2.28a4.44,4.44,0,0,0,2.79-.61,9.88,9.88,0,0,0,2.47-2,15.6,15.6,0,0,0,1.8-2.36,4.93,4.93,0,0,0,.72-1.51c.09-.77-.08-1.19-.51-1.24a19,19,0,0,0-3.18-.15,10.47,10.47,0,0,0-1.61.18c-.8-.1-1.12-.8-1-2.11a5.37,5.37,0,0,1,.55-1.91,4.89,4.89,0,0,1,1.31-1.47,14.34,14.34,0,0,1,2.69-1.85,4.19,4.19,0,0,1,2.37-.44,2.18,2.18,0,0,1,1.62.8,3.54,3.54,0,0,1,.3,2.36c-.1.85-.23,1.62-.38,2.3s-.3,1.28-.45,1.79-.22.8-.23.85,0,.4,0,.81,0,.74-.06,1a12.28,12.28,0,0,1-1.3,4,23.14,23.14,0,0,1-2.63,4.14,15.85,15.85,0,0,1-3.24,3.14,4.49,4.49,0,0,1-3,1,2.52,2.52,0,0,1-1.7-1.05,7.06,7.06,0,0,1-1.14-2.61,18.58,18.58,0,0,1-.48-4A38.77,38.77,0,0,1,490.17,162.43Z"/><path d="M515.55,140.32c.28,0,.47.23.57.59a9.16,9.16,0,0,1,.21,1.9c0,.9.06,2.79.1,5.67,0,1.68,0,3.26,0,4.75s0,2.78-.05,3.88,0,1.89,0,2.36.05.71.12.72.31-.62.61-1.89q1.54-6.39,3.17-11.24a10.71,10.71,0,0,1,1.38-2.86c.46-.6.89-.88,1.29-.83s.64.45.85,1.22a17.39,17.39,0,0,1,.49,2.66q.18,1.51.81,7.63.38,3.84.56,7.31c.12,2.31.18,4.24.18,5.78s0,2.54-.07,3a7.72,7.72,0,0,1-.48,1.89,7.23,7.23,0,0,1-.78,1.6c-.28.41-.5.6-.65.59a1,1,0,0,1-.9-.63c-.07-.18-.2-1.74-.39-4.67s-.33-5.08-.43-6.46q-.3-4.35-.69-6.87t-.63-2.55a17.33,17.33,0,0,0-1,3.3c-.43,1.59-1.05,3.67-1.84,6.26s-1.4,4.67-1.79,6.26c-.27,1.15-.48,2-.63,2.57a10.48,10.48,0,0,1-.55,1.58,5.8,5.8,0,0,1-.73,1.26c-.27.34-.49.5-.64.48-.37,0-.62-.33-.76-.86a8.72,8.72,0,0,1-.2-2c0-.81,0-2.36.11-4.66s.12-4.16.13-5.6c0-.79,0-2,.05-3.68s0-2.73,0-3.18,0-.68-.14-.69-.89,2.18-2.25,6.59q-3.09,9.81-4,13.33a7.79,7.79,0,0,1-.67,1.84,1,1,0,0,1-1.13.55c-.17,0-.28-.16-.34-.43a2.16,2.16,0,0,1-.05-.8,29.82,29.82,0,0,1,.78-3.87c.4-1.59,1-3.56,1.69-5.91s1.54-4.93,2.47-7.76c.85-2.63,1.51-4.65,2-6.06s1-2.7,1.45-3.85a5.55,5.55,0,0,0,.3-.92c0-.34.08-.93.13-1.77s.1-1.5.15-2a5.55,5.55,0,0,1,.48-1.56,6.1,6.1,0,0,1,.87-1.44C515.07,140.47,515.34,140.29,515.55,140.32Z"/><path d="M544.6,141.44c.78.09,1.06,1.13.83,3.12a8.36,8.36,0,0,1-.35,1.78,8.7,8.7,0,0,1-.71,1.38c-.72,1.15-1.27,1.7-1.67,1.65a1.58,1.58,0,0,1-.7-.24,4.81,4.81,0,0,1-.66-.45,3.24,3.24,0,0,0-.4-.29,9.25,9.25,0,0,0-1.32.14h-1a13.66,13.66,0,0,0-2.31.28,7.11,7.11,0,0,0-2,.59,1.65,1.65,0,0,0-.72,1,22.43,22.43,0,0,0-.44,2.74c-.2,1.76-.32,3.06-.35,3.89s0,1.26.21,1.28a3.06,3.06,0,0,1,.75-.33,9.41,9.41,0,0,1,1.71-.51,23.17,23.17,0,0,1,4.78-.8,1.73,1.73,0,0,1,1.36,1A3.77,3.77,0,0,1,542,160a9.16,9.16,0,0,1-.55,2.42,2.81,2.81,0,0,1-1,1.29,2.15,2.15,0,0,1-1.36.33,29.53,29.53,0,0,0-3.65,0,8.82,8.82,0,0,0-2.27.45,2,2,0,0,0-1.15.81,3.88,3.88,0,0,0-.35,1c-.11.45-.22,1-.32,1.59s-.19,1-.23,1.2a8.77,8.77,0,0,0-.23,1,2.42,2.42,0,0,0,.09,1c.09.33.2.51.33.53l.76-.32a11.81,11.81,0,0,1,1.81-.57,18.38,18.38,0,0,0,2.75-1q1.61-.72,2.22-1a2.48,2.48,0,0,1,1.26-.17c.33,0,.6.31.82.83a4.45,4.45,0,0,1,.16,2.16,10.43,10.43,0,0,1-.41,1.88,6.1,6.1,0,0,1-.62,1.43,1,1,0,0,1-.67.35l-1.15.2a5.65,5.65,0,0,0-1.55.58,11,11,0,0,1-1.64.69l-2,.68a21,21,0,0,0-2.35.93c-.22.09-.56.26-1,.5a3.93,3.93,0,0,1-.74.36A4.72,4.72,0,0,1,527,178a1.71,1.71,0,0,1-.62-.89,4.12,4.12,0,0,1,0-1.58,6.29,6.29,0,0,1,.78-2.39,6,6,0,0,1,1.51-1.78,3.24,3.24,0,0,0,.43-.45,1.13,1.13,0,0,0,.17-.42c0-.15.09-.51.17-1.06,0-.19.07-.41.12-.67a7.37,7.37,0,0,0,.13-.82,15.49,15.49,0,0,0,.16-2.43,1.37,1.37,0,0,0-.33-1,3.16,3.16,0,0,1-.54-.84,3.8,3.8,0,0,1,0-1.39,7.07,7.07,0,0,1,.5-1.62,8,8,0,0,1,1-1.86,6.79,6.79,0,0,0,.49-.84,4,4,0,0,0,.22-1c.21-1.81.35-3.08.41-3.79a9,9,0,0,0,0-1.61,1.66,1.66,0,0,0-.35-.89,1.69,1.69,0,0,1-.27-.48,1.43,1.43,0,0,1,0-.68,5.77,5.77,0,0,1,.66-1.87,8.09,8.09,0,0,1,1-1.6,6.68,6.68,0,0,1,2-1.16,29.24,29.24,0,0,1,4.28-1.48c.66-.19,1.32-.41,2-.65l1.77-.65,1.26-.48A2.12,2.12,0,0,1,544.6,141.44Z"/><path d="M559.41,144.4c.37,0,.59.58.67,1.61a30.09,30.09,0,0,1-.13,4.53c0,.31-.06,1-.13,2s-.21,2.62-.41,4.76-.49,4.72-.84,7.75c-.41,3.51-.78,6.38-1.12,8.63s-.58,3.82-.74,4.72a8.35,8.35,0,0,1-1,2.91,1.52,1.52,0,0,1-1.48.81c-.59-.07-1.34-.77-2.25-2.11a24.9,24.9,0,0,1-2.53-4.94,26.39,26.39,0,0,1-1.57-5.41c-.11-.71-.22-1.25-.31-1.62s-.21-.57-.33-.59-.12.21-.2.63-.19,1.07-.32,2-.28,1.93-.45,3.12-.37,2.63-.61,4.31a14.1,14.1,0,0,1-.73,3.18c-.29.71-.66,1-1.12,1-.21,0-.35-.22-.41-.58a8.94,8.94,0,0,1,0-1.83c.06-.86.2-2.16.4-3.9q.47-4,.89-6.91c.28-1.94.52-3.51.72-4.73s.34-2,.42-2.41a16,16,0,0,0,0-2.62,15.47,15.47,0,0,1,0-2.45,4.66,4.66,0,0,1,.68-1.65c.4-.69.73-1.07,1-1.16a1.43,1.43,0,0,1,.76,0q.21,0,.33.93c.14,1,.33,2.12.58,3.32s.59,2.63,1,4.3.83,3.15,1.21,4.46q1.13,3.78,2,6.18a8.49,8.49,0,0,0,1.06,2.41.53.53,0,0,0,.55-.21,3.21,3.21,0,0,0,.3-1.22c0-.05.07-1.1.21-3.14s.29-4,.46-5.85.29-3.36.41-4.82.26-3,.42-4.66.33-3.41.55-5.28c.13-1.1.25-2,.37-2.6a5.72,5.72,0,0,1,.51-1.62,3.69,3.69,0,0,1,.64-.82C559.1,144.5,559.29,144.39,559.41,144.4Z"/><path d="M576,145.32a.91.91,0,0,1,.82.62,4.52,4.52,0,0,1,.05,1.84,10.49,10.49,0,0,1-.44,1.79,8,8,0,0,1-.73,1.73,4,4,0,0,1-1.5,1.28,8.54,8.54,0,0,1-2.64.95,3.75,3.75,0,0,0-1.66.67,3.27,3.27,0,0,0-.63,1.91c-.09.74-.27,2.65-.56,5.73s-.56,5.75-.83,8c-.06.51-.13,1.09-.22,1.74s-.17,1.27-.26,1.86-.17,1.21-.26,1.87c-.26,2.14-.48,3.68-.65,4.62a6.41,6.41,0,0,1-.78,2.27,2.72,2.72,0,0,1-.51.6c-.23.21-.37.31-.44.3-.69-.08-.88-1.44-.58-4.07.06-.46.18-1.37.37-2.73s.4-2.78.6-4.26.41-3.18.63-5.1c.51-4.41.85-7.49,1-9.21a10.54,10.54,0,0,0,0-3.17c0-.08-.17-.17-.46-.27s-.7-.21-1.21-.33a18,18,0,0,0-1.89-.3c-1.34-.16-1.89-1.2-1.67-3.13a5.68,5.68,0,0,1,.28-1.07,4.14,4.14,0,0,1,.49-1,2.35,2.35,0,0,1,1-.93,3.82,3.82,0,0,1,1.34-.32c.49,0,1.18-.08,2-.11a16.87,16.87,0,0,0,2-.15c1.08-.16,2-.32,2.66-.47s1.59-.38,2.71-.71A10.43,10.43,0,0,1,576,145.32Z"/><path d="M591.61,146.9q1.18.14.84,3.12a8.36,8.36,0,0,1-.35,1.78,8.87,8.87,0,0,1-.72,1.38c-.71,1.15-1.26,1.7-1.66,1.65a1.58,1.58,0,0,1-.7-.24,4.81,4.81,0,0,1-.66-.45,3.24,3.24,0,0,0-.4-.29,9.25,9.25,0,0,0-1.32.14h-1a13.66,13.66,0,0,0-2.31.28,7.11,7.11,0,0,0-2,.59,1.65,1.65,0,0,0-.72,1,22.43,22.43,0,0,0-.44,2.74c-.2,1.76-.32,3.06-.35,3.89s0,1.26.21,1.28q-.08,0,.75-.33a9.41,9.41,0,0,1,1.71-.51,23.17,23.17,0,0,1,4.78-.8,1.73,1.73,0,0,1,1.36,1,3.77,3.77,0,0,1,.33,2.27,8.91,8.91,0,0,1-.56,2.43,2.75,2.75,0,0,1-1,1.28,2.15,2.15,0,0,1-1.36.33,29.52,29.52,0,0,0-3.65,0,8.82,8.82,0,0,0-2.27.45,2.07,2.07,0,0,0-1.16.81,3.93,3.93,0,0,0-.34,1q-.16.68-.33,1.59c-.1.61-.18,1-.22,1.2a8.77,8.77,0,0,0-.23,1,2.42,2.42,0,0,0,.09,1c.09.34.2.51.33.53l.76-.32a11.81,11.81,0,0,1,1.81-.57,18.38,18.38,0,0,0,2.75-1q1.61-.72,2.22-1a2.48,2.48,0,0,1,1.26-.17c.33,0,.6.31.82.83a4.45,4.45,0,0,1,.16,2.16,10.43,10.43,0,0,1-.41,1.88,6.1,6.1,0,0,1-.62,1.43,1,1,0,0,1-.67.35l-1.15.2a5.53,5.53,0,0,0-1.55.58,11,11,0,0,1-1.64.69l-2,.68a21,21,0,0,0-2.35.93c-.22.09-.56.26-1,.5a4.3,4.3,0,0,1-.74.36,4.72,4.72,0,0,1-1.92-1.17,1.71,1.71,0,0,1-.62-.89,4.12,4.12,0,0,1,0-1.58,6.29,6.29,0,0,1,.78-2.39,6,6,0,0,1,1.51-1.78,3.24,3.24,0,0,0,.43-.45,1.13,1.13,0,0,0,.17-.42c0-.15.09-.51.16-1.06,0-.18.07-.41.13-.67a7.37,7.37,0,0,0,.13-.82,15.49,15.49,0,0,0,.16-2.43,1.47,1.47,0,0,0-.33-1,3.54,3.54,0,0,1-.55-.84,3.64,3.64,0,0,1,0-1.39,6.59,6.59,0,0,1,.5-1.62,8.44,8.44,0,0,1,1-1.86,6,6,0,0,0,.5-.84,4,4,0,0,0,.22-1c.21-1.81.35-3.08.41-3.79a9,9,0,0,0,0-1.61,1.74,1.74,0,0,0-.35-.89,1.69,1.69,0,0,1-.27-.48,1.55,1.55,0,0,1,0-.68,6.09,6.09,0,0,1,.67-1.87,8.09,8.09,0,0,1,1-1.6,6.68,6.68,0,0,1,2-1.16,28.83,28.83,0,0,1,4.28-1.48c.66-.19,1.32-.41,2-.65l1.77-.65,1.26-.48A2.12,2.12,0,0,1,591.61,146.9Z"/><path d="M591.16,179.28l.72-6.28c.29-2.48.57-4.59.82-6.34s.42-2.89.52-3.41a9.07,9.07,0,0,0,0-1.43c0-.6,0-1-.06-1.3a7.12,7.12,0,0,1,.06-1,8.3,8.3,0,0,1,.88-2.55,13,13,0,0,1,2-2.94,9.46,9.46,0,0,1,3-2.22,6.8,6.8,0,0,1,3.83-.61,6.33,6.33,0,0,1,3.08,1.09,6.56,6.56,0,0,1,2,3.36,10.14,10.14,0,0,1,.44,4.28,22.58,22.58,0,0,1-1.3,5.39,19.76,19.76,0,0,1-2.36,4.56,10.69,10.69,0,0,1-2.89,2.92,11.24,11.24,0,0,0-1.38,1,2,2,0,0,0-.53,1.34,2.78,2.78,0,0,0,.16,1.48,14.06,14.06,0,0,0,1.9,3.6,3.1,3.1,0,0,0,1.84,1.33,1.28,1.28,0,0,0,1.23-.75l.47-.74a4.57,4.57,0,0,1,.42-.58.56.56,0,0,1,.41-.23c.27,0,.44.35.53,1a10.06,10.06,0,0,1-.06,2.47,6.56,6.56,0,0,1-.86,2.69,4.48,4.48,0,0,1-1.66,1.71,3.28,3.28,0,0,1-2,.43,3.61,3.61,0,0,1-2-1.14,10.4,10.4,0,0,1-2-2.82,17.33,17.33,0,0,1-1.45-4c-.16-.71-.29-1.32-.41-1.84a2.84,2.84,0,0,0-.41-1.11,1,1,0,0,0-.79-.41.61.61,0,0,0-.66.37,4.11,4.11,0,0,0-.29,1.22c0,.21,0,.4,0,.57s0,.39-.07.65a24.09,24.09,0,0,1-1.11,5.29c-.49,1.37-1,2-1.51,2q-.13,0-.36-.42A3.5,3.5,0,0,1,591,185,21,21,0,0,1,591.16,179.28Zm9.39-23a3.42,3.42,0,0,0-1,.07c-.4.08-.65.12-.77.13a1.8,1.8,0,0,0-1.21.42,3.53,3.53,0,0,0-.88,1.47,17.86,17.86,0,0,0-.7,2.88c-.21,1.23-.43,2.82-.66,4.8a14.89,14.89,0,0,0-.08,1.87,8,8,0,0,0,.09,1.38q.18.75,1.29.87a6.7,6.7,0,0,0,3.9-.7,9.09,9.09,0,0,0,3.19-2.68,14.56,14.56,0,0,0,1.38-2.12,5.73,5.73,0,0,0,.51-1.78,8.24,8.24,0,0,0-.15-3.21,3.71,3.71,0,0,0-.84-1.38,6.25,6.25,0,0,0-1.7-1.3A6.46,6.46,0,0,0,600.55,156.26Z"/><path class="cls-2" d="M479.73,316.78l1.39.13,1.55.1c1,0,2.09,0,3.14,0a36.86,36.86,0,0,0,6.1-.73,24,24,0,0,0,10.2-4.53,19.32,19.32,0,0,0,5.9-8.37,34.46,34.46,0,0,0,1.94-11.2,8.52,8.52,0,0,1,17,.36,8.43,8.43,0,0,1-.08,1l0,.21a50.41,50.41,0,0,1-5.06,16.13A33.67,33.67,0,0,1,509.71,323a37,37,0,0,1-16.22,5,48.89,48.89,0,0,1-8,0c-1.32-.12-2.63-.28-3.94-.49-.65-.11-1.3-.23-2-.37l-1-.22-1.11-.27a5,5,0,0,1,1.71-9.91Z"/><ellipse class="cls-2" cx="527.21" cy="264.81" rx="23.45" ry="34.48" transform="translate(-6.63 13.64) rotate(-1.47)"/><ellipse class="cls-2" cx="504.89" cy="269.27" rx="12.27" ry="18.04" transform="translate(-62.1 346.32) rotate(-35.81)"/><path class="cls-3" d="M198,237l12.11,12.88a164.61,164.61,0,0,0-5.59,59.23l-19,13s-6.67,18.47,15.95,48.84c2.49,3.34,11.14,1.31,19-1.44a168.45,168.45,0,0,0,23.13,37c-2.53,9.94-5,21.89-3.5,26,4.13,11.16,35.13,31.23,35.13,31.23l25.58-15.44a103.06,103.06,0,0,0,51.91,5.55l11,23.39s42-8.35,49.39-27.5c2.49-6.48-1.25-19.62-3.39-26,31.92-33.19,45.41-88.35,30.82-144.21-13.55-51.88-47.92-91.39-88.05-107.45l-.66-29.2s-50.23-13.8-75.59,5.12c-4.72,3.52-6.38,15.93-6.92,26.42a102.54,102.54,0,0,0-26,18.47c-4-4.31-8.66-8.58-13.86-7.59C204,190.13,198,237,198,237Zm108.76-44.46c37-9.67,80,32.44,96.14,94s-.87,119.38-37.88,129-80.05-32.44-96.13-94S269.79,202.22,306.79,192.56Z"/><path class="cls-4" d="M213.25,230.88l9.86,10.48a164.2,164.2,0,0,0-5.75,57.86l-20.83,18.94s6,41.88,17.18,48.14c3.93,2.21,13.32-.08,20.86-2.54a167.64,167.64,0,0,0,21,33.26c-1.83,6.86-5.53,22.33-3.42,28,4.13,11.16,35.65,31.56,35.65,31.56l26.44-16.47a103.77,103.77,0,0,0,47.28,5.91L371.32,467s37.56-9.56,44.21-19.66c3.13-4.74,2.65-17.5,1.79-26.84,14.1-12.83,25.1-29.65,32.28-48.95l27.16-9.92s9.4-47.61,0-59c-2.75-3.36-11.35-4.54-18.52-4.92a181.71,181.71,0,0,0-11.95-48.1l20.05-19.4S444,190.51,430.42,186.89c-4.61-1.22-13.64,2.22-21.39,5.89a133.76,133.76,0,0,0-42.68-28.68L362,145.35s-55-14.79-68.44-4.1c-4,3.21-5.82,13.12-6.58,22.54A103,103,0,0,0,252.2,188.6c-8.42-3.17-18-5.9-22.79-3.31C218.79,191.08,213.25,230.88,213.25,230.88Zm105-35.24C359.39,184.9,405,223.12,420.09,281s-6,113.5-47.07,124.24-86.68-27.48-101.8-85.36S277.18,206.37,318.29,195.64Z"/><path class="cls-2" d="M392.32,304.77a15.44,15.44,0,0,1,0,6,26.92,26.92,0,0,1-1.75,5.78,26.92,26.92,0,0,1-18.44,15.59,30.54,30.54,0,0,1-12.51.32,43.35,43.35,0,0,1-11.48-3.84,63.63,63.63,0,0,1-9.89-6.32,77.78,77.78,0,0,1-15.69-16.59.69.69,0,0,1,.17-1,.68.68,0,0,1,.8,0h0a209.23,209.23,0,0,0,18.1,12.61,80.47,80.47,0,0,0,9.43,4.89,46.06,46.06,0,0,0,9.78,2.9,24.94,24.94,0,0,0,18.58-3.77,28.72,28.72,0,0,0,7.17-7.05,27.49,27.49,0,0,0,2.61-4.5,18.13,18.13,0,0,0,1.56-5v0a.78.78,0,0,1,.88-.65A.77.77,0,0,1,392.32,304.77Z"/><ellipse class="cls-5" cx="369.75" cy="221.34" rx="27.72" ry="31.29" transform="matrix(0.97, -0.25, 0.25, 0.97, -43.93, 100.61)"/><ellipse class="cls-2" cx="369.67" cy="221.02" rx="13.53" ry="15.88" transform="translate(-14.61 26.5) rotate(-4.03)"/><ellipse class="cls-6" cx="345.97" cy="299.34" rx="91.22" ry="125.34" transform="translate(-48.91 68.31) rotate(-10.54)"/><path class="cls-7" d="M264.7,155.16c-.22,32.3,25.15,19.41,56.33,19.63S377.4,188.25,377.62,156,352.75,97.3,321.57,97.08,264.93,122.87,264.7,155.16Z"/><path class="cls-8" d="M353.9,157.81l22.78-13s65.43,15.37,31.28,30.52-86.93-.54-86.93-.54Z"/><path class="cls-2" d="M350.59,342.07a8.38,8.38,0,0,0,2.44,3.46,13.22,13.22,0,0,0,3.68,2.23,18,18,0,0,0,8.49,1.29,19,19,0,0,0,8-2.73,29.84,29.84,0,0,0,3.6-2.67c1.2-1,2.28-2.19,3.53-3.38l.07-.08a1.57,1.57,0,0,1,2.61,1.48,18.2,18.2,0,0,1-6.06,9.78,18.79,18.79,0,0,1-11.32,4.22,19.66,19.66,0,0,1-11.53-3.17,14.87,14.87,0,0,1-4.32-4.3,9.47,9.47,0,0,1-1.63-5.93,1.26,1.26,0,0,1,1.36-1.14,1.27,1.27,0,0,1,1.06.81Z"/><ellipse class="cls-5" cx="326.22" cy="220.07" rx="31.04" ry="34.35" transform="matrix(0.97, -0.25, 0.25, 0.97, -45.02, 89.57)"/><ellipse class="cls-2" cx="313.52" cy="218.83" rx="15.64" ry="18.06" transform="translate(-45.12 86.32) rotate(-14.64)"/><path class="cls-2" d="M311.45,445.31l.32.39.25.35.5.69.86,1.41c.56.94,1,1.91,1.51,2.88l1.24,3,1,3.05a30,30,0,0,1,.8,3.1c.21,1,.53,2.08.64,3.13l.44,3.16.22,1.59.08,1.58a89.06,89.06,0,0,1-2.06,25.2l-.62,3.11-.83,3L314.1,507c-.64,2-1.37,3.95-2.05,5.93l-1,3c-.36,1-.68,2-1.11,2.94l-2.44,5.77-1.23,2.88c-.41,1-.81,1.94-1.29,2.85l-5.57,11.2a7.6,7.6,0,0,1-13.61-6.76,6.69,6.69,0,0,1,.43-.75l.22-.34,6.4-9.85c.55-.82,1-1.67,1.5-2.52l1.45-2.54,2.9-5.1c.51-.85.9-1.73,1.33-2.6l1.27-2.63c.84-1.75,1.74-3.5,2.54-5.27l2.17-5.4,1.1-2.7.88-2.76a80.86,80.86,0,0,0,4.51-22.61l.1-1.44,0-1.43-.07-2.87c0-1-.18-1.89-.25-2.85s-.16-1.91-.38-2.83l-.56-2.8-.78-2.73c-.33-.87-.64-1.77-1-2.62l-.59-1.26-.32-.57-.15-.29-.13-.22-.14-.23a2,2,0,0,1,3.3-2.29Z"/><path class="cls-2" d="M286.06,544.37l68.06,23a3,3,0,0,0,4-3.15c-1.21-13.85-10.05-52.74-72.32-25.51A3.05,3.05,0,0,0,286.06,544.37Z"/><path class="cls-2" d="M350.73,449.77l.42.22.33.19.66.4,1.2.84c.79.58,1.5,1.23,2.24,1.86l2,2.05,1.8,2.23a42.86,42.86,0,0,1,5.47,9.94l1,2.66.25.66.19.68.36,1.36a47.82,47.82,0,0,1,1.32,5.47c.3,1.84.65,3.7.9,5.55l.43,5.56a51.76,51.76,0,0,1,.12,5.56c0,1.85,0,3.72-.08,5.56l-.46,5.51c-.17,1.83-.24,3.7-.57,5.49L367.5,517c-.31,1.8-.5,3.66-.94,5.42l-2.34,10.72a7.61,7.61,0,1,1-14.86-3.26,8.7,8.7,0,0,1,.26-.91l.16-.42,3.46-9.6c.64-1.6,1-3.23,1.51-4.86l1.43-4.88c.53-1.63.79-3.27,1.18-4.92l1.08-5c.3-1.65.47-3.31.72-5a42.56,42.56,0,0,0,.56-5l.27-5c0-1.66-.1-3.3-.14-5a40.42,40.42,0,0,0-.52-4.92l-.16-1.23-.08-.62-.14-.59-.57-2.39a36.86,36.86,0,0,0-3.52-9.09l-1.26-2.08-1.45-1.94c-.54-.58-1.06-1.21-1.63-1.75l-.86-.8-.43-.35-.38-.29-.28-.22a2,2,0,0,1,2.16-3.37Z"/><path class="cls-2" d="M351.14,539.42l66.65,7.92a4.19,4.19,0,0,0,4.46-5.5c-4.85-14.19-21.89-45.11-73-10A4.19,4.19,0,0,0,351.14,539.42Z"/><ellipse class="cls-2" cx="144.97" cy="303.34" rx="12.27" ry="18.04" transform="translate(-190.7 322.28) rotate(-67.68)"/><path class="cls-4" d="M116.33,350.25,129,363.56l-.85,8.47,7.48,1.74-1.58,9.11,7.93,3-1.45,8.93,8.89,3.9-1.83,9,7.54,2.63-1.29,8.81,7.21,3.59-.87,8,7.83,4.39-1.42,7.28,7.06,3.46-.95,7.61,7.31,3.56-1.55,6.81,6.33,1.87s-1.1,7.28-1,7.24S213.21,460.1,213,459.32L165.2,332.83Z"/><path class="cls-1" d="M99.15,313.63c-2.14,5.77,10.2,26.93,4.95,29.9-8.55,4.86-8.92,2.24-7.2,12.83s7.9,8.56,15.15,5.65L158,344.29a14.85,14.85,0,0,0,8.08-18.94L155.7,299.61a14,14,0,0,0-18.31-8.35S105.15,297.4,99.15,313.63Zm38.31-12.74a9.37,9.37,0,0,1,12.22,5.57l.81,2.14c1.88,5,11.22,22.51,6.38,24.46l-23.12,9.27c-21.09,13.11-22.12-12.38-24-17.39L109,322.8a9.91,9.91,0,0,1,5.39-12.64Z"/><path class="cls-2" d="M204.89,283.64l-.71-.74c-.27-.27-.55-.55-.84-.82-.58-.54-1.2-1.07-1.82-1.58a40.29,40.29,0,0,0-4-2.8,35.21,35.21,0,0,0-8.68-3.82,31.29,31.29,0,0,0-18.32.61,42.8,42.8,0,0,0-8.71,4c-1.43.75-2.77,1.76-4.14,2.64s-2.66,2-4,3a106.49,106.49,0,0,0-14.32,14.54l0,0a7.5,7.5,0,0,1-11.56-9.57l.35-.4a121.1,121.1,0,0,1,17.43-15.36c1.64-1.11,3.28-2.21,5-3.25s3.43-2,5.28-2.87A55.74,55.74,0,0,1,167.35,263a42.49,42.49,0,0,1,24.73,1A44.89,44.89,0,0,1,203,269.66a48.07,48.07,0,0,1,4.69,3.86c.74.69,1.46,1.4,2.16,2.16.35.37.69.75,1,1.15s.64.77,1.08,1.34A4.45,4.45,0,0,1,205.2,284Z"/><ellipse class="cls-2" cx="123.57" cy="298.34" rx="23.5" ry="31.35" transform="translate(-96.17 61.72) rotate(-20.38)"/></svg>