<svg id="Layer_1" data-name="Layer 1" xmlns="http://www.w3.org/2000/svg" viewBox="0 0 700 700"><defs><style>.cls-1{fill:#f7c860;}.cls-2{font-size:58.6px;font-family:ComicStripMN, Comic Strip MN;}.cls-3{fill:#363637;}.cls-4{fill:#4f5356;}.cls-5{fill:#6d7278;}.cls-6{fill:#fff;stroke:#544e4e;stroke-width:3px;}.cls-6,.cls-7{stroke-miterlimit:10;}.cls-7{fill:none;stroke:#d7f1f7;stroke-width:1.97px;}.cls-8{fill:#5498d1;}.cls-9{fill:#2c6e9b;}</style></defs><title>Segmenter FLAT copy</title><path d="M525.21,342.19s7.81-72.39,5.18-150"/><path d="M521.67,341.81c.83-12.39,1.36-24.89,1.74-37.35s.57-24.94.58-37.4c0-6.23-.06-12.46-.11-18.69s-.2-12.44-.43-18.66c-.33-12.43-1-24.83-1.81-37.21v-.1a8.77,8.77,0,1,1,17.5-1.1c0,.2,0,.42,0,.61-.09,12.64-.25,25.27-.79,37.86-.19,6.31-.57,12.59-.86,18.88s-.73,12.58-1.2,18.85q-1.32,18.83-3.19,37.59c-1.25,12.52-2.65,25-4.36,37.49a3.56,3.56,0,0,1-7.08-.71Z"/><polygon class="cls-1" points="618.72 136.86 446.35 109.28 446.35 189.08 610.33 202 618.72 136.86"/><text class="cls-2" transform="translate(455.63 170.34) rotate(6.62) scale(0.37 1)">SEGMENTER</text><path class="cls-3" d="M479.73,316.78l1.39.13,1.55.1c1,0,2.09,0,3.14,0a36.86,36.86,0,0,0,6.1-.73,24,24,0,0,0,10.2-4.53,19.32,19.32,0,0,0,5.9-8.37,34.46,34.46,0,0,0,1.94-11.2,8.52,8.52,0,0,1,17,.36,8.43,8.43,0,0,1-.08,1l0,.21a50.41,50.41,0,0,1-5.06,16.13A33.67,33.67,0,0,1,509.71,323a37,37,0,0,1-16.22,5,48.89,48.89,0,0,1-8,0c-1.32-.12-2.63-.28-3.94-.49-.65-.11-1.3-.23-2-.37l-1-.22-1.11-.27a5,5,0,0,1,1.71-9.91Z"/><ellipse class="cls-3" cx="527.21" cy="264.81" rx="23.45" ry="34.48" transform="translate(-6.63 13.64) rotate(-1.47)"/><ellipse class="cls-3" cx="504.89" cy="269.27" rx="12.27" ry="18.04" transform="translate(-62.1 346.32) rotate(-35.81)"/><path class="cls-4" d="M198,237l12.11,12.88a164.61,164.61,0,0,0-5.59,59.23l-19,13s-6.67,18.47,15.95,48.84c2.49,3.34,11.14,1.31,19-1.44a168.45,168.45,0,0,0,23.13,37c-2.53,9.94-5,21.89-3.5,26,4.13,11.16,35.13,31.23,35.13,31.23l25.58-15.44a103.06,103.06,0,0,0,51.91,5.55l11,23.39s42-8.35,49.39-27.5c2.49-6.48-1.25-19.62-3.39-26,31.92-33.19,45.41-88.35,30.82-144.21-13.55-51.88-47.92-91.39-88.05-107.45l-.66-29.2s-50.23-13.8-75.59,5.12c-4.72,3.52-6.38,15.93-6.92,26.42a102.54,102.54,0,0,0-26,18.47c-4-4.31-8.66-8.58-13.86-7.59C204,190.13,198,237,198,237Zm108.76-44.46c37-9.67,80,32.44,96.14,94s-.87,119.38-37.88,129-80.05-32.44-96.13-94S269.79,202.22,306.79,192.56Z"/><path class="cls-5" d="M213.25,230.88l9.86,10.48a164.2,164.2,0,0,0-5.75,57.86l-20.83,18.94s6,41.88,17.18,48.14c3.93,2.21,13.32-.08,20.86-2.54a167.64,167.64,0,0,0,21,33.26c-1.83,6.86-5.53,22.33-3.42,28,4.13,11.16,35.65,31.56,35.65,31.56l26.44-16.47a103.77,103.77,0,0,0,47.28,5.91L371.32,467s37.56-9.56,44.21-19.66c3.13-4.74,2.65-17.5,1.79-26.84,14.1-12.83,25.1-29.65,32.28-48.95l27.16-9.92s9.4-47.61,0-59c-2.75-3.36-11.35-4.54-18.52-4.92a181.71,181.71,0,0,0-11.95-48.1l20.05-19.4S444,190.51,430.42,186.89c-4.61-1.22-13.64,2.22-21.39,5.89a133.76,133.76,0,0,0-42.68-28.68L362,145.35s-55-14.79-68.44-4.1c-4,3.21-5.82,13.12-6.58,22.54A103,103,0,0,0,252.2,188.6c-8.42-3.17-18-5.9-22.79-3.31C218.79,191.08,213.25,230.88,213.25,230.88Zm105-35.24C359.39,184.9,405,223.12,420.09,281s-6,113.5-47.07,124.24-86.68-27.48-101.8-85.36S277.18,206.37,318.29,195.64Z"/><path class="cls-3" d="M392.32,304.77a15.44,15.44,0,0,1,0,6,26.92,26.92,0,0,1-1.75,5.78,26.92,26.92,0,0,1-18.44,15.59,30.54,30.54,0,0,1-12.51.32,43.35,43.35,0,0,1-11.48-3.84,63.63,63.63,0,0,1-9.89-6.32,77.78,77.78,0,0,1-15.69-16.59.69.69,0,0,1,.17-1,.68.68,0,0,1,.8,0h0a209.23,209.23,0,0,0,18.1,12.61,80.47,80.47,0,0,0,9.43,4.89,46.06,46.06,0,0,0,9.78,2.9,24.94,24.94,0,0,0,18.58-3.77,28.72,28.72,0,0,0,7.17-7.05,27.49,27.49,0,0,0,2.61-4.5,18.13,18.13,0,0,0,1.56-5v0a.78.78,0,0,1,.88-.65A.77.77,0,0,1,392.32,304.77Z"/><ellipse class="cls-6" cx="369.75" cy="221.34" rx="27.72" ry="31.29" transform="matrix(0.97, -0.25, 0.25, 0.97, -43.93, 100.61)"/><ellipse class="cls-3" cx="369.67" cy="221.02" rx="13.53" ry="15.88" transform="translate(-14.61 26.5) rotate(-4.03)"/><ellipse class="cls-7" cx="345.97" cy="299.34" rx="91.22" ry="125.34" transform="translate(-48.91 68.31) rotate(-10.54)"/><path class="cls-8" d="M264.7,155.16c-.22,32.3,25.15,19.41,56.33,19.63S377.4,188.25,377.62,156,352.75,97.3,321.57,97.08,264.93,122.87,264.7,155.16Z"/><path class="cls-9" d="M353.9,157.81l22.78-13s65.43,15.37,31.28,30.52-86.93-.54-86.93-.54Z"/><path class="cls-3" d="M350.59,342.07a8.38,8.38,0,0,0,2.44,3.46,13.22,13.22,0,0,0,3.68,2.23,18,18,0,0,0,8.49,1.29,19,19,0,0,0,8-2.73,29.84,29.84,0,0,0,3.6-2.67c1.2-1,2.28-2.19,3.53-3.38l.07-.08a1.57,1.57,0,0,1,2.61,1.48,18.2,18.2,0,0,1-6.06,9.78,18.79,18.79,0,0,1-11.32,4.22,19.66,19.66,0,0,1-11.53-3.17,14.87,14.87,0,0,1-4.32-4.3,9.47,9.47,0,0,1-1.63-5.93,1.26,1.26,0,0,1,1.36-1.14,1.27,1.27,0,0,1,1.06.81Z"/><ellipse class="cls-6" cx="326.22" cy="220.07" rx="31.04" ry="34.35" transform="matrix(0.97, -0.25, 0.25, 0.97, -45.02, 89.57)"/><ellipse class="cls-3" cx="313.52" cy="218.83" rx="15.64" ry="18.06" transform="translate(-45.12 86.32) rotate(-14.64)"/><path class="cls-3" d="M311.45,445.31l.32.39.25.35.5.69.86,1.41c.56.94,1,1.91,1.51,2.88l1.24,3,1,3.05a30,30,0,0,1,.8,3.1c.21,1,.53,2.08.64,3.13l.44,3.16.22,1.59.08,1.58a89.06,89.06,0,0,1-2.06,25.2l-.62,3.11-.83,3L314.1,507c-.64,2-1.37,3.95-2.05,5.93l-1,3c-.36,1-.68,2-1.11,2.94l-2.44,5.77-1.23,2.88c-.41,1-.81,1.94-1.29,2.85l-5.57,11.2a7.6,7.6,0,0,1-13.61-6.76,6.69,6.69,0,0,1,.43-.75l.22-.34,6.4-9.85c.55-.82,1-1.67,1.5-2.52l1.45-2.54,2.9-5.1c.51-.85.9-1.73,1.33-2.6l1.27-2.63c.84-1.75,1.74-3.5,2.54-5.27l2.17-5.4,1.1-2.7.88-2.76a80.86,80.86,0,0,0,4.51-22.61l.1-1.44,0-1.43-.07-2.87c0-1-.18-1.89-.25-2.85s-.16-1.91-.38-2.83l-.56-2.8-.78-2.73c-.33-.87-.64-1.77-1-2.62l-.59-1.26-.32-.57-.15-.29-.13-.22-.14-.23a2,2,0,0,1,3.3-2.29Z"/><path class="cls-3" d="M286.06,544.37l68.06,23a3,3,0,0,0,4-3.15c-1.21-13.85-10.05-52.74-72.32-25.51A3.05,3.05,0,0,0,286.06,544.37Z"/><path class="cls-3" d="M350.73,449.77l.42.22.33.19.66.4,1.2.84c.79.58,1.5,1.23,2.24,1.86l2,2.05,1.8,2.23a42.86,42.86,0,0,1,5.47,9.94l1,2.66.25.66.19.68.36,1.36a47.82,47.82,0,0,1,1.32,5.47c.3,1.84.65,3.7.9,5.55l.43,5.56a51.76,51.76,0,0,1,.12,5.56c0,1.85,0,3.72-.08,5.56l-.46,5.51c-.17,1.83-.24,3.7-.57,5.49L367.5,517c-.31,1.8-.5,3.66-.94,5.42l-2.34,10.72a7.61,7.61,0,1,1-14.86-3.26,8.7,8.7,0,0,1,.26-.91l.16-.42,3.46-9.6c.64-1.6,1-3.23,1.51-4.86l1.43-4.88c.53-1.63.79-3.27,1.18-4.92l1.08-5c.3-1.65.47-3.31.72-5a42.56,42.56,0,0,0,.56-5l.27-5c0-1.66-.1-3.3-.14-5a40.42,40.42,0,0,0-.52-4.92l-.16-1.23-.08-.62-.14-.59-.57-2.39a36.86,36.86,0,0,0-3.52-9.09l-1.26-2.08-1.45-1.94c-.54-.58-1.06-1.21-1.63-1.75l-.86-.8-.43-.35-.38-.29-.28-.22a2,2,0,0,1,2.16-3.37Z"/><path class="cls-3" d="M351.14,539.42l66.65,7.92a4.19,4.19,0,0,0,4.46-5.5c-4.85-14.19-21.89-45.11-73-10A4.19,4.19,0,0,0,351.14,539.42Z"/><ellipse class="cls-3" cx="144.97" cy="303.34" rx="12.27" ry="18.04" transform="translate(-190.7 322.28) rotate(-67.68)"/><path class="cls-5" d="M116.33,350.25,129,363.56l-.85,8.47,7.48,1.74-1.58,9.11,7.93,3-1.45,8.93,8.89,3.9-1.83,9,7.54,2.63-1.29,8.81,7.21,3.59-.87,8,7.83,4.39-1.42,7.28,7.06,3.46-.95,7.61,7.31,3.56-1.55,6.81,6.33,1.87s-1.1,7.28-1,7.24S213.21,460.1,213,459.32L165.2,332.83Z"/><path class="cls-1" d="M99.15,313.63c-2.14,5.77,10.2,26.93,4.95,29.9-8.55,4.86-8.92,2.24-7.2,12.83s7.9,8.56,15.15,5.65L158,344.29a14.85,14.85,0,0,0,8.08-18.94L155.7,299.61a14,14,0,0,0-18.31-8.35S105.15,297.4,99.15,313.63Zm38.31-12.74a9.37,9.37,0,0,1,12.22,5.57l.81,2.14c1.88,5,11.22,22.51,6.38,24.46l-23.12,9.27c-21.09,13.11-22.12-12.38-24-17.39L109,322.8a9.91,9.91,0,0,1,5.39-12.64Z"/><path class="cls-3" d="M204.89,283.64l-.71-.74c-.27-.27-.55-.55-.84-.82-.58-.54-1.2-1.07-1.82-1.58a40.29,40.29,0,0,0-4-2.8,35.21,35.21,0,0,0-8.68-3.82,31.29,31.29,0,0,0-18.32.61,42.8,42.8,0,0,0-8.71,4c-1.43.75-2.77,1.76-4.14,2.64s-2.66,2-4,3a106.49,106.49,0,0,0-14.32,14.54l0,0a7.5,7.5,0,0,1-11.56-9.57l.35-.4a121.1,121.1,0,0,1,17.43-15.36c1.64-1.11,3.28-2.21,5-3.25s3.43-2,5.28-2.87A55.74,55.74,0,0,1,167.35,263a42.49,42.49,0,0,1,24.73,1A44.89,44.89,0,0,1,203,269.66a48.07,48.07,0,0,1,4.69,3.86c.74.69,1.46,1.4,2.16,2.16.35.37.69.75,1,1.15s.64.77,1.08,1.34A4.45,4.45,0,0,1,205.2,284Z"/><ellipse class="cls-3" cx="123.57" cy="298.34" rx="23.5" ry="31.35" transform="translate(-96.17 61.72) rotate(-20.38)"/></svg>