<?xml version="1.0" encoding="UTF-8" standalone="no"?>
<svg
   xmlns:dc="http://purl.org/dc/elements/1.1/"
   xmlns:cc="http://creativecommons.org/ns#"
   xmlns:rdf="http://www.w3.org/1999/02/22-rdf-syntax-ns#"
   xmlns:svg="http://www.w3.org/2000/svg"
   xmlns="http://www.w3.org/2000/svg"
   xmlns:sodipodi="http://sodipodi.sourceforge.net/DTD/sodipodi-0.dtd"
   xmlns:inkscape="http://www.inkscape.org/namespaces/inkscape"
   id="Layer_1"
   data-name="Layer 1"
   viewBox="0 0 531.95001 407.45847"
   version="1.1"
   sodipodi:docname="cross_modal.svg"
   width="531.95001"
   height="407.45847"
   inkscape:version="1.0.1 (3bc2e813f5, 2020-09-07, custom)">
  <metadata
     id="metadata5075">
    <rdf:RDF>
      <cc:Work
         rdf:about="">
        <dc:format>image/svg+xml</dc:format>
        <dc:type
           rdf:resource="http://purl.org/dc/dcmitype/StillImage" />
      </cc:Work>
    </rdf:RDF>
  </metadata>
  <sodipodi:namedview
     pagecolor="#ffffff"
     bordercolor="#666666"
     borderopacity="1"
     objecttolerance="10"
     gridtolerance="10"
     guidetolerance="10"
     inkscape:pageopacity="0"
     inkscape:pageshadow="2"
     inkscape:window-width="640"
     inkscape:window-height="480"
     id="namedview5073"
     showgrid="false"
     inkscape:zoom="1.1585714"
     inkscape:cx="305.85"
     inkscape:cy="197.51"
     inkscape:current-layer="Layer_1" />
  <defs
     id="defs4912">
    <style
       id="style4910">.cls-1{fill:#aaacad;}.cls-2{fill:#cbd0d3;}.cls-16,.cls-3{fill:#fff;}.cls-3{opacity:0.22;}.cls-4{fill:#118f98;}.cls-5{fill:#726d33;}.cls-6{fill:#e5e185;}.cls-7{fill:#f4f29d;}.cls-8{fill:#363637;}.cls-9{fill:#127d7f;}.cls-10{fill:#757272;}.cls-11{fill:#c1bd7a;}.cls-12{fill:#353638;}.cls-13{fill:#5d4c49;}.cls-14{fill:#373737;}.cls-15{fill:#fdfdfd;}.cls-17{fill:#fc6769;}.cls-18{fill:#48322d;}.cls-19{fill:#e5e2d6;}.cls-20{fill:#72524b;}.cls-21{fill:#fa4847;}.cls-22{fill:#5f4c48;}.cls-23{fill:#73524b;}.cls-24{fill:#604e4a;}.cls-25{fill:#73534c;}.cls-26{fill:#f7c860;}</style>
  </defs>
  <title
     id="title4914">Cross Modality  FLAT</title>
  <path
     class="cls-1"
     d="M 531.95,143.45 V 0 h -417 v 197.51 l 320.07,105.94 c 4.42,1.3 8.75,2.76 13.05,4.32 l 83.88,27.74 V 295.6 a 8.8,8.8 0 0 1 -0.12,-1.4 V 144.85 a 8.8,8.8 0 0 1 0.12,-1.4 z"
     id="path4916" />
  <polygon
     class="cls-2"
     points="566.31,160.96 167.17,160.96 167.17,344.06 566.31,472.02 "
     id="polygon4918"
     transform="translate(-44.15,-152.49)" />
  <polygon
     class="cls-3"
     points="371.73,409.64 286.51,160.96 253.77,160.96 336.87,398.47 "
     id="polygon4920"
     transform="translate(-44.15,-152.49)" />
  <path
     class="cls-4"
     d="m 390.36,283.99 c 8.64,2.65 15.8,6.8 24.5,9.26 20,0.64 36.95,5.69 37.47,5.64 q 0,-28.67 0,-57.34 c 0,-3 0.32,-6 0.52,-9 a 3.08,3.08 0 0 0 -0.39,-1.54 c -1.78,1.19 -4.3,2.71 -6,4 -4.85,3.68 -9.65,7.44 -14.46,11.19 -1.62,1.26 -3.24,2.53 -4.8,3.87 -0.85,0.72 -1.33,0.56 -2,-0.22 -0.9,-1 -1.89,-2.08 -2.87,-3 a 134.71,134.71 0 0 0 -14.72,-12.13 58.54,58.54 0 0 0 -12,-6.49 3.65,3.65 0 0 0 -2.7,-0.06 c -8.53,2.58 -17,5.22 -25.32,8.49 -4.38,1.72 -8.8,3.42 -12.69,6.17 l -0.54,0.57 h 0.05 c -0.13,3.15 -0.67,17.46 -1,29.51 12.21,2.92 25.44,6 36.95,11.08 z m -13.51,-41.28 a 32.91,32.91 0 0 0 17.79,7.67 c 6.63,0.71 12.46,0 18.06,-3.3 0.82,1.2 0.88,1.15 0.15,1.81 a 7.61,7.61 0 0 1 -2.17,1.76 c -1.53,0.57 -2,1.79 -2.35,3.1 -0.43,1.47 -0.81,2.95 -1.21,4.42 a 20.16,20.16 0 0 1 -4.37,7.47 11,11 0 0 1 -10,4.15 3.26,3.26 0 0 1 -1.67,-0.55 c -2.89,-2.37 -5.57,-4.87 -5.65,-9 0,-2.22 -0.37,-4.42 -0.46,-6.64 a 1.9,1.9 0 0 0 -1.56,-2 10.87,10.87 0 0 1 -6.42,-6 4.55,4.55 0 0 1 -0.14,-2.89 z"
     id="path4922" />
  <path
     class="cls-5"
     d="m 472.57,195.21 c -0.21,6.06 -0.39,12.12 -0.63,18.18 -0.09,2.3 -0.33,4.59 -0.5,6.88 -5,1.4 -16.74,5.22 -20.16,6.51 0,-1.88 0,-3.76 0,-5.64 -0.15,-5.44 -0.35,-10.88 -0.5,-16.33 0,-0.83 0.83,-1.69 0,-2 1.06,-1 1,-0.08 2.09,-1.06 1.28,-1.2 2.35,-2.58 2.13,-4.21 a 3,3 0 0 0 -2.87,-2.65 37.38,37.38 0 0 0 0.21,-4 c 0.2,-4.44 -0.27,-7.32 -0.11,-11.76 0.05,-0.42 -1,-2.74 -0.85,-3.08 1.21,-2.12 0.46,-18.86 0.46,-18.86 0.17,-0.55 -2.65,-5.67 -2.65,-5.67 a 15.47,15.47 0 0 0 5.07,0.44 c 1.42,-0.82 2.89,-3.32 3.48,-4.76 a 2.4,2.4 0 0 0 -0.81,-3.15 c -0.53,-0.42 -1.18,-0.69 -1.69,-1.12 a 6,6 0 0 1 -0.84,-1.13 c 0.34,-3 0.7,-5.92 1,-8.88 a 18.49,18.49 0 0 0 0.05,-2.58 c -0.06,-1.84 -0.39,-2.09 -2.14,-1.52 -2,0.67 -4.06,1.21 -6.19,0.53 -3.52,-1.12 -6.14,-3.06 -7.27,-6.86 -0.79,-2.64 -0.22,-5.06 0.32,-7.55 0.2,-0.93 0.47,-1.77 -0.11,-2.6 -3.67,0.75 -4.67,0.33 -6.72,-2.73 -1.93,-2.89 -1.6,-5.8 -0.15,-8.74 0.21,-0.14 9.58,-9.06 9.84,-10.94 0,20.37 13.64,16.18 13.64,16.18 a 25.84,25.84 0 0 0 -0.89,3.47 c -0.38,3.16 2.72,9.34 6.76,11 2.91,1.21 11.79,0.43 11.79,0.43 0,0 -1,64.42 -1.11,65.78 a 5.09,5.09 0 0 1 -1.17,0.53 29.33,29.33 0 0 0 -9,3.31 13,13 0 0 0 -3.36,2.73 c -1.51,1.69 -1.12,4.41 0.74,5.23 a 4.92,4.92 0 0 0 4.19,0.35 34.36,34.36 0 0 0 5.52,-2.61 17.91,17.91 0 0 1 2.43,-1.12 z"
     id="path4924" />
  <path
     class="cls-6"
     d="m 451.28,226.78 c 3.42,-1.29 14.19,-5.26 20.16,-6.51 2.23,2.4 2.79,3.71 8.51,11 -1.54,0.93 -5.81,2.68 -7.42,3.5 -0.38,0.2 -0.72,0.45 -1.08,0.68 l -12.55,5 c -1.92,-2.9 -6,-9 -6.43,-9.38 -1.78,1.19 -4.3,2.71 -6,4 -4.85,3.68 -9.65,7.44 -14.46,11.19 -1.62,1.26 -4.32,3.47 -5.88,4.81 -0.76,-0.72 -2.82,-3.24 -3.8,-4.19 a 134.71,134.71 0 0 0 -14.72,-12.13 58.54,58.54 0 0 0 -12,-6.49 3.65,3.65 0 0 0 -2.7,-0.06 c -8.52,2.58 -40.06,16.31 -40.06,16.31 0,0 -0.53,-0.58 -1.48,-1.78 -2.58,-3.23 -7.48,-9.3 -10.1,-12.5 a 68.88,68.88 0 0 1 9,-3.37 c 0.4,-0.11 46.86,-11.33 47.74,-11.62 l 8.75,1.25 a 1.93,1.93 0 0 0 0.63,0.39 c 6.21,1.18 12.46,2.15 18.62,3.56 8.42,1.94 16.84,4.21 25.27,6.34 z"
     id="path4926" />
  <path
     class="cls-7"
     d="m 352.79,141.73 c 0.19,-3.87 0.31,-8.74 0.55,-12.6 0.27,-4.36 0.65,-8.72 1,-13.08 0,-0.34 0,-0.69 0,-1 q 0.45,-7.18 0.88,-14.38 a 4.73,4.73 0 0 0 -0.18,-1 c -0.28,-1.87 -0.16,-2.06 1.91,-2.94 l 0.51,-0.35 1.05,-0.13 c 0.2,0.16 0.38,0.43 0.59,0.45 2.73,0.2 5.46,0.4 8.2,0.54 3.94,0.21 7.88,0.36 11.82,0.53 h 0.52 l 11.21,1 c 1.53,0.14 3.05,0.31 4.58,0.48 l 5.08,0.54 a 2.47,2.47 0 0 1 1.54,2.7 c -0.21,1.86 -1.44,34.93 -1.66,38.35 a 8.29,8.29 0 0 1 -0.41,1.65 c -1.13,1.13 -47.21,-0.43 -47.19,-0.76 z m 23.11,-4.1 c 1.8,0.11 2.87,-0.88 3.9,-2.07 a 6.62,6.62 0 0 1 2.11,-1.78 46.2,46.2 0 0 1 5,-1.85 12.05,12.05 0 0 0 6.08,-3.6 c 1.73,-2.13 1.61,-4.38 -0.42,-6.09 -1.23,-1 -2.58,-0.65 -3.91,-0.4 a 17,17 0 0 0 -10.47,6.91 c -1.84,2.44 -3.34,5.23 -2.29,8.88 z"
     id="path4928" />
  <path
     class="cls-8"
     d="m 472.57,195.21 a 17.91,17.91 0 0 0 -2.51,1.16 34.36,34.36 0 0 1 -5.52,2.61 4.92,4.92 0 0 1 -4.19,-0.35 c -1.86,-0.82 -2.25,-3.54 -0.74,-5.23 a 13,13 0 0 1 3.36,-2.73 29.33,29.33 0 0 1 9,-3.31 5.09,5.09 0 0 0 1.17,-0.53 37.65,37.65 0 0 1 12.55,-0.9 c 5.78,0.54 11.09,2.4 15.14,6.85 a 14.38,14.38 0 0 1 3.79,8.29 c 0.15,1.41 0.25,2.83 0.39,4.45 0.83,-0.39 1.72,-0.82 2.61,-1.22 2.94,-1.34 6,-2.24 9.2,-1.33 a 12.85,12.85 0 0 1 2.63,1 c 3.05,1.68 2.57,4.3 0.18,6.17 a 11.55,11.55 0 0 1 -3.07,1.3 65.46,65.46 0 0 1 5.62,4.78 13.05,13.05 0 0 1 3.68,10.13 6.93,6.93 0 0 1 -4.18,5.73 3.62,3.62 0 0 1 -4,-0.79 c -1.65,-1.4 -2.35,-3.36 -3.18,-5.25 a 24.49,24.49 0 0 0 -3,-5.25 3.49,3.49 0 0 0 -0.14,0.76 4.41,4.41 0 0 0 0.2,1 32.15,32.15 0 0 1 1.34,11.2 16.3,16.3 0 0 1 -3.28,9.34 c -1.19,1.53 -2.7,2.64 -4.85,2.39 -0.87,-0.1 -1.53,-0.44 -1.68,-1.31 a 11.61,11.61 0 0 1 -0.37,-3.53 c 0.48,-3.21 1.36,-6.37 1.76,-9.58 0.57,-4.52 -0.18,-12.07 -3.2,-15.39 -1.52,3.24 -2.87,6.53 -4.56,9.64 a 42.1,42.1 0 0 1 -4.31,6.08 7.07,7.07 0 0 1 -2.55,1.69 c -1.54,0.72 -2.8,0 -2.79,-1.72 a 9.62,9.62 0 0 1 0.78,-4 c 2.58,-5.55 5.26,-11.07 9.91,-15.27 a 3.93,3.93 0 0 0 1.25,-2.95 15.23,15.23 0 0 0 -12.57,-15.61 c -3.62,-0.52 -7.18,-0.85 -10.73,0.1 a 17.61,17.61 0 0 0 -3.14,1.58 z"
     id="path4930" />
  <path
     class="cls-9"
     d="m 458.9,240.44 12.55,-5 c 0.07,4.87 1.37,43.89 1.16,50.1 -1.55,1.31 -13.93,8.83 -20.28,13.33 q 0,-28.67 0,-57.34 c 0,-3 -0.07,-7.5 0.13,-10.49 0.5,0.39 4.52,6.47 6.44,9.4 z"
     id="path4932" />
  <path
     class="cls-10"
     d="m 386.3,148.76 c -3.09,-0.07 -27.47,-0.48 -34.48,-0.7 6.45,-1.17 4.47,-4.15 1.58,-6.24 0.8,-0.4 13.25,0.6 18.23,0.54 6.65,-0.09 13.3,-0.05 20,0 1.44,0 7.22,0.55 8.4,-0.54 3.12,0.52 4.51,3 3.18,5.95 -0.68,1.48 -2.69,1.51 -6,2.06 -3.89,-1.02 -5.24,-1.82 -10.91,-1.07 z"
     id="path4934" />
  <path
     class="cls-8"
     d="m 352.29,205.51 c 0,2 0.05,3.92 0,5.88 a 15.15,15.15 0 0 1 -0.48,2.45 c -1.89,2 -3.73,4 -5.67,6 a 30.29,30.29 0 0 1 -10.29,6.67 c -6.52,2.61 -11,0.52 -14.59,-4.37 a 21.28,21.28 0 0 1 -3.73,-9 21.44,21.44 0 0 0 -0.63,-2.23 c -1.9,0.64 -3.62,1.57 -5.43,1.77 -4.25,0.47 -7.33,-1.82 -9.41,-5.21 -4.05,-6.61 -3.17,-13.83 1.5,-19.66 a 11.74,11.74 0 0 1 3.47,-2.61 c 1.64,-0.93 2.71,-0.58 3.68,1 a 18.08,18.08 0 0 1 1.66,13.61 c -0.85,1.58 -2.35,1.57 -4,1.64 2.65,2.06 3.88,1.81 5.19,-0.86 a 7.75,7.75 0 0 0 0.39,-0.94 13.48,13.48 0 0 0 0.16,-7.6 c -0.17,-0.7 -1.47,-4 -1.78,-4.89 -0.75,-2.06 -0.68,-3.09 0.4,-4 1.08,-0.91 4.3,0.44 5.72,1.78 a 2.27,2.27 0 0 1 0.69,2 c -0.39,2.38 -2.58,4.81 -0.71,9.21 0.73,1.8 2.79,1.71 3.94,1.47 a 12.34,12.34 0 0 1 1.74,-0.38 c 1.25,0 1.71,0.41 1.76,1.65 a 7.07,7.07 0 0 1 -0.09,2.06 c -1,3.54 -0.34,7 0.64,10.38 0.92,3.16 2.56,5.89 6,6.79 a 10.13,10.13 0 0 0 10,-2.53 c 3.43,-3.2 6.59,-6.71 9.87,-10.08 z"
     id="path4936" />
  <path
     class="cls-11"
     d="m 400.51,99.83 -5.08,-0.54 c -1.53,-0.17 -3.05,-0.34 -4.58,-0.48 l -11.21,-1 h -0.52 c -3.94,-0.17 -7.88,-0.32 -11.82,-0.53 -2.74,-0.14 -5.47,-0.34 -8.2,-0.54 -0.21,0 -0.39,-0.29 -0.59,-0.45 q 4.95,-2.06 9.88,-4.13 c 3.23,-1.36 6.49,-2.68 9.67,-4.14 a 12.35,12.35 0 0 1 6.25,-1 c 2.74,0.22 57.82,2.69 58.68,3 -0.26,1.88 -9.63,10.8 -9.84,10.94 -8.54,-0.76 -20.16,-1.26 -24,-1.08 2.24,-1.6 1.8,-2.73 0.26,-3 -2.45,-0.36 -4.91,-0.35 -7,1.36 -0.65,0.5 -1.27,1.05 -1.9,1.59 z"
     id="path4938" />
  <path
     class="cls-10"
     d="m 351.69,192.13 c 5.75,0 46.33,1.68 47.76,1.51 3.11,2.59 2.64,6.18 -1,7.79 0,-0.77 -43.29,-2.66 -46.12,-2.66 6.52,-3.42 4.03,-5.99 -0.64,-6.64 z"
     id="path4940" />
  <path
     class="cls-12"
     d="m 308,170.32 a 6.07,6.07 0 0 1 -0.51,-8.21 5.64,5.64 0 0 1 7.59,-1.36 c 2.92,1.83 4.58,4.7 5.83,7.7 1.4,3.39 2.37,7 3.56,10.52 0.72,2.11 -1.2,5 -1.64,5 -0.82,0.71 -1.74,1.31 -2.73,2.05 -0.61,-0.92 -0.06,-3.11 -12.1,-15.7 z"
     id="path4942" />
  <path
     class="cls-8"
     d="m 334.49,188.69 a 17.59,17.59 0 0 1 -9.7,7.22 8.25,8.25 0 0 1 -3.05,0.26 2.79,2.79 0 0 1 -2.42,-3.74 9.63,9.63 0 0 1 1.44,-3 c 2.77,-3.44 5.8,-6.57 10.3,-7.75 2.52,-0.67 7.43,-0.77 3.43,7.01 z"
     id="path4944" />
  <path
     class="cls-13"
     d="m 357.46,96.38 -0.51,0.35 z"
     id="path4946" />
  <path
     class="cls-8"
     d="m 411.64,246.92 a 1.49,1.49 0 0 1 2.09,0.76 0.88,0.88 0 0 1 -0.3,1 10.84,10.84 0 0 1 -2.76,1.93 c -1.86,0.69 -2.09,2.34 -2.6,3.95 -0.34,1.08 -0.61,2.17 -0.89,3.27 a 19.7,19.7 0 0 1 -4.44,7.77 11,11 0 0 1 -10,4.15 13.27,13.27 0 0 1 -3.26,-1.46 c -2.89,-2.37 -4,-4 -4.06,-8.13 0,-2.22 -0.37,-4.42 -0.46,-6.64 a 1.9,1.9 0 0 0 -1.56,-2 10.87,10.87 0 0 1 -6.42,-6 4.55,4.55 0 0 1 -0.15,-2.92 32.91,32.91 0 0 0 17.79,7.67 28.8,28.8 0 0 0 17.02,-3.35 z m -14,7.13 c -1.86,0.3 -3.51,0.23 -4.84,0.86 a 14.6,14.6 0 0 0 -4.69,3.41 c -0.69,0.78 -0.62,2.43 -0.51,3.66 0.36,3.89 4.19,6.75 7.89,5.58 a 12.8,12.8 0 0 0 8.45,-8.39 c 0.7,-2.05 0.38,-3.24 -1.89,-4.08 a 32.31,32.31 0 0 0 -4.43,-1.04 z"
     id="path4948" />
  <path
     class="cls-7"
     d="m 433.15,100.89 c -1.45,2.94 -1.78,5.85 0.15,8.74 2.05,3.06 4.22,3.29 7.89,2.53 a 7.5,7.5 0 0 0 -1.06,2.8 c -0.54,2.49 -1.11,4.91 -0.32,7.55 1.13,3.8 3.75,5.74 7.27,6.86 2.85,0.91 5.51,-0.37 8.24,-1.19 a 35.92,35.92 0 0 1 0,4.76 c -0.31,3 -0.67,5.92 -1,8.88 a 6.57,6.57 0 0 1 -3.69,1.58 c -10.59,0.12 -21.19,0.33 -31.78,0.48 -2.85,0.05 -10.92,0 -10.92,0 l 0.32,-44.38 c 0,0 20.6,0.62 24.9,1.39 z m -0.86,36.71 c 2.25,-0.19 3.05,-0.94 3.44,-2.95 a 16.5,16.5 0 0 0 0.12,-7.14 10.15,10.15 0 0 0 -3.43,-5.85 5.29,5.29 0 0 0 -2.78,-1.09 c -3.43,-0.32 -5.93,1.39 -7.81,4.07 -0.91,1.3 -1.91,2.65 -1.39,4.64 5.89,-0.15 10.83,1.23 11.85,8.32 z"
     id="path4950" />
  <path
     class="cls-7"
     d="m 451.28,226.78 c -8.44,-2.13 -44.37,-10.15 -44.58,-10.29 0,-1.78 -0.49,-14.09 -0.49,-14.09 h 3.59 c 13.31,0.28 29.84,0.12 41.49,0.72 0.15,5.45 -0.18,12.55 0,18 0.02,1.9 -0.01,3.78 -0.01,5.66 z"
     id="path4952" />
  <path
     class="cls-10"
     d="m 406.7,194.88 c 8.11,0 20.36,0.89 28.47,0.81 4.11,0 8.22,-0.27 12.33,-0.54 0.86,-0.06 4,0.22 4.58,-0.28 a 3,3 0 0 1 2.87,2.64 c 0.22,1.63 -0.53,4.35 -4,5.79 -14.08,-0.42 -31.41,-0.63 -44.72,-0.91 3.46,-2.43 0.74,-6.98 0.47,-7.51 z"
     id="path4954" />
  <path
     class="cls-10"
     d="m 425.03,151.24 -18,-0.1 c 0,-0.34 4.27,-2.18 0.93,-7.23 2.85,0 8.07,0 10.92,0 10.59,-0.15 21.19,-0.36 31.78,-0.48 a 6.57,6.57 0 0 0 3.69,-1.58 6,6 0 0 0 0.84,1.13 c 0.51,0.43 1.16,0.7 1.69,1.12 1.05,0.83 4.51,4.68 -1.8,7.71 -2.74,0.7 -26.97,-2.3 -30.05,-0.57 z"
     id="path4956" />
  <path
     class="cls-5"
     d="m 407.49,195.12 c 0.27,0.53 3,3.62 -1.28,7.28 v 0 c 0,0 0.32,7.06 0.4,8.74 0.08,1.68 0.07,3.57 0.09,5.35 l -8.75,-1.25 c 0,-3.69 -0.07,-7.38 0,-11.07 a 36.42,36.42 0 0 1 0.5,-4.15 c 3.66,-1.61 4.13,-3.79 1,-6.38 a 24.47,24.47 0 0 1 0.42,-6.55 81.55,81.55 0 0 0 0.6,-8.44 c 1.2,-1.29 2.45,-2.55 3.6,-3.89 0.94,-1.09 1.76,-2.27 2.63,-3.4 v 23.52 c 1.51,0.31 -0.52,-0.02 0.79,0.24 z"
     id="path4958" />
  <path
     class="cls-5"
     d="m 409.69,144.51 c 4.2,4.63 -2.3,6.31 -2.33,6.65 -2.81,0.18 -0.33,-0.05 -0.33,-0.05 0,0 0.16,6.6 0.14,7.79 -0.4,-0.34 0.15,33.39 -0.14,33.2 0,0 -6,-10.34 -6.28,-10.74 -0.89,-1.21 0.82,-30.73 -3.92,-31.56 8.27,0 6.12,-6.27 3.15,-8 a 3.2,3.2 0 0 0 0.41,-0.94 c 0.22,-3.42 1.45,-36.49 1.66,-38.35 a 2.47,2.47 0 0 0 -1.54,-2.7 c 0.63,-0.54 1.25,-1.09 1.89,-1.62 2.09,-1.71 12.62,-3.44 7.27,1.32 -1.79,0.06 -1.39,0 -1.39,0 l -0.32,44.38 c 0,0 0.59,-0.18 1.73,0.62 z"
     id="path4960" />
  <path
     class="cls-14"
     d="m 375.9,137.63 c -1,-3.65 0.45,-6.44 2.3,-8.88 a 17,17 0 0 1 10.47,-6.91 c 1.33,-0.25 2.68,-0.63 3.91,0.4 2,1.71 2.15,4 0.42,6.09 a 12.05,12.05 0 0 1 -6.08,3.6 46.2,46.2 0 0 0 -5,1.85 6.62,6.62 0 0 0 -2.11,1.78 c -1.04,1.19 -2.11,2.18 -3.91,2.07 z"
     id="path4962" />
  <path
     class="cls-10"
     d="m 402.03,255.09 c 2.27,0.84 2.59,2 1.89,4.08 a 12.8,12.8 0 0 1 -8.45,8.39 c -3.7,1.17 -7.53,-1.69 -7.89,-5.58 -0.11,-1.23 -0.18,-2.88 0.51,-3.66 a 14.6,14.6 0 0 1 4.69,-3.41 10.81,10.81 0 0 1 9.25,0.18 z"
     id="path4964" />
  <path
     class="cls-14"
     d="m 432.29,137.6 c -1,-7.09 -6,-8.47 -11.9,-8.28 -0.52,-2 0.48,-3.34 1.39,-4.64 1.88,-2.68 4.38,-4.39 7.81,-4.07 a 5.29,5.29 0 0 1 2.78,1.09 10.15,10.15 0 0 1 3.48,5.81 16.5,16.5 0 0 1 -0.07,7.1 c -0.44,2.05 -1.24,2.8 -3.49,2.99 z"
     id="path4966" />
  <path
     class="cls-15"
     d="m 442.85,185.42 -0.45,0.48 z"
     id="path4968" />
  <path
     class="cls-7"
     d="m 397.95,215.24 c -0.88,0.29 -45.89,11.09 -46.58,11.16 0.14,-4.2 0.94,-27.63 0.94,-27.63 0,0 37,0.67 46.12,1.25 -0.17,0.91 -0.5,11.49 -0.48,15.22 z"
     id="path4970" />
  <path
     class="cls-7"
     d="m 453.12,151.14 c -0.16,4.43 -0.63,35.33 -0.83,39.77 a 37.38,37.38 0 0 1 -0.21,4 c -0.59,0.5 -3.72,0.22 -4.58,0.28 -4.11,0.27 -8.22,0.5 -12.33,0.54 -8.11,0.08 -27,-0.5 -28.47,-0.81 v -23.56 c 0.24,-0.82 0.58,-11.76 0.47,-12.43 0,-1.19 -0.14,-7.79 -0.14,-7.79 0,0 45.75,0.37 46.09,0 z"
     id="path4972" />
  <path
     class="cls-7"
     d="m 351.69,192.13 c -0.32,-10.38 0.24,-42.88 0.13,-44.07 7.86,0.1 44.46,-0.07 47.61,0 -3.09,0.66 1.42,0.36 2.08,0 -0.18,2.82 -0.13,36.28 -0.61,39.05 a 24.07,24.07 0 0 0 -0.43,6.55 c -1.46,0.15 -41.19,-1.47 -48.78,-1.53 z"
     id="path4974" />
  <ellipse
     class="cls-16"
     cx="-7.0986652"
     cy="458.61572"
     rx="25.629999"
     ry="17.540001"
     transform="rotate(-68.89)"
     id="ellipse4976" />
  <ellipse
     class="cls-14"
     cx="-5.3437371"
     cy="450.33444"
     rx="16.700001"
     ry="10.26"
     transform="rotate(-68.89)"
     id="ellipse4978" />
  <ellipse
     class="cls-16"
     cx="-22.032337"
     cy="417.05377"
     rx="25.629999"
     ry="17.540001"
     transform="rotate(-68.89)"
     id="ellipse4980" />
  <ellipse
     class="cls-14"
     cx="-20.280354"
     cy="408.77673"
     rx="16.700001"
     ry="10.26"
     transform="rotate(-68.89)"
     id="ellipse4982" />
  <path
     class="cls-1"
     d="m 448.07,307.77 46.61,15.43 V 310.72 L 320.9,255.01 v 10.68 l 114.12,37.76 c 4.42,1.3 8.75,2.76 13.05,4.32 z"
     id="path4984" />
  <polygon
     class="cls-1"
     points="566.31,422.36 575.98,424.53 575.98,308.1 566.31,310.86 "
     id="polygon4986"
     transform="translate(-44.15,-152.49)" />
  <path
     class="cls-16"
     d="m 468.14,315.39 c 5.65,2.12 11.32,4.2 17,6.33 v -1.69 l -37,-12.26 c 6.64,2.44 13.26,5.08 20,7.62 z"
     id="path4988" />
  <path
     class="cls-8"
     d="m 131.6,341.25 -5.75,0.26 c 4.81,3.84 5.92,9 4.94,14.71 -1.25,7.3 -4.87,13.42 -9.66,18.95 a 9.65,9.65 0 0 0 -2.11,3.32 c -0.54,1.78 0.48,3.18 2,4.08 3.06,1.8 6.09,3.64 9.25,5.24 q 11.42,5.81 22.93,11.36 c 5.69,2.74 11.49,5.26 17.25,7.86 2,0.91 2.62,0.41 2.86,-1.88 0.51,-4.94 -1.25,-9.26 -3.65,-13.35 -3.19,-5.45 -7.22,-10.16 -12.93,-13.17 a 34.41,34.41 0 0 0 -11.7,-3.55 c -3.76,-0.51 -7.43,0.31 -11.5,0.05 0.51,-1 0.88,-2 1.39,-2.79 a 32.55,32.55 0 0 0 4.14,-11.24 16.71,16.71 0 0 0 -1.34,-10.11 40.18,40.18 0 0 0 -6.12,-9.74 z"
     id="path4990" />
  <path
     class="cls-8"
     d="m 174.46,339.81 c -2.46,-0.54 -4.93,-1 -7.41,0 1.61,2 3.37,3.93 4.8,6.06 a 13,13 0 0 1 0.94,13.15 c -2.22,5 -4.7,9.87 -7.1,14.78 -1.4,2.85 -1.26,2.93 1.12,5 a 15.46,15.46 0 0 0 5.31,2.71 q 23.73,8 47.48,16.14 c 1,0.34 2,0.74 2.93,1.15 a 2.46,2.46 0 0 0 3.35,-2.86 v 0 a 65.79,65.79 0 0 0 -2.73,-8.72 c -4.29,-10.57 -12,-17 -23.31,-19.13 -6.9,-1.3 -13.51,-0.31 -20,2 -0.42,0.15 -0.87,0.23 -1.75,0.45 1,-2.45 1.8,-4.55 2.69,-6.61 3.24,-7.58 1.75,-14.36 -3.41,-20.55 -1,-1.17 -1.95,-2.38 -2.91,-3.57 z"
     id="path4992" />
  <path
     class="cls-17"
     d="m 103.3,278.26 c 0,-3.33 -0.35,-6.65 -0.58,-10 a 3.53,3.53 0 0 1 0.44,-1.7 c 2,1.32 4.79,3 6.69,4.46 5.41,4.11 10.76,8.3 16.12,12.47 1.81,1.41 3.62,2.83 5.36,4.32 0.94,0.8 1.48,0.62 2.23,-0.25 1,-1.15 2.12,-2.32 3.21,-3.38 a 151.66,151.66 0 0 1 16.4,-13.51 64.53,64.53 0 0 1 13.35,-7.16 4,4 0 0 1 3,-0.07 c 9.5,2.87 19,5.81 28.21,9.45 4.88,1.93 9.81,3.82 14.15,6.88 l 0.6,0.64 v -0.05 c 0.21,5.27 1.47,48.59 1.47,49.26 0,2.95 0,5.9 0,9.05 -1,0.15 -109.22,3.69 -110.61,3.55 -0.02,-21.35 0.01,-42.65 -0.04,-63.96 z m 44,8.19 a 8.52,8.52 0 0 0 2.42,1.95 c 1.71,0.64 2.18,2 2.62,3.46 0.48,1.64 0.9,3.29 1.35,4.93 a 22.43,22.43 0 0 0 4.87,8.32 12.24,12.24 0 0 0 11.13,4.63 3.72,3.72 0 0 0 1.87,-0.62 c 3.22,-2.64 6.2,-5.42 6.29,-10.07 0.05,-2.47 0.41,-4.93 0.51,-7.4 a 2.11,2.11 0 0 1 1.75,-2.19 12.14,12.14 0 0 0 7.15,-6.65 5.13,5.13 0 0 0 0.17,-3.25 36.72,36.72 0 0 1 -19.83,8.55 c -7.39,0.79 -13.89,-0.05 -20.14,-3.68 -0.87,1.34 -0.94,1.27 -0.13,2.02 z"
     id="path4994" />
  <path
     class="cls-18"
     d="m 80.76,226.61 c 0.23,6.75 0.43,13.51 0.7,20.27 0.1,2.56 0.36,5.11 0.55,7.67 5.63,1.56 18.66,5.82 22.47,7.25 0,-2.09 0,-4.19 0,-6.28 0.17,-6.07 0.39,-12.14 0.55,-18.2 0,-0.93 -0.92,-1.89 0,-2.26 -1.17,-1.08 -1.15,-0.09 -2.32,-1.18 -1.43,-1.33 -2.62,-2.88 -2.37,-4.69 a 3.27,3.27 0 0 1 3.2,-2.95 40.91,40.91 0 0 1 -0.24,-4.42 c -0.23,-4.94 0.31,-8.16 0.12,-13.1 0,-0.48 1.17,-3.06 1,-3.44 -1.35,-2.36 -0.51,-21 -0.51,-21 -0.2,-0.61 3,-6.32 3,-6.32 a 17.1,17.1 0 0 1 -5.65,0.48 c -1.58,-0.91 -3.22,-3.69 -3.88,-5.3 a 2.68,2.68 0 0 1 0.9,-3.51 c 0.6,-0.46 1.32,-0.77 1.89,-1.25 a 6,6 0 0 0 0.93,-1.26 c -0.38,-3.3 -0.78,-6.59 -1.12,-9.89 a 21.27,21.27 0 0 1 -0.06,-2.88 c 0.07,-2.05 0.43,-2.33 2.39,-1.69 2.26,0.74 4.52,1.35 6.9,0.59 3.92,-1.25 6.84,-3.41 8.1,-7.65 0.88,-2.94 0.24,-5.64 -0.36,-8.41 -0.22,-1 -0.52,-2 0.13,-2.91 4.09,0.84 5.2,0.37 7.49,-3 2.15,-3.21 1.78,-6.46 0.17,-9.74 -0.24,-0.15 -10.69,-10.1 -11,-12.19 0,22.71 -15.21,18 -15.21,18 a 29.05,29.05 0 0 1 1,3.86 c 0.41,3.53 -3,10.41 -7.55,12.28 -3.23,1.35 -13.14,0.48 -13.14,0.48 0,0 1.1,71.8 1.25,73.32 a 5.78,5.78 0 0 0 1.29,0.6 32.38,32.38 0 0 1 10.07,3.62 14.27,14.27 0 0 1 3.75,3 c 1.69,1.88 1.25,4.92 -0.83,5.83 a 5.48,5.48 0 0 1 -4.67,0.39 39.25,39.25 0 0 1 -6.15,-2.91 19.18,19.18 0 0 0 -2.79,-1.21 z"
     id="path4996" />
  <path
     class="cls-19"
     d="m 104.48,261.8 c -3.81,-1.43 -15.81,-5.86 -22.47,-7.25 -2.48,2.67 -3.1,4.13 -9.48,12.27 1.71,1 6.48,3 8.27,3.9 0.42,0.22 0.81,0.5 1.21,0.76 l 14,5.55 c 2.15,-3.23 6.73,-10.06 7.17,-10.45 2,1.32 4.79,3 6.69,4.46 5.41,4.11 10.76,8.3 16.12,12.47 1.81,1.41 4.82,3.87 6.56,5.36 0.85,-0.8 3.15,-3.61 4.24,-4.67 a 151.66,151.66 0 0 1 16.4,-13.51 64.53,64.53 0 0 1 13.33,-7.18 4,4 0 0 1 3,-0.07 c 9.5,2.87 44.71,18.17 44.71,18.17 0,0 0.59,-0.64 1.65,-2 2.88,-3.6 8.34,-10.36 11.26,-13.93 a 76,76 0 0 0 -10,-3.76 c -0.45,-0.12 -52.24,-12.63 -53.21,-12.95 l -9.75,1.4 c -0.24,0.14 -0.46,0.38 -0.71,0.43 -6.92,1.31 -13.89,2.39 -20.75,4 -9.46,2.09 -18.87,4.63 -28.24,7 z"
     id="path4998" />
  <path
     class="cls-20"
     d="m 161.67,167.89 a 8.76,8.76 0 0 1 -0.46,-1.83 c -0.25,-3.81 -1.62,-40.67 -1.85,-42.75 a 2.74,2.74 0 0 1 1.71,-3 l 5.67,-0.6 c 1.7,-0.18 3.4,-0.38 5.1,-0.53 4.16,-0.39 8.33,-0.75 12.5,-1.12 h 0.57 c 4.4,-0.19 8.79,-0.36 13.18,-0.59 3,-0.16 6.1,-0.38 9.14,-0.61 0.23,0 0.43,-0.32 0.65,-0.5 l 1.18,0.15 0.56,0.39 c 2.31,1 2.45,1.19 2.13,3.27 a 5.34,5.34 0 0 0 -0.2,1.09 c 0.31,5.34 0.65,10.68 1,16 0,0.39 0,0.77 0,1.16 0.36,4.86 0.77,9.71 1.08,14.57 0.27,4.3 0.4,9.74 0.61,14 0.04,0.39 -51.26,2.12 -52.57,0.9 z m 24.27,-15.38 c -2.93,-3.86 -6.71,-6.77 -11.67,-7.71 -1.49,-0.27 -3,-0.69 -4.35,0.46 -2.27,1.9 -2.41,4.4 -0.47,6.77 1.78,2.19 4.2,3.19 6.77,4 a 51.84,51.84 0 0 1 5.59,2.05 7.65,7.65 0 0 1 2.35,2 c 1.14,1.33 2.34,2.44 4.35,2.32 1.15,-4.03 -0.5,-7.15 -2.57,-9.89 z"
     id="path5000" />
  <path
     class="cls-8"
     d="m 80.76,226.61 a 19.18,19.18 0 0 1 2.79,1.3 39.25,39.25 0 0 0 6.15,2.91 5.48,5.48 0 0 0 4.67,-0.39 c 2.08,-0.91 2.52,-3.95 0.83,-5.83 a 14.27,14.27 0 0 0 -3.75,-3 32.38,32.38 0 0 0 -10.08,-3.68 5.78,5.78 0 0 1 -1.29,-0.6 41.79,41.79 0 0 0 -14,-1 c -6.44,0.6 -12.37,2.68 -16.88,7.64 a 16,16 0 0 0 -4.22,9.24 c -0.17,1.57 -0.28,3.14 -0.44,4.95 -0.93,-0.43 -1.91,-0.91 -2.91,-1.36 -3.27,-1.48 -6.62,-2.5 -10.25,-1.47 a 13.82,13.82 0 0 0 -2.93,1.11 c -3.4,1.87 -2.87,4.79 -0.2,6.88 a 13.56,13.56 0 0 0 3.42,1.45 71.34,71.34 0 0 0 -6.26,5.32 14.55,14.55 0 0 0 -4.1,11.29 7.74,7.74 0 0 0 4.65,6.39 4,4 0 0 0 4.5,-0.88 c 1.83,-1.56 2.61,-3.75 3.54,-5.85 a 27.41,27.41 0 0 1 3.3,-5.85 3.19,3.19 0 0 1 0.16,0.85 4.93,4.93 0 0 1 -0.22,1.12 35.65,35.65 0 0 0 -1.49,12.49 18.21,18.21 0 0 0 3.65,10.4 c 1.33,1.71 3,2.95 5.41,2.67 1,-0.12 1.7,-0.49 1.87,-1.47 a 13,13 0 0 0 0.42,-3.93 c -0.54,-3.58 -1.52,-7.1 -2,-10.68 -0.64,-5 0.2,-13.45 3.58,-17.16 1.68,3.63 3.19,7.29 5.08,10.75 a 46.21,46.21 0 0 0 4.8,6.78 8,8 0 0 0 2.83,1.88 c 1.73,0.8 3.13,0 3.12,-1.91 a 10.64,10.64 0 0 0 -0.87,-4.44 c -2.87,-6.18 -5.86,-12.33 -11,-17 a 4.43,4.43 0 0 1 -1.39,-3.29 c -0.61,-8 5.72,-16.21 14,-17.4 4,-0.57 8,-0.95 12,0.11 a 20.67,20.67 0 0 1 3.51,1.66 z"
     id="path5002" />
  <path
     class="cls-21"
     d="m 95.99,277.03 -14,-5.55 c -0.09,5.42 -1.53,48.91 -1.3,55.83 1.73,1.47 15.53,9.85 22.61,14.86 0,-21.3 0,-42.6 0,-63.91 0,-3.33 0.08,-8.36 -0.14,-11.68 -0.55,0.4 -5.02,7.22 -7.17,10.45 z"
     id="path5004" />
  <path
     class="cls-22"
     d="m 176.91,174.84 c 3.44,-0.08 30.62,-0.54 38.44,-0.78 -7.19,-1.31 -5,-4.63 -1.76,-7 -0.9,-0.44 -14.78,0.68 -20.33,0.6 -7.41,-0.09 -14.82,-0.05 -22.23,0 -1.61,0 -8.05,0.62 -9.36,-0.6 -3.48,0.58 -5,3.39 -3.55,6.63 0.76,1.66 3,1.69 6.67,2.31 4.29,-1.1 5.8,-2 12.12,-1.16 z"
     id="path5006" />
  <path
     class="cls-8"
     d="m 214.85,238.05 c 0,2.19 -0.06,4.37 0,6.55 a 16.28,16.28 0 0 0 0.54,2.73 c 2.1,2.22 4.15,4.5 6.32,6.65 a 33.7,33.7 0 0 0 11.41,7.53 c 7.27,2.91 12.27,0.58 16.27,-4.87 a 23.75,23.75 0 0 0 4.15,-10 24.9,24.9 0 0 1 0.7,-2.48 c 2.12,0.72 4,1.74 6.05,2 4.74,0.53 8.17,-2 10.49,-5.8 4.52,-7.37 3.53,-15.42 -1.67,-21.92 a 13.22,13.22 0 0 0 -3.87,-2.91 c -1.82,-1 -3,-0.64 -4.1,1.14 a 20.23,20.23 0 0 0 -1.85,15.17 c 0.95,1.76 2.62,1.74 4.48,1.82 -2.95,2.31 -4.32,2 -5.78,-0.95 a 8,8 0 0 1 -0.43,-1.05 14.83,14.83 0 0 1 -0.18,-8.47 c 0.18,-0.78 1.63,-4.48 2,-5.45 0.83,-2.3 0.76,-3.45 -0.44,-4.47 -1.2,-1.02 -4.8,0.49 -6.38,2 a 2.5,2.5 0 0 0 -0.77,2.22 c 0.43,2.65 2.88,5.37 0.79,10.27 -0.82,2 -3.11,1.9 -4.39,1.64 a 12.27,12.27 0 0 0 -1.94,-0.43 c -1.39,-0.05 -1.91,0.46 -2,1.84 a 7.66,7.66 0 0 0 0.11,2.3 c 1.06,3.95 0.38,7.79 -0.72,11.57 -1,3.52 -2.85,6.56 -6.7,7.56 a 11.26,11.26 0 0 1 -11.09,-2.84 c -3.84,-3.64 -7.38,-7.55 -11,-11.35 z"
     id="path5008" />
  <path
     class="cls-13"
     d="m 161.07,120.3 5.67,-0.6 c 1.7,-0.18 3.4,-0.38 5.1,-0.53 4.16,-0.39 8.33,-0.75 12.5,-1.12 h 0.57 c 4.4,-0.19 8.79,-0.36 13.18,-0.59 3,-0.16 6.1,-0.38 9.14,-0.61 0.23,0 0.43,-0.32 0.65,-0.5 -3.67,-1.53 -7.34,-3.05 -11,-4.6 -3.66,-1.55 -7.23,-3 -10.78,-4.61 a 13.68,13.68 0 0 0 -7,-1.15 c -3.05,0.24 -64.45,3 -65.4,3.34 0.28,2.09 10.73,12 11,12.19 9.51,-0.84 22.46,-1.4 26.75,-1.2 -2.49,-1.78 -2,-3 -0.29,-3.3 2.74,-0.4 5.48,-0.39 7.8,1.52 0.72,0.54 1.41,1.16 2.11,1.76 z"
     id="path5010" />
  <path
     class="cls-22"
     d="m 215.49,223.18 c -6.41,0 -51.64,1.87 -53.24,1.68 -3.46,2.89 -2.94,6.89 1.14,8.69 0,-0.86 48.25,-3 51.41,-3 -7.24,-3.78 -4.52,-6.64 0.69,-7.37 z"
     id="path5012" />
  <path
     class="cls-12"
     d="m 264.19,198.87 a 6.77,6.77 0 0 0 0.56,-9.15 6.27,6.27 0 0 0 -8.45,-1.51 c -3.26,2 -5.12,5.23 -6.5,8.58 -1.56,3.77 -2.65,7.85 -4,11.73 -0.81,2.34 1.34,5.61 1.83,5.54 0.91,0.8 1.93,1.47 3,2.29 0.74,-1 0.13,-3.44 13.56,-17.48 z"
     id="path5014" />
  <path
     class="cls-8"
     d="m 234.66,219.34 a 19.64,19.64 0 0 0 10.81,8.05 9.28,9.28 0 0 0 3.4,0.3 3.1,3.1 0 0 0 2.69,-4.18 10.67,10.67 0 0 0 -1.59,-3.35 c -3.09,-3.83 -6.47,-7.32 -11.49,-8.64 -2.81,-0.73 -8.28,-0.85 -3.82,7.82 z"
     id="path5016" />
  <path
     class="cls-13"
     d="m 209.06,116.51 0.56,0.39 z"
     id="path5018" />
  <path
     class="cls-8"
     d="m 167.63,288.11 a 36.72,36.72 0 0 0 19.83,-8.55 5.13,5.13 0 0 1 -0.17,3.25 12.14,12.14 0 0 1 -7.15,6.65 2.11,2.11 0 0 0 -1.75,2.19 c -0.1,2.47 -0.46,4.93 -0.51,7.4 -0.09,4.65 -1.3,6.42 -4.52,9.06 a 14.9,14.9 0 0 1 -3.64,1.63 12.24,12.24 0 0 1 -11.13,-4.63 21.91,21.91 0 0 1 -5,-8.66 c -0.3,-1.22 -0.6,-2.44 -1,-3.64 -0.57,-1.8 -0.83,-3.63 -2.9,-4.41 a 12.11,12.11 0 0 1 -3.08,-2.14 1,1 0 0 1 -0.33,-1.16 1.64,1.64 0 0 1 2.32,-0.85 32.12,32.12 0 0 0 19.03,3.86 z m -8.25,5.24 c -2.53,1 -2.89,2.27 -2.1,4.55 a 14.3,14.3 0 0 0 9.41,9.36 c 4.13,1.29 8.39,-1.89 8.79,-6.23 0.13,-1.36 0.2,-3.2 -0.56,-4.07 a 16.25,16.25 0 0 0 -5.23,-3.81 c -1.48,-0.7 -3.32,-0.62 -5.39,-0.95 a 35.58,35.58 0 0 0 -4.92,1.15 z"
     id="path5020" />
  <path
     class="cls-20"
     d="m 152.42,119.97 0.36,49.46 c 0,0 -9,0 -12.18,0 -11.81,-0.18 -23.62,-0.41 -35.42,-0.54 -1.71,0 -2.86,-0.92 -4.12,-1.77 -0.38,-3.3 -0.78,-6.59 -1.12,-9.89 a 40.83,40.83 0 0 1 0,-5.31 c 3,0.92 6,2.34 9.19,1.33 3.92,-1.25 6.84,-3.41 8.1,-7.65 0.88,-2.94 0.24,-5.64 -0.36,-8.41 a 8.3,8.3 0 0 0 -1.18,-3.12 c 4.09,0.84 6.51,0.58 8.8,-2.83 2.15,-3.21 1.78,-6.46 0.17,-9.74 4.79,-0.87 27.76,-1.53 27.76,-1.53 z m -13.51,33.2 c 0.58,-2.21 -0.53,-3.72 -1.54,-5.17 -2.1,-3 -4.89,-4.89 -8.7,-4.54 a 6,6 0 0 0 -3.11,1.22 11.3,11.3 0 0 0 -3.82,6.52 18.19,18.19 0 0 0 0.08,7.91 c 0.44,2.25 1.32,3.08 3.83,3.29 1.14,-7.89 6.65,-9.44 13.26,-9.23 z"
     id="path5022" />
  <path
     class="cls-23"
     d="m 104.48,261.8 c 9.41,-2.37 49.46,-11.32 49.7,-11.46 0,-2 0.54,-15.71 0.54,-15.71 h -4 c -14.83,0.31 -33.26,0.13 -46.25,0.81 -0.16,6.06 0.21,14 0,20.05 -0.02,2.12 0.02,4.22 0.01,6.31 z"
     id="path5024" />
  <path
     class="cls-22"
     d="m 154.17,226.25 c -9,0 -22.69,1 -31.73,0.9 -4.58,-0.05 -9.16,-0.3 -13.74,-0.61 -1,-0.06 -4.45,0.25 -5.1,-0.3 a 3.27,3.27 0 0 0 -3.2,2.95 c -0.25,1.81 0.59,4.84 4.47,6.46 15.7,-0.47 35,-0.71 49.85,-1 -3.87,-2.75 -0.87,-7.81 -0.55,-8.4 z"
     id="path5026" />
  <path
     class="cls-24"
     d="m 133.74,177.61 20.11,-0.1 c 0,-0.37 -4.76,-2.42 -1,-8.06 -3.18,0 -9,0 -12.18,0 -11.81,-0.18 -23.62,-0.41 -35.42,-0.54 -1.71,0 -2.86,-0.92 -4.12,-1.77 a 6,6 0 0 1 -0.93,1.26 c -0.57,0.48 -1.29,0.79 -1.89,1.25 -1.17,0.93 -5,5.22 2,8.6 2.99,0.8 30,-2.53 33.43,-0.64 z"
     id="path5028" />
  <path
     class="cls-18"
     d="m 153.29,226.51 c -0.3,0.59 -3.34,4 1.43,8.11 v 0 c 0,0 -0.36,7.87 -0.45,9.74 -0.09,1.87 -0.07,4 -0.09,6 l 9.75,-1.4 c 0,-4.12 0.07,-8.23 0,-12.34 A 38.07,38.07 0 0 0 163.37,232 c -4.08,-1.8 -4.6,-4.23 -1.14,-7.12 a 27.59,27.59 0 0 0 -0.46,-7.3 88.84,88.84 0 0 1 -0.67,-9.4 c -1.34,-1.45 -2.73,-2.85 -4,-4.34 -1,-1.21 -2,-2.53 -2.93,-3.79 v 26.22 c -1.68,0.32 0.59,-0.05 -0.88,0.24 z"
     id="path5030" />
  <path
     class="cls-18"
     d="m 150.85,170.14 c -4.68,5.16 2.57,7 2.6,7.4 3.13,0.21 0.36,0 0.36,0 0,0 -0.17,7.36 -0.15,8.68 0.45,-0.38 -0.17,37.22 0.15,37 0,0 6.68,-11.53 7,-12 1,-1.35 -0.91,-34.25 4.37,-35.17 -9.21,0 -6.82,-7 -3.5,-8.94 a 3.39,3.39 0 0 1 -0.46,-1 c -0.25,-3.81 -1.62,-40.67 -1.85,-42.75 a 2.74,2.74 0 0 1 1.71,-3 c -0.7,-0.6 -1.39,-1.22 -2.11,-1.8 -2.32,-1.91 -14.06,-3.83 -8.1,1.47 2,0.06 1.56,0 1.56,0 l 0.36,49.46 c 0,0 -0.68,-0.28 -1.94,0.65 z"
     id="path5032" />
  <path
     class="cls-14"
     d="m 188.51,162.44 c 1.15,-4.07 -0.5,-7.19 -2.57,-9.9 -2.93,-3.86 -6.71,-6.77 -11.67,-7.71 -1.49,-0.27 -3,-0.69 -4.35,0.46 -2.27,1.9 -2.41,4.4 -0.47,6.77 1.78,2.19 4.2,3.19 6.77,4 a 51.84,51.84 0 0 1 5.59,2.05 7.65,7.65 0 0 1 2.35,2 c 1.14,1.34 2.34,2.45 4.35,2.33 z"
     id="path5034" />
  <path
     class="cls-17"
     d="m 159.38,293.35 c -2.53,1 -2.89,2.27 -2.1,4.55 a 14.3,14.3 0 0 0 9.41,9.36 c 4.13,1.29 8.39,-1.89 8.79,-6.23 0.13,-1.36 0.2,-3.2 -0.56,-4.07 a 16.25,16.25 0 0 0 -5.23,-3.81 12.06,12.06 0 0 0 -10.31,0.2 z"
     id="path5036" />
  <path
     class="cls-14"
     d="m 125.65,162.4 c 1.14,-7.9 6.65,-9.44 13.26,-9.23 0.58,-2.21 -0.53,-3.72 -1.54,-5.17 -2.1,-3 -4.89,-4.89 -8.7,-4.54 a 6,6 0 0 0 -3.11,1.22 11.3,11.3 0 0 0 -3.82,6.52 18.19,18.19 0 0 0 0.08,7.91 c 0.44,2.25 1.32,3.08 3.83,3.29 z"
     id="path5038" />
  <path
     class="cls-15"
     d="m 113.85,215.71 c 0.17,0.17 0.34,0.35 0.5,0.53 -0.15,-0.18 -0.32,-0.36 -0.5,-0.53 z"
     id="path5040" />
  <path
     class="cls-23"
     d="m 163.93,248.94 c 1,0.32 51.14,12.36 51.91,12.44 -0.15,-4.68 -1,-30.8 -1,-30.8 0,0 -41.27,0.74 -51.41,1.4 0.16,1.01 0.52,12.84 0.5,16.96 z"
     id="path5042" />
  <path
     class="cls-25"
     d="m 102.43,177.51 c 0.19,4.94 0.7,39.39 0.93,44.33 a 40.91,40.91 0 0 0 0.24,4.42 c 0.65,0.55 4.13,0.24 5.1,0.3 4.58,0.31 9.16,0.56 13.74,0.61 9,0.09 30,-0.56 31.73,-0.9 v -26.24 c -0.27,-0.91 -0.64,-13.11 -0.52,-13.86 0,-1.32 0.15,-8.68 0.15,-8.68 0,0 -50.95,0.38 -51.37,0.02 z"
     id="path5044" />
  <path
     class="cls-25"
     d="m 215.49,223.18 c 0.35,-11.57 -0.27,-47.8 -0.15,-49.12 -8.76,0.11 -49.55,-0.08 -53.06,0 3.44,0.73 -1.59,0.41 -2.32,0 0.2,3.14 0.14,40.44 0.68,43.52 a 26.78,26.78 0 0 1 0.48,7.3 c 1.62,0.17 45.9,-1.63 54.37,-1.7 z"
     id="path5046" />
  <ellipse
     class="cls-15"
     cx="52.345947"
     cy="235.09354"
     rx="19.549999"
     ry="28.57"
     transform="rotate(-21.11)"
     id="ellipse5048" />
  <ellipse
     class="cls-14"
     cx="61.555828"
     cy="233.14293"
     rx="11.43"
     ry="18.620001"
     transform="rotate(-21.11)"
     id="ellipse5050" />
  <ellipse
     class="cls-15"
     cx="98.653755"
     cy="251.73592"
     rx="19.549999"
     ry="28.57"
     transform="rotate(-21.11)"
     id="ellipse5052" />
  <ellipse
     class="cls-14"
     cx="107.88297"
     cy="249.78893"
     rx="11.43"
     ry="18.620001"
     transform="rotate(-21.11)"
     id="ellipse5054" />
  <polygon
     class="cls-26"
     points="53.83,524.58 109.94,509.94 114.31,452.37 44.15,471.04 "
     id="polygon5056"
     transform="translate(-44.15,-152.49)" />
  <polygon
     class="cls-26"
     points="474.06,516.73 395.97,488.02 397.16,441.36 477.54,462.32 "
     id="polygon5058"
     transform="translate(-44.15,-152.49)" />
  <path
     d="m 26.54,330.37 a 1,1 0 0 1 0.81,0.08 1.37,1.37 0 0 1 0.44,0.82 3.15,3.15 0 0 1 0,0.94 2.86,2.86 0 0 1 -0.24,1 3,3 0 0 1 -1,1 11.21,11.21 0 0 1 -2,1.11 4.26,4.26 0 0 0 -1.24,0.74 1.13,1.13 0 0 0 -0.12,1 c 0.09,0.36 0.34,1.28 0.76,2.77 0.42,1.49 0.76,2.78 1,3.89 0.06,0.25 0.12,0.54 0.18,0.86 0.06,0.32 0.13,0.63 0.19,0.92 0.06,0.29 0.11,0.6 0.18,0.92 0.24,1 0.39,1.81 0.45,2.29 a 2.18,2.18 0 0 1 -0.17,1.24 1.83,1.83 0 0 1 -0.3,0.41 1,1 0 0 1 -0.3,0.25 c -0.59,0.14 -1,-0.43 -1.34,-1.72 -0.06,-0.22 -0.15,-0.67 -0.28,-1.34 -0.13,-0.67 -0.27,-1.38 -0.42,-2.11 -0.15,-0.73 -0.33,-1.57 -0.56,-2.5 -0.51,-2.16 -0.89,-3.66 -1.12,-4.49 a 3.16,3.16 0 0 0 -0.65,-1.46 1,1 0 0 0 -0.44,0 c -0.27,0 -0.63,0.09 -1.08,0.17 -0.45,0.08 -1,0.19 -1.63,0.34 -1.14,0.27 -1.83,-0.06 -2,-1 a 1.72,1.72 0 0 1 0,-0.56 1.52,1.52 0 0 1 0.18,-0.6 1.87,1.87 0 0 1 0.67,-0.7 5.7,5.7 0 0 1 1,-0.49 c 0.4,-0.15 1,-0.34 1.68,-0.58 0.68,-0.24 1.25,-0.43 1.59,-0.57 l 2.1,-0.9 c 0.55,-0.25 1.25,-0.59 2.11,-1 0.86,-0.41 1.44,-0.7 1.55,-0.73 z"
     id="path5060" />
  <path
     d="m 35.48,335.14 c 0.05,0 0.1,-0.08 0.14,-0.2 a 5.5,5.5 0 0 0 0.15,-0.55 l 0.18,-0.83 a 25.42,25.42 0 0 1 0.9,-3.05 12.21,12.21 0 0 1 0.74,-1.68 c 0.42,-0.66 0.8,-1 1.13,-1.1 0.33,-0.1 0.39,0.06 0.46,0.36 a 0.62,0.62 0 0 1 0,0.3 1,1 0 0 1 -0.13,0.3 2.08,2.08 0 0 0 -0.13,0.25 c -0.08,0.29 -0.21,0.74 -0.37,1.35 -0.16,0.61 -0.4,1.58 -0.71,2.93 -0.14,0.62 -0.26,1.16 -0.37,1.61 -0.11,0.45 -0.19,0.84 -0.25,1.18 a 2,2 0 0 0 0,0.7 1.73,1.73 0 0 0 0.42,0.79 10.5,10.5 0 0 0 1.1,0.93 c 0.52,0.39 0.89,0.69 1.12,0.88 0.78,0.66 1.28,1.09 1.49,1.28 a 3.41,3.41 0 0 1 0.57,0.67 3,3 0 0 1 0.39,1 3.37,3.37 0 0 1 0.1,1.88 1.25,1.25 0 0 1 -1,0.73 0.81,0.81 0 0 1 -0.53,-0.15 c -0.24,-0.13 -0.81,-0.5 -1.73,-1.11 l -0.62,-0.4 c -0.23,-0.14 -0.44,-0.27 -0.62,-0.4 l -0.52,-0.39 c -0.65,-0.54 -1,-0.79 -1.13,-0.76 -0.13,0.03 -0.4,0.42 -0.6,1.11 -0.2,0.69 -0.5,2 -0.92,3.82 a 5.53,5.53 0 0 0 -0.15,1 c 0,0.24 0,0.58 0,1 a 5.42,5.42 0 0 1 0,1 3.8,3.8 0 0 1 -0.43,1.25 1.1,1.1 0 0 1 -0.7,0.46 1,1 0 0 1 -0.65,0 c -0.17,-0.08 -0.3,-0.31 -0.39,-0.7 0,-0.06 0,-0.18 -0.08,-0.36 -0.08,-0.18 -0.06,-0.33 -0.07,-0.43 a 8.39,8.39 0 0 1 0.25,-1.45 c 0.18,-0.88 0.45,-2.12 0.82,-3.72 0.15,-0.7 0.33,-1.47 0.56,-2.33 0.23,-0.86 0.36,-1.45 0.42,-1.77 a 2,2 0 0 0 0,-0.84 1.15,1.15 0 0 0 -0.26,-0.46 l -0.85,-1 c -0.3,-0.33 -0.73,-0.87 -1.3,-1.61 -0.82,-1.09 -1.38,-1.83 -1.66,-2.23 a 3.24,3.24 0 0 1 -0.52,-1.07 1.1,1.1 0 0 1 0,-0.56 0.73,0.73 0 0 1 0.12,-0.26 l 0.27,-0.27 0.27,-0.36 a 0.54,0.54 0 0 1 0.33,-0.21 0.63,0.63 0 0 1 0.46,0.06 7.13,7.13 0 0 1 1.36,0.93 15.19,15.19 0 0 1 1.71,1.61 c 0.35,0.38 0.6,0.63 0.76,0.77 a 0.5,0.5 0 0 0 0.47,0.1 z"
     id="path5062" />
  <path
     d="m 51.24,324.51 a 1,1 0 0 1 0.81,0.08 1.4,1.4 0 0 1 0.44,0.83 2.77,2.77 0 0 1 0,0.93 3.28,3.28 0 0 1 -0.23,1 3.2,3.2 0 0 1 -1,1 10.86,10.86 0 0 1 -2,1.11 4.66,4.66 0 0 0 -1.24,0.74 1.13,1.13 0 0 0 -0.12,1 c 0.09,0.36 0.34,1.28 0.76,2.77 0.42,1.49 0.76,2.78 1,3.89 0.06,0.25 0.12,0.54 0.19,0.86 0.07,0.32 0.12,0.63 0.18,0.92 0.06,0.29 0.11,0.6 0.18,0.93 0.24,1 0.39,1.81 0.45,2.28 a 2.17,2.17 0 0 1 -0.17,1.24 1.63,1.63 0 0 1 -0.3,0.41 c -0.14,0.16 -0.24,0.24 -0.3,0.25 -0.59,0.14 -1,-0.43 -1.34,-1.72 0,-0.22 -0.15,-0.67 -0.28,-1.34 l -0.33,-2.18 c -0.15,-0.73 -0.34,-1.57 -0.57,-2.5 -0.51,-2.16 -0.89,-3.65 -1.12,-4.49 a 3.11,3.11 0 0 0 -0.65,-1.46 c 0,0 -0.18,0 -0.44,0 -0.26,0 -0.62,0.08 -1.07,0.16 -0.45,0.08 -1,0.19 -1.64,0.34 -1.14,0.28 -1.83,-0.06 -2,-1 a 1.72,1.72 0 0 1 0,-0.56 1.84,1.84 0 0 1 0.19,-0.6 1.8,1.8 0 0 1 0.67,-0.7 6,6 0 0 1 1,-0.49 l 1.68,-0.58 q 1.08,-0.36 1.59,-0.57 c 0.87,-0.35 1.57,-0.65 2.11,-0.9 0.54,-0.25 1.24,-0.59 2.1,-1 0.86,-0.41 1.34,-0.65 1.45,-0.65 z"
     id="path5064" />
  <path
     d="m 378.31,309.7 a 0.55,0.55 0 0 1 0.42,0.27 2.84,2.84 0 0 1 0.16,1 24,24 0 0 1 -0.09,2.45 c -0.08,1.25 -0.26,2.84 -0.52,4.77 -0.26,1.93 -0.62,3.95 -1.07,6.08 a 8.07,8.07 0 0 1 -0.93,2.42 7.52,7.52 0 0 1 -1.29,1.74 3.36,3.36 0 0 1 -3.06,0.76 3.34,3.34 0 0 0 -0.36,-0.1 l -0.39,-0.09 -0.48,-0.08 a 4.08,4.08 0 0 1 -0.49,-0.07 4.26,4.26 0 0 1 -1,-0.33 3.27,3.27 0 0 1 -0.81,-0.6 6.24,6.24 0 0 1 -0.74,-0.89 4.8,4.8 0 0 1 -0.51,-0.9 2.86,2.86 0 0 1 -0.2,-1 6.11,6.11 0 0 1 0.14,-1.25 1.49,1.49 0 0 1 0.69,-0.8 c 0.41,-0.27 0.66,-0.4 0.76,-0.38 a 0.75,0.75 0 0 1 0.31,0.15 1.35,1.35 0 0 1 0.2,0.27 l 0.15,0.29 a 6.77,6.77 0 0 0 1.55,1.56 5.4,5.4 0 0 0 2.14,1.1 6.69,6.69 0 0 0 1.24,0.18 0.89,0.89 0 0 0 0.68,-0.33 2.91,2.91 0 0 0 0.46,-1.2 c 0,-0.11 0.05,-0.51 0.07,-1.19 0.02,-0.68 0.08,-1.39 0.15,-2.1 0,-0.05 0,-0.26 0.09,-0.64 0.09,-0.38 0.09,-0.73 0.13,-1 0.04,-0.27 0.08,-0.79 0.13,-1.41 0.05,-0.62 0.09,-1.29 0.12,-2 0.06,-1.43 0.13,-2.58 0.2,-3.45 a 15.73,15.73 0 0 1 0.19,-1.69 1.63,1.63 0 0 1 0.92,-1.11 2,2 0 0 1 1.04,-0.43 z"
     id="path5066" />
  <path
     d="m 389.58,311.69 a 3.62,3.62 0 0 1 1.12,0.4 2.08,2.08 0 0 1 0.73,0.95 4.26,4.26 0 0 1 0.17,2.69 5.21,5.21 0 0 1 -0.75,1.78 9.24,9.24 0 0 1 -1.5,1.74 20.19,20.19 0 0 1 -2.34,1.81 c -1.07,0.73 -1.93,1.28 -2.59,1.66 -0.66,0.38 -1.15,0.63 -1.49,0.8 l -1,0.46 a 0.53,0.53 0 0 0 -0.26,0.27 2.88,2.88 0 0 0 -0.19,0.67 21.79,21.79 0 0 0 -0.41,2.42 c -0.07,0.63 -0.11,1.22 -0.12,1.78 a 9.16,9.16 0 0 1 -0.06,1 3.11,3.11 0 0 1 -0.72,1.49 1.15,1.15 0 0 1 -1.07,0.43 0.65,0.65 0 0 1 -0.44,-0.27 1.48,1.48 0 0 1 -0.12,-0.71 15.68,15.68 0 0 1 0.13,-1.8 c 0.09,-0.75 0.21,-1.5 0.37,-2.26 0,-0.13 0.07,-0.26 0.11,-0.41 0.04,-0.15 0.07,-0.27 0.1,-0.38 0.03,-0.11 0,-0.2 0.07,-0.26 v -0.22 a 2.87,2.87 0 0 0 -0.07,-1.13 2.17,2.17 0 0 1 -0.07,-1 2.68,2.68 0 0 1 0.13,-0.42 1.61,1.61 0 0 1 0.2,-0.31 2,2 0 0 1 0.17,-0.21 2.16,2.16 0 0 0 0.28,-0.52 8.7,8.7 0 0 0 0.25,-1 20.57,20.57 0 0 1 0.58,-2.17 l 0.33,-1 a 0.64,0.64 0 0 0 -0.07,-0.47 0.71,0.71 0 0 0 -0.34,-0.3 1,1 0 0 1 -0.37,-0.25 0.48,0.48 0 0 1 -0.05,-0.41 3.92,3.92 0 0 1 0.5,-1.3 3.67,3.67 0 0 1 0.87,-0.95 10,10 0 0 1 2,-1.25 16.9,16.9 0 0 1 2.31,-0.93 13,13 0 0 1 2.09,-0.47 4.48,4.48 0 0 1 1.52,0.05 z m -1.88,3 a 5.82,5.82 0 0 0 -1.32,-0.14 5.42,5.42 0 0 0 -1.54,0.28 2.87,2.87 0 0 0 -0.9,0.45 1.46,1.46 0 0 0 -0.43,0.65 13.58,13.58 0 0 0 -0.37,1.47 c -0.15,0.7 -0.29,1.35 -0.45,1.94 q -0.09,0.38 -0.21,0.75 c -0.08,0.25 -0.12,0.4 -0.13,0.43 -0.06,0.27 0,0.43 0.2,0.47 a 2,2 0 0 0 1,-0.25 10.19,10.19 0 0 0 1.54,-0.86 10.53,10.53 0 0 0 0.91,-0.65 l 0.81,-0.61 c 0.91,-0.65 1.51,-1.11 1.8,-1.37 a 1.87,1.87 0 0 0 0.57,-1 c 0.17,-0.74 -0.33,-1.27 -1.48,-1.52 z"
     id="path5068" />
  <path
     d="m 389.5,326.7 a 14.73,14.73 0 0 1 2,-4.86 15.74,15.74 0 0 1 3.44,-3.85 12.72,12.72 0 0 1 4.28,-2.26 8.81,8.81 0 0 1 4.39,-0.23 3.66,3.66 0 0 1 1.77,0.77 1.28,1.28 0 0 1 0.37,1.26 3.22,3.22 0 0 1 -0.23,0.75 2.06,2.06 0 0 1 -0.51,0.52 c -0.24,0.17 -0.41,0.25 -0.5,0.23 L 404,318.85 a 5.39,5.39 0 0 0 -0.75,-0.23 10.15,10.15 0 0 0 -2.1,-0.23 10.68,10.68 0 0 0 -4.19,0.88 7.49,7.49 0 0 0 -1.68,1 8.61,8.61 0 0 0 -1.71,1.82 9.52,9.52 0 0 0 -1.11,2.12 16.89,16.89 0 0 0 -0.72,2.5 c -0.07,0.36 -0.12,0.66 -0.15,0.89 a 2.74,2.74 0 0 0 0,0.7 3.73,3.73 0 0 0 0.23,0.72 c 0.34,0.79 0.7,1.23 1.08,1.31 a 6,6 0 0 0 2.39,0 7.72,7.72 0 0 0 2.14,-0.73 8.66,8.66 0 0 0 1.56,-1 c 0.39,-0.31 0.59,-0.54 0.62,-0.67 a 0.51,0.51 0 0 0 -0.43,-0.69 c -1.13,-0.24 -2,-0.39 -2.73,-0.47 -0.73,-0.08 -1.16,-0.1 -1.39,-0.11 -0.69,-0.14 -1,-0.54 -0.83,-1.18 a 1.71,1.71 0 0 1 0.48,-0.9 3,3 0 0 1 1.13,-0.58 12.53,12.53 0 0 1 2.33,-0.6 5.83,5.83 0 0 1 2,0.06 2.86,2.86 0 0 1 1.39,0.61 1.24,1.24 0 0 1 0.24,1.23 5.48,5.48 0 0 1 -0.33,1.12 8.72,8.72 0 0 1 -0.39,0.85 4.16,4.16 0 0 0 -0.2,0.4 3.61,3.61 0 0 0 0,0.4 3.25,3.25 0 0 1 -0.06,0.51 3.93,3.93 0 0 1 -1.13,1.84 11.51,11.51 0 0 1 -5.08,3 5.48,5.48 0 0 1 -2.56,0.16 3,3 0 0 1 -1.47,-0.74 3.85,3.85 0 0 1 -1,-1.46 6.22,6.22 0 0 1 -0.39,-2.09 11,11 0 0 1 0.31,-2.59 z"
     id="path5070" />
</svg>
