<?xml version="1.0" encoding="UTF-8" standalone="no"?>
<svg
   xmlns:dc="http://purl.org/dc/elements/1.1/"
   xmlns:cc="http://creativecommons.org/ns#"
   xmlns:rdf="http://www.w3.org/1999/02/22-rdf-syntax-ns#"
   xmlns:svg="http://www.w3.org/2000/svg"
   xmlns="http://www.w3.org/2000/svg"
   xmlns:sodipodi="http://sodipodi.sourceforge.net/DTD/sodipodi-0.dtd"
   xmlns:inkscape="http://www.inkscape.org/namespaces/inkscape"
   id="Layer_1"
   data-name="Layer 1"
   viewBox="0 0 644.92609 251.69444"
   version="1.1"
   sodipodi:docname="multi_modal.svg"
   width="644.92609"
   height="251.69444"
   inkscape:version="1.0.1 (3bc2e813f5, 2020-09-07, custom)">
  <metadata
     id="metadata5943">
    <rdf:RDF>
      <cc:Work
         rdf:about="">
        <dc:format>image/svg+xml</dc:format>
        <dc:type
           rdf:resource="http://purl.org/dc/dcmitype/StillImage" />
      </cc:Work>
    </rdf:RDF>
  </metadata>
  <sodipodi:namedview
     pagecolor="#ffffff"
     bordercolor="#666666"
     borderopacity="1"
     objecttolerance="10"
     gridtolerance="10"
     guidetolerance="10"
     inkscape:pageopacity="0"
     inkscape:pageshadow="2"
     inkscape:window-width="640"
     inkscape:window-height="480"
     id="namedview5941"
     showgrid="false"
     inkscape:zoom="1.1585714"
     inkscape:cx="312.93608"
     inkscape:cy="38.937067"
     inkscape:current-layer="Layer_1" />
  <defs
     id="defs5690">
    <style
       id="style5562">.cls-1{fill:#e5e2d6;}.cls-14,.cls-2,.cls-30,.cls-33,.cls-36{fill:#fff;}.cls-3{fill:url(#linear-gradient);}.cls-10,.cls-4,.cls-5,.cls-6,.cls-7,.cls-8,.cls-9{opacity:0.71;}.cls-4{fill:url(#linear-gradient-2);}.cls-5{fill:url(#linear-gradient-3);}.cls-6{fill:url(#linear-gradient-4);}.cls-7{fill:url(#linear-gradient-5);}.cls-8{fill:url(#linear-gradient-6);}.cls-9{fill:url(#linear-gradient-7);}.cls-10{fill:url(#linear-gradient-8);}.cls-11{fill:#383838;}.cls-12{fill:#b456b7;}.cls-13{fill:#ff76fe;}.cls-14,.cls-30,.cls-33,.cls-36{stroke:#1d1d1b;stroke-miterlimit:10;}.cls-14{stroke-width:0.48px;}.cls-15{fill:#373737;}.cls-16{fill:#363637;}.cls-17{fill:#fc6769;}.cls-18{fill:#48322d;}.cls-19{fill:#72524b;}.cls-20{fill:#fa4847;}.cls-21{fill:#5f4c48;}.cls-22{fill:#5d4c49;}.cls-23{fill:#353638;}.cls-24{fill:#73524b;}.cls-25{fill:#604e4a;}.cls-26{fill:#fdfdfd;}.cls-27{fill:#73534c;}.cls-28{fill:#c97e06;}.cls-29{fill:#ffa700;}.cls-30{stroke-width:0.49px;}.cls-31{fill:#63bc2f;}.cls-32{fill:#77ed3a;}.cls-33{stroke-width:0.59px;}.cls-34{fill:#0491bc;}.cls-35{fill:#00b6ff;}.cls-36{stroke-width:0.44px;}</style>
    <linearGradient
       id="linear-gradient"
       x1="196.57001"
       y1="415.35999"
       x2="332.73999"
       y2="415.35999"
       gradientUnits="userSpaceOnUse">
      <stop
         offset="0.02"
         stop-color="#fff"
         stop-opacity="0"
         id="stop5564" />
      <stop
         offset="0.57"
         stop-color="#e5e2d6"
         id="stop5566" />
    </linearGradient>
    <linearGradient
       id="linear-gradient-2"
       x1="414.51001"
       y1="396.88"
       x2="604.12"
       y2="396.88"
       gradientUnits="userSpaceOnUse">
      <stop
         offset="0.54"
         stop-color="#ff574a"
         id="stop5569" />
      <stop
         offset="0.94"
         stop-color="#fff"
         stop-opacity="0"
         id="stop5571" />
    </linearGradient>
    <linearGradient
       id="linear-gradient-3"
       x1="416.97"
       y1="408.89999"
       x2="604.12"
       y2="408.89999"
       gradientUnits="userSpaceOnUse">
      <stop
         offset="0.54"
         stop-color="#ffa700"
         id="stop5574" />
      <stop
         offset="0.94"
         stop-color="#fff"
         stop-opacity="0"
         id="stop5576" />
    </linearGradient>
    <linearGradient
       id="linear-gradient-4"
       x1="419.53"
       y1="421.01999"
       x2="604.12"
       y2="421.01999"
       gradientUnits="userSpaceOnUse">
      <stop
         offset="0.54"
         stop-color="#fdff0a"
         id="stop5579" />
      <stop
         offset="0.59"
         stop-color="#fdff0e"
         stop-opacity="0.98"
         id="stop5581" />
      <stop
         offset="0.64"
         stop-color="#fdff1a"
         stop-opacity="0.94"
         id="stop5583" />
      <stop
         offset="0.69"
         stop-color="#fdff2d"
         stop-opacity="0.86"
         id="stop5585" />
      <stop
         offset="0.75"
         stop-color="#feff48"
         stop-opacity="0.75"
         id="stop5587" />
      <stop
         offset="0.8"
         stop-color="#feff6c"
         stop-opacity="0.6"
         id="stop5589" />
      <stop
         offset="0.85"
         stop-color="#feff97"
         stop-opacity="0.43"
         id="stop5591" />
      <stop
         offset="0.9"
         stop-color="#ffffc9"
         stop-opacity="0.22"
         id="stop5593" />
      <stop
         offset="0.94"
         stop-color="#fff"
         stop-opacity="0"
         id="stop5595" />
    </linearGradient>
    <linearGradient
       id="linear-gradient-5"
       x1="422.45999"
       y1="433.70999"
       x2="604.12"
       y2="433.70999"
       gradientUnits="userSpaceOnUse">
      <stop
         offset="0.54"
         stop-color="#77ed3a"
         id="stop5598" />
      <stop
         offset="0.62"
         stop-color="#79ed3c"
         stop-opacity="0.99"
         id="stop5600" />
      <stop
         offset="0.68"
         stop-color="#7eee44"
         stop-opacity="0.95"
         id="stop5602" />
      <stop
         offset="0.73"
         stop-color="#87ef51"
         stop-opacity="0.89"
         id="stop5604" />
      <stop
         offset="0.77"
         stop-color="#93f163"
         stop-opacity="0.79"
         id="stop5606" />
      <stop
         offset="0.81"
         stop-color="#a3f37a"
         stop-opacity="0.67"
         id="stop5608" />
      <stop
         offset="0.85"
         stop-color="#b7f597"
         stop-opacity="0.53"
         id="stop5610" />
      <stop
         offset="0.89"
         stop-color="#cff9b9"
         stop-opacity="0.36"
         id="stop5612" />
      <stop
         offset="0.92"
         stop-color="#e9fcdf"
         stop-opacity="0.16"
         id="stop5614" />
      <stop
         offset="0.94"
         stop-color="#fff"
         stop-opacity="0"
         id="stop5616" />
    </linearGradient>
    <linearGradient
       id="linear-gradient-6"
       x1="424.98001"
       y1="445.95999"
       x2="604.12"
       y2="445.95999"
       gradientUnits="userSpaceOnUse">
      <stop
         offset="0.54"
         stop-color="#00b6ff"
         id="stop5619" />
      <stop
         offset="0.66"
         stop-color="#02b7ff"
         stop-opacity="0.99"
         id="stop5621" />
      <stop
         offset="0.72"
         stop-color="#0ab9ff"
         stop-opacity="0.96"
         id="stop5623" />
      <stop
         offset="0.76"
         stop-color="#17bcff"
         stop-opacity="0.91"
         id="stop5625" />
      <stop
         offset="0.79"
         stop-color="#29c2ff"
         stop-opacity="0.84"
         id="stop5627" />
      <stop
         offset="0.82"
         stop-color="#41c9ff"
         stop-opacity="0.75"
         id="stop5629" />
      <stop
         offset="0.85"
         stop-color="#5ed1ff"
         stop-opacity="0.63"
         id="stop5631" />
      <stop
         offset="0.88"
         stop-color="#81dbff"
         stop-opacity="0.49"
         id="stop5633" />
      <stop
         offset="0.9"
         stop-color="#aae7ff"
         stop-opacity="0.33"
         id="stop5635" />
      <stop
         offset="0.93"
         stop-color="#d7f3ff"
         stop-opacity="0.16"
         id="stop5637" />
      <stop
         offset="0.94"
         stop-color="#fff"
         stop-opacity="0"
         id="stop5639" />
    </linearGradient>
    <linearGradient
       id="linear-gradient-7"
       x1="427.29999"
       y1="457.81"
       x2="604.12"
       y2="457.81"
       gradientUnits="userSpaceOnUse">
      <stop
         offset="0.54"
         stop-color="#9a26f7"
         id="stop5642" />
      <stop
         offset="0.67"
         stop-color="#9b28f7"
         stop-opacity="0.99"
         id="stop5644" />
      <stop
         offset="0.72"
         stop-color="#9e2ef7"
         stop-opacity="0.96"
         id="stop5646" />
      <stop
         offset="0.77"
         stop-color="#a339f8"
         stop-opacity="0.91"
         id="stop5648" />
      <stop
         offset="0.8"
         stop-color="#aa49f8"
         stop-opacity="0.84"
         id="stop5650" />
      <stop
         offset="0.83"
         stop-color="#b45ef9"
         stop-opacity="0.74"
         id="stop5652" />
      <stop
         offset="0.86"
         stop-color="#c077fa"
         stop-opacity="0.63"
         id="stop5654" />
      <stop
         offset="0.88"
         stop-color="#ce95fb"
         stop-opacity="0.49"
         id="stop5656" />
      <stop
         offset="0.91"
         stop-color="#deb8fc"
         stop-opacity="0.33"
         id="stop5658" />
      <stop
         offset="0.93"
         stop-color="#f0dffe"
         stop-opacity="0.15"
         id="stop5660" />
      <stop
         offset="0.94"
         stop-color="#fff"
         stop-opacity="0"
         id="stop5662" />
    </linearGradient>
    <linearGradient
       id="linear-gradient-8"
       x1="429.29001"
       y1="469.31"
       x2="604.12"
       y2="469.31"
       gradientUnits="userSpaceOnUse">
      <stop
         offset="0.54"
         stop-color="#ff76fe"
         id="stop5665" />
      <stop
         offset="0.69"
         stop-color="#ff77fe"
         stop-opacity="0.99"
         id="stop5667" />
      <stop
         offset="0.75"
         stop-color="#ff7bfe"
         stop-opacity="0.97"
         id="stop5669" />
      <stop
         offset="0.78"
         stop-color="#ff81fe"
         stop-opacity="0.92"
         id="stop5671" />
      <stop
         offset="0.82"
         stop-color="#ff8afe"
         stop-opacity="0.85"
         id="stop5673" />
      <stop
         offset="0.84"
         stop-color="#ff96fe"
         stop-opacity="0.77"
         id="stop5675" />
      <stop
         offset="0.87"
         stop-color="#ffa5fe"
         stop-opacity="0.66"
         id="stop5677" />
      <stop
         offset="0.89"
         stop-color="#ffb6fe"
         stop-opacity="0.53"
         id="stop5679" />
      <stop
         offset="0.91"
         stop-color="#ffcaff"
         stop-opacity="0.38"
         id="stop5681" />
      <stop
         offset="0.92"
         stop-color="#ffe2ff"
         stop-opacity="0.21"
         id="stop5683" />
      <stop
         offset="0.94"
         stop-color="#fffaff"
         stop-opacity="0.03"
         id="stop5685" />
      <stop
         offset="0.94"
         stop-color="#fff"
         stop-opacity="0"
         id="stop5687" />
    </linearGradient>
  </defs>
  <title
     id="title5692">Multi-Modality  FLAT</title>
  <polygon
     class="cls-1"
     points="372.25,311.08 257.83,527.5 496.36,527.5 "
     id="polygon5694"
     transform="translate(-37.063921,-311.06293)" />
  <polygon
     class="cls-2"
     points="431.13,413.99 331.53,388.11 332.74,384.77 414.51,385.27 "
     id="polygon5696"
     transform="translate(-37.063921,-311.06293)" />
  <polygon
     class="cls-3"
     points="331.53,388.11 202.45,445.96 196.57,400.39 332.74,384.77 "
     id="polygon5698"
     style="fill:url(#linear-gradient)"
     transform="translate(-37.063921,-311.06293)" />
  <polygon
     class="cls-4"
     points="604.12,408.98 416.97,389.06 414.51,384.77 604.12,385.27 "
     id="polygon5700"
     style="fill:url(#linear-gradient-2)"
     transform="translate(-37.063921,-311.06293)" />
  <polygon
     class="cls-5"
     points="604.12,428.75 419.53,393.53 416.97,389.06 604.12,408.98 "
     id="polygon5702"
     style="fill:url(#linear-gradient-3)"
     transform="translate(-37.063921,-311.06293)" />
  <polygon
     class="cls-6"
     points="604.12,448.52 422.46,398.57 419.53,393.53 604.12,428.75 "
     id="polygon5704"
     style="fill:url(#linear-gradient-4)"
     transform="translate(-37.063921,-311.06293)" />
  <polygon
     class="cls-7"
     points="604.12,468.84 424.98,403 422.46,398.57 604.12,448.52 "
     id="polygon5706"
     style="fill:url(#linear-gradient-5)"
     transform="translate(-37.063921,-311.06293)" />
  <polygon
     class="cls-8"
     points="604.12,488.92 427.3,407.08 424.98,403 604.12,468.84 "
     id="polygon5708"
     style="fill:url(#linear-gradient-6)"
     transform="translate(-37.063921,-311.06293)" />
  <polygon
     class="cls-9"
     points="604.12,508.55 429.29,410.55 427.3,407.08 604.12,488.92 "
     id="polygon5710"
     style="fill:url(#linear-gradient-7)"
     transform="translate(-37.063921,-311.06293)" />
  <polygon
     class="cls-10"
     points="604.12,528.08 431.13,413.99 429.29,410.55 604.12,508.32 "
     id="polygon5712"
     style="fill:url(#linear-gradient-8)"
     transform="translate(-37.063921,-311.06293)" />
  <path
     class="cls-11"
     d="m 613.72608,230.47707 -4.31,-15.22 c 0,0 0,-2.83 3,-1.86 3,0.97 5.26,9.79 5.26,9.79 0,0 2.34,5.34 -1.3,7.37 -0.88,0.47 -2.65,-0.08 -2.65,-0.08 z"
     id="path5714" />
  <path
     class="cls-11"
     d="m 627.46608,233.79707 -4.31,-15.21 c 0,0 0,-2.84 3,-1.86 3,0.98 5.26,9.79 5.26,9.79 0,0 2.34,5.34 -1.3,7.37 -0.88,0.47 -2.65,-0.09 -2.65,-0.09 z"
     id="path5716" />
  <polygon
     class="cls-12"
     points="649.21,491.66 656.18,487.4 674.98,497.9 675.71,519.4 668.74,523.66 642.97,517.42 "
     id="polygon5718"
     transform="translate(-37.063921,-311.06293)" />
  <rect
     class="cls-13"
     x="643.26202"
     y="25.662745"
     width="26.51"
     height="26.51"
     transform="rotate(13.61)"
     id="rect5720" />
  <ellipse
     class="cls-14"
     cx="589.66858"
     cy="304.35071"
     rx="5.7800002"
     ry="10.21"
     transform="rotate(-11.18)"
     id="ellipse5722" />
  <ellipse
     class="cls-11"
     cx="-108.33173"
     cy="651.41602"
     rx="5.8899999"
     ry="3.3599999"
     transform="rotate(-83.72)"
     id="ellipse5724" />
  <path
     class="cls-15"
     d="m 633.34608,196.93707 c -0.11,0.06 -0.24,0.15 -0.36,0.23 l -0.38,0.22 c -0.25,0.14 -0.51,0.28 -0.76,0.39 a 6.38,6.38 0 0 1 -1.54,0.49 4,4 0 0 1 -2.83,-0.57 8.07,8.07 0 0 1 -1.28,-1 14.76,14.76 0 0 1 -1.17,-1.3 c -0.75,-0.94 -1.44,-2 -2.17,-3 v 0 a 0.32,0.32 0 0 0 -0.57,0.25 13.26,13.26 0 0 0 1.34,3.7 10.31,10.31 0 0 0 1.14,1.7 7.92,7.92 0 0 0 1.59,1.45 5.12,5.12 0 0 0 2.7,0.92 h 0.59 l 0.58,-0.07 c 0.18,0 0.37,-0.08 0.55,-0.14 a 5.86,5.86 0 0 0 1.94,-1 6.55,6.55 0 0 0 0.77,-0.71 5.06,5.06 0 0 0 0.65,-0.84 0.52,0.52 0 0 0 -0.71,-0.72 z"
     id="path5726" />
  <path
     class="cls-11"
     d="m 617.80608,205.99707 a 10.7,10.7 0 0 1 1.56,3.55 10.47,10.47 0 0 1 0.24,4 6.52,6.52 0 0 1 -0.72,2.14 4.16,4.16 0 0 1 -0.75,1 l -0.47,0.45 a 4.35,4.35 0 0 1 -0.55,0.36 c -0.19,0.11 -0.38,0.22 -0.58,0.32 l -0.6,0.19 -0.61,0.17 -0.59,0.06 a 10,10 0 0 1 -2.27,-0.09 1.9329382,1.9329382 0 0 1 0.35,-3.85 1.77,1.77 0 0 1 0.4,0.08 l 0.15,0.05 a 3.9,3.9 0 0 0 2.25,0.2 2.39,2.39 0 0 0 1.4,-1.66 8.22,8.22 0 0 0 0.31,-3 8.9,8.9 0 0 0 -0.78,-3.09 v 0 a 0.75,0.75 0 0 1 1.28,-0.76 z"
     id="path5728" />
  <path
     class="cls-11"
     d="m 625.80608,208.08707 a 10.31,10.31 0 0 1 3.21,2.16 10.15,10.15 0 0 1 2.33,3.23 6.24,6.24 0 0 1 0.54,2.18 4.4,4.4 0 0 1 -0.09,1.25 l -0.16,0.64 c -0.07,0.2 -0.18,0.39 -0.27,0.59 -0.09,0.2 -0.21,0.4 -0.32,0.58 l -0.41,0.49 c -0.14,0.16 -0.28,0.32 -0.43,0.47 l -0.46,0.36 a 10.07,10.07 0 0 1 -2,1.14 1.934328,1.934328 0 0 1 -1.77,-3.44 2.62,2.62 0 0 1 0.39,-0.15 h 0.15 a 3.84,3.84 0 0 0 2,-1 2.39,2.39 0 0 0 0.3,-2.15 7.87,7.87 0 0 0 -1.38,-2.74 8.58,8.58 0 0 0 -2.3,-2.2 v 0 a 0.75,0.75 0 0 1 -0.24,-1 0.73,0.73 0 0 1 0.91,-0.41 z"
     id="path5730" />
  <path
     class="cls-11"
     d="m 612.41608,189.24707 a 9.11,9.11 0 0 0 -3.28,-0.63 7.19,7.19 0 0 0 -3.14,0.66 7.89,7.89 0 0 0 -2.5,1.87 13.83,13.83 0 0 0 -1,1.26 c -0.29,0.46 -0.55,0.95 -0.83,1.41 l -0.11,0.18 a 1.9251039,1.9251039 0 1 1 -3.29,-2 c 0,-0.07 0.1,-0.15 0.16,-0.22 0.44,-0.55 0.87,-1.09 1.33,-1.61 a 15.31,15.31 0 0 1 1.57,-1.44 10.79,10.79 0 0 1 3.8,-2 9.66,9.66 0 0 1 4.2,-0.21 10.93,10.93 0 0 1 3.83,1.4 0.75,0.75 0 0 1 -0.66,1.33 z"
     id="path5732" />
  <path
     class="cls-11"
     d="m 599.28608,193.64707 a 4.87,4.87 0 0 0 -1,-1.29 5.31,5.31 0 0 0 -1.36,-0.91 6.48,6.48 0 0 0 -1.55,-0.48 8.82,8.82 0 0 0 -1.63,-0.12 v 0 a 1.61,1.61 0 0 1 0,-3.21 1.68,1.68 0 0 1 0.4,0.05 11.52,11.52 0 0 1 2.12,0.72 9,9 0 0 1 1.91,1.2 7.34,7.34 0 0 1 1.48,1.67 6.1,6.1 0 0 1 0.85,2.06 0.61,0.61 0 0 1 -0.47,0.72 0.6,0.6 0 0 1 -0.67,-0.31 z"
     id="path5734" />
  <path
     class="cls-11"
     d="m 599.93608,193.53707 a 17.63,17.63 0 0 0 -2.05,0.07 16.21,16.21 0 0 0 -2,0.29 8.43,8.43 0 0 0 -3.34,1.4 1.9405218,1.9405218 0 0 1 -2.4,-3.05 2,2 0 0 1 0.49,-0.28 h 0.12 a 11.7,11.7 0 0 1 5,-0.68 19.1,19.1 0 0 1 2.29,0.29 19.91,19.91 0 0 1 2.22,0.54 0.75,0.75 0 0 1 -0.24,1.46 z"
     id="path5736" />
  <path
     class="cls-11"
     d="m 600.32608,194.35707 c 0,0 -0.2,0.07 -0.31,0.14 a 4.4,4.4 0 0 0 -0.39,0.26 3.91,3.91 0 0 0 -0.69,0.76 8.2,8.2 0 0 0 -1,2 16.91,16.91 0 0 0 -0.58,2.28 c -0.15,0.78 -0.23,1.59 -0.32,2.39 v 0 a 1.93,1.93 0 1 1 -3.73,-0.85 c 0.3,-0.86 0.6,-1.72 1,-2.57 a 21.67,21.67 0 0 1 1.29,-2.48 10.13,10.13 0 0 1 1.87,-2.24 5.28,5.28 0 0 1 1.29,-0.86 4.37,4.37 0 0 1 0.77,-0.28 2.68,2.68 0 0 1 0.94,-0.07 0.74242845,0.74242845 0 0 1 -0.12,1.48 z"
     id="path5738" />
  <path
     class="cls-11"
     d="m 600.44608,192.93707 a 19,19 0 0 1 3.94,2.82 8.46,8.46 0 0 1 1.68,2.12 4.87,4.87 0 0 1 0.58,3.4 l -0.23,1 a 2.14,2.14 0 1 1 -4.17,-0.92 2.18,2.18 0 0 1 0.74,-1.2 c 0.14,-0.11 0.23,-0.49 0.1,-1 a 5.86,5.86 0 0 0 -0.74,-1.7 17.67,17.67 0 0 0 -2.74,-3.29 v 0 a 0.74,0.74 0 0 1 0.87,-1.19 z"
     id="path5740" />
  <ellipse
     class="cls-14"
     cx="580.57428"
     cy="299.30164"
     rx="6.3400002"
     ry="10.21"
     transform="rotate(-11.18)"
     id="ellipse5742" />
  <ellipse
     class="cls-11"
     cx="-107.21904"
     cy="640.44415"
     rx="5.8899999"
     ry="3.3599999"
     transform="rotate(-83.72)"
     id="ellipse5744" />
  <path
     class="cls-16"
     d="m 618.01608,171.56707 a 11.75,11.75 0 0 1 1.75,-2.36 10.73,10.73 0 0 1 2.33,-1.88 9.07,9.07 0 0 1 2.9,-1.15 10.33,10.33 0 0 1 3.19,-0.17 1.6037768,1.6037768 0 0 1 -0.22,3.2 h -0.25 -0.11 a 7.37,7.37 0 0 0 -2.24,-0.28 6.63,6.63 0 0 0 -2.29,0.46 9,9 0 0 0 -2.16,1.18 10.44,10.44 0 0 0 -1.84,1.73 v 0 a 0.62,0.62 0 0 1 -1,-0.7 z"
     id="path5746" />
  <path
     class="cls-16"
     d="m 632.40608,171.51707 a 7.1,7.1 0 0 1 1.43,-2 6.67,6.67 0 0 1 2.1,-1.45 7.19,7.19 0 0 1 2.55,-0.63 10.23,10.23 0 0 1 2.6,0.18 1.61,1.61 0 0 1 1.3,1.86 1.58,1.58 0 0 1 -1.85,1.3 1.78,1.78 0 0 1 -0.33,-0.09 v 0 a 7.2,7.2 0 0 0 -1.73,-0.53 5,5 0 0 0 -3.49,0.72 6.07,6.07 0 0 0 -1.43,1.28 l -0.06,0.07 a 0.62,0.62 0 0 1 -1,-0.66 z"
     id="path5748" />
  <path
     class="cls-16"
     d="m 92.086079,196.44707 -4.83,0.2 c 4,3.21 4.94,7.48 4.12,12.28 -1,6.09 -4.06,11.2 -8.07,15.82 a 8.25,8.25 0 0 0 -1.76,2.77 c -0.44,1.48 0.4,2.65 1.68,3.4 2.55,1.5 5.08,3 7.72,4.38 6.34,3.22 12.720001,6.4 19.130001,9.48 4.76,2.28 9.6,4.39 14.4,6.56 1.68,0.76 2.19,0.34 2.39,-1.57 0.43,-4.13 -1.05,-7.73 -3.05,-11.15 -2.66,-4.55 -6,-8.47 -10.79,-11 a 28.73,28.73 0 0 0 -9.76,-3 c -3.15,-0.43 -6.200001,0.26 -9.600001,0 0.42,-0.87 0.73,-1.64 1.15,-2.34 a 27.06,27.06 0 0 0 3.46,-9.38 14,14 0 0 0 -1.11,-8.44 33.81,33.81 0 0 0 -5.08,-8.01 z"
     id="path5750" />
  <path
     class="cls-16"
     d="m 127.85608,195.24707 c -2.06,-0.45 -4.12,-0.8 -6.18,0 1.34,1.68 2.81,3.27 4,5.06 a 10.84,10.84 0 0 1 0.79,11 c -1.85,4.17 -3.92,8.24 -5.93,12.34 -1.16,2.38 -1,2.45 0.94,4.14 a 12.84,12.84 0 0 0 4.43,2.26 q 19.82,6.75 39.63,13.53 c 0.82,0.29 1.63,0.62 2.44,1 a 2.06,2.06 0 0 0 2.8,-2.39 v 0 a 56,56 0 0 0 -2.28,-7.29 c -3.58,-8.82 -10,-14.18 -19.46,-16 a 31.2,31.2 0 0 0 -16.7,1.7 c -0.35,0.13 -0.72,0.19 -1.46,0.38 0.83,-2.05 1.51,-3.8 2.25,-5.52 2.7,-6.33 1.46,-12 -2.85,-17.15 -0.83,-1.06 -1.61,-2.07 -2.42,-3.06 z"
     id="path5752" />
  <path
     class="cls-17"
     d="m 68.466079,143.87707 c 0,-2.78 -0.3,-5.55 -0.48,-8.33 a 2.85,2.85 0 0 1 0.36,-1.42 c 1.66,1.1 4,2.51 5.59,3.72 4.51,3.43 9,6.93 13.45,10.41 1.51,1.18 3,2.36 4.47,3.61 0.79,0.67 1.24,0.51 1.87,-0.21 0.84,-1 1.76,-1.94 2.67,-2.82 a 124.28,124.28 0 0 1 13.690001,-11.28 54.13,54.13 0 0 1 11.15,-6 3.35,3.35 0 0 1 2.51,-0.05 c 7.93,2.39 15.84,4.85 23.55,7.89 4.08,1.6 8.19,3.18 11.81,5.74 0.17,0.17 0.33,0.35 0.5,0.53 v 0 c 0.18,4.4 1.22,40.56 1.23,41.12 0,2.46 0,4.92 0,7.54 -0.85,0.13 -91.160001,3.09 -92.320001,3 q -0.02,-26.78 -0.05,-53.45 z m 36.740001,6.83 a 7.18,7.18 0 0 0 2,1.63 c 1.42,0.53 1.82,1.67 2.18,2.89 0.36,1.22 0.76,2.74 1.13,4.11 a 18.53,18.53 0 0 0 4.07,7 10.19,10.19 0 0 0 9.28,3.87 3.19,3.19 0 0 0 1.57,-0.52 c 2.68,-2.2 5.17,-4.53 5.25,-8.41 0,-2.06 0.34,-4.11 0.42,-6.17 a 1.78,1.78 0 0 1 1.46,-1.84 10.12,10.12 0 0 0 6,-5.54 4.28,4.28 0 0 0 0.14,-2.72 30.62,30.62 0 0 1 -16.55,7.14 c -6.17,0.65 -11.59,0 -16.81,-3.08 -0.75,1.07 -0.81,1.02 -0.14,1.64 z"
     id="path5754" />
  <path
     class="cls-18"
     d="m 49.656079,100.76707 c 0.19,5.64 0.35,11.28 0.58,16.91 0.08,2.14 0.3,4.27 0.46,6.4 4.7,1.31 15.58,4.87 18.75,6.06 0,-1.75 0,-3.5 0,-5.25 0.14,-5.06 0.32,-10.12 0.46,-15.18 0,-0.78 -0.77,-1.58 0,-1.89 -1,-0.9 -1,-0.07 -1.94,-1 -1.19,-1.12 -2.19,-2.4 -2,-3.92 a 2.73,2.73 0 0 1 2.67,-2.46 32.59,32.59 0 0 1 -0.2,-3.690003 c -0.19,-4.12 0.25,-6.81 0.1,-10.94 0,-0.39 1,-2.55 0.79,-2.86 -1.13,-2 -0.42,-17.55 -0.42,-17.55 -0.17,-0.51 2.46,-5.27 2.46,-5.27 a 14.21,14.21 0 0 1 -4.72,0.4 c -1.31,-0.76 -2.68,-3.08 -3.23,-4.43 a 2.22,2.22 0 0 1 0.75,-2.92 c 0.49,-0.39 1.1,-0.64 1.58,-1.05 a 5.58,5.58 0 0 0 0.77,-1 c -0.32,-2.75 -0.65,-5.5 -0.94,-8.26 a 19.19,19.19 0 0 1 0,-2.4 c 0.07,-1.71 0.37,-1.94 2,-1.41 1.89,0.62 3.77,1.13 5.76,0.49 3.27,-1 5.71,-2.85 6.76,-6.38 0.73,-2.46 0.2,-4.71 -0.3,-7 a 2.83,2.83 0 0 1 0.11,-2.43 c 3.41,0.71 4.34,0.31 6.24,-2.54 1.8,-2.68 1.49,-5.39 0.15,-8.12 -0.2,-0.13 -8.92,-8.43 -9.16,-10.18 0,18.95 -12.69,15 -12.69,15 a 25.07,25.07 0 0 1 0.83,3.23 c 0.35,2.94 -2.53,8.69 -6.29,10.25 -2.71,1.12 -11,0.4 -11,0.4 0,0 0.92,59.93 1,61.19 a 4.38,4.38 0 0 0 1.08,0.5 27.26,27.26 0 0 1 8.41,3.08 12.13,12.13 0 0 1 3.13,2.54 c 1.41,1.570003 1,4.110003 -0.69,4.870003 a 4.59,4.59 0 0 1 -3.9,0.32 32.09,32.09 0 0 1 -5.13,-2.43 17,17 0 0 0 -2.23,-1.08 z"
     id="path5756" />
  <path
     class="cls-1"
     d="m 69.446079,130.13707 c -3.17,-1.19 -13.19,-4.89 -18.75,-6.06 -2.07,2.23 -2.59,3.45 -7.92,10.25 1.44,0.87 5.41,2.49 6.91,3.26 0.35,0.18 0.67,0.41 1,0.63 l 11.67,4.63 c 1.79,-2.7 5.62,-8.4 6,-8.72 1.66,1.1 4,2.51 5.59,3.72 4.51,3.43 9,6.93 13.45,10.41 1.51,1.18 4,3.23 5.47,4.48 0.71,-0.67 2.63,-3 3.54,-3.9 a 124.28,124.28 0 0 1 13.690001,-11.28 54.13,54.13 0 0 1 11.15,-6 3.35,3.35 0 0 1 2.51,-0.05 c 7.93,2.39 37.32,15.17 37.32,15.17 0,0 0.49,-0.54 1.38,-1.66 2.4,-3 7,-8.65 9.39,-11.63 a 63,63 0 0 0 -8.36,-3.13 c -0.37,-0.11 -43.6,-10.55 -44.41,-10.82 l -8.14,1.13 a 1.74,1.74 0 0 1 -0.59,0.36 c -5.77,1.1 -11.590001,2 -17.310001,3.31 -7.91,1.8 -15.73,3.92 -23.59,5.9 z"
     id="path5758" />
  <path
     class="cls-19"
     d="m 117.17608,51.757067 a 7.61,7.61 0 0 1 -0.38,-1.53 c -0.21,-3.18 -1.35,-34 -1.54,-35.68 a 2.29,2.29 0 0 1 1.43,-2.51 l 4.73,-0.5 c 1.42,-0.15 2.83,-0.32 4.25,-0.45 l 10.44,-0.93 h 0.48 c 3.66,-0.16 7.33,-0.3 11,-0.49 2.54,-0.13 5.08,-0.32 7.62,-0.51 0.19,0 0.36,-0.27 0.55,-0.42 l 1,0.12 0.47,0.33 c 1.93,0.82 2,1 1.77,2.73 a 4.83,4.83 0 0 0 -0.16,0.91 q 0.39,6.69 0.82,13.37 c 0,0.32 0,0.65 0,1 0.3,4.05 0.64,8.1 0.9,12.16 0.23,3.59 0.33,8.12 0.51,11.72 0.03,0.25 -42.79,1.7 -43.89,0.68 z m 20.27,-12.82 a 15.8,15.8 0 0 0 -9.75,-6.43 c -1.24,-0.24 -2.49,-0.59 -3.63,0.37 -1.89,1.59 -2,3.68 -0.39,5.66 a 11.25,11.25 0 0 0 5.65,3.36 44.74,44.74 0 0 1 4.66,1.71 6.21,6.21 0 0 1 2,1.66 c 1,1.11 2,2 3.64,1.93 0.92,-3.39 -0.46,-5.99 -2.18,-8.26 z"
     id="path5760" />
  <path
     class="cls-16"
     d="m 49.656079,100.76707 a 17,17 0 0 1 2.33,1.08 32.09,32.09 0 0 0 5.13,2.43 4.59,4.59 0 0 0 3.9,-0.32 c 1.73,-0.76 2.1,-3.3 0.69,-4.870003 a 12.13,12.13 0 0 0 -3.13,-2.54 27.26,27.26 0 0 0 -8.41,-3.08 4.38,4.38 0 0 1 -1.08,-0.5 34.87,34.87 0 0 0 -11.68,-0.83 c -5.38,0.5 -10.32,2.24 -14.08,6.37 a 13.38,13.38 0 0 0 -3.53,7.710003 c -0.14,1.32 -0.23,2.63 -0.36,4.14 -0.78,-0.36 -1.6,-0.76 -2.44,-1.14 -2.73,-1.24 -5.52,-2.08 -8.55,-1.23 a 11.59,11.59 0 0 0 -2.44,0.93 c -2.84,1.56 -2.4,4 -0.18,5.74 a 11,11 0 0 0 2.86,1.21 63.32,63.32 0 0 0 -5.22,4.45 12.12,12.12 0 0 0 -3.43000002,9.42 6.46,6.46 0 0 0 3.90000002,5.33 3.36,3.36 0 0 0 3.75,-0.73 c 1.53,-1.3 2.18,-3.13 3,-4.89 a 22.94,22.94 0 0 1 2.75,-4.88 3.08,3.08 0 0 1 0.14,0.71 3.92,3.92 0 0 1 -0.19,0.94 29.85,29.85 0 0 0 -1.24,10.42 15.17,15.17 0 0 0 3.05,8.68 4.83,4.83 0 0 0 4.51,2.23 c 0.81,-0.1 1.42,-0.41 1.56,-1.23 a 10.86,10.86 0 0 0 0.35,-3.28 c -0.45,-3 -1.26,-5.92 -1.64,-8.91 -0.53,-4.21 0.17,-11.23 3,-14.32 1.41,3 2.67,6.08 4.24,9 a 38.93,38.93 0 0 0 4,5.66 6.64,6.64 0 0 0 2.37,1.57 c 1.44,0.67 2.6,0 2.6,-1.6 a 9,9 0 0 0 -0.73,-3.71 c -2.4,-5.15 -4.89,-10.29 -9.22,-14.19 a 3.72,3.72 0 0 1 -1.16,-2.75 14.16,14.16 0 0 1 11.7,-14.520003 c 3.36,-0.48 6.67,-0.8 10,0.09 a 17.18,17.18 0 0 1 2.88,1.410003 z"
     id="path5762" />
  <path
     class="cls-20"
     d="m 62.366079,142.84707 -11.67,-4.63 c -0.07,4.53 -1.28,40.82 -1.08,46.6 1.44,1.22 12.95,8.22 18.86,12.4 q 0,-26.67 0,-53.34 c 0,-2.78 0.07,-7 -0.12,-9.75 -0.42,0.33 -4.2,6.02 -5.99,8.72 z"
     id="path5764" />
  <path
     class="cls-21"
     d="m 129.93608,57.557067 c 2.87,-0.07 25.55,-0.45 32.08,-0.65 -6,-1.09 -4.17,-3.87 -1.47,-5.81 -0.75,-0.36 -12.34,0.56 -17,0.5 -6.18,-0.08 -12.37,0 -18.55,0 -1.34,0 -6.72,0.52 -7.82,-0.5 -2.9,0.49 -4.2,2.83 -3,5.54 0.64,1.38 2.51,1.41 5.57,1.92 3.62,-0.95 4.88,-1.7 10.19,-1 z"
     id="path5766" />
  <path
     class="cls-16"
     d="m 161.54608,110.31707 c 0,1.82 -0.05,3.65 0,5.47 a 15.19,15.19 0 0 0 0.45,2.27 c 1.76,1.86 3.47,3.75 5.28,5.55 a 28,28 0 0 0 9.53,6.3 c 6.07,2.43 10.24,0.48 13.58,-4.07 a 19.82,19.82 0 0 0 3.47,-8.33 17.85,17.85 0 0 1 0.58,-2.08 26.05,26.05 0 0 0 5.05,1.65 c 3.95,0.44 6.82,-1.69 8.75,-4.84 3.77,-6.15 2.95,-12.870003 -1.39,-18.300003 a 11.2,11.2 0 0 0 -3.23,-2.43 c -1.52,-0.86 -2.52,-0.53 -3.42,0.95 a 16.89,16.89 0 0 0 -1.55,12.670003 c 0.79,1.46 2.19,1.45 3.75,1.52 -2.47,1.92 -3.61,1.68 -4.83,-0.79 a 7.39,7.39 0 0 1 -0.36,-0.88 12.47,12.47 0 0 1 -0.15,-7.080003 c 0.15,-0.64 1.36,-3.73 1.65,-4.54 0.69,-1.92 0.64,-2.88 -0.37,-3.73 -1.01,-0.85 -4,0.41 -5.32,1.65 a 2.08,2.08 0 0 0 -0.64,1.85 c 0.36,2.21 2.4,4.48 0.66,8.570003 -0.69,1.67 -2.6,1.59 -3.67,1.37 a 10.46,10.46 0 0 0 -1.62,-0.36 c -1.16,0 -1.59,0.39 -1.64,1.54 a 6.46,6.46 0 0 0 0.09,1.92 c 0.89,3.29 0.32,6.5 -0.6,9.65 -0.85,2.95 -2.38,5.48 -5.59,6.32 a 9.4,9.4 0 0 1 -9.3,-2.35 c -3.16,-3.04 -6.11,-6.3 -9.16,-9.47 z"
     id="path5768" />
  <path
     class="cls-22"
     d="m 116.68608,12.037067 4.73,-0.5 c 1.42,-0.15 2.83,-0.32 4.25,-0.45 l 10.44,-0.93 h 0.48 c 3.66,-0.16 7.33,-0.3 11,-0.49 2.54,-0.13 5.08,-0.32 7.62,-0.51 0.19,0 0.36,-0.27 0.55,-0.42 -3.07,-1.28 -6.13,-2.55 -9.19,-3.84 -3.06,-1.29 -6,-2.49 -9,-3.85 a 11.41,11.41 0 0 0 -5.81,-0.99999996 c -2.55,0.2 -53.790001,2.49999996 -54.590001,2.78999996 0.24,1.75 9,10 9.16,10.18 7.94,-0.71 18.750001,-1.18 22.330001,-1 -2.08,-1.48 -1.67,-2.54 -0.24,-2.75 2.28,-0.34 4.57,-0.33 6.51,1.26 0.59,0.49 1.17,1.01 1.76,1.51 z"
     id="path5770" />
  <path
     class="cls-21"
     d="m 162.10608,97.937067 c -5.36,0 -43.11,1.57 -44.44,1.41 -2.89,2.410003 -2.45,5.750003 1,7.250003 0,-0.72 40.27,-2.47 42.91,-2.48 -6.09,-3.18 -3.82,-5.610003 0.53,-6.180003 z"
     id="path5772" />
  <path
     class="cls-23"
     d="m 202.74608,77.617067 a 5.65,5.65 0 0 0 0.47,-7.64 5.23,5.23 0 0 0 -7.05,-1.26 c -2.72,1.7 -4.27,4.36 -5.43,7.16 -1.3,3.15 -2.21,6.55 -3.31,9.79 -0.67,2 1.12,4.68 1.52,4.62 0.76,0.67 1.62,1.23 2.54,1.92 0.57,-0.84 0.06,-2.88 11.26,-14.59 z"
     id="path5774" />
  <path
     class="cls-16"
     d="m 178.10608,94.697067 a 16.32,16.32 0 0 0 9,6.720003 7.52,7.52 0 0 0 2.83,0.25 2.58,2.58 0 0 0 2.25,-3.480003 8.76,8.76 0 0 0 -1.33,-2.81 c -2.58,-3.19 -5.4,-6.1 -9.58,-7.2 -2.34,-0.62 -6.9,-0.71 -3.17,6.52 z"
     id="path5776" />
  <path
     class="cls-22"
     d="m 156.73608,8.827067 0.47,0.33 z"
     id="path5778" />
  <path
     class="cls-16"
     d="m 122.15608,152.09707 a 30.62,30.62 0 0 0 16.55,-7.16 4.28,4.28 0 0 1 -0.14,2.72 10.12,10.12 0 0 1 -6,5.54 1.78,1.78 0 0 0 -1.46,1.84 c -0.08,2.06 -0.38,4.11 -0.42,6.17 -0.08,3.88 -1.09,5.36 -3.78,7.56 a 12.26,12.26 0 0 1 -3,1.37 10.19,10.19 0 0 1 -9.28,-3.87 18.14,18.14 0 0 1 -4.14,-7.23 c -0.25,-1 -0.51,-2 -0.82,-3 -0.48,-1.51 -0.69,-3 -2.42,-3.69 a 10,10 0 0 1 -2.57,-1.79 0.81,0.81 0 0 1 -0.28,-1 1.37,1.37 0 0 1 1.94,-0.71 26.82,26.82 0 0 0 15.82,3.25 z m -6.89,4.37 c -2.1,0.79 -2.4,1.9 -1.75,3.8 a 11.9,11.9 0 0 0 7.86,7.81 5.85,5.85 0 0 0 7.34,-5.19 c 0.1,-1.14 0.16,-2.68 -0.47,-3.41 a 13.63,13.63 0 0 0 -4.37,-3.17 c -1.23,-0.58 -2.77,-0.52 -4.5,-0.8 a 30.43,30.43 0 0 0 -4.11,0.96 z"
     id="path5780" />
  <path
     class="cls-19"
     d="m 109.45608,11.757067 0.3,41.28 c 0,0 -7.51,0 -10.160001,0 -9.86,-0.14 -19.71,-0.34 -29.56,-0.44 a 6.11,6.11 0 0 1 -3.44,-1.48 c -0.32,-2.75 -0.65,-5.5 -0.94,-8.26 a 34.4,34.4 0 0 1 0,-4.43 c 2.54,0.77 5,2 7.67,1.11 3.27,-1 5.71,-2.85 6.76,-6.38 0.73,-2.46 0.2,-4.71 -0.3,-7 a 7,7 0 0 0 -1,-2.61 c 3.42,0.71 5.44,0.49 7.34,-2.36 1.8,-2.68 1.49,-5.39 0.15,-8.12 4.01,-0.76 23.180001,-1.31 23.180001,-1.31 z m -11.270001,27.72 c 0.48,-1.85 -0.44,-3.11 -1.29,-4.32 -1.75,-2.49 -4.07,-4.08 -7.26,-3.79 a 5,5 0 0 0 -2.59,1 9.49,9.49 0 0 0 -3.19,5.45 15.3,15.3 0 0 0 0.06,6.6 c 0.37,1.88 1.11,2.57 3.2,2.74 0.95,-6.58 5.55,-7.86 11.07,-7.68 z"
     id="path5782" />
  <path
     class="cls-24"
     d="m 69.446079,130.13707 c 7.86,-2 41.290001,-9.44 41.480001,-9.57 0,-1.66 0.45,-13.11 0.45,-13.11 h -3.33 c -12.380001,0.26 -27.760001,0.11 -38.600001,0.67 -0.14,5.07 0.17,11.67 0,16.73 -0.02,1.78 0.01,3.53 0,5.28 z"
     id="path5784" />
  <path
     class="cls-21"
     d="m 110.93608,100.46707 c -7.55,0 -18.940001,0.82 -26.490001,0.75 -3.82,0 -7.65,-0.25 -11.46,-0.51 -0.81,0 -3.72,0.21 -4.26,-0.25 a 2.73,2.73 0 0 0 -2.67,2.46 c -0.21,1.52 0.49,4 3.73,5.39 13.1,-0.39 29.22,-0.59 41.600001,-0.85 -3.24,-2.27 -0.71,-6.52 -0.45,-6.99 z"
     id="path5786" />
  <path
     class="cls-25"
     d="m 93.866079,59.867067 16.750001,-0.1 c 0,-0.31 -4,-2 -0.86,-6.73 -2.65,0 -7.51,0 -10.160001,0 -9.86,-0.14 -19.71,-0.34 -29.56,-0.44 a 6.11,6.11 0 0 1 -3.44,-1.48 5.58,5.58 0 0 1 -0.77,1 c -0.48,0.41 -1.09,0.66 -1.58,1.05 -1,0.77 -4.2,4.36 1.68,7.17 2.54,0.73 25.08,-2.05 27.94,-0.47 z"
     id="path5788" />
  <path
     class="cls-18"
     d="m 110.18608,100.68707 c -0.24,0.49 -2.79,3.36 1.19,6.77 v 0 c 0,0 -0.3,6.57 -0.37,8.13 -0.07,1.56 -0.06,3.32 -0.08,5 l 8.14,-1.17 c 0,-3.43 0.06,-6.86 0,-10.29 a 31.76,31.76 0 0 0 -0.47,-3.86 c -3.4,-1.5 -3.84,-3.53 -1,-5.940003 a 22.69,22.69 0 0 0 -0.39,-6.09 73,73 0 0 1 -0.55,-7.85 c -1.12,-1.21 -2.28,-2.38 -3.35,-3.62 -0.87,-1 -1.64,-2.11 -2.45,-3.17 v 21.890003 c -1.34,0.26 0.56,-0.04 -0.67,0.2 z"
     id="path5790" />
  <path
     class="cls-18"
     d="m 108.14608,53.637067 c -3.91,4.3 2.14,5.87 2.16,6.18 2.62,0.17 0.31,-0.05 0.31,-0.05 0,0 -0.14,6.15 -0.13,7.25 0.37,-0.32 -0.14,31.06 0.13,30.88 0,0 5.57,-9.61 5.84,-10 0.83,-1.13 -0.76,-28.59 3.65,-29.36 -7.69,0 -5.69,-5.84 -2.93,-7.46 a 2.88,2.88 0 0 1 -0.38,-0.87 c -0.21,-3.18 -1.35,-34 -1.54,-35.68 a 2.29,2.29 0 0 1 1.43,-2.51 c -0.59,-0.5 -1.17,-1 -1.76,-1.51 -1.94,-1.59 -11.74,-3.19 -6.77,1.23 1.67,0.06 1.3,0 1.3,0 l 0.3,41.28 c 0,0 -0.55,-0.16 -1.61,0.62 z"
     id="path5792" />
  <path
     class="cls-15"
     d="m 139.58608,47.207067 c 1,-3.4 -0.42,-6 -2.14,-8.26 a 15.8,15.8 0 0 0 -9.75,-6.43 c -1.24,-0.24 -2.49,-0.59 -3.63,0.37 -1.89,1.59 -2,3.68 -0.39,5.66 a 11.25,11.25 0 0 0 5.65,3.36 44.74,44.74 0 0 1 4.66,1.71 6.21,6.21 0 0 1 2,1.66 c 0.95,1.11 1.95,2.03 3.6,1.93 z"
     id="path5794" />
  <path
     class="cls-17"
     d="m 115.26608,156.46707 c -2.1,0.79 -2.4,1.9 -1.75,3.8 a 11.9,11.9 0 0 0 7.86,7.81 5.85,5.85 0 0 0 7.34,-5.19 c 0.1,-1.14 0.16,-2.68 -0.47,-3.41 a 13.63,13.63 0 0 0 -4.37,-3.17 10.11,10.11 0 0 0 -8.61,0.16 z"
     id="path5796" />
  <path
     class="cls-15"
     d="m 87.116079,47.167067 c 0.95,-6.59 5.55,-7.87 11.07,-7.69 0.48,-1.85 -0.44,-3.11 -1.29,-4.32 -1.75,-2.49 -4.07,-4.08 -7.26,-3.79 a 5,5 0 0 0 -2.59,1 9.49,9.49 0 0 0 -3.19,5.45 15.3,15.3 0 0 0 0.06,6.6 c 0.37,1.89 1.11,2.58 3.2,2.75 z"
     id="path5798" />
  <path
     class="cls-26"
     d="m 77.276079,91.667067 0.42,0.44 z"
     id="path5800" />
  <path
     class="cls-24"
     d="m 119.06608,119.39707 c 0.81,0.27 42.69,10.33 43.33,10.39 -0.13,-3.91 -0.87,-25.71 -0.87,-25.71 0,0 -34.44,0.62 -42.91,1.17 0.17,0.85 0.47,10.69 0.45,14.15 z"
     id="path5802" />
  <path
     class="cls-27"
     d="m 67.736079,59.767067 c 0.16,4.13 0.59,32.88 0.78,37 a 32.59,32.59 0 0 0 0.2,3.690003 c 0.54,0.46 3.45,0.2 4.26,0.25 3.81,0.26 7.64,0.47 11.46,0.51 7.55,0.07 25.080001,-0.47 26.490001,-0.75 V 78.577067 c -0.22,-0.76 -0.53,-10.94 -0.44,-11.56 0,-1.1 0.13,-7.25 0.13,-7.25 0,0 -42.560001,0.32 -42.880001,0 z"
     id="path5804" />
  <path
     class="cls-27"
     d="m 162.10608,97.937067 c 0.29,-9.65 -0.23,-39.89 -0.13,-41 -7.31,0.09 -41.35,-0.07 -44.29,0 2.88,0.61 -1.32,0.34 -1.93,0 0.16,2.62 0.12,33.76 0.57,36.33 a 22.29,22.29 0 0 1 0.39,6.09 c 1.36,0.11 38.32,-1.42 45.39,-1.42 z"
     id="path5806" />
  <ellipse
     class="cls-26"
     cx="58.954586"
     cy="107.38244"
     rx="16.32"
     ry="23.84"
     transform="rotate(-21.11)"
     id="ellipse5808" />
  <ellipse
     class="cls-15"
     cx="66.658318"
     cy="105.75892"
     rx="9.54"
     ry="15.54"
     transform="rotate(-21.11)"
     id="ellipse5810" />
  <ellipse
     class="cls-26"
     cx="97.611389"
     cy="121.28042"
     rx="16.32"
     ry="23.84"
     transform="rotate(-21.11)"
     id="ellipse5812" />
  <ellipse
     class="cls-15"
     cx="105.30872"
     cy="119.64754"
     rx="9.54"
     ry="15.54"
     transform="rotate(-21.11)"
     id="ellipse5814" />
  <path
     d="m 77.726079,177.38707 a 1.17,1.17 0 0 1 0.23,-0.7 2,2 0 0 1 0.66,-0.58 3.46,3.46 0 0 1 1,-0.39 6.37,6.37 0 0 1 1.41,-0.16 5.25,5.25 0 0 1 1.91,0.38 7,7 0 0 1 1.72,0.94 8.2,8.2 0 0 1 1.39,1.3 6.52,6.52 0 0 1 1,1.42 8.72,8.72 0 0 1 0.71,3.59 5.3,5.3 0 0 1 -1.39,3.46 11.61,11.61 0 0 1 -4.11,3 4.75,4.75 0 0 1 -1.79,0.45 3,3 0 0 1 -1.42,-0.21 2,2 0 0 1 -0.72,-0.79 2.09,2.09 0 0 1 -0.3,-1 1.53,1.53 0 0 1 0.19,-0.65 1.55,1.55 0 0 1 0.41,-0.57 1,1 0 0 0 0.29,-0.36 3.08,3.08 0 0 0 0.05,-0.83 c 0,0.06 0,-0.38 -0.05,-1.32 -0.05,-0.94 0,-1.89 -0.06,-2.87 0,-0.31 0,-0.83 0,-1.54 0,-0.71 0,-1.23 0,-1.53 a 0.93,0.93 0 0 0 -0.05,-0.37 0.26,0.26 0 0 0 -0.22,-0.07 0.73,0.73 0 0 0 -0.23,0.07 1.07,1.07 0 0 1 -0.29,0.07 c -0.22,-0.09 -0.34,-0.31 -0.34,-0.74 z m 2.53,0.83 q -0.12,0 -0.21,0.21 a 1.61,1.61 0 0 0 -0.11,0.5 c 0,0.22 0,0.58 0,1.09 0,0.51 0,1.07 0,1.71 0,1.6 0.06,2.9 0.13,3.89 a 8.47,8.47 0 0 0 0.25,1.8 0.34,0.34 0 0 0 0.32,0.24 2.45,2.45 0 0 0 0.85,-0.15 3.71,3.71 0 0 0 0.72,-0.34 l 0.9,-0.58 c 0.46,-0.31 0.87,-0.61 1.24,-0.91 0.37,-0.3 0.65,-0.54 0.84,-0.73 a 2.12,2.12 0 0 0 0.31,-0.33 3.86,3.86 0 0 0 0.3,-0.84 5,5 0 0 0 0.14,-1.13 2,2 0 0 0 -0.08,-0.62 1.76,1.76 0 0 0 -0.28,-0.46 4.71,4.71 0 0 1 -0.38,-0.68 4.75,4.75 0 0 0 -2.53,-1.89 10.26,10.26 0 0 0 -1.47,-0.55 c -0.45,-0.12 -0.75,-0.2 -0.94,-0.23 z"
     id="path5816" />
  <path
     d="m 88.416079,185.79707 a 9.32,9.32 0 0 1 0.39,-2.77 12.88,12.88 0 0 1 1.22,-2.8 7.73,7.73 0 0 1 1.83,-2.28 3.69,3.69 0 0 1 2.32,-0.78 2,2 0 0 1 0.92,0.21 3,3 0 0 1 0.84,0.76 4.77,4.77 0 0 1 0.65,1 6.57,6.57 0 0 1 0.45,1.18 8.15,8.15 0 0 1 0.25,1.34 13.75,13.75 0 0 1 0.09,1.5 8.48,8.48 0 0 1 -0.13,1.41 8,8 0 0 1 -0.43,1.51 3.25,3.25 0 0 1 -0.69,1.09 l -0.26,0.57 a 5.44,5.44 0 0 1 -0.69,1.13 3.6,3.6 0 0 1 -1.27,1 4.54,4.54 0 0 1 -2.07,0.42 2.56,2.56 0 0 1 -1.19,-0.24 2.81,2.81 0 0 1 -1,-0.77 5.52,5.52 0 0 1 -0.81,-1.31 6.66,6.66 0 0 1 -0.34,-1 6.37,6.37 0 0 1 -0.08,-1.17 z m 4.85,-5.7 a 3,3 0 0 0 -1.43,0.38 3.18,3.18 0 0 0 -1.07,0.95 3.65,3.65 0 0 0 -0.57,1.14 3.34,3.34 0 0 0 -0.12,0.7 1.91,1.91 0 0 0 -0.15,0.43 3.72,3.72 0 0 0 -0.08,1 2.65,2.65 0 0 0 0.4,1.27 4.14,4.14 0 0 0 1.05,1.23 2.12,2.12 0 0 0 1.38,0.5 2.64,2.64 0 0 0 1.25,-0.41 3.75,3.75 0 0 0 1,-0.81 4.57,4.57 0 0 0 0.78,-2.87 5.21,5.21 0 0 0 -0.31,-1.74 3,3 0 0 0 -0.86,-1.28 2,2 0 0 0 -1.27,-0.49 z"
     id="path5818" />
  <path
     d="m 98.076079,185.52707 a 11.91,11.91 0 0 1 0,-1.28 11.19,11.19 0 0 1 0.81,-3.11 15.3,15.3 0 0 1 1.650001,-3 10.52,10.52 0 0 1 2.11,-2.26 3.67,3.67 0 0 1 2.09,-0.86 1.08,1.08 0 0 1 0.93,0.44 2.18,2.18 0 0 1 0.34,1.29 2.71,2.71 0 0 1 -0.25,1.29 c -0.17,0.31 -0.37,0.47 -0.61,0.47 a 2.43,2.43 0 0 1 -0.5,-0.11 3.39,3.39 0 0 0 -0.84,-0.12 3.43,3.43 0 0 0 -1.83,0.53 4.52,4.52 0 0 0 -1.41,1.41 6.79,6.79 0 0 0 -0.900001,2 7.83,7.83 0 0 0 -0.29,2.2 2.44,2.44 0 0 0 0.61,1.7 2.2,2.2 0 0 0 1.690001,0.62 3.72,3.72 0 0 0 1.71,-0.37 4.11,4.11 0 0 0 1.36,-1.25 5.08,5.08 0 0 0 0.85,-1.56 1.21,1.21 0 0 1 0.21,-0.47 c 0.09,-0.12 0.15,-0.17 0.19,-0.17 a 0.52,0.52 0 0 1 0.43,0.23 1.09,1.09 0 0 1 0.2,0.69 4.73,4.73 0 0 1 -0.08,0.57 c -0.06,0.29 -0.12,0.57 -0.2,0.85 a 8,8 0 0 1 -0.73,1.51 6.55,6.55 0 0 1 -1.19,1.49 5,5 0 0 1 -0.92,0.63 6.13,6.13 0 0 1 -1.15,0.46 4.61,4.61 0 0 1 -1.19,0.19 2.68,2.68 0 0 1 -1.940001,-0.58 3.32,3.32 0 0 1 -0.85,-1.38 5.8,5.8 0 0 1 -0.3,-2.05 z"
     id="path5820" />
  <path
     d="m 113.27608,177.30707 a 1.25,1.25 0 0 1 0.13,-0.54 2.33,2.33 0 0 1 0.31,-0.5 2.43,2.43 0 0 1 0.35,-0.36 0.53,0.53 0 0 1 0.21,-0.13 c 0.13,0 0.29,0.13 0.5,0.41 a 3,3 0 0 1 0.42,0.81 5.13,5.13 0 0 1 0.13,0.58 c 0.05,0.31 0.1,0.67 0.14,1.07 0.04,0.4 0.05,0.83 0.06,1.28 0,1.14 0,2.18 0,3.1 0,0.92 -0.07,1.51 -0.1,1.75 a 5.18,5.18 0 0 1 -0.19,1 3,3 0 0 1 -0.23,0.58 5.33,5.33 0 0 1 -0.31,0.48 2.37,2.37 0 0 0 -0.25,0.42 l -0.12,0.38 a 1.88,1.88 0 0 1 -0.37,0.59 3.57,3.57 0 0 1 -0.81,0.64 7.14,7.14 0 0 1 -1.51,0.64 5.36,5.36 0 0 1 -1.36,0.26 2.46,2.46 0 0 1 -1.16,-0.31 2.84,2.84 0 0 1 -0.88,-0.66 2.59,2.59 0 0 1 -0.57,-1.66 18.15,18.15 0 0 1 0.13,-2 24.44,24.44 0 0 1 0.38,-2.48 c 0.13,-0.63 0.26,-1.14 0.37,-1.56 0.11,-0.42 0.22,-0.75 0.31,-1 a 3.7,3.7 0 0 1 0.18,-0.48 c 0.19,-0.36 0.35,-0.54 0.48,-0.55 0.13,-0.01 0.17,0 0.2,0.1 a 1.24,1.24 0 0 1 0,0.34 4.68,4.68 0 0 1 -0.13,0.62 q -0.13,0.54 -0.27,1.23 c -0.09,0.47 -0.17,1 -0.24,1.69 a 21.61,21.61 0 0 0 -0.08,2.2 4.11,4.11 0 0 0 0.07,0.75 2.1,2.1 0 0 0 0.13,0.54 1.81,1.81 0 0 0 0.74,0.63 2.57,2.57 0 0 0 1.35,0.35 2,2 0 0 0 0.74,-0.16 4.86,4.86 0 0 0 0.76,-0.37 2.51,2.51 0 0 0 0.5,-0.38 3.23,3.23 0 0 0 0.56,-1 3.31,3.31 0 0 0 0.3,-1.24 c 0,-0.43 -0.22,-2.21 -0.63,-5.32 -0.16,-1.11 -0.24,-1.68 -0.24,-1.74 z"
     id="path5822" />
  <path
     d="m 119.86608,175.30707 a 0.42,0.42 0 0 1 0.36,0.2 2.48,2.48 0 0 1 0.25,0.73 q 0.12,0.51 0.45,2.19 c 0.14,0.64 0.25,1.26 0.35,1.83 0.1,0.57 0.17,1.08 0.24,1.51 0.07,0.43 0.12,0.73 0.16,0.91 0.04,0.18 0.08,0.27 0.12,0.27 0.04,0 0.13,-0.25 0.22,-0.76 a 36.89,36.89 0 0 1 1,-4.51 3.31,3.31 0 0 1 0.59,-1.18 0.92,0.92 0 0 1 0.67,-0.38 c 0.2,0 0.39,0.14 0.57,0.43 a 6.22,6.22 0 0 1 0.46,1 c 0.14,0.39 0.46,1.36 1,2.91 0.32,1 0.59,1.92 0.82,2.8 0.23,0.88 0.4,1.63 0.51,2.23 a 8.39,8.39 0 0 1 0.16,1.16 2.08,2.08 0 0 1 -0.13,0.75 2.53,2.53 0 0 1 -0.34,0.66 c -0.13,0.17 -0.24,0.26 -0.32,0.26 a 0.65,0.65 0 0 1 -0.56,-0.2 15.81,15.81 0 0 1 -0.54,-1.78 c -0.31,-1.13 -0.55,-2 -0.7,-2.48 a 22.34,22.34 0 0 0 -0.87,-2.63 c -0.26,-0.64 -0.44,-1 -0.53,-1 a 5.13,5.13 0 0 0 -0.35,1.34 c -0.14,0.63 -0.34,1.47 -0.62,2.51 -0.28,1.04 -0.46,1.88 -0.57,2.51 l -0.18,1 a 3.4,3.4 0 0 1 -0.2,0.64 2.1,2.1 0 0 1 -0.33,0.52 c -0.13,0.15 -0.24,0.22 -0.33,0.22 a 0.53,0.53 0 0 1 -0.49,-0.29 2.4,2.4 0 0 1 -0.25,-0.77 c -0.06,-0.31 -0.15,-0.92 -0.26,-1.81 -0.11,-0.89 -0.23,-1.62 -0.32,-2.17 -0.05,-0.31 -0.13,-0.78 -0.23,-1.43 -0.1,-0.65 -0.16,-1.06 -0.19,-1.23 -0.03,-0.17 -0.08,-0.26 -0.14,-0.26 a 13.83,13.83 0 0 0 -0.81,2.66 c -0.71,2.64 -1.16,4.42 -1.35,5.36 a 2.26,2.26 0 0 1 -0.25,0.75 0.67,0.67 0 0 1 -0.6,0.27 0.24,0.24 0 0 1 -0.22,-0.15 0.58,0.58 0 0 1 -0.08,-0.31 7.75,7.75 0 0 1 0.17,-1.54 c 0.12,-0.63 0.3,-1.43 0.55,-2.37 0.25,-0.94 0.53,-2 0.86,-3.13 0.33,-1.13 0.53,-1.87 0.71,-2.44 0.18,-0.57 0.36,-1.1 0.55,-1.57 a 1.32,1.32 0 0 0 0.11,-0.37 c 0,-0.13 0,-0.36 -0.05,-0.69 -0.05,-0.33 -0.05,-0.58 -0.05,-0.77 a 1.54,1.54 0 0 1 0.16,-0.63 2.33,2.33 0 0 1 0.4,-0.6 0.62,0.62 0 0 1 0.42,-0.17 z"
     id="path5824" />
  <path
     d="m 136.40608,174.27707 q 0.67,0 0.69,1.17 a 2.09,2.09 0 0 1 -0.08,0.7 2.48,2.48 0 0 1 -0.3,0.58 c -0.33,0.48 -0.61,0.72 -0.83,0.72 a 1.52,1.52 0 0 1 -0.42,-0.06 l -0.4,-0.14 a 0.83,0.83 0 0 0 -0.25,-0.09 c -0.08,0 -0.32,0 -0.74,0.11 h -0.18 -0.37 c -0.16,0 -0.36,0 -0.6,0.08 l -0.69,0.14 a 4.56,4.56 0 0 0 -1.07,0.33 0.62,0.62 0 0 0 -0.34,0.43 6.45,6.45 0 0 0 -0.06,1.08 c 0,0.7 0,1.2 0.07,1.53 0.07,0.33 0.11,0.48 0.21,0.48 a 2.43,2.43 0 0 1 0.4,-0.16 6.46,6.46 0 0 1 0.94,-0.29 20,20 0 0 1 2.65,-0.55 1.15,1.15 0 0 1 0.85,0.34 1.18,1.18 0 0 1 0.34,0.86 2.2,2.2 0 0 1 -0.15,1 1,1 0 0 1 -0.47,0.55 1.59,1.59 0 0 1 -0.74,0.2 19.94,19.94 0 0 0 -2.07,0.18 6.67,6.67 0 0 0 -1.26,0.28 1.14,1.14 0 0 0 -0.6,0.38 1.24,1.24 0 0 0 -0.13,0.4 c 0,0.18 -0.05,0.39 -0.07,0.63 -0.02,0.24 0,0.4 0,0.48 a 1.77,1.77 0 0 0 -0.07,0.39 0.8,0.8 0 0 0 0.12,0.38 c 0.08,0.13 0.16,0.19 0.23,0.19 l 0.41,-0.16 a 6.93,6.93 0 0 1 1,-0.31 14.18,14.18 0 0 0 1.48,-0.54 l 1.19,-0.48 a 1.87,1.87 0 0 1 0.71,-0.13 0.67,0.67 0 0 1 0.52,0.28 1.25,1.25 0 0 1 0.24,0.83 2.87,2.87 0 0 1 -0.1,0.75 2.16,2.16 0 0 1 -0.25,0.58 0.64,0.64 0 0 1 -0.36,0.17 l -0.64,0.13 a 3.79,3.79 0 0 0 -0.84,0.31 8.46,8.46 0 0 1 -0.88,0.35 l -1.09,0.36 a 13.17,13.17 0 0 0 -1.27,0.48 l -0.55,0.24 -0.39,0.18 a 3.41,3.41 0 0 1 -1.17,-0.36 0.78,0.78 0 0 1 -0.41,-0.31 1.12,1.12 0 0 1 -0.14,-0.61 1.72,1.72 0 0 1 0.28,-1 2.44,2.44 0 0 1 0.73,-0.77 1.44,1.44 0 0 0 0.21,-0.19 0.36,0.36 0 0 0 0.07,-0.17 c 0,-0.06 0,-0.2 0,-0.42 0,-0.22 0,-0.16 0,-0.27 0,-0.11 0,-0.21 0,-0.32 a 4.49,4.49 0 0 0 -0.08,-0.95 0.58,0.58 0 0 0 -0.25,-0.36 1.26,1.26 0 0 1 -0.37,-0.29 1,1 0 0 1 -0.1,-0.54 2.07,2.07 0 0 1 0.18,-0.65 2.58,2.58 0 0 1 0.43,-0.77 2,2 0 0 0 0.23,-0.35 1.31,1.31 0 0 0 0.05,-0.42 c 0,-0.71 0,-1.21 0,-1.49 a 2.57,2.57 0 0 0 -0.1,-0.62 0.61,0.61 0 0 0 -0.26,-0.33 1.08,1.08 0 0 1 -0.19,-0.17 0.43,0.43 0 0 1 -0.06,-0.26 1.84,1.84 0 0 1 0.24,-0.76 2.84,2.84 0 0 1 0.44,-0.66 4.17,4.17 0 0 1 1.07,-0.56 21.72,21.72 0 0 1 2.33,-0.78 l 1.08,-0.35 1,-0.35 0.68,-0.24 a 1.23,1.23 0 0 1 0.32,-0.04 z"
     id="path5826" />
  <path
     d="m 145.01608,174.67707 c 0.21,0 0.37,0.2 0.49,0.59 a 7.8,7.8 0 0 1 0.24,1.76 c 0,0.12 0,0.38 0.07,0.79 0.07,0.41 0.06,1 0.09,1.86 0.03,0.86 0.06,1.85 0.07,3 0,1.38 0,2.51 0,3.4 0,0.89 -0.06,1.51 -0.09,1.86 a 2.35,2.35 0 0 1 -0.36,1.18 0.94,0.94 0 0 1 -0.78,0.39 2.72,2.72 0 0 1 -1.43,-0.7 10.73,10.73 0 0 1 -1.77,-1.79 9,9 0 0 1 -1.27,-2 5.49,5.49 0 0 0 -0.29,-0.62 c -0.08,-0.14 -0.16,-0.21 -0.22,-0.21 -0.06,0 -0.06,0.09 -0.07,0.26 -0.01,0.17 0,0.42 -0.05,0.77 -0.05,0.35 0,0.76 0,1.23 0,0.47 0,1 0,1.7 a 3.86,3.86 0 0 1 -0.2,1.27 0.59,0.59 0 0 1 -0.56,0.43 0.3,0.3 0 0 1 -0.28,-0.2 2.3,2.3 0 0 1 -0.12,-0.71 c 0,-0.33 0,-0.84 -0.05,-1.53 0,-1.05 0,-2 0,-2.72 0,-0.72 0.06,-1.38 0.09,-1.86 l 0.06,-1 a 4,4 0 0 0 -0.18,-1 4,4 0 0 1 -0.18,-0.95 1.4,1.4 0 0 1 0.27,-0.67 1.19,1.19 0 0 1 0.47,-0.5 1.09,1.09 0 0 1 0.43,-0.06 c 0.08,0 0.16,0.12 0.25,0.35 0.09,0.23 0.34,0.8 0.56,1.25 0.22,0.45 0.52,1 0.88,1.61 0.36,0.61 0.69,1.18 1,1.67 0.6,0.94 1.13,1.7 1.57,2.29 0.44,0.59 0.7,0.88 0.77,0.88 a 0.35,0.35 0 0 0 0.3,-0.11 0.87,0.87 0 0 0 0.08,-0.49 c 0,0 0,-0.43 -0.09,-1.22 -0.09,-0.79 -0.12,-1.56 -0.15,-2.29 -0.03,-0.73 -0.07,-1.31 -0.1,-1.89 -0.03,-0.58 -0.06,-1.18 -0.09,-1.82 -0.03,-0.64 -0.05,-1.33 -0.05,-2.07 a 10.1,10.1 0 0 1 0,-1 2.13,2.13 0 0 1 0.18,-0.66 1.45,1.45 0 0 1 0.31,-0.35 0.53,0.53 0 0 1 0.2,-0.12 z"
     id="path5828" />
  <path
     d="m 154.46608,174.19707 a 0.6,0.6 0 0 1 0.5,0.2 1.18,1.18 0 0 1 0.16,0.71 2.65,2.65 0 0 1 -0.12,0.72 2.61,2.61 0 0 1 -0.3,0.7 2.13,2.13 0 0 1 -0.76,0.58 6.39,6.39 0 0 1 -1.43,0.5 2.39,2.39 0 0 0 -0.89,0.34 c -0.16,0.12 -0.23,0.38 -0.23,0.77 0,0.39 0,1 0.08,2.24 0.08,1.24 0.09,2.26 0.09,3.15 0,0.2 0,0.43 0,0.69 0,0.26 0,0.5 0,0.73 0,0.23 0,0.48 0,0.74 0,0.84 0,1.45 0,1.82 a 1.92,1.92 0 0 1 -0.29,0.92 1.19,1.19 0 0 1 -0.25,0.26 0.49,0.49 0 0 1 -0.23,0.13 c -0.39,0 -0.6,-0.51 -0.61,-1.54 0,-0.18 0,-0.54 0,-1.08 0,-0.54 0,-1.09 0,-1.68 0,-0.59 0,-1.25 0,-2 0,-1.74 0,-2.94 -0.07,-3.62 a 2.9,2.9 0 0 0 -0.2,-1.23 0.77,0.77 0 0 0 -0.28,-0.08 l -0.71,-0.06 c -0.3,0 -0.66,0 -1.09,0 a 1,1 0 0 1 -1.17,-1.12 1.43,1.43 0 0 1 0.09,-0.43 1.17,1.17 0 0 1 0.2,-0.42 1.27,1.27 0 0 1 0.53,-0.42 3.46,3.46 0 0 1 0.74,-0.19 l 1.15,-0.14 c 0.49,-0.06 0.86,-0.11 1.1,-0.16 l 1.46,-0.29 c 0.39,-0.1 0.88,-0.23 1.5,-0.41 a 7.25,7.25 0 0 1 1.03,-0.33 z"
     id="path5830" />
  <path
     class="cls-11"
     d="m 576.66608,83.937067 -10.84,-11.85 c 0,0 -1.26,-2.58 1.84,-3 3.1,-0.42 9.23,6.49 9.23,6.49 0,0 4.55,3.78 2.17,7.28 -0.54,0.79 -2.4,1.08 -2.4,1.08 z"
     id="path5832" />
  <path
     class="cls-11"
     d="m 590.64608,80.717067 -10.83,-11.84 c 0,0 -1.27,-2.59 1.83,-3 3.1,-0.41 9.23,6.48 9.23,6.48 0,0 4.56,3.78 2.18,7.28 -0.55,0.77 -2.41,1.08 -2.41,1.08 z"
     id="path5834" />
  <polygon
     class="cls-28"
     points="584.4,353.14 600.31,335.24 604.91,334.99 626.26,363.59 621.87,370.63 595.66,376.7 "
     id="polygon5836"
     transform="translate(-37.063921,-311.06293)" />
  <polygon
     class="cls-29"
     points="591.88,351.4 604.91,334.99 624.77,342.59 626.26,363.59 600.04,369.66 "
     id="polygon5838"
     transform="translate(-37.063921,-311.06293)" />
  <ellipse
     class="cls-30"
     cx="436.73648"
     cy="378.62527"
     rx="5.8699999"
     ry="10.37"
     transform="rotate(-37.84)"
     id="ellipse5840" />
  <ellipse
     class="cls-30"
     cx="427.50092"
     cy="373.48468"
     rx="6.4400001"
     ry="10.37"
     transform="rotate(-37.84)"
     id="ellipse5842" />
  <ellipse
     class="cls-11"
     cx="523.40057"
     cy="230.01118"
     rx="3.4100001"
     ry="5.98"
     transform="rotate(-20.37)"
     id="ellipse5844" />
  <ellipse
     class="cls-11"
     cx="532.96179"
     cy="231.10707"
     rx="3.4100001"
     ry="5.98"
     transform="rotate(-20.37)"
     id="ellipse5846" />
  <path
     class="cls-15"
     d="m 579.20608,44.627067 c -0.06,0.1 -0.14,0.25 -0.22,0.37 l -0.24,0.37 c -0.17,0.25 -0.34,0.49 -0.52,0.71 a 6,6 0 0 1 -1.17,1.14 4,4 0 0 1 -2.83,0.77 8.08,8.08 0 0 1 -1.62,-0.34 14.23,14.23 0 0 1 -1.66,-0.65 c -1.1,-0.51 -2.19,-1.13 -3.34,-1.74 v 0 a 0.33,0.33 0 0 0 -0.44,0.14 0.32,0.32 0 0 0 0,0.35 13.55,13.55 0 0 0 2.9,2.75 10.88,10.88 0 0 0 1.8,1 8.13,8.13 0 0 0 2.11,0.59 5.69,5.69 0 0 0 2.31,-0.19 4.61,4.61 0 0 0 0.56,-0.2 c 0.19,-0.08 0.36,-0.18 0.53,-0.27 0.17,-0.09 0.34,-0.21 0.49,-0.33 a 5.32,5.32 0 0 0 0.45,-0.38 5.87,5.87 0 0 0 1.32,-1.78 6,6 0 0 0 0.39,-1 5.85,5.85 0 0 0 0.2,-1.06 0.53,0.53 0 0 0 -1,-0.33 z"
     id="path5848" />
  <path
     class="cls-11"
     d="m 569.22608,59.937067 a 10.49,10.49 0 0 1 3,2.5 10.36,10.36 0 0 1 2,3.5 6.35,6.35 0 0 1 0.32,2.26 4.16,4.16 0 0 1 -0.22,1.25 l -0.22,0.63 a 6.48,6.48 0 0 1 -0.33,0.57 c -0.13,0.19 -0.25,0.38 -0.38,0.56 l -0.46,0.45 -0.48,0.43 -0.51,0.32 a 10,10 0 0 1 -2.1,0.95 2,2 0 1 1 -1.43,-3.65 1.82,1.82 0 0 1 0.4,-0.11 h 0.16 a 4,4 0 0 0 2.13,-0.85 2.43,2.43 0 0 0 0.51,-2.14 8.28,8.28 0 0 0 -1.11,-2.91 8.92,8.92 0 0 0 -2.11,-2.45 v 0 a 0.74,0.74 0 0 1 -0.13,-1.05 0.75,0.75 0 0 1 0.96,-0.26 z"
     id="path5850" />
  <path
     class="cls-11"
     d="m 577.43608,58.147067 a 11.24,11.24 0 0 1 7.48,2.36 6.34,6.34 0 0 1 1.48,1.74 4.24,4.24 0 0 1 0.48,1.18 l 0.15,0.64 a 5,5 0 0 1 0,0.67 c 0,0.22 0,0.45 0,0.67 l -0.15,0.62 c -0.05,0.21 -0.11,0.42 -0.17,0.63 l -0.26,0.54 a 10.12,10.12 0 0 1 -1.26,1.92 2,2 0 0 1 -3.17,-2.31 2.12,2.12 0 0 1 0.28,-0.31 l 0.12,-0.11 a 3.86,3.86 0 0 0 1.35,-1.85 2.38,2.38 0 0 0 -0.71,-2.08 8.09,8.09 0 0 0 -2.5,-1.86 8.88,8.88 0 0 0 -3.08,-1 v 0 a 0.75,0.75 0 0 1 0,-1.5 z"
     id="path5852" />
  <path
     class="cls-11"
     d="m 556.71608,47.157067 a 9,9 0 0 0 -3.27,0.92 7.38,7.38 0 0 0 -2.55,2 8.07,8.07 0 0 0 -1.42,2.84 14,14 0 0 0 -0.33,1.59 c -0.05,0.56 -0.06,1.12 -0.11,1.67 v 0.21 a 2,2 0 0 1 -3.89,-0.3 2.19,2.19 0 0 1 0,-0.27 c 0.15,-0.7 0.29,-1.39 0.47,-2.07 a 16.45,16.45 0 0 1 0.77,-2 10.92,10.92 0 0 1 2.55,-3.52 9.71,9.71 0 0 1 3.71,-2.11 11,11 0 0 1 4.11,-0.47 0.75,0.75 0 0 1 0,1.5 z"
     id="path5854" />
  <path
     class="cls-11"
     d="m 546.79608,57.127067 a 5.09,5.09 0 0 0 -1.5,-0.72 5.79,5.79 0 0 0 -1.65,-0.21 6.4,6.4 0 0 0 -1.62,0.28 8.9,8.9 0 0 0 -1.54,0.63 v 0 a 1.6323296,1.6323296 0 1 1 -1.46,-2.92 1.71,1.71 0 0 1 0.38,-0.13 12.07,12.07 0 0 1 2.25,-0.31 9.24,9.24 0 0 1 2.28,0.19 7.69,7.69 0 0 1 2.1,0.84 6.12,6.12 0 0 1 1.71,1.48 0.62,0.62 0 0 1 -0.85,0.89 z"
     id="path5856" />
  <path
     class="cls-11"
     d="m 547.31608,56.737067 a 20.59,20.59 0 0 0 -1.84,1 17,17 0 0 0 -1.69,1.18 8.36,8.36 0 0 0 -2.38,2.79 2,2 0 0 1 -3.57,-1.67 1.75,1.75 0 0 1 0.32,-0.48 l 0.08,-0.1 a 12,12 0 0 1 4.19,-2.87 20.93,20.93 0 0 1 2.22,-0.78 20.12,20.12 0 0 1 2.26,-0.52 0.76,0.76 0 0 1 0.87,0.62 0.74,0.74 0 0 1 -0.42,0.81 z"
     id="path5858" />
  <path
     class="cls-11"
     d="m 548.06608,57.287067 c 0,0 -0.15,0.16 -0.22,0.28 a 3.15,3.15 0 0 0 -0.23,0.41 3.87,3.87 0 0 0 -0.28,1 8.48,8.48 0 0 0 0,2.25 17.36,17.36 0 0 0 0.52,2.33 c 0.22,0.78 0.51,1.55 0.79,2.32 v 0 a 2,2 0 0 1 -3.67,1.37 2.23,2.23 0 0 1 -0.1,-0.43 c -0.12,-0.92 -0.24,-1.84 -0.29,-2.78 a 20.61,20.61 0 0 1 0,-2.83 10.63,10.63 0 0 1 0.67,-2.89 5.88,5.88 0 0 1 0.78,-1.37 4.66,4.66 0 0 1 0.58,-0.6 2.76,2.76 0 0 1 0.82,-0.5 0.75392307,0.75392307 0 0 1 0.56,1.4 z"
     id="path5860" />
  <path
     class="cls-11"
     d="m 547.51608,55.937067 a 19.6,19.6 0 0 1 4.86,0.77 8.8,8.8 0 0 1 2.49,1.15 5,5 0 0 1 2.07,2.83 l 0.26,1 a 2.17,2.17 0 1 1 -4.08,-0.36 c 0.07,-0.17 0,-0.55 -0.37,-1 a 6.18,6.18 0 0 0 -1.45,-1.2 17.92,17.92 0 0 0 -4,-1.74 v 0 a 0.75,0.75 0 0 1 -0.5,-0.94 0.76,0.76 0 0 1 0.72,-0.51 z"
     id="path5862" />
  <path
     class="cls-16"
     d="m 553.73608,28.567067 a 12.4,12.4 0 0 1 0.51,-2.94 11.49,11.49 0 0 1 1.26,-2.77 9.45,9.45 0 0 1 2.11,-2.36 10.37,10.37 0 0 1 2.82,-1.56 1.63,1.63 0 0 1 1.25,3 1.13,1.13 0 0 1 -0.24,0.08 h -0.11 a 7.38,7.38 0 0 0 -2.17,0.76 6.64,6.64 0 0 0 -1.86,1.46 9.12,9.12 0 0 0 -1.42,2.05 10.44,10.44 0 0 0 -0.88,2.41 v 0.05 a 0.62,0.62 0 0 1 -0.75,0.48 0.63,0.63 0 0 1 -0.52,-0.66 z"
     id="path5864" />
  <path
     class="cls-16"
     d="m 566.76608,21.937067 a 7.17,7.17 0 0 1 0.38,-2.49 6.83,6.83 0 0 1 1.24,-2.27 7.18,7.18 0 0 1 2,-1.73 9.79,9.79 0 0 1 2.44,-1 1.63,1.63 0 1 1 0.94,3.12 2,2 0 0 1 -0.34,0.06 h -0.06 a 7.62,7.62 0 0 0 -1.8,0.31 4.89,4.89 0 0 0 -1.6,0.83 4.83,4.83 0 0 0 -1.24,1.41 5.92,5.92 0 0 0 -0.72,1.82 v 0.08 a 0.63,0.63 0 0 1 -1.25,-0.12 z"
     id="path5866" />
  <path
     class="cls-11"
     d="m 617.76608,141.24707 -9.58,-17 c 0,0 -0.78,-3.4 3,-3.08 3.78,0.32 9.14,10.2 9.14,10.2 0,0 4.36,5.72 0.58,9.21 -0.86,0.81 -3.14,0.67 -3.14,0.67 z"
     id="path5868" />
  <path
     class="cls-11"
     d="m 633.38608,141.24707 -9.57,-17 c 0,0 -0.79,-3.4 3,-3.08 3.79,0.32 9.14,10.2 9.14,10.2 0,0 4.36,5.72 0.59,9.21 -0.88,0.81 -3.16,0.67 -3.16,0.67 z"
     id="path5870" />
  <polygon
     class="cls-31"
     points="634.49,428.55 636.02,411.61 626.64,401.63 637.57,400.09 649.79,381.58 656.1,381.27 674.35,423.58 664.37,426.97 655.31,422.88 "
     id="polygon5872"
     transform="translate(-37.063921,-311.06293)" />
  <polygon
     class="cls-32"
     points="645.17,425.64 645.17,408.8 633.89,400.56 645.17,399.11 656.1,381.27 667.2,396.81 680.65,396.32 671.41,408.2 674.35,423.58 659.63,415.33 "
     id="polygon5874"
     transform="translate(-37.063921,-311.06293)" />
  <ellipse
     class="cls-33"
     cx="534.84344"
     cy="338.05127"
     rx="7.1199999"
     ry="12.58"
     transform="rotate(-24.8)"
     id="ellipse5876" />
  <ellipse
     class="cls-33"
     cx="523.63141"
     cy="331.81671"
     rx="7.8200002"
     ry="12.58"
     transform="rotate(-24.8)"
     id="ellipse5878" />
  <ellipse
     class="cls-11"
     cx="597.66406"
     cy="161.84918"
     rx="4.1399999"
     ry="7.2600002"
     transform="rotate(-7.33)"
     id="ellipse5880" />
  <ellipse
     class="cls-11"
     cx="609.91296"
     cy="163.50783"
     rx="4.1399999"
     ry="7.2600002"
     transform="rotate(-7.33)"
     id="ellipse5882" />
  <path
     class="cls-15"
     d="m 626.01608,99.077067 -0.37,0.37 a 4.68,4.68 0 0 1 -0.39,0.38 8.59,8.59 0 0 1 -0.8,0.690003 7.42,7.42 0 0 1 -1.7,1 4.91,4.91 0 0 1 -3.56,0.14 11.46,11.46 0 0 1 -1.83,-0.84 19.46,19.46 0 0 1 -1.77,-1.230003 c -1.17,-0.9 -2.29,-1.94 -3.48,-3 v 0 a 0.4,0.4 0 0 0 -0.56,0 0.4,0.4 0 0 0 -0.06,0.42 16.52,16.52 0 0 0 2.67,4.000003 14.39,14.39 0 0 0 1.86,1.7 9.69,9.69 0 0 0 2.33,1.27 6.86,6.86 0 0 0 2.79,0.42 5.93,5.93 0 0 0 0.72,-0.1 c 0.24,0 0.47,-0.11 0.7,-0.17 l 0.67,-0.25 c 0.21,-0.1 0.43,-0.2 0.63,-0.32 a 7.2,7.2 0 0 0 2,-1.77 7.5,7.5 0 0 0 0.73,-1.07 6.8,6.8 0 0 0 0.53,-1.190003 0.64,0.64 0 0 0 -0.41,-0.81 0.63,0.63 0 0 0 -0.65,0.15 z"
     id="path5884" />
  <path
     class="cls-11"
     d="m 615.54608,110.74707 a 12.61,12.61 0 0 1 2.9,3.79 12.85,12.85 0 0 1 1.44,4.7 7.84,7.84 0 0 1 -0.23,2.77 6,6 0 0 1 -1.59,2.7 6.88,6.88 0 0 1 -2.67,1.58 11.84,11.84 0 0 1 -2.72,0.52 v 0 a 2.37,2.37 0 1 1 -0.4,-4.72 2.06,2.06 0 0 1 0.43,0 4.54,4.54 0 0 0 2.77,-0.4 3,3 0 0 0 1.17,-2.41 10,10 0 0 0 -0.51,-3.75 10.68,10.68 0 0 0 -1.83,-3.47 v 0 a 0.92,0.92 0 0 1 1.3,-1.28 z"
     id="path5886" />
  <path
     class="cls-11"
     d="m 623.93608,110.93707 a 10.87,10.87 0 0 1 7.86,4.9 8.29,8.29 0 0 1 1.27,5.15 7.13,7.13 0 0 1 -3,5 l -0.19,0.13 a 2.3729834,2.3729834 0 1 1 -2.69,-3.91 l 0.36,-0.2 a 2.7,2.7 0 0 0 1.55,-1.73 4.57,4.57 0 0 0 -0.22,-3 7.4,7.4 0 0 0 -2.06,-2.83 9.43,9.43 0 0 0 -3.28,-1.8 v 0 a 0.92,0.92 0 0 1 0.4,-1.71 z"
     id="path5888" />
  <path
     class="cls-11"
     d="m 598.70608,95.937067 a 11,11 0 0 0 -4.11,0.19 9,9 0 0 0 -3.57,1.7 6.31,6.31 0 0 0 -0.72,0.65 l -0.35,0.33 -0.3,0.38 c -0.19,0.26 -0.41,0.49 -0.59,0.76 l -0.49,0.850003 a 4.82,4.82 0 0 0 -0.44,0.88 l -0.39,0.91 c -0.22,0.64 -0.39,1.3 -0.59,1.94 l -0.07,0.24 a 2.37,2.37 0 0 1 -4.52,-1.41 3,3 0 0 1 0.12,-0.32 c 0.38,-0.78 0.72,-1.56 1.13,-2.31 l 0.69,-1.110003 a 7.81,7.81 0 0 1 0.77,-1.07 13.27,13.27 0 0 1 4,-3.47 11.9,11.9 0 0 1 5,-1.47 13.08,13.08 0 0 1 5,0.57 0.91,0.91 0 0 1 -0.4,1.77 z"
     id="path5890" />
  <path
     class="cls-11"
     d="m 584.25608,104.98707 a 6,6 0 0 0 -1.58,-1.26 6.9,6.9 0 0 0 -1.9,-0.7 7.81,7.81 0 0 0 -2,-0.12 c -0.33,0 -0.67,0.08 -1,0.11 l -1,0.22 h -0.11 a 2,2 0 0 1 -0.85,-3.880003 2.15,2.15 0 0 1 0.5,0 c 0.46,0 0.92,0 1.37,0.06 0.45,0.06 0.92,0.09 1.38,0.19 a 11.15,11.15 0 0 1 2.63,0.880003 9.2,9.2 0 0 1 2.25,1.58 7.3,7.3 0 0 1 1.63,2.21 0.76,0.76 0 0 1 -0.36,1 0.76,0.76 0 0 1 -0.9,-0.19 z"
     id="path5892" />
  <path
     class="cls-11"
     d="m 584.93608,104.66707 a 23.88,23.88 0 0 0 -2.44,0.67 21.62,21.62 0 0 0 -2.32,0.94 14.52,14.52 0 0 0 -2,1.2 8.27,8.27 0 0 0 -1.54,1.45 2.3817011,2.3817011 0 0 1 -3.7,-3 2,2 0 0 1 0.48,-0.45 l 0.09,-0.07 a 14.37,14.37 0 0 1 5.75,-2.24 22.91,22.91 0 0 1 2.83,-0.32 24.12,24.12 0 0 1 2.82,0 0.93,0.93 0 0 1 0.86,1 0.94,0.94 0 0 1 -0.73,0.84 z"
     id="path5894" />
  <path
     class="cls-11"
     d="m 585.70608,105.52707 c 0,0 -0.22,0.15 -0.33,0.26 a 3.13,3.13 0 0 0 -0.39,0.42 4.55,4.55 0 0 0 -0.6,1.11 10.31,10.31 0 0 0 -0.61,2.67 21.55,21.55 0 0 0 0,2.9 c 0,1 0.17,2 0.3,2.95 v 0.1 a 2.3746684,2.3746684 0 1 1 -4.71,0.61 2,2 0 0 1 0,-0.54 c 0.11,-1.12 0.22,-2.23 0.42,-3.35 a 24.78,24.78 0 0 1 0.82,-3.35 13.28,13.28 0 0 1 1.59,-3.23 6.82,6.82 0 0 1 1.29,-1.4 4.75,4.75 0 0 1 0.85,-0.55 3.27,3.27 0 0 1 1.11,-0.37 0.9,0.9 0 0 1 1,0.76 0.92,0.92 0 0 1 -0.74,1.01 z"
     id="path5896" />
  <path
     class="cls-11"
     d="m 585.43608,103.76707 a 24.17,24.17 0 0 1 2.8,0.93 20.62,20.62 0 0 1 2.74,1.3 11.07,11.07 0 0 1 2.62,2.05 6,6 0 0 1 1.68,3.91 v 1.27 a 2.6304752,2.6304752 0 0 1 -5.26,0.1 2.6,2.6 0 0 1 0.53,-1.64 c 0.14,-0.18 0.14,-0.66 -0.17,-1.25 a 7.06,7.06 0 0 0 -1.38,-1.82 18.36,18.36 0 0 0 -2,-1.68 26.13,26.13 0 0 0 -2.25,-1.46 v 0 a 0.92,0.92 0 0 1 0.7,-1.68 z"
     id="path5898" />
  <path
     class="cls-16"
     d="m 600.28608,73.097067 a 14.25,14.25 0 0 1 1.41,-3.33 13.9,13.9 0 0 1 2.24,-2.93 11.36,11.36 0 0 1 3.14,-2.22 13,13 0 0 1 3.78,-1.13 2,2 0 0 1 0.66,3.9 h -0.31 -0.14 a 9.28,9.28 0 0 0 -2.77,0.3 8.42,8.42 0 0 0 -2.6,1.21 11.14,11.14 0 0 0 -2.25,2.05 12.78,12.78 0 0 0 -1.7,2.6 v 0.06 a 0.75,0.75 0 0 1 -1,0.36 0.77,0.77 0 0 1 -0.46,-0.87 z"
     id="path5900" />
  <path
     class="cls-16"
     d="m 617.50608,68.877067 a 8.75,8.75 0 0 1 1.12,-2.85 8.33,8.33 0 0 1 2.09,-2.35 8.78,8.78 0 0 1 2.88,-1.49 10.69,10.69 0 0 1 1.58,-0.38 c 0.53,-0.09 1,-0.11 1.59,-0.16 a 2,2 0 0 1 0.36,3.94 1.7,1.7 0 0 1 -0.39,0 h -0.2 c -0.37,0 -0.75,-0.12 -1.12,-0.14 a 8.22,8.22 0 0 0 -1.11,0 5.77,5.77 0 0 0 -2.11,0.54 6,6 0 0 0 -1.86,1.33 7.07,7.07 0 0 0 -1.34,1.95 v 0.1 a 0.77,0.77 0 0 1 -1,0.37 0.75,0.75 0 0 1 -0.49,-0.86 z"
     id="path5902" />
  <path
     class="cls-11"
     d="m 563.36608,166.40707 a 11.77,11.77 0 0 0 -3.21,-0.83 7.88,7.88 0 0 0 -3.12,0.24 7,7 0 0 0 -1.34,0.58 6.17,6.17 0 0 0 -1.11,0.92 5.92,5.92 0 0 0 -0.91,1.14 c -0.28,0.41 -0.47,0.9 -0.71,1.33 l -0.15,0.25 a 1.75,1.75 0 0 1 -2.39,0.67 1.77,1.77 0 0 1 -0.68,-2.4 l 0.12,-0.18 c 0.42,-0.56 0.77,-1.14 1.24,-1.66 a 10.11,10.11 0 0 1 1.56,-1.43 9.61,9.61 0 0 1 1.84,-1.07 9.47,9.47 0 0 1 2,-0.54 10.1,10.1 0 0 1 4,0.28 13.07,13.07 0 0 1 3.52,1.52 0.68,0.68 0 0 1 -0.63,1.2 z"
     id="path5904" />
  <path
     class="cls-11"
     d="m 543.85608,156.57707 4.13,17.13 c 0,0 1.67,2.54 3.74,0 2.07,-2.54 0.55,-12.72 0.55,-12.72 0,0 -1.31,-6.63 -6.24,-5.62 a 6.17,6.17 0 0 0 -2.18,1.21 z"
     id="path5906" />
  <polyline
     class="cls-34"
     points="604.09 441 636.09 449.87 609.63 478.85 599.15 481.28 593.61 443.44"
     id="polyline5908"
     transform="translate(-37.063921,-311.06293)" />
  <polyline
     class="cls-35"
     points="593.61 443.44 625.61 452.3 599.15 481.28 593.61 444.54"
     id="polyline5910"
     transform="translate(-37.063921,-311.06293)" />
  <ellipse
     class="cls-36"
     cx="360.92624"
     cy="461.18542"
     rx="9.3699999"
     ry="5.3099999"
     transform="rotate(-38.53)"
     id="ellipse5912" />
  <ellipse
     class="cls-36"
     cx="365.55801"
     cy="469.5358"
     rx="9.3699999"
     ry="5.8200002"
     transform="rotate(-38.53)"
     id="ellipse5914" />
  <ellipse
     class="cls-11"
     cx="211.04524"
     cy="557.01593"
     rx="5.4099998"
     ry="3.0799999"
     transform="rotate(-56)"
     id="ellipse5916" />
  <ellipse
     class="cls-11"
     cx="208.82076"
     cy="547.91882"
     rx="5.4099998"
     ry="3.0799999"
     transform="rotate(-56)"
     id="ellipse5918" />
  <path
     class="cls-16"
     d="m 590.11608,132.12707 a 5.27,5.27 0 0 0 -1,-1.46 4.69,4.69 0 0 0 -1.38,-1 4.33,4.33 0 0 0 -1.58,-0.4 6.14,6.14 0 0 0 -1.65,0.1 h -0.05 a 1.4715383,1.4715383 0 1 1 -0.44,-2.91 1.61,1.61 0 0 1 0.31,0 9,9 0 0 1 2.36,0.4 6.67,6.67 0 0 1 2.15,1.08 6.54,6.54 0 0 1 2.39,3.87 0.57,0.57 0 0 1 -0.44,0.68 0.58,0.58 0 0 1 -0.63,-0.32 z"
     id="path5920" />
  <path
     class="cls-16"
     d="m 579.40608,126.83707 a 5.5,5.5 0 0 0 -1,-1.46 4.69,4.69 0 0 0 -1.38,-1 4.6,4.6 0 0 0 -1.58,-0.4 6.65,6.65 0 0 0 -1.66,0.1 v 0 a 1.48,1.48 0 0 1 -0.45,-2.92 1.74,1.74 0 0 1 0.32,0 9.12,9.12 0 0 1 2.36,0.4 6.52,6.52 0 0 1 2.14,1.11 6.3,6.3 0 0 1 1.56,1.75 6.77,6.77 0 0 1 0.84,2.12 0.57,0.57 0 0 1 -1.08,0.36 z"
     id="path5922" />
  <path
     class="cls-15"
     d="m 564.86608,145.81707 c 0,0.09 0,0.2 0.05,0.31 l 0.06,0.31 a 6.25,6.25 0 0 0 0.16,0.62 4.43,4.43 0 0 0 0.48,1.08 3,3 0 0 0 1.7,1.29 6.28,6.28 0 0 0 1.19,0.21 11.1,11.1 0 0 0 1.29,0 c 0.88,0 1.79,-0.17 2.72,-0.27 v 0 a 0.23,0.23 0 0 1 0.26,0.2 0.23,0.23 0 0 1 -0.12,0.23 9.72,9.72 0 0 1 -2.69,1.08 8.21,8.21 0 0 1 -1.5,0.2 5.75,5.75 0 0 1 -1.53,-0.14 4.12,4.12 0 0 1 -1.51,-0.75 l -0.32,-0.29 c -0.1,-0.1 -0.19,-0.22 -0.28,-0.32 l -0.25,-0.36 c -0.06,-0.12 -0.14,-0.24 -0.19,-0.37 a 4.24,4.24 0 0 1 -0.4,-1.56 4.93,4.93 0 0 1 0,-0.77 4.36,4.36 0 0 1 0.15,-0.77 0.39,0.39 0 0 1 0.48,-0.26 0.39,0.39 0 0 1 0.27,0.3 z"
     id="path5924" />
  <path
     class="cls-11"
     d="m 573.07608,164.45707 a 13.37,13.37 0 0 1 2.86,2.55 10.39,10.39 0 0 1 1.92,3.49 9.63,9.63 0 0 1 0.36,2.08 8.86,8.86 0 0 1 -0.2,2.12 9.26,9.26 0 0 1 -0.65,2 c -0.27,0.65 -0.65,1.21 -1,1.83 a 1.7633845,1.7633845 0 0 1 -3.09,-1.7 c 0,-0.06 0.07,-0.12 0.11,-0.17 l 0.18,-0.25 c 0.29,-0.4 0.65,-0.78 0.91,-1.2 a 7.17,7.17 0 0 0 0.65,-1.3 6.15,6.15 0 0 0 0.37,-1.4 7.15,7.15 0 0 0 0,-1.46 7.8,7.8 0 0 0 -1.09,-2.94 11.47,11.47 0 0 0 -2.1,-2.55 v 0 a 0.68,0.68 0 0 1 0.83,-1.07 z"
     id="path5926" />
  <path
     class="cls-11"
     d="m 589.38608,179.14707 -17.28,3.43 c 0,0 -3,-0.44 -1.53,-3.4 1.47,-2.96 11.36,-5.84 11.36,-5.84 0,0 6.57,-1.59 7.72,3.31 a 6.16,6.16 0 0 1 -0.27,2.5 z"
     id="path5928" />
  <path
     class="cls-11"
     d="m 583.62608,150.06707 a 12.37,12.37 0 0 1 4.6,-0.46 10.9,10.9 0 0 1 4.52,1.41 12,12 0 0 1 3.59,3.21 17.64,17.64 0 0 1 1.31,2 c 0.36,0.7 0.67,1.42 1,2.14 a 1.76,1.76 0 1 1 -3.19,1.48 1.34,1.34 0 0 1 -0.07,-0.18 l -0.07,-0.2 c -0.2,-0.61 -0.38,-1.24 -0.6,-1.85 a 13.67,13.67 0 0 0 -0.84,-1.72 9.27,9.27 0 0 0 -2.45,-2.83 8.57,8.57 0 0 0 -3.48,-1.58 10.72,10.72 0 0 0 -4,-0.11 h -0.07 a 0.69,0.69 0 0 1 -0.78,-0.57 0.67,0.67 0 0 1 0.53,-0.74 z"
     id="path5930" />
  <path
     class="cls-11"
     d="m 596.48608,159.45707 a 6.66,6.66 0 0 1 1.52,-2 8.73,8.73 0 0 1 2.08,-1.4 10.19,10.19 0 0 1 2.41,-0.74 c 0.42,-0.09 0.83,-0.11 1.25,-0.16 h 1.25 a 1.5003,1.5003 0 0 1 0.06,3 h -0.29 -0.11 l -1,-0.18 c -0.32,0 -0.65,-0.08 -1,-0.08 a 8.32,8.32 0 0 0 -1.93,0.19 6.83,6.83 0 0 0 -1.82,0.74 5.59,5.59 0 0 0 -1.48,1.28 v 0.06 a 0.58,0.58 0 0 1 -0.8,0.09 0.57,0.57 0 0 1 -0.14,-0.8 z"
     id="path5932" />
  <path
     class="cls-11"
     d="m 597.01608,158.23707 a 22.64,22.64 0 0 1 2.61,0.06 24,24 0 0 1 2.61,0.36 13.35,13.35 0 0 1 5.18,2.15 v 0 a 1.77,1.77 0 0 1 -2.07,2.87 1.61,1.61 0 0 1 -0.3,-0.28 10.44,10.44 0 0 0 -3.58,-2.44 19.66,19.66 0 0 0 -2.23,-0.82 21.78,21.78 0 0 0 -2.32,-0.57 v 0 a 0.69,0.69 0 0 1 0.1,-1.36 z"
     id="path5934" />
  <path
     class="cls-11"
     d="m 596.48608,159.05707 a 4.67,4.67 0 0 1 2.86,2.13 11.66,11.66 0 0 1 1.4,3 23,23 0 0 1 0.69,3.1 c 0.17,1 0.25,2.08 0.33,3.12 a 1.77,1.77 0 0 1 -3.52,0.27 1.61,1.61 0 0 1 0,-0.31 v -0.06 c 0.09,-0.94 0.19,-1.88 0.21,-2.81 a 18.19,18.19 0 0 0 -0.1,-2.77 9.73,9.73 0 0 0 -0.66,-2.56 4.64,4.64 0 0 0 -0.63,-1.06 2.7,2.7 0 0 0 -0.42,-0.41 2.35,2.35 0 0 0 -0.38,-0.26 l -0.31,-0.24 a 0.62,0.62 0 0 1 -0.1,-0.88 0.6,0.6 0 0 1 0.63,-0.26 z"
     id="path5936" />
  <path
     class="cls-11"
     d="m 597.05608,160.36707 a 20.3,20.3 0 0 0 -4.1,2.86 7.36,7.36 0 0 0 -1.42,1.71 1.89,1.89 0 0 0 -0.31,1.43 1.8011177,1.8011177 0 1 1 -3.4,1.19 1.6,1.6 0 0 1 -0.1,-0.61 v -0.37 a 5.23,5.23 0 0 1 1.42,-3.41 10.28,10.28 0 0 1 2.35,-1.91 22.12,22.12 0 0 1 5.07,-2.18 0.68,0.68 0 0 1 0.85,0.46 0.67,0.67 0 0 1 -0.33,0.79 z"
     id="path5938" />
</svg>
