<svg version="1.1" viewBox="0.0 0.0 960.0 540.0" fill="none" stroke="none" stroke-linecap="square" stroke-miterlimit="10" xmlns:xlink="http://www.w3.org/1999/xlink" xmlns="http://www.w3.org/2000/svg"><clipPath id="g79841a310d_0_0.0"><path d="m0 0l960.0 0l0 540.0l-960.0 0l0 -540.0z" clip-rule="nonzero"/></clipPath><g clip-path="url(#g79841a310d_0_0.0)"><path fill="#cccccc" d="m0 0l960.0 0l0 540.0l-960.0 0z" fill-rule="evenodd"/><path fill="#009999" d="m168.93439 165.44485l0 0c0 -35.587555 28.849411 -64.43698 64.43698 -64.43698l436.0079 0c17.089783 0 33.479553 6.7888794 45.563843 18.873154c12.08429 12.084274 18.873169 28.474075 18.873169 45.563828l0 257.7402c0 35.587555 -28.849426 64.43698 -64.43701 64.43698l-436.0079 0c-35.58757 0 -64.43698 -28.849426 -64.43698 -64.43698z" fill-rule="evenodd"/><path fill="#4ed5d5" d="m168.92651 263.8294l564.8819 0l0 66.0l-564.8819 0z" fill-rule="evenodd"/><path fill="#009999" d="m761.0733 170.17026l82.861084 126.65878l-82.861084 126.65878z" fill-rule="evenodd"/><path fill="#000000" fill-opacity="0.0" d="m415.51706 150.31496l71.71652 0l0 45.196854l-71.71652 0z" fill-rule="evenodd"/><path fill="#595959" d="m438.77213 165.45589q1.984375 0 3.4375 0.671875q1.46875 0.65625 2.25 1.875q0.796875 1.21875 0.796875 2.875q0 1.640625 -0.796875 2.875q-0.78125 1.21875 -2.25 1.875q-1.453125 0.65625 -3.4375 0.65625l-3.015625 0l0 4.109375l-3.453125 0l0 -14.9375l6.46875 0zm-0.1875 8.0q1.546875 0 2.359375 -0.671875q0.8125 -0.671875 0.8125 -1.90625q0 -1.25 -0.8125 -1.921875q-0.8125 -0.671875 -2.359375 -0.671875l-2.828125 0l0 5.171875l2.828125 0zm20.111938 1.25q0 0.0625 -0.0625 0.890625l-8.6875 0q0.234375 1.0625 1.109375 1.6875q0.875 0.609375 2.171875 0.609375q0.90625 0 1.59375 -0.265625q0.6875 -0.265625 1.28125 -0.84375l1.78125 1.921875q-1.625 1.859375 -4.734375 1.859375q-1.9375 0 -3.4375 -0.75q-1.5 -0.765625 -2.3125 -2.109375q-0.796875 -1.34375 -0.796875 -3.046875q0 -1.6875 0.796875 -3.03125q0.796875 -1.359375 2.1875 -2.109375q1.40625 -0.765625 3.125 -0.765625q1.6875 0 3.046875 0.734375q1.375 0.71875 2.15625 2.078125q0.78125 1.34375 0.78125 3.140625zm-5.953125 -3.4375q-1.140625 0 -1.90625 0.640625q-0.765625 0.640625 -0.9375 1.75l5.65625 0q-0.171875 -1.09375 -0.9375 -1.734375q-0.765625 -0.65625 -1.875 -0.65625zm12.466217 -2.515625q2.671875 0 4.09375 1.265625q1.4375 1.265625 1.4375 3.828125l0 6.546875l-3.109375 0l0 -1.421875q-0.9375 1.59375 -3.5 1.59375q-1.328125 0 -2.296875 -0.4375q-0.96875 -0.453125 -1.484375 -1.234375q-0.5 -0.796875 -0.5 -1.8125q0 -1.59375 1.203125 -2.5q1.203125 -0.921875 3.71875 -0.921875l2.640625 0q0 -1.09375 -0.671875 -1.671875q-0.65625 -0.59375 -1.96875 -0.59375q-0.921875 0 -1.8125 0.296875q-0.875 0.28125 -1.5 0.765625l-1.1875 -2.328125q0.9375 -0.65625 2.25 -1.015625q1.3125 -0.359375 2.6875 -0.359375zm-0.25 9.578125q0.859375 0 1.515625 -0.390625q0.65625 -0.40625 0.9375 -1.171875l0 -1.171875l-2.28125 0q-2.046875 0 -2.046875 1.34375q0 0.640625 0.5 1.015625q0.5 0.375 1.375 0.375z" fill-rule="nonzero"/><path fill="#000000" fill-opacity="0.0" d="m202.09973 124.973755l156.47244 0l0 45.196854l-156.47244 0z" fill-rule="evenodd"/><path fill="#ffffff" d="m217.7716 154.70375q-1.765625 0 -3.421875 -0.46875q-1.65625 -0.484375 -2.65625 -1.25l1.171875 -2.609375q0.96875 0.703125 2.28125 1.140625q1.328125 0.421875 2.65625 0.421875q1.46875 0 2.171875 -0.4375q0.703125 -0.4375 0.703125 -1.15625q0 -0.546875 -0.421875 -0.890625q-0.40625 -0.359375 -1.0625 -0.5625q-0.65625 -0.21875 -1.765625 -0.46875q-1.703125 -0.40625 -2.796875 -0.8125q-1.078125 -0.40625 -1.859375 -1.296875q-0.78125 -0.90625 -0.78125 -2.390625q0 -1.3125 0.703125 -2.359375q0.703125 -1.0625 2.125 -1.671875q1.421875 -0.625 3.46875 -0.625q1.421875 0 2.78125 0.34375q1.375 0.34375 2.40625 0.984375l-1.078125 2.625q-2.0625 -1.171875 -4.125 -1.171875q-1.453125 0 -2.15625 0.46875q-0.6875 0.46875 -0.6875 1.234375q0 0.765625 0.796875 1.140625q0.796875 0.375 2.453125 0.734375q1.703125 0.40625 2.78125 0.8125q1.09375 0.40625 1.875 1.28125q0.78125 0.875 0.78125 2.359375q0 1.28125 -0.71875 2.34375q-0.71875 1.046875 -2.15625 1.671875q-1.421875 0.609375 -3.46875 0.609375zm19.716766 -5.9375q0 0.0625 -0.0625 0.890625l-8.6875 0q0.234375 1.0625 1.109375 1.6875q0.875 0.609375 2.171875 0.609375q0.90625 0 1.59375 -0.265625q0.6875 -0.265625 1.28125 -0.84375l1.78125 1.921875q-1.625 1.859375 -4.734375 1.859375q-1.9375 0 -3.4375 -0.75q-1.5 -0.765625 -2.3125 -2.109375q-0.796875 -1.34375 -0.796875 -3.046875q0 -1.6875 0.796875 -3.03125q0.796875 -1.359375 2.1875 -2.109375q1.40625 -0.765625 3.125 -0.765625q1.6875 0 3.046875 0.734375q1.375 0.71875 2.15625 2.078125q0.78125 1.34375 0.78125 3.140625zm-5.953125 -3.4375q-1.140625 0 -1.90625 0.640625q-0.765625 0.640625 -0.9375 1.75l5.65625 0q-0.171875 -1.09375 -0.9375 -1.734375q-0.765625 -0.65625 -1.875 -0.65625zm20.004974 -2.34375l0 9.546875q0 3.15625 -1.640625 4.6875q-1.640625 1.546875 -4.796875 1.546875q-1.671875 0 -3.171875 -0.40625q-1.484375 -0.40625 -2.46875 -1.171875l1.328125 -2.390625q0.71875 0.59375 1.828125 0.9375q1.109375 0.359375 2.21875 0.359375q1.734375 0 2.546875 -0.78125q0.828125 -0.78125 0.828125 -2.359375l0 -0.484375q-1.296875 1.4375 -3.625 1.4375q-1.578125 0 -2.890625 -0.6875q-1.3125 -0.703125 -2.078125 -1.953125q-0.765625 -1.265625 -0.765625 -2.90625q0 -1.640625 0.765625 -2.90625q0.765625 -1.265625 2.078125 -1.953125q1.3125 -0.6875 2.890625 -0.6875q2.5 0 3.796875 1.640625l0 -1.46875l3.15625 0zm-6.296875 8.1875q1.328125 0 2.171875 -0.78125q0.84375 -0.78125 0.84375 -2.03125q0 -1.265625 -0.84375 -2.046875q-0.84375 -0.78125 -2.171875 -0.78125q-1.3125 0 -2.171875 0.78125q-0.859375 0.78125 -0.859375 2.046875q0 1.25 0.859375 2.03125q0.859375 0.78125 2.171875 0.78125zm24.085999 -8.359375q2.15625 0 3.421875 1.265625q1.265625 1.265625 1.265625 3.8125l0 6.5625l-3.328125 0l0 -6.0625q0 -1.359375 -0.5625 -2.03125q-0.5625 -0.671875 -1.609375 -0.671875q-1.171875 0 -1.859375 0.765625q-0.6875 0.75 -0.6875 2.234375l0 5.765625l-3.3125 0l0 -6.0625q0 -2.703125 -2.1875 -2.703125q-1.140625 0 -1.828125 0.765625q-0.6875 0.75 -0.6875 2.234375l0 5.765625l-3.328125 0l0 -11.46875l3.1875 0l0 1.3125q0.640625 -0.71875 1.5625 -1.09375q0.921875 -0.390625 2.03125 -0.390625q1.21875 0 2.203125 0.484375q0.984375 0.46875 1.578125 1.390625q0.703125 -0.90625 1.78125 -1.390625q1.078125 -0.484375 2.359375 -0.484375zm19.048187 5.953125q0 0.0625 -0.0625 0.890625l-8.6875 0q0.234375 1.0625 1.109375 1.6875q0.875 0.609375 2.171875 0.609375q0.90625 0 1.59375 -0.265625q0.6875 -0.265625 1.28125 -0.84375l1.78125 1.921875q-1.625 1.859375 -4.734375 1.859375q-1.9375 0 -3.4375 -0.75q-1.5 -0.765625 -2.3125 -2.109375q-0.796875 -1.34375 -0.796875 -3.046875q0 -1.6875 0.796875 -3.03125q0.796875 -1.359375 2.1875 -2.109375q1.40625 -0.765625 3.125 -0.765625q1.6875 0 3.046875 0.734375q1.375 0.71875 2.15625 2.078125q0.78125 1.34375 0.78125 3.140625zm-5.953125 -3.4375q-1.140625 0 -1.90625 0.640625q-0.765625 0.640625 -0.9375 1.75l5.65625 0q-0.171875 -1.09375 -0.9375 -1.734375q-0.765625 -0.65625 -1.875 -0.65625zm15.145599 -2.515625q2.125 0 3.4375 1.28125q1.3125 1.28125 1.3125 3.796875l0 6.5625l-3.328125 0l0 -6.0625q0 -1.359375 -0.59375 -2.03125q-0.59375 -0.671875 -1.734375 -0.671875q-1.25 0 -2.0 0.78125q-0.75 0.78125 -0.75 2.3125l0 5.671875l-3.328125 0l0 -11.46875l3.1875 0l0 1.34375q0.65625 -0.734375 1.640625 -1.125q0.984375 -0.390625 2.15625 -0.390625zm15.159668 11.09375q-0.484375 0.359375 -1.203125 0.546875q-0.71875 0.171875 -1.5 0.171875q-2.046875 0 -3.171875 -1.046875q-1.125 -1.046875 -1.125 -3.078125l0 -4.703125l-1.765625 0l0 -2.5625l1.765625 0l0 -2.796875l3.328125 0l0 2.796875l2.859375 0l0 2.5625l-2.859375 0l0 4.671875q0 0.71875 0.375 1.125q0.375 0.390625 1.0625 0.390625q0.78125 0 1.34375 -0.4375l0.890625 2.359375zm12.75885 -5.140625q0 0.0625 -0.0625 0.890625l-8.6875 0q0.234375 1.0625 1.109375 1.6875q0.875 0.609375 2.171875 0.609375q0.90625 0 1.59375 -0.265625q0.6875 -0.265625 1.28125 -0.84375l1.78125 1.921875q-1.625 1.859375 -4.734375 1.859375q-1.9375 0 -3.4375 -0.75q-1.5 -0.765625 -2.3125 -2.109375q-0.796875 -1.34375 -0.796875 -3.046875q0 -1.6875 0.796875 -3.03125q0.796875 -1.359375 2.1875 -2.109375q1.40625 -0.765625 3.125 -0.765625q1.6875 0 3.046875 0.734375q1.375 0.71875 2.15625 2.078125q0.78125 1.34375 0.78125 3.140625zm-5.953125 -3.4375q-1.140625 0 -1.90625 0.640625q-0.765625 0.640625 -0.9375 1.75l5.65625 0q-0.171875 -1.09375 -0.9375 -1.734375q-0.765625 -0.65625 -1.875 -0.65625zm11.348724 -0.828125q0.59375 -0.84375 1.609375 -1.265625q1.015625 -0.421875 2.328125 -0.421875l0 3.0625q-0.546875 -0.03125 -0.75 -0.03125q-1.421875 0 -2.234375 0.796875q-0.8125 0.796875 -0.8125 2.390625l0 5.421875l-3.328125 0l0 -11.46875l3.1875 0l0 1.515625z" fill-rule="nonzero"/><path fill="#ffffff" d="m219.3341 165.51625q1.984375 0 3.4375 0.671875q1.46875 0.65625 2.25 1.875q0.796875 1.21875 0.796875 2.875q0 1.640625 -0.796875 2.875q-0.78125 1.21875 -2.25 1.875q-1.453125 0.65625 -3.4375 0.65625l-3.015625 0l0 4.109375l-3.453125 0l0 -14.9375l6.46875 0zm-0.1875 8.0q1.546875 0 2.359375 -0.671875q0.8125 -0.671875 0.8125 -1.90625q0 -1.25 -0.8125 -1.921875q-0.8125 -0.671875 -2.359375 -0.671875l-2.828125 0l0 5.171875l2.828125 0zm14.330704 7.109375q-1.8125 0 -3.265625 -0.75q-1.4375 -0.765625 -2.25 -2.109375q-0.796875 -1.34375 -0.796875 -3.046875q0 -1.703125 0.796875 -3.046875q0.8125 -1.34375 2.25 -2.09375q1.453125 -0.765625 3.265625 -0.765625q1.8125 0 3.234375 0.765625q1.4375 0.75 2.234375 2.09375q0.8125 1.34375 0.8125 3.046875q0 1.703125 -0.8125 3.046875q-0.796875 1.34375 -2.234375 2.109375q-1.421875 0.75 -3.234375 0.75zm0 -2.734375q1.28125 0 2.09375 -0.859375q0.828125 -0.859375 0.828125 -2.3125q0 -1.453125 -0.828125 -2.3125q-0.8125 -0.875 -2.09375 -0.875q-1.28125 0 -2.125 0.875q-0.828125 0.859375 -0.828125 2.3125q0 1.453125 0.828125 2.3125q0.84375 0.859375 2.125 0.859375zm20.18872 -13.265625l0 15.828125l-3.171875 0l0 -1.328125q-1.234375 1.5 -3.578125 1.5q-1.625 0 -2.9375 -0.71875q-1.3125 -0.734375 -2.0625 -2.078125q-0.75 -1.34375 -0.75 -3.109375q0 -1.765625 0.75 -3.109375q0.75 -1.34375 2.0625 -2.0625q1.3125 -0.734375 2.9375 -0.734375q2.1875 0 3.421875 1.375l0 -5.5625l3.328125 0zm-6.1875 13.265625q1.265625 0 2.09375 -0.859375q0.828125 -0.859375 0.828125 -2.3125q0 -1.453125 -0.828125 -2.3125q-0.828125 -0.875 -2.09375 -0.875q-1.265625 0 -2.109375 0.875q-0.828125 0.859375 -0.828125 2.3125q0 1.453125 0.828125 2.3125q0.84375 0.859375 2.109375 0.859375z" fill-rule="nonzero"/><path fill="#009999" d="m866.6273 167.95929l0 0c0 -35.587555 28.849426 -64.43698 64.43695 -64.43698l436.00787 0c17.089844 0 33.479614 6.7888794 45.563843 18.873161c12.084351 12.084282 18.873169 28.474068 18.873169 45.56382l0 257.7402c0 35.587555 -28.849365 64.43698 -64.43701 64.43698l-436.00787 0c-35.587524 0 -64.43695 -28.849426 -64.43695 -64.43698z" fill-rule="evenodd"/><path fill="#ffcc66" d="m307.37454 294.31366l0 0c0 -79.52901 64.47101 -144.0 144.0 -144.0l0 0c38.191193 0 74.818146 15.171387 101.823395 42.17662c27.005249 27.005249 42.176636 63.632217 42.176636 101.82338l0 0c0 79.52902 -64.47101 144.0 -144.00003 144.0l0 0c-79.52899 0 -144.0 -64.47098 -144.0 -144.0z" fill-rule="evenodd"/><path fill="#eeeeee" d="m350.5722 294.315l0 0c0 -55.672028 45.131134 -100.80315 100.80316 -100.80315l0 0c26.73465 0 52.37433 10.620316 71.278564 29.524567c18.904297 18.904251 29.524597 44.54393 29.524597 71.27858l0 0c0 55.67206 -45.131104 100.80316 -100.80316 100.80316l0 0c-55.672028 0 -100.80316 -45.131104 -100.80316 -100.80316z" fill-rule="evenodd"/><path fill="#000000" fill-opacity="0.0" d="m388.98163 258.62204l124.787415 0l0 61.385834l-124.787415 0z" fill-rule="evenodd"/><path fill="#595959" d="m415.06216 294.02933l0 2.765625l-11.5625 0l0 -14.9375l11.28125 0l0 2.78125l-7.84375 0l0 3.234375l6.9375 0l0 2.6875l-6.9375 0l0 3.46875l8.125 0zm9.661896 2.765625l-2.515625 -3.515625l-2.59375 3.515625l-3.640625 0l4.421875 -5.78125l-4.265625 -5.6875l3.734375 0l2.4375 3.34375l2.484375 -3.34375l3.546875 0l-4.265625 5.609375l4.4375 5.859375l-3.78125 0zm16.280731 -5.6875q0 0.0625 -0.0625 0.890625l-8.6875 0q0.234375 1.0625 1.109375 1.6875q0.875 0.609375 2.171875 0.609375q0.90625 0 1.59375 -0.265625q0.6875 -0.265625 1.28125 -0.84375l1.78125 1.921875q-1.625 1.859375 -4.734375 1.859375q-1.9375 0 -3.4375 -0.75q-1.5 -0.765625 -2.3125 -2.109375q-0.796875 -1.34375 -0.796875 -3.046875q0 -1.6875 0.796875 -3.03125q0.796875 -1.359375 2.1875 -2.109375q1.40625 -0.765625 3.125 -0.765625q1.6875 0 3.046875 0.734375q1.375 0.71875 2.15625 2.078125q0.78125 1.34375 0.78125 3.140625zm-5.953125 -3.4375q-1.140625 0 -1.90625 0.640625q-0.765625 0.640625 -0.9375 1.75l5.65625 0q-0.171875 -1.09375 -0.9375 -1.734375q-0.765625 -0.65625 -1.875 -0.65625zm13.708099 9.296875q-1.828125 0 -3.296875 -0.75q-1.453125 -0.765625 -2.28125 -2.109375q-0.8125 -1.34375 -0.8125 -3.046875q0 -1.703125 0.8125 -3.046875q0.828125 -1.34375 2.28125 -2.09375q1.46875 -0.765625 3.296875 -0.765625q1.8125 0 3.171875 0.765625q1.359375 0.75 1.96875 2.15625l-2.578125 1.375q-0.890625 -1.578125 -2.578125 -1.578125q-1.296875 0 -2.15625 0.859375q-0.859375 0.859375 -0.859375 2.328125q0 1.46875 0.859375 2.328125q0.859375 0.84375 2.15625 0.84375q1.703125 0 2.578125 -1.578125l2.578125 1.40625q-0.609375 1.375 -1.96875 2.140625q-1.359375 0.765625 -3.171875 0.765625zm18.620605 -11.640625l0 11.46875l-3.15625 0l0 -1.359375q-0.65625 0.734375 -1.578125 1.140625q-0.921875 0.390625 -1.984375 0.390625q-2.265625 0 -3.59375 -1.296875q-1.3125 -1.3125 -1.3125 -3.859375l0 -6.484375l3.328125 0l0 5.984375q0 2.78125 2.328125 2.78125q1.1875 0 1.90625 -0.78125q0.734375 -0.78125 0.734375 -2.3125l0 -5.671875l3.328125 0zm10.496216 10.921875q-0.484375 0.359375 -1.203125 0.546875q-0.71875 0.171875 -1.5 0.171875q-2.046875 0 -3.171875 -1.046875q-1.125 -1.046875 -1.125 -3.078125l0 -4.703125l-1.765625 0l0 -2.5625l1.765625 0l0 -2.796875l3.328125 0l0 2.796875l2.859375 0l0 2.5625l-2.859375 0l0 4.671875q0 0.71875 0.375 1.125q0.375 0.390625 1.0625 0.390625q0.78125 0 1.34375 -0.4375l0.890625 2.359375zm6.9776 0.71875q-1.8125 0 -3.265625 -0.75q-1.4375 -0.765625 -2.25 -2.109375q-0.796875 -1.34375 -0.796875 -3.046875q0 -1.703125 0.796875 -3.046875q0.8125 -1.34375 2.25 -2.09375q1.453125 -0.765625 3.265625 -0.765625q1.8125 0 3.234375 0.765625q1.4375 0.75 2.234375 2.09375q0.8125 1.34375 0.8125 3.046875q0 1.703125 -0.8125 3.046875q-0.796875 1.34375 -2.234375 2.109375q-1.421875 0.75 -3.234375 0.75zm0 -2.734375q1.28125 0 2.09375 -0.859375q0.828125 -0.859375 0.828125 -2.3125q0 -1.453125 -0.828125 -2.3125q-0.8125 -0.875 -2.09375 -0.875q-1.28125 0 -2.125 0.875q-0.828125 0.859375 -0.828125 2.3125q0 1.453125 0.828125 2.3125q0.84375 0.859375 2.125 0.859375zm11.688721 -7.390625q0.59375 -0.84375 1.609375 -1.265625q1.015625 -0.421875 2.328125 -0.421875l0 3.0625q-0.546875 -0.03125 -0.75 -0.03125q-1.421875 0 -2.234375 0.796875q-0.8125 0.796875 -0.8125 2.390625l0 5.421875l-3.328125 0l0 -11.46875l3.1875 0l0 1.515625z" fill-rule="nonzero"/><path fill="#fca4a4" d="m549.00653 323.64984c-11.449036 42.05487 -51.608276 71.45889 -97.609436 71.46826c-46.00119 0.0093688965 -86.17386 -29.378296 -97.64209 -71.4285z" fill-rule="evenodd"/><path fill="#000000" fill-opacity="0.0" d="m388.98163 325.73227l124.787415 0l0 61.385834l-124.787415 0z" fill-rule="evenodd"/><path fill="#595959" d="m419.02652 348.96768l6.78125 0q2.4375 0 4.296875 0.9375q1.875 0.921875 2.90625 2.609375q1.03125 1.6875 1.03125 3.921875q0 2.25 -1.03125 3.9375q-1.03125 1.671875 -2.90625 2.609375q-1.859375 0.921875 -4.296875 0.921875l-6.78125 0l0 -14.9375zm6.609375 12.09375q2.25 0 3.578125 -1.234375q1.328125 -1.25 1.328125 -3.390625q0 -2.125 -1.328125 -3.375q-1.328125 -1.25 -3.578125 -1.25l-3.15625 0l0 9.25l3.15625 0zm13.960846 -7.109375q0.59375 -0.84375 1.609375 -1.265625q1.015625 -0.421875 2.328125 -0.421875l0 3.0625q-0.546875 -0.03125 -0.75 -0.03125q-1.421875 0 -2.234375 0.796875q-0.8125 0.796875 -0.8125 2.390625l0 5.421875l-3.328125 0l0 -11.46875l3.1875 0l0 1.515625zm5.919647 -1.515625l3.328125 0l0 11.46875l-3.328125 0l0 -11.46875zm1.65625 -1.609375q-0.90625 0 -1.484375 -0.53125q-0.578125 -0.53125 -0.578125 -1.328125q0 -0.78125 0.578125 -1.3125q0.578125 -0.53125 1.484375 -0.53125q0.921875 0 1.5 0.515625q0.578125 0.5 0.578125 1.265625q0 0.84375 -0.578125 1.390625q-0.578125 0.53125 -1.5 0.53125zm16.154144 1.609375l-4.84375 11.46875l-3.421875 0l-4.828125 -11.46875l3.4375 0l3.171875 7.796875l3.28125 -7.796875l3.203125 0zm12.29364 5.78125q0 0.0625 -0.0625 0.890625l-8.6875 0q0.234375 1.0625 1.109375 1.6875q0.875 0.609375 2.171875 0.609375q0.90625 0 1.59375 -0.265625q0.6875 -0.265625 1.28125 -0.84375l1.78125 1.921875q-1.625 1.859375 -4.734375 1.859375q-1.9375 0 -3.4375 -0.75q-1.5 -0.765625 -2.3125 -2.109375q-0.796875 -1.34375 -0.796875 -3.046875q0 -1.6875 0.796875 -3.03125q0.796875 -1.359375 2.1875 -2.109375q1.40625 -0.765625 3.125 -0.765625q1.6875 0 3.046875 0.734375q1.375 0.71875 2.15625 2.078125q0.78125 1.34375 0.78125 3.140625zm-5.953125 -3.4375q-1.140625 0 -1.90625 0.640625q-0.765625 0.640625 -0.9375 1.75l5.65625 0q-0.171875 -1.09375 -0.9375 -1.734375q-0.765625 -0.65625 -1.875 -0.65625zm11.348724 -0.828125q0.59375 -0.84375 1.609375 -1.265625q1.015625 -0.421875 2.328125 -0.421875l0 3.0625q-0.546875 -0.03125 -0.75 -0.03125q-1.421875 0 -2.234375 0.796875q-0.8125 0.796875 -0.8125 2.390625l0 5.421875l-3.328125 0l0 -11.46875l3.1875 0l0 1.515625z" fill-rule="nonzero"/><path fill="#000000" fill-opacity="0.0" d="m415.51706 150.31496l71.71652 0l0 45.196854l-71.71652 0z" fill-rule="evenodd"/><path fill="#595959" d="m440.35144 166.77089q1.734375 0 3.015625 0.578125q1.28125 0.578125 1.96875 1.640625q0.6875 1.0625 0.6875 2.515625q0 1.4375 -0.6875 2.515625q-0.6875 1.078125 -1.96875 1.65625q-1.28125 0.5625 -3.015625 0.5625l-2.625 0l0 3.59375l-3.03125 0l0 -13.0625l5.65625 0zm-0.171875 7.0q1.359375 0 2.0625 -0.578125q0.71875 -0.59375 0.71875 -1.6875q0 -1.09375 -0.71875 -1.671875q-0.703125 -0.59375 -2.0625 -0.59375l-2.453125 0l0 4.53125l2.453125 0zm17.591644 1.078125q0 0.0625 -0.046875 0.78125l-7.59375 0q0.203125 0.9375 0.96875 1.484375q0.765625 0.53125 1.90625 0.53125q0.78125 0 1.375 -0.234375q0.609375 -0.234375 1.140625 -0.734375l1.546875 1.6875q-1.421875 1.625 -4.140625 1.625q-1.703125 0 -3.015625 -0.65625q-1.296875 -0.671875 -2.015625 -1.84375q-0.703125 -1.1875 -0.703125 -2.671875q0 -1.484375 0.703125 -2.65625q0.703125 -1.1875 1.921875 -1.84375q1.21875 -0.671875 2.734375 -0.671875q1.46875 0 2.65625 0.640625q1.203125 0.625 1.875 1.8125q0.6875 1.1875 0.6875 2.75zm-5.203125 -3.0q-0.984375 0 -1.65625 0.5625q-0.671875 0.5625 -0.828125 1.53125l4.953125 0q-0.15625 -0.953125 -0.828125 -1.515625q-0.671875 -0.578125 -1.640625 -0.578125zm10.913971 -2.203125q2.328125 0 3.578125 1.109375q1.25 1.109375 1.25 3.34375l0 5.734375l-2.71875 0l0 -1.25q-0.828125 1.40625 -3.0625 1.40625q-1.15625 0 -2.015625 -0.390625q-0.84375 -0.40625 -1.296875 -1.09375q-0.4375 -0.6875 -0.4375 -1.5625q0 -1.40625 1.046875 -2.203125q1.0625 -0.796875 3.265625 -0.796875l2.3125 0q0 -0.953125 -0.578125 -1.46875q-0.578125 -0.515625 -1.734375 -0.515625q-0.796875 0 -1.578125 0.25q-0.765625 0.25 -1.3125 0.6875l-1.046875 -2.03125q0.828125 -0.578125 1.96875 -0.890625q1.140625 -0.328125 2.359375 -0.328125zm-0.21875 8.375q0.734375 0 1.3125 -0.34375q0.59375 -0.34375 0.828125 -1.015625l0 -1.03125l-2.0 0q-1.78125 0 -1.78125 1.1875q0 0.546875 0.4375 0.875q0.4375 0.328125 1.203125 0.328125z" fill-rule="nonzero"/></g></svg>