<?xml version="1.0" encoding="UTF-8" standalone="no"?>
<svg
   xmlns:dc="http://purl.org/dc/elements/1.1/"
   xmlns:cc="http://creativecommons.org/ns#"
   xmlns:rdf="http://www.w3.org/1999/02/22-rdf-syntax-ns#"
   xmlns:svg="http://www.w3.org/2000/svg"
   xmlns="http://www.w3.org/2000/svg"
   xmlns:sodipodi="http://sodipodi.sourceforge.net/DTD/sodipodi-0.dtd"
   xmlns:inkscape="http://www.inkscape.org/namespaces/inkscape"
   width="688.04718mm"
   height="196.28448mm"
   viewBox="0 0 688.04719 196.28448"
   version="1.1"
   id="svg487"
   inkscape:version="1.0.1 (3bc2e813f5, 2020-09-07, custom)"
   sodipodi:docname="pod_peas.svg">
  <defs
     id="defs481" />
  <sodipodi:namedview
     id="base"
     pagecolor="#ffffff"
     bordercolor="#666666"
     borderopacity="1.0"
     inkscape:pageopacity="0.0"
     inkscape:pageshadow="2"
     inkscape:zoom="0.35"
     inkscape:cx="1195.6874"
     inkscape:cy="367.02585"
     inkscape:document-units="mm"
     inkscape:current-layer="layer1"
     inkscape:document-rotation="0"
     showgrid="false" />
  <metadata
     id="metadata484">
    <rdf:RDF>
      <cc:Work
         rdf:about="">
        <dc:format>image/svg+xml</dc:format>
        <dc:type
           rdf:resource="http://purl.org/dc/dcmitype/StillImage" />
        <dc:title />
      </cc:Work>
    </rdf:RDF>
  </metadata>
  <g
     inkscape:label="Layer 1"
     inkscape:groupmode="layer"
     id="layer1"
     transform="translate(-316.75115,-212.52445)">
    <path
       fill="#cccccc"
       d="m 316.75115,215.52958 v 0 c 0,-1.65968 1.34542,-3.00513 3.0051,-3.00513 h 682.03695 c 0.797,0 1.5614,0.3166 2.125,0.88017 0.5636,0.56359 0.8801,1.32793 0.8801,2.12496 v 190.27425 c 0,1.65965 -1.3455,3.0051 -3.0051,3.0051 H 319.75625 c -1.65968,0 -3.0051,-1.34545 -3.0051,-3.0051 z"
       fill-rule="evenodd"
       id="path358"
       style="stroke-width:0.750214" />
    <path
       fill="#009999"
       d="m 390.82757,255.91453 v 0 c 0,-14.82272 12.01618,-26.83893 26.83892,-26.83893 h 171.24474 c 7.11813,0 13.94473,2.82766 18.97799,7.86094 5.03328,5.03328 7.86095,11.85986 7.86095,18.97799 v 107.35245 c 0,14.82273 -12.01619,26.83894 -26.83894,26.83894 H 417.66649 v 0 c -14.82274,0 -26.83892,-12.01621 -26.83892,-26.83894 z"
       fill-rule="evenodd"
       id="path360"
       style="stroke-width:0.750214" />
    <path
       fill="#009999"
       d="m 670.46387,255.92097 v 0 c 0,-14.82275 12.01619,-26.83891 26.83893,-26.83891 h 191.49464 c 7.11812,0 13.94468,2.82764 18.97796,7.86092 5.03331,5.03326 7.86094,11.85986 7.86094,18.97799 v 107.35245 c 0,14.82275 -12.01619,26.83894 -26.8389,26.83894 H 697.3028 c -14.82274,0 -26.83893,-12.01619 -26.83893,-26.83894 z"
       fill-rule="evenodd"
       id="path362"
       style="stroke-width:0.750214" />
    <path
       fill="#009999"
       d="m 626.60705,257.88451 32.99384,52.75844 -32.99384,52.75847 z"
       fill-rule="evenodd"
       id="path364"
       style="stroke-width:0.750214" />
    <path
       fill="#009999"
       d="m 926.49298,258.46244 32.99389,52.75844 -32.99389,52.75844 z"
       fill-rule="evenodd"
       id="path366"
       style="stroke-width:0.750214" />
    <path
       fill="#ffcc66"
       d="m 449.01732,309.5916 v 0 c 0,-31.82203 25.79682,-57.61887 57.61883,-57.61887 v 0 c 15.28146,0 29.93703,6.07054 40.74267,16.87619 10.80562,10.80562 16.87619,25.46121 16.87619,40.74268 v 0 c 0,31.82199 -25.79684,57.61882 -57.61886,57.61882 v 0 c -31.82199,0 -57.61883,-25.79683 -57.61883,-57.61882 z"
       fill-rule="evenodd"
       id="path368"
       style="stroke-width:0.750214" />
    <path
       fill="#000000"
       fill-opacity="0"
       d="m 670.46435,310.64922 c 25.41279,0 38.11917,-12.67684 50.82559,-25.35372 12.70639,-12.67684 25.41278,-25.35368 50.82553,-25.35368"
       fill-rule="evenodd"
       id="path370"
       style="stroke-width:0.750214" />
    <path
       stroke="#4ed5d5"
       stroke-width="12.0034"
       stroke-linejoin="round"
       stroke-linecap="butt"
       d="m 670.46435,310.64922 c 25.41279,0 38.11917,-12.67684 50.82559,-25.35372 12.70639,-12.67684 25.41278,-25.35368 50.82553,-25.35368"
       fill-rule="evenodd"
       id="path372" />
    <path
       fill="#000000"
       fill-opacity="0"
       d="m 670.46435,310.61944 c 25.41279,0 38.11917,0.0113 50.82559,0.0227 12.70639,0.0113 25.41278,0.0227 50.82553,0.0227"
       fill-rule="evenodd"
       id="path374"
       style="stroke-width:0.750214" />
    <path
       stroke="#4ed5d5"
       stroke-width="12.0034"
       stroke-linejoin="round"
       stroke-linecap="butt"
       d="m 670.46435,310.61944 c 25.41279,0 38.11917,0.0113 50.82559,0.0227 12.70639,0.0113 25.41278,0.0227 50.82553,0.0227"
       fill-rule="evenodd"
       id="path376" />
    <path
       fill="#000000"
       fill-opacity="0"
       d="m 670.46435,310.68415 c 25.41279,0 38.11917,12.67688 50.82559,25.35375 12.70639,12.67682 25.41278,25.35369 50.82553,25.35369"
       fill-rule="evenodd"
       id="path378"
       style="stroke-width:0.750214" />
    <path
       stroke="#4ed5d5"
       stroke-width="12.0034"
       stroke-linejoin="round"
       stroke-linecap="butt"
       d="m 670.46435,310.68415 c 25.41279,0 38.11917,12.67688 50.82559,25.35375 12.70639,12.67682 25.41278,25.35369 50.82553,25.35369"
       fill-rule="evenodd"
       id="path380" />
    <path
       fill="#000000"
       fill-opacity="0"
       d="m 813.92074,259.94156 c 25.40688,0 38.1103,13.06672 50.81377,26.13347 12.70341,13.06671 25.40688,26.13343 50.81374,26.13343"
       fill-rule="evenodd"
       id="path382"
       style="stroke-width:0.750214" />
    <path
       stroke="#4ed5d5"
       stroke-width="12.0034"
       stroke-linejoin="round"
       stroke-linecap="butt"
       d="m 813.92074,259.94156 c 25.40688,0 38.1103,13.06672 50.81377,26.13347 12.70341,13.06671 25.40688,26.13343 50.81374,26.13343"
       fill-rule="evenodd"
       id="path384" />
    <path
       fill="#000000"
       fill-opacity="0"
       d="m 813.92074,361.39185 c 25.40688,0 38.1103,-12.29883 50.81377,-24.59759 12.70341,-12.2988 25.40688,-24.59759 50.81374,-24.59759"
       fill-rule="evenodd"
       id="path386"
       style="stroke-width:0.750214" />
    <path
       stroke="#4ed5d5"
       stroke-width="12.0034"
       stroke-linejoin="round"
       stroke-linecap="butt"
       d="m 813.92074,361.39185 c 25.40688,0 38.1103,-12.29883 50.81377,-24.59759 12.70341,-12.2988 25.40688,-24.59759 50.81374,-24.59759"
       fill-rule="evenodd"
       id="path388" />
    <path
       fill="#000000"
       fill-opacity="0"
       d="m 813.93704,310.66867 c 25.40689,0 38.11036,0.38988 50.81377,0.77975 12.70342,0.38988 25.40687,0.77975 50.81376,0.77975"
       fill-rule="evenodd"
       id="path390"
       style="stroke-width:0.750214" />
    <path
       stroke="#4ed5d5"
       stroke-width="12.0034"
       stroke-linejoin="round"
       stroke-linecap="butt"
       d="m 813.93704,310.66867 c 25.40689,0 38.11036,0.38988 50.81377,0.77975 12.70342,0.38988 25.40687,0.77975 50.81376,0.77975"
       fill-rule="evenodd"
       id="path392" />
    <path
       fill="#ffcc66"
       d="m 769.98551,260.7232 v 0 c 0,-12.63223 10.31978,-22.87268 23.04991,-22.87268 v 0 c 6.11321,0 11.976,2.4098 16.29871,6.69924 4.32271,4.28948 6.75114,10.10725 6.75114,16.17344 v 0 c 0,12.63222 -10.31975,22.8727 -23.04985,22.8727 v 0 c -12.73013,0 -23.04991,-10.24048 -23.04991,-22.8727 z"
       fill-rule="evenodd"
       id="path394"
       style="stroke-width:0.750214" />
    <path
       fill="#ffcc66"
       d="m 769.99736,311.44808 v 0 c 0,-12.63221 10.31979,-22.87266 23.0499,-22.87266 v 0 c 6.11323,0 11.97608,2.40979 16.29873,6.69925 4.32271,4.28945 6.75112,10.1072 6.75112,16.17341 v 0 c 0,12.63225 -10.31975,22.8727 -23.04985,22.8727 v 0 c -12.73011,0 -23.0499,-10.24045 -23.0499,-22.8727 z"
       fill-rule="evenodd"
       id="path396"
       style="stroke-width:0.750214" />
    <path
       fill="#ffcc66"
       d="m 769.98551,362.17298 v 0 c 0,-12.6322 10.31978,-22.87268 23.04991,-22.87268 v 0 c 6.11321,0 11.976,2.40979 16.29871,6.69926 4.32271,4.28945 6.75114,10.10719 6.75114,16.17342 v 0 c 0,12.63221 -10.31975,22.87266 -23.04985,22.87266 v 0 c -12.73013,0 -23.04991,-10.24042 -23.04991,-22.87266 z"
       fill-rule="evenodd"
       id="path398"
       style="stroke-width:0.750214" />
    <path
       fill="#000000"
       fill-opacity="0"
       d="m 390.82757,309.59078 c 6.90544,0 6.53618,0.0113 13.81092,0.0227 7.27469,0.0113 22.1934,0.0227 44.38682,0.0227"
       fill-rule="evenodd"
       id="path400"
       style="stroke-width:0.750214" />
    <path
       stroke="#4ed5d5"
       stroke-width="18.0051"
       stroke-linejoin="round"
       stroke-linecap="butt"
       d="m 390.82757,309.59078 c 6.90544,0 6.53618,0.0113 13.81092,0.0227 7.27469,0.0113 22.1934,0.0227 44.38682,0.0227"
       fill-rule="evenodd"
       id="path402" />
    <path
       fill="#000000"
       fill-opacity="0"
       d="m 564.25501,309.5916 c 12.89131,0 19.3468,0.0113 25.7827,0.0227 6.43589,0.0113 12.85225,0.0227 25.70445,0.0227"
       fill-rule="evenodd"
       id="path404"
       style="stroke-width:0.750214" />
    <path
       stroke="#4ed5d5"
       stroke-width="18.0051"
       stroke-linejoin="round"
       stroke-linecap="butt"
       d="m 564.25501,309.5916 c 12.89131,0 19.3468,0.0113 25.7827,0.0227 6.43589,0.0113 12.85225,0.0227 25.70445,0.0227"
       fill-rule="evenodd"
       id="path406" />
    <path
       fill="#000000"
       fill-opacity="0"
       d="m 678.19115,229.08234 h 121.99549 v 33.90733 H 678.19115 Z"
       fill-rule="evenodd"
       id="path408"
       style="stroke-width:0.750214" />
    <path
       fill="#ffffff"
       d="m 693.68776,247.46119 v 1.81693 h -7.58418 v -9.79968 h 7.40835 v 1.81694 h -5.15771 v 2.13341 h 4.54817 v 1.7583 h -4.54817 v 2.2741 z m 6.22646,-5.8259 q 1.40666,0 2.26239,0.844 0.86742,0.83226 0.86742,2.48508 v 4.31375 H 700.852 v -3.97381 q 0,-0.90259 -0.38684,-1.33633 -0.38681,-0.44542 -1.13705,-0.44542 -0.82052,0 -1.31287,0.51577 -0.49233,0.50403 -0.49233,1.51216 v 3.72763 h -2.18029 v -7.5256 h 2.08653 v 0.87917 q 0.43371,-0.48061 1.07844,-0.73852 0.64469,-0.25802 1.40663,-0.25802 z m 8.81762,7.76005 q -1.19562,0 -2.15685,-0.49233 -0.96121,-0.50406 -1.50042,-1.38322 -0.53923,-0.89087 -0.53923,-2.00447 0,-1.12533 0.53923,-2.0045 0.53921,-0.87913 1.50042,-1.37147 0.96123,-0.50406 2.15685,-0.50406 1.19566,0 2.08656,0.50406 0.89087,0.49234 1.28943,1.41837 l -1.68799,0.90262 q -0.58611,-1.03155 -1.6997,-1.03155 -0.85572,0 -1.41838,0.56264 -0.55094,0.55093 -0.55094,1.52389 0,0.96122 0.55094,1.52386 0.56266,0.56267 1.41838,0.56267 1.12531,0 1.6997,-1.04328 l 1.68799,0.92607 q -0.39856,0.90258 -1.28943,1.40664 -0.8909,0.50406 -2.08656,0.50406 z m 8.12688,0 q -1.19566,0 -2.14516,-0.49233 -0.93775,-0.50406 -1.47697,-1.38322 -0.52751,-0.89087 -0.52751,-2.00447 0,-1.12533 0.52751,-2.0045 0.53922,-0.87913 1.47697,-1.37147 0.9495,-0.50406 2.14516,-0.50406 1.18392,0 2.12168,0.50406 0.93777,0.49234 1.46529,1.37147 0.53918,0.87917 0.53918,2.0045 0,1.1136 -0.53918,2.00447 -0.52752,0.87916 -1.46529,1.38322 -0.93776,0.49233 -2.12168,0.49233 z m 0,-1.79349 q 0.83226,0 1.37148,-0.56267 0.53922,-0.57438 0.53922,-1.52386 0,-0.94951 -0.53922,-1.51214 -0.53922,-0.57439 -1.37148,-0.57439 -0.844,0 -1.39494,0.57439 -0.53921,0.56263 -0.53921,1.51214 0,0.94948 0.53921,1.52386 0.55094,0.56267 1.39494,0.56267 z m 13.24679,-8.70953 v 10.3858 h -2.08654 v -0.86745 q -0.80882,0.98467 -2.34441,0.98467 -1.0667,0 -1.93415,-0.48061 -0.85572,-0.48061 -1.34804,-1.35978 -0.48061,-0.87916 -0.48061,-2.03963 0,-1.16049 0.48061,-2.03966 0.49232,-0.89087 1.34804,-1.35976 0.86745,-0.48061 1.93415,-0.48061 1.44182,0 2.25064,0.91435 v -3.65732 z m -4.05586,8.70953 q 0.82055,0 1.37151,-0.56267 0.55094,-0.57438 0.55094,-1.52386 0,-0.94951 -0.55094,-1.51214 -0.55096,-0.57439 -1.37151,-0.57439 -0.84397,0 -1.39491,0.57439 -0.53921,0.56263 -0.53921,1.51214 0,0.94948 0.53921,1.52386 0.55094,0.56267 1.39491,0.56267 z m 13.44815,-2.06308 q 0,0.0467 -0.0352,0.58609 h -5.69694 q 0.15226,0.70334 0.72677,1.1136 0.57439,0.39854 1.43011,0.39854 0.58609,0 1.03153,-0.17578 0.45716,-0.1758 0.85572,-0.55094 l 1.16048,1.26598 q -1.06672,1.21911 -3.10635,1.21911 -1.27771,0 -2.26239,-0.49233 -0.97292,-0.50406 -1.51214,-1.38322 -0.52748,-0.89087 -0.52748,-2.00447 0,-1.1136 0.52748,-1.99276 0.52751,-0.89087 1.44183,-1.38321 0.91433,-0.50404 2.05136,-0.50404 1.10187,0 1.99277,0.48061 0.90261,0.46887 1.40664,1.35974 0.51577,0.8909 0.51577,2.06311 z m -3.90346,-2.25064 q -0.73849,0 -1.24253,0.42197 -0.50406,0.422 -0.62127,1.14878 h 3.71588 q -0.11704,-0.71507 -0.62127,-1.13704 -0.50403,-0.43371 -1.23081,-0.43371 z m 7.44837,-0.55096 q 0.38685,-0.53922 1.05502,-0.82055 0.66815,-0.28128 1.5356,-0.28128 v 2.01621 q -0.36339,-0.0227 -0.49235,-0.0227 -0.93777,0 -1.47699,0.52751 -0.52748,0.51577 -0.52748,1.57076 v 3.55177 h -2.18032 v -7.52557 h 2.08652 z"
       fill-rule="nonzero"
       id="path410"
       style="stroke-width:0.750214" />
    <path
       fill="#ffffff"
       d="m 690.34697,255.98315 q 1.30116,0 2.26236,0.43371 0.96122,0.43374 1.47699,1.23085 0.51576,0.7971 0.51576,1.88725 0,1.07843 -0.51576,1.88725 -0.51577,0.80885 -1.47699,1.24256 -0.9612,0.42199 -2.26236,0.42199 h -1.9693 v 2.69607 h -2.27409 v -9.79968 z m -0.12904,5.25151 q 1.01983,0 1.54734,-0.43374 0.53922,-0.44541 0.53922,-1.26596 0,-0.82056 -0.53922,-1.25428 -0.52751,-0.44544 -1.54734,-0.44544 h -1.84035 v 3.39942 z m 9.41125,4.66539 q -1.19566,0 -2.14514,-0.49233 -0.93777,-0.50406 -1.47698,-1.38319 -0.52749,-0.8909 -0.52749,-2.0045 0,-1.1253 0.52749,-2.00446 0.53921,-0.87917 1.47698,-1.37148 0.94948,-0.50406 2.14514,-0.50406 1.18395,0 2.12171,0.50406 0.93777,0.49231 1.46526,1.37148 0.53921,0.87916 0.53921,2.00446 0,1.1136 -0.53921,2.0045 -0.52749,0.87913 -1.46526,1.38319 -0.93776,0.49233 -2.12171,0.49233 z m 0,-1.79349 q 0.83229,0 1.37151,-0.56264 0.53922,-0.57437 0.53922,-1.52389 0,-0.94948 -0.53922,-1.51214 -0.53922,-0.57439 -1.37151,-0.57439 -0.84397,0 -1.39494,0.57439 -0.53918,0.56266 -0.53918,1.51214 0,0.94952 0.53918,1.52389 0.55097,0.56264 1.39494,0.56264 z m 13.24679,-8.7095 v 10.38577 h -2.08651 v -0.86743 q -0.80882,0.98465 -2.34441,0.98465 -1.0667,0 -1.93415,-0.48061 -0.85572,-0.48058 -1.34804,-1.35975 -0.48061,-0.87916 -0.48061,-2.03966 0,-1.16046 0.48061,-2.03963 0.49232,-0.8909 1.34804,-1.35976 0.86745,-0.48061 1.93415,-0.48061 1.44182,0 2.25064,0.91432 v -3.65729 z m -4.05583,8.7095 q 0.82055,0 1.37148,-0.56264 0.55094,-0.57437 0.55094,-1.52389 0,-0.94948 -0.55094,-1.51214 -0.55093,-0.57439 -1.37148,-0.57439 -0.844,0 -1.39494,0.57439 -0.53921,0.56266 -0.53921,1.51214 0,0.94952 0.53921,1.52389 0.55094,0.56264 1.39494,0.56264 z"
       fill-rule="nonzero"
       id="path412"
       style="stroke-width:0.750214" />
    <path
       fill="#000000"
       fill-opacity="0"
       d="m 473.40618,294.49474 h 66.46785 v 33.90734 h -66.46785 z"
       fill-rule="evenodd"
       id="path414"
       style="stroke-width:0.750214" />
    <path
       fill="#595959"
       d="m 498.3698,306.84021 q 1.30116,0 2.26238,0.43371 0.96123,0.43372 1.47699,1.23082 0.51577,0.79709 0.51577,1.88727 0,1.07842 -0.51577,1.88725 -0.51576,0.80882 -1.47699,1.24256 -0.96122,0.42198 -2.26238,0.42198 h -1.96931 v 2.6961 h -2.27409 v -9.79969 z m -0.12904,5.25149 q 1.01983,0 1.54734,-0.43371 0.53922,-0.44545 0.53922,-1.26598 0,-0.82055 -0.53922,-1.25426 -0.52751,-0.44545 -1.54734,-0.44545 h -1.84035 v 3.3994 z m 13.19752,0.80885 q 0,0.0467 -0.0352,0.58609 h -5.69695 q 0.15226,0.70332 0.72675,1.11359 0.57441,0.39855 1.43013,0.39855 0.58609,0 1.03153,-0.1758 0.45716,-0.1758 0.85572,-0.55092 l 1.16049,1.26599 q -1.06673,1.21908 -3.10636,1.21908 -1.27771,0 -2.26238,-0.49231 -0.97293,-0.50406 -1.51215,-1.38319 -0.52751,-0.8909 -0.52751,-2.0045 0,-1.1136 0.52751,-1.99276 0.52751,-0.89087 1.44184,-1.3832 0.91432,-0.50406 2.05136,-0.50406 1.10185,0 1.99275,0.48061 0.90259,0.46888 1.40665,1.35975 0.51577,0.8909 0.51577,2.06311 z m -3.90346,-2.25065 q -0.73849,0 -1.24255,0.42198 -0.50406,0.42199 -0.62129,1.14878 h 3.71593 q -0.11704,-0.71505 -0.62127,-1.13705 -0.50407,-0.43371 -1.23082,-0.43371 z m 8.18781,-1.65282 q 1.74661,0 2.68435,0.83227 0.93777,0.83226 0.93777,2.50853 v 4.30202 h -2.03962 v -0.93778 q -0.62129,1.05498 -2.29754,1.05498 -0.86744,0 -1.51216,-0.29303 -0.63299,-0.30479 -0.97293,-0.82057 -0.32823,-0.51576 -0.32823,-1.1722 0,-1.05498 0.78539,-1.65282 0.7971,-0.59782 2.44992,-0.59782 h 1.73487 q 0,-0.71505 -0.43374,-1.10188 -0.43371,-0.38681 -1.30113,-0.38681 -0.59782,0 -1.18394,0.18741 -0.57438,0.18742 -0.98464,0.51577 l -0.7854,-1.52389 q 0.62129,-0.43371 1.47699,-0.66814 0.85572,-0.24613 1.77004,-0.24613 z m -0.16418,6.28304 q 0.55096,0 0.98467,-0.25803 0.44542,-0.25802 0.62128,-0.76194 v -0.77365 h -1.50044 q -1.33632,0 -1.33632,0.89087 0,0.41029 0.32823,0.65643 0.32821,0.24612 0.90258,0.24612 z"
       fill-rule="nonzero"
       id="path416"
       style="stroke-width:0.750214" />
    <path
       fill="#000000"
       fill-opacity="0"
       d="m 333.03138,218.06541 h 51.48718 v 33.90732 h -51.48718 z"
       fill-rule="evenodd"
       id="path418"
       style="stroke-width:0.750214" />
    <path
       fill="#595959"
       d="m 343.2179,230.27842 v 2.59059 h 4.52473 v 1.82865 h -4.52473 v 3.56352 h -2.2741 v -9.79968 h 7.40837 v 1.81692 z m 6.51707,-2.40304 h 2.18032 v 10.3858 h -2.18032 z m 7.79983,10.50301 q -1.19566,0 -2.14514,-0.49232 -0.93777,-0.50406 -1.47698,-1.38321 -0.52749,-0.89088 -0.52749,-2.00448 0,-1.1253 0.52749,-2.00447 0.53921,-0.87916 1.47698,-1.37147 0.94948,-0.50406 2.14514,-0.50406 1.18394,0 2.12171,0.50406 0.93777,0.49231 1.46526,1.37147 0.53921,0.87917 0.53921,2.00447 0,1.1136 -0.53921,2.00448 -0.52749,0.87915 -1.46526,1.38321 -0.93777,0.49232 -2.12171,0.49232 z m 0,-1.79348 q 0.83227,0 1.37148,-0.56264 0.53922,-0.57441 0.53922,-1.52389 0,-0.94948 -0.53922,-1.51214 -0.53921,-0.57439 -1.37148,-0.57439 -0.84397,0 -1.39494,0.57439 -0.53921,0.56266 -0.53921,1.51214 0,0.94948 0.53921,1.52389 0.55097,0.56264 1.39494,0.56264 z m 17.46771,-5.84932 -2.73125,7.52559 H 370.173 l -1.69972,-4.67712 -1.74659,4.67712 h -2.09826 l -2.71952,-7.52559 h 2.06308 l 1.77004,5.08738 1.85211,-5.08738 h 1.8521 l 1.78174,5.08738 1.84038,-5.08738 z"
       fill-rule="nonzero"
       id="path420"
       style="stroke-width:0.750214" />
    <path
       fill="#000000"
       fill-opacity="0"
       d="m 399.06207,229.08234 h 121.99552 v 41.63395 H 399.06207 Z"
       fill-rule="evenodd"
       id="path422"
       style="stroke-width:0.750214" />
    <path
       fill="#ffffff"
       d="m 410.19808,249.44223 q -1.1605,0 -2.25065,-0.30479 -1.07844,-0.31648 -1.74658,-0.82055 l 0.77365,-1.71142 q 0.63299,0.45716 1.50041,0.7385 0.86745,0.28127 1.73487,0.28127 0.96123,0 1.41839,-0.28127 0.46889,-0.29306 0.46889,-0.76195 0,-0.35166 -0.26964,-0.58609 -0.26966,-0.23449 -0.70334,-0.3751 -0.42201,-0.14062 -1.14876,-0.30479 -1.12533,-0.26964 -1.84038,-0.5275 -0.71504,-0.26965 -1.23082,-0.85571 -0.50405,-0.58609 -0.50405,-1.57077 0,-0.8557 0.45716,-1.5473 0.4689,-0.69163 1.39492,-1.09017 0.93778,-0.41026 2.27411,-0.41026 0.93775,0 1.82863,0.22287 0.90262,0.22285 1.58251,0.64472 l -0.70334,1.72312 q -1.35978,-0.77365 -2.71952,-0.77365 -0.94951,0 -1.40667,0.31651 -0.45716,0.30477 -0.45716,0.8088 0,0.50406 0.52751,0.75024 0.52747,0.23449 1.60592,0.48061 1.11359,0.25803 1.82863,0.52747 0.71506,0.26966 1.21911,0.844 0.51578,0.57439 0.51578,1.54731 0,0.844 -0.46888,1.53561 -0.4689,0.6916 -1.40667,1.10189 -0.93774,0.39854 -2.27406,0.39854 z m 12.92682,-3.90346 q 0,0.0467 -0.0352,0.58609 h -5.69693 q 0.15255,0.70334 0.72675,1.1136 0.57441,0.39854 1.43012,0.39854 0.58608,0 1.03154,-0.17578 0.45716,-0.1758 0.85571,-0.55094 l 1.1605,1.26601 q -1.06673,1.21908 -3.10636,1.21908 -1.27771,0 -2.26238,-0.49233 -0.97293,-0.50406 -1.51215,-1.38319 -0.52748,-0.8909 -0.52748,-2.0045 0,-1.1136 0.52748,-1.99276 0.5275,-0.89087 1.44182,-1.38319 0.91433,-0.50406 2.05138,-0.50406 1.10185,0 1.99275,0.48061 0.90259,0.46887 1.40664,1.35974 0.51578,0.8909 0.51578,2.06311 z m -3.90347,-2.25064 q -0.7385,0 -1.24254,0.42197 -0.50404,0.422 -0.62129,1.14878 h 3.71592 q -0.11704,-0.71504 -0.62127,-1.13704 -0.50406,-0.43371 -1.23082,-0.43371 z m 13.13361,-1.53561 v 6.27134 q 0,2.06307 -1.07844,3.07118 -1.07843,1.0081 -3.15325,1.0081 -1.09015,0 -2.07481,-0.26966 -0.97294,-0.25802 -1.61764,-0.76194 l 0.86742,-1.57075 q 0.46888,0.39854 1.19566,0.62127 0.73849,0.23449 1.46529,0.23449 1.1253,0 1.66452,-0.51577 0.53921,-0.50406 0.53921,-1.54731 v -0.31651 q -0.844,0.93777 -2.37959,0.93777 -1.03155,0 -1.89897,-0.45716 -0.8557,-0.45716 -1.35976,-1.27771 -0.50407,-0.83227 -0.50407,-1.89897 0,-1.07844 0.50407,-1.899 0.50406,-0.83225 1.35976,-1.28941 0.86742,-0.45717 1.89897,-0.45717 1.6411,0 2.49682,1.07844 v -0.96123 z m -4.13789,5.36872 q 0.86742,0 1.41834,-0.50406 0.56268,-0.51577 0.56268,-1.33629 0,-0.8323 -0.56268,-1.33632 -0.55092,-0.51578 -1.41834,-0.51578 -0.86745,0 -1.43012,0.51578 -0.55093,0.50402 -0.55093,1.33632 0,0.82052 0.55093,1.33629 0.56267,0.50406 1.43012,0.50406 z m 15.81076,-5.48593 q 1.40664,0 2.2389,0.83227 0.8323,0.83226 0.8323,2.49682 v 4.31372 h -2.18033 v -3.97381 q 0,-0.90259 -0.37511,-1.33633 -0.36339,-0.44542 -1.05498,-0.44542 -0.76194,0 -1.21911,0.50407 -0.44542,0.49231 -0.44542,1.47696 v 3.77453 h -2.18032 v -3.97381 q 0,-1.78175 -1.43009,-1.78175 -0.75021,0 -1.2074,0.50407 -0.44542,0.49231 -0.44542,1.47696 v 3.77453 h -2.18033 v -7.5256 h 2.08653 v 0.86744 q 0.42201,-0.48061 1.03158,-0.72676 0.60954,-0.25803 1.33631,-0.25803 0.7971,0 1.44181,0.31649 0.64472,0.3165 1.03156,0.91432 0.45713,-0.58611 1.16047,-0.9026 0.71505,-0.32821 1.55905,-0.32821 z m 12.49193,3.90346 q 0,0.0467 -0.0351,0.58609 h -5.69695 q 0.15227,0.70334 0.72677,1.1136 0.57437,0.39854 1.43008,0.39854 0.58612,0 1.03158,-0.17578 0.45716,-0.1758 0.8557,-0.55094 l 1.16048,1.26601 q -1.0667,1.21908 -3.10636,1.21908 -1.27771,0 -2.26236,-0.49233 -0.97292,-0.50406 -1.51214,-1.38319 -0.52751,-0.8909 -0.52751,-2.0045 0,-1.1136 0.52751,-1.99276 0.52747,-0.89087 1.44179,-1.38319 0.91435,-0.50406 2.05138,-0.50406 1.10188,0 1.99275,0.48061 0.90261,0.46887 1.40667,1.35974 0.51576,0.8909 0.51576,2.06311 z m -3.90345,-2.25064 q -0.7385,0 -1.24256,0.42197 -0.50405,0.422 -0.62127,1.14878 h 3.71592 q -0.11704,-0.71504 -0.62127,-1.13704 -0.50406,-0.43371 -1.23082,-0.43371 z m 9.93345,-1.65282 q 1.40668,0 2.26238,0.84398 0.86743,0.83226 0.86743,2.48511 v 4.31372 h -2.19204 v -3.97381 q 0,-0.90259 -0.38681,-1.33633 -0.38684,-0.44542 -1.13705,-0.44542 -0.82055,0 -1.31286,0.51577 -0.49235,0.50406 -0.49235,1.51216 v 3.72763 h -2.1803 v -7.5256 h 2.08653 v 0.87917 q 0.43371,-0.48061 1.07843,-0.73849 0.64474,-0.25803 1.40664,-0.25803 z m 9.95271,7.27942 q -0.31649,0.23449 -0.78538,0.36339 -0.46888,0.11718 -0.98465,0.11718 -1.34806,0 -2.08653,-0.67989 -0.72679,-0.6916 -0.72679,-2.02793 v -3.09463 h -1.16049 v -1.67627 h 1.16049 v -1.82865 h 2.18033 v 1.82868 h 1.87552 v 1.67624 h -1.87552 v 3.07118 q 0,0.46891 0.24612,0.72679 0.24611,0.25775 0.6916,0.25775 0.51577,0 0.87915,-0.26966 z m 8.37052,-3.37596 q 0,0.0467 -0.0351,0.58609 h -5.69695 q 0.15227,0.70334 0.72676,1.1136 0.57437,0.39854 1.43012,0.39854 0.58609,0 1.03153,-0.17578 0.45716,-0.1758 0.85572,-0.55094 l 1.1605,1.26601 q -1.06673,1.21908 -3.10635,1.21908 -1.27776,0 -2.26239,-0.49233 -0.97293,-0.50406 -1.51216,-1.38319 -0.52749,-0.8909 -0.52749,-2.0045 0,-1.1136 0.52749,-1.99276 0.52749,-0.89087 1.44181,-1.38319 0.91432,-0.50406 2.0514,-0.50406 1.10186,0 1.99276,0.48061 0.9026,0.46887 1.40664,1.35974 0.51576,0.8909 0.51576,2.06311 z m -3.90345,-2.25064 q -0.7385,0 -1.24256,0.42197 -0.50403,0.422 -0.62127,1.14878 h 3.71592 q -0.11704,-0.71504 -0.62128,-1.13704 -0.50402,-0.43371 -1.23081,-0.43371 z m 7.44841,-0.55096 q 0.38681,-0.53922 1.05498,-0.82052 0.66814,-0.28128 1.53559,-0.28128 v 2.01618 q -0.36339,-0.0227 -0.49234,-0.0227 -0.93777,0 -1.47696,0.52751 -0.52752,0.51577 -0.52752,1.57076 v 3.5518 h -2.18031 v -7.52556 h 2.08656 z"
       fill-rule="nonzero"
       id="path424"
       style="stroke-width:0.750214" />
    <path
       fill="#ffffff"
       d="m 411.21791,255.98315 q 1.30113,0 2.26235,0.43371 0.96121,0.43374 1.47699,1.23085 0.51577,0.7971 0.51577,1.88725 0,1.07843 -0.51577,1.88725 -0.51578,0.80885 -1.47699,1.24256 -0.96122,0.42199 -2.26235,0.42199 h -1.96932 v 2.69607 h -2.27409 v -9.79968 z m -0.12904,5.25151 q 1.01982,0 1.54729,-0.43374 0.53923,-0.44541 0.53923,-1.26596 0,-0.82056 -0.53923,-1.25428 -0.52747,-0.44544 -1.54729,-0.44544 h -1.84037 v 3.39942 z m 9.41127,4.66539 q -1.19565,0 -2.14513,-0.49233 -0.93777,-0.50406 -1.47699,-1.38319 -0.52751,-0.8909 -0.52751,-2.0045 0,-1.1253 0.52751,-2.00446 0.53922,-0.87917 1.47699,-1.37148 0.94948,-0.50406 2.14513,-0.50406 1.18391,0 2.12168,0.50406 0.93778,0.49231 1.46529,1.37148 0.53922,0.87916 0.53922,2.00446 0,1.1136 -0.53922,2.0045 -0.52751,0.87913 -1.46529,1.38319 -0.93777,0.49233 -2.12168,0.49233 z m 0,-1.79349 q 0.83226,0 1.37149,-0.56264 0.53921,-0.57437 0.53921,-1.52389 0,-0.94948 -0.53921,-1.51214 -0.53923,-0.57439 -1.37149,-0.57439 -0.844,0 -1.39493,0.57439 -0.53922,0.56266 -0.53922,1.51214 0,0.94952 0.53922,1.52389 0.55093,0.56264 1.39493,0.56264 z m 13.2468,-8.7095 v 10.38577 h -2.08653 v -0.86743 q -0.80885,0.98465 -2.34441,0.98465 -1.06673,0 -1.93418,-0.48061 -0.85568,-0.48058 -1.34801,-1.35975 -0.48061,-0.87916 -0.48061,-2.03966 0,-1.16046 0.48061,-2.03963 0.49233,-0.8909 1.34804,-1.35976 0.86742,-0.48061 1.93415,-0.48061 1.4418,0 2.25065,0.91432 v -3.65729 z m -4.05584,8.7095 q 0.82052,0 1.37149,-0.56264 0.55092,-0.57437 0.55092,-1.52389 0,-0.94948 -0.55092,-1.51214 -0.55097,-0.57439 -1.37149,-0.57439 -0.844,0 -1.39493,0.57439 -0.53922,0.56266 -0.53922,1.51214 0,0.94952 0.53922,1.52389 0.55093,0.56264 1.39493,0.56264 z"
       fill-rule="nonzero"
       id="path426"
       style="stroke-width:0.750214" />
  </g>
</svg>
