<?xml version="1.0" encoding="UTF-8" standalone="no"?>
<svg
   xmlns:dc="http://purl.org/dc/elements/1.1/"
   xmlns:cc="http://creativecommons.org/ns#"
   xmlns:rdf="http://www.w3.org/1999/02/22-rdf-syntax-ns#"
   xmlns:svg="http://www.w3.org/2000/svg"
   xmlns="http://www.w3.org/2000/svg"
   xmlns:sodipodi="http://sodipodi.sourceforge.net/DTD/sodipodi-0.dtd"
   xmlns:inkscape="http://www.inkscape.org/namespaces/inkscape"
   id="Layer_1"
   data-name="Layer 1"
   viewBox="0 0 300.54428 323.14746"
   version="1.1"
   sodipodi:docname="yaml.svg"
   width="300.54428"
   height="323.14746"
   inkscape:version="1.0.1 (3bc2e813f5, 2020-09-07, custom)">
  <metadata
     id="metadata4697">
    <rdf:RDF>
      <cc:Work
         rdf:about="">
        <dc:format>image/svg+xml</dc:format>
        <dc:type
           rdf:resource="http://purl.org/dc/dcmitype/StillImage" />
      </cc:Work>
    </rdf:RDF>
  </metadata>
  <sodipodi:namedview
     pagecolor="#ffffff"
     bordercolor="#666666"
     borderopacity="1"
     objecttolerance="10"
     gridtolerance="10"
     guidetolerance="10"
     inkscape:pageopacity="0"
     inkscape:pageshadow="2"
     inkscape:window-width="640"
     inkscape:window-height="480"
     id="namedview4695"
     showgrid="false"
     inkscape:zoom="1.1585714"
     inkscape:cx="150.28531"
     inkscape:cy="161.57983"
     inkscape:current-layer="Layer_1" />
  <defs
     id="defs4650">
    <style
       id="style4648">.cls-1{fill:#fbc96e;}.cls-2{fill:#3dc7cb;}.cls-3{fill:#fbca6f;}.cls-4{fill:#353638;}.cls-5{fill:#363637;}.cls-6{fill:#fcfcfb;}.cls-7{fill:#3b3a38;}.cls-8{fill:#185ebc;}.cls-9{fill:#383838;}</style>
  </defs>
  <title
     id="title4652">YAML FLAT</title>
  <path
     class="cls-1"
     d="m 44.835307,154.88983 c 0.43,-7.46 0.8,-14.93 1.31,-22.38 0.47,-6.79 1.09,-13.56 1.64,-20.34 0.9,-3.51 0.79,-5.38 1.65,-8.9 0,-0.12 0.56,-2 0.32,-2.18 1.76,-8.75 3.18,-17.59 5.34,-26.24 a 215,215 0 0 1 20.19,-51.08 c 2,-3.62 3.66,-7.4 5.45,-11.12 2,-4.1899996 5,-6.9999996 10,-6.9499996 1.33,0 2.66,-0.18 4,-0.23 12.450003,-0.47 24.920003,-0.87 37.370003,-1.41 13.12,-0.57 26.22,-1.3 39.34,-1.9 2.8,-0.13 5.66,-0.42 8.22,1.23 a 20.65,20.65 0 0 1 2.48,1.61 c 6.84,5.9999996 13.86,11.8999996 20.43,18.2299996 6.57,6.33 12,13.74 17.12,21.35 1.7,2.54 1.47,4.92 0.66,7.5 -3.22,10.21 -4.42,20.72 -4.75,31.36 -0.89,0.72 -1.82,1.4 -2.67,2.17 -4.78,4.31 -9.71,8.47 -14.25,13 -2.34,2.35 -4.38,5.25 -4.16,9.31 3.83,-0.39 5.71,-2.86 7.73,-5.23 3.45,-4 7.15,-7.77 12.3,-9.65 l -1,48.68 c -7.26,-0.57 -14.52,-1.61 -21.79,-1.61 -16.6,0 -33.2,0.36 -49.79,0.93 -9.6,0.33 -19.19,1.14 -28.74,2.15 -9.2,1 -18.390003,2.22 -27.500003,3.82 -13.72,2.43 -27.3,5.24 -40.9,7.88 z m 85.450003,-108.53 a 14.66,14.66 0 0 0 -1.18,-2.57 c -4.19,-5.22 -9.43,-7.08 -16.18,-6 -7.7,1.29 -13.530003,5.4 -18.310003,11.06 -6.33,7.48 -9.51,16.15 -7.86,26.13 1.47,8.84 10.37,15.43 18.820003,13.84 a 29.19,29.19 0 0 0 11.84,-4.88 c 1.43,-1 3,-1.94 4.41,-2.88 1.31,2.67 2.31,5.12 3.66,7.36 a 16.22,16.22 0 0 0 11.05,7.71 c 6.78,1.48 12.81,-0.42 18.37,-3.93 a 48.07,48.07 0 0 0 20.04,-25.62 c 3,-8.67 4,-17.34 0.68,-26.2 -3.74,-9.88 -12.56,-14.37 -23.3,-11.54 -9.24,2.4 -16.2,8.01 -22.04,17.52 z m 52,49.22 c -32,20.51 -64.67,28.24 -99.350003,7.37 0.13,3.86 1.58,6.37 4.67,9.21 a 32.69,32.69 0 0 0 16.380003,7.9 c 4.85,0.94 9.78,1.55 14.21,2.24 1.25,2.72 2.08,5.29 3.49,7.49 4.11,6.4 10.84,7.21 16.6,2.21 a 20.2,20.2 0 0 0 6.4,-9.9 6.28,6.28 0 0 1 5,-4.78 86.76,86.76 0 0 0 21,-8.93 87.68,87.68 0 0 0 9.12,-6 c 1.73,-1.37 3.56,-3.03 2.48,-6.81 z m -49,-66.25 c 2,-1.46 3.66,-2.49 5.11,-3.74 a 13.6,13.6 0 0 1 8.14,-3.36 30.25,30.25 0 0 1 11.83,1.07 24,24 0 0 0 6.83,0.89 c 2.77,0.06 4.58,-1.67 5.87,-4 0.95,-1.7 0.8,-3 -1.06,-4.16 a 21.89,21.89 0 0 0 -15.27,-3 c -7.74,1.12 -14.85,3.45 -20.21,9.56 -1.43,1.68 -2.64,3.37 -1.19,6.74 z m -5.84,-7.75 a 20,20 0 0 0 -2.53,-1.09 24.48,24.48 0 0 0 -4.38,-0.89 c -10.59,-0.81 -19.63,2.2 -26.180003,11 -1,1.38 -2.71,3.26 -0.92,4.81 1.79,1.55 3.48,-0.29 4.64,-1.51 5.550003,-5.79 12.080003,-6.2 19.230003,-3.91 6.46,2.02 10.61,-1.3 10.14,-8.41 z"
     id="path4654" />
  <path
     class="cls-2"
     d="m 44.835307,154.88983 c 13.6,-2.64 27.18,-5.45 40.83,-7.85 9.11,-1.6 18.300003,-2.84 27.500003,-3.82 9.55,-1 19.14,-1.82 28.74,-2.15 16.59,-0.57 33.19,-0.91 49.79,-0.93 7.27,0 14.53,1 21.79,1.61 7.31,1.09 14.63,2.08 21.91,3.33 3.5,0.6 3.76,1.42 4.22,5 2.07,16.19 0.58,32.43 1,48.65 0.1,4.48 -2.41,6.14 -6.93,5.49 -5.52,-0.79 -11.08,-1.26 -16.62,-1.86 -5.46,-0.4 -10.91,-1.11 -16.37,-1.15 -15.62,-0.14 -31.25,0 -46.88,0 -1.5,0 -3,0 -4.49,0.13 -12.56,0.9 -25.12,1.77 -37.68,2.75 -8.09,0.64 -16.190003,1.21 -24.230003,2.24 -10.82,1.38 -21.6,3.08 -32.36,4.85 -4.18,0.69 -8.27,1.94 -12.41,2.94 -6.48,1 -13,1.87 -18.81,5.21 a 5.85,5.85 0 0 1 -1.81,0.69 6.6,6.6 0 0 1 -1.7,-0.16 6.81,6.81 0 0 1 -0.53,-1.73 q -0.51,-21.34 -0.95,-42.71 c -0.05,-2.66 0,-5.32 0,-8 0,-3.54 1.58,-5.93 5.09,-6.88 z"
     id="path4656" />
  <path
     class="cls-3"
     d="m 42.605307,214.08983 c 4.14,-1 8.23,-2.25 12.41,-2.94 10.76,-1.77 21.54,-3.47 32.36,-4.85 8,-1 16.140003,-1.6 24.230003,-2.24 12.56,-1 25.12,-1.85 37.68,-2.75 1.49,-0.11 3,-0.13 4.49,-0.13 15.63,0 31.26,-0.15 46.88,0 5.46,0 10.91,0.75 16.37,1.15 0.57,6.93 1.17,13.86 1.7,20.8 a 8,8 0 0 1 -3.4,7.33 c -1.46,1.07 -8.6,0.5 -10.41,0.46 q -20.14,-0.46 -40.29,-0.84 c -3,-1.9 -5.93,-1.39 -8.86,0.14 -11.13,0.13 -22.26,0.14 -33.38,0.41 -8.47,0.21 -16.93,0.75 -25.400003,1.14 -4.83,0.39 -6.09,0.59 -9.16,0.59 q -19.94,2.14 -39.88,4.26 c -3.79,0.39 -5,-0.68 -5.07,-4.66 -0.15,-5.96 -0.18,-11.92 -0.27,-17.87 z"
     id="path4658" />
  <path
     class="cls-4"
     d="m 214.50531,93.06983 c -5.15,1.88 -8.85,5.62 -12.3,9.65 -2,2.37 -3.9,4.84 -7.73,5.23 -0.22,-4.06 1.82,-7 4.16,-9.31 4.54,-4.56 9.47,-8.72 14.25,-13 0.85,-0.77 1.78,-1.45 2.67,-2.17 6.14,-2.82 12.28,-5.58 19,-6.77 15,-2.63 30.77,3.26 36.39,19.33 a 9.09,9.09 0 0 0 0.89,1.59 c 3.69,-0.78 7.18,-1.75 10.74,-2.23 a 24.27,24.27 0 0 1 14,2.36 c 2.91,1.39 4.42,4 3.85,6.22 -0.61,2.34 -4.18,5.17 -6.68,5.08 a 20.84,20.84 0 0 1 -3.85,-0.77 c -1.76,-0.39 -3.52,-0.81 -5.28,-1.22 l -1.09,-0.8 -0.4,0.57 1.37,0.37 a 19.44,19.44 0 0 0 2,3.26 25.23,25.23 0 0 1 7.2,19.93 13.17,13.17 0 0 1 -4.21,8.67 6.33,6.33 0 0 1 -6.84,1.84 c -2.57,-0.92 -3.7,-3.27 -4,-5.85 -0.45,-3.44 -0.7,-6.91 -1.05,-10.36 a 11.07,11.07 0 0 0 -2.22,-6.29 c -1,5.37 -1.52,10.6 -2.95,15.58 a 30.75,30.75 0 0 1 -5.06,10.1 15.79,15.79 0 0 1 -7.21,4.85 c -3.91,1.29 -6.32,-0.95 -6.55,-5.08 -0.24,-4.32 1.48,-8.14 3.21,-11.85 3,-6.37 4.48,-13.09 5.73,-19.92 a 3.13,3.13 0 0 0 -0.17,-1.15 c -3.9,3.89 -7.7,8 -11.89,11.72 -2.05,1.79 -4.77,2.9 -7.32,4 a 4.61,4.61 0 0 1 -5.82,-1.43 5.43,5.43 0 0 1 -0.8,-6 23.51,23.51 0 0 1 10.25,-11.11 c 4.69,-2.76 9.58,-5.17 14.4,-7.74 -6.15,-13.18 -29.72,-18.41 -46.69,-7.3 z"
     id="path4660" />
  <path
     class="cls-5"
     d="m 155.76531,230.20983 c 2.93,-1.53 5,-2.7 8.86,-0.14 -3,4.74 -2.44,9.92 -1.41,14.95 2.19,10.77 7.62,20.11 14,28.86 4,5.49 8.42,10.67 12.83,15.84 3.11,3.65 2.9,6.75 -1.34,9.15 -3.61,2 -7.4,3.76 -11.16,5.51 -6.31,2.92 -12.68,5.72 -19,8.63 -6.32,2.91 -12.29,5.83 -18.46,8.68 -4.42,2 -9.14,1.55 -13.69,0.94 -2.87,-0.38 -4.38,-2.8 -4.69,-5.75 -0.38,-3.46 0.86,-6.53 2.35,-9.51 3.29,-6.56 8.57,-11.44 14.12,-15.93 3.31,-2.68 7.25,-4.62 11,-6.65 a 29,29 0 0 1 18.81,-3 l -3.09,-5 c -3.15,-5.07 -6.51,-10 -9.4,-15.23 -5.39,-9.68 -5.44,-19.57 -0.4,-29.47 a 14.56,14.56 0 0 0 0.67,-1.88 z"
     id="path4662" />
  <path
     class="cls-5"
     d="m 87.825307,232.34983 c 3.07,0 4.68,-0.27 9.16,-0.59 -6.17,6 -6.57,13.05 -3.18,20.48 3.57,7.84 7.440003,15.55 11.170003,23.32 1.9,4 1.48,6.34 -2.33,8.74 a 82.93,82.93 0 0 1 -10.640003,5.39 c -12.26,5.41 -24.56,10.72 -36.86,16 -4.85,2.1 -9.74,4.11 -15.11,6.36 -0.81,-1.48 -2.07,-2.78 -2.22,-4.21 -2,-18.38 8.18,-32.23 25.46,-36.82 a 40.24,40.24 0 0 1 22.05,0.74 c 1.53,0.45 3.09,0.8 5.14,1.32 -2.06,-4.74 -4.17,-8.84 -5.64,-13.16 -1.32,-3.87 -2.69,-8 -2.66,-12 a 23.39,23.39 0 0 1 4.25,-13 28,28 0 0 0 1.41,-2.57 z"
     id="path4664" />
  <path
     class="cls-4"
     d="m 49.755307,101.08983 c -9,4.61 -17.86,-1.12 -17.72,-11.48 7.68,-4.14 15.62,-13.07 13.1,-19.23 -0.53,-0.06 -1.16,-0.16 -1.8,-0.21 -3.7,-0.28 -6.75,-1.64 -8.41,-5.2 -1.11,-2.38 -2.26,-4.76 -3.17,-7.22 -2.35,-6.38 -6.55,-10.64 -13.32,-12.17 -5.81,-1.32 -11.4300005,2.09 -13.2600005,8.23 2.74,1.09 4.64,-1.41 7.0000005,-1.61 a 9.29,9.29 0 0 1 7.39,2.27 c 1.55,1.47 8.71,4.82 7.66,14.68 a 11.75,11.75 0 0 1 -0.64,2.89 c -0.91,2.33 -1.78,4.84 -4.79,5.15 -3.01,0.31 -5.74,0.3 -7.09,-3.06 l -0.73,-0.37 0.76,0.34 c 3,0.15 5.62,0.07 8.07,-2.61 3.71,-4.06 0.91,-9 0.89,-9 l 0.06,-0.08 a 35.59,35.59 0 0 0 -4.23,-5 c -2.93,-2.48 -6.31,-3.15 -9.7500005,-1.58 a 15.16,15.16 0 0 0 -8.14,8.32 c -3.77,9.58 -0.6,17.85 5.21,25.39 a 12.17,12.17 0 0 0 11.0800005,4.58 l 4.77,-0.38 c 0,3.12 0.06,5.95 0,8.76 a 18.62,18.62 0 0 0 2.79,9.93 9.42,9.42 0 0 0 7.63,4.79 c 5.77,0.68 10.22,-2 14.66,-5 0.9,-3.51 0.26,-3.25 1.12,-6.77 0.04,-0.17 1.1,-4.18 0.86,-4.36 z"
     id="path4666" />
  <path
     class="cls-4"
     d="m 2.7153065,12.33983 a 14.74,14.74 0 0 1 3.63,-9.1299996 c 3.8000005,-4.07000005 9.1500005,-4.28 13.3200005,-0.57 3.61,3.2 5.34,7.5699996 7,11.8899996 a 104.88,104.88 0 0 1 5.82,23.49 c 0.39,2.88 -1.64,6.71 -4.4,7.7 a 3.18,3.18 0 0 1 -2.86,-0.93 c -4.74,-7.3 -11.34,-13 -16.8400005,-19.6 -3.01,-3.61 -5.39,-7.55 -5.67,-12.85 z"
     id="path4668" />
  <path
     class="cls-4"
     d="m 34.525307,57.27983 c 0.51,-2.53 0.74,-4.34 1.24,-6.07 1.61,-5.56 3.44,-11.1 7,-15.73 a 15.62,15.62 0 0 1 5.8,-4.31 c 2.92,-1.35 5.19,-0.37 6.34,2.62 0.88,2.27 1.76,4.83 1.55,7.17 -0.64,7.29 -2.45,14.3 -6.89,20.38 a 14.14,14.14 0 0 1 -6.59,5.09 c -2.79,1 -4.55,0.73 -5.87,-1.87 a 51.1,51.1 0 0 1 -2.58,-7.28 z"
     id="path4670" />
  <path
     class="cls-6"
     d="m 130.28531,46.35983 c 5.89,-9.51 12.85,-15.12 22.09,-17.56 10.74,-2.83 19.56,1.66 23.3,11.54 3.36,8.86 2.33,17.53 -0.68,26.2 a 48.07,48.07 0 0 1 -20.09,25.71 c -5.56,3.51 -11.59,5.41 -18.37,3.93 a 16.22,16.22 0 0 1 -11.05,-7.71 c -1.35,-2.24 -2.35,-4.69 -3.66,-7.36 -1.45,0.94 -3,1.85 -4.41,2.88 a 29.19,29.19 0 0 1 -11.84,4.88 c -8.450003,1.59 -17.350003,-5 -18.820003,-13.84 -1.65,-10 1.53,-18.65 7.86,-26.13 4.78,-5.66 10.610003,-9.77 18.310003,-11.06 6.75,-1.13 12,0.73 16.18,6 a 14.66,14.66 0 0 1 1.18,2.52 z m 24.86,14.61 a 47.56,47.56 0 0 0 -0.56,-6.45 c -1.28,-5.85 -6.18,-7.64 -10.92,-4 a 23.06,23.06 0 0 0 -7.87,10.69 74.74,74.74 0 0 0 -3.6,13.4 25,25 0 0 0 0.74,9.8 c 1.23,4.65 5.32,6.05 9.39,3.52 a 18.73,18.73 0 0 0 4.4,-4 c 5.43,-6.64 7.94,-14.35 8.37,-22.96 z m -37.23,1 c 0,-1.16 0.09,-2.33 0,-3.49 -0.41,-4.4 -3.31,-6.57 -7.56,-5.33 a 12.92,12.92 0 0 0 -5,3 29.65,29.65 0 0 0 -8.650003,16.4 19.56,19.56 0 0 0 0.12,9.85 c 1.35,4.25 4.950003,5.76 9.000003,3.87 a 13,13 0 0 0 6.62,-6.45 70,70 0 0 0 3,-6.78 c 1.11,-3.65 2.62,-11.06 2.42,-11.11 z"
     id="path4672" />
  <path
     class="cls-7"
     d="m 182.28531,95.57983 c 1.07,3.78 -0.76,5.44 -2.53,6.78 a 87.68,87.68 0 0 1 -9.12,6 86.76,86.76 0 0 1 -21,8.93 6.28,6.28 0 0 0 -5,4.78 20.2,20.2 0 0 1 -6.4,9.9 c -5.76,5 -12.49,4.19 -16.6,-2.21 -1.41,-2.2 -2.24,-4.77 -3.49,-7.49 -4.43,-0.69 -9.36,-1.3 -14.21,-2.24 a 32.69,32.69 0 0 1 -16.380003,-7.9 c -3.09,-2.84 -4.54,-5.35 -4.67,-9.21 34.740003,20.9 67.400003,13.17 99.400003,-7.34 z"
     id="path4674" />
  <path
     class="cls-8"
     d="m 284.49531,107.16983 -1.37,-0.37 0.4,-0.57 1.09,0.8 z"
     id="path4676" />
  <path
     class="cls-9"
     d="m 155.09531,60.96983 c -0.43,8.56 -2.94,16.32 -8.42,23 a 18.73,18.73 0 0 1 -4.4,4 c -4.07,2.53 -8.16,1.13 -9.39,-3.52 a 25,25 0 0 1 -0.74,-9.8 74.74,74.74 0 0 1 3.6,-13.4 23.06,23.06 0 0 1 7.87,-10.69 c 4.74,-3.64 9.64,-1.85 10.92,4 a 47.56,47.56 0 0 1 0.56,6.41 z"
     id="path4678" />
  <path
     class="cls-9"
     d="m 115.36531,72.95983 a 70,70 0 0 1 -3,6.78 13,13 0 0 1 -6.62,6.45 c -4.09,1.89 -7.690003,0.38 -9.000003,-3.87 a 19.56,19.56 0 0 1 -0.12,-9.85 29.65,29.65 0 0 1 8.650003,-16.4 12.92,12.92 0 0 1 5,-3 c 4.25,-1.24 7.15,0.93 7.56,5.33 0.1,1.16 0,2.33 0,3.49 0.23,0.09 -1.28,7.5 -2.47,11.07 z"
     id="path4680" />
  <path
     class="cls-7"
     d="m 127.44531,21.57983 c 0.47,7.14 -3.68,10.46 -10.14,8.4 -7.15,-2.29 -13.68,-1.88 -19.230003,3.91 -1.16,1.22 -2.92,3 -4.64,1.51 -1.72,-1.49 -0.11,-3.43 0.92,-4.81 6.550003,-8.79 15.590003,-11.8 26.180003,-11 a 24.48,24.48 0 0 1 4.38,0.89 20,20 0 0 1 2.53,1.1 z"
     id="path4682" />
  <path
     d="m 75.285307,158.77983 a 3.11,3.11 0 0 1 1.24,0.08 2.61,2.61 0 0 1 1,0.7 4.48,4.48 0 0 1 1.42,2.55 2.73,2.73 0 0 1 0,0.81 c -0.06,0.27 -0.13,0.7 -0.22,1.3 a 7.41,7.41 0 0 0 -0.14,1.22 16.34,16.34 0 0 1 0,2.71 9.81,9.81 0 0 1 -0.81,2.75 26.53,26.53 0 0 1 -2.09,3.93 15.7,15.7 0 0 1 -2.52,3 12.07,12.07 0 0 1 -3.05,2 l -0.65,0.29 a 6.86,6.86 0 0 0 -0.67,0.3 2.42,2.42 0 0 0 -0.42,0.29 3.35,3.35 0 0 0 -0.92,1.34 2.92,2.92 0 0 0 -0.32,1.32 18.71,18.71 0 0 0 0.72,2.94 17.75,17.75 0 0 1 0.69,2.77 8.57,8.57 0 0 1 -0.19,3.19 5.35,5.35 0 0 1 -1.33,2.42 4,4 0 0 1 -2.45,1.12 4,4 0 0 1 -2.54,-0.33 2.77,2.77 0 0 1 -1.06,-2.17 c -0.2,-1.69 -0.32,-3.08 -0.37,-4.17 -0.05,-1.09 0,-1.84 0,-2.17 a 6.41,6.41 0 0 0 -0.43,-2.1 1.14,1.14 0 0 0 -0.87,-0.73 8.15,8.15 0 0 0 -2.2,0.07 46.43,46.43 0 0 1 -8.6,0.39 10.11,10.11 0 0 1 -5.38,-1.67 6,6 0 0 1 -2.32,-4.26 8.88,8.88 0 0 1 0.08,-3.14 12.12,12.12 0 0 1 1.14,-3.14 12.25,12.25 0 0 1 2.56,-3.46 4.76,4.76 0 0 1 2.43,-1.36 c 0.8,-0.1 1.24,0.16 1.32,0.8 a 6.84,6.84 0 0 1 -0.52,2.11 c -0.38,1.12 -0.68,2.05 -0.9,2.8 a 5,5 0 0 0 -0.21,2 5.49,5.49 0 0 0 0.43,1.67 3,3 0 0 0 1.37,1.09 c 1.33,0.61 3.67,0.7 7,0.29 a 29.47,29.47 0 0 0 8.05,-2.15 19.38,19.38 0 0 0 6.06,-3.77 c 1.48,-1.43 2.14,-2.81 2,-4.15 a 9.18,9.18 0 0 0 -0.63,-1.37 6.49,6.49 0 0 1 -0.71,-2.18 4,4 0 0 1 0.82,-2.94 7.93,7.93 0 0 1 2.39,-2.13 6.36,6.36 0 0 1 1.8,-0.86 z"
     id="path4684" />
  <path
     d="m 98.865307,187.89983 a 60.08,60.08 0 0 0 -6.66,0.83 c -1.25,0.28 -2,0.65 -2.26,1.12 a 5.46,5.46 0 0 0 -0.28,2.62 5.17,5.17 0 0 1 -0.47,2.54 5,5 0 0 1 -1.52,1.94 4,4 0 0 1 -2,0.82 3,3 0 0 1 -2.35,-0.47 3.15,3.15 0 0 1 -0.86,-2.1 8.15,8.15 0 0 1 0.44,-3 33,33 0 0 1 1.75,-4.33 c 0.79,-1.66 1.84,-3.73 3.12,-6.19 1.18,-2.26 2.32,-4.29 3.44,-6.08 1.12,-1.79 2.07,-3.23 2.85,-4.31 0.78,-1.08 1.46,-2 2,-2.7 0.54,-0.7 0.94,-1.15 1.1,-1.33 a 21.6,21.6 0 0 1 2.46,-3.1 l 0.920003,-0.83 a 4,4 0 0 0 0.61,-0.65 0.81,0.81 0 0 0 0.21,-0.57 4,4 0 0 0 -1,-1.75 c -0.620003,-0.79 -1.000003,-1.3 -1.150003,-1.53 a 3.19,3.19 0 0 0 -0.46,-0.71 1.93,1.93 0 0 0 -0.66,-0.31 1.21,1.21 0 0 1 -0.71,-0.47 2.43,2.43 0 0 1 -0.21,-0.91 c -0.08,-0.85 0.49,-1.62 1.7,-2.29 a 7.75,7.75 0 0 1 2.930003,-1.09 4.67,4.67 0 0 1 2.85,0.7 12.39,12.39 0 0 1 2.87,2.51 47.79,47.79 0 0 1 3.49,4.55 q 2,2.87 5.18,7.67 c 1.36,2.1 3.32,4.88 5.84,8.36 2.52,3.48 4.09,5.7 4.71,6.64 a 5.17,5.17 0 0 1 1,2.38 3.58,3.58 0 0 1 -1.12,2.9 4.72,4.72 0 0 1 -3.16,1.33 5.34,5.34 0 0 1 -4.19,-2 q -1.33,-1.47 -1.77,-1.89 a 1.39,1.39 0 0 0 -1.09,-0.37 20.57,20.57 0 0 0 -3.39,0.77 c -1.67,0.48 -2.95,0.82 -3.83,1 a 21.58,21.58 0 0 1 -3.31,0.49 30.16,30.16 0 0 1 -3.37,0.08 c -1,0 -1.89,-0.1 -2.560003,-0.19 z m 8.940003,-6.63 c 3.15,-0.24 4.71,-0.55 4.68,-0.95 a 3,3 0 0 0 -0.19,-1 c -0.09,-0.19 -0.31,-0.48 -0.56,-0.86 -0.25,-0.38 -0.6,-1.08 -1.21,-2.25 -0.61,-1.17 -1.18,-2.22 -1.7,-3.16 a 29.84,29.84 0 0 0 -1.64,-2.61 c -1.13,-1.72 -1.94,-2.89 -2.41,-3.51 -0.47,-0.62 -0.86,-0.92 -1.17,-0.9 a 1.68,1.68 0 0 0 -0.67,0.46 8.94,8.94 0 0 0 -1.11,1.23 12.2,12.2 0 0 0 -1.23,1.95 c -0.27,0.52 -0.750003,1.41 -1.430003,2.66 -0.68,1.25 -1.51,2.67 -2.48,4.22 -0.35,0.58 -0.86,1.31 -1.52,2.2 a 21.55,21.55 0 0 0 -1.31,1.93 2.13,2.13 0 0 0 -0.27,1.17 2.24,2.24 0 0 0 0.17,0.73 0.43,0.43 0 0 0 0.47,0.21 9.9,9.9 0 0 1 2.22,-0.67 31.21,31.21 0 0 1 5.470003,-0.93 l 2.12,0.1 a 31.19,31.19 0 0 0 3.77,-0.02 z"
     id="path4686" />
  <path
     d="m 145.44531,152.27983 a 2.66,2.66 0 0 1 1.8,0.46 4.9,4.9 0 0 1 1.27,1.8 c 0.41,0.87 1.2,2.7 2.36,5.51 0.7,1.62 1.29,3.16 1.79,4.62 0.5,1.46 0.92,2.72 1.26,3.8 a 20.47,20.47 0 0 0 0.84,2.3 c 0.21,0.46 0.4,0.69 0.57,0.68 0.17,-0.01 0.63,-0.66 1,-2 a 60.23,60.23 0 0 1 4.77,-11.63 8.65,8.65 0 0 1 2.81,-3.06 6.46,6.46 0 0 1 3.3,-1.06 4.13,4.13 0 0 1 2.8,1.05 13.23,13.23 0 0 1 2.29,2.53 c 0.67,1 2.3,3.42 4.83,7.37 a 72.65,72.65 0 0 1 4,7.1 49.67,49.67 0 0 1 2.42,5.67 13.15,13.15 0 0 1 0.77,2.94 3.44,3.44 0 0 1 -0.67,1.93 6.46,6.46 0 0 1 -1.61,1.68 3,3 0 0 1 -1.57,0.68 5,5 0 0 1 -2.66,-0.48 29.43,29.43 0 0 1 -2.61,-4.53 q -2.24,-4.27 -3.36,-6.27 a 45.67,45.67 0 0 0 -4.25,-6.63 c -1.3,-1.6 -2.17,-2.4 -2.62,-2.39 -0.26,0 -0.81,1.17 -1.69,3.44 -0.62,1.62 -1.59,3.79 -2.87,6.47 a 48.43,48.43 0 0 0 -2.67,6.48 c -0.35,1.18 -0.62,2.07 -0.82,2.65 a 5.48,5.48 0 0 1 -0.94,1.65 5.84,5.84 0 0 1 -1.53,1.38 3.31,3.31 0 0 1 -1.56,0.61 3.13,3.13 0 0 1 -2.34,-0.68 4.7,4.7 0 0 1 -1.26,-1.91 c -0.3,-0.79 -0.75,-2.31 -1.37,-4.56 -0.62,-2.25 -1.17,-4.09 -1.66,-5.49 q -0.42,-1.15 -1.2,-3.6 c -0.51,-1.63 -0.86,-2.66 -1.05,-3.1 -0.19,-0.44 -0.4,-0.65 -0.66,-0.64 -0.26,0.01 -1.62,2.36 -3.74,7 -3.16,6.84 -5.16,11.52 -6,14 a 3.51,3.51 0 0 1 -3.95,2.78 1.39,1.39 0 0 1 -1.08,-0.32 1.16,1.16 0 0 1 -0.42,-0.76 12,12 0 0 1 0.66,-4 54.15,54.15 0 0 1 2.46,-6.17 c 1.08,-2.46 2.37,-5.19 3.83,-8.18 1.35,-2.75 2.43,-4.89 3.24,-6.39 a 37.35,37.35 0 0 1 2.57,-4.1 2.79,2.79 0 0 0 0.48,-1 12.88,12.88 0 0 0 -0.29,-1.75 12.56,12.56 0 0 1 -0.31,-2 2.59,2.59 0 0 1 0.73,-1.63 6.73,6.73 0 0 1 1.89,-1.61 4.46,4.46 0 0 1 2.02,-0.64 z"
     id="path4688" />
  <path
     d="m 188.09531,174.40983 q 0,-4.32 0.18,-7.85 0.18,-3.53 0.5,-6.19 c 0.19,-1.76 0.3,-2.68 0.32,-2.76 0.57,-2.57 2.05,-3.85 4.47,-3.86 a 1.18,1.18 0 0 1 0.8,0.44 2.9,2.9 0 0 1 0.6,1 21.81,21.81 0 0 1 0.44,3.46 c 0.15,1.92 0.23,4.35 0.24,7.27 0,1.94 0,3.47 -0.11,4.6 -0.11,1.13 -0.18,2.61 -0.31,4.44 -0.13,1.83 -0.2,3.14 -0.19,3.92 a 2,2 0 0 0 0.58,1.54 2.18,2.18 0 0 0 1.56,0.54 47.93,47.93 0 0 0 7.32,-1.09 q 5.48,-1.06 7.71,-1.41 a 30.16,30.16 0 0 1 5.31,-0.29 3,3 0 0 1 1.51,0.51 1.58,1.58 0 0 1 0.78,1.44 5.82,5.82 0 0 1 -1.61,3.64 5,5 0 0 1 -2.19,1.06 32.72,32.72 0 0 1 -3.61,0.66 l -6.17,0.79 c -2.69,0.34 -4.82,0.65 -6.35,0.93 a 36.86,36.86 0 0 1 -6.56,0.76 c -2,0 -3.41,-0.46 -4.06,-1.38 a 5.3,5.3 0 0 1 -0.73,-2.21 35.59,35.59 0 0 1 -0.31,-3.62 q -0.09,-2.17 -0.12,-6.34 z"
     id="path4690" />
  <path
     class="cls-7"
     d="m 133.33531,29.32983 c -1.45,-3.37 -0.24,-5.06 1.24,-6.73 5.36,-6.11 12.47,-8.44 20.21,-9.56 a 21.89,21.89 0 0 1 15.27,3 c 1.86,1.15 2,2.46 1.06,4.16 -1.29,2.3 -3.1,4 -5.87,4 a 24,24 0 0 1 -6.83,-0.89 30.25,30.25 0 0 0 -11.83,-1.07 13.6,13.6 0 0 0 -8.14,3.36 c -1.45,1.24 -3.1,2.27 -5.11,3.73 z"
     id="path4692" />
</svg>
